<?xml version="1.0" encoding="iso-8859-1"?>
<!-- Generator: Adobe Illustrator 19.0.0, SVG Export Plug-In . SVG Version: 6.00 Build 0)  -->
<svg version="1.1" id="Layer_1" xmlns="http://www.w3.org/2000/svg" xmlns:xlink="http://www.w3.org/1999/xlink" x="0px" y="0px"
	 viewBox="0 0 512 512" style="enable-background:new 0 0 512 512;" xml:space="preserve">
<path style="fill:#81A4E3;" d="M310.857,219.429c-10.08,0-18.286,8.17-18.286,18.205v192.08h36.571v-192.08
	C329.143,227.598,320.938,219.429,310.857,219.429z"/>
<path style="fill:#EA86A5;" d="M210.286,164.571c-10.08,0-18.286,8.205-18.286,18.295v246.848h36.571V182.866
	C228.571,172.777,220.366,164.571,210.286,164.571z"/>
<path style="fill:#EAEAEA;" d="M18.286,429.714h54.857V320.089c0-20.214,16.402-36.661,36.571-36.661s36.571,16.446,36.571,36.661
	v109.625h27.429V182.866c0-20.17,16.402-36.58,36.571-36.58s36.571,16.411,36.571,36.58v246.848h27.429v-192.08
	c0-20.125,16.402-36.491,36.571-36.491c20.17,0,36.571,16.366,36.571,36.491v192.08h146.286V82.286H18.286V429.714z
	 M365.714,146.286h91.429v18.286h-91.429V146.286z M365.714,182.857h54.857v18.286h-54.857V182.857z M45.714,237.714h91.429V256
	H45.714V237.714z"/>
<path style="fill:#73C9C9;" d="M109.714,301.714c-10.08,0-18.286,8.241-18.286,18.375v109.625H128V320.089
	C128,309.955,119.795,301.714,109.714,301.714z"/>
<g>
	<path style="fill:#314E55;" d="M502.857,64H9.143C4.089,64,0,68.089,0,73.143v365.714C0,443.911,4.089,448,9.143,448h73.143h54.857
		h45.714h54.857h45.714h54.857h164.571c5.053,0,9.143-4.089,9.143-9.143V73.143C512,68.089,507.911,64,502.857,64z M91.429,429.714
		V320.089c0-10.134,8.205-18.375,18.286-18.375S128,309.955,128,320.089v109.625H91.429z M192,429.714V182.866
		c0-10.089,8.205-18.295,18.286-18.295s18.286,8.205,18.286,18.295v246.848H192z M292.571,429.714v-192.08
		c0-10.036,8.205-18.205,18.286-18.205c10.08,0,18.286,8.17,18.286,18.205v192.08H292.571z M493.714,429.714H347.429v-192.08
		c0-20.125-16.402-36.491-36.571-36.491c-20.17,0-36.571,16.366-36.571,36.491v192.08h-27.429V182.866
		c0-20.17-16.402-36.58-36.571-36.58s-36.571,16.411-36.571,36.58v246.848h-27.429V320.089c0-20.214-16.402-36.661-36.571-36.661
		s-36.571,16.446-36.571,36.661v109.625H18.286V82.286h475.429V429.714z"/>
	<rect x="365.714" y="146.286" style="fill:#314E55;" width="91.429" height="18.286"/>
	<rect x="45.714" y="237.714" style="fill:#314E55;" width="91.429" height="18.286"/>
	<rect x="365.714" y="182.857" style="fill:#314E55;" width="54.857" height="18.286"/>
</g>
<g>
</g>
<g>
</g>
<g>
</g>
<g>
</g>
<g>
</g>
<g>
</g>
<g>
</g>
<g>
</g>
<g>
</g>
<g>
</g>
<g>
</g>
<g>
</g>
<g>
</g>
<g>
</g>
<g>
</g>
</svg>
