<?xml version="1.0" encoding="iso-8859-1"?>
<!-- Generator: Adobe Illustrator 19.0.0, SVG Export Plug-In . SVG Version: 6.00 Build 0)  -->
<svg version="1.1" id="Layer_1" xmlns="http://www.w3.org/2000/svg" xmlns:xlink="http://www.w3.org/1999/xlink" x="0px" y="0px"
	 viewBox="0 0 512 512" style="enable-background:new 0 0 512 512;" xml:space="preserve">
<path style="fill:#F28544;" d="M256,365.714c57.415,0,104.674-44.339,109.335-100.571H246.857c-5.049,0-9.143-4.089-9.143-9.143
	V147.813c-52,8.768-91.429,54.5-91.429,108.187C146.286,316.5,195.504,365.714,256,365.714z"/>
<path style="fill:#EAEAEA;" d="M18.286,429.714h475.429V82.286H18.286V429.714z M429.714,384h-54.857v-18.286h54.857V384z
	 M429.714,356.571h-54.857v-18.286h54.857V356.571z M320,128h109.714v18.286H320V128z M320,164.571h45.714v18.286H320V164.571z
	 M246.165,128.375c2.545-0.152,5.04,0.679,6.906,2.411s2.928,4.161,2.928,6.705v109.366h118.857c5.049,0,9.143,4.089,9.143,9.143
	c0,70.58-57.42,128-128,128s-128-57.42-128-128C128,189.473,179.902,133.42,246.165,128.375z M36.571,356.571H128v18.286H36.571
	V356.571z M36.571,393.143H128v18.286H36.571V393.143z"/>
<g>
	<path style="fill:#314E55;" d="M502.857,64H9.143C4.094,64,0,68.089,0,73.143v365.714C0,443.911,4.094,448,9.143,448h493.714
		c5.049,0,9.143-4.089,9.143-9.143V73.143C512,68.089,507.906,64,502.857,64z M493.714,429.714H18.286V82.286h475.429V429.714z"/>
	<path style="fill:#314E55;" d="M256,384c70.58,0,128-57.42,128-128c0-5.053-4.094-9.143-9.143-9.143H256V137.491
		c0-2.545-1.062-4.973-2.928-6.705s-4.362-2.563-6.906-2.411C179.902,133.42,128,189.473,128,256C128,326.58,185.42,384,256,384z
		 M237.714,147.813V256c0,5.053,4.094,9.143,9.143,9.143h118.478c-4.661,56.232-51.92,100.571-109.335,100.571
		c-60.496,0-109.714-49.214-109.714-109.714C146.286,202.312,185.714,156.58,237.714,147.813z"/>
	<rect x="320" y="128" style="fill:#314E55;" width="109.714" height="18.286"/>
	<rect x="36.571" y="356.571" style="fill:#314E55;" width="91.429" height="18.286"/>
	<rect x="374.857" y="338.286" style="fill:#314E55;" width="54.857" height="18.286"/>
	<rect x="374.857" y="365.714" style="fill:#314E55;" width="54.857" height="18.286"/>
	<rect x="36.571" y="393.143" style="fill:#314E55;" width="91.429" height="18.286"/>
	<rect x="320" y="164.571" style="fill:#314E55;" width="45.714" height="18.286"/>
</g>
<g>
</g>
<g>
</g>
<g>
</g>
<g>
</g>
<g>
</g>
<g>
</g>
<g>
</g>
<g>
</g>
<g>
</g>
<g>
</g>
<g>
</g>
<g>
</g>
<g>
</g>
<g>
</g>
<g>
</g>
</svg>
