<?xml version="1.0" encoding="iso-8859-1"?>
<!-- Generator: Adobe Illustrator 19.0.0, SVG Export Plug-In . SVG Version: 6.00 Build 0)  -->
<svg version="1.1" id="Layer_1" xmlns="http://www.w3.org/2000/svg" xmlns:xlink="http://www.w3.org/1999/xlink" x="0px" y="0px"
	 viewBox="0 0 512 512" style="enable-background:new 0 0 512 512;" xml:space="preserve">
<g>
	<rect x="100.571" y="128" style="fill:#73C9C9;" width="228.571" height="137.143"/>
	<rect x="100.571" y="338.286" style="fill:#73C9C9;" width="228.571" height="91.429"/>
</g>
<path style="fill:#EAEAEA;" d="M82.286,329.143c0-5.053,4.094-9.143,9.143-9.143h246.857c5.049,0,9.143,4.089,9.143,9.143v100.571
	h73.143V82.286H18.286v347.429h64V329.143z M82.286,118.857c0-5.053,4.094-9.143,9.143-9.143h246.857
	c5.049,0,9.143,4.089,9.143,9.143v155.429c0,5.053-4.094,9.143-9.143,9.143H91.429c-5.049,0-9.143-4.089-9.143-9.143V118.857z"/>
<path style="fill:#D8D8D8;" d="M438.857,429.714h54.857V82.286h-54.857V429.714z M457.143,137.143h18.286v73.143h-18.286V137.143z"
	/>
<g>
	<path style="fill:#314E55;" d="M502.857,64h-73.143H9.143C4.094,64,0,68.089,0,73.143v365.714C0,443.911,4.094,448,9.143,448
		h82.286h246.857h91.429h73.143c5.049,0,9.143-4.089,9.143-9.143V73.143C512,68.089,507.906,64,502.857,64z M18.286,82.286h402.286
		v347.429h-73.143V329.143c0-5.053-4.094-9.143-9.143-9.143H91.429c-5.049,0-9.143,4.089-9.143,9.143v100.571h-64V82.286z
		 M100.571,429.714v-91.429h228.571v91.429H100.571z M493.714,429.714h-54.857V82.286h54.857V429.714z"/>
	<path style="fill:#314E55;" d="M91.429,283.429h246.857c5.049,0,9.143-4.089,9.143-9.143V118.857c0-5.053-4.094-9.143-9.143-9.143
		H91.429c-5.049,0-9.143,4.089-9.143,9.143v155.429C82.286,279.339,86.379,283.429,91.429,283.429z M100.571,128h228.571v137.143
		H100.571V128z"/>
	<rect x="457.143" y="137.143" style="fill:#314E55;" width="18.286" height="73.143"/>
</g>
<g>
</g>
<g>
</g>
<g>
</g>
<g>
</g>
<g>
</g>
<g>
</g>
<g>
</g>
<g>
</g>
<g>
</g>
<g>
</g>
<g>
</g>
<g>
</g>
<g>
</g>
<g>
</g>
<g>
</g>
</svg>
