<?xml version="1.0" encoding="iso-8859-1"?>
<!-- Generator: Adobe Illustrator 19.0.0, SVG Export Plug-In . SVG Version: 6.00 Build 0)  -->
<svg version="1.1" id="Layer_1" xmlns="http://www.w3.org/2000/svg" xmlns:xlink="http://www.w3.org/1999/xlink" x="0px" y="0px"
	 viewBox="0 0 512 512" style="enable-background:new 0 0 512 512;" xml:space="preserve">
<rect x="192" y="155.429" style="fill:#D26CBA;" width="256" height="201.143"/>
<path style="fill:#C59981;" d="M18.286,82.286v347.429H128V82.286H18.286z M100.571,310.857H27.429v-18.286h73.143V310.857z
	 M100.571,274.286H27.429V256h73.143V274.286z M100.571,237.714H27.429v-18.286h73.143V237.714z M100.571,201.143H27.429v-18.286
	h73.143V201.143z M118.857,118.857H27.429v-18.286h91.429V118.857z"/>
<path style="fill:#EAEAEA;" d="M146.286,429.714h347.429V82.286H146.286V429.714z M182.857,137.143h274.286
	c5.053,0,9.143,4.089,9.143,9.143v219.429c0,5.053-4.089,9.143-9.143,9.143H182.857c-5.053,0-9.143-4.089-9.143-9.143V146.286
	C173.714,141.232,177.804,137.143,182.857,137.143z"/>
<g>
	<path style="fill:#314E55;" d="M502.857,64H137.143h-128C4.089,64,0,68.089,0,73.143v365.714C0,443.911,4.089,448,9.143,448h128
		h365.714c5.053,0,9.143-4.089,9.143-9.143V73.143C512,68.089,507.911,64,502.857,64z M18.286,429.714V82.286H128v347.429H18.286z
		 M493.714,429.714H146.286V82.286h347.429V429.714z"/>
	<rect x="27.429" y="100.571" style="fill:#314E55;" width="91.429" height="18.286"/>
	<rect x="27.429" y="182.857" style="fill:#314E55;" width="73.143" height="18.286"/>
	<rect x="27.429" y="219.429" style="fill:#314E55;" width="73.143" height="18.286"/>
	<rect x="27.429" y="256" style="fill:#314E55;" width="73.143" height="18.286"/>
	<rect x="27.429" y="292.571" style="fill:#314E55;" width="73.143" height="18.286"/>
	<path style="fill:#314E55;" d="M182.857,374.857h274.286c5.053,0,9.143-4.089,9.143-9.143V146.286c0-5.053-4.089-9.143-9.143-9.143
		H182.857c-5.053,0-9.143,4.089-9.143,9.143v219.429C173.714,370.768,177.804,374.857,182.857,374.857z M192,155.429h256v201.143
		H192V155.429z"/>
</g>
<g>
</g>
<g>
</g>
<g>
</g>
<g>
</g>
<g>
</g>
<g>
</g>
<g>
</g>
<g>
</g>
<g>
</g>
<g>
</g>
<g>
</g>
<g>
</g>
<g>
</g>
<g>
</g>
<g>
</g>
</svg>
