<?xml version="1.0" encoding="iso-8859-1"?>
<!-- Generator: Adobe Illustrator 19.0.0, SVG Export Plug-In . SVG Version: 6.00 Build 0)  -->
<svg version="1.1" id="Layer_1" xmlns="http://www.w3.org/2000/svg" xmlns:xlink="http://www.w3.org/1999/xlink" x="0px" y="0px"
	 viewBox="0 0 512 512" style="enable-background:new 0 0 512 512;" xml:space="preserve">
<g>
	<rect x="164.571" y="237.714" style="fill:#EA86A5;" width="100.571" height="36.571"/>
	<rect x="310.857" y="356.571" style="fill:#EA86A5;" width="100.571" height="36.571"/>
</g>
<rect x="128" y="137.143" style="fill:#81A4E3;" width="320" height="36.571"/>
<path style="fill:#D8D8D8;" d="M128,192v237.714h320V192H128z M292.571,228.571h109.714v18.286H292.571V228.571z M292.571,265.143
	h109.714v18.286H292.571V265.143z M283.429,402.286H173.714V384h109.714V402.286z M283.429,365.714H173.714v-18.286h109.714V365.714
	z M283.429,283.429c0,5.053-4.094,9.143-9.143,9.143H155.429c-5.049,0-9.143-4.089-9.143-9.143v-54.857
	c0-5.053,4.094-9.143,9.143-9.143h118.857c5.049,0,9.143,4.089,9.143,9.143V283.429z M429.714,402.286
	c0,5.053-4.094,9.143-9.143,9.143H301.714c-5.049,0-9.143-4.089-9.143-9.143v-54.857c0-5.053,4.094-9.143,9.143-9.143h118.857
	c5.049,0,9.143,4.089,9.143,9.143V402.286z"/>
<path style="fill:#EAEAEA;" d="M18.286,429.714h91.429V182.857V128c0-5.053,4.094-9.143,9.143-9.143h338.286
	c5.049,0,9.143,4.089,9.143,9.143v54.857v246.857h27.429V82.286H18.286V429.714z"/>
<g>
	<path style="fill:#314E55;" d="M502.857,64H9.143C4.094,64,0,68.089,0,73.143v365.714C0,443.911,4.094,448,9.143,448h109.714
		h338.286h45.714c5.049,0,9.143-4.089,9.143-9.143V73.143C512,68.089,507.906,64,502.857,64z M448,173.714H128v-36.571h320V173.714z
		 M128,429.714V192h320v237.714H128z M493.714,429.714h-27.429V182.857V128c0-5.053-4.094-9.143-9.143-9.143H118.857
		c-5.049,0-9.143,4.089-9.143,9.143v54.857v246.857H18.286V82.286h475.429V429.714z"/>
	<path style="fill:#314E55;" d="M274.286,219.429H155.429c-5.049,0-9.143,4.089-9.143,9.143v54.857c0,5.053,4.094,9.143,9.143,9.143
		h118.857c5.049,0,9.143-4.089,9.143-9.143v-54.857C283.429,223.518,279.335,219.429,274.286,219.429z M265.143,274.286H164.571
		v-36.571h100.571V274.286z"/>
	<path style="fill:#314E55;" d="M420.571,338.286H301.714c-5.049,0-9.143,4.089-9.143,9.143v54.857c0,5.053,4.094,9.143,9.143,9.143
		h118.857c5.049,0,9.143-4.089,9.143-9.143v-54.857C429.714,342.375,425.621,338.286,420.571,338.286z M411.429,393.143H310.857
		v-36.571h100.571V393.143z"/>
	<rect x="292.571" y="228.571" style="fill:#314E55;" width="109.714" height="18.286"/>
	<rect x="173.714" y="347.429" style="fill:#314E55;" width="109.714" height="18.286"/>
	<rect x="292.571" y="265.143" style="fill:#314E55;" width="109.714" height="18.286"/>
	<rect x="173.714" y="384" style="fill:#314E55;" width="109.714" height="18.286"/>
</g>
<g>
</g>
<g>
</g>
<g>
</g>
<g>
</g>
<g>
</g>
<g>
</g>
<g>
</g>
<g>
</g>
<g>
</g>
<g>
</g>
<g>
</g>
<g>
</g>
<g>
</g>
<g>
</g>
<g>
</g>
</svg>
