<?xml version="1.0" encoding="iso-8859-1"?>
<!-- Generator: Adobe Illustrator 19.0.0, SVG Export Plug-In . SVG Version: 6.00 Build 0)  -->
<svg version="1.1" id="Layer_1" xmlns="http://www.w3.org/2000/svg" xmlns:xlink="http://www.w3.org/1999/xlink" x="0px" y="0px"
	 viewBox="0 0 512 512" style="enable-background:new 0 0 512 512;" xml:space="preserve">
<g>
	<rect x="256" y="274.286" style="fill:#E9E7D1;" width="192" height="155.429"/>
	<rect x="54.857" y="274.286" style="fill:#E9E7D1;" width="155.429" height="155.429"/>
	<rect x="54.857" y="128" style="fill:#E9E7D1;" width="128" height="54.857"/>
</g>
<path style="fill:#D8D8D8;" d="M18.286,429.714h18.286V265.143c0-5.053,4.089-9.143,9.143-9.143h173.714
	c5.053,0,9.143,4.089,9.143,9.143v164.571h9.143V265.143c0-5.053,4.089-9.143,9.143-9.143h210.286c5.053,0,9.143,4.089,9.143,9.143
	v164.571h27.429V82.286H18.286V429.714z M457.143,237.714H301.714v-18.286h155.429V237.714z M457.143,201.143h-91.429v-18.286
	h91.429V201.143z M457.143,164.571h-128v-18.286h128V164.571z M219.429,109.714h237.714V128H219.429V109.714z M219.429,146.286
	h91.429v18.286h-91.429V146.286z M219.429,182.857h128v18.286h-128V182.857z M36.571,118.857c0-5.053,4.089-9.143,9.143-9.143H192
	c5.053,0,9.143,4.089,9.143,9.143V192c0,5.053-4.089,9.143-9.143,9.143H45.714c-5.053,0-9.143-4.089-9.143-9.143V118.857z
	 M36.571,219.429h246.857v18.286H36.571V219.429z"/>
<g>
	<path style="fill:#314E55;" d="M502.857,64H9.143C4.089,64,0,68.089,0,73.143v365.714C0,443.911,4.089,448,9.143,448h36.571
		h173.714h27.429h210.286h45.714c5.053,0,9.143-4.089,9.143-9.143V73.143C512,68.089,507.911,64,502.857,64z M54.857,429.714
		V274.286h155.429v155.429H54.857z M256,429.714V274.286h192v155.429H256z M493.714,429.714h-27.429V265.143
		c0-5.053-4.089-9.143-9.143-9.143H246.857c-5.053,0-9.143,4.089-9.143,9.143v164.571h-9.143V265.143
		c0-5.053-4.089-9.143-9.143-9.143H45.714c-5.053,0-9.143,4.089-9.143,9.143v164.571H18.286V82.286h475.429V429.714z"/>
	<path style="fill:#314E55;" d="M45.714,201.143H192c5.053,0,9.143-4.089,9.143-9.143v-73.143c0-5.053-4.089-9.143-9.143-9.143
		H45.714c-5.053,0-9.143,4.089-9.143,9.143V192C36.571,197.053,40.661,201.143,45.714,201.143z M54.857,128h128v54.857h-128V128z"/>
	<rect x="219.429" y="109.714" style="fill:#314E55;" width="237.714" height="18.286"/>
	<rect x="36.571" y="219.429" style="fill:#314E55;" width="246.857" height="18.286"/>
	<rect x="301.714" y="219.429" style="fill:#314E55;" width="155.429" height="18.286"/>
	<rect x="219.429" y="146.286" style="fill:#314E55;" width="91.429" height="18.286"/>
	<rect x="365.714" y="182.857" style="fill:#314E55;" width="91.429" height="18.286"/>
	<rect x="329.143" y="146.286" style="fill:#314E55;" width="128" height="18.286"/>
	<rect x="219.429" y="182.857" style="fill:#314E55;" width="128" height="18.286"/>
</g>
<g>
</g>
<g>
</g>
<g>
</g>
<g>
</g>
<g>
</g>
<g>
</g>
<g>
</g>
<g>
</g>
<g>
</g>
<g>
</g>
<g>
</g>
<g>
</g>
<g>
</g>
<g>
</g>
<g>
</g>
</svg>
