<?xml version="1.0" encoding="iso-8859-1"?>
<!-- Generator: Adobe Illustrator 19.0.0, SVG Export Plug-In . SVG Version: 6.00 Build 0)  -->
<svg version="1.1" id="Layer_1" xmlns="http://www.w3.org/2000/svg" xmlns:xlink="http://www.w3.org/1999/xlink" x="0px" y="0px"
	 viewBox="0 0 512 512" style="enable-background:new 0 0 512 512;" xml:space="preserve">
<path style="fill:#73C9C9;" d="M54.857,146.286c0-5.053,4.089-9.143,9.143-9.143h118.857c5.053,0,9.143,4.089,9.143,9.143V192
	h45.714h164.571h91.429V82.286H18.286V192h36.571V146.286z"/>
<path style="fill:#EAEAEA;" d="M228.571,210.286H192V256c0,5.053-4.089,9.143-9.143,9.143H64c-5.053,0-9.143-4.089-9.143-9.143
	v-45.714H18.286v219.429h210.286V210.286z M155.429,374.857H54.857v-18.286h100.571V374.857z M173.714,338.286H54.857V320h118.857
	V338.286z M173.714,301.714H54.857v-18.286h118.857V301.714z"/>
<polygon style="fill:#D8D8D8;" points="173.714,201.143 173.714,155.429 73.143,155.429 73.143,201.143 73.143,246.857 
	173.714,246.857 "/>
<rect x="411.429" y="210.286" style="fill:#EAEAEA;" width="82.286" height="219.429"/>
<path style="fill:#D8D8D8;" d="M246.857,210.286v219.429h146.286V210.286H246.857z M347.429,411.429h-82.286v-18.286h82.286V411.429
	z M347.429,365.714h-82.286v-18.286h82.286V365.714z M374.857,338.286H265.143V320h109.714V338.286z M374.857,274.286H265.143V256
	h109.714V274.286z M374.857,246.857H265.143v-18.286h109.714V246.857z"/>
<g>
	<path style="fill:#314E55;" d="M502.857,64H9.143C4.089,64,0,68.089,0,73.143v128v237.714C0,443.911,4.089,448,9.143,448h228.571
		h164.571h100.571c5.053,0,9.143-4.089,9.143-9.143V201.143v-128C512,68.089,507.911,64,502.857,64z M18.286,82.286h475.429V192
		h-91.429H237.714H192v-45.714c0-5.053-4.089-9.143-9.143-9.143H64c-5.053,0-9.143,4.089-9.143,9.143V192H18.286V82.286z
		 M73.143,201.143v-45.714h100.571v45.714v45.714H73.143V201.143z M18.286,210.286h36.571V256c0,5.053,4.089,9.143,9.143,9.143
		h118.857c5.053,0,9.143-4.089,9.143-9.143v-45.714h36.571v219.429H18.286V210.286z M246.857,429.714V210.286h146.286v219.429
		H246.857z M411.429,429.714V210.286h82.286v219.429H411.429z"/>
	<rect x="54.857" y="283.429" style="fill:#314E55;" width="118.857" height="18.286"/>
	<rect x="54.857" y="320" style="fill:#314E55;" width="118.857" height="18.286"/>
	<rect x="54.857" y="356.571" style="fill:#314E55;" width="100.571" height="18.286"/>
	<rect x="265.143" y="228.571" style="fill:#314E55;" width="109.714" height="18.286"/>
	<rect x="265.143" y="256" style="fill:#314E55;" width="109.714" height="18.286"/>
	<rect x="265.143" y="320" style="fill:#314E55;" width="109.714" height="18.286"/>
	<rect x="265.143" y="347.429" style="fill:#314E55;" width="82.286" height="18.286"/>
	<rect x="265.143" y="393.143" style="fill:#314E55;" width="82.286" height="18.286"/>
</g>
<g>
</g>
<g>
</g>
<g>
</g>
<g>
</g>
<g>
</g>
<g>
</g>
<g>
</g>
<g>
</g>
<g>
</g>
<g>
</g>
<g>
</g>
<g>
</g>
<g>
</g>
<g>
</g>
<g>
</g>
</svg>
