<?xml version="1.0" encoding="iso-8859-1"?>
<!-- Generator: Adobe Illustrator 19.0.0, SVG Export Plug-In . SVG Version: 6.00 Build 0)  -->
<svg version="1.1" id="Layer_1" xmlns="http://www.w3.org/2000/svg" xmlns:xlink="http://www.w3.org/1999/xlink" x="0px" y="0px"
	 viewBox="0 0 512 512" style="enable-background:new 0 0 512 512;" xml:space="preserve">
<path style="fill:#E65F58;" d="M256,18.963C125.296,18.963,18.963,125.296,18.963,256S125.296,493.037,256,493.037
	S493.037,386.704,493.037,256S386.704,18.963,256,18.963z M349.861,349.866c-1.852,1.852-4.278,2.778-6.704,2.778
	s-4.852-0.926-6.704-2.778l-81.437-81.437l-82.822,82.822c-1.852,1.852-4.278,2.778-6.704,2.778c-2.426,0-4.852-0.926-6.704-2.778
	c-3.704-3.704-3.704-9.704,0-13.407l82.822-82.822l-79.47-79.47c-3.704-3.704-3.704-9.704,0-13.407s9.704-3.704,13.407,0
	l79.47,79.47l78.086-78.086c3.704-3.704,9.704-3.704,13.407,0c3.703,3.704,3.704,9.704,0,13.407l-78.086,78.086l81.437,81.437
	C353.565,340.162,353.565,346.162,349.861,349.866z"/>
<g>
	<path style="fill:#314E55;" d="M256,0C114.843,0,0,114.843,0,256s114.843,256,256,256s256-114.843,256-256S397.157,0,256,0z
		 M256,493.037C125.296,493.037,18.963,386.704,18.963,256S125.296,18.963,256,18.963S493.037,125.296,493.037,256
		S386.704,493.037,256,493.037z"/>
	<path style="fill:#314E55;" d="M268.424,255.021l78.086-78.086c3.704-3.704,3.704-9.704,0-13.407s-9.704-3.704-13.407,0
		l-78.086,78.086l-79.47-79.47c-3.704-3.704-9.704-3.704-13.407,0c-3.703,3.704-3.704,9.704,0,13.407l79.47,79.47l-82.822,82.822
		c-3.704,3.704-3.704,9.704,0,13.407c1.852,1.852,4.278,2.778,6.704,2.778c2.426,0,4.852-0.926,6.704-2.778l82.822-82.822
		l81.437,81.437c1.852,1.852,4.278,2.778,6.704,2.778c2.426,0,4.852-0.926,6.704-2.778c3.704-3.704,3.704-9.704,0-13.407
		L268.424,255.021z"/>
</g>
<g>
</g>
<g>
</g>
<g>
</g>
<g>
</g>
<g>
</g>
<g>
</g>
<g>
</g>
<g>
</g>
<g>
</g>
<g>
</g>
<g>
</g>
<g>
</g>
<g>
</g>
<g>
</g>
<g>
</g>
</svg>
