<?xml version="1.0" encoding="iso-8859-1"?>
<!-- Generator: Adobe Illustrator 19.0.0, SVG Export Plug-In . SVG Version: 6.00 Build 0)  -->
<svg version="1.1" id="Layer_1" xmlns="http://www.w3.org/2000/svg" xmlns:xlink="http://www.w3.org/1999/xlink" x="0px" y="0px"
	 viewBox="0 0 512 512" style="enable-background:new 0 0 512 512;" xml:space="preserve">
<circle style="fill:#5ECB66;" cx="358.4" cy="290.133" r="8.533"/>
<circle style="fill:#C068AE;" cx="68.267" cy="179.2" r="8.533"/>
<circle style="fill:#5ECB66;" cx="273.067" cy="290.133" r="8.533"/>
<circle style="fill:#C068AE;" cx="153.6" cy="179.2" r="8.533"/>
<path style="fill:#C59981;" d="M460.808,187.733H255.983c-18.808,0-34.117,15.308-34.117,34.125v203.658l47.442-39.542
	c1.533-1.275,3.467-1.975,5.467-1.975h186.033c18.817,0,34.125-15.308,34.125-34.125V221.858
	C494.933,203.042,479.625,187.733,460.808,187.733z M273.067,315.733c-14.117,0-25.6-11.483-25.6-25.6s11.483-25.6,25.6-25.6
	s25.6,11.483,25.6,25.6S287.183,315.733,273.067,315.733z M358.4,315.733c-14.117,0-25.6-11.483-25.6-25.6s11.483-25.6,25.6-25.6
	s25.6,11.483,25.6,25.6S372.517,315.733,358.4,315.733z M443.733,315.733c-14.117,0-25.6-11.483-25.6-25.6s11.483-25.6,25.6-25.6
	s25.6,11.483,25.6,25.6S457.85,315.733,443.733,315.733z"/>
<circle style="fill:#5ECB66;" cx="443.733" cy="290.133" r="8.533"/>
<g>
	<path style="fill:#314E55;" d="M189.017,273.067H69.975c-2,0-3.933,0.7-5.467,1.975l-47.442,39.542V110.925
		c0-18.817,15.308-34.125,34.117-34.125h204.825c18.817,0,34.125,15.333,34.125,34.183V153.8c0,4.717,3.817,8.533,8.533,8.533
		c4.717,0,8.533-3.817,8.533-8.533v-42.817c0-28.258-22.967-51.25-51.192-51.25H51.183C22.958,59.733,0,82.7,0,110.925V332.8
		c0,3.308,1.917,6.325,4.917,7.725c1.15,0.542,2.383,0.808,3.617,0.808c1.958,0,3.9-0.675,5.467-1.975l59.066-49.225h115.95
		c4.717,0,8.533-3.817,8.533-8.533S193.733,273.067,189.017,273.067z"/>
	<path style="fill:#314E55;" d="M460.808,170.667H255.983c-28.225,0-51.183,22.967-51.183,51.192v221.875
		c0,3.308,1.917,6.325,4.917,7.725c1.15,0.542,2.383,0.808,3.617,0.808c1.958,0,3.9-0.675,5.467-1.975l59.066-49.225h182.942
		c28.225,0,51.192-22.967,51.192-51.192V221.858C512,193.633,489.033,170.667,460.808,170.667z M494.933,349.875
		c0,18.817-15.308,34.125-34.125,34.125H274.775c-2,0-3.933,0.7-5.467,1.975l-47.442,39.542V221.858
		c0-18.817,15.308-34.125,34.117-34.125h204.825c18.817,0,34.125,15.308,34.125,34.125V349.875z"/>
	<path style="fill:#314E55;" d="M273.067,264.533c-14.117,0-25.6,11.483-25.6,25.6s11.483,25.6,25.6,25.6s25.6-11.483,25.6-25.6
		S287.183,264.533,273.067,264.533z M273.067,298.667c-4.708,0-8.533-3.825-8.533-8.533c0-4.708,3.825-8.533,8.533-8.533
		s8.533,3.825,8.533,8.533C281.6,294.842,277.775,298.667,273.067,298.667z"/>
	<path style="fill:#314E55;" d="M358.4,264.533c-14.117,0-25.6,11.483-25.6,25.6s11.483,25.6,25.6,25.6s25.6-11.483,25.6-25.6
		S372.517,264.533,358.4,264.533z M358.4,298.667c-4.708,0-8.533-3.825-8.533-8.533c0-4.708,3.825-8.533,8.533-8.533
		c4.708,0,8.533,3.825,8.533,8.533C366.933,294.842,363.108,298.667,358.4,298.667z"/>
	<path style="fill:#314E55;" d="M443.733,264.533c-14.117,0-25.6,11.483-25.6,25.6s11.483,25.6,25.6,25.6s25.6-11.483,25.6-25.6
		S457.85,264.533,443.733,264.533z M443.733,298.667c-4.708,0-8.533-3.825-8.533-8.533c0-4.708,3.825-8.533,8.533-8.533
		c4.708,0,8.533,3.825,8.533,8.533C452.267,294.842,448.442,298.667,443.733,298.667z"/>
	<path style="fill:#314E55;" d="M42.667,179.2c0,14.117,11.483,25.6,25.6,25.6s25.6-11.483,25.6-25.6
		c0-14.117-11.483-25.6-25.6-25.6S42.667,165.083,42.667,179.2z M76.8,179.2c0,4.708-3.825,8.533-8.533,8.533
		s-8.533-3.825-8.533-8.533s3.825-8.533,8.533-8.533S76.8,174.492,76.8,179.2z"/>
	<path style="fill:#314E55;" d="M128,179.2c0,14.117,11.483,25.6,25.6,25.6s25.6-11.483,25.6-25.6c0-14.117-11.483-25.6-25.6-25.6
		S128,165.083,128,179.2z M162.133,179.2c0,4.708-3.825,8.533-8.533,8.533s-8.533-3.825-8.533-8.533s3.825-8.533,8.533-8.533
		S162.133,174.492,162.133,179.2z"/>
</g>
<g>
</g>
<g>
</g>
<g>
</g>
<g>
</g>
<g>
</g>
<g>
</g>
<g>
</g>
<g>
</g>
<g>
</g>
<g>
</g>
<g>
</g>
<g>
</g>
<g>
</g>
<g>
</g>
<g>
</g>
</svg>
