<?xml version="1.0" encoding="iso-8859-1"?>
<!-- Generator: Adobe Illustrator 19.0.0, SVG Export Plug-In . SVG Version: 6.00 Build 0)  -->
<svg version="1.1" id="Layer_1" xmlns="http://www.w3.org/2000/svg" xmlns:xlink="http://www.w3.org/1999/xlink" x="0px" y="0px"
	 viewBox="0 0 512 512" style="enable-background:new 0 0 512 512;" xml:space="preserve">
<path style="fill:#EAEAEA;" d="M18.286,429.714h475.429V82.286H18.286V429.714z M82.304,109.714h347.393
	c25.219,0,45.732,20.509,45.732,45.714s-20.513,45.714-45.732,45.714h-8.406l-30.527,33.58c-1.763,1.947-4.237,2.991-6.763,2.991
	c-1.107,0-2.223-0.196-3.295-0.616c-3.527-1.357-5.848-4.75-5.848-8.527v-27.429H82.304c-25.219,0-45.732-20.509-45.732-45.714
	S57.085,109.714,82.304,109.714z M82.304,274.286h347.393c25.219,0,45.732,20.509,45.732,45.714
	c0,25.205-20.513,45.714-45.732,45.714H137.143v27.429c0,3.777-2.321,7.17-5.848,8.527c-1.071,0.42-2.187,0.616-3.295,0.616
	c-2.527,0-5-1.045-6.763-2.991l-30.527-33.58h-8.406c-25.219,0-45.732-20.509-45.732-45.714
	C36.571,294.795,57.085,274.286,82.304,274.286z"/>
<g>
	<path style="fill:#5ECB66;" d="M82.304,347.429h12.451c2.576,0,5.031,1.089,6.763,2.991l17.339,19.071v-12.92
		c0-5.053,4.094-9.143,9.143-9.143h301.696c15.134,0,27.446-12.304,27.446-27.429c0-15.125-12.312-27.429-27.446-27.429H82.304
		c-15.134,0-27.446,12.304-27.446,27.429C54.857,335.125,67.17,347.429,82.304,347.429z M420.571,301.714
		c10.085,0,18.286,8.205,18.286,18.286c0,10.08-8.201,18.286-18.286,18.286S402.286,330.08,402.286,320
		C402.286,309.92,410.487,301.714,420.571,301.714z M365.714,301.714C375.799,301.714,384,309.92,384,320
		c0,10.08-8.201,18.286-18.286,18.286c-10.085,0-18.286-8.205-18.286-18.286C347.429,309.92,355.63,301.714,365.714,301.714z
		 M310.857,301.714c10.085,0,18.286,8.205,18.286,18.286c0,10.08-8.201,18.286-18.286,18.286c-10.085,0-18.286-8.205-18.286-18.286
		C292.571,309.92,300.772,301.714,310.857,301.714z"/>
	<path style="fill:#5ECB66;" d="M82.304,182.857H384c5.049,0,9.143,4.089,9.143,9.143v12.92l17.339-19.072
		c1.732-1.902,4.187-2.991,6.763-2.991h12.451c15.134,0,27.446-12.303,27.446-27.428c0-15.125-12.312-27.429-27.446-27.429H82.304
		c-15.134,0-27.446,12.304-27.446,27.429C54.857,170.554,67.17,182.857,82.304,182.857z M201.143,137.143
		c10.085,0,18.286,8.205,18.286,18.286s-8.201,18.286-18.286,18.286s-18.286-8.205-18.286-18.286S191.058,137.143,201.143,137.143z
		 M146.286,137.143c10.085,0,18.286,8.205,18.286,18.286s-8.201,18.286-18.286,18.286S128,165.509,128,155.429
		S136.201,137.143,146.286,137.143z M91.429,137.143c10.085,0,18.286,8.205,18.286,18.286s-8.201,18.286-18.286,18.286
		s-18.286-8.205-18.286-18.286S81.344,137.143,91.429,137.143z"/>
</g>
<g>
	<path style="fill:#314E55;" d="M502.857,64H9.143C4.094,64,0,68.089,0,73.143v365.714C0,443.911,4.094,448,9.143,448h493.714
		c5.049,0,9.143-4.089,9.143-9.143V73.143C512,68.089,507.906,64,502.857,64z M493.714,429.714H18.286V82.286h475.429V429.714z"/>
	<path style="fill:#314E55;" d="M82.304,201.143h292.554v27.429c0,3.777,2.321,7.17,5.848,8.527c1.071,0.42,2.187,0.616,3.295,0.616
		c2.527,0,5-1.045,6.763-2.991l30.527-33.58h8.406c25.219,0,45.732-20.509,45.732-45.714s-20.513-45.714-45.732-45.714H82.304
		c-25.219,0-45.732,20.509-45.732,45.714S57.085,201.143,82.304,201.143z M82.304,128h347.393c15.134,0,27.446,12.304,27.446,27.429
		c0,15.125-12.312,27.429-27.446,27.429h-12.451c-2.576,0-5.031,1.089-6.763,2.991l-17.339,19.071V192
		c0-5.053-4.094-9.143-9.143-9.143H82.304c-15.134,0-27.446-12.304-27.446-27.429C54.857,140.304,67.17,128,82.304,128z"/>
	<path style="fill:#314E55;" d="M82.304,365.714h8.406l30.527,33.58c1.763,1.947,4.237,2.991,6.763,2.991
		c1.107,0,2.223-0.196,3.295-0.616c3.527-1.357,5.848-4.75,5.848-8.527v-27.429h292.554c25.219,0,45.732-20.509,45.732-45.714
		c0-25.205-20.513-45.714-45.732-45.714H82.304c-25.219,0-45.732,20.509-45.732,45.714
		C36.571,345.205,57.085,365.714,82.304,365.714z M82.304,292.571h347.393c15.134,0,27.446,12.304,27.446,27.429
		c0,15.125-12.312,27.429-27.446,27.429H128c-5.049,0-9.143,4.089-9.143,9.143v12.92l-17.339-19.072
		c-1.732-1.902-4.187-2.991-6.763-2.991H82.304c-15.134,0-27.446-12.303-27.446-27.428C54.857,304.875,67.17,292.571,82.304,292.571
		z"/>
	<path style="fill:#314E55;" d="M91.429,173.714c10.085,0,18.286-8.205,18.286-18.286s-8.201-18.286-18.286-18.286
		s-18.286,8.205-18.286,18.286S81.344,173.714,91.429,173.714z"/>
	<path style="fill:#314E55;" d="M146.286,173.714c10.085,0,18.286-8.205,18.286-18.286s-8.201-18.286-18.286-18.286
		S128,145.348,128,155.429S136.201,173.714,146.286,173.714z"/>
	<path style="fill:#314E55;" d="M201.143,173.714c10.085,0,18.286-8.205,18.286-18.286s-8.201-18.286-18.286-18.286
		s-18.286,8.205-18.286,18.286S191.058,173.714,201.143,173.714z"/>
	<path style="fill:#314E55;" d="M310.857,338.286c10.085,0,18.286-8.205,18.286-18.286c0-10.08-8.201-18.286-18.286-18.286
		c-10.085,0-18.286,8.205-18.286,18.286C292.571,330.08,300.772,338.286,310.857,338.286z"/>
	<path style="fill:#314E55;" d="M365.714,338.286C375.799,338.286,384,330.08,384,320c0-10.08-8.201-18.286-18.286-18.286
		c-10.085,0-18.286,8.205-18.286,18.286C347.429,330.08,355.63,338.286,365.714,338.286z"/>
	<path style="fill:#314E55;" d="M420.571,338.286c10.085,0,18.286-8.205,18.286-18.286c0-10.08-8.201-18.286-18.286-18.286
		S402.286,309.92,402.286,320C402.286,330.08,410.487,338.286,420.571,338.286z"/>
</g>
<g>
</g>
<g>
</g>
<g>
</g>
<g>
</g>
<g>
</g>
<g>
</g>
<g>
</g>
<g>
</g>
<g>
</g>
<g>
</g>
<g>
</g>
<g>
</g>
<g>
</g>
<g>
</g>
<g>
</g>
</svg>
