<?xml version="1.0" encoding="iso-8859-1"?>
<!-- Generator: Adobe Illustrator 19.0.0, SVG Export Plug-In . SVG Version: 6.00 Build 0)  -->
<svg version="1.1" id="Layer_1" xmlns="http://www.w3.org/2000/svg" xmlns:xlink="http://www.w3.org/1999/xlink" x="0px" y="0px"
	 viewBox="0 0 512 512" style="enable-background:new 0 0 512 512;" xml:space="preserve">
<path style="fill:#73C9C9;" d="M231.849,198.038c0-58.594-47.67-106.264-106.264-106.264S19.321,139.443,19.321,198.038
	s47.67,106.264,106.264,106.264S231.849,256.632,231.849,198.038z M67.623,217.358c-10.656,0-19.321-8.665-19.321-19.321
	c0-10.656,8.665-19.321,19.321-19.321s19.321,8.665,19.321,19.321C86.943,208.693,78.278,217.358,67.623,217.358z M125.585,217.358
	c-10.656,0-19.321-8.665-19.321-19.321c0-10.656,8.665-19.321,19.321-19.321s19.321,8.665,19.321,19.321
	C144.906,208.693,136.24,217.358,125.585,217.358z M183.547,217.358c-10.656,0-19.321-8.665-19.321-19.321
	c0-10.656,8.665-19.321,19.321-19.321c10.656,0,19.321,8.665,19.321,19.321C202.868,208.693,194.203,217.358,183.547,217.358z"/>
<path style="fill:#E4AD40;" d="M364.764,444.189l47.967-59.038c1.585-1.953,3.868-3.207,6.368-3.5l56.307-6.623L349.722,290.01
	L364.764,444.189z"/>
<g>
	<path style="fill:#314E55;" d="M507.755,373.585l-68.407-46.276c39.63-31.059,62.992-78.531,62.992-129.271
		c0-90.557-73.67-164.226-164.226-164.226c-52.585,0-101.674,25.132-132.595,67.441c-21.731-17.979-49.59-28.8-79.933-28.8
		C56.335,72.453,0,128.788,0,198.038c0,69.245,56.335,125.585,125.585,125.585c30.341,0,58.199-10.82,79.929-28.797
		c30.772,42.106,79.536,67.177,131.846,67.415l10.461,107.222c0.377,3.906,3.075,7.189,6.826,8.321
		c0.92,0.273,1.858,0.406,2.788,0.406c2.858,0,5.632-1.273,7.495-3.566l60.321-74.245l78.217-9.198
		c4.01-0.472,7.302-3.387,8.259-7.311C512.679,379.943,511.094,375.849,507.755,373.585z M19.321,198.038
		c0-58.594,47.67-106.264,106.264-106.264s106.264,47.67,106.264,106.264s-47.67,106.264-106.264,106.264
		S19.321,256.632,19.321,198.038z M343.528,262.491c-3.099-2.094-7.141-2.208-10.354-0.302c-3.217,1.915-5.038,5.509-4.674,9.236
		l6.969,71.438c-46.335-0.843-89.338-23.718-115.996-61.705c19.652-22.172,31.697-51.232,31.697-83.119
		c0-31.89-12.046-60.952-31.699-83.124c27.166-38.707,71.309-61.782,118.643-61.782c79.901,0,144.906,65.005,144.906,144.906
		c0,46.87-22.614,90.564-60.623,117.804L343.528,262.491z M419.099,381.651c-2.5,0.292-4.783,1.547-6.368,3.5l-47.967,59.038
		l-15.042-154.179l125.684,85.019L419.099,381.651z"/>
	<circle style="fill:#314E55;" cx="67.623" cy="198.038" r="19.321"/>
	<circle style="fill:#314E55;" cx="125.585" cy="198.038" r="19.321"/>
	<circle style="fill:#314E55;" cx="183.547" cy="198.038" r="19.321"/>
</g>
<g>
</g>
<g>
</g>
<g>
</g>
<g>
</g>
<g>
</g>
<g>
</g>
<g>
</g>
<g>
</g>
<g>
</g>
<g>
</g>
<g>
</g>
<g>
</g>
<g>
</g>
<g>
</g>
<g>
</g>
</svg>
