<?xml version="1.0" encoding="iso-8859-1"?>
<!-- Generator: Adobe Illustrator 19.0.0, SVG Export Plug-In . SVG Version: 6.00 Build 0)  -->
<svg version="1.1" id="Layer_1" xmlns="http://www.w3.org/2000/svg" xmlns:xlink="http://www.w3.org/1999/xlink" x="0px" y="0px"
	 viewBox="0 0 512 512" style="enable-background:new 0 0 512 512;" xml:space="preserve">
<path style="fill:#73C9C9;" d="M256,18.963C125.296,18.963,18.963,125.296,18.963,256S125.296,493.037,256,493.037
	S493.037,386.704,493.037,256S386.704,18.963,256,18.963z M349.893,170l-94.815,199.111c-1.227,2.574-3.546,4.463-6.315,5.139
	c-0.74,0.18-1.495,0.268-2.245,0.268c-2.046,0-4.06-0.662-5.722-1.921l-84.736-64.148c-4.176-3.162-5-9.106-1.838-13.282
	c3.157-4.181,9.097-5.014,13.282-1.838l75.458,57.125l89.81-188.602c2.255-4.731,7.917-6.722,12.634-4.486
	C350.139,159.616,352.143,165.273,349.893,170z"/>
<g>
	<path style="fill:#314E55;" d="M256,0C114.843,0,0,114.843,0,256s114.843,256,256,256s256-114.843,256-256S397.157,0,256,0z
		 M256,493.037C125.296,493.037,18.963,386.704,18.963,256S125.296,18.963,256,18.963S493.037,125.296,493.037,256
		S386.704,493.037,256,493.037z"/>
	<path style="fill:#314E55;" d="M345.408,157.366c-4.718-2.236-10.38-0.245-12.634,4.486l-89.81,188.602l-75.458-57.125
		c-4.185-3.176-10.125-2.343-13.282,1.838c-3.162,4.176-2.338,10.12,1.838,13.282l84.736,64.148
		c1.662,1.259,3.676,1.921,5.722,1.921c0.75,0,1.505-0.088,2.245-0.269c2.769-0.676,5.088-2.565,6.315-5.139L349.894,170
		C352.143,165.273,350.139,159.616,345.408,157.366z"/>
</g>
<g>
</g>
<g>
</g>
<g>
</g>
<g>
</g>
<g>
</g>
<g>
</g>
<g>
</g>
<g>
</g>
<g>
</g>
<g>
</g>
<g>
</g>
<g>
</g>
<g>
</g>
<g>
</g>
<g>
</g>
</svg>
