<?xml version="1.0" encoding="iso-8859-1"?>
<!-- Generator: Adobe Illustrator 19.0.0, SVG Export Plug-In . SVG Version: 6.00 Build 0)  -->
<svg version="1.1" id="Layer_1" xmlns="http://www.w3.org/2000/svg" xmlns:xlink="http://www.w3.org/1999/xlink" x="0px" y="0px"
	 viewBox="0 0 512 512" style="enable-background:new 0 0 512 512;" xml:space="preserve">
<path style="fill:#5ECB66;" d="M204.8,307.2h102.4V204.8H204.8V307.2z M215.336,265.345c2.546-4.464,8.227-6.032,12.7-3.464
	l23.518,13.436l23.818-55.568c2.027-4.727,7.518-6.909,12.218-4.886c4.727,2.023,6.918,7.495,4.891,12.223l-27.927,65.164
	c-1.045,2.436-3.082,4.314-5.6,5.159c-0.964,0.323-1.955,0.482-2.955,0.482c-1.6,0-3.2-0.414-4.618-1.227L218.8,278.046
	C214.336,275.496,212.782,269.809,215.336,265.345z"/>
<rect x="204.8" y="390.982" style="fill:#D8D8D8;" width="102.4" height="102.4"/>
<path style="fill:#5ECB66;" d="M204.8,121.018h102.4v-102.4H204.8V121.018z M215.336,79.164c2.546-4.464,8.227-6.027,12.7-3.464
	l23.518,13.436l23.818-55.568c2.027-4.727,7.518-6.909,12.218-4.886c4.727,2.023,6.918,7.495,4.891,12.223l-27.927,65.164
	c-1.045,2.436-3.082,4.314-5.6,5.159c-0.964,0.323-1.955,0.482-2.955,0.482c-1.6,0-3.2-0.414-4.618-1.227L218.8,91.864
	C214.336,89.314,212.782,83.627,215.336,79.164z"/>
<g>
	<path style="fill:#314E55;" d="M316.509,0H195.491c-5.145,0-9.309,4.168-9.309,9.309v121.018c0,5.141,4.164,9.309,9.309,9.309
		h121.018c5.145,0,9.309-4.168,9.309-9.309V9.309C325.818,4.168,321.654,0,316.509,0z M307.2,121.018H204.8v-102.4h102.4V121.018z"
		/>
	<path style="fill:#314E55;" d="M316.509,186.182H195.491c-5.145,0-9.309,4.168-9.309,9.309v121.018
		c0,5.141,4.164,9.309,9.309,9.309h121.018c5.145,0,9.309-4.168,9.309-9.309V195.491
		C325.818,190.35,321.654,186.182,316.509,186.182z M307.2,307.2H204.8V204.8h102.4V307.2z"/>
	<path style="fill:#314E55;" d="M316.509,372.364H195.491c-5.145,0-9.309,4.168-9.309,9.309v121.018
		c0,5.141,4.164,9.309,9.309,9.309h121.018c5.145,0,9.309-4.168,9.309-9.309V381.673
		C325.818,376.532,321.654,372.364,316.509,372.364z M307.2,493.382H204.8v-102.4h102.4V493.382z"/>
	<path style="fill:#314E55;" d="M218.8,91.864l32.582,18.618c1.418,0.814,3.018,1.227,4.618,1.227c1,0,1.991-0.159,2.954-0.482
		c2.518-0.845,4.554-2.723,5.6-5.159l27.927-65.164c2.027-4.727-0.164-10.2-4.891-12.223c-4.7-2.023-10.191,0.159-12.218,4.886
		l-23.818,55.568L228.036,75.7c-4.473-2.564-10.155-1-12.7,3.464C212.782,83.627,214.336,89.314,218.8,91.864z"/>
	<path style="fill:#314E55;" d="M218.8,278.046l32.582,18.618c1.418,0.814,3.018,1.227,4.618,1.227c1,0,1.991-0.159,2.954-0.482
		c2.518-0.845,4.554-2.723,5.6-5.159l27.927-65.164c2.027-4.727-0.164-10.2-4.891-12.223c-4.7-2.023-10.191,0.159-12.218,4.886
		l-23.818,55.568l-23.518-13.436c-4.473-2.568-10.155-1-12.7,3.464C212.782,269.809,214.336,275.496,218.8,278.046z"/>
</g>
<g>
</g>
<g>
</g>
<g>
</g>
<g>
</g>
<g>
</g>
<g>
</g>
<g>
</g>
<g>
</g>
<g>
</g>
<g>
</g>
<g>
</g>
<g>
</g>
<g>
</g>
<g>
</g>
<g>
</g>
</svg>
