<?xml version="1.0" encoding="iso-8859-1"?>
<!-- Generator: Adobe Illustrator 19.0.0, SVG Export Plug-In . SVG Version: 6.00 Build 0)  -->
<svg version="1.1" id="Layer_1" xmlns="http://www.w3.org/2000/svg" xmlns:xlink="http://www.w3.org/1999/xlink" x="0px" y="0px"
	 viewBox="0 0 512 512" style="enable-background:new 0 0 512 512;" xml:space="preserve">
<path style="fill:#314E55;" d="M256,237.193c-10.058,0-18.246,8.187-18.246,18.246c0,10.058,8.187,18.246,18.246,18.246
	c10.058,0,18.246-8.187,18.246-18.246C274.246,245.38,266.058,237.193,256,237.193z"/>
<path style="fill:#E9E7D1;" d="M447.579,246.316h45.383c-2.228-58.526-25.735-111.673-63.022-151.917l-19.592,19.592l-12.9-12.9
	l19.592-19.592c-40.245-37.287-93.391-60.794-151.917-63.022v37.383h-18.246V18.477c-56.229,2.14-107.478,23.935-147.106,58.71
	l19.343,19.343l-12.9,12.9l-19.7-19.7c-39.858,40.757-65.159,95.765-67.475,156.587h45.383v18.246H19.038
	c2.14,56.229,23.935,107.478,58.71,147.106l23.904-23.904l12.9,12.9L90.29,424.926c40.758,39.858,95.766,65.159,156.587,67.475
	v-36.26h18.246v36.26c58.527-2.228,111.673-25.735,151.917-63.022l-24.153-24.153l12.9-12.9l24.153,24.153
	c37.287-40.245,60.794-93.391,63.022-151.917h-45.383V246.316z M374.597,386.935L274.421,286.76
	c-5.427,3.205-11.674,5.17-18.421,5.17c-20.125,0-36.491-16.366-36.491-36.491c0-16.957,11.672-31.117,27.368-35.196V81.802h18.246
	v138.44c15.696,4.079,27.368,18.239,27.368,35.196c0,6.748-1.965,12.994-5.169,18.421l100.175,100.175L374.597,386.935z"/>
<g>
	<path style="fill:#314E55;" d="M292.491,255.439c0-16.957-11.672-31.117-27.368-35.196V81.802h-18.246v138.44
		c-15.696,4.079-27.368,18.239-27.368,35.196c0,20.125,16.366,36.491,36.491,36.491c6.748,0,12.994-1.965,18.421-5.169
		l100.175,100.175l12.9-12.9L287.322,273.86C290.526,268.433,292.491,262.187,292.491,255.439z M256,273.684
		c-10.058,0-18.246-8.187-18.246-18.246c0-10.058,8.187-18.246,18.246-18.246c10.058,0,18.246,8.187,18.246,18.246
		C274.246,265.497,266.058,273.684,256,273.684z"/>
	<path style="fill:#314E55;" d="M511.207,246.316C506.486,112.714,398.725,4.953,265.123,0.232V0h-18.246v0.232
		C113.275,4.953,5.514,112.714,0.793,246.316H0.561v18.246h0.232c4.721,133.602,112.482,241.363,246.084,246.084V512h18.246v-1.354
		c133.602-4.721,241.363-112.482,246.084-246.084h0.232v-18.246H511.207z M429.94,416.479l-24.153-24.153l-12.9,12.9l24.153,24.153
		c-40.245,37.287-93.391,60.794-151.917,63.022v-36.26h-18.246v36.26c-60.822-2.315-115.83-27.616-156.587-67.475l24.262-24.262
		l-12.9-12.9l-23.904,23.904c-34.775-39.629-56.569-90.878-58.71-147.107h45.383v-18.246H19.038
		c2.315-60.822,27.616-115.83,67.475-156.587l19.7,19.7l12.9-12.9L99.77,77.186c39.629-34.775,90.878-56.569,147.107-58.71v37.383
		h18.246V18.477c58.527,2.228,111.673,25.735,151.917,63.022l-19.592,19.592l12.9,12.9l19.592-19.592
		c37.287,40.245,60.794,93.391,63.022,151.917h-45.383v18.246h45.383C490.734,323.088,467.227,376.234,429.94,416.479z"/>
</g>
<g>
</g>
<g>
</g>
<g>
</g>
<g>
</g>
<g>
</g>
<g>
</g>
<g>
</g>
<g>
</g>
<g>
</g>
<g>
</g>
<g>
</g>
<g>
</g>
<g>
</g>
<g>
</g>
<g>
</g>
</svg>
