<?xml version="1.0" encoding="iso-8859-1"?>
<!-- Generator: Adobe Illustrator 19.0.0, SVG Export Plug-In . SVG Version: 6.00 Build 0)  -->
<svg version="1.1" id="Layer_1" xmlns="http://www.w3.org/2000/svg" xmlns:xlink="http://www.w3.org/1999/xlink" x="0px" y="0px"
	 viewBox="0 0 512 512" style="enable-background:new 0 0 512 512;" xml:space="preserve">
<path style="fill:#D8D8D8;" d="M256,18.963C125.296,18.963,18.963,125.296,18.963,256S125.296,493.037,256,493.037
	S493.037,386.704,493.037,256S386.704,18.963,256,18.963z M325.842,153.995L202.583,367.491c-1.759,3.042-4.944,4.741-8.222,4.741
	c-1.611,0-3.241-0.408-4.731-1.269c-4.537-2.62-6.093-8.417-3.472-12.954l123.259-213.495c2.62-4.542,8.426-6.093,12.954-3.472
	C326.907,143.662,328.463,149.458,325.842,153.995z"/>
<g>
	<path style="fill:#314E55;" d="M256,0C114.843,0,0,114.843,0,256s114.843,256,256,256s256-114.843,256-256S397.157,0,256,0z
		 M256,493.037C125.296,493.037,18.963,386.704,18.963,256S125.296,18.963,256,18.963S493.037,125.296,493.037,256
		S386.704,493.037,256,493.037z"/>
	<path style="fill:#314E55;" d="M322.37,141.042c-4.528-2.62-10.333-1.07-12.954,3.472L186.158,358.009
		c-2.62,4.537-1.065,10.333,3.472,12.954c1.491,0.861,3.12,1.269,4.731,1.269c3.278,0,6.463-1.699,8.222-4.741l123.259-213.495
		C328.463,149.458,326.907,143.662,322.37,141.042z"/>
</g>
<g>
</g>
<g>
</g>
<g>
</g>
<g>
</g>
<g>
</g>
<g>
</g>
<g>
</g>
<g>
</g>
<g>
</g>
<g>
</g>
<g>
</g>
<g>
</g>
<g>
</g>
<g>
</g>
<g>
</g>
</svg>
