<?xml version="1.0" encoding="iso-8859-1"?>
<!-- Generator: Adobe Illustrator 19.0.0, SVG Export Plug-In . SVG Version: 6.00 Build 0)  -->
<svg version="1.1" id="Layer_1" xmlns="http://www.w3.org/2000/svg" xmlns:xlink="http://www.w3.org/1999/xlink" x="0px" y="0px"
	 viewBox="0 0 512 512" style="enable-background:new 0 0 512 512;" xml:space="preserve">
<g>
	<path style="fill:#D26CBA;" d="M384,123.077c5.442,0,9.846,4.409,9.846,9.846v236.308h39.385V83.692H137.846v39.385H384z"/>
	<path style="fill:#D26CBA;" d="M384,388.923H128c-5.442,0-9.846-4.409-9.846-9.846V132.923V73.846V24.615H78.769v49.231v59.077
		v295.385H384h59.077h49.231v-39.385h-49.231H384z"/>
	<rect x="19.692" y="83.692" style="fill:#D26CBA;" width="39.385" height="39.385"/>
	<rect x="393.846" y="448" style="fill:#D26CBA;" width="39.385" height="39.385"/>
</g>
<path style="fill:#314E55;" d="M502.154,369.231h-49.231V73.846c0-5.438-4.404-9.846-9.846-9.846H137.846V14.769
	c0-5.438-4.404-9.846-9.846-9.846H68.923c-5.442,0-9.846,4.409-9.846,9.846V64H9.846C4.404,64,0,68.409,0,73.846v59.077
	c0,5.438,4.404,9.846,9.846,9.846h49.231v295.385c0,5.438,4.404,9.846,9.846,9.846h305.231v49.231c0,5.438,4.404,9.846,9.846,9.846
	h59.077c5.442,0,9.846-4.409,9.846-9.846V448h49.231c5.442,0,9.846-4.409,9.846-9.846v-59.077
	C512,373.639,507.596,369.231,502.154,369.231z M433.231,83.692v285.538h-39.385V132.923c0-5.438-4.404-9.846-9.846-9.846H137.846
	V83.692H433.231z M152.077,369.231L374.154,156.41v212.821H152.077z M137.846,142.769h222.077L137.846,355.59V142.769z
	 M19.692,123.077V83.692h39.385v39.385H19.692z M433.231,487.385h-39.385V448h39.385V487.385z M492.308,428.308h-49.231H384H78.769
	V132.923V73.846V24.615h39.385v49.231v59.077v246.154c0,5.438,4.404,9.846,9.846,9.846h256h59.077h49.231V428.308z"/>
<g>
</g>
<g>
</g>
<g>
</g>
<g>
</g>
<g>
</g>
<g>
</g>
<g>
</g>
<g>
</g>
<g>
</g>
<g>
</g>
<g>
</g>
<g>
</g>
<g>
</g>
<g>
</g>
<g>
</g>
</svg>
