<?xml version="1.0" encoding="iso-8859-1"?>
<!-- Generator: Adobe Illustrator 19.0.0, SVG Export Plug-In . SVG Version: 6.00 Build 0)  -->
<svg version="1.1" id="Layer_1" xmlns="http://www.w3.org/2000/svg" xmlns:xlink="http://www.w3.org/1999/xlink" x="0px" y="0px"
	 viewBox="0 0 512 512" style="enable-background:new 0 0 512 512;" xml:space="preserve">
<path style="fill:#314E55;" d="M494.485,104.409L450.953,6.462C449.21,2.529,445.31,0,441.011,0H70.989
	c-4.299,0-8.2,2.529-9.942,6.462l-43.532,97.947c-2.444,5.495,0.032,11.924,5.521,14.369c5.5,2.434,11.93-0.042,14.364-5.526
	l40.662-91.485h167.055v250.309H81.872v21.766h163.245v195.894h-43.532V511.5h43.532v0.5h21.766v-0.5h43.532v-21.766h-43.532
	V293.841h163.245v-21.766H266.883V21.766h167.055l40.662,91.485c1.801,4.06,5.776,6.462,9.948,6.462
	c1.477,0,2.976-0.298,4.416-0.935C494.453,116.333,496.93,109.903,494.485,104.409z"/>
<g>
</g>
<g>
</g>
<g>
</g>
<g>
</g>
<g>
</g>
<g>
</g>
<g>
</g>
<g>
</g>
<g>
</g>
<g>
</g>
<g>
</g>
<g>
</g>
<g>
</g>
<g>
</g>
<g>
</g>
</svg>
