<?xml version="1.0" encoding="iso-8859-1"?>
<!-- Generator: Adobe Illustrator 19.0.0, SVG Export Plug-In . SVG Version: 6.00 Build 0)  -->
<svg version="1.1" id="Layer_1" xmlns="http://www.w3.org/2000/svg" xmlns:xlink="http://www.w3.org/1999/xlink" x="0px" y="0px"
	 viewBox="0 0 512 512" style="enable-background:new 0 0 512 512;" xml:space="preserve">
<polygon style="fill:#F28544;" points="398.091,114.145 341.255,114.145 322.309,114.145 265.473,114.145 246.527,114.145 
	189.691,114.145 170.745,114.145 113.909,114.145 113.909,170.981 113.909,189.927 113.909,246.763 113.909,265.709 
	113.909,322.545 113.909,341.491 113.909,397.855 113.909,398.327 170.745,398.327 170.745,397.855 189.691,397.855 
	189.691,398.327 246.527,398.327 246.527,397.855 265.473,397.855 265.473,398.327 322.309,398.327 322.309,397.855 
	341.255,397.855 341.255,398.327 398.091,398.327 398.091,341.491 398.091,322.545 398.091,265.709 398.091,246.763 
	398.091,189.927 398.091,170.981 "/>
<path style="fill:#314E55;" d="M511.764,189.927v-18.945h-94.727v-56.836v-9.473V0h-18.945v95.199h-56.836V0h-18.945v95.199h-56.836
	V0h-18.946v95.199h-56.836V0h-18.945v95.199h-56.836h-9.473H0.236v18.945h94.727v56.836H0.236v18.945h94.727v56.836H0.236v18.945
	h94.727v56.836H0.236v18.945h94.727v56.365v9.944V512h18.945v-94.727h56.836V512h18.945v-94.727h56.836V512h18.946v-94.727h56.836
	V512h18.945v-94.727h56.836h9.473h104.2v-18.945h-94.727v-56.836h94.727v-18.945h-94.727v-56.836h94.727v-18.945h-94.727v-56.836
	H511.764z M398.091,246.763v18.945v56.836v18.945v56.836h-56.836v-0.472h-18.945v0.472h-56.836v-0.472h-18.946v0.472h-56.836v-0.472
	h-18.945v0.472h-56.836v-0.472v-56.365v-18.945v-56.836v-18.945v-56.836v-18.945v-56.836h56.836h18.945h56.836h18.946h56.836h18.945
	h56.836v56.836v18.945V246.763z"/>
<g>
</g>
<g>
</g>
<g>
</g>
<g>
</g>
<g>
</g>
<g>
</g>
<g>
</g>
<g>
</g>
<g>
</g>
<g>
</g>
<g>
</g>
<g>
</g>
<g>
</g>
<g>
</g>
<g>
</g>
</svg>
