<?xml version="1.0" encoding="iso-8859-1"?>
<!-- Generator: Adobe Illustrator 19.0.0, SVG Export Plug-In . SVG Version: 6.00 Build 0)  -->
<svg version="1.1" id="Layer_1" xmlns="http://www.w3.org/2000/svg" xmlns:xlink="http://www.w3.org/1999/xlink" x="0px" y="0px"
	 viewBox="0 0 512 512" style="enable-background:new 0 0 512 512;" xml:space="preserve">
<path style="fill:#81A4E3;" d="M256,18.963C125.296,18.963,18.963,125.296,18.963,256S125.296,493.037,256,493.037
	S493.037,386.704,493.037,256S386.704,18.963,256,18.963z M237.037,189.63h37.926c5.241,0,9.482,4.245,9.482,9.481
	s-4.241,9.481-9.482,9.481h-37.926c-5.241,0-9.481-4.245-9.481-9.481S231.796,189.63,237.037,189.63z M274.963,322.37h-37.926
	c-5.241,0-9.481-4.245-9.481-9.481s4.241-9.481,9.481-9.481h37.926c5.241,0,9.482,4.245,9.482,9.481S280.204,322.37,274.963,322.37z
	 M379.259,265.481H132.741c-5.241,0-9.481-4.245-9.481-9.481s4.241-9.481,9.481-9.481h246.519c5.241,0,9.481,4.245,9.481,9.481
	S384.5,265.481,379.259,265.481z"/>
<g>
	<path style="fill:#314E55;" d="M256,0C114.843,0,0,114.843,0,256s114.843,256,256,256s256-114.843,256-256S397.157,0,256,0z
		 M256,493.037C125.296,493.037,18.963,386.704,18.963,256S125.296,18.963,256,18.963S493.037,125.296,493.037,256
		S386.704,493.037,256,493.037z"/>
	<path style="fill:#314E55;" d="M379.259,246.519H132.741c-5.241,0-9.481,4.245-9.481,9.481s4.241,9.481,9.481,9.481h246.519
		c5.241,0,9.481-4.245,9.481-9.481S384.5,246.519,379.259,246.519z"/>
	<path style="fill:#314E55;" d="M237.037,208.593h37.926c5.241,0,9.482-4.245,9.482-9.481s-4.241-9.481-9.482-9.481h-37.926
		c-5.241,0-9.481,4.245-9.481,9.481S231.796,208.593,237.037,208.593z"/>
	<path style="fill:#314E55;" d="M274.963,303.407h-37.926c-5.241,0-9.481,4.245-9.481,9.481s4.241,9.481,9.481,9.481h37.926
		c5.241,0,9.482-4.245,9.482-9.481S280.204,303.407,274.963,303.407z"/>
</g>
<g>
</g>
<g>
</g>
<g>
</g>
<g>
</g>
<g>
</g>
<g>
</g>
<g>
</g>
<g>
</g>
<g>
</g>
<g>
</g>
<g>
</g>
<g>
</g>
<g>
</g>
<g>
</g>
<g>
</g>
</svg>
