<?xml version="1.0" encoding="iso-8859-1"?>
<!-- Generator: Adobe Illustrator 19.0.0, SVG Export Plug-In . SVG Version: 6.00 Build 0)  -->
<svg version="1.1" id="Layer_1" xmlns="http://www.w3.org/2000/svg" xmlns:xlink="http://www.w3.org/1999/xlink" x="0px" y="0px"
	 viewBox="0 0 512 512" style="enable-background:new 0 0 512 512;" xml:space="preserve">
<g>
	<rect x="20.48" y="20.48" style="fill:#D8D8D8;" width="20.48" height="20.48"/>
	<rect x="225.28" y="20.48" style="fill:#D8D8D8;" width="20.48" height="20.48"/>
	<rect x="225.28" y="225.28" style="fill:#D8D8D8;" width="20.48" height="20.48"/>
</g>
<path style="fill:#5ECB66;" d="M204.8,51.2V40.96H61.44V51.2c0,5.655-4.58,10.24-10.24,10.24H40.96V204.8H51.2
	c5.66,0,10.24,4.585,10.24,10.24v10.24H204.8v-10.24c0-5.655,4.58-10.24,10.24-10.24h10.24V61.44h-10.24
	C209.38,61.44,204.8,56.855,204.8,51.2z"/>
<rect x="20.48" y="225.28" style="fill:#D8D8D8;" width="20.48" height="20.48"/>
<g>
	<path style="fill:#314E55;" d="M266.24,10.24C266.24,4.585,261.66,0,256,0h-40.96c-5.66,0-10.24,4.585-10.24,10.24v10.24H61.44
		V10.24C61.44,4.585,56.86,0,51.2,0H10.24C4.58,0,0,4.585,0,10.24V51.2c0,5.655,4.58,10.24,10.24,10.24h10.24V204.8H10.24
		C4.58,204.8,0,209.385,0,215.04V256c0,5.655,4.58,10.24,10.24,10.24H51.2c5.66,0,10.24-4.585,10.24-10.24v-10.24H204.8V256
		c0,5.655,4.58,10.24,10.24,10.24H256c5.66,0,10.24-4.585,10.24-10.24v-40.96c0-5.655-4.58-10.24-10.24-10.24h-10.24V61.44H256
		c5.66,0,10.24-4.585,10.24-10.24V40.96h40.96V20.48h-40.96V10.24z M20.48,20.48h20.48v20.48H20.48V20.48z M20.48,245.76v-20.48
		h20.48v20.48H20.48z M245.76,245.76h-20.48v-20.48h20.48V245.76z M225.28,204.8h-10.24c-5.66,0-10.24,4.585-10.24,10.24v10.24
		H61.44v-10.24c0-5.655-4.58-10.24-10.24-10.24H40.96V61.44H51.2c5.66,0,10.24-4.585,10.24-10.24V40.96H204.8V51.2
		c0,5.655,4.58,10.24,10.24,10.24h10.24V204.8z M245.76,40.96h-20.48V20.48h20.48V40.96z"/>
	<rect x="491.52" y="92.16" style="fill:#314E55;" width="20.48" height="51.2"/>
	<rect x="460.8" y="20.48" style="fill:#314E55;" width="51.2" height="20.48"/>
	<rect x="491.52" y="194.56" style="fill:#314E55;" width="20.48" height="51.2"/>
	<rect x="40.96" y="491.52" style="fill:#314E55;" width="51.2" height="20.48"/>
	<rect x="245.76" y="491.52" style="fill:#314E55;" width="51.2" height="20.48"/>
	<rect x="20.48" y="409.6" style="fill:#314E55;" width="20.48" height="51.2"/>
	<rect x="20.48" y="307.2" style="fill:#314E55;" width="20.48" height="51.2"/>
	<rect x="143.36" y="491.52" style="fill:#314E55;" width="51.2" height="20.48"/>
	<rect x="348.16" y="491.52" style="fill:#314E55;" width="51.2" height="20.48"/>
	<rect x="491.52" y="296.96" style="fill:#314E55;" width="20.48" height="51.2"/>
	<rect x="491.52" y="399.36" style="fill:#314E55;" width="20.48" height="51.2"/>
	<rect x="358.4" y="20.48" style="fill:#314E55;" width="51.2" height="20.48"/>
	<rect x="450.56" y="491.52" style="fill:#314E55;" width="51.2" height="20.48"/>
</g>
<g>
</g>
<g>
</g>
<g>
</g>
<g>
</g>
<g>
</g>
<g>
</g>
<g>
</g>
<g>
</g>
<g>
</g>
<g>
</g>
<g>
</g>
<g>
</g>
<g>
</g>
<g>
</g>
<g>
</g>
</svg>
