<?xml version="1.0" encoding="iso-8859-1"?>
<!-- Generator: Adobe Illustrator 19.0.0, SVG Export Plug-In . SVG Version: 6.00 Build 0)  -->
<svg version="1.1" id="Layer_1" xmlns="http://www.w3.org/2000/svg" xmlns:xlink="http://www.w3.org/1999/xlink" x="0px" y="0px"
	 viewBox="0 0 512 512" style="enable-background:new 0 0 512 512;" xml:space="preserve">
<path style="fill:#F28544;" d="M61.44,215.04v10.24H204.8v-10.24c0-5.655,4.58-10.24,10.24-10.24h10.24V61.44h-10.24
	c-5.66,0-10.24-4.585-10.24-10.24V40.96H61.44V51.2c0,5.655-4.58,10.24-10.24,10.24H40.96V204.8H51.2
	C56.86,204.8,61.44,209.385,61.44,215.04z"/>
<g>
	<rect x="20.48" y="20.48" style="fill:#D8D8D8;" width="20.48" height="20.48"/>
	<rect x="225.28" y="20.48" style="fill:#D8D8D8;" width="20.48" height="20.48"/>
	<rect x="225.28" y="225.28" style="fill:#D8D8D8;" width="20.48" height="20.48"/>
	<rect x="20.48" y="225.28" style="fill:#D8D8D8;" width="20.48" height="20.48"/>
</g>
<g>
	<path style="fill:#314E55;" d="M501.76,20.48H266.24V10.24C266.24,4.585,261.66,0,256,0h-40.96c-5.66,0-10.24,4.585-10.24,10.24
		v10.24H61.44V10.24C61.44,4.585,56.86,0,51.2,0H10.24C4.58,0,0,4.585,0,10.24V51.2c0,5.655,4.58,10.24,10.24,10.24h10.24V204.8
		H10.24C4.58,204.8,0,209.385,0,215.04V256c0,5.655,4.58,10.24,10.24,10.24h10.24v235.52c0,5.655,4.58,10.24,10.24,10.24h471.04
		c5.66,0,10.24-4.585,10.24-10.24V30.72C512,25.065,507.42,20.48,501.76,20.48z M245.76,20.48v20.48h-20.48V20.48H245.76z
		 M20.48,20.48h20.48v20.48H20.48V20.48z M40.96,61.44H51.2c5.66,0,10.24-4.585,10.24-10.24V40.96H204.8V51.2
		c0,5.655,4.58,10.24,10.24,10.24h10.24V204.8h-10.24c-5.66,0-10.24,4.585-10.24,10.24v10.24H61.44v-10.24
		c0-5.655-4.58-10.24-10.24-10.24H40.96V61.44z M225.28,225.28h20.48v20.48h-20.48V225.28z M20.48,225.28h20.48v20.48H20.48V225.28z
		 M491.52,491.52H40.96V266.24H51.2c5.66,0,10.24-4.585,10.24-10.24v-10.24H204.8V256c0,5.655,4.58,10.24,10.24,10.24H256
		c5.66,0,10.24-4.585,10.24-10.24v-40.96c0-5.655-4.58-10.24-10.24-10.24h-10.24V61.44H256c5.66,0,10.24-4.585,10.24-10.24V40.96
		h225.28V491.52z"/>
	<path style="fill:#314E55;" d="M299.96,314.44l95.16,95.16h-77.68c-5.66,0-10.24,4.585-10.24,10.24c0,5.655,4.58,10.24,10.24,10.24
		h102.4c5.66,0,10.24-4.585,10.24-10.24v-102.4c0-5.655-4.58-10.24-10.24-10.24c-5.66,0-10.24,4.585-10.24,10.24v77.68l-95.16-95.16
		c-4-4-10.48-4-14.48,0S295.96,310.44,299.96,314.44z"/>
</g>
<g>
</g>
<g>
</g>
<g>
</g>
<g>
</g>
<g>
</g>
<g>
</g>
<g>
</g>
<g>
</g>
<g>
</g>
<g>
</g>
<g>
</g>
<g>
</g>
<g>
</g>
<g>
</g>
<g>
</g>
</svg>
