<?xml version="1.0" encoding="iso-8859-1"?>
<!-- Generator: Adobe Illustrator 19.0.0, SVG Export Plug-In . SVG Version: 6.00 Build 0)  -->
<svg version="1.1" id="Layer_1" xmlns="http://www.w3.org/2000/svg" xmlns:xlink="http://www.w3.org/1999/xlink" x="0px" y="0px"
	 viewBox="0 0 512 512" style="enable-background:new 0 0 512 512;" xml:space="preserve">
<polygon style="fill:#5ECB66;" points="29.307,281.883 52.246,281.883 73.143,281.883 96.082,281.883 62.694,228.454 "/>
<g>
	<path style="fill:#314E55;" d="M511.1,110.455l-41.796-94.04c-1.684-3.775-5.418-6.204-9.551-6.204H104.49
		c-4.133,0-7.867,2.429-9.551,6.204l-41.796,94.04c-2.337,5.275,0.031,11.449,5.306,13.796c5.275,2.357,11.449-0.041,13.796-5.306
		l39.031-87.836h160.397v449.303h-41.796v20.898h41.796v0.48h20.898v-0.48h41.796v-20.898H292.57V31.109h160.397l39.03,87.836
		c1.735,3.898,5.551,6.204,9.561,6.204c1.418,0,2.857-0.286,4.235-0.898C511.069,121.904,513.436,115.73,511.1,110.455z"/>
	<path style="fill:#314E55;" d="M71.551,203.199c-3.816-6.102-13.898-6.102-17.714,0L1.593,286.791
		c-2.02,3.225-2.122,7.286-0.286,10.602c1.847,3.326,5.347,5.388,9.143,5.388h41.796v188.366h20.898V302.78h41.796
		c3.796,0,7.296-2.061,9.143-5.388c1.837-3.316,1.735-7.377-0.286-10.602L71.551,203.199z M73.143,281.883H52.246H29.307
		l33.387-53.428l33.388,53.428H73.143z"/>
</g>
<g>
</g>
<g>
</g>
<g>
</g>
<g>
</g>
<g>
</g>
<g>
</g>
<g>
</g>
<g>
</g>
<g>
</g>
<g>
</g>
<g>
</g>
<g>
</g>
<g>
</g>
<g>
</g>
<g>
</g>
</svg>
