<?xml version="1.0" encoding="iso-8859-1"?>
<!-- Generator: Adobe Illustrator 19.0.0, SVG Export Plug-In . SVG Version: 6.00 Build 0)  -->
<svg version="1.1" id="Layer_1" xmlns="http://www.w3.org/2000/svg" xmlns:xlink="http://www.w3.org/1999/xlink" x="0px" y="0px"
	 viewBox="0 0 512 512" style="enable-background:new 0 0 512 512;" xml:space="preserve">
<path style="fill:#EA86A5;" d="M256,18.963C125.296,18.963,18.963,125.296,18.963,256S125.296,493.037,256,493.037
	S493.037,386.704,493.037,256S386.704,18.963,256,18.963z M379.259,312.889H132.741c-5.241,0-9.481-4.245-9.481-9.481
	s4.241-9.481,9.481-9.481h246.519c5.241,0,9.481,4.245,9.481,9.481S384.5,312.889,379.259,312.889z M379.259,227.556H132.741
	c-5.241,0-9.481-4.245-9.481-9.481c0-5.236,4.241-9.481,9.481-9.481h246.519c5.241,0,9.481,4.245,9.481,9.481
	C388.741,223.31,384.5,227.556,379.259,227.556z"/>
<g>
	<path style="fill:#314E55;" d="M256,0C114.843,0,0,114.843,0,256s114.843,256,256,256s256-114.843,256-256S397.157,0,256,0z
		 M256,493.037C125.296,493.037,18.963,386.704,18.963,256S125.296,18.963,256,18.963S493.037,125.296,493.037,256
		S386.704,493.037,256,493.037z"/>
	<path style="fill:#314E55;" d="M379.259,208.593H132.741c-5.241,0-9.481,4.245-9.481,9.481c0,5.236,4.241,9.481,9.481,9.481
		h246.519c5.241,0,9.481-4.245,9.481-9.481C388.741,212.838,384.5,208.593,379.259,208.593z"/>
	<path style="fill:#314E55;" d="M379.259,293.926H132.741c-5.241,0-9.481,4.245-9.481,9.481s4.241,9.481,9.481,9.481h246.519
		c5.241,0,9.481-4.245,9.481-9.481S384.5,293.926,379.259,293.926z"/>
</g>
<g>
</g>
<g>
</g>
<g>
</g>
<g>
</g>
<g>
</g>
<g>
</g>
<g>
</g>
<g>
</g>
<g>
</g>
<g>
</g>
<g>
</g>
<g>
</g>
<g>
</g>
<g>
</g>
<g>
</g>
</svg>
