<?xml version="1.0" encoding="iso-8859-1"?>
<!-- Generator: Adobe Illustrator 19.0.0, SVG Export Plug-In . SVG Version: 6.00 Build 0)  -->
<svg version="1.1" id="Layer_1" xmlns="http://www.w3.org/2000/svg" xmlns:xlink="http://www.w3.org/1999/xlink" x="0px" y="0px"
	 viewBox="0 0 512 512" style="enable-background:new 0 0 512 512;" xml:space="preserve">
<g>
	<path style="fill:#F28544;" d="M256,106.264c-10.656,0-19.321,8.67-19.321,19.33v154.547c0,10.66,8.665,19.33,19.321,19.33
		s19.321-8.67,19.321-19.33V125.594C275.321,114.934,266.656,106.264,256,106.264z"/>
	<circle style="fill:#F28544;" cx="256" cy="357.434" r="9.66"/>
</g>
<path style="fill:#EAEAEA;" d="M256,19.321c-122.514,0-222.189,99.472-222.189,221.745c0,54.717,20.127,107.255,56.679,147.953
	c1.887,2.104,2.759,4.925,2.387,7.736L81.16,484.443l73.608-41.321c2.693-1.519,5.948-1.642,8.75-0.358
	c29.09,13.311,60.203,20.057,92.481,20.057c122.514,0,222.189-99.481,222.189-221.755S378.514,19.321,256,19.321z M256,386.415
	c-15.981,0-28.981-13-28.981-28.981s13-28.981,28.981-28.981s28.981,13,28.981,28.981S271.981,386.415,256,386.415z
	 M294.642,280.142c0,21.311-17.335,38.651-38.642,38.651s-38.642-17.34-38.642-38.651V125.594c0-21.311,17.335-38.651,38.642-38.651
	s38.642,17.34,38.642,38.651V280.142z"/>
<g>
	<path style="fill:#314E55;" d="M256,0C122.83,0,14.491,108.141,14.491,241.066c0,57.991,20.797,113.736,58.651,157.49
		l-13.693,102.5c-0.486,3.632,1.123,7.226,4.151,9.273c1.632,1.113,3.528,1.67,5.424,1.67c1.627,0,3.255-0.406,4.731-1.236
		L160,462.349c30.325,13.132,62.594,19.792,96,19.792c133.17,0,241.509-108.141,241.509-241.075C497.509,108.141,389.17,0,256,0z
		 M256,462.821c-32.278,0-63.391-6.745-92.481-20.057c-2.802-1.283-6.057-1.16-8.75,0.358L81.16,484.443l11.717-87.689
		c0.373-2.811-0.5-5.632-2.387-7.736c-36.552-40.698-56.679-93.236-56.679-147.953c0-122.274,99.675-221.745,222.189-221.745
		s222.189,99.472,222.189,221.745S378.514,462.821,256,462.821z"/>
	<path style="fill:#314E55;" d="M256,86.943c-21.307,0-38.642,17.34-38.642,38.651v154.547c0,21.311,17.335,38.651,38.642,38.651
		s38.642-17.34,38.642-38.651V125.594C294.642,104.283,277.307,86.943,256,86.943z M275.321,280.142
		c0,10.66-8.665,19.33-19.321,19.33s-19.321-8.67-19.321-19.33V125.594c0-10.66,8.665-19.33,19.321-19.33s19.321,8.67,19.321,19.33
		V280.142z"/>
	<path style="fill:#314E55;" d="M256,328.453c-15.981,0-28.981,13-28.981,28.981s13,28.981,28.981,28.981s28.981-13,28.981-28.981
		S271.981,328.453,256,328.453z M256,367.094c-5.326,0-9.66-4.33-9.66-9.66s4.335-9.66,9.66-9.66c5.326,0,9.66,4.33,9.66,9.66
		S261.326,367.094,256,367.094z"/>
</g>
<g>
</g>
<g>
</g>
<g>
</g>
<g>
</g>
<g>
</g>
<g>
</g>
<g>
</g>
<g>
</g>
<g>
</g>
<g>
</g>
<g>
</g>
<g>
</g>
<g>
</g>
<g>
</g>
<g>
</g>
</svg>
