<?xml version="1.0" encoding="iso-8859-1"?>
<!-- Generator: Adobe Illustrator 19.0.0, SVG Export Plug-In . SVG Version: 6.00 Build 0)  -->
<svg version="1.1" id="Layer_1" xmlns="http://www.w3.org/2000/svg" xmlns:xlink="http://www.w3.org/1999/xlink" x="0px" y="0px"
	 viewBox="0 0 512 512" style="enable-background:new 0 0 512 512;" xml:space="preserve">
<path style="fill:#5ECB66;" d="M250.667,202.667c-26.469,0-48,21.531-48,48s21.531,48,48,48s48-21.531,48-48
	S277.135,202.667,250.667,202.667z"/>
<g>
	<path style="fill:#314E55;" d="M10.667,149.333c5.896,0,10.667-4.776,10.667-10.667V36.417l157.875,157.88
		c2.083,2.083,4.813,3.125,7.542,3.125s5.458-1.042,7.542-3.125c4.167-4.167,4.167-10.917,0-15.083L36.417,21.333h102.25
		c5.896,0,10.667-4.776,10.667-10.667S144.562,0,138.667,0h-128C4.771,0,0,4.776,0,10.667v128
		C0,144.557,4.771,149.333,10.667,149.333z"/>
	<path style="fill:#314E55;" d="M501.333,0h-128c-5.896,0-10.667,4.776-10.667,10.667s4.771,10.667,10.667,10.667h102.25
		l-157.875,157.88c-4.167,4.167-4.167,10.917,0,15.083c2.083,2.083,4.813,3.125,7.542,3.125s5.458-1.042,7.542-3.125l157.875-157.88
		v102.25c0,5.891,4.771,10.667,10.667,10.667S512,144.557,512,138.667v-128C512,4.776,507.229,0,501.333,0z"/>
	<path style="fill:#314E55;" d="M501.333,362.667c-5.896,0-10.667,4.776-10.667,10.667v102.255l-163.125-163.13
		c-4.167-4.167-10.917-4.167-15.083,0c-4.166,4.167-4.167,10.917,0,15.083l163.12,163.125H373.333
		c-5.896,0-10.667,4.776-10.667,10.667S367.438,512,373.333,512h128c5.896,0,10.667-4.776,10.667-10.667v-128
		C512,367.443,507.229,362.667,501.333,362.667z"/>
	<path style="fill:#314E55;" d="M184.458,312.458L21.333,475.589V373.333c0-5.891-4.771-10.667-10.667-10.667S0,367.443,0,373.333
		v128C0,507.224,4.771,512,10.667,512h128c5.896,0,10.667-4.776,10.667-10.667s-4.771-10.667-10.667-10.667H36.422l163.12-163.125
		c4.167-4.167,4.167-10.917,0-15.083S188.625,308.292,184.458,312.458z"/>
	<path style="fill:#314E55;" d="M250.667,181.333c-38.229,0-69.333,31.104-69.333,69.333S212.438,320,250.667,320
		S320,288.896,320,250.667S288.896,181.333,250.667,181.333z M250.667,298.667c-26.469,0-48-21.531-48-48s21.531-48,48-48
		s48,21.531,48,48S277.135,298.667,250.667,298.667z"/>
</g>
<g>
</g>
<g>
</g>
<g>
</g>
<g>
</g>
<g>
</g>
<g>
</g>
<g>
</g>
<g>
</g>
<g>
</g>
<g>
</g>
<g>
</g>
<g>
</g>
<g>
</g>
<g>
</g>
<g>
</g>
</svg>
