<?xml version="1.0" encoding="iso-8859-1"?>
<!-- Generator: Adobe Illustrator 19.0.0, SVG Export Plug-In . SVG Version: 6.00 Build 0)  -->
<svg version="1.1" id="Layer_1" xmlns="http://www.w3.org/2000/svg" xmlns:xlink="http://www.w3.org/1999/xlink" x="0px" y="0px"
	 viewBox="0 0 512 512" style="enable-background:new 0 0 512 512;" xml:space="preserve">
<g>
	<rect x="64" y="82.286" style="fill:#D26CBA;" width="91.429" height="100.571"/>
	<rect x="219.429" y="329.143" style="fill:#D26CBA;" width="91.429" height="100.571"/>
	<rect x="64" y="246.857" style="fill:#D26CBA;" width="91.429" height="182.857"/>
	<rect x="219.429" y="82.286" style="fill:#D26CBA;" width="91.429" height="182.857"/>
</g>
<path style="fill:#D8D8D8;" d="M448,402.286c10.08,0,18.286-8.214,18.286-18.304V128.018c0-10.089-8.205-18.304-18.286-18.304
	c-10.08,0-18.286,8.214-18.286,18.304v255.964C429.714,394.071,437.92,402.286,448,402.286z M438.857,118.857h18.286v91.429h-18.286
	V118.857z"/>
<path style="fill:#EAEAEA;" d="M329.143,274.286c0,5.053-4.089,9.143-9.143,9.143H210.286c-5.053,0-9.143-4.089-9.143-9.143v-192
	h-27.429V192c0,5.053-4.089,9.143-9.143,9.143H54.857c-5.053,0-9.143-4.089-9.143-9.143V82.286H18.286v347.429h27.429v-192
	c0-5.053,4.089-9.143,9.143-9.143h109.714c5.053,0,9.143,4.089,9.143,9.143v192h27.429V320c0-5.053,4.089-9.143,9.143-9.143H320
	c5.054,0,9.143,4.089,9.143,9.143v109.714h164.571V82.286H329.143V274.286z M448,91.429c20.17,0,36.571,16.411,36.571,36.589
	v255.964c0,20.178-16.402,36.589-36.571,36.589c-20.17,0-36.571-16.411-36.571-36.589V128.018
	C411.429,107.839,427.83,91.429,448,91.429z"/>
<g>
	<path style="fill:#314E55;" d="M502.857,64H320H210.286h-45.714H54.857H9.143C4.089,64,0,68.089,0,73.143v365.714
		C0,443.911,4.089,448,9.143,448h45.714h109.714h45.714H320h182.857c5.053,0,9.143-4.089,9.143-9.143V73.143
		C512,68.089,507.911,64,502.857,64z M310.857,82.286v182.857h-91.429V82.286H310.857z M155.429,82.286v100.571H64V82.286H155.429z
		 M64,429.714V246.857h91.429v182.857H64z M219.429,429.714V329.143h91.429v100.571H219.429z M493.714,429.714H329.143V320
		c0-5.053-4.089-9.143-9.143-9.143H210.286c-5.053,0-9.143,4.089-9.143,9.143v109.714h-27.429v-192c0-5.053-4.089-9.143-9.143-9.143
		H54.857c-5.053,0-9.143,4.089-9.143,9.143v192H18.286V82.286h27.429V192c0,5.053,4.089,9.143,9.143,9.143h109.714
		c5.053,0,9.143-4.089,9.143-9.143V82.286h27.429v192c0,5.053,4.089,9.143,9.143,9.143H320c5.054,0,9.143-4.089,9.143-9.143v-192
		h164.571V429.714z"/>
	<path style="fill:#314E55;" d="M448,420.571c20.17,0,36.571-16.411,36.571-36.589V128.018c0-20.179-16.402-36.589-36.571-36.589
		c-20.17,0-36.571,16.411-36.571,36.589v255.964C411.429,404.161,427.83,420.571,448,420.571z M429.714,128.018
		c0-10.089,8.205-18.304,18.286-18.304c10.08,0,18.286,8.214,18.286,18.304v255.964c0,10.089-8.205,18.304-18.286,18.304
		c-10.08,0-18.286-8.214-18.286-18.304V128.018z"/>
	<rect x="438.857" y="118.857" style="fill:#314E55;" width="18.286" height="91.429"/>
</g>
<g>
</g>
<g>
</g>
<g>
</g>
<g>
</g>
<g>
</g>
<g>
</g>
<g>
</g>
<g>
</g>
<g>
</g>
<g>
</g>
<g>
</g>
<g>
</g>
<g>
</g>
<g>
</g>
<g>
</g>
</svg>
