<?xml version="1.0" encoding="iso-8859-1"?>
<!-- Generator: Adobe Illustrator 19.0.0, SVG Export Plug-In . SVG Version: 6.00 Build 0)  -->
<svg version="1.1" id="Layer_1" xmlns="http://www.w3.org/2000/svg" xmlns:xlink="http://www.w3.org/1999/xlink" x="0px" y="0px"
	 viewBox="0 0 512 512" style="enable-background:new 0 0 512 512;" xml:space="preserve">
<g>
	<polygon style="fill:#81A4E3;" points="157.538,315.077 157.538,393.846 246.154,393.846 265.846,393.846 354.462,393.846 
		354.462,315.077 265.846,315.077 246.154,315.077 	"/>
	<polygon style="fill:#81A4E3;" points="246.154,118.154 98.462,118.154 98.462,196.923 246.154,196.923 265.846,196.923 
		413.538,196.923 413.538,118.154 265.846,118.154 	"/>
</g>
<path style="fill:#314E55;" d="M423.385,98.462H265.846V0h-19.692v98.462H88.615c-5.442,0-9.846,4.409-9.846,9.846v98.462
	c0,5.438,4.404,9.846,9.846,9.846h157.538v78.769h-98.462c-5.442,0-9.846,4.409-9.846,9.846v98.462c0,5.438,4.404,9.846,9.846,9.846
	h98.462V512h19.692v-98.462h98.462c5.442,0,9.846-4.409,9.846-9.846v-98.462c0-5.438-4.404-9.846-9.846-9.846h-98.462v-78.769
	h157.538c5.442,0,9.846-4.409,9.846-9.846v-98.462C433.231,102.87,428.827,98.462,423.385,98.462z M354.462,315.077v78.769h-88.615
	h-19.692h-88.615v-78.769h88.615h19.692H354.462z M413.538,196.923H265.846h-19.692H98.462v-78.769h147.692h19.692h147.692V196.923z
	"/>
<g>
</g>
<g>
</g>
<g>
</g>
<g>
</g>
<g>
</g>
<g>
</g>
<g>
</g>
<g>
</g>
<g>
</g>
<g>
</g>
<g>
</g>
<g>
</g>
<g>
</g>
<g>
</g>
<g>
</g>
</svg>
