<?xml version="1.0" encoding="iso-8859-1"?>
<!-- Generator: Adobe Illustrator 19.0.0, SVG Export Plug-In . SVG Version: 6.00 Build 0)  -->
<svg version="1.1" id="Layer_1" xmlns="http://www.w3.org/2000/svg" xmlns:xlink="http://www.w3.org/1999/xlink" x="0px" y="0px"
	 viewBox="0 0 512 512" style="enable-background:new 0 0 512 512;" xml:space="preserve">
<path style="fill:#E9E7D1;" d="M19.692,492.308h472.615V19.692H19.692V492.308z M201.981,68.923h241.5v19.692h-241.5V68.923z
	 M201.981,157.538h241.5v19.692h-241.5V157.538z M201.981,246.154h142.923v19.692H201.981V246.154z M201.981,334.769h241.5v19.692
	h-241.5V334.769z M201.981,423.385h142.923v19.692H201.981V423.385z M147.692,39.385h19.692v433.231h-19.692V39.385z M52.115,207.26
	c-3.846-3.846-3.846-10.077,0-13.923s10.077-3.846,13.923,0l55.702,55.697c1.846,1.846,2.885,4.351,2.885,6.961
	s-1.039,5.115-2.885,6.962l-55.702,55.702c-1.923,1.923-4.442,2.885-6.961,2.885c-2.519,0-5.039-0.961-6.961-2.885
	c-3.846-3.846-3.846-10.077,0-13.923l48.74-48.74L52.115,207.26z"/>
<g>
	<path style="fill:#314E55;" d="M502.154,0H9.846C4.404,0,0,4.409,0,9.846v492.308C0,507.591,4.404,512,9.846,512h492.308
		c5.442,0,9.846-4.409,9.846-9.846V9.846C512,4.409,507.596,0,502.154,0z M492.308,492.308H19.692V19.692h472.615V492.308z"/>
	<rect x="201.969" y="246.154" style="fill:#314E55;" width="142.917" height="19.692"/>
	<rect x="201.969" y="334.769" style="fill:#314E55;" width="241.502" height="19.692"/>
	<rect x="201.969" y="68.923" style="fill:#314E55;" width="241.502" height="19.692"/>
	<rect x="147.692" y="39.385" style="fill:#314E55;" width="19.692" height="433.231"/>
	<rect x="201.969" y="423.385" style="fill:#314E55;" width="142.917" height="19.692"/>
	<rect x="201.969" y="157.538" style="fill:#314E55;" width="241.502" height="19.692"/>
	<path style="fill:#314E55;" d="M52.115,318.659c1.923,1.923,4.442,2.885,6.961,2.885c2.519,0,5.039-0.961,6.961-2.885
		l55.702-55.702c1.846-1.846,2.885-4.351,2.885-6.961s-1.039-5.115-2.885-6.961l-55.702-55.697c-3.846-3.846-10.077-3.846-13.923,0
		c-3.846,3.846-3.846,10.077,0,13.923l48.74,48.736l-48.74,48.74C48.269,308.582,48.269,314.813,52.115,318.659z"/>
</g>
<g>
</g>
<g>
</g>
<g>
</g>
<g>
</g>
<g>
</g>
<g>
</g>
<g>
</g>
<g>
</g>
<g>
</g>
<g>
</g>
<g>
</g>
<g>
</g>
<g>
</g>
<g>
</g>
<g>
</g>
</svg>
