<?xml version="1.0" encoding="iso-8859-1"?>
<!-- Generator: Adobe Illustrator 19.0.0, SVG Export Plug-In . SVG Version: 6.00 Build 0)  -->
<svg version="1.1" id="Layer_1" xmlns="http://www.w3.org/2000/svg" xmlns:xlink="http://www.w3.org/1999/xlink" x="0px" y="0px"
	 viewBox="0 0 512 512" style="enable-background:new 0 0 512 512;" xml:space="preserve">
<path style="fill:#E9E7D1;" d="M19.692,492.308h472.615V19.692H19.692V492.308z M310.019,443.077H167.096v-19.692h142.923V443.077z
	 M310.019,265.846H167.096v-19.692h142.923V265.846z M390.26,249.034l55.702-55.697c3.846-3.846,10.077-3.846,13.923,0
	c3.846,3.846,3.846,10.077,0,13.923l-48.74,48.736l48.74,48.74c3.846,3.846,3.846,10.077,0,13.923
	c-1.923,1.923-4.442,2.885-6.961,2.885c-2.519,0-5.039-0.961-6.961-2.885l-55.702-55.702c-1.846-1.846-2.885-4.351-2.885-6.961
	S388.414,250.88,390.26,249.034z M344.615,39.385h19.692v433.231h-19.692V39.385z M68.51,68.923h241.51v19.692H68.51V68.923z
	 M68.51,157.538h241.51v19.692H68.51V157.538z M68.51,334.769h241.51v19.692H68.51V334.769z"/>
<g>
	<path style="fill:#314E55;" d="M502.154,0H9.846C4.404,0,0,4.409,0,9.846v492.308C0,507.591,4.404,512,9.846,512h492.308
		c5.442,0,9.846-4.409,9.846-9.846V9.846C512,4.409,507.596,0,502.154,0z M492.308,492.308H19.692V19.692h472.615V492.308z"/>
	<rect x="167.097" y="246.154" style="fill:#314E55;" width="142.917" height="19.692"/>
	<rect x="68.51" y="334.769" style="fill:#314E55;" width="241.502" height="19.692"/>
	<rect x="68.51" y="68.923" style="fill:#314E55;" width="241.502" height="19.692"/>
	<rect x="344.615" y="39.385" style="fill:#314E55;" width="19.692" height="433.231"/>
	<rect x="167.097" y="423.385" style="fill:#314E55;" width="142.917" height="19.692"/>
	<rect x="68.51" y="157.538" style="fill:#314E55;" width="241.502" height="19.692"/>
	<path style="fill:#314E55;" d="M445.962,318.659c1.923,1.923,4.442,2.885,6.961,2.885c2.519,0,5.039-0.961,6.961-2.885
		c3.846-3.846,3.846-10.077,0-13.923l-48.74-48.74l48.74-48.736c3.846-3.846,3.846-10.077,0-13.923
		c-3.846-3.846-10.077-3.846-13.923,0l-55.702,55.697c-1.846,1.846-2.885,4.351-2.885,6.961c0,2.61,1.039,5.115,2.885,6.961
		L445.962,318.659z"/>
</g>
<g>
</g>
<g>
</g>
<g>
</g>
<g>
</g>
<g>
</g>
<g>
</g>
<g>
</g>
<g>
</g>
<g>
</g>
<g>
</g>
<g>
</g>
<g>
</g>
<g>
</g>
<g>
</g>
<g>
</g>
</svg>
