<?xml version="1.0" encoding="iso-8859-1"?>
<!-- Generator: Adobe Illustrator 19.0.0, SVG Export Plug-In . SVG Version: 6.00 Build 0)  -->
<svg version="1.1" id="Layer_1" xmlns="http://www.w3.org/2000/svg" xmlns:xlink="http://www.w3.org/1999/xlink" x="0px" y="0px"
	 viewBox="0 0 512 512" style="enable-background:new 0 0 512 512;" xml:space="preserve">
<g>
	<rect x="265.846" y="19.692" style="fill:#D8D8D8;" width="226.462" height="68.923"/>
	<rect x="19.692" y="108.308" style="fill:#D8D8D8;" width="226.462" height="384"/>
	<rect x="19.692" y="19.692" style="fill:#D8D8D8;" width="226.462" height="68.923"/>
</g>
<rect x="265.846" y="108.308" style="fill:#EAEAEA;" width="226.462" height="384"/>
<path style="fill:#314E55;" d="M502.154,0H256H9.846C4.409,0,0,4.409,0,9.846v88.615v403.692C0,507.591,4.409,512,9.846,512H256
	h246.154c5.438,0,9.846-4.409,9.846-9.846V98.462V9.846C512,4.409,507.591,0,502.154,0z M492.308,88.615H265.846V19.692h226.462
	V88.615z M19.692,19.692h226.462v68.923H19.692V19.692z M19.692,108.308h226.462v384H19.692V108.308z M265.846,492.308v-384h226.462
	v384H265.846z"/>
<g>
</g>
<g>
</g>
<g>
</g>
<g>
</g>
<g>
</g>
<g>
</g>
<g>
</g>
<g>
</g>
<g>
</g>
<g>
</g>
<g>
</g>
<g>
</g>
<g>
</g>
<g>
</g>
<g>
</g>
</svg>
