<?xml version="1.0" encoding="iso-8859-1"?>
<!-- Generator: Adobe Illustrator 19.0.0, SVG Export Plug-In . SVG Version: 6.00 Build 0)  -->
<svg version="1.1" id="Layer_1" xmlns="http://www.w3.org/2000/svg" xmlns:xlink="http://www.w3.org/1999/xlink" x="0px" y="0px"
	 viewBox="0 0 512 512" style="enable-background:new 0 0 512 512;" xml:space="preserve">
<rect x="310.857" y="146.286" style="fill:#EAEAEA;" width="45.714" height="283.429"/>
<rect x="118.857" y="329.143" style="fill:#EA86A5;" width="137.143" height="73.143"/>
<rect x="18.286" y="146.286" style="fill:#EAEAEA;" width="45.714" height="283.429"/>
<polygon style="fill:#C59981;" points="301.714,128 365.714,128 493.714,128 493.714,82.286 18.286,82.286 18.286,128 73.143,128 
	"/>
<rect x="374.857" y="146.286" style="fill:#D8D8D8;" width="118.857" height="283.429"/>
<rect x="118.857" y="182.857" style="fill:#EA86A5;" width="137.143" height="73.143"/>
<path style="fill:#D8D8D8;" d="M82.286,146.286v283.429h210.286V146.286H82.286z M274.286,411.429c0,5.053-4.089,9.143-9.143,9.143
	H109.714c-5.053,0-9.143-4.089-9.143-9.143V320c0-5.053,4.089-9.143,9.143-9.143h155.429c5.053,0,9.143,4.089,9.143,9.143V411.429z
	 M109.714,301.714v-18.286h155.429v18.286H109.714z M274.286,265.143c0,5.053-4.089,9.143-9.143,9.143H109.714
	c-5.053,0-9.143-4.089-9.143-9.143v-91.429c0-5.053,4.089-9.143,9.143-9.143h155.429c5.053,0,9.143,4.089,9.143,9.143V265.143z"/>
<g>
	<path style="fill:#314E55;" d="M502.857,64H9.143C4.089,64,0,68.089,0,73.143v64v301.714C0,443.911,4.089,448,9.143,448h64h228.571
		h64h137.143c5.053,0,9.143-4.089,9.143-9.143V137.143v-64C512,68.089,507.911,64,502.857,64z M18.286,82.286h475.429V128h-128h-64
		H73.143H18.286V82.286z M356.571,146.286v283.429h-45.714V146.286H356.571z M18.286,146.286H64v283.429H18.286V146.286z
		 M82.286,429.714V146.286h210.286v283.429H82.286z M493.714,429.714H374.857V146.286h118.857V429.714z"/>
	<path style="fill:#314E55;" d="M265.143,164.571H109.714c-5.053,0-9.143,4.089-9.143,9.143v91.429c0,5.053,4.089,9.143,9.143,9.143
		h155.429c5.053,0,9.143-4.089,9.143-9.143v-91.429C274.286,168.661,270.196,164.571,265.143,164.571z M256,256H118.857v-73.143H256
		V256z"/>
	<path style="fill:#314E55;" d="M265.143,310.857H109.714c-5.053,0-9.143,4.089-9.143,9.143v91.429c0,5.053,4.089,9.143,9.143,9.143
		h155.429c5.053,0,9.143-4.089,9.143-9.143V320C274.286,314.947,270.196,310.857,265.143,310.857z M256,402.286H118.857v-73.143H256
		V402.286z"/>
	<rect x="109.714" y="283.429" style="fill:#314E55;" width="155.429" height="18.286"/>
</g>
<g>
</g>
<g>
</g>
<g>
</g>
<g>
</g>
<g>
</g>
<g>
</g>
<g>
</g>
<g>
</g>
<g>
</g>
<g>
</g>
<g>
</g>
<g>
</g>
<g>
</g>
<g>
</g>
<g>
</g>
</svg>
