<?xml version="1.0" encoding="iso-8859-1"?>
<!-- Generator: Adobe Illustrator 19.0.0, SVG Export Plug-In . SVG Version: 6.00 Build 0)  -->
<svg version="1.1" id="Layer_1" xmlns="http://www.w3.org/2000/svg" xmlns:xlink="http://www.w3.org/1999/xlink" x="0px" y="0px"
	 viewBox="0 0 512 512" style="enable-background:new 0 0 512 512;" xml:space="preserve">
<g>
	<rect x="142.222" y="265.481" style="fill:#EAEAEA;" width="104.296" height="104.296"/>
	<rect x="18.963" y="142.222" style="fill:#EAEAEA;" width="104.296" height="104.296"/>
</g>
<g>
	<rect x="18.963" y="265.481" style="fill:#D8D8D8;" width="104.296" height="104.296"/>
	<rect x="265.481" y="265.481" style="fill:#D8D8D8;" width="104.296" height="104.296"/>
</g>
<rect x="388.741" y="265.481" style="fill:#EAEAEA;" width="104.296" height="104.296"/>
<g>
	<rect x="142.222" y="142.222" style="fill:#D8D8D8;" width="104.296" height="104.296"/>
	<rect x="388.741" y="142.222" style="fill:#D8D8D8;" width="104.296" height="104.296"/>
</g>
<g>
	<rect x="265.481" y="142.222" style="fill:#EAEAEA;" width="104.296" height="104.296"/>
	<rect x="18.963" y="388.741" style="fill:#EAEAEA;" width="104.296" height="104.296"/>
</g>
<g>
	<rect x="142.222" y="388.741" style="fill:#D8D8D8;" width="104.296" height="104.296"/>
	<rect x="388.741" y="388.741" style="fill:#D8D8D8;" width="104.296" height="104.296"/>
</g>
<g>
	<rect x="265.481" y="388.741" style="fill:#EAEAEA;" width="104.296" height="104.296"/>
	<rect x="142.222" y="18.963" style="fill:#EAEAEA;" width="104.296" height="104.296"/>
	<rect x="388.741" y="18.963" style="fill:#EAEAEA;" width="104.296" height="104.296"/>
</g>
<g>
	<rect x="265.481" y="18.963" style="fill:#D8D8D8;" width="104.296" height="104.296"/>
	<rect x="18.963" y="18.963" style="fill:#D8D8D8;" width="104.296" height="104.296"/>
</g>
<path style="fill:#314E55;" d="M502.519,0H379.259H256H132.741H9.481C4.241,0,0,4.245,0,9.481v123.259V256v123.259v123.259
	C0,507.755,4.241,512,9.481,512h123.259H256h123.259h123.259c5.241,0,9.481-4.245,9.481-9.481V379.259V256V132.741V9.481
	C512,4.245,507.759,0,502.519,0z M493.037,246.519H388.741V142.222h104.296V246.519z M369.778,246.519H265.481V142.222h104.296
	V246.519z M246.519,246.519H142.222V142.222h104.296V246.519z M123.259,246.519H18.963V142.222h104.296V246.519z M18.963,265.481
	h104.296v104.296H18.963V265.481z M142.222,265.481h104.296v104.296H142.222V265.481z M265.481,265.481h104.296v104.296H265.481
	V265.481z M388.741,265.481h104.296v104.296H388.741V265.481z M493.037,123.259H388.741V18.963h104.296V123.259z M369.778,123.259
	H265.481V18.963h104.296V123.259z M246.519,123.259H142.222V18.963h104.296V123.259z M18.963,18.963h104.296v104.296H18.963V18.963z
	 M18.963,388.741h104.296v104.296H18.963V388.741z M142.222,388.741h104.296v104.296H142.222V388.741z M265.481,388.741h104.296
	v104.296H265.481V388.741z M493.037,493.037H388.741V388.741h104.296V493.037z"/>
<g>
</g>
<g>
</g>
<g>
</g>
<g>
</g>
<g>
</g>
<g>
</g>
<g>
</g>
<g>
</g>
<g>
</g>
<g>
</g>
<g>
</g>
<g>
</g>
<g>
</g>
<g>
</g>
<g>
</g>
</svg>
