<?xml version="1.0" encoding="iso-8859-1"?>
<!-- Generator: Adobe Illustrator 19.0.0, SVG Export Plug-In . SVG Version: 6.00 Build 0)  -->
<svg version="1.1" id="Layer_1" xmlns="http://www.w3.org/2000/svg" xmlns:xlink="http://www.w3.org/1999/xlink" x="0px" y="0px"
	 viewBox="0 0 512 512" style="enable-background:new 0 0 512 512;" xml:space="preserve">
<rect x="347.774" y="24.151" style="fill:#D8D8D8;" width="144.906" height="222.189"/>
<rect x="19.321" y="24.151" style="fill:#EAEAEA;" width="144.906" height="222.189"/>
<rect x="19.321" y="265.66" style="fill:#D8D8D8;" width="144.906" height="222.189"/>
<rect x="347.774" y="265.66" style="fill:#EAEAEA;" width="144.906" height="222.189"/>
<polygon style="fill:#D8D8D8;" points="328.453,256 328.453,24.151 183.547,24.151 183.547,256 183.547,487.849 328.453,487.849 "/>
<path style="fill:#314E55;" d="M502.34,4.83H338.113H173.887H9.66C4.325,4.83,0,9.156,0,14.491V256v241.509
	c0,5.335,4.325,9.66,9.66,9.66h164.226h164.226H502.34c5.335,0,9.66-4.325,9.66-9.66V256V14.491C512,9.156,507.675,4.83,502.34,4.83
	z M492.679,246.34H347.774V24.151h144.906V246.34z M19.321,24.151h144.906V246.34H19.321V24.151z M19.321,265.66h144.906v222.189
	H19.321V265.66z M183.547,256V24.151h144.906V256v231.849H183.547V256z M492.679,487.849H347.774V265.66h144.906V487.849z"/>
<g>
</g>
<g>
</g>
<g>
</g>
<g>
</g>
<g>
</g>
<g>
</g>
<g>
</g>
<g>
</g>
<g>
</g>
<g>
</g>
<g>
</g>
<g>
</g>
<g>
</g>
<g>
</g>
<g>
</g>
</svg>
