<?xml version="1.0" encoding="iso-8859-1"?>
<!-- Generator: Adobe Illustrator 19.0.0, SVG Export Plug-In . SVG Version: 6.00 Build 0)  -->
<svg version="1.1" id="Layer_1" xmlns="http://www.w3.org/2000/svg" xmlns:xlink="http://www.w3.org/1999/xlink" x="0px" y="0px"
	 viewBox="0 0 512 512" style="enable-background:new 0 0 512 512;" xml:space="preserve">
<rect x="19.692" y="19.692" style="fill:#D8D8D8;" width="226.462" height="226.462"/>
<g>
	<rect x="19.692" y="265.846" style="fill:#EAEAEA;" width="226.462" height="226.462"/>
	<rect x="265.846" y="19.692" style="fill:#EAEAEA;" width="226.462" height="226.462"/>
</g>
<rect x="265.846" y="265.846" style="fill:#D8D8D8;" width="226.462" height="226.462"/>
<path style="fill:#314E55;" d="M502.154,0H256H9.846C4.409,0,0,4.409,0,9.846V256v246.154C0,507.591,4.409,512,9.846,512H256
	h246.154c5.438,0,9.846-4.409,9.846-9.846V256V9.846C512,4.409,507.591,0,502.154,0z M492.308,246.154H265.846V19.692h226.462
	V246.154z M19.692,19.692h226.462v226.462H19.692V19.692z M19.692,265.846h226.462v226.462H19.692V265.846z M492.308,492.308
	H265.846V265.846h226.462V492.308z"/>
<g>
</g>
<g>
</g>
<g>
</g>
<g>
</g>
<g>
</g>
<g>
</g>
<g>
</g>
<g>
</g>
<g>
</g>
<g>
</g>
<g>
</g>
<g>
</g>
<g>
</g>
<g>
</g>
<g>
</g>
</svg>
