<?xml version="1.0" encoding="iso-8859-1"?>
<!-- Generator: Adobe Illustrator 19.0.0, SVG Export Plug-In . SVG Version: 6.00 Build 0)  -->
<svg version="1.1" id="Layer_1" xmlns="http://www.w3.org/2000/svg" xmlns:xlink="http://www.w3.org/1999/xlink" x="0px" y="0px"
	 viewBox="0 0 512 512" style="enable-background:new 0 0 512 512;" xml:space="preserve">
<rect x="18.963" y="265.481" style="fill:#D8D8D8;" width="104.296" height="218.074"/>
<g>
	<polygon style="fill:#EAEAEA;" points="246.519,246.519 246.519,28.444 18.963,28.444 18.963,246.519 132.741,246.519 	"/>
	<rect x="142.222" y="265.481" style="fill:#EAEAEA;" width="104.296" height="218.074"/>
	<rect x="388.741" y="28.444" style="fill:#EAEAEA;" width="104.296" height="455.111"/>
</g>
<polygon style="fill:#D8D8D8;" points="369.778,28.444 265.481,28.444 265.481,256 265.481,483.556 369.778,483.556 "/>
<path style="fill:#314E55;" d="M502.519,9.481H379.259H256H9.481C4.241,9.481,0,13.727,0,18.963V256v237.037
	c0,5.236,4.241,9.481,9.481,9.481h123.259H256h123.259h123.259c5.241,0,9.481-4.245,9.481-9.481V18.963
	C512,13.727,507.759,9.481,502.519,9.481z M18.963,28.444h227.556v218.074H132.741H18.963V28.444z M18.963,265.481h104.296v218.074
	H18.963V265.481z M142.222,265.481h104.296v218.074H142.222V265.481z M265.481,256V28.444h104.296v455.111H265.481V256z
	 M493.037,483.556H388.741V28.444h104.296V483.556z"/>
<g>
</g>
<g>
</g>
<g>
</g>
<g>
</g>
<g>
</g>
<g>
</g>
<g>
</g>
<g>
</g>
<g>
</g>
<g>
</g>
<g>
</g>
<g>
</g>
<g>
</g>
<g>
</g>
<g>
</g>
</svg>
