<?xml version="1.0" encoding="iso-8859-1"?>
<!-- Generator: Adobe Illustrator 19.0.0, SVG Export Plug-In . SVG Version: 6.00 Build 0)  -->
<svg version="1.1" id="Layer_1" xmlns="http://www.w3.org/2000/svg" xmlns:xlink="http://www.w3.org/1999/xlink" x="0px" y="0px"
	 viewBox="0 0 512 512" style="enable-background:new 0 0 512 512;" xml:space="preserve">
<path style="fill:#E9E7D1;" d="M19.692,492.308h472.615V19.692H19.692V492.308z M68.923,68.923h374.154v19.692H68.923V68.923z
	 M68.923,157.538h216.615v19.692H68.923V157.538z M68.923,246.154h374.154v19.692H68.923V246.154z M68.923,334.769h216.615v19.692
	H68.923V334.769z M68.923,423.385h374.154v19.692H68.923V423.385z"/>
<g>
	<path style="fill:#314E55;" d="M502.154,0H9.846C4.409,0,0,4.409,0,9.846v492.308C0,507.591,4.409,512,9.846,512h492.308
		c5.438,0,9.846-4.409,9.846-9.846V9.846C512,4.409,507.591,0,502.154,0z M492.308,492.308H19.692V19.692h472.615V492.308z"/>
	<rect x="68.923" y="246.154" style="fill:#314E55;" width="374.154" height="19.692"/>
	<rect x="68.923" y="68.923" style="fill:#314E55;" width="374.154" height="19.692"/>
	<rect x="68.923" y="423.385" style="fill:#314E55;" width="374.154" height="19.692"/>
	<rect x="68.923" y="157.538" style="fill:#314E55;" width="216.615" height="19.692"/>
	<rect x="68.923" y="334.769" style="fill:#314E55;" width="216.615" height="19.692"/>
</g>
<g>
</g>
<g>
</g>
<g>
</g>
<g>
</g>
<g>
</g>
<g>
</g>
<g>
</g>
<g>
</g>
<g>
</g>
<g>
</g>
<g>
</g>
<g>
</g>
<g>
</g>
<g>
</g>
<g>
</g>
</svg>
