<?xml version="1.0" encoding="iso-8859-1"?>
<!-- Generator: Adobe Illustrator 19.0.0, SVG Export Plug-In . SVG Version: 6.00 Build 0)  -->
<svg version="1.1" id="Layer_1" xmlns="http://www.w3.org/2000/svg" xmlns:xlink="http://www.w3.org/1999/xlink" x="0px" y="0px"
	 viewBox="0 0 512 512" style="enable-background:new 0 0 512 512;" xml:space="preserve">
<g>
	<rect x="122.88" y="122.88" style="fill:#81A4E3;" width="327.68" height="81.92"/>
	<rect x="122.88" y="327.68" style="fill:#81A4E3;" width="204.8" height="81.92"/>
</g>
<g>
	<path style="fill:#314E55;" d="M460.8,102.4H112.64c-5.655,0-10.24,4.585-10.24,10.24v102.4c0,5.655,4.585,10.24,10.24,10.24H460.8
		c5.655,0,10.24-4.585,10.24-10.24v-102.4C471.04,106.985,466.455,102.4,460.8,102.4z M450.56,204.8H122.88v-81.92h327.68V204.8z"/>
	<path style="fill:#314E55;" d="M337.92,307.2H112.64c-5.655,0-10.24,4.585-10.24,10.24v102.4c0,5.655,4.585,10.24,10.24,10.24
		h225.28c5.655,0,10.24-4.585,10.24-10.24v-102.4C348.16,311.785,343.575,307.2,337.92,307.2z M327.68,409.6h-204.8v-81.92h204.8
		V409.6z"/>
	<rect x="40.96" style="fill:#314E55;" width="20.48" height="512"/>
</g>
<g>
</g>
<g>
</g>
<g>
</g>
<g>
</g>
<g>
</g>
<g>
</g>
<g>
</g>
<g>
</g>
<g>
</g>
<g>
</g>
<g>
</g>
<g>
</g>
<g>
</g>
<g>
</g>
<g>
</g>
</svg>
