<?xml version="1.0" encoding="iso-8859-1"?>
<!-- Generator: Adobe Illustrator 19.0.0, SVG Export Plug-In . SVG Version: 6.00 Build 0)  -->
<svg version="1.1" id="Layer_1" xmlns="http://www.w3.org/2000/svg" xmlns:xlink="http://www.w3.org/1999/xlink" x="0px" y="0px"
	 viewBox="0 0 512 512" style="enable-background:new 0 0 512 512;" xml:space="preserve">
<g>
	<polygon style="fill:#DBCF56;" points="100.595,415.198 69.731,415.198 60.193,385.845 50.655,415.198 19.791,415.198 
		44.761,433.341 35.223,462.694 60.193,444.553 85.163,462.694 75.625,433.341 	"/>
	<polygon style="fill:#DBCF56;" points="100.595,247.812 69.731,247.812 60.193,218.46 50.655,247.812 19.791,247.812 
		44.761,265.956 35.223,295.309 60.193,277.168 85.163,295.309 75.625,265.956 	"/>
	<polygon style="fill:#DBCF56;" points="100.595,81.851 69.731,81.851 60.193,52.499 50.655,81.851 19.791,81.851 44.761,99.995 
		35.223,129.348 60.193,111.207 85.163,129.348 75.625,99.995 	"/>
</g>
<g>
	<path style="fill:#314E55;" d="M111.433,67.152l-28.929-4.203l-12.93-26.207c-1.762-3.57-5.398-5.832-9.381-5.832
		c-3.978,0-7.614,2.262-9.376,5.832l-12.94,26.207L8.953,67.152c-3.937,0.572-7.21,3.335-8.441,7.119
		c-1.231,3.789-0.204,7.946,2.65,10.724L24.09,105.39l-4.938,28.806c-0.674,3.922,0.934,7.89,4.157,10.229
		c3.227,2.344,7.501,2.65,11.015,0.797l25.87-13.599l25.87,13.599c1.532,0.802,3.202,1.2,4.867,1.2c2.165,0,4.325-0.674,6.148-1.997
		c3.222-2.339,4.831-6.307,4.157-10.229l-4.938-28.806l20.927-20.396c2.855-2.778,3.881-6.935,2.65-10.724
		C118.643,70.487,115.37,67.724,111.433,67.152z M77.76,94.248c-2.467,2.405-3.595,5.867-3.008,9.258l2.288,13.339l-11.98-6.296
		c-1.522-0.802-3.197-1.2-4.867-1.2s-3.345,0.398-4.867,1.2l-11.98,6.296l2.288-13.339c0.587-3.391-0.541-6.853-3.008-9.258
		l-9.687-9.442l13.39-1.946c3.406-0.495,6.347-2.635,7.869-5.725l5.995-12.133l5.985,12.133c1.527,3.089,4.468,5.229,7.874,5.725
		l13.395,1.946L77.76,94.248z"/>
	<path style="fill:#314E55;" d="M111.433,234.485l-28.929-4.203l-12.93-26.207c-1.762-3.57-5.398-5.832-9.381-5.832
		c-3.978,0-7.614,2.262-9.376,5.832l-12.94,26.207l-28.924,4.203c-3.937,0.572-7.21,3.335-8.441,7.119
		c-1.231,3.789-0.204,7.946,2.65,10.724l20.927,20.396l-4.938,28.806c-0.674,3.922,0.934,7.89,4.157,10.228
		c3.227,2.344,7.501,2.645,11.015,0.797l25.87-13.599l25.87,13.599c1.532,0.802,3.202,1.2,4.867,1.2
		c2.165,0,4.325-0.674,6.148-1.997c3.222-2.339,4.831-6.307,4.157-10.228l-4.938-28.806l20.927-20.396
		c2.855-2.778,3.881-6.935,2.65-10.724C118.643,237.82,115.37,235.057,111.433,234.485z M77.76,261.581
		c-2.467,2.405-3.595,5.867-3.008,9.258l2.288,13.339l-11.98-6.296c-1.522-0.802-3.197-1.2-4.867-1.2s-3.345,0.398-4.867,1.2
		l-11.98,6.296l2.288-13.339c0.587-3.391-0.541-6.853-3.008-9.258l-9.687-9.442l13.39-1.946c3.406-0.495,6.347-2.635,7.869-5.725
		l5.995-12.133l5.985,12.133c1.527,3.089,4.468,5.229,7.874,5.725l13.395,1.946L77.76,261.581z"/>
	<path style="fill:#314E55;" d="M111.433,401.818l-28.929-4.203l-12.93-26.207c-1.762-3.57-5.398-5.832-9.381-5.832
		c-3.978,0-7.614,2.262-9.376,5.832l-12.94,26.207l-28.924,4.203c-3.937,0.572-7.21,3.335-8.441,7.119
		c-1.231,3.789-0.204,7.946,2.65,10.724l20.927,20.396l-4.938,28.806c-0.674,3.922,0.934,7.89,4.157,10.228
		c3.227,2.344,7.501,2.645,11.015,0.797l25.87-13.599l25.87,13.599c1.532,0.802,3.202,1.2,4.867,1.2
		c2.165,0,4.325-0.674,6.148-1.997c3.222-2.339,4.831-6.307,4.157-10.228l-4.938-28.806l20.927-20.396
		c2.855-2.778,3.881-6.935,2.65-10.724C118.643,405.153,115.37,402.39,111.433,401.818z M77.76,428.914
		c-2.467,2.405-3.595,5.867-3.008,9.258l2.288,13.339l-11.98-6.296c-1.522-0.802-3.197-1.2-4.867-1.2s-3.345,0.398-4.867,1.2
		l-11.98,6.296l2.288-13.339c0.587-3.391-0.541-6.853-3.008-9.258l-9.687-9.442l13.39-1.945c3.406-0.495,6.347-2.635,7.869-5.725
		l5.995-12.133l5.985,12.133c1.527,3.089,4.468,5.229,7.874,5.725l13.395,1.945L77.76,428.914z"/>
	<path style="fill:#314E55;" d="M164.776,104.119h336.765c5.776,0,10.458-4.683,10.458-10.458c0-5.776-4.683-10.458-10.458-10.458
		H164.776c-5.776,0-10.458,4.683-10.458,10.458C154.318,99.436,159.001,104.119,164.776,104.119z"/>
	<path style="fill:#314E55;" d="M501.542,250.535H164.776c-5.776,0-10.458,4.683-10.458,10.458s4.683,10.458,10.458,10.458h336.765
		c5.776,0,10.458-4.683,10.458-10.458S507.317,250.535,501.542,250.535z"/>
	<path style="fill:#314E55;" d="M501.542,417.868H164.776c-5.776,0-10.458,4.683-10.458,10.458s4.683,10.458,10.458,10.458h336.765
		c5.776,0,10.458-4.683,10.458-10.458S507.317,417.868,501.542,417.868z"/>
</g>
<g>
</g>
<g>
</g>
<g>
</g>
<g>
</g>
<g>
</g>
<g>
</g>
<g>
</g>
<g>
</g>
<g>
</g>
<g>
</g>
<g>
</g>
<g>
</g>
<g>
</g>
<g>
</g>
<g>
</g>
</svg>
