<?xml version="1.0" encoding="iso-8859-1"?>
<!-- Generator: Adobe Illustrator 19.0.0, SVG Export Plug-In . SVG Version: 6.00 Build 0)  -->
<svg version="1.1" id="Layer_1" xmlns="http://www.w3.org/2000/svg" xmlns:xlink="http://www.w3.org/1999/xlink" x="0px" y="0px"
	 viewBox="0 0 511.993 511.993" style="enable-background:new 0 0 511.993 511.993;" xml:space="preserve">
<g>
	<rect x="21.78" y="430.237" style="fill:#5ECB66;" width="65.34" height="43.56"/>
	<rect x="21.78" y="234.217" style="fill:#5ECB66;" width="65.34" height="43.56"/>
	<rect x="21.78" y="38.197" style="fill:#5ECB66;" width="65.34" height="43.56"/>
</g>
<g>
	<path style="fill:#314E55;" d="M98.01,16.417H10.89C4.871,16.417,0,21.293,0,27.307v65.34c0,6.014,4.871,10.89,10.89,10.89h87.12
		c6.019,0,10.89-4.876,10.89-10.89v-65.34C108.9,21.293,104.029,16.417,98.01,16.417z M87.12,81.757H21.78v-43.56h65.34V81.757z"/>
	<path style="fill:#314E55;" d="M98.01,212.437H10.89c-6.019,0-10.89,4.876-10.89,10.89v65.34c0,6.014,4.871,10.89,10.89,10.89
		h87.12c6.019,0,10.89-4.876,10.89-10.89v-65.34C108.9,217.313,104.029,212.437,98.01,212.437z M87.12,277.777H21.78v-43.56h65.34
		V277.777z"/>
	<path style="fill:#314E55;" d="M98.01,408.457H10.89c-6.019,0-10.89,4.876-10.89,10.89v65.34c0,6.014,4.871,10.89,10.89,10.89
		h87.12c6.019,0,10.89-4.876,10.89-10.89v-65.34C108.9,413.333,104.029,408.457,98.01,408.457z M87.12,473.797H21.78v-43.56h65.34
		V473.797z"/>
	<rect x="141.57" y="49.087" style="fill:#314E55;" width="370.423" height="21.78"/>
	<rect x="141.57" y="245.107" style="fill:#314E55;" width="370.423" height="21.78"/>
	<rect x="141.57" y="441.127" style="fill:#314E55;" width="370.423" height="21.78"/>
</g>
<g>
</g>
<g>
</g>
<g>
</g>
<g>
</g>
<g>
</g>
<g>
</g>
<g>
</g>
<g>
</g>
<g>
</g>
<g>
</g>
<g>
</g>
<g>
</g>
<g>
</g>
<g>
</g>
<g>
</g>
</svg>
