<?xml version="1.0" encoding="iso-8859-1"?>
<!-- Generator: Adobe Illustrator 19.0.0, SVG Export Plug-In . SVG Version: 6.00 Build 0)  -->
<svg version="1.1" id="Layer_1" xmlns="http://www.w3.org/2000/svg" xmlns:xlink="http://www.w3.org/1999/xlink" x="0px" y="0px"
	 viewBox="0 0 512 512" style="enable-background:new 0 0 512 512;" xml:space="preserve">
<g>
	<path style="fill:#E4AD40;" d="M376.046,381.722H134.769c-14.152,0-25.732,11.579-25.732,25.731
		c0,14.153,11.579,25.732,25.732,25.732h241.278c14.152,0,25.732-11.579,25.732-25.732
		C401.778,393.301,390.199,381.722,376.046,381.722z"/>
	<path style="fill:#E4AD40;" d="M376.046,230.268H134.769c-14.152,0-25.732,11.579-25.732,25.732s11.579,25.732,25.732,25.732
		h241.278c14.152,0,25.731-11.579,25.731-25.732S390.199,230.268,376.046,230.268z"/>
	<path style="fill:#E4AD40;" d="M376.046,78.565H134.769c-14.152,0-25.732,11.579-25.732,25.732s11.579,25.732,25.732,25.732
		h241.278c14.152,0,25.731-11.579,25.731-25.732S390.199,78.565,376.046,78.565z"/>
</g>
<g>
	<path style="fill:#314E55;" d="M379.296,66.37H132.704c-20.894,0-37.889,17.014-37.889,37.926s16.995,37.926,37.889,37.926h246.592
		c20.894,0,37.889-17.014,37.889-37.926S400.19,66.37,379.296,66.37z M379.296,123.259H132.704
		c-10.435,0-18.926-8.505-18.926-18.963s8.491-18.963,18.926-18.963h246.592c10.435,0,18.926,8.505,18.926,18.963
		S389.732,123.259,379.296,123.259z"/>
	<path style="fill:#314E55;" d="M445.63,113.778h56.889c5.236,0,9.481-4.245,9.481-9.481c0-5.236-4.245-9.481-9.481-9.481H445.63
		c-5.236,0-9.481,4.245-9.481,9.481C436.148,109.532,440.393,113.778,445.63,113.778z"/>
	<path style="fill:#314E55;" d="M66.37,94.815H9.481C4.245,94.815,0,99.06,0,104.296c0,5.236,4.245,9.481,9.481,9.481H66.37
		c5.236,0,9.481-4.245,9.481-9.481C75.852,99.06,71.607,94.815,66.37,94.815z"/>
	<path style="fill:#314E55;" d="M379.296,218.074H132.704c-20.894,0-37.889,17.014-37.889,37.926s16.995,37.926,37.889,37.926
		h246.592c20.894,0,37.889-17.014,37.889-37.926S400.19,218.074,379.296,218.074z M379.296,274.963H132.704
		c-10.435,0-18.926-8.505-18.926-18.963s8.491-18.963,18.926-18.963h246.592c10.435,0,18.926,8.505,18.926,18.963
		S389.732,274.963,379.296,274.963z"/>
	<path style="fill:#314E55;" d="M379.296,369.778H132.704c-20.894,0-37.889,17.014-37.889,37.926s16.995,37.926,37.889,37.926
		h246.592c20.894,0,37.889-17.014,37.889-37.926S400.19,369.778,379.296,369.778z M379.296,426.667H132.704
		c-10.435,0-18.926-8.505-18.926-18.963c0-10.458,8.491-18.963,18.926-18.963h246.592c10.435,0,18.926,8.505,18.926,18.963
		C398.222,418.162,389.732,426.667,379.296,426.667z"/>
	<path style="fill:#314E55;" d="M502.519,246.519H445.63c-5.236,0-9.481,4.245-9.481,9.481s4.245,9.481,9.481,9.481h56.889
		c5.236,0,9.481-4.245,9.481-9.481S507.755,246.519,502.519,246.519z"/>
	<path style="fill:#314E55;" d="M502.519,398.222H445.63c-5.236,0-9.481,4.245-9.481,9.481s4.245,9.481,9.481,9.481h56.889
		c5.236,0,9.481-4.245,9.481-9.481S507.755,398.222,502.519,398.222z"/>
	<path style="fill:#314E55;" d="M66.37,246.519H9.481C4.245,246.519,0,250.764,0,256s4.245,9.481,9.481,9.481H66.37
		c5.236,0,9.481-4.245,9.481-9.481S71.607,246.519,66.37,246.519z"/>
	<path style="fill:#314E55;" d="M66.37,398.222H9.481c-5.236,0-9.481,4.245-9.481,9.481s4.245,9.481,9.481,9.481H66.37
		c5.236,0,9.481-4.245,9.481-9.481S71.607,398.222,66.37,398.222z"/>
</g>
<g>
</g>
<g>
</g>
<g>
</g>
<g>
</g>
<g>
</g>
<g>
</g>
<g>
</g>
<g>
</g>
<g>
</g>
<g>
</g>
<g>
</g>
<g>
</g>
<g>
</g>
<g>
</g>
<g>
</g>
</svg>
