<?xml version="1.0" encoding="iso-8859-1"?>
<!-- Generator: Adobe Illustrator 19.0.0, SVG Export Plug-In . SVG Version: 6.00 Build 0)  -->
<svg version="1.1" id="Layer_1" xmlns="http://www.w3.org/2000/svg" xmlns:xlink="http://www.w3.org/1999/xlink" x="0px" y="0px"
	 viewBox="0 0 512 512" style="enable-background:new 0 0 512 512;" xml:space="preserve">
<rect x="201.143" y="310.857" style="fill:#D8D8D8;" width="109.714" height="18.286"/>
<path style="fill:#81A4E3;" d="M402.286,155.429H109.714v210.286h292.571V155.429z M329.143,338.286
	c0,5.053-4.089,9.143-9.143,9.143H192c-5.053,0-9.143-4.089-9.143-9.143v-36.571c0-5.053,4.089-9.143,9.143-9.143h128
	c5.054,0,9.143,4.089,9.143,9.143V338.286z M384,265.143c0,5.053-4.089,9.143-9.143,9.143H137.143c-5.053,0-9.143-4.089-9.143-9.143
	v-45.714c0-5.053,4.089-9.143,9.143-9.143h237.714c5.054,0,9.143,4.089,9.143,9.143V265.143z M393.143,182.857
	c0,5.053-4.089,9.143-9.143,9.143h-9.143c-5.053,0-9.143-4.089-9.143-9.143v-9.143c0-5.053,4.089-9.143,9.143-9.143H384
	c5.053,0,9.143,4.089,9.143,9.143V182.857z"/>
<rect x="146.286" y="228.571" style="fill:#D8D8D8;" width="219.429" height="27.429"/>
<path style="fill:#EAEAEA;" d="M18.286,429.714h475.429V82.286H18.286V429.714z M91.429,146.286c0-5.053,4.089-9.143,9.143-9.143
	h310.857c5.053,0,9.143,4.089,9.143,9.143v228.571c0,5.054-4.089,9.143-9.143,9.143H100.571c-5.053,0-9.143-4.089-9.143-9.143
	V146.286z"/>
<g>
	<path style="fill:#314E55;" d="M502.857,64H9.143C4.089,64,0,68.089,0,73.143v365.714C0,443.911,4.089,448,9.143,448h493.714
		c5.053,0,9.143-4.089,9.143-9.143V73.143C512,68.089,507.911,64,502.857,64z M493.714,429.714H18.286V82.286h475.429V429.714z"/>
	<path style="fill:#314E55;" d="M100.571,384h310.857c5.053,0,9.143-4.089,9.143-9.143V146.286c0-5.053-4.089-9.143-9.143-9.143
		H100.571c-5.053,0-9.143,4.089-9.143,9.143v228.571C91.429,379.911,95.518,384,100.571,384z M109.714,155.429h292.571v210.286
		H109.714V155.429z"/>
	<path style="fill:#314E55;" d="M320,292.571H192c-5.053,0-9.143,4.089-9.143,9.143v36.571c0,5.053,4.089,9.143,9.143,9.143h128
		c5.054,0,9.143-4.089,9.143-9.143v-36.571C329.143,296.661,325.054,292.571,320,292.571z M310.857,329.143H201.143v-18.286h109.714
		V329.143z"/>
	<path style="fill:#314E55;" d="M374.857,210.286H137.143c-5.053,0-9.143,4.089-9.143,9.143v45.714c0,5.053,4.089,9.143,9.143,9.143
		h237.714c5.054,0,9.143-4.089,9.143-9.143v-45.714C384,214.375,379.911,210.286,374.857,210.286z M365.714,256H146.286v-27.429
		h219.429V256z"/>
	<path style="fill:#314E55;" d="M384,164.571h-9.143c-5.053,0-9.143,4.089-9.143,9.143v9.143c0,5.053,4.089,9.143,9.143,9.143H384
		c5.053,0,9.143-4.089,9.143-9.143v-9.143C393.143,168.661,389.054,164.571,384,164.571z"/>
</g>
<g>
</g>
<g>
</g>
<g>
</g>
<g>
</g>
<g>
</g>
<g>
</g>
<g>
</g>
<g>
</g>
<g>
</g>
<g>
</g>
<g>
</g>
<g>
</g>
<g>
</g>
<g>
</g>
<g>
</g>
</svg>
