<?xml version="1.0" encoding="iso-8859-1"?>
<!-- Generator: Adobe Illustrator 19.0.0, SVG Export Plug-In . SVG Version: 6.00 Build 0)  -->
<svg version="1.1" id="Layer_1" xmlns="http://www.w3.org/2000/svg" xmlns:xlink="http://www.w3.org/1999/xlink" x="0px" y="0px"
	 viewBox="0 0 512 512" style="enable-background:new 0 0 512 512;" xml:space="preserve">
<g>
	<rect x="64" y="155.429" style="fill:#D8D8D8;" width="100.571" height="201.143"/>
	<path style="fill:#D8D8D8;" d="M256,219.429c10.08,0,18.286-8.205,18.286-18.286S266.08,182.857,256,182.857
		c-10.08,0-18.286,8.205-18.286,18.286S245.92,219.429,256,219.429z"/>
	<rect x="347.429" y="155.429" style="fill:#D8D8D8;" width="100.571" height="201.143"/>
</g>
<path style="fill:#EA86A5;" d="M182.857,384h146.286v-18.286V146.286V128H182.857v18.286v219.429V384z M292.571,338.286h-73.143V320
	h73.143V338.286z M256,164.571c20.17,0,36.571,16.402,36.571,36.571S276.17,237.714,256,237.714s-36.571-16.402-36.571-36.571
	S235.83,164.571,256,164.571z M201.143,292.571h109.714v18.286H201.143V292.571z"/>
<path style="fill:#EAEAEA;" d="M18.286,429.714h475.429V82.286H18.286V429.714z M45.714,146.286c0-5.053,4.089-9.143,9.143-9.143
	h109.714v-18.286c0-5.053,4.089-9.143,9.143-9.143h164.571c5.053,0,9.143,4.089,9.143,9.143v18.286h109.714
	c5.053,0,9.143,4.089,9.143,9.143v219.429c0,5.053-4.089,9.143-9.143,9.143H347.429v18.286c0,5.053-4.089,9.143-9.143,9.143H173.714
	c-5.053,0-9.143-4.089-9.143-9.143v-18.286H54.857c-5.053,0-9.143-4.089-9.143-9.143V146.286z"/>
<g>
	<path style="fill:#314E55;" d="M502.857,64H9.143C4.089,64,0,68.089,0,73.143v365.714C0,443.911,4.089,448,9.143,448h493.714
		c5.053,0,9.143-4.089,9.143-9.143V73.143C512,68.089,507.911,64,502.857,64z M493.714,429.714H18.286V82.286h475.429V429.714z"/>
	<path style="fill:#314E55;" d="M54.857,374.857h109.714v18.286c0,5.053,4.089,9.143,9.143,9.143h164.571
		c5.053,0,9.143-4.089,9.143-9.143v-18.286h109.714c5.053,0,9.143-4.089,9.143-9.143V146.286c0-5.053-4.089-9.143-9.143-9.143
		H347.429v-18.286c0-5.053-4.089-9.143-9.143-9.143H173.714c-5.053,0-9.143,4.089-9.143,9.143v18.286H54.857
		c-5.053,0-9.143,4.089-9.143,9.143v219.429C45.714,370.768,49.804,374.857,54.857,374.857z M448,155.429v201.143H347.429V155.429
		H448z M182.857,128h146.286v18.286v219.429V384H182.857v-18.286V146.286V128z M64,155.429h100.571v201.143H64V155.429z"/>
	<path style="fill:#314E55;" d="M256,237.714c20.17,0,36.571-16.402,36.571-36.571S276.17,164.571,256,164.571
		s-36.571,16.402-36.571,36.571S235.83,237.714,256,237.714z M256,182.857c10.08,0,18.286,8.205,18.286,18.286
		S266.08,219.429,256,219.429c-10.08,0-18.286-8.205-18.286-18.286S245.92,182.857,256,182.857z"/>
	<rect x="201.143" y="292.571" style="fill:#314E55;" width="109.714" height="18.286"/>
	<rect x="219.429" y="320" style="fill:#314E55;" width="73.143" height="18.286"/>
</g>
<g>
</g>
<g>
</g>
<g>
</g>
<g>
</g>
<g>
</g>
<g>
</g>
<g>
</g>
<g>
</g>
<g>
</g>
<g>
</g>
<g>
</g>
<g>
</g>
<g>
</g>
<g>
</g>
<g>
</g>
</svg>
