<?xml version="1.0" encoding="iso-8859-1"?>
<!-- Generator: Adobe Illustrator 19.0.0, SVG Export Plug-In . SVG Version: 6.00 Build 0)  -->
<svg version="1.1" id="Layer_1" xmlns="http://www.w3.org/2000/svg" xmlns:xlink="http://www.w3.org/1999/xlink" x="0px" y="0px"
	 viewBox="0 0 512 512" style="enable-background:new 0 0 512 512;" xml:space="preserve">
<g>
	<polygon style="fill:#E4AD40;" points="18.963,400.297 69.019,400.297 100.625,305.482 18.963,305.482 	"/>
	<polygon style="fill:#E4AD40;" points="18.963,286.519 113.778,286.519 123.259,286.519 123.259,210.667 18.963,210.667 	"/>
	<path style="fill:#E4AD40;" d="M469.333,220.149H445.63v66.37h23.704c13.07,0,23.704-10.657,23.704-23.759v-18.852
		C493.037,230.806,482.403,220.149,469.333,220.149z"/>
</g>
<path style="fill:#5ECB66;" d="M426.667,115.871c0-1.842-0.463-3.305-1.204-3.833c-0.333-0.232-0.829-0.352-1.431-0.352
	c-0.722,0-1.597,0.167-2.528,0.5L191.69,194.26c-6.148,2.204-11.542,9.907-11.542,16.491v75.685c0,6.472,5.5,14.333,11.542,16.491
	l229.815,82.074c1.699,0.611,3.208,0.648,3.949,0.148c0.745-0.528,1.213-2,1.213-3.833v-85.315v-85.333L426.667,115.871
	L426.667,115.871z"/>
<g>
	<path style="fill:#314E55;" d="M469.333,201.186H445.63v-85.315c0-8.148-3.37-15.195-9.241-19.333
		c-5.875-4.13-13.62-4.935-21.264-2.204l-229.819,82.074c-13.75,4.917-24.12,19.685-24.12,34.343v75.685
		c0,14.426,10.597,29.518,24.125,34.343l229.81,82.074c2.986,1.065,5.986,1.593,8.884,1.593c4.523,0,8.792-1.278,12.366-3.796
		c5.884-4.148,9.259-11.194,9.259-19.333v-75.834h23.704c23.528,0,42.667-19.167,42.667-42.722v-18.852
		C512,220.353,492.861,201.186,469.333,201.186z M426.667,381.316c0,1.833-0.468,3.305-1.213,3.833
		c-0.741,0.5-2.25,0.463-3.949-0.148L191.69,302.927c-6.042-2.158-11.542-10.019-11.542-16.491v-75.685
		c0-6.583,5.394-14.287,11.542-16.491l229.815-82.074c0.931-0.333,1.806-0.5,2.528-0.5c0.602,0,1.097,0.12,1.431,0.352
		c0.741,0.528,1.204,1.991,1.204,3.833v94.796v85.333V381.316z M493.037,262.76c0,13.102-10.634,23.759-23.704,23.759H445.63v-66.37
		h23.704c13.07,0,23.704,10.657,23.704,23.759V262.76z"/>
	<path style="fill:#314E55;" d="M132.741,191.705H9.481c-5.236,0-9.481,4.241-9.481,9.481v94.815v113.778
		c0,5.241,4.245,9.482,9.481,9.482h66.37c4.083,0,7.704-2.611,8.995-6.482l35.766-107.296h12.128c5.236,0,9.481-4.241,9.481-9.481
		v-94.815C142.222,195.945,137.977,191.705,132.741,191.705z M69.019,400.297H18.963v-94.815h81.662L69.019,400.297z
		 M123.259,286.519h-9.481H18.963v-75.852h104.296V286.519z"/>
</g>
<g>
</g>
<g>
</g>
<g>
</g>
<g>
</g>
<g>
</g>
<g>
</g>
<g>
</g>
<g>
</g>
<g>
</g>
<g>
</g>
<g>
</g>
<g>
</g>
<g>
</g>
<g>
</g>
<g>
</g>
</svg>
