<?xml version="1.0" encoding="iso-8859-1"?>
<!-- Generator: Adobe Illustrator 19.0.0, SVG Export Plug-In . SVG Version: 6.00 Build 0)  -->
<svg version="1.1" id="Layer_1" xmlns="http://www.w3.org/2000/svg" xmlns:xlink="http://www.w3.org/1999/xlink" x="0px" y="0px"
	 viewBox="0 0 512 512" style="enable-background:new 0 0 512 512;" xml:space="preserve">
<g>
	<path style="fill:#C59981;" d="M468.308,73.846H36.923c-13.2,0-24,10.8-24,24s10.8,24,24,24h431.385c13.2,0,24-10.8,24-24
		S481.508,73.846,468.308,73.846z"/>
	<path style="fill:#C59981;" d="M468.308,232H36.923c-13.2,0-24,10.8-24,24c0,13.2,10.8,24,24,24h431.385c13.2,0,24-10.8,24-24
		C492.308,242.801,481.508,232,468.308,232z"/>
	<path style="fill:#C59981;" d="M474.443,385.231H37.247c-13.378,0-24.323,10.946-24.323,24.323
		c0,13.377,10.945,24.323,24.323,24.323h437.197c13.378,0,24.323-10.946,24.323-24.323
		C498.767,396.177,487.821,385.231,474.443,385.231z"/>
</g>
<g>
	<path style="fill:#314E55;" d="M39.351,137.846h433.298c21.697,0,39.351-17.668,39.351-39.385s-17.654-39.385-39.351-39.385H39.351
		C17.654,59.077,0,76.745,0,98.462S17.654,137.846,39.351,137.846z M39.351,78.769h433.298c10.842,0,19.659,8.832,19.659,19.692
		s-8.817,19.692-19.659,19.692H39.351c-10.841,0-19.659-8.832-19.659-19.692S28.51,78.769,39.351,78.769z"/>
	<path style="fill:#314E55;" d="M472.649,216.615H39.351C17.654,216.615,0,234.284,0,256c0,21.716,17.654,39.385,39.351,39.385
		h433.298C494.346,295.385,512,277.716,512,256C512,234.284,494.346,216.615,472.649,216.615z M472.649,275.692H39.351
		c-10.841,0-19.659-8.832-19.659-19.692c0-10.861,8.817-19.692,19.659-19.692h433.298c10.842,0,19.659,8.832,19.659,19.692
		C492.308,266.861,483.49,275.692,472.649,275.692z"/>
	<path style="fill:#314E55;" d="M472.649,374.154H39.351C17.654,374.154,0,391.822,0,413.538s17.654,39.385,39.351,39.385h433.298
		c21.697,0,39.351-17.668,39.351-39.385S494.346,374.154,472.649,374.154z M472.649,433.231H39.351
		c-10.841,0-19.659-8.832-19.659-19.692s8.817-19.692,19.659-19.692h433.298c10.841,0,19.659,8.832,19.659,19.692
		S483.49,433.231,472.649,433.231z"/>
</g>
<g>
</g>
<g>
</g>
<g>
</g>
<g>
</g>
<g>
</g>
<g>
</g>
<g>
</g>
<g>
</g>
<g>
</g>
<g>
</g>
<g>
</g>
<g>
</g>
<g>
</g>
<g>
</g>
<g>
</g>
</svg>
