<?xml version="1.0" encoding="iso-8859-1"?>
<!-- Generator: Adobe Illustrator 19.0.0, SVG Export Plug-In . SVG Version: 6.00 Build 0)  -->
<svg version="1.1" id="Layer_1" xmlns="http://www.w3.org/2000/svg" xmlns:xlink="http://www.w3.org/1999/xlink" x="0px" y="0px"
	 viewBox="0 0 512 512" style="enable-background:new 0 0 512 512;" xml:space="preserve">
<rect x="20.48" y="189.44" style="fill:#F28544;" width="471.04" height="61.44"/>
<rect x="20.48" y="343.04" style="fill:#E65F58;" width="471.04" height="102.4"/>
<rect x="20.48" y="66.56" style="fill:#E4AD40;" width="471.04" height="30.72"/>
<g>
	<path style="fill:#314E55;" d="M501.76,46.08H10.24C4.585,46.08,0,50.665,0,56.32v51.2c0,5.655,4.585,10.24,10.24,10.24h491.52
		c5.655,0,10.24-4.585,10.24-10.24v-51.2C512,50.665,507.415,46.08,501.76,46.08z M491.52,97.28H20.48V66.56h471.04V97.28z"/>
	<path style="fill:#314E55;" d="M501.76,168.96H10.24C4.585,168.96,0,173.545,0,179.2v81.92c0,5.655,4.585,10.24,10.24,10.24h491.52
		c5.655,0,10.24-4.585,10.24-10.24V179.2C512,173.545,507.415,168.96,501.76,168.96z M491.52,250.88H20.48v-61.44h471.04V250.88z"/>
	<path style="fill:#314E55;" d="M501.76,322.56H10.24C4.585,322.56,0,327.145,0,332.8v122.88c0,5.655,4.585,10.24,10.24,10.24
		h491.52c5.655,0,10.24-4.585,10.24-10.24V332.8C512,327.145,507.415,322.56,501.76,322.56z M491.52,445.44H20.48v-102.4h471.04
		V445.44z"/>
</g>
<g>
</g>
<g>
</g>
<g>
</g>
<g>
</g>
<g>
</g>
<g>
</g>
<g>
</g>
<g>
</g>
<g>
</g>
<g>
</g>
<g>
</g>
<g>
</g>
<g>
</g>
<g>
</g>
<g>
</g>
</svg>
