<?xml version="1.0" encoding="iso-8859-1"?>
<!-- Generator: Adobe Illustrator 19.0.0, SVG Export Plug-In . SVG Version: 6.00 Build 0)  -->
<svg version="1.1" id="Layer_1" xmlns="http://www.w3.org/2000/svg" xmlns:xlink="http://www.w3.org/1999/xlink" x="0px" y="0px"
	 viewBox="0 0 512 512" style="enable-background:new 0 0 512 512;" xml:space="preserve">
<g>
	<path style="fill:#81A4E3;" d="M491.922,151.583c-17.166,1.489-52.648,4.024-95.373,4.024c-12.974,0-27.966-2.004-44.173-5.088
		c-0.01,22.782,2.256,44.596,8.453,61.946c9.673,27.088,16.292,55.914,20.359,83.782c44.092,0.711,89.164,11.072,110.735,16.779
		L491.922,151.583L491.922,151.583z"/>
	<path style="fill:#81A4E3;" d="M308.157,319.48c15.294-9.396,31.118-18.936,52.977-22.121
		c-3.921-25.962-10.168-52.804-19.218-78.138c-7.407-20.74-9.871-46.522-9.602-72.882c-15.924-3.608-32.702-7.904-49.903-12.333
		c-44.168-11.366-89.738-23.047-124.705-23.492c-8.157,34.074-11.013,71.381,2.078,101.305
		c21.07,48.157,35.233,93.764,42.104,134.056c6.475,0.299,12.831,0.478,18.974,0.478
		C264.397,346.353,286.647,332.686,308.157,319.48z"/>
	<path style="fill:#81A4E3;" d="M141.392,219.868c-14.377-32.862-12.467-72.083-4.678-107.984
		c-51.448,6.966-102.242,39.192-116.636,48.971v156.314c14.756,3.554,91.694,21.536,161.186,27.358
		C174.402,307.113,161.048,264.801,141.392,219.868z"/>
	<path style="fill:#81A4E3;" d="M287.417,114.564c15.701,4.042,31.076,7.997,45.621,11.368
		c2.544-43.571,11.024-85.532,15.646-105.853H191.77c-5.591,10.865-18.722,37.98-28.643,70.559
		C199.623,92.07,244.156,103.428,287.417,114.564z"/>
	<path style="fill:#81A4E3;" d="M186.626,491.922h180.129c-5.561-16.657-12.159-45.722-5.102-77.471
		c5.107-22.985,6.24-58.315,2.062-97.2c-17.606,2.628-30.562,10.441-45.047,19.337c-22.779,13.99-48.593,29.843-97.804,29.843
		c-5.279,0-10.682-0.113-16.172-0.321c2.086,18.625,2.612,36.024,1.064,51.517C202.503,450.154,193.259,476.474,186.626,491.922z"/>
	<path style="fill:#81A4E3;" d="M141.94,90.971c8.465-29.757,19.842-55.511,27.324-70.892H20.078v116.785
		C44.311,121.703,92.662,95.331,141.94,90.971z"/>
	<path style="fill:#81A4E3;" d="M185.774,415.628c1.51-15.095,0.865-32.24-1.396-50.696c-67.147-5.056-140.865-21.566-164.3-27.118
		v154.108h144.45C169.893,480.851,182.102,452.358,185.774,415.628z"/>
	<path style="fill:#81A4E3;" d="M383.696,316.38c4.251,40.846,2.971,78.059-2.446,102.424c-7.094,31.939,2.204,61.299,6.85,73.118
		h103.822V333.851C474.63,329.101,428.286,317.559,383.696,316.38z"/>
	<path style="fill:#81A4E3;" d="M352.934,130.186c16.322,3.228,31.205,5.343,43.615,5.343c43.565,0,79.429-2.679,95.373-4.098
		V20.078H369.319C365.222,37.687,355.402,83.794,352.934,130.186z"/>
</g>
<path style="fill:#314E55;" d="M501.961,0H10.039C4.495,0,0,4.495,0,10.039v491.922C0,507.51,4.495,512,10.039,512h491.922
	c5.544,0,10.039-4.49,10.039-10.039V10.039C512,4.495,507.505,0,501.961,0z M204.691,366.11c5.49,0.208,10.893,0.321,16.172,0.321
	c49.211,0,75.025-15.853,97.804-29.843c14.485-8.896,27.441-16.71,45.047-19.337c4.178,38.885,3.045,74.214-2.062,97.2
	c-7.057,31.749-0.458,60.814,5.102,77.471H186.626c6.633-15.447,15.878-41.767,19.129-74.294
	C207.303,402.135,206.777,384.735,204.691,366.11z M20.078,160.854c14.394-9.778,65.188-42.005,116.636-48.971
	c-7.79,35.901-9.699,75.122,4.678,107.984c19.656,44.934,33.01,87.245,39.873,124.658c-69.493-5.822-146.43-23.804-161.186-27.358
	V160.854z M348.684,20.078c-4.622,20.321-13.102,62.282-15.646,105.853c-14.545-3.37-29.92-7.326-45.621-11.368
	c-43.26-11.136-87.794-22.494-124.29-23.926c9.922-32.579,23.052-59.694,28.643-70.559H348.684z M159.784,211.819
	c-13.091-29.924-10.235-67.232-2.078-101.305c34.968,0.445,80.537,12.125,124.705,23.492c17.201,4.429,33.979,8.726,49.903,12.333
	c-0.269,26.36,2.195,52.142,9.602,72.882c9.049,25.334,15.296,52.177,19.218,78.138c-21.86,3.185-37.683,12.725-52.977,22.121
	c-21.51,13.206-43.76,26.872-87.294,26.872c-6.143,0-12.499-0.179-18.974-0.478C195.017,305.582,180.854,259.976,159.784,211.819z
	 M360.828,212.466c-6.197-17.351-8.463-39.164-8.453-61.946c16.208,3.085,31.2,5.088,44.173,5.088
	c42.725,0,78.207-2.536,95.373-4.024v161.444c-21.571-5.707-66.642-16.069-110.735-16.779
	C377.12,268.38,370.501,239.554,360.828,212.466z M491.922,131.431c-15.944,1.419-51.808,4.098-95.373,4.098
	c-12.41,0-27.294-2.115-43.615-5.343c2.468-46.392,12.288-92.499,16.385-110.108h122.603V131.431z M169.265,20.078
	c-7.483,15.381-18.859,41.135-27.324,70.892c-49.278,4.36-97.63,30.733-121.862,45.893V20.078H169.265z M20.078,337.814
	c23.435,5.551,97.153,22.061,164.3,27.118c2.261,18.456,2.906,35.601,1.396,50.696c-3.672,36.73-15.881,65.223-21.246,76.294H20.078
	V337.814z M388.1,491.922c-4.646-11.819-13.944-41.179-6.85-73.118c5.416-24.365,6.696-61.579,2.446-102.424
	c44.591,1.179,90.934,12.721,108.226,17.47v158.071H388.1z"/>
<g>
</g>
<g>
</g>
<g>
</g>
<g>
</g>
<g>
</g>
<g>
</g>
<g>
</g>
<g>
</g>
<g>
</g>
<g>
</g>
<g>
</g>
<g>
</g>
<g>
</g>
<g>
</g>
<g>
</g>
</svg>
