<?xml version="1.0" encoding="iso-8859-1"?>
<!-- Generator: Adobe Illustrator 19.0.0, SVG Export Plug-In . SVG Version: 6.00 Build 0)  -->
<svg version="1.1" id="Layer_1" xmlns="http://www.w3.org/2000/svg" xmlns:xlink="http://www.w3.org/1999/xlink" x="0px" y="0px"
	 viewBox="0 0 512 512" style="enable-background:new 0 0 512 512;" xml:space="preserve">
<g>
	<rect x="228.571" y="22.857" style="fill:#E65F58;" width="64" height="64"/>
	<rect x="228.571" y="425.143" style="fill:#E65F58;" width="64" height="64"/>
	<rect x="18.286" y="224" style="fill:#E65F58;" width="64" height="64"/>
	<path style="fill:#E65F58;" d="M429.714,288h29.866c1.42-0.446,2.92-0.674,4.496-0.366c0.323,0.065,0.566,0.27,0.874,0.366h28.765
		v-64h-64V288z"/>
</g>
<path style="fill:#314E55;" d="M502.857,205.714h-33.481c-18.816-78.43-80.108-139.71-158.519-158.513V13.714
	c0-5.049-4.094-9.143-9.143-9.143h-82.286c-5.049,0-9.143,4.094-9.143,9.143v33.49c-78.457,18.813-139.689,79.997-158.513,158.51
	H9.143c-5.049,0-9.143,4.094-9.143,9.143v82.286c0,5.049,4.094,9.143,9.143,9.143h42.619
	c18.792,78.276,80.211,139.734,158.524,158.526v33.474c0,5.049,4.094,9.143,9.143,9.143h82.286c5.049,0,9.143-4.094,9.143-9.143
	v-33.46c78.548-18.848,139.722-80.232,158.503-158.54h33.497c5.049,0,9.143-4.094,9.143-9.143v-82.286
	C512,209.808,507.906,205.714,502.857,205.714z M228.571,22.857h64v64h-64V22.857z M18.286,224h64v64h-64V224z M292.571,489.143h-64
	v-64h64V489.143z M310.857,445.943V416c0-5.049-4.094-9.143-9.143-9.143h-82.286c-5.049,0-9.143,4.094-9.143,9.143v29.947
	c-68.184-17.998-121.683-71.51-139.671-139.661h20.814c5.049,0,9.143-4.094,9.143-9.143v-82.286c0-5.049-4.094-9.143-9.143-9.143
	H70.605c18.01-68.364,71.364-121.701,139.68-139.696V96c0,5.049,4.094,9.143,9.143,9.143h82.286c5.049,0,9.143-4.094,9.143-9.143
	V66.029c68.27,17.995,121.674,71.395,139.678,139.685h-29.964c-5.049,0-9.143,4.094-9.143,9.143v82.286
	c0,5.049,4.094,9.143,9.143,9.143h30.003C432.604,374.475,379.242,427.909,310.857,445.943z M493.714,288H464.95
	c-0.307-0.096-0.551-0.301-0.874-0.366c-1.575-0.308-3.075-0.08-4.496,0.366h-29.866v-64h64V288z"/>
<g>
</g>
<g>
</g>
<g>
</g>
<g>
</g>
<g>
</g>
<g>
</g>
<g>
</g>
<g>
</g>
<g>
</g>
<g>
</g>
<g>
</g>
<g>
</g>
<g>
</g>
<g>
</g>
<g>
</g>
</svg>
