<?xml version="1.0" encoding="iso-8859-1"?>
<!-- Generator: Adobe Illustrator 19.0.0, SVG Export Plug-In . SVG Version: 6.00 Build 0)  -->
<svg version="1.1" id="Layer_1" xmlns="http://www.w3.org/2000/svg" xmlns:xlink="http://www.w3.org/1999/xlink" x="0px" y="0px"
	 viewBox="0 0 512 512" style="enable-background:new 0 0 512 512;" xml:space="preserve">
<g>
	<circle style="fill:#5ECB66;" cx="51.2" cy="256" r="30.72"/>
	<circle style="fill:#5ECB66;" cx="256" cy="256" r="30.72"/>
	<circle style="fill:#5ECB66;" cx="460.8" cy="256" r="30.72"/>
</g>
<g>
	<path style="fill:#314E55;" d="M51.2,204.8C22.97,204.8,0,227.77,0,256s22.97,51.2,51.2,51.2s51.2-22.97,51.2-51.2
		S79.43,204.8,51.2,204.8z M51.2,286.72c-16.94,0-30.72-13.78-30.72-30.72s13.78-30.72,30.72-30.72S81.92,239.06,81.92,256
		S68.14,286.72,51.2,286.72z"/>
	<path style="fill:#314E55;" d="M256,204.8c-28.23,0-51.2,22.97-51.2,51.2s22.97,51.2,51.2,51.2s51.2-22.97,51.2-51.2
		S284.23,204.8,256,204.8z M256,286.72c-16.94,0-30.72-13.78-30.72-30.72s13.78-30.72,30.72-30.72s30.72,13.78,30.72,30.72
		S272.94,286.72,256,286.72z"/>
	<path style="fill:#314E55;" d="M460.8,204.8c-28.23,0-51.2,22.97-51.2,51.2s22.97,51.2,51.2,51.2S512,284.23,512,256
		S489.03,204.8,460.8,204.8z M460.8,286.72c-16.94,0-30.72-13.78-30.72-30.72s13.78-30.72,30.72-30.72s30.72,13.78,30.72,30.72
		S477.74,286.72,460.8,286.72z"/>
</g>
<g>
</g>
<g>
</g>
<g>
</g>
<g>
</g>
<g>
</g>
<g>
</g>
<g>
</g>
<g>
</g>
<g>
</g>
<g>
</g>
<g>
</g>
<g>
</g>
<g>
</g>
<g>
</g>
<g>
</g>
</svg>
