<?xml version="1.0" encoding="iso-8859-1"?>
<!-- Generator: Adobe Illustrator 19.0.0, SVG Export Plug-In . SVG Version: 6.00 Build 0)  -->
<svg version="1.1" id="Layer_1" xmlns="http://www.w3.org/2000/svg" xmlns:xlink="http://www.w3.org/1999/xlink" x="0px" y="0px"
	 viewBox="0 0 512 512" style="enable-background:new 0 0 512 512;" xml:space="preserve">
<g>
	<path style="fill:#E9E7D1;" d="M404.945,102.4c0-46.2-37.559-83.782-83.727-83.782H190.782c-46.168,0-83.727,37.582-83.727,83.782
		v83.782h297.891V102.4z M265.309,149.464c0,5.145-4.168,9.309-9.309,9.309c-5.141,0-9.309-4.164-9.309-9.309v-84.3
		c0-5.145,4.168-9.309,9.309-9.309c5.141,0,9.309,4.164,9.309,9.309V149.464z"/>
	<path style="fill:#E9E7D1;" d="M107.055,349.091c0,79.564,64.736,144.291,144.309,144.291h9.273
		c79.573,0,144.309-64.727,144.309-144.291V204.8H107.055V349.091z"/>
</g>
<g>
	<path style="fill:#314E55;" d="M321.218,0H190.782C134.35,0,88.436,45.936,88.436,102.4v93.091v153.6
		C88.436,438.918,161.527,512,251.364,512h9.273c89.836,0,162.927-73.082,162.927-162.909v-153.6V102.4
		C423.564,45.936,377.65,0,321.218,0z M107.055,102.4c0-46.2,37.559-83.782,83.727-83.782h130.436
		c46.168,0,83.727,37.582,83.727,83.782v83.782H107.055V102.4z M404.945,349.091c0,79.564-64.736,144.291-144.309,144.291h-9.273
		c-79.573,0-144.309-64.727-144.309-144.291V204.8h297.891V349.091z"/>
	<path style="fill:#314E55;" d="M256,55.855c-5.141,0-9.309,4.164-9.309,9.309v84.3c0,5.145,4.168,9.309,9.309,9.309
		c5.141,0,9.309-4.164,9.309-9.309v-84.3C265.309,60.018,261.141,55.855,256,55.855z"/>
</g>
<g>
</g>
<g>
</g>
<g>
</g>
<g>
</g>
<g>
</g>
<g>
</g>
<g>
</g>
<g>
</g>
<g>
</g>
<g>
</g>
<g>
</g>
<g>
</g>
<g>
</g>
<g>
</g>
<g>
</g>
</svg>
