<?xml version="1.0" encoding="iso-8859-1"?>
<!-- Generator: Adobe Illustrator 19.0.0, SVG Export Plug-In . SVG Version: 6.00 Build 0)  -->
<svg version="1.1" id="Layer_1" xmlns="http://www.w3.org/2000/svg" xmlns:xlink="http://www.w3.org/1999/xlink" x="0px" y="0px"
	 viewBox="0 0 512 512" style="enable-background:new 0 0 512 512;" xml:space="preserve">
<path style="fill:#E9E7D1;" d="M265.66,154.566h134.922C395.795,82.349,337.871,24.415,265.66,19.641V154.566z"/>
<path style="fill:#5ECB66;" d="M246.34,154.566V19.641c-72.211,4.774-130.135,62.708-134.922,134.925H246.34z"/>
<path style="fill:#E9E7D1;" d="M256,173.887l-144.906,0.018v173.85c0,79.915,65.005,144.924,144.906,144.924
	s144.906-65.01,144.906-144.924v-173.85L256,173.887z"/>
<path style="fill:#314E55;" d="M420.225,164.219C420.211,73.665,346.548,0,256,0S91.789,73.665,91.775,164.219
	c0,0.002-0.001,0.005-0.001,0.005v183.531C91.774,438.321,165.443,512,256,512s164.226-73.679,164.226-164.245V164.226
	C420.226,164.226,420.225,164.222,420.225,164.219z M400.583,154.566H265.66V19.641C337.871,24.415,395.795,82.349,400.583,154.566z
	 M246.34,19.641v134.925H111.417C116.205,82.349,174.129,24.415,246.34,19.641z M256,492.679
	c-79.901,0-144.906-65.01-144.906-144.924v-173.85L256,173.887l144.906,0.018v173.85C400.906,427.67,335.901,492.679,256,492.679z"
	/>
<g>
</g>
<g>
</g>
<g>
</g>
<g>
</g>
<g>
</g>
<g>
</g>
<g>
</g>
<g>
</g>
<g>
</g>
<g>
</g>
<g>
</g>
<g>
</g>
<g>
</g>
<g>
</g>
<g>
</g>
</svg>
