<?xml version="1.0" encoding="iso-8859-1"?>
<!-- Generator: Adobe Illustrator 19.0.0, SVG Export Plug-In . SVG Version: 6.00 Build 0)  -->
<svg version="1.1" id="Layer_1" xmlns="http://www.w3.org/2000/svg" xmlns:xlink="http://www.w3.org/1999/xlink" x="0px" y="0px"
	 viewBox="0 0 512 512" style="enable-background:new 0 0 512 512;" xml:space="preserve">
<path style="fill:#E9E7D1;" d="M256,18.963c-83.648,0-151.704,68.018-151.704,151.62v170.843
	c0,83.602,68.055,151.611,151.704,151.611s151.704-68.009,151.704-151.611V170.583C407.704,86.981,339.648,18.963,256,18.963z
	 M265.481,152.232c0,5.241-4.245,9.481-9.481,9.481s-9.481-4.241-9.481-9.481V66.37c0-5.241,4.245-9.481,9.481-9.481
	s9.481,4.241,9.481,9.481V152.232z"/>
<g>
	<path style="fill:#314E55;" d="M256,0C161.893,0,85.333,76.528,85.333,170.583v170.843C85.333,435.482,161.893,512,256,512
		s170.667-76.518,170.667-170.574V170.583C426.667,76.528,350.107,0,256,0z M407.704,341.426
		c0,83.602-68.055,151.611-151.704,151.611s-151.704-68.009-151.704-151.611V170.583c0-83.602,68.055-151.62,151.704-151.62
		s151.704,68.018,151.704,151.62V341.426z"/>
	<path style="fill:#314E55;" d="M256,56.889c-5.236,0-9.481,4.241-9.481,9.481v85.861c0,5.241,4.245,9.481,9.481,9.481
		s9.481-4.241,9.481-9.481V66.37C265.481,61.13,261.236,56.889,256,56.889z"/>
</g>
<g>
</g>
<g>
</g>
<g>
</g>
<g>
</g>
<g>
</g>
<g>
</g>
<g>
</g>
<g>
</g>
<g>
</g>
<g>
</g>
<g>
</g>
<g>
</g>
<g>
</g>
<g>
</g>
<g>
</g>
</svg>
