<?xml version="1.0" encoding="iso-8859-1"?>
<!-- Generator: Adobe Illustrator 19.0.0, SVG Export Plug-In . SVG Version: 6.00 Build 0)  -->
<svg version="1.1" id="Layer_1" xmlns="http://www.w3.org/2000/svg" xmlns:xlink="http://www.w3.org/1999/xlink" x="0px" y="0px"
	 viewBox="0 0 512 512" style="enable-background:new 0 0 512 512;" xml:space="preserve">
<path style="fill:#5ECB66;" d="M256,222.17c-21.323,0-38.663,17.344-38.663,38.663s17.34,38.663,38.663,38.663
	s38.663-17.344,38.663-38.663S277.323,222.17,256,222.17z"/>
<path style="fill:#314E55;" d="M509.168,253.999l-82.017-82.012c-3.776-3.776-9.892-3.776-13.668,0
	c-3.775,3.776-3.776,9.892,0,13.668L479,251.167H313.121c-4.091-24.233-23.222-43.364-47.456-47.456V37.832l65.517,65.517
	c1.888,1.888,4.361,2.832,6.834,2.832s4.946-0.944,6.834-2.832c3.776-3.776,3.776-9.892,0-13.668L262.834,7.665
	c-3.776-3.776-9.892-3.776-13.668,0l-82.017,82.017c-3.776,3.776-3.776,9.892,0,13.668c3.776,3.775,9.892,3.776,13.668,0
	l65.517-65.517v165.879c-24.233,4.092-43.364,23.223-47.456,47.456H33l65.517-65.513c3.776-3.776,3.776-9.892,0-13.668
	c-3.776-3.775-9.892-3.776-13.668,0L2.832,253.999C1.019,255.811,0,258.27,0,260.833c0,2.563,1.019,5.022,2.832,6.834l82.017,82.017
	c1.888,1.888,4.361,2.832,6.834,2.832c2.473,0,4.946-0.944,6.834-2.832c3.776-3.776,3.776-9.892,0-13.668l-65.517-65.517h165.879
	c4.091,24.233,23.222,43.364,47.456,47.456v156.214l-65.517-65.517c-3.776-3.776-9.892-3.776-13.668,0
	c-3.775,3.776-3.776,9.892,0,13.668l79.185,79.185v1.071h1.071l1.76,1.76c1.888,1.888,4.361,2.832,6.834,2.832
	c2.473,0,4.946-0.944,6.834-2.832l1.76-1.76h1.071v-1.071l79.185-79.185c3.776-3.776,3.776-9.892,0-13.668s-9.892-3.776-13.668,0
	l-65.517,65.517V317.954c24.233-4.092,43.364-23.223,47.456-47.456h165.879l-65.517,65.517c-3.776,3.776-3.776,9.892,0,13.668
	c1.888,1.888,4.361,2.832,6.834,2.832c2.473,0,4.946-0.944,6.834-2.832l82.017-82.017c1.812-1.812,2.832-4.271,2.832-6.834
	S510.981,255.811,509.168,253.999z M256,299.496c-21.323,0-38.663-17.344-38.663-38.663S234.677,222.17,256,222.17
	s38.663,17.344,38.663,38.663S277.323,299.496,256,299.496z"/>
<g>
</g>
<g>
</g>
<g>
</g>
<g>
</g>
<g>
</g>
<g>
</g>
<g>
</g>
<g>
</g>
<g>
</g>
<g>
</g>
<g>
</g>
<g>
</g>
<g>
</g>
<g>
</g>
<g>
</g>
</svg>
