<?xml version="1.0" encoding="iso-8859-1"?>
<!-- Generator: Adobe Illustrator 19.0.0, SVG Export Plug-In . SVG Version: 6.00 Build 0)  -->
<svg version="1.1" id="Layer_1" xmlns="http://www.w3.org/2000/svg" xmlns:xlink="http://www.w3.org/1999/xlink" x="0px" y="0px"
	 viewBox="0 0 512 512" style="enable-background:new 0 0 512 512;" xml:space="preserve">
<path style="fill:#73C9C9;" d="M309.132,190.787c0,5.085-3.943,9.302-9.019,9.642C117.217,212.618,48.264,327.307,27.009,376.297
	c39.321-18.915,122.444-57.462,171.029-69.604c52.981-13.255,86.887-14.528,97.963-14.528c2.349,0,3.67,0.057,3.934,0.066
	c5.151,0.255,9.198,4.5,9.198,9.651v135.595l179.623-184.878L309.132,73.947V190.787z"/>
<path style="fill:#314E55;" d="M509.152,245.637L306.283,43.862c-2.773-2.764-6.925-3.538-10.519-2.076
	c-3.604,1.5-5.953,5.019-5.953,8.925v131.123C54.981,202.137,0.868,391.052,0.339,392.986c-1,3.679,0.255,7.594,3.198,10.009
	c2.962,2.415,7.047,2.868,10.443,1.17c1.264-0.632,126.906-63.274,188.736-78.736c42.972-10.745,72.962-13.255,87.095-13.792
	v149.642c0,3.934,2.387,7.472,6.028,8.953c1.179,0.472,2.406,0.708,3.632,0.708c2.557,0,5.076-1.019,6.925-2.924l202.868-208.793
	C512.954,255.42,512.907,249.363,509.152,245.637z M309.132,437.477V301.882c0-5.151-4.047-9.396-9.198-9.651
	c-0.264-0.009-1.585-0.066-3.934-0.066c-11.075,0-44.981,1.273-97.963,14.528c-48.585,12.141-131.708,50.689-171.029,69.604
	c21.255-48.991,90.208-163.68,273.104-175.868c5.076-0.34,9.019-4.557,9.019-9.642V73.947l179.623,178.652L309.132,437.477z"/>
<g>
</g>
<g>
</g>
<g>
</g>
<g>
</g>
<g>
</g>
<g>
</g>
<g>
</g>
<g>
</g>
<g>
</g>
<g>
</g>
<g>
</g>
<g>
</g>
<g>
</g>
<g>
</g>
<g>
</g>
</svg>
