<?xml version="1.0" encoding="iso-8859-1"?>
<!-- Generator: Adobe Illustrator 19.0.0, SVG Export Plug-In . SVG Version: 6.00 Build 0)  -->
<svg version="1.1" id="Layer_1" xmlns="http://www.w3.org/2000/svg" xmlns:xlink="http://www.w3.org/1999/xlink" x="0px" y="0px"
	 viewBox="0 0 512 512" style="enable-background:new 0 0 512 512;" xml:space="preserve">
<g>
	<rect x="54.857" y="210.286" style="fill:#5ECB66;" width="45.714" height="18.286"/>
	<rect x="54.857" y="356.571" style="fill:#5ECB66;" width="45.714" height="18.286"/>
	<rect x="54.857" y="137.143" style="fill:#5ECB66;" width="45.714" height="18.286"/>
	<rect x="54.857" y="283.429" style="fill:#5ECB66;" width="45.714" height="18.286"/>
</g>
<path style="fill:#D8D8D8;" d="M18.286,429.714h475.429V82.286H18.286V429.714z M402.286,374.857H192v-18.286h210.286V374.857z
	 M192,338.286V320h64v18.286H192z M274.286,338.286V320h64v18.286H274.286z M402.286,301.714h-36.571v-18.286h36.571V301.714z
	 M429.714,265.143H265.143v-18.286h164.571V265.143z M310.857,228.571v-18.286h82.286v18.286H310.857z M292.571,173.714h164.571V192
	H292.571V173.714z M292.571,228.571H192v-18.286h100.571V228.571z M274.286,192H192v-18.286h82.286V192z M137.143,137.143h100.571
	v18.286H137.143V137.143z M137.143,283.429h210.286v18.286H137.143V283.429z M36.571,128c0-5.053,4.089-9.143,9.143-9.143h64
	c5.053,0,9.143,4.089,9.143,9.143v36.571c0,5.053-4.089,9.143-9.143,9.143h-64c-5.053,0-9.143-4.089-9.143-9.143V128z
	 M36.571,201.143c0-5.053,4.089-9.143,9.143-9.143h64c5.053,0,9.143,4.089,9.143,9.143v36.571c0,5.053-4.089,9.143-9.143,9.143h-64
	c-5.053,0-9.143-4.089-9.143-9.143V201.143z M36.571,274.286c0-5.053,4.089-9.143,9.143-9.143h64c5.053,0,9.143,4.089,9.143,9.143
	v36.571c0,5.053-4.089,9.143-9.143,9.143h-64c-5.053,0-9.143-4.089-9.143-9.143V274.286z M36.571,347.429
	c0-5.053,4.089-9.143,9.143-9.143h64c5.053,0,9.143,4.089,9.143,9.143V384c0,5.053-4.089,9.143-9.143,9.143h-64
	c-5.053,0-9.143-4.089-9.143-9.143V347.429z"/>
<g>
	<path style="fill:#314E55;" d="M502.857,64H9.143C4.089,64,0,68.089,0,73.143v365.714C0,443.911,4.089,448,9.143,448h493.714
		c5.053,0,9.143-4.089,9.143-9.143V73.143C512,68.089,507.911,64,502.857,64z M493.714,429.714H18.286V82.286h475.429V429.714z"/>
	<path style="fill:#314E55;" d="M45.714,173.714h64c5.053,0,9.143-4.089,9.143-9.143V128c0-5.053-4.089-9.143-9.143-9.143h-64
		c-5.053,0-9.143,4.089-9.143,9.143v36.571C36.571,169.625,40.661,173.714,45.714,173.714z M54.857,137.143h45.714v18.286H54.857
		V137.143z"/>
	<path style="fill:#314E55;" d="M45.714,246.857h64c5.053,0,9.143-4.089,9.143-9.143v-36.571c0-5.053-4.089-9.143-9.143-9.143h-64
		c-5.053,0-9.143,4.089-9.143,9.143v36.571C36.571,242.768,40.661,246.857,45.714,246.857z M54.857,210.286h45.714v18.286H54.857
		V210.286z"/>
	<path style="fill:#314E55;" d="M45.714,320h64c5.053,0,9.143-4.089,9.143-9.143v-36.571c0-5.053-4.089-9.143-9.143-9.143h-64
		c-5.053,0-9.143,4.089-9.143,9.143v36.571C36.571,315.911,40.661,320,45.714,320z M54.857,283.429h45.714v18.286H54.857V283.429z"
		/>
	<path style="fill:#314E55;" d="M45.714,393.143h64c5.053,0,9.143-4.089,9.143-9.143v-36.571c0-5.053-4.089-9.143-9.143-9.143h-64
		c-5.053,0-9.143,4.089-9.143,9.143V384C36.571,389.054,40.661,393.143,45.714,393.143z M54.857,356.571h45.714v18.286H54.857
		V356.571z"/>
	<rect x="137.143" y="137.143" style="fill:#314E55;" width="100.571" height="18.286"/>
	<rect x="137.143" y="283.429" style="fill:#314E55;" width="210.286" height="18.286"/>
	<rect x="192" y="356.571" style="fill:#314E55;" width="210.286" height="18.286"/>
	<rect x="192" y="320" style="fill:#314E55;" width="64" height="18.286"/>
	<rect x="274.286" y="320" style="fill:#314E55;" width="64" height="18.286"/>
	<rect x="192" y="210.286" style="fill:#314E55;" width="100.571" height="18.286"/>
	<rect x="192" y="173.714" style="fill:#314E55;" width="82.286" height="18.286"/>
	<rect x="310.857" y="210.286" style="fill:#314E55;" width="82.286" height="18.286"/>
	<rect x="365.714" y="283.429" style="fill:#314E55;" width="36.571" height="18.286"/>
	<rect x="292.571" y="173.714" style="fill:#314E55;" width="164.571" height="18.286"/>
	<rect x="265.143" y="246.857" style="fill:#314E55;" width="164.571" height="18.286"/>
</g>
<g>
</g>
<g>
</g>
<g>
</g>
<g>
</g>
<g>
</g>
<g>
</g>
<g>
</g>
<g>
</g>
<g>
</g>
<g>
</g>
<g>
</g>
<g>
</g>
<g>
</g>
<g>
</g>
<g>
</g>
</svg>
