<?xml version="1.0" encoding="iso-8859-1"?>
<!-- Generator: Adobe Illustrator 19.0.0, SVG Export Plug-In . SVG Version: 6.00 Build 0)  -->
<svg version="1.1" id="Layer_1" xmlns="http://www.w3.org/2000/svg" xmlns:xlink="http://www.w3.org/1999/xlink" x="0px" y="0px"
	 viewBox="0 0 512 512" style="enable-background:new 0 0 512 512;" xml:space="preserve">
<g>
	<polygon style="fill:#5ECB66;" points="281.693,167.184 325.102,123.774 325.102,33.575 191.491,167.184 	"/>
	<path style="fill:#5ECB66;" d="M20.238,192.61L193.179,19.669h-81.005c-0.398,0.651-0.703,1.343-1.266,1.906l-90.67,90.675V192.61z
		"/>
	<path style="fill:#5ECB66;" d="M220.329,19.669c-0.406,0.675-0.728,1.39-1.311,1.974L22.197,218.463
		c-0.579,0.579-1.289,0.897-1.959,1.301v90.857L311.196,19.669H220.329z"/>
</g>
<polygon style="fill:#73C9C9;" points="344.771,320.459 478.38,186.852 388.18,186.852 344.771,230.262 "/>
<polygon style="fill:#5ECB66;" points="167.753,190.922 34.14,324.533 124.344,324.533 167.753,281.124 "/>
<g>
	<path style="fill:#73C9C9;" d="M492.286,399.772v-81.006L319.335,491.717h80.37l90.67-90.675
		C490.939,400.478,491.634,400.17,492.286,399.772z"/>
	<polygon style="fill:#73C9C9;" points="230.831,344.202 187.422,387.611 187.422,477.806 321.028,344.202 	"/>
</g>
<polygon style="fill:#5ECB66;" points="152.156,324.533 167.753,324.533 167.753,308.936 "/>
<g>
	<polygon style="fill:#73C9C9;" points="427.517,491.717 492.286,491.717 492.286,426.944 	"/>
	<polygon style="fill:#73C9C9;" points="203.018,344.202 187.422,344.202 187.422,359.798 	"/>
</g>
<polygon style="fill:#5ECB66;" points="85.002,19.669 20.238,19.669 20.238,84.437 "/>
<polygon style="fill:#73C9C9;" points="360.368,186.852 344.771,186.852 344.771,202.449 "/>
<polygon style="fill:#5ECB66;" points="309.506,167.184 325.102,167.184 325.102,151.587 "/>
<path style="fill:#73C9C9;" d="M293.487,489.753l196.821-196.821c0.584-0.583,1.301-0.907,1.978-1.313v-90.86L201.323,491.717
	h90.859C292.587,491.044,292.907,490.332,293.487,489.753z"/>
<path style="fill:#314E55;" d="M502.12,167.184H344.771V9.834c0-5.431-4.399-9.834-9.834-9.834H10.404
	C4.968,0,0.569,4.403,0.569,9.834v95.801c-0.699,2.054-0.699,4.26,0,6.315v222.418c0,5.431,4.399,9.834,9.834,9.834h157.349v157.349
	c0,5.431,4.399,9.834,9.834,9.834h222.418c1.027,0.351,2.083,0.615,3.157,0.615c1.074,0,2.13-0.264,3.158-0.615h95.801
	c5.436,0,9.834-4.403,9.834-9.834V177.018C511.955,171.587,507.556,167.184,502.12,167.184z M319.335,491.717l172.951-172.951
	v81.006c-0.652,0.399-1.347,0.706-1.911,1.27l-90.67,90.675H319.335z M187.422,387.611l43.41-43.409h90.197L187.422,477.806
	L187.422,387.611L187.422,387.611z M34.14,324.533l133.613-133.611v90.202l-43.409,43.409H34.14z M112.175,19.669h81.005
	L20.238,192.61v-80.36l90.67-90.675C111.471,21.012,111.776,20.319,112.175,19.669z M20.238,219.765
	c0.67-0.405,1.38-0.723,1.959-1.301L219.018,21.642c0.583-0.583,0.905-1.299,1.311-1.974h90.867L20.238,310.622V219.765z
	 M325.102,123.774l-43.409,43.409h-90.202L325.102,33.575V123.774z M187.422,186.852h137.681v137.681H187.422L187.422,186.852
	L187.422,186.852z M478.38,186.852L344.771,320.459v-90.197l43.409-43.409H478.38z M492.286,200.759v90.86
	c-0.678,0.406-1.394,0.73-1.978,1.313L293.486,489.753c-0.58,0.58-0.9,1.292-1.304,1.964h-90.859L492.286,200.759z M360.368,186.852
	l-15.597,15.597v-15.597H360.368z M309.506,167.184l15.597-15.597v15.597H309.506z M85.002,19.669L20.238,84.437V19.669H85.002z
	 M152.156,324.533l15.597-15.597v15.597H152.156z M203.018,344.202l-15.597,15.597v-15.597H203.018z M427.517,491.717l64.769-64.773
	v64.773H427.517z"/>
<g>
</g>
<g>
</g>
<g>
</g>
<g>
</g>
<g>
</g>
<g>
</g>
<g>
</g>
<g>
</g>
<g>
</g>
<g>
</g>
<g>
</g>
<g>
</g>
<g>
</g>
<g>
</g>
<g>
</g>
</svg>
