<?xml version="1.0" encoding="iso-8859-1"?>
<!-- Generator: Adobe Illustrator 19.0.0, SVG Export Plug-In . SVG Version: 6.00 Build 0)  -->
<svg version="1.1" id="Layer_1" xmlns="http://www.w3.org/2000/svg" xmlns:xlink="http://www.w3.org/1999/xlink" x="0px" y="0px"
	 viewBox="0 0 512 512" style="enable-background:new 0 0 512 512;" xml:space="preserve">
<path style="fill:#5ECB66;" d="M147.692,147.692v177.231c0-5.438,4.409-9.846,9.846-9.846h9.846c5.438,0,9.846,4.409,9.846,9.846
	s-4.409,9.846-9.846,9.846h-9.846c-5.438,0-9.846-4.409-9.846-9.846v167.385h344.615V147.692H147.692z M206.769,334.769h-9.846
	c-5.438,0-9.846-4.409-9.846-9.846s4.409-9.846,9.846-9.846h9.846c5.438,0,9.846,4.409,9.846,9.846S212.207,334.769,206.769,334.769
	z M246.154,334.769h-9.846c-5.438,0-9.846-4.409-9.846-9.846s4.409-9.846,9.846-9.846h9.846c5.438,0,9.846,4.409,9.846,9.846
	S251.591,334.769,246.154,334.769z M285.538,334.769h-9.846c-5.438,0-9.846-4.409-9.846-9.846s4.409-9.846,9.846-9.846h9.846
	c5.438,0,9.846,4.409,9.846,9.846S290.976,334.769,285.538,334.769z M324.923,334.769h-9.846c-5.438,0-9.846-4.409-9.846-9.846
	s4.409-9.846,9.846-9.846h9.846c5.438,0,9.846,4.409,9.846,9.846S330.361,334.769,324.923,334.769z M334.769,295.385
	c0,5.438-4.409,9.846-9.846,9.846s-9.846-4.409-9.846-9.846v-9.846c0-5.438,4.409-9.846,9.846-9.846s9.846,4.409,9.846,9.846
	V295.385z M334.769,256c0,5.438-4.409,9.846-9.846,9.846s-9.846-4.409-9.846-9.846v-9.846c0-5.438,4.409-9.846,9.846-9.846
	s9.846,4.409,9.846,9.846V256z M334.769,216.615c0,5.438-4.409,9.846-9.846,9.846s-9.846-4.409-9.846-9.846v-9.846
	c0-5.438,4.409-9.846,9.846-9.846s9.846,4.409,9.846,9.846V216.615z M334.769,167.385v9.846c0,5.438-4.409,9.846-9.846,9.846
	s-9.846-4.409-9.846-9.846v-9.846c0-5.438,4.409-9.846,9.846-9.846S334.769,161.947,334.769,167.385z"/>
<g>
	<path style="fill:#314E55;" d="M49.231,315.077h-9.846c-5.438,0-9.846,4.409-9.846,9.846s4.409,9.846,9.846,9.846h9.846
		c5.438,0,9.846-4.409,9.846-9.846S54.668,315.077,49.231,315.077z"/>
	<path style="fill:#314E55;" d="M98.462,0h-9.846c-5.438,0-9.846,4.409-9.846,9.846s4.409,9.846,9.846,9.846h9.846
		c5.438,0,9.846-4.409,9.846-9.846S103.899,0,98.462,0z"/>
	<path style="fill:#314E55;" d="M9.846,68.923C4.409,68.923,0,73.332,0,78.769v9.846c0,5.438,4.409,9.846,9.846,9.846
		s9.846-4.409,9.846-9.846v-9.846C19.692,73.332,15.284,68.923,9.846,68.923z"/>
	<path style="fill:#314E55;" d="M157.538,334.769h9.846c5.438,0,9.846-4.409,9.846-9.846s-4.409-9.846-9.846-9.846h-9.846
		c-5.438,0-9.846,4.409-9.846,9.846S152.101,334.769,157.538,334.769z"/>
	<path style="fill:#314E55;" d="M88.615,315.077h-9.846c-5.438,0-9.846,4.409-9.846,9.846s4.409,9.846,9.846,9.846h9.846
		c5.438,0,9.846-4.409,9.846-9.846S94.053,315.077,88.615,315.077z"/>
	<path style="fill:#314E55;" d="M9.846,29.538C4.409,29.538,0,33.947,0,39.385v9.846c0,5.438,4.409,9.846,9.846,9.846
		s9.846-4.409,9.846-9.846v-9.846C19.692,33.947,15.284,29.538,9.846,29.538z"/>
	<path style="fill:#314E55;" d="M59.077,0h-9.846c-5.438,0-9.846,4.409-9.846,9.846s4.409,9.846,9.846,9.846h9.846
		c5.438,0,9.846-4.409,9.846-9.846S64.514,0,59.077,0z"/>
	<path style="fill:#314E55;" d="M19.692,0H9.846C4.409,0,0,4.409,0,9.846s4.409,9.846,9.846,9.846h9.846
		c5.438,0,9.846-4.409,9.846-9.846S25.13,0,19.692,0z"/>
	<path style="fill:#314E55;" d="M206.769,315.077h-9.846c-5.438,0-9.846,4.409-9.846,9.846s4.409,9.846,9.846,9.846h9.846
		c5.438,0,9.846-4.409,9.846-9.846S212.207,315.077,206.769,315.077z"/>
	<path style="fill:#314E55;" d="M324.923,196.923c-5.438,0-9.846,4.409-9.846,9.846v9.846c0,5.438,4.409,9.846,9.846,9.846
		s9.846-4.409,9.846-9.846v-9.846C334.769,201.332,330.361,196.923,324.923,196.923z"/>
	<path style="fill:#314E55;" d="M246.154,315.077h-9.846c-5.438,0-9.846,4.409-9.846,9.846s4.409,9.846,9.846,9.846h9.846
		c5.438,0,9.846-4.409,9.846-9.846S251.591,315.077,246.154,315.077z"/>
	<path style="fill:#314E55;" d="M324.923,236.308c-5.438,0-9.846,4.409-9.846,9.846V256c0,5.438,4.409,9.846,9.846,9.846
		s9.846-4.409,9.846-9.846v-9.846C334.769,240.716,330.361,236.308,324.923,236.308z"/>
	<path style="fill:#314E55;" d="M315.077,167.385v9.846c0,5.438,4.409,9.846,9.846,9.846s9.846-4.409,9.846-9.846v-9.846
		c0-5.438-4.409-9.846-9.846-9.846S315.077,161.947,315.077,167.385z"/>
	<path style="fill:#314E55;" d="M285.538,315.077h-9.846c-5.438,0-9.846,4.409-9.846,9.846s4.409,9.846,9.846,9.846h9.846
		c5.438,0,9.846-4.409,9.846-9.846S290.976,315.077,285.538,315.077z"/>
	<path style="fill:#314E55;" d="M324.923,315.077h-9.846c-5.438,0-9.846,4.409-9.846,9.846s4.409,9.846,9.846,9.846h9.846
		c5.438,0,9.846-4.409,9.846-9.846S330.361,315.077,324.923,315.077z"/>
	<path style="fill:#314E55;" d="M324.923,275.692c-5.438,0-9.846,4.409-9.846,9.846v9.846c0,5.438,4.409,9.846,9.846,9.846
		s9.846-4.409,9.846-9.846v-9.846C334.769,280.101,330.361,275.692,324.923,275.692z"/>
	<path style="fill:#314E55;" d="M9.846,305.231c-5.438,0-9.846,4.409-9.846,9.846v9.846c0,5.438,4.409,9.846,9.846,9.846
		s9.846-4.409,9.846-9.846v-9.846C19.692,309.639,15.284,305.231,9.846,305.231z"/>
	<path style="fill:#314E55;" d="M167.385,19.692h9.846c5.438,0,9.846-4.409,9.846-9.846S182.668,0,177.231,0h-9.846
		c-5.438,0-9.846,4.409-9.846,9.846S161.947,19.692,167.385,19.692z"/>
	<path style="fill:#314E55;" d="M128,19.692h9.846c5.438,0,9.846-4.409,9.846-9.846S143.284,0,137.846,0H128
		c-5.438,0-9.846,4.409-9.846,9.846S122.562,19.692,128,19.692z"/>
	<path style="fill:#314E55;" d="M324.923,29.538c5.438,0,9.846-4.409,9.846-9.846V9.846c0-5.438-4.409-9.846-9.846-9.846
		s-9.846,4.409-9.846,9.846v9.846C315.077,25.13,319.486,29.538,324.923,29.538z"/>
	<path style="fill:#314E55;" d="M246.154,19.692H256c5.438,0,9.846-4.409,9.846-9.846S261.438,0,256,0h-9.846
		c-5.438,0-9.846,4.409-9.846,9.846S240.716,19.692,246.154,19.692z"/>
	<path style="fill:#314E55;" d="M9.846,265.846c-5.438,0-9.846,4.409-9.846,9.846v9.846c0,5.438,4.409,9.846,9.846,9.846
		s9.846-4.409,9.846-9.846v-9.846C19.692,270.255,15.284,265.846,9.846,265.846z"/>
	<path style="fill:#314E55;" d="M206.769,19.692h9.846c5.438,0,9.846-4.409,9.846-9.846S222.053,0,216.615,0h-9.846
		c-5.438,0-9.846,4.409-9.846,9.846S201.332,19.692,206.769,19.692z"/>
	<path style="fill:#314E55;" d="M324.923,108.308c5.438,0,9.846-4.409,9.846-9.846v-9.846c0-5.438-4.409-9.846-9.846-9.846
		s-9.846,4.409-9.846,9.846v9.846C315.077,103.899,319.486,108.308,324.923,108.308z"/>
	<path style="fill:#314E55;" d="M324.923,68.923c5.438,0,9.846-4.409,9.846-9.846v-9.846c0-5.438-4.409-9.846-9.846-9.846
		s-9.846,4.409-9.846,9.846v9.846C315.077,64.514,319.486,68.923,324.923,68.923z"/>
	<path style="fill:#314E55;" d="M9.846,108.308c-5.438,0-9.846,4.409-9.846,9.846V128c0,5.438,4.409,9.846,9.846,9.846
		s9.846-4.409,9.846-9.846v-9.846C19.692,112.716,15.284,108.308,9.846,108.308z"/>
	<path style="fill:#314E55;" d="M9.846,226.462c-5.438,0-9.846,4.409-9.846,9.846v9.846C0,251.591,4.409,256,9.846,256
		s9.846-4.409,9.846-9.846v-9.846C19.692,230.87,15.284,226.462,9.846,226.462z"/>
	<path style="fill:#314E55;" d="M9.846,147.692c-5.438,0-9.846,4.409-9.846,9.846v9.846c0,5.438,4.409,9.846,9.846,9.846
		s9.846-4.409,9.846-9.846v-9.846C19.692,152.101,15.284,147.692,9.846,147.692z"/>
	<path style="fill:#314E55;" d="M285.538,19.692h9.846c5.438,0,9.846-4.409,9.846-9.846S300.822,0,295.385,0h-9.846
		c-5.438,0-9.846,4.409-9.846,9.846S280.101,19.692,285.538,19.692z"/>
	<path style="fill:#314E55;" d="M9.846,187.077c-5.438,0-9.846,4.409-9.846,9.846v9.846c0,5.438,4.409,9.846,9.846,9.846
		s9.846-4.409,9.846-9.846v-9.846C19.692,191.486,15.284,187.077,9.846,187.077z"/>
	<path style="fill:#314E55;" d="M502.154,128H334.769c0-5.438-4.409-9.846-9.846-9.846s-9.846,4.409-9.846,9.846H137.846
		c-5.438,0-9.846,4.409-9.846,9.846v177.231h-9.846c-5.438,0-9.846,4.409-9.846,9.846s4.409,9.846,9.846,9.846H128v167.385
		c0,5.438,4.409,9.846,9.846,9.846h364.308c5.438,0,9.846-4.409,9.846-9.846V137.846C512,132.409,507.591,128,502.154,128z
		 M492.308,492.308H147.692V324.923V147.692h344.615V492.308z"/>
</g>
<g>
</g>
<g>
</g>
<g>
</g>
<g>
</g>
<g>
</g>
<g>
</g>
<g>
</g>
<g>
</g>
<g>
</g>
<g>
</g>
<g>
</g>
<g>
</g>
<g>
</g>
<g>
</g>
<g>
</g>
</svg>
