<?xml version="1.0" encoding="iso-8859-1"?>
<!-- Generator: Adobe Illustrator 19.0.0, SVG Export Plug-In . SVG Version: 6.00 Build 0)  -->
<svg version="1.1" id="Layer_1" xmlns="http://www.w3.org/2000/svg" xmlns:xlink="http://www.w3.org/1999/xlink" x="0px" y="0px"
	 viewBox="0 0 512 512" style="enable-background:new 0 0 512 512;" xml:space="preserve">
<g>
	<rect x="310.489" y="239.56" style="fill:#EAEAEA;" width="163.466" height="87.182"/>
	<rect x="38.045" y="239.56" style="fill:#EAEAEA;" width="163.466" height="87.182"/>
</g>
<path style="fill:#81A4E3;" d="M288.693,392.125v-54.489V228.658v-87.182c0-6.018,4.879-10.898,10.898-10.898h42.117L256,27.726
	l-85.708,102.853h42.117c6.018,0,10.898,4.879,10.898,10.898v87.182v108.978v54.489c0,6.018-4.879,10.898-10.898,10.898H38.045
	v87.182h435.91v-87.182H299.591C293.573,403.022,288.693,398.143,288.693,392.125z"/>
<path style="fill:#314E55;" d="M484.853,348.534c6.018,0,10.898-4.879,10.898-10.898V228.658c0-6.018-4.879-10.898-10.898-10.898
	H310.489v-65.386h54.489c4.23,0,8.077-2.448,9.871-6.274c1.793-3.831,1.208-8.354-1.501-11.6L264.37,3.727
	c-4.14-4.97-12.601-4.97-16.74,0L138.652,134.5c-2.708,3.246-3.294,7.769-1.501,11.6c1.793,3.826,5.64,6.274,9.871,6.274h54.489
	v65.386H27.147c-6.018,0-10.898,4.879-10.898,10.898v108.978c0,6.018,4.879,10.898,10.898,10.898h174.364v32.693H27.147
	c-6.018,0-10.898,4.879-10.898,10.898v108.978c0,6.018,4.879,10.898,10.898,10.898h457.706c6.018,0,10.898-4.879,10.898-10.898
	V392.125c0-6.018-4.879-10.898-10.898-10.898H310.489v-32.693L484.853,348.534L484.853,348.534z M473.955,239.556v87.182H310.489
	v-87.182H473.955z M38.045,326.738v-87.182h163.466v87.182H38.045z M473.955,403.022v87.182H38.045v-87.182h174.364
	c6.018,0,10.898-4.879,10.898-10.898v-54.489V228.658v-87.182c0-6.018-4.879-10.898-10.898-10.898h-42.117L256,27.726
	l85.708,102.853h-42.117c-6.018,0-10.898,4.879-10.898,10.898v87.182v108.978v54.489c0,6.018,4.879,10.898,10.898,10.898
	L473.955,403.022L473.955,403.022z"/>
<g>
</g>
<g>
</g>
<g>
</g>
<g>
</g>
<g>
</g>
<g>
</g>
<g>
</g>
<g>
</g>
<g>
</g>
<g>
</g>
<g>
</g>
<g>
</g>
<g>
</g>
<g>
</g>
<g>
</g>
</svg>
