<?xml version="1.0" encoding="iso-8859-1"?>
<!-- Generator: Adobe Illustrator 19.0.0, SVG Export Plug-In . SVG Version: 6.00 Build 0)  -->
<svg version="1.1" id="Layer_1" xmlns="http://www.w3.org/2000/svg" xmlns:xlink="http://www.w3.org/1999/xlink" x="0px" y="0px"
	 viewBox="0 0 512 512" style="enable-background:new 0 0 512 512;" xml:space="preserve">
<path style="fill:#73C9C9;" d="M344.615,334.769c0,5.438-4.404,9.846-9.846,9.846H187.077v147.692h305.231V187.077H344.615V334.769z
	"/>
<polygon style="fill:#5ECB66;" points="324.923,324.923 324.923,177.231 324.923,19.692 19.692,19.692 19.692,324.923 
	177.231,324.923 "/>
<path style="fill:#314E55;" d="M502.154,167.385H344.615V9.846c0-5.438-4.404-9.846-9.846-9.846H9.846C4.404,0,0,4.409,0,9.846
	v324.923c0,5.438,4.404,9.846,9.846,9.846h157.538v157.538c0,5.438,4.404,9.846,9.846,9.846h324.923
	c5.442,0,9.846-4.409,9.846-9.846V177.231C512,171.793,507.596,167.385,502.154,167.385z M19.692,19.692h305.231v157.538v147.692
	H177.231H19.692V19.692z M492.308,492.308H187.077V344.615h147.692c5.442,0,9.846-4.409,9.846-9.846V187.077h147.692V492.308z"/>
<g>
</g>
<g>
</g>
<g>
</g>
<g>
</g>
<g>
</g>
<g>
</g>
<g>
</g>
<g>
</g>
<g>
</g>
<g>
</g>
<g>
</g>
<g>
</g>
<g>
</g>
<g>
</g>
<g>
</g>
</svg>
