<?xml version="1.0" encoding="iso-8859-1"?>
<!-- Generator: Adobe Illustrator 19.0.0, SVG Export Plug-In . SVG Version: 6.00 Build 0)  -->
<svg version="1.1" id="Layer_1" xmlns="http://www.w3.org/2000/svg" xmlns:xlink="http://www.w3.org/1999/xlink" x="0px" y="0px"
	 viewBox="0 0 512 512" style="enable-background:new 0 0 512 512;" xml:space="preserve">
<g>
	<polygon style="fill:#81A4E3;" points="445.457,99.817 42.01,210.601 194.42,259.338 	"/>
	<polygon style="fill:#81A4E3;" points="187.382,375.832 237.782,347.352 204.364,298.592 	"/>
	<path style="fill:#81A4E3;" d="M210.318,271.294c-0.015,0.08,0.014,0.157-0.004,0.237l-0.465,2.114l100.011,145.923
		l168.304-318.472L210.318,271.294z"/>
</g>
<path style="fill:#314E55;" d="M511.999,74.615c0.015-0.65-0.082-1.278-0.207-1.928c-0.098-0.506-0.179-0.992-0.358-1.475
	c-0.069-0.185-0.055-0.381-0.136-0.564c-0.194-0.438-0.53-0.756-0.781-1.149c-0.268-0.423-0.496-0.847-0.833-1.225
	c-0.55-0.615-1.194-1.086-1.874-1.53c-0.248-0.163-0.407-0.41-0.676-0.552c-0.057-0.031-0.121-0.024-0.179-0.053
	c-1.04-0.524-2.158-0.883-3.33-0.99c-0.264-0.024-0.515,0.071-0.779,0.07c-0.839-0.006-1.683-0.006-2.523,0.227l-0.268,0.073
	c-0.008,0.002-0.015,0.005-0.023,0.007L6.849,200.945c-3.973,1.091-6.756,4.664-6.847,8.783c-0.082,4.119,2.546,7.802,6.474,9.056
	l183.379,58.637l0.074,0.108l-25.215,114.659c-0.791,3.592,0.6,7.301,3.555,9.484c1.637,1.209,3.583,1.828,5.537,1.828
	c1.573,0,3.155-0.4,4.583-1.2l69.964-39.524l54.85,80.031c1.746,2.537,4.619,4.046,7.683,4.046c0.173,0,0.354-0.009,0.537-0.018
	c3.255-0.182,6.174-2.064,7.692-4.946L511.015,78.768c0.123-0.231,0.112-0.485,0.214-0.722c0.285-0.663,0.479-1.329,0.604-2.04
	C511.914,75.534,511.99,75.086,511.999,74.615z M445.457,99.817L194.42,259.338L42.01,210.601L445.457,99.817z M187.382,375.832
	l16.982-77.24l33.417,48.76L187.382,375.832z M309.859,419.567l-100.01-145.923l0.465-2.114c0.018-0.08-0.011-0.157,0.004-0.237
	l267.846-170.199L309.859,419.567z"/>
<g>
</g>
<g>
</g>
<g>
</g>
<g>
</g>
<g>
</g>
<g>
</g>
<g>
</g>
<g>
</g>
<g>
</g>
<g>
</g>
<g>
</g>
<g>
</g>
<g>
</g>
<g>
</g>
<g>
</g>
</svg>
