<?xml version="1.0" encoding="iso-8859-1"?>
<!-- Generator: Adobe Illustrator 19.0.0, SVG Export Plug-In . SVG Version: 6.00 Build 0)  -->
<svg version="1.1" id="Layer_1" xmlns="http://www.w3.org/2000/svg" xmlns:xlink="http://www.w3.org/1999/xlink" x="0px" y="0px"
	 viewBox="0 0 512 512" style="enable-background:new 0 0 512 512;" xml:space="preserve">
<path style="fill:#81A4E3;" d="M176.016,21.333C117.193,21.333,69.333,69.187,69.333,128s47.859,106.667,106.682,106.667H336V21.333
	H176.016z"/>
<path style="fill:#314E55;" d="M453.333,0H346.667H176.016C105.427,0,48,57.417,48,128s57.427,128,128.016,128H336v245.333
	c0,5.896,4.776,10.667,10.667,10.667c5.891,0,10.667-4.771,10.667-10.667v-256v-224h85.333v480c0,5.896,4.776,10.667,10.667,10.667
	S464,507.229,464,501.333V10.667C464,4.771,459.224,0,453.333,0z M176.016,234.667c-58.823,0-106.682-47.854-106.682-106.667
	S117.193,21.333,176.016,21.333H336v213.333H176.016z"/>
<g>
</g>
<g>
</g>
<g>
</g>
<g>
</g>
<g>
</g>
<g>
</g>
<g>
</g>
<g>
</g>
<g>
</g>
<g>
</g>
<g>
</g>
<g>
</g>
<g>
</g>
<g>
</g>
<g>
</g>
</svg>
