<?xml version="1.0" encoding="iso-8859-1"?>
<!-- Generator: Adobe Illustrator 19.0.0, SVG Export Plug-In . SVG Version: 6.00 Build 0)  -->
<svg version="1.1" id="Layer_1" xmlns="http://www.w3.org/2000/svg" xmlns:xlink="http://www.w3.org/1999/xlink" x="0px" y="0px"
	 viewBox="0 0 512 512" style="enable-background:new 0 0 512 512;" xml:space="preserve">
<path style="fill:#73C9C9;" d="M194.086,110.345h-26.241c-33.379,0-60.535,27.155-60.535,60.535v20.517
	c0,29.931-12.069,82.138-17.146,102.75c15.207,3.56,49.828,10.405,90.802,10.405s75.595-6.845,90.802-10.405
	c-5.078-20.612-17.146-72.819-17.146-102.75v-20.517C254.621,137.5,227.465,110.345,194.086,110.345z"/>
<path style="fill:#FCFCFC;" d="M130.259,370.362H88.888c-19.81,0-35.922,14.94-35.922,33.302v42.129h264.828v-42.129
	c0-18.362-16.112-33.302-35.922-33.302h-47.336c-3.422,0-6.534-1.974-7.983-5.069l-20.661-43.882
	c-7.96,0.486-16.268,0.796-24.926,0.796c-8.561,0-16.78-0.303-24.661-0.779l-17.882,43.469
	C137.06,368.198,133.836,370.362,130.259,370.362z"/>
<path style="fill:#D8D8D8;" d="M17.655,445.793H35.31v-42.129c0-28.095,24.034-50.957,53.577-50.957h35.457l13.487-32.787
	C102.476,316.254,78.36,309.417,77,309.026c-4.603-1.328-7.302-6.086-6.095-10.716c0.19-0.715,18.75-72.095,18.75-106.914V170.88
	c0-43.112,35.078-78.19,78.19-78.19h26.241c43.112,0,78.19,35.078,78.19,78.19v20.517c0,34.819,18.56,106.198,18.75,106.914
	c1.207,4.629-1.491,9.388-6.095,10.716c-1.353,0.388-25.221,7.154-60.264,10.833l15.471,32.847h41.733
	c29.543,0,53.577,22.862,53.577,50.957v42.129h158.897V66.207H17.655V445.793z M329.784,128h138.078v17.655H329.784V128z
	 M329.784,163.31h138.078v17.655H329.784V163.31z M329.784,192.733h102.767v17.655H329.784V192.733z"/>
<g>
	<path style="fill:#314E55;" d="M503.172,48.552H8.828C3.948,48.552,0,52.5,0,57.379v397.241c0,4.879,3.948,8.828,8.828,8.828
		h494.345c4.879,0,8.828-3.948,8.828-8.828V57.379C512,52.5,508.052,48.552,503.172,48.552z M271.767,294.147
		c-15.207,3.56-49.828,10.405-90.802,10.405s-75.595-6.845-90.802-10.405c5.078-20.612,17.146-72.819,17.146-102.75v-20.517
		c0-33.379,27.155-60.535,60.535-60.535h26.241c33.379,0,60.535,27.155,60.535,60.535v20.517
		C254.621,221.328,266.69,273.534,271.767,294.147z M156.305,321.428c7.88,0.476,16.1,0.779,24.661,0.779
		c8.657,0,16.966-0.31,24.926-0.796l20.661,43.882c1.448,3.095,4.56,5.069,7.983,5.069h47.336c19.81,0,35.922,14.94,35.922,33.302
		v42.129H52.966v-42.129c0-18.362,16.112-33.302,35.922-33.302h41.371c3.578,0,6.802-2.164,8.164-5.466L156.305,321.428z
		 M494.345,445.793H335.448v-42.129c0-28.095-24.034-50.957-53.577-50.957h-41.733l-15.471-32.847
		c35.043-3.68,58.911-10.445,60.264-10.833c4.603-1.328,7.302-6.086,6.095-10.716c-0.19-0.715-18.75-72.095-18.75-106.914V170.88
		c0-43.112-35.077-78.19-78.189-78.19h-26.241c-43.112,0-78.19,35.078-78.19,78.19v20.517c0,34.819-18.56,106.198-18.75,106.914
		c-1.207,4.629,1.491,9.388,6.095,10.716c1.36,0.391,25.476,7.228,60.831,10.894l-13.487,32.787H88.888
		c-29.543,0-53.577,22.862-53.577,50.957v42.129H17.655V66.207h476.69V445.793z"/>
	<rect x="329.777" y="128" style="fill:#314E55;" width="138.086" height="17.655"/>
	<rect x="329.777" y="163.31" style="fill:#314E55;" width="138.086" height="17.655"/>
	<rect x="329.777" y="192.728" style="fill:#314E55;" width="102.766" height="17.655"/>
</g>
<g>
</g>
<g>
</g>
<g>
</g>
<g>
</g>
<g>
</g>
<g>
</g>
<g>
</g>
<g>
</g>
<g>
</g>
<g>
</g>
<g>
</g>
<g>
</g>
<g>
</g>
<g>
</g>
<g>
</g>
</svg>
