<?xml version="1.0" encoding="iso-8859-1"?>
<!-- Generator: Adobe Illustrator 19.0.0, SVG Export Plug-In . SVG Version: 6.00 Build 0)  -->
<svg version="1.1" id="Layer_1" xmlns="http://www.w3.org/2000/svg" xmlns:xlink="http://www.w3.org/1999/xlink" x="0px" y="0px"
	 viewBox="0 0 512 512" style="enable-background:new 0 0 512 512;" xml:space="preserve">
<g>
	<path style="fill:#E4AD40;" d="M315.429,283.009c0-5.268-4.777-9.554-10.652-9.554H280.79c-3.429,0-6.567-1.92-8.134-4.964
		l-6.87-13.377C262.585,255.629,259.335,256,256,256c-4.181,0-8.243-0.505-12.205-1.307l-7.089,13.798
		c-1.567,3.045-4.705,4.964-8.134,4.964h-21.348c-5.875,0-10.652,4.286-10.652,9.554v9.563h118.857V283.009z"/>
	<path style="fill:#E4AD40;" d="M299.464,197.196c0.29-4.348,3.603-7.884,7.924-8.455c2.009-0.268,3.469-1.928,3.469-3.946v-3.875
		c0-1.929-1.522-3.661-3.469-3.947c-4.491-0.652-7.826-4.5-7.826-9.045V128H256c-22.848,0-41.942,17.804-43.464,40.518
		c-0.29,4.348-3.603,7.884-7.924,8.455c-2.009,0.268-3.469,1.928-3.469,3.946v3.875c0,1.947,1.531,3.679,3.491,3.938
		c4.308,0.58,7.612,4.116,7.902,8.446c1.527,22.732,20.616,40.536,43.464,40.536S297.942,219.911,299.464,197.196z"/>
</g>
<path style="fill:#EAEAEA;" d="M18.286,429.714h475.429V82.286H18.286V429.714z M347.429,393.143H164.571v-18.286h182.857V393.143z
	 M178.286,283.009c0-15.348,12.982-27.839,28.938-27.839h15.768l3.515-6.845c-16.254-8.885-28.252-24.735-31.479-43.718
	c-7.268-3.723-12.17-11.295-12.17-19.812v-3.875c0-8.536,4.902-16.107,12.17-19.83c4.982-29.268,30.647-51.375,60.973-51.375h52.705
	c5.049,0,9.143,4.089,9.143,9.143v42.732c6.777,3.884,11.295,11.196,11.295,19.33v3.875c0,8.536-4.902,16.107-12.17,19.83
	c-3.366,19.775-16.285,36.085-33.594,44.712l2.995,5.833h18.402c15.955,0,28.938,12.491,28.938,27.839v18.705
	c0,5.053-4.094,9.143-9.143,9.143H187.429c-5.049,0-9.143-4.089-9.143-9.143V283.009z M128,338.286h256v18.286H128V338.286z"/>
<g>
	<path style="fill:#314E55;" d="M502.857,64H9.143C4.094,64,0,68.089,0,73.143v365.714C0,443.911,4.094,448,9.143,448h493.714
		c5.049,0,9.143-4.089,9.143-9.143V73.143C512,68.089,507.906,64,502.857,64z M493.714,429.714H18.286V82.286h475.429V429.714z"/>
	<path style="fill:#314E55;" d="M187.429,310.857h137.143c5.049,0,9.143-4.089,9.143-9.143v-18.705
		c0-15.348-12.982-27.839-28.938-27.839h-18.402l-2.995-5.833c17.309-8.627,30.228-24.937,33.594-44.712
		c7.268-3.723,12.17-11.295,12.17-19.83v-3.875c0-8.134-4.518-15.446-11.295-19.33v-42.732c0-5.053-4.094-9.143-9.143-9.143H256
		c-30.326,0-55.991,22.107-60.973,51.375c-7.268,3.723-12.17,11.295-12.17,19.83v3.875c0,8.518,4.902,16.089,12.17,19.813
		c3.228,18.983,15.225,34.833,31.479,43.718l-3.515,6.845h-15.768c-15.955,0-28.938,12.491-28.938,27.839v18.705
		C178.286,306.768,182.379,310.857,187.429,310.857z M212.536,197.179c-0.29-4.33-3.594-7.866-7.902-8.446
		c-1.96-0.259-3.491-1.991-3.491-3.937v-3.875c0-2.018,1.46-3.679,3.469-3.947c4.321-0.571,7.634-4.107,7.924-8.455
		C214.058,145.804,233.152,128,256,128h43.563v39.929c0,4.545,3.335,8.393,7.826,9.045c1.947,0.286,3.469,2.018,3.469,3.946v3.875
		c0,2.018-1.46,3.679-3.469,3.947c-4.321,0.571-7.634,4.107-7.924,8.455c-1.522,22.714-20.616,40.518-43.464,40.518
		S214.062,219.911,212.536,197.179z M196.571,283.009c0-5.268,4.777-9.554,10.652-9.554h21.348c3.429,0,6.567-1.92,8.134-4.964
		l7.089-13.798C247.757,255.495,251.819,256,256,256c3.335,0,6.585-0.371,9.786-0.886l6.87,13.377
		c1.567,3.045,4.705,4.964,8.134,4.964h23.987c5.875,0,10.652,4.286,10.652,9.554v9.563H196.571V283.009z"/>
	<rect x="128" y="338.286" style="fill:#314E55;" width="256" height="18.286"/>
	<rect x="164.571" y="374.857" style="fill:#314E55;" width="182.857" height="18.286"/>
</g>
<g>
</g>
<g>
</g>
<g>
</g>
<g>
</g>
<g>
</g>
<g>
</g>
<g>
</g>
<g>
</g>
<g>
</g>
<g>
</g>
<g>
</g>
<g>
</g>
<g>
</g>
<g>
</g>
<g>
</g>
</svg>
