<?xml version="1.0" encoding="iso-8859-1"?>
<!-- Generator: Adobe Illustrator 19.0.0, SVG Export Plug-In . SVG Version: 6.00 Build 0)  -->
<svg version="1.1" id="Layer_1" xmlns="http://www.w3.org/2000/svg" xmlns:xlink="http://www.w3.org/1999/xlink" x="0px" y="0px"
	 viewBox="0 0 512 512" style="enable-background:new 0 0 512 512;" xml:space="preserve">
<path style="fill:#73C9C9;" d="M173.887,260.83h57.962V19.321H19.321v309.132h144.906v-57.962
	C164.226,265.156,168.547,260.83,173.887,260.83z"/>
<polygon style="fill:#F28544;" points="183.547,280.151 183.547,338.113 183.547,492.679 492.679,492.679 492.679,280.151 
	241.509,280.151 "/>
<g>
	<path style="fill:#314E55;" d="M502.34,260.83H251.17V9.66c0-5.335-4.321-9.66-9.66-9.66H9.66C4.321,0,0,4.325,0,9.66v328.453
		c0,5.335,4.321,9.66,9.66,9.66h154.566V502.34c0,5.335,4.321,9.66,9.66,9.66H502.34c5.34,0,9.66-4.325,9.66-9.66V270.491
		C512,265.156,507.679,260.83,502.34,260.83z M19.321,328.453V19.321h212.528V260.83h-57.962c-5.34,0-9.66,4.325-9.66,9.66v57.962
		H19.321z M492.679,492.679H183.547V338.113v-57.962h57.962h251.17V492.679z"/>
	<path style="fill:#314E55;" d="M338.113,77.283c0,5.335,4.321,9.66,9.66,9.66c47.943,0,86.943,39.005,86.943,86.943
		c0,5.335,4.321,9.66,9.66,9.66c5.34,0,9.66-4.325,9.66-9.66c0-58.594-47.67-106.264-106.264-106.264
		C342.434,67.623,338.113,71.948,338.113,77.283z"/>
	<path style="fill:#314E55;" d="M340.943,125.099c1.887,1.887,4.359,2.83,6.83,2.83s4.943-0.943,6.83-2.83
		c3.774-3.774,3.774-9.887,0-13.66l-34.151-34.156l34.151-34.156c3.774-3.774,3.774-9.887,0-13.66s-9.887-3.774-13.66,0
		l-40.981,40.986c-3.774,3.774-3.774,9.887,0,13.66L340.943,125.099z"/>
	<path style="fill:#314E55;" d="M410.227,167.061c-3.774-3.774-9.887-3.774-13.66,0c-3.773,3.774-3.774,9.887,0,13.66l40.981,40.986
		c1.811,1.811,4.264,2.83,6.83,2.83s5.019-1.019,6.83-2.83l40.981-40.986c3.774-3.774,3.774-9.887,0-13.66
		c-3.774-3.773-9.887-3.774-13.66,0l-34.151,34.156L410.227,167.061z"/>
</g>
<g>
</g>
<g>
</g>
<g>
</g>
<g>
</g>
<g>
</g>
<g>
</g>
<g>
</g>
<g>
</g>
<g>
</g>
<g>
</g>
<g>
</g>
<g>
</g>
<g>
</g>
<g>
</g>
<g>
</g>
</svg>
