<?xml version="1.0" encoding="iso-8859-1"?>
<!-- Generator: Adobe Illustrator 19.0.0, SVG Export Plug-In . SVG Version: 6.00 Build 0)  -->
<svg version="1.1" id="Layer_1" xmlns="http://www.w3.org/2000/svg" xmlns:xlink="http://www.w3.org/1999/xlink" x="0px" y="0px"
	 viewBox="0 0 511.999 511.999" style="enable-background:new 0 0 511.999 511.999;" xml:space="preserve">
<g>
	<polygon style="fill:#F28544;" points="256,480.107 289.326,413.454 222.673,413.454 	"/>
	<polygon style="fill:#F28544;" points="256,31.454 222.673,98.108 289.326,98.108 	"/>
</g>
<g>
	<path style="fill:#314E55;" d="M206.727,167.09h98.546c5.442,0,9.855-4.408,9.855-9.855s-4.412-9.855-9.855-9.855h-98.546
		c-5.442,0-9.855,4.408-9.855,9.855S201.285,167.09,206.727,167.09z"/>
	<path style="fill:#314E55;" d="M305.273,196.653h-98.546c-5.442,0-9.855,4.408-9.855,9.855s4.412,9.855,9.855,9.855h98.546
		c5.442,0,9.855-4.408,9.855-9.855S310.715,196.653,305.273,196.653z"/>
	<path style="fill:#314E55;" d="M305.273,245.926h-98.546c-5.442,0-9.855,4.408-9.855,9.855c0,5.447,4.412,9.855,9.855,9.855h98.546
		c5.442,0,9.855-4.408,9.855-9.855C315.127,250.334,310.715,245.926,305.273,245.926z"/>
	<path style="fill:#314E55;" d="M305.273,295.199h-98.546c-5.442,0-9.855,4.408-9.855,9.855s4.412,9.855,9.855,9.855h98.546
		c5.442,0,9.855-4.408,9.855-9.855S310.715,295.199,305.273,295.199z"/>
	<path style="fill:#314E55;" d="M305.273,344.472h-98.546c-5.442,0-9.855,4.408-9.855,9.855c0,5.447,4.412,9.855,9.855,9.855h98.546
		c5.442,0,9.855-4.408,9.855-9.855C315.127,348.88,310.715,344.472,305.273,344.472z"/>
	<path style="fill:#314E55;" d="M206.727,117.817h98.546c3.416,0,6.587-1.771,8.382-4.677c1.795-2.906,1.958-6.534,0.433-9.585
		L264.815,5.009c-3.339-6.679-14.291-6.679-17.63,0l-49.273,98.546c-1.525,3.051-1.362,6.679,0.433,9.585
		C200.14,116.046,203.311,117.817,206.727,117.817z M256,31.454l33.326,66.653h-66.653L256,31.454z"/>
	<path style="fill:#314E55;" d="M305.273,393.745h-98.546c-3.416,0-6.587,1.771-8.382,4.677s-1.958,6.534-0.433,9.585l49.273,98.546
		c1.67,3.339,5.081,5.447,8.815,5.447s7.146-2.108,8.815-5.447l49.273-98.546c1.525-3.051,1.362-6.679-0.433-9.585
		S308.689,393.745,305.273,393.745z M256,480.107l-33.326-66.653h66.653L256,480.107z"/>
</g>
<g>
</g>
<g>
</g>
<g>
</g>
<g>
</g>
<g>
</g>
<g>
</g>
<g>
</g>
<g>
</g>
<g>
</g>
<g>
</g>
<g>
</g>
<g>
</g>
<g>
</g>
<g>
</g>
<g>
</g>
</svg>
