<?xml version="1.0" encoding="iso-8859-1"?>
<!-- Generator: Adobe Illustrator 19.0.0, SVG Export Plug-In . SVG Version: 6.00 Build 0)  -->
<svg version="1.1" id="Layer_1" xmlns="http://www.w3.org/2000/svg" xmlns:xlink="http://www.w3.org/1999/xlink" x="0px" y="0px"
	 viewBox="0 0 512 512" style="enable-background:new 0 0 512 512;" xml:space="preserve">
<path style="fill:#F28544;" d="M213.672,64.102c-82.475,0-149.571,67.096-149.571,149.571s67.096,149.571,149.571,149.571
	s149.571-67.096,149.571-149.571S296.147,64.102,213.672,64.102z M160.254,224.356h-53.418v-21.367h53.418V224.356z
	 M245.723,224.356h-64.102v-21.367h64.102V224.356z M267.091,224.356v-21.367h53.418v21.367H267.091z"/>
<path style="fill:#D8D8D8;" d="M405.978,213.672c0-106.033-86.267-192.305-192.305-192.305S21.367,107.64,21.367,213.672
	s86.267,192.305,192.305,192.305S405.978,319.705,405.978,213.672z M213.672,384.61c-94.254,0-170.938-76.684-170.938-170.938
	S119.419,42.734,213.672,42.734S384.61,119.419,384.61,213.672S307.926,384.61,213.672,384.61z"/>
<g>
	<path style="fill:#314E55;" d="M213.672,42.734c-94.254,0-170.938,76.684-170.938,170.938S119.419,384.61,213.672,384.61
		S384.61,307.926,384.61,213.672S307.926,42.734,213.672,42.734z M213.672,363.243c-82.475,0-149.571-67.096-149.571-149.571
		S131.198,64.102,213.672,64.102s149.571,67.096,149.571,149.571S296.147,363.243,213.672,363.243z"/>
	<rect x="106.836" y="202.989" style="fill:#314E55;" width="53.418" height="21.367"/>
	<rect x="181.622" y="202.989" style="fill:#314E55;" width="64.102" height="21.367"/>
	<rect x="267.091" y="202.989" style="fill:#314E55;" width="53.418" height="21.367"/>
	<path style="fill:#314E55;" d="M512,496.893L371.885,356.778c34.339-37.927,55.46-88.034,55.46-143.105
		C427.345,95.85,331.49,0,213.672,0S0,95.85,0,213.672s95.855,213.672,213.672,213.672c55.071,0,105.177-21.121,143.105-55.46
		L496.893,512L512,496.893z M21.367,213.672c0-106.033,86.267-192.305,192.305-192.305s192.305,86.272,192.305,192.305
		s-86.267,192.305-192.305,192.305S21.367,319.705,21.367,213.672z"/>
</g>
<g>
</g>
<g>
</g>
<g>
</g>
<g>
</g>
<g>
</g>
<g>
</g>
<g>
</g>
<g>
</g>
<g>
</g>
<g>
</g>
<g>
</g>
<g>
</g>
<g>
</g>
<g>
</g>
<g>
</g>
</svg>
