<?xml version="1.0" encoding="iso-8859-1"?>
<!-- Generator: Adobe Illustrator 19.0.0, SVG Export Plug-In . SVG Version: 6.00 Build 0)  -->
<svg version="1.1" id="Layer_1" xmlns="http://www.w3.org/2000/svg" xmlns:xlink="http://www.w3.org/1999/xlink" x="0px" y="0px"
	 viewBox="0 0 512 512" style="enable-background:new 0 0 512 512;" xml:space="preserve">
<path style="fill:#EA86A5;" d="M405.978,213.672c0-106.033-86.267-192.305-192.305-192.305S21.367,107.64,21.367,213.672
	s86.267,192.305,192.305,192.305S405.978,319.705,405.978,213.672z M213.672,64.102c-82.475,0-149.571,67.096-149.571,149.571
	c0,5.905-4.784,10.684-10.684,10.684s-10.684-4.779-10.684-10.684c0-94.254,76.684-170.938,170.938-170.938
	c5.9,0,10.684,4.779,10.684,10.684S219.572,64.102,213.672,64.102z"/>
<g>
	<path style="fill:#314E55;" d="M213.672,42.734c-94.254,0-170.938,76.684-170.938,170.938c0,5.905,4.784,10.684,10.684,10.684
		s10.684-4.779,10.684-10.684c0-82.475,67.096-149.571,149.571-149.571c5.9,0,10.684-4.779,10.684-10.684
		S219.572,42.734,213.672,42.734z"/>
	<path style="fill:#314E55;" d="M512,496.893L371.885,356.778c34.339-37.927,55.46-88.034,55.46-143.105
		C427.345,95.85,331.49,0,213.672,0S0,95.85,0,213.672s95.855,213.672,213.672,213.672c55.071,0,105.177-21.121,143.105-55.46
		L496.893,512L512,496.893z M21.367,213.672c0-106.033,86.267-192.305,192.305-192.305s192.305,86.272,192.305,192.305
		s-86.267,192.305-192.305,192.305S21.367,319.705,21.367,213.672z"/>
</g>
<g>
</g>
<g>
</g>
<g>
</g>
<g>
</g>
<g>
</g>
<g>
</g>
<g>
</g>
<g>
</g>
<g>
</g>
<g>
</g>
<g>
</g>
<g>
</g>
<g>
</g>
<g>
</g>
<g>
</g>
</svg>
