<?xml version="1.0" encoding="iso-8859-1"?>
<!-- Generator: Adobe Illustrator 19.0.0, SVG Export Plug-In . SVG Version: 6.00 Build 0)  -->
<svg version="1.1" id="Layer_1" xmlns="http://www.w3.org/2000/svg" xmlns:xlink="http://www.w3.org/1999/xlink" x="0px" y="0px"
	 viewBox="0 0 512 512" style="enable-background:new 0 0 512 512;" xml:space="preserve">
<circle style="fill:#D8D8D8;" cx="425.143" cy="242.286" r="13.714"/>
<path style="fill:#5ECB66;" d="M374.857,310.857h118.857V201.143H374.857V310.857z M425.143,210.286c17.643,0,32,14.357,32,32
	c0,5.491-1.518,10.585-3.966,15.105l22.207,22.207l-12.928,12.928l-22.207-22.207c-4.521,2.448-9.615,3.966-15.106,3.966
	c-17.643,0-32-14.357-32-32S407.5,210.286,425.143,210.286z"/>
<g>
	<polygon style="fill:#EAEAEA;" points="365.714,182.857 493.714,182.857 493.714,82.286 18.286,82.286 18.286,182.857 	"/>
	<polygon style="fill:#EAEAEA;" points="365.714,329.143 18.286,329.143 18.286,429.714 493.714,429.714 493.714,329.143 	"/>
</g>
<rect x="18.286" y="201.143" style="fill:#D8D8D8;" width="338.286" height="109.714"/>
<g>
	<path style="fill:#314E55;" d="M502.857,64H9.143C4.094,64,0,68.089,0,73.143V192v128v118.857C0,443.911,4.094,448,9.143,448
		h493.714c5.049,0,9.143-4.089,9.143-9.143V320V192V73.143C512,68.089,507.906,64,502.857,64z M493.714,82.286v100.571h-128H18.286
		V82.286H493.714z M493.714,310.857H374.857V201.143h118.857V310.857z M18.286,201.143h338.286v109.714H18.286V201.143z
		 M18.286,429.714V329.143h347.429h128v100.571H18.286z"/>
	<path style="fill:#314E55;" d="M425.143,274.286c5.491,0,10.585-1.518,15.105-3.966l22.207,22.207l12.928-12.928l-22.207-22.207
		c2.448-4.521,3.966-9.615,3.966-15.106c0-17.643-14.357-32-32-32c-17.643,0-32,14.357-32,32S407.5,274.286,425.143,274.286z
		 M425.143,228.571c7.563,0,13.714,6.152,13.714,13.714S432.705,256,425.143,256s-13.714-6.152-13.714-13.714
		S417.58,228.571,425.143,228.571z"/>
</g>
<g>
</g>
<g>
</g>
<g>
</g>
<g>
</g>
<g>
</g>
<g>
</g>
<g>
</g>
<g>
</g>
<g>
</g>
<g>
</g>
<g>
</g>
<g>
</g>
<g>
</g>
<g>
</g>
<g>
</g>
</svg>
