<?xml version="1.0" encoding="iso-8859-1"?>
<!-- Generator: Adobe Illustrator 19.0.0, SVG Export Plug-In . SVG Version: 6.00 Build 0)  -->
<svg version="1.1" id="Layer_1" xmlns="http://www.w3.org/2000/svg" xmlns:xlink="http://www.w3.org/1999/xlink" x="0px" y="0px"
	 viewBox="0 0 512 512" style="enable-background:new 0 0 512 512;" xml:space="preserve">
<path style="fill:#D26CBA;" d="M256.55,191.922c-35.294,0-64.016,28.717-64.016,64.016s28.721,64.016,64.016,64.016
	s64.016-28.717,64.016-64.016S291.845,191.922,256.55,191.922z"/>
<g>
	<path style="fill:#314E55;" d="M282.923,492.263c-8.69,0.96-17.567,1.447-26.373,1.447c-5.055,0-9.145,4.095-9.145,9.145
		s4.09,9.145,9.145,9.145c9.475,0,19.022-0.522,28.373-1.554c5.019-0.554,8.645-5.073,8.091-10.096
		C292.461,495.331,287.969,491.723,282.923,492.263z"/>
	<path style="fill:#314E55;" d="M358.772,470.677c-7.921,3.782-16.147,7.149-24.426,10.011c-4.769,1.652-7.305,6.859-5.653,11.632
		c1.313,3.787,4.849,6.162,8.645,6.162c0.991,0,2-0.165,2.992-0.505c8.922-3.09,17.781-6.72,26.319-10.797
		c4.555-2.175,6.493-7.631,4.314-12.19C368.792,470.432,363.317,468.485,358.772,470.677z"/>
	<path style="fill:#314E55;" d="M373.882,28.284c-8.404-4.34-17.147-8.247-25.971-11.614c-4.689-1.8-10.002,0.554-11.807,5.282
		c-1.795,4.72,0.572,10.002,5.287,11.802c8.189,3.126,16.299,6.752,24.095,10.784c1.34,0.692,2.777,1.018,4.188,1.018
		c3.313,0,6.511-1.804,8.136-4.948C380.125,36.12,378.366,30.606,373.882,28.284z"/>
	<path style="fill:#314E55;" d="M140.951,463.774c-7.681-4.287-15.182-9.038-22.3-14.115c-4.126-2.925-9.824-1.974-12.762,2.13
		c-2.929,4.113-1.974,9.824,2.134,12.758c7.663,5.47,15.745,10.583,24.015,15.196c1.411,0.79,2.938,1.161,4.447,1.161
		c3.206,0,6.323-1.688,7.993-4.689C146.943,471.803,145.362,466.234,140.951,463.774z"/>
	<path style="fill:#314E55;" d="M215.263,490.142c-8.645-1.514-17.29-3.532-25.703-5.997c-4.84-1.429-9.922,1.358-11.351,6.202
		c-1.42,4.845,1.358,9.927,6.207,11.347c9.056,2.657,18.371,4.832,27.685,6.461c0.536,0.094,1.072,0.138,1.59,0.138
		c4.358,0,8.225-3.126,9.002-7.569C223.56,495.75,220.238,491.013,215.263,490.142z"/>
	<path style="fill:#314E55;" d="M183.202,29.239c0.893,0,1.813-0.134,2.715-0.415c8.368-2.599,16.986-4.756,25.604-6.408
		c4.957-0.947,8.207-5.738,7.261-10.699s-5.76-8.203-10.708-7.261c-9.279,1.777-18.558,4.099-27.587,6.899
		c-4.823,1.5-7.52,6.622-6.019,11.445C175.682,26.721,179.299,29.239,183.202,29.239z"/>
	<path style="fill:#314E55;" d="M489.33,207.207c1.795,8.627,3.117,17.41,3.939,26.105c0.447,4.738,4.43,8.288,9.092,8.288
		c0.286,0,0.572-0.013,0.866-0.04c5.028-0.473,8.725-4.934,8.243-9.962c-0.875-9.364-2.304-18.822-4.224-28.105
		c-1.036-4.948-5.912-8.14-10.815-7.095C491.483,197.419,488.312,202.259,489.33,207.207z"/>
	<path style="fill:#314E55;" d="M502.646,278.108c-5.126-0.665-9.592,2.925-10.217,7.931c-1.09,8.667-2.688,17.402-4.751,25.966
		c-1.188,4.908,1.831,9.851,6.743,11.034c0.723,0.174,1.438,0.254,2.152,0.254c4.126,0,7.868-2.813,8.877-7.002
		c2.224-9.221,3.947-18.629,5.126-27.967C511.211,283.31,507.656,278.738,502.646,278.108z"/>
	<path style="fill:#314E55;" d="M421.126,59.756c-3.867-3.242-9.627-2.742-12.887,1.116c-3.251,3.867-2.751,9.636,1.116,12.887
		c6.707,5.64,13.191,11.722,19.255,18.076c1.804,1.884,4.206,2.831,6.618,2.831c2.268,0,4.546-0.84,6.314-2.532
		c3.653-3.487,3.787-9.274,0.304-12.927C435.317,72.366,428.342,65.824,421.126,59.756z"/>
	<path style="fill:#314E55;" d="M423.359,425.372c-6.252,6.158-12.914,12.034-19.808,17.46c-3.965,3.126-4.644,8.877-1.518,12.842
		c1.804,2.291,4.483,3.487,7.189,3.487c1.974,0,3.974-0.639,5.653-1.96c7.413-5.845,14.593-12.168,21.327-18.799
		c3.59-3.546,3.635-9.333,0.098-12.932C432.754,421.875,426.976,421.817,423.359,425.372z"/>
	<path style="fill:#314E55;" d="M481.9,357.391c-4.519-2.246-10.02-0.393-12.253,4.135c-3.885,7.832-8.27,15.548-13.021,22.943
		c-2.733,4.247-1.509,9.904,2.742,12.637c1.527,0.987,3.242,1.456,4.939,1.456c3.01,0,5.948-1.482,7.698-4.197
		c5.126-7.962,9.842-16.276,14.021-24.72C488.277,365.12,486.419,359.632,481.9,357.391z"/>
	<path style="fill:#314E55;" d="M28.352,322.94c-1.42-4.836-6.484-7.627-11.351-6.198c-4.849,1.42-7.627,6.502-6.207,11.351
		c2.661,9.047,5.859,18.062,9.529,26.801c1.465,3.501,4.858,5.613,8.431,5.613c1.179,0,2.385-0.232,3.537-0.714
		c4.662-1.956,6.85-7.314,4.894-11.972C33.782,339.708,30.808,331.34,28.352,322.94z"/>
	<path style="fill:#314E55;" d="M19.242,271.035c-0.313-4.992-0.464-10.029-0.464-15.075c0.009-3.8,0.098-7.587,0.268-11.347
		c0.232-5.046-3.671-9.324-8.716-9.556c-4.957-0.129-9.324,3.666-9.556,8.716c-0.187,4.028-0.277,8.073-0.286,12.164
		c0,5.452,0.17,10.864,0.5,16.232c0.304,4.849,4.322,8.578,9.118,8.578c0.187,0,0.384-0.005,0.572-0.018
		C15.724,280.416,19.555,276.076,19.242,271.035z"/>
	<path style="fill:#314E55;" d="M53.125,125.08c2.911,0,5.769-1.384,7.538-3.961c4.957-7.189,10.387-14.209,16.165-20.862
		c3.304-3.818,2.894-9.592-0.92-12.901c-3.822-3.304-9.583-2.902-12.905,0.915c-6.207,7.167-12.065,14.727-17.397,22.479
		c-2.867,4.157-1.813,9.855,2.34,12.717C49.535,124.557,51.339,125.08,53.125,125.08z"/>
	<path style="fill:#314E55;" d="M264.079,18.286c8.788,0.272,17.638,1.036,26.292,2.273c0.447,0.058,0.875,0.089,1.304,0.089
		c4.483,0,8.395-3.291,9.047-7.854c0.714-5.001-2.768-9.632-7.761-10.342c-9.333-1.331-18.853-2.152-28.31-2.447
		c-4.966-0.156-9.27,3.805-9.431,8.859C255.068,13.91,259.033,18.129,264.079,18.286z"/>
	<path style="fill:#314E55;" d="M16.072,198.95c0.813,0.228,1.625,0.335,2.438,0.335c4.01,0,7.689-2.661,8.806-6.721
		c2.331-8.453,5.171-16.866,8.431-25.006c1.884-4.684-0.393-10.011-5.082-11.891c-4.698-1.88-10.011,0.393-11.887,5.086
		c-3.519,8.77-6.582,17.839-9.092,26.949C8.338,192.574,11.205,197.611,16.072,198.95z"/>
	<path style="fill:#314E55;" d="M472.889,157.123c1.536,3.358,4.849,5.336,8.323,5.336c1.268,0,2.563-0.263,3.796-0.831
		c4.599-2.103,6.609-7.529,4.51-12.123c-3.947-8.609-8.404-17.075-13.262-25.162c-2.599-4.327-8.207-5.738-12.548-3.13
		c-4.331,2.603-5.734,8.221-3.135,12.552C465.083,141.267,469.227,149.126,472.889,157.123z"/>
	<path style="fill:#314E55;" d="M115.56,64.467c7.046-5.207,14.477-10.074,22.077-14.477c4.367-2.527,5.867-8.122,3.331-12.494
		c-2.536-4.376-8.109-5.872-12.494-3.331c-8.189,4.738-16.182,9.98-23.774,15.584c-4.063,3.001-4.93,8.73-1.929,12.793
		c1.795,2.425,4.564,3.711,7.368,3.711C112.024,66.253,113.926,65.672,115.56,64.467z"/>
	<path style="fill:#314E55;" d="M62.86,393.877c-2.938-4.113-8.654-5.068-12.753-2.139c-4.117,2.934-5.073,8.645-2.143,12.758
		c5.457,7.654,11.431,15.12,17.763,22.193c1.804,2.023,4.305,3.05,6.814,3.05c2.17,0,4.349-0.768,6.1-2.331
		c3.76-3.367,4.081-9.145,0.714-12.909C73.479,407.921,67.924,400.986,62.86,393.877z"/>
	<path style="fill:#314E55;" d="M256.55,173.632c-45.386,0-82.306,36.924-82.306,82.306s36.92,82.306,82.306,82.306
		s82.306-36.924,82.306-82.306S301.936,173.632,256.55,173.632z M256.55,319.953c-35.294,0-64.016-28.717-64.016-64.016
		s28.721-64.016,64.016-64.016s64.016,28.717,64.016,64.016S291.845,319.953,256.55,319.953z"/>
</g>
<g>
</g>
<g>
</g>
<g>
</g>
<g>
</g>
<g>
</g>
<g>
</g>
<g>
</g>
<g>
</g>
<g>
</g>
<g>
</g>
<g>
</g>
<g>
</g>
<g>
</g>
<g>
</g>
<g>
</g>
</svg>
