<?xml version="1.0" encoding="iso-8859-1"?>
<!-- Generator: Adobe Illustrator 19.0.0, SVG Export Plug-In . SVG Version: 6.00 Build 0)  -->
<svg version="1.1" id="Layer_1" xmlns="http://www.w3.org/2000/svg" xmlns:xlink="http://www.w3.org/1999/xlink" x="0px" y="0px"
	 viewBox="0 0 512 512" style="enable-background:new 0 0 512 512;" xml:space="preserve">
<g>
	<polygon style="fill:#E65F58;" points="398.222,113.778 436.148,113.778 455.111,113.778 493.037,113.778 493.037,18.963 
		398.222,18.963 398.222,56.889 398.222,75.852 	"/>
	<polygon style="fill:#E65F58;" points="113.778,398.222 75.852,398.222 56.889,398.222 18.963,398.222 18.963,493.037 
		113.778,493.037 113.778,455.111 113.778,436.148 	"/>
	<polygon style="fill:#E65F58;" points="113.778,113.778 113.778,75.852 113.778,56.889 113.778,18.963 18.963,18.963 
		18.963,113.778 56.889,113.778 75.852,113.778 	"/>
	<polygon style="fill:#E65F58;" points="398.222,398.222 398.222,436.148 398.222,455.111 398.222,493.037 493.037,493.037 
		493.037,398.222 455.111,398.222 436.148,398.222 	"/>
</g>
<path style="fill:#314E55;" d="M502.519,132.741c5.236,0,9.481-4.245,9.481-9.481V9.481C512,4.245,507.755,0,502.519,0H388.741
	c-5.236,0-9.481,4.245-9.481,9.481v47.407H132.741V9.481c0-5.236-4.245-9.481-9.481-9.481H9.481C4.245,0,0,4.245,0,9.481v113.778
	c0,5.236,4.245,9.481,9.481,9.481h47.407v246.519H9.481c-5.236,0-9.481,4.245-9.481,9.481v113.778C0,507.755,4.245,512,9.481,512
	h113.778c5.236,0,9.481-4.245,9.481-9.481v-47.407h246.519v47.407c0,5.236,4.245,9.481,9.481,9.481h113.778
	c5.236,0,9.481-4.245,9.481-9.481V388.741c0-5.236-4.245-9.481-9.481-9.481h-47.407V132.741H502.519z M398.222,18.963h94.815v94.815
	h-37.926h-18.963h-37.926V75.852V56.889V18.963z M18.963,113.778V18.963h94.815v37.926v18.963v37.926H75.852H56.889H18.963z
	 M113.778,493.037H18.963v-94.815h37.926h18.963h37.926v37.926v18.963V493.037z M493.037,398.222v94.815h-94.815v-37.926v-18.963
	v-37.926h37.926h18.963H493.037z M436.148,379.259h-47.407c-5.236,0-9.481,4.245-9.481,9.481v47.407H132.741v-47.407
	c0-5.236-4.245-9.481-9.481-9.481H75.852V132.741h47.407c5.236,0,9.481-4.245,9.481-9.481V75.852h246.519v47.407
	c0,5.236,4.245,9.481,9.481,9.481h47.407V379.259z"/>
<g>
</g>
<g>
</g>
<g>
</g>
<g>
</g>
<g>
</g>
<g>
</g>
<g>
</g>
<g>
</g>
<g>
</g>
<g>
</g>
<g>
</g>
<g>
</g>
<g>
</g>
<g>
</g>
<g>
</g>
</svg>
