<?xml version="1.0" encoding="iso-8859-1"?>
<!-- Generator: Adobe Illustrator 19.0.0, SVG Export Plug-In . SVG Version: 6.00 Build 0)  -->
<svg version="1.1" id="Layer_1" xmlns="http://www.w3.org/2000/svg" xmlns:xlink="http://www.w3.org/1999/xlink" x="0px" y="0px"
	 viewBox="0 0 512 512" style="enable-background:new 0 0 512 512;" xml:space="preserve">
<g>
	<polygon style="fill:#E65F58;" points="78.769,78.769 78.769,59.077 78.769,39.385 78.769,19.692 19.692,19.692 19.692,78.769 
		39.385,78.769 59.077,78.769 	"/>
	<polygon style="fill:#E65F58;" points="78.769,285.538 78.769,226.462 59.077,226.462 59.077,226.841 39.385,226.841 
		39.385,226.462 19.692,226.462 19.692,285.538 39.385,285.538 59.077,285.538 	"/>
	<polygon style="fill:#E65F58;" points="226.462,78.769 285.538,78.769 285.538,59.077 285.538,39.385 285.538,19.692 
		226.462,19.692 226.462,39.385 226.462,59.077 	"/>
	<polygon style="fill:#E65F58;" points="433.231,78.769 452.923,78.769 472.615,78.769 492.308,78.769 492.308,19.692 
		433.231,19.692 433.231,39.385 433.231,59.077 	"/>
	<polygon style="fill:#E65F58;" points="78.769,433.231 59.077,433.231 59.077,433.611 39.385,433.611 39.385,433.231 
		19.692,433.231 19.692,492.308 78.769,492.308 78.769,472.615 78.769,452.923 	"/>
	<polygon style="fill:#E65F58;" points="285.538,433.231 226.462,433.231 226.462,452.923 226.462,472.615 226.462,492.308 
		285.538,492.308 285.538,472.615 285.538,452.923 	"/>
	<polygon style="fill:#E65F58;" points="452.923,433.611 452.923,433.231 433.231,433.231 433.231,452.923 433.231,472.615 
		433.231,492.308 492.308,492.308 492.308,433.231 472.615,433.231 472.615,433.611 	"/>
	<polygon style="fill:#E65F58;" points="452.923,226.841 452.923,226.462 433.231,226.462 433.231,285.538 452.923,285.538 
		472.615,285.538 492.308,285.538 492.308,226.462 472.615,226.462 472.615,226.841 	"/>
</g>
<path style="fill:#314E55;" d="M502.154,98.462c5.438,0,9.846-4.409,9.846-9.846V9.846C512,4.409,507.591,0,502.154,0h-78.769
	c-5.438,0-9.846,4.409-9.846,9.846v29.538H305.231V9.846c0-5.438-4.409-9.846-9.846-9.846h-78.769c-5.438,0-9.846,4.409-9.846,9.846
	v29.538H98.462V9.846C98.462,4.409,94.053,0,88.615,0H9.846C4.409,0,0,4.409,0,9.846v78.769c0,5.438,4.409,9.846,9.846,9.846h29.538
	v108.308H9.846c-5.438,0-9.846,4.409-9.846,9.846v78.769c0,5.438,4.409,9.846,9.846,9.846h29.538v108.308H9.846
	c-5.438,0-9.846,4.409-9.846,9.846v78.769C0,507.591,4.409,512,9.846,512h78.769c5.438,0,9.846-4.409,9.846-9.846v-29.538h108.308
	v29.538c0,5.438,4.409,9.846,9.846,9.846h78.769c5.438,0,9.846-4.409,9.846-9.846v-29.538h108.308v29.538
	c0,5.438,4.409,9.846,9.846,9.846h78.769c5.438,0,9.846-4.409,9.846-9.846v-78.769c0-5.438-4.409-9.846-9.846-9.846h-29.538V305.231
	h29.538c5.438,0,9.846-4.409,9.846-9.846v-78.769c0-5.438-4.409-9.846-9.846-9.846h-29.538V98.462H502.154z M433.231,19.692h59.077
	v59.077h-19.692h-19.692h-19.692V59.077V39.385V19.692z M226.462,19.692h59.077v19.692v19.692v19.692h-59.077V59.077V39.385V19.692z
	 M19.692,78.769V19.692h59.077v19.692v19.692v19.692H59.077H39.385H19.692z M19.692,285.538v-59.077h19.692v0.38h19.692v-0.38
	h19.692v59.077H59.077H39.385H19.692z M78.769,492.308H19.692v-59.077h19.692v0.38h19.692v-0.38h19.692v19.692v19.692V492.308z
	 M285.538,492.308h-59.077v-19.692v-19.692v-19.692h59.077v19.692v19.692V492.308z M492.308,433.231v59.077h-59.077v-19.692v-19.692
	v-19.692h19.692v0.38h19.692v-0.38H492.308z M492.308,226.462v59.077h-19.692h-19.692h-19.692v-59.077h19.692v0.38h19.692v-0.38
	H492.308z M452.923,206.769h-29.538c-5.438,0-9.846,4.409-9.846,9.846v78.769c0,5.438,4.409,9.846,9.846,9.846h29.538v108.308
	h-29.538c-5.438,0-9.846,4.409-9.846,9.846v29.538H305.231v-29.538c0-5.438-4.409-9.846-9.846-9.846h-78.769
	c-5.438,0-9.846,4.409-9.846,9.846v29.538H98.462v-29.538c0-5.438-4.409-9.846-9.846-9.846H59.077V305.231h29.538
	c5.438,0,9.846-4.409,9.846-9.846v-78.769c0-5.438-4.409-9.846-9.846-9.846H59.077V98.462h29.538c5.438,0,9.846-4.409,9.846-9.846
	V59.077h108.308v29.538c0,5.438,4.409,9.846,9.846,9.846h78.769c5.438,0,9.846-4.409,9.846-9.846V59.077h108.308v29.538
	c0,5.438,4.409,9.846,9.846,9.846h29.538V206.769z"/>
<g>
</g>
<g>
</g>
<g>
</g>
<g>
</g>
<g>
</g>
<g>
</g>
<g>
</g>
<g>
</g>
<g>
</g>
<g>
</g>
<g>
</g>
<g>
</g>
<g>
</g>
<g>
</g>
<g>
</g>
</svg>
