<?xml version="1.0" encoding="iso-8859-1"?>
<!-- Generator: Adobe Illustrator 19.0.0, SVG Export Plug-In . SVG Version: 6.00 Build 0)  -->
<svg version="1.1" id="Layer_1" xmlns="http://www.w3.org/2000/svg" xmlns:xlink="http://www.w3.org/1999/xlink" x="0px" y="0px"
	 viewBox="0 0 512 512" style="enable-background:new 0 0 512 512;" xml:space="preserve">
<path style="fill:#E9E7D1;" d="M19.692,492.308h472.615V19.692H19.692V492.308z M423.385,78.769c0-5.438,4.409-9.846,9.846-9.846
	c5.438,0,9.846,4.409,9.846,9.846v9.846c0,5.438-4.409,9.846-9.846,9.846c-5.438,0-9.846-4.409-9.846-9.846V78.769z
	 M423.385,118.154c0-5.438,4.409-9.846,9.846-9.846c5.438,0,9.846,4.409,9.846,9.846V128c0,5.438-4.409,9.846-9.846,9.846
	c-5.438,0-9.846-4.409-9.846-9.846V118.154z M423.385,157.538c0-5.438,4.409-9.846,9.846-9.846c5.438,0,9.846,4.409,9.846,9.846
	v9.846c0,5.438-4.409,9.846-9.846,9.846c-5.438,0-9.846-4.409-9.846-9.846V157.538z M423.385,196.923
	c0-5.438,4.409-9.846,9.846-9.846c5.438,0,9.846,4.409,9.846,9.846v9.846c0,5.438-4.409,9.846-9.846,9.846
	c-5.438,0-9.846-4.409-9.846-9.846V196.923z M423.385,236.308c0-5.438,4.409-9.846,9.846-9.846c5.438,0,9.846,4.409,9.846,9.846
	v9.846c0,5.438-4.409,9.846-9.846,9.846c-5.438,0-9.846-4.409-9.846-9.846V236.308z M423.385,275.692
	c0-5.438,4.409-9.846,9.846-9.846c5.438,0,9.846,4.409,9.846,9.846v9.846c0,5.438-4.409,9.846-9.846,9.846
	c-5.438,0-9.846-4.409-9.846-9.846V275.692z M423.385,315.077c0-5.438,4.409-9.846,9.846-9.846c5.438,0,9.846,4.409,9.846,9.846
	v9.846c0,5.438-4.409,9.846-9.846,9.846c-5.438,0-9.846-4.409-9.846-9.846V315.077z M423.385,354.462
	c0-5.438,4.409-9.846,9.846-9.846c5.438,0,9.846,4.409,9.846,9.846v9.846c0,5.438-4.409,9.846-9.846,9.846
	c-5.438,0-9.846-4.409-9.846-9.846V354.462z M423.385,393.846c0-5.438,4.409-9.846,9.846-9.846c5.438,0,9.846,4.409,9.846,9.846
	v9.846c0,5.438-4.409,9.846-9.846,9.846c-5.438,0-9.846-4.409-9.846-9.846V393.846z M423.385,423.385h9.846
	c5.438,0,9.846,4.409,9.846,9.846c0,5.438-4.409,9.846-9.846,9.846h-9.846c-5.438,0-9.846-4.409-9.846-9.846
	C413.538,427.793,417.947,423.385,423.385,423.385z M393.846,68.923h9.846c5.438,0,9.846,4.409,9.846,9.846
	s-4.409,9.846-9.846,9.846h-9.846c-5.438,0-9.846-4.409-9.846-9.846S388.409,68.923,393.846,68.923z M384,423.385h9.846
	c5.438,0,9.846,4.409,9.846,9.846c0,5.438-4.409,9.846-9.846,9.846H384c-5.438,0-9.846-4.409-9.846-9.846
	C374.154,427.793,378.562,423.385,384,423.385z M354.462,68.923h9.846c5.438,0,9.846,4.409,9.846,9.846s-4.409,9.846-9.846,9.846
	h-9.846c-5.438,0-9.846-4.409-9.846-9.846S349.024,68.923,354.462,68.923z M344.615,423.385h9.846c5.438,0,9.846,4.409,9.846,9.846
	c0,5.438-4.409,9.846-9.846,9.846h-9.846c-5.438,0-9.846-4.409-9.846-9.846C334.769,427.793,339.178,423.385,344.615,423.385z
	 M315.077,68.923h9.846c5.438,0,9.846,4.409,9.846,9.846s-4.409,9.846-9.846,9.846h-9.846c-5.438,0-9.846-4.409-9.846-9.846
	S309.639,68.923,315.077,68.923z M305.231,423.385h9.846c5.438,0,9.846,4.409,9.846,9.846c0,5.438-4.409,9.846-9.846,9.846h-9.846
	c-5.438,0-9.846-4.409-9.846-9.846C295.385,427.793,299.793,423.385,305.231,423.385z M275.692,68.923h9.846
	c5.438,0,9.846,4.409,9.846,9.846s-4.409,9.846-9.846,9.846h-9.846c-5.438,0-9.846-4.409-9.846-9.846S270.255,68.923,275.692,68.923
	z M265.846,423.385h9.846c5.438,0,9.846,4.409,9.846,9.846c0,5.438-4.409,9.846-9.846,9.846h-9.846
	c-5.438,0-9.846-4.409-9.846-9.846C256,427.793,260.409,423.385,265.846,423.385z M236.308,68.923h9.846
	c5.438,0,9.846,4.409,9.846,9.846s-4.409,9.846-9.846,9.846h-9.846c-5.438,0-9.846-4.409-9.846-9.846S230.87,68.923,236.308,68.923z
	 M226.462,423.385h9.846c5.438,0,9.846,4.409,9.846,9.846c0,5.438-4.409,9.846-9.846,9.846h-9.846c-5.438,0-9.846-4.409-9.846-9.846
	C216.615,427.793,221.024,423.385,226.462,423.385z M196.923,68.923h9.846c5.438,0,9.846,4.409,9.846,9.846
	s-4.409,9.846-9.846,9.846h-9.846c-5.438,0-9.846-4.409-9.846-9.846S191.486,68.923,196.923,68.923z M187.077,423.385h9.846
	c5.438,0,9.846,4.409,9.846,9.846c0,5.438-4.409,9.846-9.846,9.846h-9.846c-5.438,0-9.846-4.409-9.846-9.846
	C177.231,427.793,181.639,423.385,187.077,423.385z M157.538,68.923h9.846c5.438,0,9.846,4.409,9.846,9.846
	s-4.409,9.846-9.846,9.846h-9.846c-5.438,0-9.846-4.409-9.846-9.846S152.101,68.923,157.538,68.923z M147.692,423.385h9.846
	c5.438,0,9.846,4.409,9.846,9.846c0,5.438-4.409,9.846-9.846,9.846h-9.846c-5.438,0-9.846-4.409-9.846-9.846
	C137.846,427.793,142.255,423.385,147.692,423.385z M118.154,68.923H128c5.438,0,9.846,4.409,9.846,9.846s-4.409,9.846-9.846,9.846
	h-9.846c-5.438,0-9.846-4.409-9.846-9.846S112.716,68.923,118.154,68.923z M108.308,423.385h9.846c5.438,0,9.846,4.409,9.846,9.846
	c0,5.438-4.409,9.846-9.846,9.846h-9.846c-5.438,0-9.846-4.409-9.846-9.846C98.462,427.793,102.87,423.385,108.308,423.385z
	 M78.769,68.923h9.846c5.438,0,9.846,4.409,9.846,9.846s-4.409,9.846-9.846,9.846h-9.846c-5.438,0-9.846-4.409-9.846-9.846
	S73.332,68.923,78.769,68.923z M68.923,108.308c0-5.438,4.409-9.846,9.846-9.846s9.846,4.409,9.846,9.846v9.846
	c0,5.438-4.409,9.846-9.846,9.846s-9.846-4.409-9.846-9.846V108.308z M68.923,147.692c0-5.438,4.409-9.846,9.846-9.846
	s9.846,4.409,9.846,9.846v9.846c0,5.438-4.409,9.846-9.846,9.846s-9.846-4.409-9.846-9.846V147.692z M68.923,187.077
	c0-5.438,4.409-9.846,9.846-9.846s9.846,4.409,9.846,9.846v9.846c0,5.438-4.409,9.846-9.846,9.846s-9.846-4.409-9.846-9.846V187.077
	z M68.923,226.462c0-5.438,4.409-9.846,9.846-9.846s9.846,4.409,9.846,9.846v9.846c0,5.438-4.409,9.846-9.846,9.846
	s-9.846-4.409-9.846-9.846V226.462z M68.923,265.846c0-5.438,4.409-9.846,9.846-9.846s9.846,4.409,9.846,9.846v9.846
	c0,5.438-4.409,9.846-9.846,9.846s-9.846-4.409-9.846-9.846V265.846z M68.923,305.231c0-5.438,4.409-9.846,9.846-9.846
	s9.846,4.409,9.846,9.846v9.846c0,5.438-4.409,9.846-9.846,9.846s-9.846-4.409-9.846-9.846V305.231z M68.923,344.615
	c0-5.438,4.409-9.846,9.846-9.846s9.846,4.409,9.846,9.846v9.846c0,5.438-4.409,9.846-9.846,9.846s-9.846-4.409-9.846-9.846V344.615
	z M68.923,384c0-5.438,4.409-9.846,9.846-9.846s9.846,4.409,9.846,9.846v9.846c0,5.438-4.409,9.846-9.846,9.846
	s-9.846-4.409-9.846-9.846V384z M68.923,423.385c0-5.438,4.409-9.846,9.846-9.846s9.846,4.409,9.846,9.846v9.846
	c0,5.438-4.409,9.846-9.846,9.846s-9.846-4.409-9.846-9.846V423.385z"/>
<g>
	<path style="fill:#314E55;" d="M502.154,0H9.846C4.409,0,0,4.409,0,9.846v492.308C0,507.591,4.409,512,9.846,512h492.308
		c5.438,0,9.846-4.409,9.846-9.846V9.846C512,4.409,507.591,0,502.154,0z M492.308,492.308H19.692V19.692h472.615V492.308z"/>
	<path style="fill:#314E55;" d="M108.308,443.077h9.846c5.438,0,9.846-4.409,9.846-9.846c0-5.438-4.409-9.846-9.846-9.846h-9.846
		c-5.438,0-9.846,4.409-9.846,9.846C98.462,438.668,102.87,443.077,108.308,443.077z"/>
	<path style="fill:#314E55;" d="M118.154,88.615H128c5.438,0,9.846-4.409,9.846-9.846s-4.409-9.846-9.846-9.846h-9.846
		c-5.438,0-9.846,4.409-9.846,9.846S112.716,88.615,118.154,88.615z"/>
	<path style="fill:#314E55;" d="M78.769,88.615h9.846c5.438,0,9.846-4.409,9.846-9.846s-4.409-9.846-9.846-9.846h-9.846
		c-5.438,0-9.846,4.409-9.846,9.846S73.332,88.615,78.769,88.615z"/>
	<path style="fill:#314E55;" d="M147.692,443.077h9.846c5.438,0,9.846-4.409,9.846-9.846c0-5.438-4.409-9.846-9.846-9.846h-9.846
		c-5.438,0-9.846,4.409-9.846,9.846C137.846,438.668,142.255,443.077,147.692,443.077z"/>
	<path style="fill:#314E55;" d="M196.923,88.615h9.846c5.438,0,9.846-4.409,9.846-9.846s-4.409-9.846-9.846-9.846h-9.846
		c-5.438,0-9.846,4.409-9.846,9.846S191.486,88.615,196.923,88.615z"/>
	<path style="fill:#314E55;" d="M433.231,98.462c5.438,0,9.846-4.409,9.846-9.846v-9.846c0-5.438-4.409-9.846-9.846-9.846
		c-5.438,0-9.846,4.409-9.846,9.846v9.846C423.385,94.053,427.793,98.462,433.231,98.462z"/>
	<path style="fill:#314E55;" d="M78.769,128c5.438,0,9.846-4.409,9.846-9.846v-9.846c0-5.438-4.409-9.846-9.846-9.846
		s-9.846,4.409-9.846,9.846v9.846C68.923,123.591,73.332,128,78.769,128z"/>
	<path style="fill:#314E55;" d="M187.077,443.077h9.846c5.438,0,9.846-4.409,9.846-9.846c0-5.438-4.409-9.846-9.846-9.846h-9.846
		c-5.438,0-9.846,4.409-9.846,9.846C177.231,438.668,181.639,443.077,187.077,443.077z"/>
	<path style="fill:#314E55;" d="M236.308,88.615h9.846c5.438,0,9.846-4.409,9.846-9.846s-4.409-9.846-9.846-9.846h-9.846
		c-5.438,0-9.846,4.409-9.846,9.846S230.87,88.615,236.308,88.615z"/>
	<path style="fill:#314E55;" d="M157.538,88.615h9.846c5.438,0,9.846-4.409,9.846-9.846s-4.409-9.846-9.846-9.846h-9.846
		c-5.438,0-9.846,4.409-9.846,9.846S152.101,88.615,157.538,88.615z"/>
	<path style="fill:#314E55;" d="M78.769,364.308c5.438,0,9.846-4.409,9.846-9.846v-9.846c0-5.438-4.409-9.846-9.846-9.846
		s-9.846,4.409-9.846,9.846v9.846C68.923,359.899,73.332,364.308,78.769,364.308z"/>
	<path style="fill:#314E55;" d="M78.769,324.923c5.438,0,9.846-4.409,9.846-9.846v-9.846c0-5.438-4.409-9.846-9.846-9.846
		s-9.846,4.409-9.846,9.846v9.846C68.923,320.514,73.332,324.923,78.769,324.923z"/>
	<path style="fill:#314E55;" d="M78.769,403.692c5.438,0,9.846-4.409,9.846-9.846V384c0-5.438-4.409-9.846-9.846-9.846
		s-9.846,4.409-9.846,9.846v9.846C68.923,399.284,73.332,403.692,78.769,403.692z"/>
	<path style="fill:#314E55;" d="M78.769,443.077c5.438,0,9.846-4.409,9.846-9.846v-9.846c0-5.438-4.409-9.846-9.846-9.846
		s-9.846,4.409-9.846,9.846v9.846C68.923,438.668,73.332,443.077,78.769,443.077z"/>
	<path style="fill:#314E55;" d="M78.769,246.154c5.438,0,9.846-4.409,9.846-9.846v-9.846c0-5.438-4.409-9.846-9.846-9.846
		s-9.846,4.409-9.846,9.846v9.846C68.923,241.745,73.332,246.154,78.769,246.154z"/>
	<path style="fill:#314E55;" d="M78.769,206.769c5.438,0,9.846-4.409,9.846-9.846v-9.846c0-5.438-4.409-9.846-9.846-9.846
		s-9.846,4.409-9.846,9.846v9.846C68.923,202.361,73.332,206.769,78.769,206.769z"/>
	<path style="fill:#314E55;" d="M78.769,285.538c5.438,0,9.846-4.409,9.846-9.846v-9.846c0-5.438-4.409-9.846-9.846-9.846
		s-9.846,4.409-9.846,9.846v9.846C68.923,281.13,73.332,285.538,78.769,285.538z"/>
	<path style="fill:#314E55;" d="M78.769,167.385c5.438,0,9.846-4.409,9.846-9.846v-9.846c0-5.438-4.409-9.846-9.846-9.846
		s-9.846,4.409-9.846,9.846v9.846C68.923,162.976,73.332,167.385,78.769,167.385z"/>
	<path style="fill:#314E55;" d="M226.462,443.077h9.846c5.438,0,9.846-4.409,9.846-9.846c0-5.438-4.409-9.846-9.846-9.846h-9.846
		c-5.438,0-9.846,4.409-9.846,9.846C216.615,438.668,221.024,443.077,226.462,443.077z"/>
	<path style="fill:#314E55;" d="M433.231,295.385c5.438,0,9.846-4.409,9.846-9.846v-9.846c0-5.438-4.409-9.846-9.846-9.846
		c-5.438,0-9.846,4.409-9.846,9.846v9.846C423.385,290.976,427.793,295.385,433.231,295.385z"/>
	<path style="fill:#314E55;" d="M433.231,334.769c5.438,0,9.846-4.409,9.846-9.846v-9.846c0-5.438-4.409-9.846-9.846-9.846
		c-5.438,0-9.846,4.409-9.846,9.846v9.846C423.385,330.361,427.793,334.769,433.231,334.769z"/>
	<path style="fill:#314E55;" d="M433.231,374.154c5.438,0,9.846-4.409,9.846-9.846v-9.846c0-5.438-4.409-9.846-9.846-9.846
		c-5.438,0-9.846,4.409-9.846,9.846v9.846C423.385,369.745,427.793,374.154,433.231,374.154z"/>
	<path style="fill:#314E55;" d="M433.231,256c5.438,0,9.846-4.409,9.846-9.846v-9.846c0-5.438-4.409-9.846-9.846-9.846
		c-5.438,0-9.846,4.409-9.846,9.846v9.846C423.385,251.591,427.793,256,433.231,256z"/>
	<path style="fill:#314E55;" d="M433.231,216.615c5.438,0,9.846-4.409,9.846-9.846v-9.846c0-5.438-4.409-9.846-9.846-9.846
		c-5.438,0-9.846,4.409-9.846,9.846v9.846C423.385,212.207,427.793,216.615,433.231,216.615z"/>
	<path style="fill:#314E55;" d="M433.231,137.846c5.438,0,9.846-4.409,9.846-9.846v-9.846c0-5.438-4.409-9.846-9.846-9.846
		c-5.438,0-9.846,4.409-9.846,9.846V128C423.385,133.438,427.793,137.846,433.231,137.846z"/>
	<path style="fill:#314E55;" d="M433.231,413.538c5.438,0,9.846-4.409,9.846-9.846v-9.846c0-5.438-4.409-9.846-9.846-9.846
		c-5.438,0-9.846,4.409-9.846,9.846v9.846C423.385,409.13,427.793,413.538,433.231,413.538z"/>
	<path style="fill:#314E55;" d="M433.231,177.231c5.438,0,9.846-4.409,9.846-9.846v-9.846c0-5.438-4.409-9.846-9.846-9.846
		c-5.438,0-9.846,4.409-9.846,9.846v9.846C423.385,172.822,427.793,177.231,433.231,177.231z"/>
	<path style="fill:#314E55;" d="M315.077,88.615h9.846c5.438,0,9.846-4.409,9.846-9.846s-4.409-9.846-9.846-9.846h-9.846
		c-5.438,0-9.846,4.409-9.846,9.846S309.639,88.615,315.077,88.615z"/>
	<path style="fill:#314E55;" d="M305.231,443.077h9.846c5.438,0,9.846-4.409,9.846-9.846c0-5.438-4.409-9.846-9.846-9.846h-9.846
		c-5.438,0-9.846,4.409-9.846,9.846C295.385,438.668,299.793,443.077,305.231,443.077z"/>
	<path style="fill:#314E55;" d="M265.846,443.077h9.846c5.438,0,9.846-4.409,9.846-9.846c0-5.438-4.409-9.846-9.846-9.846h-9.846
		c-5.438,0-9.846,4.409-9.846,9.846C256,438.668,260.409,443.077,265.846,443.077z"/>
	<path style="fill:#314E55;" d="M275.692,88.615h9.846c5.438,0,9.846-4.409,9.846-9.846s-4.409-9.846-9.846-9.846h-9.846
		c-5.438,0-9.846,4.409-9.846,9.846S270.255,88.615,275.692,88.615z"/>
	<path style="fill:#314E55;" d="M344.615,443.077h9.846c5.438,0,9.846-4.409,9.846-9.846c0-5.438-4.409-9.846-9.846-9.846h-9.846
		c-5.438,0-9.846,4.409-9.846,9.846C334.769,438.668,339.178,443.077,344.615,443.077z"/>
	<path style="fill:#314E55;" d="M423.385,443.077h9.846c5.438,0,9.846-4.409,9.846-9.846c0-5.438-4.409-9.846-9.846-9.846h-9.846
		c-5.438,0-9.846,4.409-9.846,9.846C413.538,438.668,417.947,443.077,423.385,443.077z"/>
	<path style="fill:#314E55;" d="M354.462,88.615h9.846c5.438,0,9.846-4.409,9.846-9.846s-4.409-9.846-9.846-9.846h-9.846
		c-5.438,0-9.846,4.409-9.846,9.846S349.024,88.615,354.462,88.615z"/>
	<path style="fill:#314E55;" d="M393.846,88.615h9.846c5.438,0,9.846-4.409,9.846-9.846s-4.409-9.846-9.846-9.846h-9.846
		c-5.438,0-9.846,4.409-9.846,9.846S388.409,88.615,393.846,88.615z"/>
	<path style="fill:#314E55;" d="M384,443.077h9.846c5.438,0,9.846-4.409,9.846-9.846c0-5.438-4.409-9.846-9.846-9.846H384
		c-5.438,0-9.846,4.409-9.846,9.846C374.154,438.668,378.562,443.077,384,443.077z"/>
</g>
<g>
</g>
<g>
</g>
<g>
</g>
<g>
</g>
<g>
</g>
<g>
</g>
<g>
</g>
<g>
</g>
<g>
</g>
<g>
</g>
<g>
</g>
<g>
</g>
<g>
</g>
<g>
</g>
<g>
</g>
</svg>
