<?xml version="1.0" encoding="iso-8859-1"?>
<!-- Generator: Adobe Illustrator 19.0.0, SVG Export Plug-In . SVG Version: 6.00 Build 0)  -->
<svg version="1.1" id="Layer_1" xmlns="http://www.w3.org/2000/svg" xmlns:xlink="http://www.w3.org/1999/xlink" x="0px" y="0px"
	 viewBox="0 0 512 512" style="enable-background:new 0 0 512 512;" xml:space="preserve">
<rect x="18.618" y="446.836" style="fill:#C59981;" width="46.545" height="46.545"/>
<path style="fill:#5ECB66;" d="M105.964,144.354l54.264-6.382L39.118,56.045l14.491,148.568l46.218-56.882
	C101.355,145.85,103.564,144.636,105.964,144.354z"/>
<rect x="446.836" y="18.618" style="fill:#C59981;" width="46.545" height="46.545"/>
<path style="fill:#D8D8D8;" d="M428.218,428.218V83.782h-314.87l78.052,52.8c3.218,2.177,4.746,6.132,3.827,9.909
	c-0.918,3.782-4.091,6.591-7.955,7.045l-75.373,8.868l-28.423,34.98c0.087,0.511,0.305,0.975,0.305,1.511v229.323H428.218z"/>
<rect x="446.836" y="446.836" style="fill:#C59981;" width="46.545" height="46.545"/>
<path style="fill:#314E55;" d="M502.691,83.782c5.145,0,9.309-4.168,9.309-9.309V9.309C512,4.168,507.836,0,502.691,0h-65.164
	c-5.145,0-9.309,4.168-9.309,9.309v55.855H87.754c-0.527,0-0.982,0.216-1.486,0.3L33.145,29.527
	c-2.991-2.023-6.873-2.132-9.982-0.291c-3.1,1.846-4.854,5.314-4.5,8.905l18.618,190.836c0.364,3.755,2.964,6.918,6.582,8.009
	c0.882,0.268,1.782,0.395,2.682,0.395c2.755,0,5.427-1.227,7.227-3.441l11.391-14.018v208.296H9.309
	c-5.145,0-9.309,4.164-9.309,9.309v65.164C0,507.836,4.164,512,9.309,512h65.164c5.145,0,9.309-4.164,9.309-9.309v-55.855h344.436
	v55.855c0,5.145,4.164,9.309,9.309,9.309h65.164c5.145,0,9.309-4.164,9.309-9.309v-65.164c0-5.145-4.164-9.309-9.309-9.309h-55.855
	V83.782H502.691z M446.836,18.618h46.545v46.545h-46.545V18.618z M53.609,204.614L39.118,56.045l121.109,81.927l-54.264,6.382
	c-2.4,0.282-4.609,1.496-6.136,3.377L53.609,204.614z M65.164,493.382H18.618v-46.545h46.545V493.382z M83.477,197.384l28.423-34.98
	l75.373-8.868c3.864-0.455,7.036-3.264,7.955-7.045c0.918-3.777-0.609-7.732-3.827-9.909l-78.052-52.8h314.87v344.436H83.782
	V198.895C83.782,198.359,83.564,197.895,83.477,197.384z M493.382,493.382h-46.545v-46.545h46.545V493.382z"/>
<g>
</g>
<g>
</g>
<g>
</g>
<g>
</g>
<g>
</g>
<g>
</g>
<g>
</g>
<g>
</g>
<g>
</g>
<g>
</g>
<g>
</g>
<g>
</g>
<g>
</g>
<g>
</g>
<g>
</g>
</svg>
