<?xml version="1.0" encoding="iso-8859-1"?>
<!-- Generator: Adobe Illustrator 19.0.0, SVG Export Plug-In . SVG Version: 6.00 Build 0)  -->
<svg version="1.1" id="Layer_1" xmlns="http://www.w3.org/2000/svg" xmlns:xlink="http://www.w3.org/1999/xlink" x="0px" y="0px"
	 viewBox="0 0 512 512" style="enable-background:new 0 0 512 512;" xml:space="preserve">
<rect x="215.04" y="215.04" style="fill:#73C9C9;" width="81.92" height="81.92"/>
<g>
	<path style="fill:#314E55;" d="M317.44,204.8c0-5.655-4.585-10.24-10.24-10.24H204.8c-5.655,0-10.24,4.585-10.24,10.24v102.4
		c0,5.655,4.585,10.24,10.24,10.24h102.4c5.655,0,10.24-4.585,10.24-10.24V204.8z M296.96,296.96h-81.92v-81.92h81.92V296.96z"/>
	<path style="fill:#314E55;" d="M133.12,235.52c-5.655,0-10.24,4.585-10.24,10.24V256c0,5.655,4.585,10.24,10.24,10.24
		c5.655,0,10.24-4.585,10.24-10.24v-10.24C143.36,240.105,138.775,235.52,133.12,235.52z"/>
	<path style="fill:#314E55;" d="M143.36,122.88h-10.24c-5.655,0-10.24,4.585-10.24,10.24c0,5.655,4.585,10.24,10.24,10.24h10.24
		c5.655,0,10.24-4.585,10.24-10.24C153.6,127.465,149.015,122.88,143.36,122.88z"/>
	<path style="fill:#314E55;" d="M133.12,153.6c-5.655,0-10.24,4.585-10.24,10.24v10.24c0,5.655,4.585,10.24,10.24,10.24
		c5.655,0,10.24-4.585,10.24-10.24v-10.24C143.36,158.185,138.775,153.6,133.12,153.6z"/>
	<path style="fill:#314E55;" d="M133.12,276.48c-5.655,0-10.24,4.585-10.24,10.24v10.24c0,5.655,4.585,10.24,10.24,10.24
		c5.655,0,10.24-4.585,10.24-10.24v-10.24C143.36,281.065,138.775,276.48,133.12,276.48z"/>
	<path style="fill:#314E55;" d="M133.12,194.56c-5.655,0-10.24,4.585-10.24,10.24v10.24c0,5.655,4.585,10.24,10.24,10.24
		c5.655,0,10.24-4.585,10.24-10.24V204.8C143.36,199.145,138.775,194.56,133.12,194.56z"/>
	<path style="fill:#314E55;" d="M215.04,143.36h10.24c5.655,0,10.24-4.585,10.24-10.24c0-5.655-4.585-10.24-10.24-10.24h-10.24
		c-5.655,0-10.24,4.585-10.24,10.24C204.8,138.775,209.385,143.36,215.04,143.36z"/>
	<path style="fill:#314E55;" d="M256,143.36h10.24c5.655,0,10.24-4.585,10.24-10.24c0-5.655-4.585-10.24-10.24-10.24H256
		c-5.655,0-10.24,4.585-10.24,10.24C245.76,138.775,250.345,143.36,256,143.36z"/>
	<path style="fill:#314E55;" d="M296.96,143.36h10.24c5.655,0,10.24-4.585,10.24-10.24c0-5.655-4.585-10.24-10.24-10.24h-10.24
		c-5.655,0-10.24,4.585-10.24,10.24C286.72,138.775,291.305,143.36,296.96,143.36z"/>
	<path style="fill:#314E55;" d="M133.12,358.4c-5.655,0-10.24,4.585-10.24,10.24v10.24c0,5.655,4.585,10.24,10.24,10.24
		c5.655,0,10.24-4.585,10.24-10.24v-10.24C143.36,362.985,138.775,358.4,133.12,358.4z"/>
	<path style="fill:#314E55;" d="M133.12,317.44c-5.655,0-10.24,4.585-10.24,10.24v10.24c0,5.655,4.585,10.24,10.24,10.24
		c5.655,0,10.24-4.585,10.24-10.24v-10.24C143.36,322.025,138.775,317.44,133.12,317.44z"/>
	<path style="fill:#314E55;" d="M215.04,368.64H204.8c-5.655,0-10.24,4.585-10.24,10.24c0,5.655,4.585,10.24,10.24,10.24h10.24
		c5.655,0,10.24-4.585,10.24-10.24C225.28,373.225,220.695,368.64,215.04,368.64z"/>
	<path style="fill:#314E55;" d="M348.16,122.88h-10.24c-5.655,0-10.24,4.585-10.24,10.24c0,5.655,4.585,10.24,10.24,10.24h10.24
		c5.655,0,10.24-4.585,10.24-10.24C358.4,127.465,353.815,122.88,348.16,122.88z"/>
	<path style="fill:#314E55;" d="M296.96,368.64h-10.24c-5.655,0-10.24,4.585-10.24,10.24c0,5.655,4.585,10.24,10.24,10.24h10.24
		c5.655,0,10.24-4.585,10.24-10.24C307.2,373.225,302.615,368.64,296.96,368.64z"/>
	<path style="fill:#314E55;" d="M378.88,327.68c-5.655,0-10.24,4.585-10.24,10.24v10.24c0,5.655,4.585,10.24,10.24,10.24
		c5.655,0,10.24-4.585,10.24-10.24v-10.24C389.12,332.265,384.535,327.68,378.88,327.68z"/>
	<path style="fill:#314E55;" d="M337.92,368.64h-10.24c-5.655,0-10.24,4.585-10.24,10.24c0,5.655,4.585,10.24,10.24,10.24h10.24
		c5.655,0,10.24-4.585,10.24-10.24C348.16,373.225,343.575,368.64,337.92,368.64z"/>
	<path style="fill:#314E55;" d="M378.88,286.72c-5.655,0-10.24,4.585-10.24,10.24v10.24c0,5.655,4.585,10.24,10.24,10.24
		c5.655,0,10.24-4.585,10.24-10.24v-10.24C389.12,291.305,384.535,286.72,378.88,286.72z"/>
	<path style="fill:#314E55;" d="M378.88,122.88c-5.655,0-10.24,4.585-10.24,10.24v10.24c0,5.655,4.585,10.24,10.24,10.24
		c5.655,0,10.24-4.585,10.24-10.24v-10.24C389.12,127.465,384.535,122.88,378.88,122.88z"/>
	<path style="fill:#314E55;" d="M378.88,163.84c-5.655,0-10.24,4.585-10.24,10.24v10.24c0,5.655,4.585,10.24,10.24,10.24
		c5.655,0,10.24-4.585,10.24-10.24v-10.24C389.12,168.425,384.535,163.84,378.88,163.84z"/>
	<path style="fill:#314E55;" d="M378.88,245.76c-5.655,0-10.24,4.585-10.24,10.24v10.24c0,5.655,4.585,10.24,10.24,10.24
		c5.655,0,10.24-4.585,10.24-10.24V256C389.12,250.345,384.535,245.76,378.88,245.76z"/>
	<path style="fill:#314E55;" d="M378.88,204.8c-5.655,0-10.24,4.585-10.24,10.24v10.24c0,5.655,4.585,10.24,10.24,10.24
		c5.655,0,10.24-4.585,10.24-10.24v-10.24C389.12,209.385,384.535,204.8,378.88,204.8z"/>
	<path style="fill:#314E55;" d="M378.88,368.64h-10.24c-5.655,0-10.24,4.585-10.24,10.24c0,5.655,4.585,10.24,10.24,10.24h10.24
		c5.655,0,10.24-4.585,10.24-10.24C389.12,373.225,384.535,368.64,378.88,368.64z"/>
	<path style="fill:#314E55;" d="M256,368.64h-10.24c-5.655,0-10.24,4.585-10.24,10.24c0,5.655,4.585,10.24,10.24,10.24H256
		c5.655,0,10.24-4.585,10.24-10.24C266.24,373.225,261.655,368.64,256,368.64z"/>
	<path style="fill:#314E55;" d="M174.08,368.64h-10.24c-5.655,0-10.24,4.585-10.24,10.24c0,5.655,4.585,10.24,10.24,10.24h10.24
		c5.655,0,10.24-4.585,10.24-10.24C184.32,373.225,179.735,368.64,174.08,368.64z"/>
	<path style="fill:#314E55;" d="M184.32,122.88h-10.24c-5.655,0-10.24,4.585-10.24,10.24c0,5.655,4.585,10.24,10.24,10.24h10.24
		c5.655,0,10.24-4.585,10.24-10.24C194.56,127.465,189.975,122.88,184.32,122.88z"/>
	<path style="fill:#314E55;" d="M256,20.48h10.24c5.655,0,10.24-4.585,10.24-10.24S271.895,0,266.24,0H256
		c-5.655,0-10.24,4.585-10.24,10.24S250.345,20.48,256,20.48z"/>
	<path style="fill:#314E55;" d="M460.8,491.52h-10.24c-5.655,0-10.24,4.585-10.24,10.24c0,5.655,4.585,10.24,10.24,10.24h10.24
		c5.655,0,10.24-4.585,10.24-10.24C471.04,496.105,466.455,491.52,460.8,491.52z"/>
	<path style="fill:#314E55;" d="M430.08,0h-10.24c-5.655,0-10.24,4.585-10.24,10.24s4.585,10.24,10.24,10.24h10.24
		c5.655,0,10.24-4.585,10.24-10.24S435.735,0,430.08,0z"/>
	<path style="fill:#314E55;" d="M419.84,491.52H409.6c-5.655,0-10.24,4.585-10.24,10.24c0,5.655,4.585,10.24,10.24,10.24h10.24
		c5.655,0,10.24-4.585,10.24-10.24C430.08,496.105,425.495,491.52,419.84,491.52z"/>
	<path style="fill:#314E55;" d="M471.04,0H460.8c-5.655,0-10.24,4.585-10.24,10.24s4.585,10.24,10.24,10.24h10.24
		c5.655,0,10.24-4.585,10.24-10.24S476.695,0,471.04,0z"/>
	<path style="fill:#314E55;" d="M501.76,491.52h-10.24c-5.655,0-10.24,4.585-10.24,10.24c0,5.655,4.585,10.24,10.24,10.24h10.24
		c5.655,0,10.24-4.585,10.24-10.24C512,496.105,507.415,491.52,501.76,491.52z"/>
	<path style="fill:#314E55;" d="M389.12,0h-10.24c-5.655,0-10.24,4.585-10.24,10.24s4.585,10.24,10.24,10.24h10.24
		c5.655,0,10.24-4.585,10.24-10.24S394.775,0,389.12,0z"/>
	<path style="fill:#314E55;" d="M501.76,450.56c-5.655,0-10.24,4.585-10.24,10.24v10.24c0,5.655,4.585,10.24,10.24,10.24
		c5.655,0,10.24-4.585,10.24-10.24V460.8C512,455.145,507.415,450.56,501.76,450.56z"/>
	<path style="fill:#314E55;" d="M296.96,491.52h-10.24c-5.655,0-10.24,4.585-10.24,10.24c0,5.655,4.585,10.24,10.24,10.24h10.24
		c5.655,0,10.24-4.585,10.24-10.24C307.2,496.105,302.615,491.52,296.96,491.52z"/>
	<path style="fill:#314E55;" d="M256,491.52h-10.24c-5.655,0-10.24,4.585-10.24,10.24c0,5.655,4.585,10.24,10.24,10.24H256
		c5.655,0,10.24-4.585,10.24-10.24C266.24,496.105,261.655,491.52,256,491.52z"/>
	<path style="fill:#314E55;" d="M378.88,491.52h-10.24c-5.655,0-10.24,4.585-10.24,10.24c0,5.655,4.585,10.24,10.24,10.24h10.24
		c5.655,0,10.24-4.585,10.24-10.24C389.12,496.105,384.535,491.52,378.88,491.52z"/>
	<path style="fill:#314E55;" d="M337.92,491.52h-10.24c-5.655,0-10.24,4.585-10.24,10.24c0,5.655,4.585,10.24,10.24,10.24h10.24
		c5.655,0,10.24-4.585,10.24-10.24C348.16,496.105,343.575,491.52,337.92,491.52z"/>
	<path style="fill:#314E55;" d="M501.76,286.72c-5.655,0-10.24,4.585-10.24,10.24v10.24c0,5.655,4.585,10.24,10.24,10.24
		c5.655,0,10.24-4.585,10.24-10.24v-10.24C512,291.305,507.415,286.72,501.76,286.72z"/>
	<path style="fill:#314E55;" d="M501.76,122.88c-5.655,0-10.24,4.585-10.24,10.24v10.24c0,5.655,4.585,10.24,10.24,10.24
		c5.655,0,10.24-4.585,10.24-10.24v-10.24C512,127.465,507.415,122.88,501.76,122.88z"/>
	<path style="fill:#314E55;" d="M501.76,81.92c-5.655,0-10.24,4.585-10.24,10.24v10.24c0,5.655,4.585,10.24,10.24,10.24
		c5.655,0,10.24-4.585,10.24-10.24V92.16C512,86.505,507.415,81.92,501.76,81.92z"/>
	<path style="fill:#314E55;" d="M501.76,163.84c-5.655,0-10.24,4.585-10.24,10.24v10.24c0,5.655,4.585,10.24,10.24,10.24
		c5.655,0,10.24-4.585,10.24-10.24v-10.24C512,168.425,507.415,163.84,501.76,163.84z"/>
	<path style="fill:#314E55;" d="M501.76,0c-5.655,0-10.24,4.585-10.24,10.24v10.24c0,5.655,4.585,10.24,10.24,10.24
		c5.655,0,10.24-4.585,10.24-10.24V10.24C512,4.585,507.415,0,501.76,0z"/>
	<path style="fill:#314E55;" d="M501.76,40.96c-5.655,0-10.24,4.585-10.24,10.24v10.24c0,5.655,4.585,10.24,10.24,10.24
		c5.655,0,10.24-4.585,10.24-10.24V51.2C512,45.545,507.415,40.96,501.76,40.96z"/>
	<path style="fill:#314E55;" d="M215.04,491.52H204.8c-5.655,0-10.24,4.585-10.24,10.24c0,5.655,4.585,10.24,10.24,10.24h10.24
		c5.655,0,10.24-4.585,10.24-10.24C225.28,496.105,220.695,491.52,215.04,491.52z"/>
	<path style="fill:#314E55;" d="M501.76,368.64c-5.655,0-10.24,4.585-10.24,10.24v10.24c0,5.655,4.585,10.24,10.24,10.24
		c5.655,0,10.24-4.585,10.24-10.24v-10.24C512,373.225,507.415,368.64,501.76,368.64z"/>
	<path style="fill:#314E55;" d="M501.76,327.68c-5.655,0-10.24,4.585-10.24,10.24v10.24c0,5.655,4.585,10.24,10.24,10.24
		c5.655,0,10.24-4.585,10.24-10.24v-10.24C512,332.265,507.415,327.68,501.76,327.68z"/>
	<path style="fill:#314E55;" d="M501.76,204.8c-5.655,0-10.24,4.585-10.24,10.24v10.24c0,5.655,4.585,10.24,10.24,10.24
		c5.655,0,10.24-4.585,10.24-10.24v-10.24C512,209.385,507.415,204.8,501.76,204.8z"/>
	<path style="fill:#314E55;" d="M501.76,409.6c-5.655,0-10.24,4.585-10.24,10.24v10.24c0,5.655,4.585,10.24,10.24,10.24
		c5.655,0,10.24-4.585,10.24-10.24v-10.24C512,414.185,507.415,409.6,501.76,409.6z"/>
	<path style="fill:#314E55;" d="M501.76,245.76c-5.655,0-10.24,4.585-10.24,10.24v10.24c0,5.655,4.585,10.24,10.24,10.24
		c5.655,0,10.24-4.585,10.24-10.24V256C512,250.345,507.415,245.76,501.76,245.76z"/>
	<path style="fill:#314E55;" d="M10.24,481.28C4.585,481.28,0,485.865,0,491.52v10.24C0,507.415,4.585,512,10.24,512
		s10.24-4.585,10.24-10.24v-10.24C20.48,485.865,15.895,481.28,10.24,481.28z"/>
	<path style="fill:#314E55;" d="M10.24,358.4C4.585,358.4,0,362.985,0,368.64v10.24c0,5.655,4.585,10.24,10.24,10.24
		s10.24-4.585,10.24-10.24v-10.24C20.48,362.985,15.895,358.4,10.24,358.4z"/>
	<path style="fill:#314E55;" d="M10.24,399.36C4.585,399.36,0,403.945,0,409.6v10.24c0,5.655,4.585,10.24,10.24,10.24
		s10.24-4.585,10.24-10.24V409.6C20.48,403.945,15.895,399.36,10.24,399.36z"/>
	<path style="fill:#314E55;" d="M10.24,440.32C4.585,440.32,0,444.905,0,450.56v10.24c0,5.655,4.585,10.24,10.24,10.24
		s10.24-4.585,10.24-10.24v-10.24C20.48,444.905,15.895,440.32,10.24,440.32z"/>
	<path style="fill:#314E55;" d="M10.24,276.48C4.585,276.48,0,281.065,0,286.72v10.24c0,5.655,4.585,10.24,10.24,10.24
		s10.24-4.585,10.24-10.24v-10.24C20.48,281.065,15.895,276.48,10.24,276.48z"/>
	<path style="fill:#314E55;" d="M10.24,317.44C4.585,317.44,0,322.025,0,327.68v10.24c0,5.655,4.585,10.24,10.24,10.24
		s10.24-4.585,10.24-10.24v-10.24C20.48,322.025,15.895,317.44,10.24,317.44z"/>
	<path style="fill:#314E55;" d="M10.24,235.52C4.585,235.52,0,240.105,0,245.76V256c0,5.655,4.585,10.24,10.24,10.24
		s10.24-4.585,10.24-10.24v-10.24C20.48,240.105,15.895,235.52,10.24,235.52z"/>
	<path style="fill:#314E55;" d="M296.96,20.48h10.24c5.655,0,10.24-4.585,10.24-10.24S312.855,0,307.2,0h-10.24
		c-5.655,0-10.24,4.585-10.24,10.24S291.305,20.48,296.96,20.48z"/>
	<path style="fill:#314E55;" d="M215.04,20.48h10.24c5.655,0,10.24-4.585,10.24-10.24S230.935,0,225.28,0h-10.24
		c-5.655,0-10.24,4.585-10.24,10.24S209.385,20.48,215.04,20.48z"/>
	<path style="fill:#314E55;" d="M174.08,20.48h10.24c5.655,0,10.24-4.585,10.24-10.24S189.975,0,184.32,0h-10.24
		c-5.655,0-10.24,4.585-10.24,10.24S168.425,20.48,174.08,20.48z"/>
	<path style="fill:#314E55;" d="M337.92,20.48h10.24c5.655,0,10.24-4.585,10.24-10.24S353.815,0,348.16,0h-10.24
		c-5.655,0-10.24,4.585-10.24,10.24S332.265,20.48,337.92,20.48z"/>
	<path style="fill:#314E55;" d="M133.12,20.48h10.24c5.655,0,10.24-4.585,10.24-10.24S149.015,0,143.36,0h-10.24
		c-5.655,0-10.24,4.585-10.24,10.24S127.465,20.48,133.12,20.48z"/>
	<path style="fill:#314E55;" d="M10.24,153.6C4.585,153.6,0,158.185,0,163.84v10.24c0,5.655,4.585,10.24,10.24,10.24
		s10.24-4.585,10.24-10.24v-10.24C20.48,158.185,15.895,153.6,10.24,153.6z"/>
	<path style="fill:#314E55;" d="M51.2,491.52H40.96c-5.655,0-10.24,4.585-10.24,10.24c0,5.655,4.585,10.24,10.24,10.24H51.2
		c5.655,0,10.24-4.585,10.24-10.24C61.44,496.105,56.855,491.52,51.2,491.52z"/>
	<path style="fill:#314E55;" d="M61.44,0H51.2c-5.655,0-10.24,4.585-10.24,10.24s4.585,10.24,10.24,10.24h10.24
		c5.655,0,10.24-4.585,10.24-10.24S67.095,0,61.44,0z"/>
	<path style="fill:#314E55;" d="M92.16,491.52H81.92c-5.655,0-10.24,4.585-10.24,10.24c0,5.655,4.585,10.24,10.24,10.24h10.24
		c5.655,0,10.24-4.585,10.24-10.24C102.4,496.105,97.815,491.52,92.16,491.52z"/>
	<path style="fill:#314E55;" d="M102.4,0H92.16c-5.655,0-10.24,4.585-10.24,10.24s4.585,10.24,10.24,10.24h10.24
		c5.655,0,10.24-4.585,10.24-10.24S108.055,0,102.4,0z"/>
	<path style="fill:#314E55;" d="M10.24,194.56C4.585,194.56,0,199.145,0,204.8v10.24c0,5.655,4.585,10.24,10.24,10.24
		s10.24-4.585,10.24-10.24V204.8C20.48,199.145,15.895,194.56,10.24,194.56z"/>
	<path style="fill:#314E55;" d="M133.12,491.52h-10.24c-5.655,0-10.24,4.585-10.24,10.24c0,5.655,4.585,10.24,10.24,10.24h10.24
		c5.655,0,10.24-4.585,10.24-10.24C143.36,496.105,138.775,491.52,133.12,491.52z"/>
	<path style="fill:#314E55;" d="M174.08,491.52h-10.24c-5.655,0-10.24,4.585-10.24,10.24c0,5.655,4.585,10.24,10.24,10.24h10.24
		c5.655,0,10.24-4.585,10.24-10.24C184.32,496.105,179.735,491.52,174.08,491.52z"/>
	<path style="fill:#314E55;" d="M10.24,112.64C4.585,112.64,0,117.225,0,122.88v10.24c0,5.655,4.585,10.24,10.24,10.24
		s10.24-4.585,10.24-10.24v-10.24C20.48,117.225,15.895,112.64,10.24,112.64z"/>
	<path style="fill:#314E55;" d="M10.24,30.72C4.585,30.72,0,35.305,0,40.96V51.2c0,5.655,4.585,10.24,10.24,10.24
		s10.24-4.585,10.24-10.24V40.96C20.48,35.305,15.895,30.72,10.24,30.72z"/>
	<path style="fill:#314E55;" d="M20.48,0H10.24C4.585,0,0,4.585,0,10.24s4.585,10.24,10.24,10.24h10.24
		c5.655,0,10.24-4.585,10.24-10.24S26.135,0,20.48,0z"/>
	<path style="fill:#314E55;" d="M10.24,71.68C4.585,71.68,0,76.265,0,81.92v10.24c0,5.655,4.585,10.24,10.24,10.24
		s10.24-4.585,10.24-10.24V81.92C20.48,76.265,15.895,71.68,10.24,71.68z"/>
</g>
<g>
</g>
<g>
</g>
<g>
</g>
<g>
</g>
<g>
</g>
<g>
</g>
<g>
</g>
<g>
</g>
<g>
</g>
<g>
</g>
<g>
</g>
<g>
</g>
<g>
</g>
<g>
</g>
<g>
</g>
</svg>
