<?xml version="1.0" encoding="iso-8859-1"?>
<!-- Generator: Adobe Illustrator 19.0.0, SVG Export Plug-In . SVG Version: 6.00 Build 0)  -->
<svg version="1.1" id="Layer_1" xmlns="http://www.w3.org/2000/svg" xmlns:xlink="http://www.w3.org/1999/xlink" x="0px" y="0px"
	 viewBox="0 0 512 512" style="enable-background:new 0 0 512 512;" xml:space="preserve">
<path style="fill:#73C9C9;" d="M315.077,29.538v9.846c0,5.438-4.409,9.846-9.846,9.846s-9.846-4.409-9.846-9.846v-9.846
	c0-5.438,4.409-9.846,9.846-9.846h-9.846h-9.846H256h-9.846h-29.538h-9.846h-29.538h-9.846h-29.538H128H98.462h-9.846H59.077h-9.846
	H19.692v19.692v9.846v29.538v9.846v29.538V128v29.538v9.846v29.538v9.846v29.538v9.846v29.538v9.846v9.846h9.846
	c5.438,0,9.846,4.409,9.846,9.846s-4.409,9.846-9.846,9.846h-9.846v177.231h472.615V19.692H305.231
	C310.668,19.692,315.077,24.101,315.077,29.538z M68.923,315.077h-9.846c-5.438,0-9.846-4.409-9.846-9.846s4.409-9.846,9.846-9.846
	h9.846c5.438,0,9.846,4.409,9.846,9.846S74.361,315.077,68.923,315.077z M108.308,315.077h-9.846c-5.438,0-9.846-4.409-9.846-9.846
	s4.409-9.846,9.846-9.846h9.846c5.438,0,9.846,4.409,9.846,9.846S113.745,315.077,108.308,315.077z M147.692,315.077h-9.846
	c-5.438,0-9.846-4.409-9.846-9.846s4.409-9.846,9.846-9.846h9.846c5.438,0,9.846,4.409,9.846,9.846S153.13,315.077,147.692,315.077z
	 M187.077,315.077h-9.846c-5.438,0-9.846-4.409-9.846-9.846s4.409-9.846,9.846-9.846h9.846c5.438,0,9.846,4.409,9.846,9.846
	S192.514,315.077,187.077,315.077z M226.462,315.077h-9.846c-5.438,0-9.846-4.409-9.846-9.846s4.409-9.846,9.846-9.846h9.846
	c5.438,0,9.846,4.409,9.846,9.846S231.899,315.077,226.462,315.077z M265.846,315.077H256c-5.438,0-9.846-4.409-9.846-9.846
	s4.409-9.846,9.846-9.846h9.846c5.438,0,9.846,4.409,9.846,9.846S271.284,315.077,265.846,315.077z M305.231,315.077h-9.846
	c-5.438,0-9.846-4.409-9.846-9.846s4.409-9.846,9.846-9.846h9.846c5.438,0,9.846,4.409,9.846,9.846S310.668,315.077,305.231,315.077
	z M315.077,275.692c0,5.438-4.409,9.846-9.846,9.846s-9.846-4.409-9.846-9.846v-9.846c0-5.438,4.409-9.846,9.846-9.846
	s9.846,4.409,9.846,9.846V275.692z M315.077,236.308c0,5.438-4.409,9.846-9.846,9.846s-9.846-4.409-9.846-9.846v-9.846
	c0-5.438,4.409-9.846,9.846-9.846s9.846,4.409,9.846,9.846V236.308z M315.077,196.923c0,5.438-4.409,9.846-9.846,9.846
	s-9.846-4.409-9.846-9.846v-9.846c0-5.438,4.409-9.846,9.846-9.846s9.846,4.409,9.846,9.846V196.923z M315.077,157.538
	c0,5.438-4.409,9.846-9.846,9.846s-9.846-4.409-9.846-9.846v-9.846c0-5.438,4.409-9.846,9.846-9.846s9.846,4.409,9.846,9.846
	V157.538z M315.077,118.154c0,5.438-4.409,9.846-9.846,9.846s-9.846-4.409-9.846-9.846v-9.846c0-5.438,4.409-9.846,9.846-9.846
	s9.846,4.409,9.846,9.846V118.154z M315.077,78.769c0,5.438-4.409,9.846-9.846,9.846s-9.846-4.409-9.846-9.846v-9.846
	c0-5.438,4.409-9.846,9.846-9.846s9.846,4.409,9.846,9.846V78.769z"/>
<g>
	<path style="fill:#314E55;" d="M502.154,0H295.385h-9.846H256h-9.846h-29.538h-9.846h-29.538h-9.846h-29.538H128H98.462h-9.846
		H59.077h-9.846H19.692H9.846C4.409,0,0,4.409,0,9.846v29.538v9.846v29.538v9.846v29.538V128v29.538v9.846v29.538v9.846v29.538
		v9.846v29.538v9.846v216.615C0,507.591,4.409,512,9.846,512h492.308c5.438,0,9.846-4.409,9.846-9.846V9.846
		C512,4.409,507.591,0,502.154,0z M492.308,492.308H19.692V315.077h9.846c5.438,0,9.846-4.409,9.846-9.846s-4.409-9.846-9.846-9.846
		h-9.846v-9.846v-9.846v-29.538v-9.846v-29.538v-9.846v-29.538v-9.846V128v-9.846V88.615v-9.846V49.231v-9.846V19.692h29.538h9.846
		h29.538h9.846H128h9.846h29.538h9.846h29.538h9.846h29.538H256h29.538h9.846h9.846h187.077V492.308z"/>
	<path style="fill:#314E55;" d="M305.231,295.385h-9.846c-5.438,0-9.846,4.409-9.846,9.846s4.409,9.846,9.846,9.846h9.846
		c5.438,0,9.846-4.409,9.846-9.846S310.668,295.385,305.231,295.385z"/>
	<path style="fill:#314E55;" d="M265.846,295.385H256c-5.438,0-9.846,4.409-9.846,9.846s4.409,9.846,9.846,9.846h9.846
		c5.438,0,9.846-4.409,9.846-9.846S271.284,295.385,265.846,295.385z"/>
	<path style="fill:#314E55;" d="M226.462,295.385h-9.846c-5.438,0-9.846,4.409-9.846,9.846s4.409,9.846,9.846,9.846h9.846
		c5.438,0,9.846-4.409,9.846-9.846S231.899,295.385,226.462,295.385z"/>
	<path style="fill:#314E55;" d="M305.231,137.846c-5.438,0-9.846,4.409-9.846,9.846v9.846c0,5.438,4.409,9.846,9.846,9.846
		s9.846-4.409,9.846-9.846v-9.846C315.077,142.255,310.668,137.846,305.231,137.846z"/>
	<path style="fill:#314E55;" d="M305.231,256c-5.438,0-9.846,4.409-9.846,9.846v9.846c0,5.438,4.409,9.846,9.846,9.846
		s9.846-4.409,9.846-9.846v-9.846C315.077,260.409,310.668,256,305.231,256z"/>
	<path style="fill:#314E55;" d="M305.231,177.231c-5.438,0-9.846,4.409-9.846,9.846v9.846c0,5.438,4.409,9.846,9.846,9.846
		s9.846-4.409,9.846-9.846v-9.846C315.077,181.639,310.668,177.231,305.231,177.231z"/>
	<path style="fill:#314E55;" d="M187.077,295.385h-9.846c-5.438,0-9.846,4.409-9.846,9.846s4.409,9.846,9.846,9.846h9.846
		c5.438,0,9.846-4.409,9.846-9.846S192.514,295.385,187.077,295.385z"/>
	<path style="fill:#314E55;" d="M305.231,216.615c-5.438,0-9.846,4.409-9.846,9.846v9.846c0,5.438,4.409,9.846,9.846,9.846
		s9.846-4.409,9.846-9.846v-9.846C315.077,221.024,310.668,216.615,305.231,216.615z"/>
	<path style="fill:#314E55;" d="M68.923,295.385h-9.846c-5.438,0-9.846,4.409-9.846,9.846s4.409,9.846,9.846,9.846h9.846
		c5.438,0,9.846-4.409,9.846-9.846S74.361,295.385,68.923,295.385z"/>
	<path style="fill:#314E55;" d="M305.231,59.077c-5.438,0-9.846,4.409-9.846,9.846v9.846c0,5.438,4.409,9.846,9.846,9.846
		s9.846-4.409,9.846-9.846v-9.846C315.077,63.486,310.668,59.077,305.231,59.077z"/>
	<path style="fill:#314E55;" d="M108.308,295.385h-9.846c-5.438,0-9.846,4.409-9.846,9.846s4.409,9.846,9.846,9.846h9.846
		c5.438,0,9.846-4.409,9.846-9.846S113.745,295.385,108.308,295.385z"/>
	<path style="fill:#314E55;" d="M305.231,98.462c-5.438,0-9.846,4.409-9.846,9.846v9.846c0,5.438,4.409,9.846,9.846,9.846
		s9.846-4.409,9.846-9.846v-9.846C315.077,102.87,310.668,98.462,305.231,98.462z"/>
	<path style="fill:#314E55;" d="M147.692,295.385h-9.846c-5.438,0-9.846,4.409-9.846,9.846s4.409,9.846,9.846,9.846h9.846
		c5.438,0,9.846-4.409,9.846-9.846S153.13,295.385,147.692,295.385z"/>
	<path style="fill:#314E55;" d="M295.385,29.538v9.846c0,5.438,4.409,9.846,9.846,9.846s9.846-4.409,9.846-9.846v-9.846
		c0-5.438-4.409-9.846-9.846-9.846S295.385,24.101,295.385,29.538z"/>
</g>
<g>
</g>
<g>
</g>
<g>
</g>
<g>
</g>
<g>
</g>
<g>
</g>
<g>
</g>
<g>
</g>
<g>
</g>
<g>
</g>
<g>
</g>
<g>
</g>
<g>
</g>
<g>
</g>
<g>
</g>
</svg>
