<?xml version="1.0" encoding="iso-8859-1"?>
<!-- Generator: Adobe Illustrator 19.0.0, SVG Export Plug-In . SVG Version: 6.00 Build 0)  -->
<svg version="1.1" id="Layer_1" xmlns="http://www.w3.org/2000/svg" xmlns:xlink="http://www.w3.org/1999/xlink" x="0px" y="0px"
	 viewBox="0 0 512 512" style="enable-background:new 0 0 512 512;" xml:space="preserve">
<path style="fill:#DBCF56;" d="M256,430.08c-16.94,0-30.72,13.78-30.72,30.72s13.78,30.72,30.72,30.72s30.72-13.78,30.72-30.72
	S272.94,430.08,256,430.08z"/>
<path style="fill:#E4AD40;" d="M256,81.92c16.94,0,30.72-13.78,30.72-30.72S272.94,20.48,256,20.48s-30.72,13.78-30.72,30.72
	S239.06,81.92,256,81.92z M256,30.72c11.29,0,20.48,9.19,20.48,20.48S267.29,71.68,256,71.68c-11.29,0-20.48-9.19-20.48-20.48
	S244.71,30.72,256,30.72z"/>
<path style="fill:#DBCF56;" d="M256,225.28c-16.94,0-30.72,13.78-30.72,30.72s13.78,30.72,30.72,30.72s30.72-13.78,30.72-30.72
	S272.94,225.28,256,225.28z"/>
<g>
	<path style="fill:#314E55;" d="M256,102.4c28.23,0,51.2-22.97,51.2-51.2S284.23,0,256,0s-51.2,22.97-51.2,51.2
		S227.77,102.4,256,102.4z M256,20.48c16.94,0,30.72,13.78,30.72,30.72S272.94,81.92,256,81.92s-30.72-13.78-30.72-30.72
		S239.06,20.48,256,20.48z"/>
	<path style="fill:#314E55;" d="M256,71.68c11.29,0,20.48-9.19,20.48-20.48S267.29,30.72,256,30.72c-11.29,0-20.48,9.19-20.48,20.48
		S244.71,71.68,256,71.68z"/>
	<path style="fill:#314E55;" d="M256,204.8c-28.23,0-51.2,22.97-51.2,51.2s22.97,51.2,51.2,51.2s51.2-22.97,51.2-51.2
		S284.23,204.8,256,204.8z M256,286.72c-16.94,0-30.72-13.78-30.72-30.72s13.78-30.72,30.72-30.72s30.72,13.78,30.72,30.72
		S272.94,286.72,256,286.72z"/>
	<path style="fill:#314E55;" d="M256,409.6c-28.23,0-51.2,22.97-51.2,51.2S227.77,512,256,512s51.2-22.97,51.2-51.2
		S284.23,409.6,256,409.6z M256,491.52c-16.94,0-30.72-13.78-30.72-30.72s13.78-30.72,30.72-30.72s30.72,13.78,30.72,30.72
		S272.94,491.52,256,491.52z"/>
</g>
<g>
</g>
<g>
</g>
<g>
</g>
<g>
</g>
<g>
</g>
<g>
</g>
<g>
</g>
<g>
</g>
<g>
</g>
<g>
</g>
<g>
</g>
<g>
</g>
<g>
</g>
<g>
</g>
<g>
</g>
</svg>
