<?xml version="1.0" encoding="iso-8859-1"?>
<!-- Generator: Adobe Illustrator 19.0.0, SVG Export Plug-In . SVG Version: 6.00 Build 0)  -->
<svg version="1.1" id="Layer_1" xmlns="http://www.w3.org/2000/svg" xmlns:xlink="http://www.w3.org/1999/xlink" x="0px" y="0px"
	 viewBox="0 0 512 512" style="enable-background:new 0 0 512 512;" xml:space="preserve">
<path style="fill:#D8D8D8;" d="M127.929,356.571h82.429c20.125,0,36.5-16.402,36.5-36.571c0-20.17-16.375-36.571-36.5-36.571
	h-82.428c-20.125,0-36.5,16.402-36.5,36.571C91.429,340.17,107.804,356.571,127.929,356.571z M137.143,292.571
	c15.125,0,27.429,12.304,27.429,27.429c0,15.125-12.304,27.429-27.429,27.429S109.714,335.125,109.714,320
	C109.714,304.875,122.018,292.571,137.143,292.571z"/>
<g>
	<circle style="fill:#5ECB66;" cx="137.143" cy="320" r="9.143"/>
	<circle style="fill:#5ECB66;" cx="201.143" cy="192" r="9.143"/>
</g>
<path style="fill:#D8D8D8;" d="M127.929,228.571h82.429c20.125,0,36.5-16.402,36.5-36.571s-16.375-36.571-36.5-36.571h-82.428
	c-20.125,0-36.5,16.402-36.5,36.571S107.804,228.571,127.929,228.571z M201.143,164.571c15.125,0,27.429,12.304,27.429,27.429
	c0,15.125-12.304,27.429-27.429,27.429S173.714,207.125,173.714,192C173.714,176.875,186.018,164.571,201.143,164.571z"/>
<path style="fill:#EAEAEA;" d="M18.286,429.714h475.429V82.286H18.286V429.714z M301.714,137.143H439.21v18.286H301.714V137.143z
	 M301.714,173.714h91.429V192h-91.429V173.714z M301.714,265.143h64v18.286h-64V265.143z M301.714,301.714h119.272V320H301.714
	V301.714z M301.714,338.286h119.272v18.286H301.714V338.286z M127.929,137.143h82.429c30.21,0,54.786,24.607,54.786,54.857
	s-24.576,54.857-54.786,54.857h-82.428c-30.21,0-54.786-24.607-54.786-54.857S97.719,137.143,127.929,137.143z M127.929,265.143
	h82.429c30.21,0,54.786,24.607,54.786,54.857c0,30.25-24.576,54.857-54.786,54.857h-82.428c-30.21,0-54.786-24.607-54.786-54.857
	C73.143,289.75,97.719,265.143,127.929,265.143z"/>
<g>
	<path style="fill:#314E55;" d="M502.857,64H9.143C4.094,64,0,68.089,0,73.143v365.714C0,443.911,4.094,448,9.143,448h493.714
		c5.049,0,9.143-4.089,9.143-9.143V73.143C512,68.089,507.906,64,502.857,64z M493.714,429.714H18.286V82.286h475.429V429.714z"/>
	<path style="fill:#314E55;" d="M127.929,246.857h82.429c30.21,0,54.786-24.607,54.786-54.857s-24.576-54.857-54.786-54.857h-82.428
		c-30.21,0-54.786,24.607-54.786,54.857S97.719,246.857,127.929,246.857z M127.929,155.429h82.429c20.125,0,36.5,16.402,36.5,36.571
		s-16.375,36.571-36.5,36.571h-82.428c-20.125,0-36.5-16.402-36.5-36.571S107.804,155.429,127.929,155.429z"/>
	<rect x="301.714" y="137.143" style="fill:#314E55;" width="137.486" height="18.286"/>
	<rect x="301.714" y="173.714" style="fill:#314E55;" width="91.429" height="18.286"/>
	<rect x="301.714" y="265.143" style="fill:#314E55;" width="64" height="18.286"/>
	<rect x="301.714" y="301.714" style="fill:#314E55;" width="119.269" height="18.286"/>
	<rect x="301.714" y="338.286" style="fill:#314E55;" width="119.269" height="18.286"/>
	<path style="fill:#314E55;" d="M201.143,219.429c15.125,0,27.429-12.304,27.429-27.429c0-15.125-12.304-27.429-27.429-27.429
		S173.714,176.875,173.714,192C173.714,207.125,186.018,219.429,201.143,219.429z M201.143,182.857c5.04,0,9.143,4.098,9.143,9.143
		c0,5.045-4.103,9.143-9.143,9.143c-5.04,0-9.143-4.098-9.143-9.143C192,186.955,196.103,182.857,201.143,182.857z"/>
	<path style="fill:#314E55;" d="M127.929,374.857h82.429c30.21,0,54.786-24.607,54.786-54.857c0-30.25-24.576-54.857-54.786-54.857
		h-82.428c-30.21,0-54.786,24.607-54.786,54.857C73.143,350.25,97.719,374.857,127.929,374.857z M127.929,283.429h82.429
		c20.125,0,36.5,16.402,36.5,36.571c0,20.17-16.375,36.571-36.5,36.571h-82.428c-20.125,0-36.5-16.402-36.5-36.571
		C91.429,299.83,107.804,283.429,127.929,283.429z"/>
	<path style="fill:#314E55;" d="M137.143,347.429c15.125,0,27.429-12.304,27.429-27.429c0-15.125-12.304-27.429-27.429-27.429
		S109.714,304.875,109.714,320C109.714,335.125,122.018,347.429,137.143,347.429z M137.143,310.857c5.04,0,9.143,4.098,9.143,9.143
		c0,5.045-4.103,9.143-9.143,9.143c-5.04,0-9.143-4.098-9.143-9.143C128,314.955,132.103,310.857,137.143,310.857z"/>
</g>
<g>
</g>
<g>
</g>
<g>
</g>
<g>
</g>
<g>
</g>
<g>
</g>
<g>
</g>
<g>
</g>
<g>
</g>
<g>
</g>
<g>
</g>
<g>
</g>
<g>
</g>
<g>
</g>
<g>
</g>
</svg>
