<?xml version="1.0" encoding="iso-8859-1"?>
<!-- Generator: Adobe Illustrator 19.0.0, SVG Export Plug-In . SVG Version: 6.00 Build 0)  -->
<svg version="1.1" id="Layer_1" xmlns="http://www.w3.org/2000/svg" xmlns:xlink="http://www.w3.org/1999/xlink" x="0px" y="0px"
	 viewBox="0 0 512 512" style="enable-background:new 0 0 512 512;" xml:space="preserve">
<rect x="54.857" y="128" style="fill:#F28544;" width="146.286" height="27.429"/>
<path style="fill:#EA86A5;" d="M312.938,259.116c4.888-1.152,9.83,1.929,10.964,6.857c1.138,4.92-1.929,9.83-6.848,10.964
	l-28.768,6.643c6.277,17.565,18.328,32.36,33.9,42.12l12.833-26.308c2.214-4.545,7.679-6.446,12.228-4.205
	c4.536,2.214,6.424,7.688,4.21,12.223l-12.787,26.214c8.485,2.966,17.561,4.661,27.045,4.661s18.56-1.695,27.046-4.661
	l-12.787-26.214c-2.214-4.536-0.326-10.009,4.21-12.223c4.536-2.232,10.018-0.339,12.228,4.205l12.833,26.308
	c15.572-9.761,27.623-24.556,33.9-42.12l-28.768-6.643c-4.92-1.134-7.987-6.045-6.848-10.964c1.134-4.928,6.062-7.982,10.964-6.857
	l28.872,6.667c0.383-3.214,0.637-6.467,0.637-9.783c0-15.981-4.653-30.863-12.568-43.502l-23.209,18.797
	c-1.692,1.366-3.728,2.036-5.75,2.036c-2.661,0-5.304-1.161-7.107-3.393c-3.178-3.92-2.576-9.679,1.348-12.857l23.41-18.96
	c-12.898-13.015-30.099-21.736-49.267-23.867v30.237c0,5.053-4.094,9.143-9.143,9.143c-5.049,0-9.143-4.089-9.143-9.143v-30.237
	c-19.168,2.131-36.369,10.852-49.267,23.867l23.41,18.96c3.924,3.179,4.527,8.938,1.348,12.857
	c-1.804,2.232-4.446,3.393-7.107,3.393c-2.022,0-4.058-0.67-5.75-2.036l-23.209-18.797c-7.915,12.639-12.568,27.52-12.568,43.502
	c0,3.316,0.254,6.569,0.637,9.783L312.938,259.116z"/>
<path style="fill:#EAEAEA;" d="M18.286,429.714h475.429V82.286H18.286V429.714z M210.571,384H45.714v-18.286h164.857V384z
	 M210.571,347.429H45.714v-18.286h164.857V347.429z M210.571,310.857H45.714v-18.286h164.857V310.857z M210.571,274.286H45.714V256
	h164.857V274.286z M210.571,237.714H45.714v-18.286h164.857V237.714z M210.571,201.143H45.714v-18.286h164.857V201.143z
	 M365.714,155.429c55.455,0,100.571,45.116,100.571,100.571c0,39.568-23.026,73.772-56.331,90.18
	c-0.239,0.145-0.395,0.373-0.651,0.498c-0.237,0.117-0.493,0.076-0.735,0.17c-13.022,6.168-27.514,9.723-42.854,9.723
	s-29.832-3.554-42.854-9.723c-0.242-0.094-0.498-0.053-0.735-0.17c-0.256-0.125-0.412-0.353-0.651-0.498
	c-33.305-16.408-56.331-50.612-56.331-90.18C265.143,200.545,310.259,155.429,365.714,155.429z M36.571,118.857
	c0-5.053,4.094-9.143,9.143-9.143h164.571c5.049,0,9.143,4.089,9.143,9.143v45.714c0,5.053-4.094,9.143-9.143,9.143H45.714
	c-5.049,0-9.143-4.089-9.143-9.143V118.857z"/>
<g>
	<path style="fill:#314E55;" d="M502.857,64H9.143C4.094,64,0,68.089,0,73.143v365.714C0,443.911,4.094,448,9.143,448h493.714
		c5.049,0,9.143-4.089,9.143-9.143V73.143C512,68.089,507.906,64,502.857,64z M493.714,429.714H18.286V82.286h475.429V429.714z"/>
	<path style="fill:#314E55;" d="M321.474,346.18c0.239,0.145,0.395,0.373,0.651,0.498c0.237,0.117,0.493,0.076,0.735,0.17
		c13.022,6.168,27.514,9.723,42.854,9.723s29.832-3.554,42.854-9.723c0.242-0.094,0.498-0.053,0.735-0.17
		c0.256-0.125,0.412-0.353,0.651-0.498c33.305-16.408,56.331-50.612,56.331-90.18c0-55.455-45.116-100.571-100.571-100.571
		S265.143,200.545,265.143,256C265.143,295.568,288.169,329.772,321.474,346.18z M295.997,212.498l23.209,18.797
		c1.692,1.366,3.728,2.036,5.75,2.036c2.661,0,5.304-1.161,7.107-3.393c3.178-3.92,2.576-9.679-1.348-12.857l-23.41-18.96
		c12.898-13.015,30.099-21.736,49.267-23.867v30.237c0,5.053,4.094,9.143,9.143,9.143c5.049,0,9.143-4.089,9.143-9.143v-30.237
		c19.168,2.131,36.369,10.852,49.267,23.867l-23.41,18.96c-3.924,3.179-4.527,8.938-1.348,12.857
		c1.804,2.232,4.446,3.393,7.107,3.393c2.022,0,4.058-0.67,5.75-2.036l23.209-18.797C443.347,225.137,448,240.019,448,256
		c0,3.316-0.254,6.569-0.637,9.783l-28.872-6.667c-4.902-1.125-9.83,1.929-10.964,6.857c-1.138,4.92,1.929,9.83,6.848,10.964
		l28.768,6.643c-6.277,17.565-18.328,32.36-33.9,42.12l-12.833-26.308c-2.21-4.545-7.692-6.438-12.228-4.205
		c-4.536,2.214-6.424,7.688-4.21,12.223l12.787,26.214c-8.485,2.966-17.561,4.661-27.046,4.661s-18.56-1.695-27.046-4.661
		l12.787-26.214c2.214-4.536,0.326-10.009-4.21-12.223c-4.549-2.241-10.013-0.339-12.228,4.205l-12.833,26.308
		c-15.572-9.761-27.623-24.556-33.9-42.12l28.768-6.643c4.92-1.134,7.987-6.045,6.848-10.964c-1.134-4.928-6.076-8.009-10.964-6.857
		l-28.871,6.667c-0.383-3.214-0.637-6.467-0.637-9.783C283.429,240.019,288.081,225.137,295.997,212.498z"/>
	<rect x="45.714" y="182.857" style="fill:#314E55;" width="164.846" height="18.286"/>
	<path style="fill:#314E55;" d="M45.714,173.714h164.571c5.049,0,9.143-4.089,9.143-9.143v-45.714c0-5.053-4.094-9.143-9.143-9.143
		H45.714c-5.049,0-9.143,4.089-9.143,9.143v45.714C36.571,169.625,40.665,173.714,45.714,173.714z M54.857,128h146.286v27.429
		H54.857V128z"/>
	<rect x="45.714" y="219.429" style="fill:#314E55;" width="164.846" height="18.286"/>
	<rect x="45.714" y="256" style="fill:#314E55;" width="164.846" height="18.286"/>
	<rect x="45.714" y="292.571" style="fill:#314E55;" width="164.846" height="18.286"/>
	<rect x="45.714" y="329.143" style="fill:#314E55;" width="164.846" height="18.286"/>
	<rect x="45.714" y="365.714" style="fill:#314E55;" width="164.846" height="18.286"/>
</g>
<g>
</g>
<g>
</g>
<g>
</g>
<g>
</g>
<g>
</g>
<g>
</g>
<g>
</g>
<g>
</g>
<g>
</g>
<g>
</g>
<g>
</g>
<g>
</g>
<g>
</g>
<g>
</g>
<g>
</g>
</svg>
