<?xml version="1.0" encoding="iso-8859-1"?>
<!-- Generator: Adobe Illustrator 19.0.0, SVG Export Plug-In . SVG Version: 6.00 Build 0)  -->
<svg version="1.1" id="Layer_1" xmlns="http://www.w3.org/2000/svg" xmlns:xlink="http://www.w3.org/1999/xlink" x="0px" y="0px"
	 viewBox="0 0 512 512" style="enable-background:new 0 0 512 512;" xml:space="preserve">
<g>
	<circle style="fill:#5ECB66;" cx="256" cy="251.17" r="9.66"/>
	<circle style="fill:#5ECB66;" cx="188.377" cy="251.17" r="9.66"/>
	<circle style="fill:#5ECB66;" cx="323.623" cy="251.17" r="9.66"/>
	<path style="fill:#5ECB66;" d="M256,19.321c-122.514,0-222.189,99.472-222.189,221.745c0,54.717,20.127,107.255,56.679,147.953
		c1.887,2.104,2.759,4.925,2.387,7.736L81.16,484.443l73.608-41.321c2.693-1.519,5.939-1.642,8.75-0.358
		c29.09,13.311,60.203,20.057,92.481,20.057c122.514,0,222.189-99.481,222.189-221.755S378.514,19.321,256,19.321z M188.377,280.151
		c-15.981,0-28.981-13-28.981-28.981s13-28.981,28.981-28.981s28.981,13,28.981,28.981S204.359,280.151,188.377,280.151z
		 M256,280.151c-15.981,0-28.981-13-28.981-28.981s13-28.981,28.981-28.981s28.981,13,28.981,28.981S271.981,280.151,256,280.151z
		 M323.623,280.151c-15.981,0-28.981-13-28.981-28.981s13-28.981,28.981-28.981s28.981,13,28.981,28.981
		S339.604,280.151,323.623,280.151z"/>
</g>
<g>
	<path style="fill:#314E55;" d="M256,0C122.83,0,14.491,108.141,14.491,241.066c0,57.991,20.797,113.736,58.651,157.49
		l-13.693,102.5c-0.486,3.632,1.123,7.226,4.151,9.273c1.632,1.113,3.528,1.67,5.424,1.67c1.627,0,3.255-0.406,4.731-1.236
		L160,462.349c30.326,13.132,62.594,19.792,96,19.792c133.17,0,241.509-108.141,241.509-241.075C497.509,108.141,389.17,0,256,0z
		 M256,462.821c-32.278,0-63.391-6.745-92.481-20.057c-2.811-1.283-6.057-1.16-8.75,0.358L81.16,484.443l11.717-87.689
		c0.373-2.811-0.5-5.632-2.387-7.736c-36.552-40.698-56.679-93.236-56.679-147.953c0-122.274,99.675-221.745,222.189-221.745
		s222.189,99.472,222.189,221.745S378.514,462.821,256,462.821z"/>
	<path style="fill:#314E55;" d="M188.377,222.189c-15.981,0-28.981,13-28.981,28.981s13,28.981,28.981,28.981
		s28.981-13,28.981-28.981S204.359,222.189,188.377,222.189z M188.377,260.83c-5.326,0-9.66-4.33-9.66-9.66
		c0-5.33,4.335-9.66,9.66-9.66c5.326,0,9.66,4.33,9.66,9.66C198.038,256.5,193.703,260.83,188.377,260.83z"/>
	<path style="fill:#314E55;" d="M256,222.189c-15.981,0-28.981,13-28.981,28.981s13,28.981,28.981,28.981s28.981-13,28.981-28.981
		S271.981,222.189,256,222.189z M256,260.83c-5.326,0-9.66-4.33-9.66-9.66c0-5.33,4.335-9.66,9.66-9.66c5.326,0,9.66,4.33,9.66,9.66
		C265.66,256.5,261.326,260.83,256,260.83z"/>
	<path style="fill:#314E55;" d="M323.623,222.189c-15.981,0-28.981,13-28.981,28.981s13,28.981,28.981,28.981
		s28.981-13,28.981-28.981S339.604,222.189,323.623,222.189z M323.623,260.83c-5.326,0-9.66-4.33-9.66-9.66
		c0-5.33,4.335-9.66,9.66-9.66s9.66,4.33,9.66,9.66C333.283,256.5,328.948,260.83,323.623,260.83z"/>
</g>
<g>
</g>
<g>
</g>
<g>
</g>
<g>
</g>
<g>
</g>
<g>
</g>
<g>
</g>
<g>
</g>
<g>
</g>
<g>
</g>
<g>
</g>
<g>
</g>
<g>
</g>
<g>
</g>
<g>
</g>
</svg>
