<?xml version="1.0" encoding="iso-8859-1"?>
<!-- Generator: Adobe Illustrator 19.0.0, SVG Export Plug-In . SVG Version: 6.00 Build 0)  -->
<svg version="1.1" id="Layer_1" xmlns="http://www.w3.org/2000/svg" xmlns:xlink="http://www.w3.org/1999/xlink" x="0px" y="0px"
	 viewBox="0 0 512 512" style="enable-background:new 0 0 512 512;" xml:space="preserve">
<g>
	<polygon style="fill:#D26CBA;" points="22.153,188.002 111.389,491.41 413.995,491.41 324.759,188.002 	"/>
	<polygon style="fill:#D26CBA;" points="471.685,491.41 493.037,491.41 493.037,188.002 382.449,188.002 	"/>
</g>
<g>
	<path style="fill:#314E55;" d="M340.949,175.845c-1.19-4.032-4.889-6.806-9.097-6.806H9.482c-2.986,0-5.801,1.408-7.593,3.801
		c-1.787,2.394-2.347,5.491-1.505,8.357l94.815,322.37c1.19,4.032,4.889,6.806,9.097,6.806h322.37c2.986,0,5.801-1.408,7.592-3.801
		c1.787-2.394,2.347-5.491,1.505-8.357L340.949,175.845z M111.389,491.41L22.153,188.002h302.606l89.236,303.407H111.389z"/>
	<path style="fill:#314E55;" d="M502.518,169.039H369.778c-2.986,0-5.801,1.408-7.593,3.801c-1.787,2.394-2.347,5.491-1.505,8.356
		l94.815,322.37c1.19,4.032,4.889,6.806,9.097,6.806h37.926c5.236,0,9.481-4.245,9.481-9.481v-322.37
		C512,173.285,507.755,169.039,502.518,169.039z M493.037,491.41h-21.352l-89.236-303.407h110.588V491.41z"/>
	<path style="fill:#314E55;" d="M116.556,125.081c1.852,1.852,4.278,2.778,6.704,2.778s4.852-0.926,6.704-2.778
		c3.704-3.704,3.704-9.704,0-13.407L92.514,74.225h163.764V55.262H92.514l37.449-37.449c3.704-3.704,3.704-9.704,0-13.407
		c-3.704-3.703-9.704-3.704-13.407,0L62.921,58.04c-3.704,3.704-3.704,9.704,0,13.407L116.556,125.081z"/>
</g>
<g>
</g>
<g>
</g>
<g>
</g>
<g>
</g>
<g>
</g>
<g>
</g>
<g>
</g>
<g>
</g>
<g>
</g>
<g>
</g>
<g>
</g>
<g>
</g>
<g>
</g>
<g>
</g>
<g>
</g>
</svg>
