<?xml version="1.0" encoding="iso-8859-1"?>
<!-- Generator: Adobe Illustrator 19.0.0, SVG Export Plug-In . SVG Version: 6.00 Build 0)  -->
<svg version="1.1" id="Layer_1" xmlns="http://www.w3.org/2000/svg" xmlns:xlink="http://www.w3.org/1999/xlink" x="0px" y="0px"
	 viewBox="0 0 512 512" style="enable-background:new 0 0 512 512;" xml:space="preserve">
<g>
	<polygon style="fill:#73C9C9;" points="18.963,491.41 40.315,491.41 129.551,188.002 18.963,188.002 	"/>
	<polygon style="fill:#73C9C9;" points="98.005,491.41 400.611,491.41 489.847,188.002 187.241,188.002 	"/>
</g>
<g>
	<path style="fill:#314E55;" d="M510.111,172.84c-1.792-2.394-4.607-3.801-7.592-3.801h-322.37c-4.208,0-7.907,2.773-9.097,6.806
		l-94.815,322.37c-0.843,2.866-0.282,5.963,1.505,8.357c1.792,2.394,4.607,3.801,7.593,3.801h322.37
		c4.208,0,7.907-2.773,9.097-6.806l94.815-322.37C512.458,178.331,511.898,175.234,510.111,172.84z M400.611,491.41H98.005
		l89.236-303.407h302.606L400.611,491.41z"/>
	<path style="fill:#314E55;" d="M149.815,172.84c-1.792-2.394-4.606-3.801-7.593-3.801H9.481c-5.236,0-9.481,4.245-9.481,9.481
		v322.37c0,5.236,4.245,9.481,9.481,9.481h37.926c4.208,0,7.907-2.773,9.097-6.806l94.815-322.37
		C152.162,178.331,151.602,175.234,149.815,172.84z M40.315,491.41H18.963V188.002h110.588L40.315,491.41z"/>
	<path style="fill:#314E55;" d="M382.037,111.674c-3.704,3.704-3.704,9.704,0,13.407c1.852,1.852,4.278,2.778,6.704,2.778
		s4.852-0.926,6.704-2.778l53.634-53.634c3.704-3.704,3.704-9.704,0-13.407L395.444,4.405c-3.704-3.704-9.704-3.704-13.407,0
		c-3.703,3.704-3.704,9.704,0,13.407l37.449,37.449H255.722v18.963h163.764L382.037,111.674z"/>
</g>
<g>
</g>
<g>
</g>
<g>
</g>
<g>
</g>
<g>
</g>
<g>
</g>
<g>
</g>
<g>
</g>
<g>
</g>
<g>
</g>
<g>
</g>
<g>
</g>
<g>
</g>
<g>
</g>
<g>
</g>
</svg>
