<?xml version="1.0" encoding="iso-8859-1"?>
<!-- Generator: Adobe Illustrator 19.0.0, SVG Export Plug-In . SVG Version: 6.00 Build 0)  -->
<svg version="1.1" id="Layer_1" xmlns="http://www.w3.org/2000/svg" xmlns:xlink="http://www.w3.org/1999/xlink" x="0px" y="0px"
	 viewBox="0 0 512 512" style="enable-background:new 0 0 512 512;" xml:space="preserve">
<path style="fill:#5ECB66;" d="M403.692,216.615c-21.716,0-39.385,17.668-39.385,39.385s17.668,39.385,39.385,39.385
	s39.385-17.668,39.385-39.385S425.409,216.615,403.692,216.615z"/>
<path style="fill:#D8D8D8;" d="M167.385,226.462c-16.288,0-29.538,13.25-29.538,29.538c0,16.289,13.25,29.538,29.538,29.538
	s29.538-13.25,29.538-29.538C196.923,239.712,183.673,226.462,167.385,226.462z"/>
<path style="fill:#EAEAEA;" d="M295.385,256c0-36.626,18.321-69.005,46.23-88.615H108.288c-48.851,0-88.596,39.755-88.596,88.615
	s39.745,88.615,88.596,88.615h233.326C313.706,325.005,295.385,292.626,295.385,256z M167.385,305.231
	c-27.144,0-49.231-22.087-49.231-49.231c0-27.144,22.087-49.231,49.231-49.231s49.231,22.087,49.231,49.231
	C216.615,283.144,194.529,305.231,167.385,305.231z"/>
<path style="fill:#D8D8D8;" d="M403.692,167.385c-48.861,0-88.615,39.755-88.615,88.615s39.755,88.615,88.615,88.615
	s88.615-39.755,88.615-88.615S452.553,167.385,403.692,167.385z M403.692,315.077c-32.577,0-59.077-26.5-59.077-59.077
	s26.5-59.077,59.077-59.077s59.077,26.5,59.077,59.077S436.269,315.077,403.692,315.077z"/>
<g>
	<path style="fill:#314E55;" d="M512,256c0-59.713-48.572-108.292-108.282-108.306c-0.002,0-0.004-0.001-0.004-0.001H108.288
		C48.577,147.692,0,196.279,0,256s48.577,108.308,108.288,108.308h295.423c0,0,0.004-0.001,0.007-0.001
		C463.428,364.292,512,315.713,512,256z M108.288,344.615c-48.851,0-88.596-39.755-88.596-88.615s39.745-88.615,88.596-88.615
		h233.326c-27.909,19.611-46.23,51.989-46.23,88.615s18.321,69.005,46.23,88.615H108.288z M403.692,344.615
		c-48.861,0-88.615-39.755-88.615-88.615s39.755-88.615,88.615-88.615s88.615,39.755,88.615,88.615S452.553,344.615,403.692,344.615
		z"/>
	<path style="fill:#314E55;" d="M403.692,196.923c-32.577,0-59.077,26.5-59.077,59.077s26.5,59.077,59.077,59.077
		s59.077-26.5,59.077-59.077S436.269,196.923,403.692,196.923z M403.692,295.385c-21.716,0-39.385-17.668-39.385-39.385
		s17.668-39.385,39.385-39.385s39.385,17.668,39.385,39.385S425.409,295.385,403.692,295.385z"/>
	<path style="fill:#314E55;" d="M167.385,206.769c-27.144,0-49.231,22.087-49.231,49.231c0,27.144,22.087,49.231,49.231,49.231
		s49.231-22.087,49.231-49.231C216.615,228.856,194.529,206.769,167.385,206.769z M167.385,285.538
		c-16.288,0-29.538-13.25-29.538-29.538c0-16.288,13.25-29.538,29.538-29.538s29.538,13.25,29.538,29.538
		C196.923,272.289,183.673,285.538,167.385,285.538z"/>
</g>
<g>
</g>
<g>
</g>
<g>
</g>
<g>
</g>
<g>
</g>
<g>
</g>
<g>
</g>
<g>
</g>
<g>
</g>
<g>
</g>
<g>
</g>
<g>
</g>
<g>
</g>
<g>
</g>
<g>
</g>
</svg>
