<?xml version="1.0" encoding="iso-8859-1"?>
<!-- Generator: Adobe Illustrator 19.0.0, SVG Export Plug-In . SVG Version: 6.00 Build 0)  -->
<svg version="1.1" id="Layer_1" xmlns="http://www.w3.org/2000/svg" xmlns:xlink="http://www.w3.org/1999/xlink" x="0px" y="0px"
	 viewBox="0 0 512 512" style="enable-background:new 0 0 512 512;" xml:space="preserve">
<path style="fill:#5ECB66;" d="M348.563,265.143H163.437L147.589,384h216.821L348.563,265.143z M256,365.714
	c-25.205,0-45.714-20.509-45.714-45.714c0-25.205,20.509-45.714,45.714-45.714s45.714,20.509,45.714,45.714
	C301.714,345.205,281.205,365.714,256,365.714z"/>
<g>
	<path style="fill:#DBCF56;" d="M163.437,246.857h185.125L364.411,128H147.589L163.437,246.857z M246.857,146.286h18.286v82.286
		h-18.286V146.286z"/>
	<rect x="146.286" y="100.571" style="fill:#DBCF56;" width="219.429" height="9.143"/>
</g>
<rect x="146.286" y="402.286" style="fill:#5ECB66;" width="219.429" height="9.143"/>
<path style="fill:#E65F58;" d="M256,292.571c-15.125,0-27.429,12.304-27.429,27.429c0,15.125,12.304,27.429,27.429,27.429
	c15.125,0,27.429-12.304,27.429-27.429C283.429,304.875,271.125,292.571,256,292.571z"/>
<path style="fill:#D8D8D8;" d="M64,493.714h384V18.286H64V493.714z M128,393.143c0-0.223,0.111-0.41,0.127-0.63
	c0.013-0.194-0.072-0.381-0.046-0.576L146.205,256L128.08,120.062c-0.026-0.195,0.06-0.382,0.046-0.576
	c-0.016-0.22-0.127-0.406-0.127-0.629V91.429c0-5.053,4.089-9.143,9.143-9.143h237.714c5.054,0,9.143,4.089,9.143,9.143v27.429
	c0,0.223-0.111,0.411-0.127,0.629c-0.013,0.195,0.072,0.381,0.046,0.576L365.795,256l18.125,135.938
	c0.026,0.195-0.06,0.381-0.046,0.576c0.016,0.219,0.127,0.406,0.127,0.629v27.429c0,5.053-4.089,9.143-9.143,9.143H137.143
	c-5.053,0-9.143-4.089-9.143-9.143V393.143z"/>
<g>
	<path style="fill:#314E55;" d="M457.143,0H54.857c-5.053,0-9.143,4.089-9.143,9.143v493.714c0,5.053,4.089,9.143,9.143,9.143
		h402.286c5.053,0,9.143-4.089,9.143-9.143V9.143C466.286,4.089,462.196,0,457.143,0z M448,493.714H64V18.286h384V493.714z"/>
	<path style="fill:#314E55;" d="M137.143,429.714h237.714c5.054,0,9.143-4.089,9.143-9.143v-27.429c0-0.223-0.111-0.411-0.127-0.63
		c-0.013-0.195,0.072-0.381,0.046-0.576L365.795,256l18.125-135.938c0.026-0.195-0.06-0.381-0.046-0.576
		c0.016-0.219,0.127-0.406,0.127-0.629V91.429c0-5.053-4.089-9.143-9.143-9.143H137.143c-5.053,0-9.143,4.089-9.143,9.143v27.429
		c0,0.223,0.111,0.41,0.127,0.629c0.013,0.194-0.072,0.381-0.046,0.576L146.205,256L128.08,391.938
		c-0.026,0.195,0.06,0.382,0.046,0.576c-0.016,0.22-0.127,0.406-0.127,0.629v27.429C128,425.625,132.089,429.714,137.143,429.714z
		 M365.714,411.429H146.286v-9.143h219.429V411.429z M348.563,246.857H163.437L147.589,128h216.821L348.563,246.857z
		 M163.437,265.143h185.125L364.411,384H147.589L163.437,265.143z M146.286,100.571h219.429v9.143H146.286V100.571z"/>
	<rect x="246.857" y="146.286" style="fill:#314E55;" width="18.286" height="82.286"/>
	<path style="fill:#314E55;" d="M256,274.286c-25.205,0-45.714,20.509-45.714,45.714c0,25.205,20.509,45.714,45.714,45.714
		s45.714-20.509,45.714-45.714C301.714,294.795,281.205,274.286,256,274.286z M256,347.429c-15.125,0-27.429-12.304-27.429-27.429
		c0-15.125,12.304-27.429,27.429-27.429c15.125,0,27.429,12.304,27.429,27.429C283.429,335.125,271.125,347.429,256,347.429z"/>
</g>
<g>
</g>
<g>
</g>
<g>
</g>
<g>
</g>
<g>
</g>
<g>
</g>
<g>
</g>
<g>
</g>
<g>
</g>
<g>
</g>
<g>
</g>
<g>
</g>
<g>
</g>
<g>
</g>
<g>
</g>
</svg>
