<?xml version="1.0" encoding="iso-8859-1"?>
<!-- Generator: Adobe Illustrator 19.0.0, SVG Export Plug-In . SVG Version: 6.00 Build 0)  -->
<svg version="1.1" id="Layer_1" xmlns="http://www.w3.org/2000/svg" xmlns:xlink="http://www.w3.org/1999/xlink" x="0px" y="0px"
	 viewBox="0 0 512 512" style="enable-background:new 0 0 512 512;" xml:space="preserve">
<path style="fill:#E65F58;" d="M147.692,256c0-21.716-17.663-39.385-39.385-39.385S68.923,234.284,68.923,256
	s17.664,39.385,39.385,39.385S147.692,277.716,147.692,256z"/>
<path style="fill:#D8D8D8;" d="M196.923,256c0-48.861-39.75-88.615-88.615-88.615S19.692,207.139,19.692,256
	s39.75,88.615,88.615,88.615S196.923,304.861,196.923,256z M49.231,256c0-32.577,26.5-59.077,59.077-59.077
	s59.077,26.5,59.077,59.077s-26.5,59.077-59.077,59.077S49.231,288.577,49.231,256z"/>
<path style="fill:#EAEAEA;" d="M403.712,167.385H170.385c27.909,19.611,46.23,51.989,46.23,88.615s-18.321,69.005-46.23,88.615
	h233.326c48.856,0,88.596-39.755,88.596-88.615S452.567,167.385,403.712,167.385z M364.308,295.385h-19.692v-78.769h19.692V295.385z
	"/>
<g>
	<path style="fill:#314E55;" d="M403.712,147.692H108.288c0,0-0.004,0.001-0.007,0.001C48.572,147.708,0,196.287,0,256
		s48.572,108.292,108.282,108.306c0.002,0,0.004,0.001,0.004,0.001h295.425C463.423,364.308,512,315.721,512,256
		S463.423,147.692,403.712,147.692z M19.692,256c0-48.861,39.75-88.615,88.615-88.615s88.615,39.755,88.615,88.615
		s-39.75,88.615-88.615,88.615S19.692,304.861,19.692,256z M403.712,344.615H170.385c27.909-19.611,46.23-51.989,46.23-88.615
		s-18.321-69.005-46.23-88.615h233.326c48.856,0,88.596,39.755,88.596,88.615S452.567,344.615,403.712,344.615z"/>
	<path style="fill:#314E55;" d="M167.385,256c0-32.577-26.5-59.077-59.077-59.077S49.231,223.423,49.231,256
		s26.5,59.077,59.077,59.077S167.385,288.577,167.385,256z M68.923,256c0-21.716,17.664-39.385,39.385-39.385
		s39.385,17.668,39.385,39.385s-17.663,39.385-39.385,39.385S68.923,277.716,68.923,256z"/>
	<rect x="344.615" y="216.615" style="fill:#314E55;" width="19.692" height="78.769"/>
</g>
<g>
</g>
<g>
</g>
<g>
</g>
<g>
</g>
<g>
</g>
<g>
</g>
<g>
</g>
<g>
</g>
<g>
</g>
<g>
</g>
<g>
</g>
<g>
</g>
<g>
</g>
<g>
</g>
<g>
</g>
</svg>
