<?xml version="1.0" encoding="iso-8859-1"?>
<!-- Generator: Adobe Illustrator 19.0.0, SVG Export Plug-In . SVG Version: 6.00 Build 0)  -->
<svg version="1.1" id="Layer_1" xmlns="http://www.w3.org/2000/svg" xmlns:xlink="http://www.w3.org/1999/xlink" x="0px" y="0px"
	 viewBox="0 0 512 512" style="enable-background:new 0 0 512 512;" xml:space="preserve">
<path style="fill:#DBCF56;" d="M339.612,155.161c-0.451,0.069-0.856,0.268-1.326,0.268H173.714c-0.47,0-0.875-0.199-1.325-0.268
	c-4.992,11.283-7.818,23.73-7.818,36.839h182.857C347.429,178.891,344.603,166.444,339.612,155.161z"/>
<path style="fill:#5ECB66;" d="M256,411.429c50.411,0,91.429-41.018,91.429-91.429v-54.857H164.571V320
	C164.571,370.411,205.589,411.429,256,411.429z"/>
<g>
	<rect x="164.571" y="210.286" style="fill:#DBCF56;" width="182.857" height="36.571"/>
	<path style="fill:#DBCF56;" d="M328.967,137.143c-16.701-22.156-43.15-36.571-72.967-36.571c-29.817,0-56.266,14.415-72.967,36.571
		H328.967z"/>
</g>
<path style="fill:#D8D8D8;" d="M18.286,493.714h475.429V18.286H18.286V493.714z M146.286,256v-64
	c0-60.5,49.214-109.714,109.714-109.714S365.714,131.5,365.714,192v64v64c0,60.5-49.214,109.714-109.714,109.714
	S146.286,380.5,146.286,320V256z"/>
<g>
	<path style="fill:#314E55;" d="M502.857,0H9.143C4.089,0,0,4.089,0,9.143v493.714C0,507.911,4.089,512,9.143,512h493.714
		c5.053,0,9.143-4.089,9.143-9.143V9.143C512,4.089,507.911,0,502.857,0z M493.714,493.714H18.286V18.286h475.429V493.714z"/>
	<path style="fill:#314E55;" d="M256,429.714c60.5,0,109.714-49.214,109.714-109.714v-64v-64c0-60.5-49.214-109.714-109.714-109.714
		S146.286,131.5,146.286,192v64v64C146.286,380.5,195.5,429.714,256,429.714z M164.571,210.286h182.857v36.571H164.571V210.286z
		 M256,100.571c29.817,0,56.266,14.415,72.967,36.571H183.033C199.734,114.987,226.183,100.571,256,100.571z M172.389,155.161
		c0.451,0.069,0.855,0.268,1.325,0.268h164.571c0.47,0,0.875-0.199,1.326-0.268c4.992,11.283,7.817,23.73,7.817,36.839H164.571
		C164.571,178.891,167.397,166.444,172.389,155.161z M164.571,265.143h182.857V320c0,50.411-41.018,91.429-91.429,91.429
		S164.571,370.411,164.571,320V265.143z"/>
</g>
<g>
</g>
<g>
</g>
<g>
</g>
<g>
</g>
<g>
</g>
<g>
</g>
<g>
</g>
<g>
</g>
<g>
</g>
<g>
</g>
<g>
</g>
<g>
</g>
<g>
</g>
<g>
</g>
<g>
</g>
</svg>
