<?xml version="1.0" encoding="iso-8859-1"?>
<!-- Generator: Adobe Illustrator 19.0.0, SVG Export Plug-In . SVG Version: 6.00 Build 0)  -->
<svg version="1.1" id="Layer_1" xmlns="http://www.w3.org/2000/svg" xmlns:xlink="http://www.w3.org/1999/xlink" x="0px" y="0px"
	 viewBox="0 0 512 512" style="enable-background:new 0 0 512 512;" xml:space="preserve">
<rect x="164.571" y="109.714" style="fill:#DBCF56;" width="182.857" height="137.143"/>
<g>
	<polygon style="fill:#5ECB66;" points="348.563,265.143 163.437,265.143 147.589,384 364.411,384 	"/>
	<rect x="146.286" y="402.286" style="fill:#5ECB66;" width="219.429" height="9.143"/>
</g>
<path style="fill:#D8D8D8;" d="M64,493.714h384V18.286H64V493.714z M128,393.143c0-0.223,0.111-0.41,0.127-0.63
	c0.013-0.194-0.072-0.381-0.046-0.576l18.205-136.54V100.571c0-5.053,4.089-9.143,9.143-9.143h201.143
	c5.053,0,9.143,4.089,9.143,9.143v154.826l18.205,136.54c0.026,0.195-0.06,0.381-0.046,0.576c0.016,0.219,0.127,0.406,0.127,0.63
	v27.429c0,5.053-4.089,9.143-9.143,9.143H137.143c-5.053,0-9.143-4.089-9.143-9.143V393.143z"/>
<g>
	<path style="fill:#314E55;" d="M457.143,0H54.857c-5.053,0-9.143,4.089-9.143,9.143v493.714c0,5.053,4.089,9.143,9.143,9.143
		h402.286c5.053,0,9.143-4.089,9.143-9.143V9.143C466.286,4.089,462.196,0,457.143,0z M448,493.714H64V18.286h384V493.714z"/>
	<path style="fill:#314E55;" d="M137.143,429.714h237.714c5.054,0,9.143-4.089,9.143-9.143v-27.429c0-0.223-0.111-0.411-0.127-0.63
		c-0.013-0.195,0.072-0.381,0.046-0.576l-18.205-136.54V100.571c0-5.053-4.089-9.143-9.143-9.143H155.429
		c-5.053,0-9.143,4.089-9.143,9.143v154.826l-18.205,136.54c-0.026,0.195,0.06,0.382,0.046,0.576
		c-0.016,0.22-0.127,0.406-0.127,0.63v27.429C128,425.625,132.089,429.714,137.143,429.714z M365.714,411.429H146.286v-9.143
		h219.429V411.429z M163.437,265.143h185.125L364.411,384H147.589L163.437,265.143z M164.571,109.714h182.857v137.143H164.571
		V109.714z"/>
</g>
<g>
</g>
<g>
</g>
<g>
</g>
<g>
</g>
<g>
</g>
<g>
</g>
<g>
</g>
<g>
</g>
<g>
</g>
<g>
</g>
<g>
</g>
<g>
</g>
<g>
</g>
<g>
</g>
<g>
</g>
</svg>
