<?xml version="1.0" encoding="iso-8859-1"?>
<!-- Generator: Adobe Illustrator 19.0.0, SVG Export Plug-In . SVG Version: 6.00 Build 0)  -->
<svg version="1.1" id="Layer_1" xmlns="http://www.w3.org/2000/svg" xmlns:xlink="http://www.w3.org/1999/xlink" x="0px" y="0px"
	 viewBox="0 0 512 512" style="enable-background:new 0 0 512 512;" xml:space="preserve">
<path style="fill:#5ECB66;" d="M108.308,172.308c21.721,0,39.385-17.668,39.385-39.385s-17.663-39.385-39.385-39.385
	s-39.385,17.668-39.385,39.385S86.587,172.308,108.308,172.308z"/>
<path style="fill:#D8D8D8;" d="M108.308,221.538c48.865,0,88.615-39.755,88.615-88.615s-39.75-88.615-88.615-88.615
	s-88.615,39.755-88.615,88.615S59.442,221.538,108.308,221.538z M108.308,73.846c32.577,0,59.077,26.5,59.077,59.077
	S140.885,192,108.308,192s-59.077-26.5-59.077-59.077S75.731,73.846,108.308,73.846z"/>
<g>
	<path style="fill:#EAEAEA;" d="M216.615,132.923c0,36.626-18.321,69.005-46.23,88.615h233.326
		c48.856,0,88.596-39.755,88.596-88.615s-39.74-88.615-88.596-88.615H170.385C198.294,63.918,216.615,96.297,216.615,132.923z"/>
	<path style="fill:#EAEAEA;" d="M295.385,379.077c0-36.626,18.321-69.005,46.23-88.615H108.288
		c-48.856,0-88.596,39.755-88.596,88.615s39.74,88.615,88.596,88.615h233.326C313.706,448.082,295.385,415.703,295.385,379.077z"/>
</g>
<path style="fill:#D8D8D8;" d="M403.692,290.462c-48.865,0-88.615,39.755-88.615,88.615s39.75,88.615,88.615,88.615
	s88.615-39.755,88.615-88.615S452.558,290.462,403.692,290.462z M403.692,438.154c-32.577,0-59.077-26.5-59.077-59.077
	S371.115,320,403.692,320s59.077,26.5,59.077,59.077S436.269,438.154,403.692,438.154z"/>
<path style="fill:#E65F58;" d="M403.692,339.692c-21.721,0-39.385,17.668-39.385,39.385s17.663,39.385,39.385,39.385
	s39.385-17.668,39.385-39.385S425.413,339.692,403.692,339.692z"/>
<g>
	<path style="fill:#314E55;" d="M108.282,241.23c0.002,0,0.004,0.001,0.004,0.001h295.425c59.711,0,108.288-48.587,108.288-108.308
		S463.423,24.615,403.712,24.615H108.288c0,0-0.004,0.001-0.007,0.001C48.572,24.631,0,73.21,0,132.923
		S48.572,241.215,108.282,241.23z M403.712,44.308c48.856,0,88.596,39.755,88.596,88.615s-39.74,88.615-88.596,88.615H170.385
		c27.909-19.611,46.23-51.989,46.23-88.615s-18.321-69.005-46.23-88.615H403.712z M108.308,44.308
		c48.865,0,88.615,39.755,88.615,88.615s-39.75,88.615-88.615,88.615s-88.615-39.755-88.615-88.615S59.442,44.308,108.308,44.308z"
		/>
	<path style="fill:#314E55;" d="M108.308,192c32.577,0,59.077-26.5,59.077-59.077s-26.5-59.077-59.077-59.077
		s-59.077,26.5-59.077,59.077S75.731,192,108.308,192z M108.308,93.538c21.721,0,39.385,17.668,39.385,39.385
		s-17.663,39.385-39.385,39.385s-39.385-17.668-39.385-39.385S86.587,93.538,108.308,93.538z"/>
	<path style="fill:#314E55;" d="M403.718,270.77c-0.002,0-0.004-0.001-0.004-0.001H108.288C48.577,270.769,0,319.356,0,379.077
		s48.577,108.308,108.288,108.308h295.423c0,0,0.004-0.001,0.007-0.001C463.428,487.369,512,438.79,512,379.077
		S463.428,270.785,403.718,270.77z M108.288,467.692c-48.856,0-88.596-39.755-88.596-88.615s39.74-88.615,88.596-88.615h233.326
		c-27.909,19.611-46.23,51.989-46.23,88.615s18.321,69.005,46.23,88.615H108.288z M403.692,467.692
		c-48.865,0-88.615-39.755-88.615-88.615s39.75-88.615,88.615-88.615s88.615,39.755,88.615,88.615S452.558,467.692,403.692,467.692z
		"/>
	<path style="fill:#314E55;" d="M403.692,320c-32.577,0-59.077,26.5-59.077,59.077s26.5,59.077,59.077,59.077
		s59.077-26.5,59.077-59.077S436.269,320,403.692,320z M403.692,418.462c-21.721,0-39.385-17.668-39.385-39.385
		s17.663-39.385,39.385-39.385s39.385,17.668,39.385,39.385S425.413,418.462,403.692,418.462z"/>
</g>
<g>
</g>
<g>
</g>
<g>
</g>
<g>
</g>
<g>
</g>
<g>
</g>
<g>
</g>
<g>
</g>
<g>
</g>
<g>
</g>
<g>
</g>
<g>
</g>
<g>
</g>
<g>
</g>
<g>
</g>
</svg>
