<?xml version="1.0" encoding="iso-8859-1"?>
<!-- Generator: Adobe Illustrator 19.0.0, SVG Export Plug-In . SVG Version: 6.00 Build 0)  -->
<svg version="1.1" id="Layer_1" xmlns="http://www.w3.org/2000/svg" xmlns:xlink="http://www.w3.org/1999/xlink" x="0px" y="0px"
	 viewBox="0 0 512 512" style="enable-background:new 0 0 512 512;" xml:space="preserve">
<g>
	<path style="fill:#314E55;" d="M9.481,199.111c5.236,0,9.481-4.245,9.481-9.481V18.963H189.63c5.236,0,9.481-4.245,9.481-9.481
		S194.866,0,189.63,0H9.481C4.245,0,0,4.245,0,9.481V189.63C0,194.866,4.245,199.111,9.481,199.111z"/>
	<path style="fill:#314E55;" d="M502.519,0H322.37c-5.236,0-9.481,4.245-9.481,9.481s4.245,9.481,9.481,9.481h170.667V189.63
		c0,5.236,4.245,9.481,9.481,9.481S512,194.866,512,189.63V9.481C512,4.245,507.755,0,502.519,0z"/>
	<path style="fill:#314E55;" d="M189.63,493.037H18.963V322.37c0-5.236-4.245-9.481-9.481-9.481S0,317.134,0,322.37v180.148
		C0,507.755,4.245,512,9.481,512H189.63c5.236,0,9.481-4.245,9.481-9.481S194.866,493.037,189.63,493.037z"/>
	<path style="fill:#314E55;" d="M502.519,312.889c-5.236,0-9.481,4.245-9.481,9.481v170.667H322.37
		c-5.236,0-9.481,4.245-9.481,9.481S317.134,512,322.37,512h180.148c5.236,0,9.481-4.245,9.481-9.481V322.37
		C512,317.134,507.755,312.889,502.519,312.889z"/>
	<polygon style="fill:#314E55;" points="360.296,274.963 360.296,256 265.481,256 265.481,161.185 246.519,161.185 246.519,256 
		151.704,256 151.704,274.963 246.519,274.963 246.519,369.778 265.481,369.778 265.481,274.963 	"/>
</g>
<g>
</g>
<g>
</g>
<g>
</g>
<g>
</g>
<g>
</g>
<g>
</g>
<g>
</g>
<g>
</g>
<g>
</g>
<g>
</g>
<g>
</g>
<g>
</g>
<g>
</g>
<g>
</g>
<g>
</g>
</svg>
