<?xml version="1.0" encoding="iso-8859-1"?>
<!-- Generator: Adobe Illustrator 19.0.0, SVG Export Plug-In . SVG Version: 6.00 Build 0)  -->
<svg version="1.1" id="Layer_1" xmlns="http://www.w3.org/2000/svg" xmlns:xlink="http://www.w3.org/1999/xlink" x="0px" y="0px"
	 viewBox="0 0 512 512" style="enable-background:new 0 0 512 512;" xml:space="preserve">
<g>
	<path style="fill:#C9CDCE;" d="M36.571,18.286c-10.08,0-18.286,8.205-18.286,18.286s8.205,18.286,18.286,18.286
		s18.286-8.205,18.286-18.286S46.652,18.286,36.571,18.286z"/>
	<path style="fill:#C9CDCE;" d="M36.571,457.143c-10.08,0-18.286,8.205-18.286,18.286c0,10.08,8.205,18.286,18.286,18.286
		s18.286-8.205,18.286-18.286C54.857,465.348,46.652,457.143,36.571,457.143z"/>
	<path style="fill:#C9CDCE;" d="M475.429,54.857c10.08,0,18.286-8.205,18.286-18.286s-8.205-18.286-18.286-18.286
		c-10.08,0-18.286,8.205-18.286,18.286S465.348,54.857,475.429,54.857z"/>
	<path style="fill:#C9CDCE;" d="M475.429,457.143c-10.08,0-18.286,8.205-18.286,18.286c0,10.08,8.205,18.286,18.286,18.286
		c10.08,0,18.286-8.205,18.286-18.286C493.714,465.348,485.509,457.143,475.429,457.143z"/>
</g>
<path style="fill:#81A4E3;" d="M73.143,438.857h365.714V73.143H73.143V438.857z M91.964,188.902l29.607-82.286
	c1.312-3.625,4.75-6.045,8.607-6.045h251.643c3.857,0,7.295,2.42,8.607,6.045l29.607,82.286c1.705,4.75-0.759,9.991-5.509,11.705
	c-1.027,0.366-2.071,0.536-3.098,0.536c-3.75,0-7.259-2.321-8.607-6.045l-27.429-76.241h-110.25v274.286h27.429v18.286h-73.143
	v-18.286h27.429V118.857h-110.25l-27.429,76.241c-1.714,4.741-6.947,7.214-11.705,5.509
	C92.723,198.893,90.259,193.652,91.964,188.902z"/>
<g>
	<path style="fill:#314E55;" d="M97.473,200.607c4.759,1.705,9.991-0.768,11.705-5.509l27.429-76.241h110.25v274.286h-27.429v18.286
		h73.143v-18.286h-27.429V118.857h110.25l27.429,76.241c1.348,3.723,4.857,6.045,8.607,6.045c1.027,0,2.071-0.17,3.098-0.536
		c4.75-1.714,7.214-6.955,5.509-11.705l-29.607-82.286c-1.313-3.625-4.75-6.045-8.607-6.045H130.179
		c-3.857,0-7.295,2.42-8.607,6.045l-29.607,82.286C90.259,193.652,92.723,198.893,97.473,200.607z"/>
	<path style="fill:#314E55;" d="M475.429,438.857c-6.691,0-12.885,1.936-18.286,5.085V68.058c5.401,3.148,11.594,5.085,18.286,5.085
		c20.17,0,36.571-16.402,36.571-36.571S495.598,0,475.429,0s-36.571,16.402-36.571,36.571c0,6.692,1.936,12.885,5.085,18.286H68.057
		c3.149-5.401,5.085-11.594,5.085-18.286C73.143,16.402,56.741,0,36.571,0S0,16.402,0,36.571s16.402,36.571,36.571,36.571
		c6.691,0,12.885-1.936,18.286-5.085v375.884c-5.401-3.148-11.594-5.085-18.286-5.085C16.402,438.857,0,455.259,0,475.429
		S16.402,512,36.571,512s36.571-16.402,36.571-36.571c0-6.692-1.936-12.885-5.085-18.286h375.885
		c-3.149,5.401-5.085,11.594-5.085,18.286c0,20.17,16.402,36.571,36.571,36.571c20.17,0,36.571-16.402,36.571-36.571
		S495.598,438.857,475.429,438.857z M475.429,18.286c10.08,0,18.286,8.205,18.286,18.286s-8.205,18.286-18.286,18.286
		c-10.08,0-18.286-8.205-18.286-18.286S465.348,18.286,475.429,18.286z M36.571,54.857c-10.08,0-18.286-8.205-18.286-18.286
		s8.205-18.286,18.286-18.286s18.286,8.205,18.286,18.286S46.652,54.857,36.571,54.857z M36.571,493.714
		c-10.08,0-18.286-8.205-18.286-18.286c0-10.08,8.205-18.286,18.286-18.286s18.286,8.205,18.286,18.286
		C54.857,485.509,46.652,493.714,36.571,493.714z M438.857,438.857H73.143V73.143h365.714V438.857z M475.429,493.714
		c-10.08,0-18.286-8.205-18.286-18.286c0-10.08,8.205-18.286,18.286-18.286c10.08,0,18.286,8.205,18.286,18.286
		C493.714,485.509,485.509,493.714,475.429,493.714z"/>
</g>
<g>
</g>
<g>
</g>
<g>
</g>
<g>
</g>
<g>
</g>
<g>
</g>
<g>
</g>
<g>
</g>
<g>
</g>
<g>
</g>
<g>
</g>
<g>
</g>
<g>
</g>
<g>
</g>
<g>
</g>
</svg>
