<?xml version="1.0" encoding="iso-8859-1"?>
<!-- Generator: Adobe Illustrator 19.0.0, SVG Export Plug-In . SVG Version: 6.00 Build 0)  -->
<svg version="1.1" id="Layer_1" xmlns="http://www.w3.org/2000/svg" xmlns:xlink="http://www.w3.org/1999/xlink" x="0px" y="0px"
	 viewBox="0 0 512 512" style="enable-background:new 0 0 512 512;" xml:space="preserve">
<g>
	<rect x="19.692" y="216.615" style="fill:#EA86A5;" width="78.769" height="78.769"/>
	<rect x="216.615" y="413.538" style="fill:#EA86A5;" width="78.769" height="78.769"/>
	<rect x="19.692" y="19.692" style="fill:#EA86A5;" width="78.769" height="78.769"/>
	<rect x="216.615" y="216.615" style="fill:#EA86A5;" width="78.769" height="78.769"/>
	<rect x="413.538" y="413.538" style="fill:#EA86A5;" width="78.769" height="78.769"/>
	<rect x="216.615" y="19.692" style="fill:#EA86A5;" width="78.769" height="78.769"/>
	<rect x="413.538" y="19.692" style="fill:#EA86A5;" width="78.769" height="78.769"/>
	<rect x="413.538" y="216.615" style="fill:#EA86A5;" width="78.769" height="78.769"/>
	<rect x="19.692" y="413.538" style="fill:#EA86A5;" width="78.769" height="78.769"/>
</g>
<g>
	<path style="fill:#314E55;" d="M108.308,0H9.846C4.404,0,0,4.409,0,9.846v98.462c0,5.438,4.404,9.846,9.846,9.846h98.462
		c5.442,0,9.846-4.409,9.846-9.846V9.846C118.154,4.409,113.75,0,108.308,0z M98.462,98.462H19.692V19.692h78.769V98.462z"/>
	<path style="fill:#314E55;" d="M305.231,0h-98.462c-5.442,0-9.846,4.409-9.846,9.846v98.462c0,5.438,4.404,9.846,9.846,9.846
		h98.462c5.442,0,9.846-4.409,9.846-9.846V9.846C315.077,4.409,310.673,0,305.231,0z M295.385,98.462h-78.769V19.692h78.769V98.462z
		"/>
	<path style="fill:#314E55;" d="M502.154,0h-98.462c-5.442,0-9.846,4.409-9.846,9.846v98.462c0,5.438,4.404,9.846,9.846,9.846
		h98.462c5.442,0,9.846-4.409,9.846-9.846V9.846C512,4.409,507.596,0,502.154,0z M492.308,98.462h-78.769V19.692h78.769V98.462z"/>
	<path style="fill:#314E55;" d="M108.308,196.923H9.846c-5.442,0-9.846,4.409-9.846,9.846v98.462c0,5.438,4.404,9.846,9.846,9.846
		h98.462c5.442,0,9.846-4.409,9.846-9.846v-98.462C118.154,201.332,113.75,196.923,108.308,196.923z M98.462,295.385H19.692v-78.769
		h78.769V295.385z"/>
	<path style="fill:#314E55;" d="M305.231,196.923h-98.462c-5.442,0-9.846,4.409-9.846,9.846v98.462c0,5.438,4.404,9.846,9.846,9.846
		h98.462c5.442,0,9.846-4.409,9.846-9.846v-98.462C315.077,201.332,310.673,196.923,305.231,196.923z M295.385,295.385h-78.769
		v-78.769h78.769V295.385z"/>
	<path style="fill:#314E55;" d="M502.154,196.923h-98.462c-5.442,0-9.846,4.409-9.846,9.846v98.462c0,5.438,4.404,9.846,9.846,9.846
		h98.462c5.442,0,9.846-4.409,9.846-9.846v-98.462C512,201.332,507.596,196.923,502.154,196.923z M492.308,295.385h-78.769v-78.769
		h78.769V295.385z"/>
	<path style="fill:#314E55;" d="M108.308,393.846H9.846c-5.442,0-9.846,4.409-9.846,9.846v98.462C0,507.591,4.404,512,9.846,512
		h98.462c5.442,0,9.846-4.409,9.846-9.846v-98.462C118.154,398.255,113.75,393.846,108.308,393.846z M98.462,492.308H19.692v-78.769
		h78.769V492.308z"/>
	<path style="fill:#314E55;" d="M305.231,393.846h-98.462c-5.442,0-9.846,4.409-9.846,9.846v98.462c0,5.438,4.404,9.846,9.846,9.846
		h98.462c5.442,0,9.846-4.409,9.846-9.846v-98.462C315.077,398.255,310.673,393.846,305.231,393.846z M295.385,492.308h-78.769
		v-78.769h78.769V492.308z"/>
	<path style="fill:#314E55;" d="M502.154,393.846h-98.462c-5.442,0-9.846,4.409-9.846,9.846v98.462c0,5.438,4.404,9.846,9.846,9.846
		h98.462c5.442,0,9.846-4.409,9.846-9.846v-98.462C512,398.255,507.596,393.846,502.154,393.846z M492.308,492.308h-78.769v-78.769
		h78.769V492.308z"/>
</g>
<g>
</g>
<g>
</g>
<g>
</g>
<g>
</g>
<g>
</g>
<g>
</g>
<g>
</g>
<g>
</g>
<g>
</g>
<g>
</g>
<g>
</g>
<g>
</g>
<g>
</g>
<g>
</g>
<g>
</g>
</svg>
