<?xml version="1.0" encoding="iso-8859-1"?>
<!-- Generator: Adobe Illustrator 19.0.0, SVG Export Plug-In . SVG Version: 6.00 Build 0)  -->
<svg version="1.1" id="Layer_1" xmlns="http://www.w3.org/2000/svg" xmlns:xlink="http://www.w3.org/1999/xlink" x="0px" y="0px"
	 viewBox="0 0 512 512" style="enable-background:new 0 0 512 512;" xml:space="preserve">
<g>
	<rect x="347.429" y="283.429" style="fill:#D8D8D8;" width="91.429" height="73.143"/>
	<rect x="210.286" y="283.429" style="fill:#D8D8D8;" width="91.429" height="73.143"/>
	<rect x="73.143" y="164.571" style="fill:#D8D8D8;" width="91.429" height="73.143"/>
</g>
<rect x="18.286" y="82.286" style="fill:#EA86A5;" width="475.429" height="27.429"/>
<g>
	<rect x="73.143" y="283.429" style="fill:#D8D8D8;" width="91.429" height="73.143"/>
	<rect x="210.286" y="164.571" style="fill:#D8D8D8;" width="91.429" height="73.143"/>
	<rect x="347.429" y="164.571" style="fill:#D8D8D8;" width="91.429" height="73.143"/>
</g>
<path style="fill:#EAEAEA;" d="M18.286,128v301.714h475.429V128H18.286z M182.857,365.714c0,5.053-4.089,9.143-9.143,9.143H64
	c-5.053,0-9.143-4.089-9.143-9.143v-91.429c0-5.053,4.089-9.143,9.143-9.143h109.714c5.053,0,9.143,4.089,9.143,9.143V365.714z
	 M182.857,246.857c0,5.053-4.089,9.143-9.143,9.143H64c-5.053,0-9.143-4.089-9.143-9.143v-91.429c0-5.053,4.089-9.143,9.143-9.143
	h109.714c5.053,0,9.143,4.089,9.143,9.143V246.857z M320,365.714c0,5.053-4.089,9.143-9.143,9.143H201.143
	c-5.053,0-9.143-4.089-9.143-9.143v-91.429c0-5.053,4.089-9.143,9.143-9.143h109.714c5.053,0,9.143,4.089,9.143,9.143V365.714z
	 M320,246.857c0,5.053-4.089,9.143-9.143,9.143H201.143c-5.053,0-9.143-4.089-9.143-9.143v-91.429c0-5.053,4.089-9.143,9.143-9.143
	h109.714c5.053,0,9.143,4.089,9.143,9.143V246.857z M457.143,365.714c0,5.053-4.089,9.143-9.143,9.143H338.286
	c-5.053,0-9.143-4.089-9.143-9.143v-91.429c0-5.053,4.089-9.143,9.143-9.143H448c5.053,0,9.143,4.089,9.143,9.143V365.714z
	 M457.143,246.857c0,5.053-4.089,9.143-9.143,9.143H338.286c-5.053,0-9.143-4.089-9.143-9.143v-91.429
	c0-5.053,4.089-9.143,9.143-9.143H448c5.053,0,9.143,4.089,9.143,9.143V246.857z"/>
<g>
	<path style="fill:#314E55;" d="M502.857,64H9.143C4.089,64,0,68.089,0,73.143v45.714v320C0,443.911,4.089,448,9.143,448h493.714
		c5.053,0,9.143-4.089,9.143-9.143v-320V73.143C512,68.089,507.911,64,502.857,64z M18.286,82.286h475.429v27.429H18.286V82.286z
		 M18.286,429.714V128h475.429v301.714H18.286z"/>
	<path style="fill:#314E55;" d="M173.714,146.286H64c-5.053,0-9.143,4.089-9.143,9.143v91.429c0,5.053,4.089,9.143,9.143,9.143
		h109.714c5.053,0,9.143-4.089,9.143-9.143v-91.429C182.857,150.375,178.768,146.286,173.714,146.286z M164.571,237.714H73.143
		v-73.143h91.429V237.714z"/>
	<path style="fill:#314E55;" d="M173.714,265.143H64c-5.053,0-9.143,4.089-9.143,9.143v91.429c0,5.053,4.089,9.143,9.143,9.143
		h109.714c5.053,0,9.143-4.089,9.143-9.143v-91.429C182.857,269.232,178.768,265.143,173.714,265.143z M164.571,356.571H73.143
		v-73.143h91.429V356.571z"/>
	<path style="fill:#314E55;" d="M448,146.286H338.286c-5.053,0-9.143,4.089-9.143,9.143v91.429c0,5.053,4.089,9.143,9.143,9.143H448
		c5.053,0,9.143-4.089,9.143-9.143v-91.429C457.143,150.375,453.054,146.286,448,146.286z M438.857,237.714h-91.429v-73.143h91.429
		V237.714z"/>
	<path style="fill:#314E55;" d="M448,265.143H338.286c-5.053,0-9.143,4.089-9.143,9.143v91.429c0,5.053,4.089,9.143,9.143,9.143H448
		c5.053,0,9.143-4.089,9.143-9.143v-91.429C457.143,269.232,453.054,265.143,448,265.143z M438.857,356.571h-91.429v-73.143h91.429
		V356.571z"/>
	<path style="fill:#314E55;" d="M310.857,146.286H201.143c-5.053,0-9.143,4.089-9.143,9.143v91.429c0,5.053,4.089,9.143,9.143,9.143
		h109.714c5.053,0,9.143-4.089,9.143-9.143v-91.429C320,150.375,315.911,146.286,310.857,146.286z M301.714,237.714h-91.429v-73.143
		h91.429V237.714z"/>
	<path style="fill:#314E55;" d="M310.857,265.143H201.143c-5.053,0-9.143,4.089-9.143,9.143v91.429c0,5.053,4.089,9.143,9.143,9.143
		h109.714c5.053,0,9.143-4.089,9.143-9.143v-91.429C320,269.232,315.911,265.143,310.857,265.143z M301.714,356.571h-91.429v-73.143
		h91.429V356.571z"/>
</g>
<g>
</g>
<g>
</g>
<g>
</g>
<g>
</g>
<g>
</g>
<g>
</g>
<g>
</g>
<g>
</g>
<g>
</g>
<g>
</g>
<g>
</g>
<g>
</g>
<g>
</g>
<g>
</g>
<g>
</g>
</svg>
