<?xml version="1.0" encoding="iso-8859-1"?>
<!-- Generator: Adobe Illustrator 19.0.0, SVG Export Plug-In . SVG Version: 6.00 Build 0)  -->
<svg version="1.1" id="Layer_1" xmlns="http://www.w3.org/2000/svg" xmlns:xlink="http://www.w3.org/1999/xlink" x="0px" y="0px"
	 viewBox="0 0 512 512" style="enable-background:new 0 0 512 512;" xml:space="preserve">
<g>
	<rect x="19.321" y="19.321" style="fill:#F28544;" width="202.868" height="202.868"/>
	<rect x="289.811" y="289.811" style="fill:#F28544;" width="202.868" height="202.868"/>
	<rect x="19.321" y="289.811" style="fill:#F28544;" width="202.868" height="202.868"/>
	<rect x="289.811" y="19.321" style="fill:#F28544;" width="202.868" height="202.868"/>
</g>
<g>
	<path style="fill:#314E55;" d="M231.849,0H9.66C4.321,0,0,4.325,0,9.66v222.189c0,5.335,4.321,9.66,9.66,9.66h222.189
		c5.34,0,9.66-4.325,9.66-9.66V9.66C241.509,4.325,237.189,0,231.849,0z M222.189,222.189H19.321V19.321h202.868V222.189z"/>
	<path style="fill:#314E55;" d="M502.34,0H280.151c-5.34,0-9.66,4.325-9.66,9.66v222.189c0,5.335,4.321,9.66,9.66,9.66H502.34
		c5.34,0,9.66-4.325,9.66-9.66V9.66C512,4.325,507.679,0,502.34,0z M492.679,222.189H289.811V19.321h202.868V222.189z"/>
	<path style="fill:#314E55;" d="M231.849,270.491H9.66c-5.34,0-9.66,4.325-9.66,9.66V502.34c0,5.335,4.321,9.66,9.66,9.66h222.189
		c5.34,0,9.66-4.325,9.66-9.66V280.151C241.509,274.816,237.189,270.491,231.849,270.491z M222.189,492.679H19.321V289.811h202.868
		V492.679z"/>
	<path style="fill:#314E55;" d="M502.34,270.491H280.151c-5.34,0-9.66,4.325-9.66,9.66V502.34c0,5.335,4.321,9.66,9.66,9.66H502.34
		c5.34,0,9.66-4.325,9.66-9.66V280.151C512,274.816,507.679,270.491,502.34,270.491z M492.679,492.679H289.811V289.811h202.868
		V492.679z"/>
</g>
<g>
</g>
<g>
</g>
<g>
</g>
<g>
</g>
<g>
</g>
<g>
</g>
<g>
</g>
<g>
</g>
<g>
</g>
<g>
</g>
<g>
</g>
<g>
</g>
<g>
</g>
<g>
</g>
<g>
</g>
</svg>
