<?xml version="1.0" encoding="iso-8859-1"?>
<!-- Generator: Adobe Illustrator 19.0.0, SVG Export Plug-In . SVG Version: 6.00 Build 0)  -->
<svg version="1.1" id="Layer_1" xmlns="http://www.w3.org/2000/svg" xmlns:xlink="http://www.w3.org/1999/xlink" x="0px" y="0px"
	 viewBox="0 0 512 512" style="enable-background:new 0 0 512 512;" xml:space="preserve">
<rect x="356.571" y="137.143" style="fill:#D8D8D8;" width="109.714" height="137.143"/>
<rect x="201.143" y="137.143" style="fill:#F28544;" width="109.714" height="137.143"/>
<rect x="201.143" y="329.143" style="fill:#D8D8D8;" width="109.714" height="100.571"/>
<g>
	<rect x="356.571" y="329.143" style="fill:#F28544;" width="109.714" height="100.571"/>
	<rect x="45.714" y="329.143" style="fill:#F28544;" width="109.714" height="100.571"/>
	<rect x="45.714" y="137.143" style="fill:#F28544;" width="109.714" height="137.143"/>
</g>
<path style="fill:#EAEAEA;" d="M18.286,429.714h9.143V320c0-5.053,4.094-9.143,9.143-9.143h128c5.049,0,9.143,4.089,9.143,9.143
	v109.714h9.143V320c0-5.053,4.094-9.143,9.143-9.143h128c5.049,0,9.143,4.089,9.143,9.143v109.714h9.143V320
	c0-5.053,4.094-9.143,9.143-9.143h128c5.049,0,9.143,4.089,9.143,9.143v109.714h9.143V82.286H18.286V429.714z M338.286,128
	c0-5.053,4.094-9.143,9.143-9.143h128c5.049,0,9.143,4.089,9.143,9.143v155.429c0,5.053-4.094,9.143-9.143,9.143h-128
	c-5.049,0-9.143-4.089-9.143-9.143V128z M182.857,128c0-5.053,4.094-9.143,9.143-9.143h128c5.049,0,9.143,4.089,9.143,9.143v155.429
	c0,5.053-4.094,9.143-9.143,9.143H192c-5.049,0-9.143-4.089-9.143-9.143V128z M27.429,128c0-5.053,4.094-9.143,9.143-9.143h128
	c5.049,0,9.143,4.089,9.143,9.143v155.429c0,5.053-4.094,9.143-9.143,9.143h-128c-5.049,0-9.143-4.089-9.143-9.143V128z"/>
<g>
	<path style="fill:#314E55;" d="M502.857,64H9.143C4.094,64,0,68.089,0,73.143v365.714C0,443.911,4.094,448,9.143,448h27.429h128
		H192h128h27.429h128h27.429c5.049,0,9.143-4.089,9.143-9.143V73.143C512,68.089,507.906,64,502.857,64z M45.714,429.714V329.143
		h109.714v100.571H45.714z M201.143,429.714V329.143h109.714v100.571H201.143z M356.571,429.714V329.143h109.714v100.571H356.571z
		 M493.714,429.714h-9.143V320c0-5.053-4.094-9.143-9.143-9.143h-128c-5.049,0-9.143,4.089-9.143,9.143v109.714h-9.143V320
		c0-5.053-4.094-9.143-9.143-9.143H192c-5.049,0-9.143,4.089-9.143,9.143v109.714h-9.143V320c0-5.053-4.094-9.143-9.143-9.143h-128
		c-5.049,0-9.143,4.089-9.143,9.143v109.714h-9.143V82.286h475.429V429.714z"/>
	<path style="fill:#314E55;" d="M36.571,292.571h128c5.049,0,9.143-4.089,9.143-9.143V128c0-5.053-4.094-9.143-9.143-9.143h-128
		c-5.049,0-9.143,4.089-9.143,9.143v155.429C27.429,288.482,31.522,292.571,36.571,292.571z M45.714,137.143h109.714v137.143H45.714
		V137.143z"/>
	<path style="fill:#314E55;" d="M192,292.571h128c5.049,0,9.143-4.089,9.143-9.143V128c0-5.053-4.094-9.143-9.143-9.143H192
		c-5.049,0-9.143,4.089-9.143,9.143v155.429C182.857,288.482,186.951,292.571,192,292.571z M201.143,137.143h109.714v137.143
		H201.143V137.143z"/>
	<path style="fill:#314E55;" d="M347.429,292.571h128c5.049,0,9.143-4.089,9.143-9.143V128c0-5.053-4.094-9.143-9.143-9.143h-128
		c-5.049,0-9.143,4.089-9.143,9.143v155.429C338.286,288.482,342.379,292.571,347.429,292.571z M356.571,137.143h109.714v137.143
		H356.571V137.143z"/>
</g>
<g>
</g>
<g>
</g>
<g>
</g>
<g>
</g>
<g>
</g>
<g>
</g>
<g>
</g>
<g>
</g>
<g>
</g>
<g>
</g>
<g>
</g>
<g>
</g>
<g>
</g>
<g>
</g>
<g>
</g>
</svg>
