<?xml version="1.0" encoding="iso-8859-1"?>
<!-- Generator: Adobe Illustrator 19.0.0, SVG Export Plug-In . SVG Version: 6.00 Build 0)  -->
<svg version="1.1" id="Layer_1" xmlns="http://www.w3.org/2000/svg" xmlns:xlink="http://www.w3.org/1999/xlink" x="0px" y="0px"
	 viewBox="0 0 512 512" style="enable-background:new 0 0 512 512;" xml:space="preserve">
<g>
	<rect x="398.222" y="393.481" style="fill:#E4AD40;" width="94.815" height="94.815"/>
	<rect x="18.963" y="23.704" style="fill:#E4AD40;" width="265.481" height="265.481"/>
	<rect x="18.963" y="393.481" style="fill:#E4AD40;" width="94.815" height="94.815"/>
	<rect x="398.222" y="23.704" style="fill:#E4AD40;" width="94.815" height="94.815"/>
</g>
<g>
	<path style="fill:#314E55;" d="M293.926,4.741H9.481C4.241,4.741,0,8.986,0,14.222v284.444c0,5.236,4.241,9.482,9.481,9.482
		h284.444c5.241,0,9.481-4.245,9.481-9.482V14.222C303.407,8.986,299.167,4.741,293.926,4.741z M284.444,289.185H18.963V23.704
		h265.482V289.185z"/>
	<path style="fill:#314E55;" d="M502.519,4.741H388.741c-5.241,0-9.481,4.245-9.481,9.481V128c0,5.236,4.241,9.481,9.481,9.481
		h113.778c5.241,0,9.481-4.245,9.481-9.481V14.222C512,8.986,507.759,4.741,502.519,4.741z M493.037,118.519h-94.815V23.704h94.815
		V118.519z"/>
	<path style="fill:#314E55;" d="M502.519,374.519H388.741c-5.241,0-9.481,4.245-9.481,9.481v113.778
		c0,5.236,4.241,9.482,9.481,9.482h113.778c5.241,0,9.481-4.245,9.481-9.482V384C512,378.764,507.759,374.519,502.519,374.519z
		 M493.037,488.296h-94.815v-94.815h94.815V488.296z"/>
	<path style="fill:#314E55;" d="M123.259,374.519H9.481C4.241,374.519,0,378.764,0,384v113.778c0,5.236,4.241,9.482,9.481,9.482
		h113.778c5.241,0,9.481-4.245,9.481-9.482V384C132.741,378.764,128.5,374.519,123.259,374.519z M113.778,488.296H18.963v-94.815
		h94.815V488.296z"/>
</g>
<g>
</g>
<g>
</g>
<g>
</g>
<g>
</g>
<g>
</g>
<g>
</g>
<g>
</g>
<g>
</g>
<g>
</g>
<g>
</g>
<g>
</g>
<g>
</g>
<g>
</g>
<g>
</g>
<g>
</g>
</svg>
