<?xml version="1.0" encoding="iso-8859-1"?>
<!-- Generator: Adobe Illustrator 19.0.0, SVG Export Plug-In . SVG Version: 6.00 Build 0)  -->
<svg version="1.1" id="Layer_1" xmlns="http://www.w3.org/2000/svg" xmlns:xlink="http://www.w3.org/1999/xlink" x="0px" y="0px"
	 viewBox="0 0 512 512" style="enable-background:new 0 0 512 512;" xml:space="preserve">
<g>
	<rect x="182.857" y="109.714" style="fill:#81A4E3;" width="91.429" height="54.857"/>
	<rect x="182.857" y="228.571" style="fill:#81A4E3;" width="91.429" height="54.857"/>
	<rect x="329.143" y="228.571" style="fill:#81A4E3;" width="91.429" height="54.857"/>
</g>
<rect x="18.286" y="82.286" style="fill:#C59981;" width="73.143" height="347.429"/>
<g>
	<rect x="329.143" y="109.714" style="fill:#81A4E3;" width="91.429" height="54.857"/>
	<rect x="329.143" y="347.429" style="fill:#81A4E3;" width="91.429" height="54.857"/>
</g>
<path style="fill:#D8D8D8;" d="M109.714,429.714h384V82.286h-384V429.714z M310.857,100.571c0-5.053,4.089-9.143,9.143-9.143
	h109.714c5.053,0,9.143,4.089,9.143,9.143v73.143c0,5.053-4.089,9.143-9.143,9.143H320c-5.053,0-9.143-4.089-9.143-9.143V100.571z
	 M310.857,219.429c0-5.053,4.089-9.143,9.143-9.143h109.714c5.053,0,9.143,4.089,9.143,9.143v73.143
	c0,5.053-4.089,9.143-9.143,9.143H320c-5.053,0-9.143-4.089-9.143-9.143V219.429z M310.857,338.286c0-5.053,4.089-9.143,9.143-9.143
	h109.714c5.053,0,9.143,4.089,9.143,9.143v73.143c0,5.053-4.089,9.143-9.143,9.143H320c-5.053,0-9.143-4.089-9.143-9.143V338.286z
	 M164.571,100.571c0-5.053,4.089-9.143,9.143-9.143h109.714c5.053,0,9.143,4.089,9.143,9.143v73.143
	c0,5.053-4.089,9.143-9.143,9.143H173.714c-5.053,0-9.143-4.089-9.143-9.143V100.571z M164.571,219.429
	c0-5.053,4.089-9.143,9.143-9.143h109.714c5.053,0,9.143,4.089,9.143,9.143v73.143c0,5.053-4.089,9.143-9.143,9.143H173.714
	c-5.053,0-9.143-4.089-9.143-9.143V219.429z M173.714,329.143h109.714c5.053,0,9.143,4.089,9.143,9.143v73.143
	c0,5.053-4.089,9.143-9.143,9.143H173.714c-5.053,0-9.143-4.089-9.143-9.143v-73.143
	C164.571,333.232,168.661,329.143,173.714,329.143z"/>
<rect x="182.857" y="347.429" style="fill:#81A4E3;" width="91.429" height="54.857"/>
<g>
	<path style="fill:#314E55;" d="M502.857,64H100.571H9.143C4.089,64,0,68.089,0,73.143v365.714C0,443.911,4.089,448,9.143,448
		h91.429h402.286c5.053,0,9.143-4.089,9.143-9.143V73.143C512,68.089,507.911,64,502.857,64z M18.286,429.714V82.286h73.143v347.429
		H18.286z M493.714,429.714h-384V82.286h384V429.714z"/>
	<path style="fill:#314E55;" d="M173.714,182.857h109.714c5.053,0,9.143-4.089,9.143-9.143v-73.143c0-5.053-4.089-9.143-9.143-9.143
		H173.714c-5.053,0-9.143,4.089-9.143,9.143v73.143C164.571,178.768,168.661,182.857,173.714,182.857z M182.857,109.714h91.429
		v54.857h-91.429V109.714z"/>
	<path style="fill:#314E55;" d="M173.714,301.714h109.714c5.053,0,9.143-4.089,9.143-9.143v-73.143c0-5.053-4.089-9.143-9.143-9.143
		H173.714c-5.053,0-9.143,4.089-9.143,9.143v73.143C164.571,297.625,168.661,301.714,173.714,301.714z M182.857,228.571h91.429
		v54.857h-91.429V228.571z"/>
	<path style="fill:#314E55;" d="M173.714,420.571h109.714c5.053,0,9.143-4.089,9.143-9.143v-73.143c0-5.053-4.089-9.143-9.143-9.143
		H173.714c-5.053,0-9.143,4.089-9.143,9.143v73.143C164.571,416.482,168.661,420.571,173.714,420.571z M182.857,347.429h91.429
		v54.857h-91.429V347.429z"/>
	<path style="fill:#314E55;" d="M320,182.857h109.714c5.053,0,9.143-4.089,9.143-9.143v-73.143c0-5.053-4.089-9.143-9.143-9.143H320
		c-5.053,0-9.143,4.089-9.143,9.143v73.143C310.857,178.768,314.947,182.857,320,182.857z M329.143,109.714h91.429v54.857h-91.429
		V109.714z"/>
	<path style="fill:#314E55;" d="M320,301.714h109.714c5.053,0,9.143-4.089,9.143-9.143v-73.143c0-5.053-4.089-9.143-9.143-9.143H320
		c-5.053,0-9.143,4.089-9.143,9.143v73.143C310.857,297.625,314.947,301.714,320,301.714z M329.143,228.571h91.429v54.857h-91.429
		V228.571z"/>
	<path style="fill:#314E55;" d="M320,420.571h109.714c5.053,0,9.143-4.089,9.143-9.143v-73.143c0-5.053-4.089-9.143-9.143-9.143H320
		c-5.053,0-9.143,4.089-9.143,9.143v73.143C310.857,416.482,314.947,420.571,320,420.571z M329.143,347.429h91.429v54.857h-91.429
		V347.429z"/>
</g>
<g>
</g>
<g>
</g>
<g>
</g>
<g>
</g>
<g>
</g>
<g>
</g>
<g>
</g>
<g>
</g>
<g>
</g>
<g>
</g>
<g>
</g>
<g>
</g>
<g>
</g>
<g>
</g>
<g>
</g>
</svg>
