<?xml version="1.0" encoding="iso-8859-1"?>
<!-- Generator: Adobe Illustrator 19.0.0, SVG Export Plug-In . SVG Version: 6.00 Build 0)  -->
<svg version="1.1" id="Layer_1" xmlns="http://www.w3.org/2000/svg" xmlns:xlink="http://www.w3.org/1999/xlink" x="0px" y="0px"
	 viewBox="0 0 512 512" style="enable-background:new 0 0 512 512;" xml:space="preserve">
<rect x="19.746" y="425.62" style="fill:#F28544;" width="59.237" height="59.237"/>
<path style="fill:#5ECB66;" d="M411.373,247.655L271.755,108.031c0,0-0.005-0.011-0.01-0.015l-23.429-23.429L171.514,325.96
	l77.229-77.223c-3.408-6.78-5.411-14.219-5.411-22.028c0-13.19,5.139-25.584,14.462-34.907c9.314-9.323,21.713-14.462,34.902-14.462
	c13.189,0,25.579,5.134,34.902,14.462c9.323,9.323,14.462,21.717,14.462,34.907c0,13.185-5.139,25.579-14.462,34.902
	c-9.314,9.323-21.713,14.462-34.902,14.462c-11.748,0-22.74-4.276-31.612-11.755l-91.003,90.995l264.73-84.234l-23.397-23.396
	C411.403,247.67,411.385,247.667,411.373,247.655z"/>
<path style="fill:#D8D8D8;" d="M313.638,247.65c5.592-5.597,8.677-13.03,8.677-20.941c0-7.916-3.085-15.349-8.677-20.946
	c-5.592-5.597-13.026-8.677-20.941-8.677s-15.349,3.08-20.941,8.677s-8.677,13.03-8.677,20.946c0,7.911,3.085,15.344,8.677,20.941
	C282.939,258.834,302.454,258.834,313.638,247.65z"/>
<polygon style="fill:#EAEAEA;" points="293.77,102.119 417.289,225.636 489.093,129.898 389.506,30.311 "/>
<g>
	<path style="fill:#314E55;" d="M509.109,121.992L397.412,10.296c-3.471-3.471-8.986-3.866-12.9-0.916L279.667,88.016
		l-28.863-28.862c-2.439-2.449-6.007-3.437-9.314-2.613c-3.346,0.815-6.026,3.317-7.077,6.6l-93.291,293.207l-9.989,9.989
		l5.314,5.315c-0.535,3.124,0.372,6.349,2.659,8.636c1.88,1.88,4.406,2.893,6.98,2.893c1.003,0,2.015-0.154,2.989-0.463
		l307.178-97.736c3.288-1.051,5.785-3.731,6.604-7.077c0.81-3.346-0.173-6.874-2.613-9.314l-28.852-28.851l78.631-104.843
		C512.975,130.964,512.58,125.468,509.109,121.992z M170.081,355.313l91.003-90.995c8.872,7.479,19.864,11.755,31.612,11.755
		c13.19,0,25.589-5.139,34.902-14.462c9.323-9.323,14.462-21.717,14.462-34.902c0-13.19-5.139-25.584-14.462-34.907
		c-9.323-9.328-21.713-14.462-34.902-14.462c-13.189,0-25.589,5.139-34.902,14.462c-9.323,9.323-14.462,21.717-14.462,34.907
		c0,7.81,2.003,15.248,5.411,22.028l-77.229,77.223l76.803-241.372l23.429,23.429c0.004,0.004,0.005,0.01,0.005,0.01
		l139.623,139.628c0.012,0.012,0.03,0.016,0.041,0.028l23.397,23.396L170.081,355.313z M263.077,226.708
		c0-7.916,3.085-15.349,8.677-20.946c5.592-5.597,13.026-8.677,20.941-8.677s15.349,3.08,20.941,8.677s8.677,13.03,8.677,20.946
		c0,7.911-3.085,15.344-8.677,20.941c-11.184,11.184-30.698,11.184-41.883,0C266.163,242.053,263.077,234.619,263.077,226.708z
		 M417.289,225.636L293.77,102.119l95.736-71.807l99.587,99.587L417.289,225.636z"/>
	<path style="fill:#314E55;" d="M494.02,425.612H375.17c-5.457,0-9.873,4.416-9.873,9.873c0,5.457,4.416,9.873,9.873,9.873h118.85
		c5.457,0,9.873-4.416,9.873-9.873C503.893,430.028,499.477,425.612,494.02,425.612z"/>
	<path style="fill:#314E55;" d="M98.729,415.739c0-5.457-4.416-9.873-9.873-9.873H59.237v-59.237H39.492v59.237H9.873
		c-5.457,0-9.873,4.416-9.873,9.873v78.983c0,5.457,4.416,9.873,9.873,9.873h78.983c5.457,0,9.873-4.416,9.873-9.873v-29.619h59.237
		v-19.746H98.729V415.739z M78.983,484.85H19.746v-59.237h59.237V484.85z"/>
</g>
<g>
</g>
<g>
</g>
<g>
</g>
<g>
</g>
<g>
</g>
<g>
</g>
<g>
</g>
<g>
</g>
<g>
</g>
<g>
</g>
<g>
</g>
<g>
</g>
<g>
</g>
<g>
</g>
<g>
</g>
</svg>
