<?xml version="1.0" encoding="iso-8859-1"?>
<!-- Generator: Adobe Illustrator 19.0.0, SVG Export Plug-In . SVG Version: 6.00 Build 0)  -->
<svg version="1.1" id="Layer_1" xmlns="http://www.w3.org/2000/svg" xmlns:xlink="http://www.w3.org/1999/xlink" x="0px" y="0px"
	 viewBox="0 0 512 512" style="enable-background:new 0 0 512 512;" xml:space="preserve">
<rect x="19.746" y="425.432" style="fill:#F28544;" width="59.237" height="59.237"/>
<path style="fill:#5ECB66;" d="M411.373,247.467L271.755,107.843c0,0-0.005-0.011-0.01-0.015L248.317,84.4l-76.802,241.37
	l77.226-77.223c-3.407-6.78-5.409-14.216-5.409-22.026c0-13.19,5.139-25.584,14.462-34.907c9.314-9.323,21.713-14.462,34.902-14.462
	c13.189,0,25.579,5.134,34.902,14.462c9.323,9.323,14.462,21.717,14.462,34.907c0,13.185-5.139,25.579-14.462,34.902
	c-9.314,9.323-21.713,14.462-34.902,14.462c-11.749,0-22.742-4.276-31.614-11.758l-91.002,90.999l264.732-84.235l-23.397-23.396
	C411.403,247.482,411.385,247.478,411.373,247.467z"/>
<polygon style="fill:#EAEAEA;" points="293.77,101.931 417.289,225.448 489.093,129.71 389.506,30.123 "/>
<path style="fill:#D8D8D8;" d="M313.638,247.462c5.592-5.597,8.677-13.03,8.677-20.941c0-7.916-3.085-15.349-8.677-20.946
	c-5.592-5.597-13.026-8.677-20.941-8.677s-15.349,3.08-20.941,8.677s-8.677,13.03-8.677,20.946c0,7.911,3.085,15.344,8.677,20.941
	C282.939,258.656,302.454,258.656,313.638,247.462z"/>
<g>
	<path style="fill:#314E55;" d="M509.109,121.804L397.412,10.107c-3.461-3.476-8.976-3.862-12.9-0.916L279.667,87.828
		l-28.863-28.862c-2.439-2.449-5.997-3.442-9.314-2.613c-3.346,0.815-6.026,3.317-7.077,6.6L141.122,356.16l-9.989,9.989
		l5.314,5.315c-0.535,3.124,0.372,6.349,2.659,8.636c1.88,1.88,4.406,2.893,6.98,2.893c1.003,0,2.015-0.154,2.989-0.463
		l307.178-97.736c3.288-1.051,5.785-3.731,6.604-7.077c0.81-3.346-0.173-6.875-2.613-9.314l-28.852-28.851l78.631-104.843
		C512.975,130.776,512.58,125.28,509.109,121.804z M170.08,355.126l91.002-90.999c8.873,7.482,19.865,11.758,31.614,11.758
		c13.19,0,25.589-5.139,34.902-14.462c9.323-9.323,14.462-21.717,14.462-34.902c0-13.19-5.139-25.584-14.462-34.907
		c-9.323-9.328-21.713-14.462-34.902-14.462c-13.189,0-25.589,5.139-34.902,14.462c-9.323,9.323-14.462,21.717-14.462,34.907
		c0,7.81,2.002,15.246,5.409,22.026l-77.227,77.224L248.317,84.4l23.429,23.429c0.004,0.004,0.005,0.01,0.005,0.01l139.623,139.628
		c0.012,0.012,0.03,0.016,0.041,0.028l23.397,23.396L170.08,355.126z M263.077,226.52c0-7.916,3.085-15.349,8.677-20.946
		c5.592-5.597,13.026-8.677,20.941-8.677s15.349,3.08,20.941,8.677s8.677,13.03,8.677,20.946c0,7.911-3.085,15.344-8.677,20.941
		c-11.184,11.194-30.698,11.194-41.883,0C266.163,241.865,263.077,234.431,263.077,226.52z M417.289,225.448L293.77,101.931
		l95.736-71.807l99.587,99.587L417.289,225.448z"/>
	<path style="fill:#314E55;" d="M494.02,425.424h-49.74V376.06c0-5.457-4.416-9.873-9.873-9.873s-9.873,4.416-9.873,9.873v49.364
		H375.17c-5.457,0-9.873,4.416-9.873,9.873s4.416,9.873,9.873,9.873h49.364v49.74c0,5.457,4.416,9.873,9.873,9.873
		s9.873-4.416,9.873-9.873v-49.74h49.74c5.457,0,9.873-4.416,9.873-9.873S499.477,425.424,494.02,425.424z"/>
	<path style="fill:#314E55;" d="M98.729,415.551c0-5.457-4.416-9.873-9.873-9.873H59.237v-59.237H39.492v59.237H9.873
		c-5.457,0-9.873,4.416-9.873,9.873v78.983c0,5.457,4.416,9.873,9.873,9.873h78.983c5.457,0,9.873-4.416,9.873-9.873v-29.619h59.237
		V445.17H98.729V415.551z M78.983,484.662H19.746v-59.237h59.237V484.662z"/>
</g>
<g>
</g>
<g>
</g>
<g>
</g>
<g>
</g>
<g>
</g>
<g>
</g>
<g>
</g>
<g>
</g>
<g>
</g>
<g>
</g>
<g>
</g>
<g>
</g>
<g>
</g>
<g>
</g>
<g>
</g>
</svg>
