<?xml version="1.0" encoding="iso-8859-1"?>
<!-- Generator: Adobe Illustrator 19.0.0, SVG Export Plug-In . SVG Version: 6.00 Build 0)  -->
<svg version="1.1" id="Layer_1" xmlns="http://www.w3.org/2000/svg" xmlns:xlink="http://www.w3.org/1999/xlink" x="0px" y="0px"
	 viewBox="0 0 512 512" style="enable-background:new 0 0 512 512;" xml:space="preserve">
<path style="fill:#81A4E3;" d="M223.319,294.128v76.255c0,6.016-4.878,10.894-10.894,10.894h-42.101L256,484.091l85.676-102.814
	h-42.101c-6.016,0-10.894-4.878-10.894-10.894v-76.255H223.319z"/>
<polygon style="fill:#EAEAEA;" points="212.426,185.191 38.128,185.191 38.128,272.34 212.426,272.34 299.574,272.34 
	473.872,272.34 473.872,185.191 299.574,185.191 "/>
<path style="fill:#81A4E3;" d="M299.574,108.936h174.298V21.787H38.128v87.149h174.298c6.016,0,10.894,4.878,10.894,10.894v43.574
	h65.362V119.83C288.681,113.814,293.558,108.936,299.574,108.936z"/>
<path style="fill:#314E55;" d="M484.766,130.723c6.016,0,10.894-4.878,10.894-10.894V10.894C495.66,4.878,490.782,0,484.766,0
	H27.234C21.218,0,16.34,4.878,16.34,10.894V119.83c0,6.016,4.878,10.894,10.894,10.894h174.298v32.681H27.234
	c-6.016,0-10.894,4.878-10.894,10.894v108.936c0,6.016,4.878,10.894,10.894,10.894h174.298v65.362h-54.468
	c-4.229,0-8.074,2.447-9.867,6.271c-1.793,3.83-1.208,8.351,1.5,11.596L247.633,508.08c2.069,2.484,5.133,3.92,8.367,3.92
	c3.234,0,6.298-1.436,8.367-3.92l108.936-130.723c2.707-3.245,3.293-7.766,1.5-11.596c-1.793-3.824-5.639-6.271-9.867-6.271h-54.468
	v-65.362h174.298c6.016,0,10.894-4.878,10.894-10.894V174.298c0-6.016-4.878-10.894-10.894-10.894H310.468v-32.681H484.766z
	 M299.574,381.277h42.101L256,484.091l-85.676-102.814h42.101c6.016,0,10.894-4.878,10.894-10.894v-76.255h65.362v76.255
	C288.681,376.399,293.558,381.277,299.574,381.277z M473.872,272.34H299.574h-87.149H38.128v-87.149h174.298h87.149h174.298V272.34z
	 M223.319,163.404V119.83c0-6.016-4.878-10.894-10.894-10.894H38.128V21.787h435.745v87.149H299.574
	c-6.016,0-10.894,4.878-10.894,10.894v43.574H223.319z"/>
<g>
</g>
<g>
</g>
<g>
</g>
<g>
</g>
<g>
</g>
<g>
</g>
<g>
</g>
<g>
</g>
<g>
</g>
<g>
</g>
<g>
</g>
<g>
</g>
<g>
</g>
<g>
</g>
<g>
</g>
</svg>
