<?xml version="1.0" encoding="iso-8859-1"?>
<!-- Generator: Adobe Illustrator 19.0.0, SVG Export Plug-In . SVG Version: 6.00 Build 0)  -->
<svg version="1.1" id="Layer_1" xmlns="http://www.w3.org/2000/svg" xmlns:xlink="http://www.w3.org/1999/xlink" x="0px" y="0px"
	 viewBox="0 0 512 512" style="enable-background:new 0 0 512 512;" xml:space="preserve">
<g>
	<path style="fill:#314E55;" d="M475.995,96.314L435.838,5.961C434.23,2.333,430.632,0,426.667,0H85.333
		c-3.966,0-7.564,2.333-9.172,5.961L36.005,96.314c-2.255,5.069,0.029,11,5.093,13.255c5.083,2.245,11-0.039,13.25-5.098
		l37.51-84.392h154.103v431.686h-40.157v20.078h40.157v0.461h20.078v-0.461h40.157v-20.078h-40.157V20.078h154.103l37.51,84.392
		c1.662,3.745,5.328,5.961,9.176,5.961c1.363,0,2.745-0.275,4.073-0.863C475.966,107.314,478.25,101.382,475.995,96.314z"/>
	<rect x="95.371" y="491.922" style="fill:#314E55;" width="321.255" height="20.078"/>
</g>
<g>
</g>
<g>
</g>
<g>
</g>
<g>
</g>
<g>
</g>
<g>
</g>
<g>
</g>
<g>
</g>
<g>
</g>
<g>
</g>
<g>
</g>
<g>
</g>
<g>
</g>
<g>
</g>
<g>
</g>
</svg>
