<?xml version="1.0" encoding="iso-8859-1"?>
<!-- Generator: Adobe Illustrator 19.0.0, SVG Export Plug-In . SVG Version: 6.00 Build 0)  -->
<svg version="1.1" id="Layer_1" xmlns="http://www.w3.org/2000/svg" xmlns:xlink="http://www.w3.org/1999/xlink" x="0px" y="0px"
	 viewBox="0 0 512 512" style="enable-background:new 0 0 512 512;" xml:space="preserve">
<path style="fill:#EA86A5;" d="M265.018,100.571h-27.179c-34.571,0-62.696,28.125-62.696,62.696v21.25
	c0,31-12.504,85.072-17.759,106.42c15.75,3.687,51.603,10.777,94.045,10.777c42.442,0,78.295-7.089,94.045-10.777
	c-5.254-21.348-17.759-75.42-17.759-106.42v-21.25C327.714,128.696,299.589,100.571,265.018,100.571z"/>
<g>
	<path style="fill:#EAEAEA;" d="M393.143,404.366c0-19.018-16.692-34.491-37.205-34.491h-49.027c-3.54,0-6.763-2.045-8.272-5.25
		l-21.398-45.449c-8.244,0.503-16.847,0.824-25.812,0.824c-8.867,0-17.379-0.314-25.541-0.807l-18.521,45.021
		c-1.411,3.42-4.75,5.661-8.455,5.661h-42.848c-20.513,0-37.205,15.473-37.205,34.491v45.617
		c38.782,27.499,86.088,43.731,137.143,43.731s98.36-16.233,137.143-43.732V404.366z"/>
	<path style="fill:#EAEAEA;" d="M256,18.286C124.924,18.286,18.286,124.92,18.286,256c0,71.688,31.941,136.014,82.286,179.633
		v-31.267c0-29.098,24.893-52.777,55.491-52.777h36.723l13.968-33.957c-36.62-3.797-61.6-10.879-63.008-11.283
		c-4.763-1.375-7.558-6.304-6.304-11.098c0.192-0.741,19.415-74.67,19.415-110.732v-21.25c0-44.652,36.331-80.982,80.982-80.982
		h27.179c44.652,0,80.982,36.33,80.982,80.982v21.25c0,36.062,19.223,109.991,19.415,110.732c1.254,4.795-1.54,9.723-6.304,11.098
		c-1.401,0.402-26.124,7.408-62.419,11.22l16.017,34.021h43.228c30.598,0,55.491,23.679,55.491,52.777v31.267
		c50.345-43.62,82.286-107.945,82.286-179.633C493.714,124.92,387.076,18.286,256,18.286z"/>
</g>
<path style="fill:#314E55;" d="M256,0C114.839,0,0,114.839,0,256s114.839,256,256,256s256-114.839,256-256S397.161,0,256,0z
	 M118.857,449.983v-45.617c0-19.018,16.692-34.491,37.205-34.491h42.848c3.705,0,7.045-2.241,8.455-5.661l18.521-45.021
	c8.162,0.493,16.675,0.807,25.541,0.807c8.965,0,17.568-0.32,25.811-0.824l21.398,45.449c1.509,3.205,4.732,5.25,8.272,5.25h49.027
	c20.513,0,37.205,15.473,37.205,34.491v45.617C354.36,477.482,307.055,493.714,256,493.714S157.64,477.482,118.857,449.983z
	 M345.473,290.938c-15.75,3.687-51.603,10.777-94.045,10.777s-78.295-7.089-94.045-10.777c5.254-21.348,17.759-75.42,17.759-106.42
	v-21.25c0-34.571,28.125-62.696,62.696-62.696h27.179c34.571,0,62.696,28.125,62.696,62.696v21.25
	C327.714,215.518,340.219,269.589,345.473,290.938z M411.429,435.633v-31.267c0-29.098-24.893-52.777-55.491-52.777H312.71
	l-16.017-34.021c36.295-3.812,61.017-10.818,62.419-11.22c4.763-1.375,7.558-6.304,6.304-11.098
	C365.223,294.509,346,220.58,346,184.518v-21.25c0-44.652-36.331-80.982-80.982-80.982h-27.179
	c-44.652,0-80.982,36.33-80.982,80.982v21.25c0,36.062-19.223,109.991-19.415,110.732c-1.254,4.795,1.54,9.723,6.304,11.098
	c1.408,0.405,26.388,7.487,63.008,11.283l-13.968,33.957h-36.723c-30.598,0-55.491,23.679-55.491,52.777v31.267
	C50.227,392.014,18.286,327.688,18.286,256C18.286,124.92,124.924,18.286,256,18.286S493.714,124.92,493.714,256
	C493.714,327.688,461.773,392.014,411.429,435.633z"/>
<g>
</g>
<g>
</g>
<g>
</g>
<g>
</g>
<g>
</g>
<g>
</g>
<g>
</g>
<g>
</g>
<g>
</g>
<g>
</g>
<g>
</g>
<g>
</g>
<g>
</g>
<g>
</g>
<g>
</g>
</svg>
