<?xml version="1.0" encoding="iso-8859-1"?>
<!-- Generator: Adobe Illustrator 19.0.0, SVG Export Plug-In . SVG Version: 6.00 Build 0)  -->
<svg version="1.1" id="Layer_1" xmlns="http://www.w3.org/2000/svg" xmlns:xlink="http://www.w3.org/1999/xlink" x="0px" y="0px"
	 viewBox="0 0 512 512" style="enable-background:new 0 0 512 512;" xml:space="preserve">
<g>
	<path style="fill:#81A4E3;" d="M374.227,207.648c0.306-4.491,3.736-8.148,8.204-8.75c11.704-1.565,20.532-11.704,20.532-23.574
		v-9.315c0-11.768-8.727-21.898-20.301-23.546c-4.671-0.667-8.143-4.667-8.143-9.389V18.963H180.593
		c-29,0-52.593,23.63-52.593,52.676v61.445c0,4.713-3.468,8.713-8.134,9.389c-11.579,1.657-20.31,11.778-20.31,23.537v9.315
		c0,11.889,8.824,22.028,20.523,23.574c4.468,0.593,7.907,4.25,8.213,8.75c4.412,64.333,58.421,114.722,122.968,114.722
		C315.815,322.37,369.829,271.982,374.227,207.648z"/>
	<polygon style="fill:#81A4E3;" points="288.38,439.602 307.185,397.815 270.153,421.38 	"/>
	<polygon style="fill:#81A4E3;" points="214.139,439.602 232.366,421.38 195.333,397.815 	"/>
</g>
<path style="fill:#314E55;" d="M407.75,370.213h-68.69l-22.01-45.221c40.478-21.273,69.801-61.415,75.441-109.02
	c17.217-5.639,29.435-21.944,29.435-40.648v-9.315c0-18.296-11.768-34.38-28.444-40.315V9.481C393.481,4.241,389.236,0,384,0
	H180.593c-39.454,0-71.556,32.139-71.556,71.639v54.074c-16.676,5.944-28.444,22.019-28.444,40.296v9.315
	c0,18.722,12.218,35.037,29.44,40.657c5.697,48,35.445,88.436,76.44,109.564l-20.218,41.546c-0.733,0.954-1.296,1.989-1.62,3.121
	H104.25c-39.185,0-71.065,31.796-71.065,70.889v61.417c0,5.241,4.245,9.481,9.481,9.481s9.481-4.241,9.481-9.481v-61.417
	c0-28.63,23.375-51.926,52.102-51.926h66.403l31.828,70.731c1.282,2.843,3.875,4.88,6.94,5.435c0.569,0.102,1.139,0.157,1.708,0.157
	c2.491,0,4.912-0.982,6.704-2.778l33.426-33.422l33.426,33.422c1.792,1.796,4.213,2.778,6.704,2.778
	c0.569,0,1.139-0.055,1.708-0.157c3.065-0.556,5.657-2.593,6.94-5.435l31.904-70.9c0.398,0.051,0.78,0.169,1.188,0.169h74.62
	c28.727,0,52.102,23.296,52.102,51.926v61.417c0,5.241,4.245,9.481,9.481,9.481s9.481-4.241,9.481-9.481v-61.417
	C478.815,402.009,446.935,370.213,407.75,370.213z M128.292,207.648c-0.306-4.5-3.745-8.157-8.213-8.75
	c-11.699-1.546-20.523-11.685-20.523-23.574v-9.315c0-11.759,8.731-21.88,20.31-23.537c4.667-0.676,8.134-4.676,8.134-9.389V71.639
	c0-29.046,23.593-52.676,52.593-52.676h193.926v114.111c0,4.722,3.472,8.722,8.143,9.389c11.574,1.648,20.301,11.778,20.301,23.547
	v9.315c0,11.87-8.829,22.009-20.532,23.574c-4.468,0.602-7.898,4.259-8.204,8.75c-4.398,64.333-58.412,114.722-122.968,114.722
	C186.713,322.37,132.704,271.982,128.292,207.648z M251.259,341.333c16.971,0,33.267-3.116,48.442-8.656l17.624,36.207
	l-66.066,42.036l-65.088-41.415l17.741-36.459C218.779,338.338,234.692,341.333,251.259,341.333z M214.139,439.602l-18.806-41.787
	l37.032,23.565L214.139,439.602z M288.38,439.602l-18.227-18.222l37.032-23.565L288.38,439.602z"/>
<g>
</g>
<g>
</g>
<g>
</g>
<g>
</g>
<g>
</g>
<g>
</g>
<g>
</g>
<g>
</g>
<g>
</g>
<g>
</g>
<g>
</g>
<g>
</g>
<g>
</g>
<g>
</g>
<g>
</g>
</svg>
