<?xml version="1.0" encoding="iso-8859-1"?>
<!-- Generator: Adobe Illustrator 19.0.0, SVG Export Plug-In . SVG Version: 6.00 Build 0)  -->
<svg version="1.1" id="Layer_1" xmlns="http://www.w3.org/2000/svg" xmlns:xlink="http://www.w3.org/1999/xlink" x="0px" y="0px"
	 viewBox="0 0 512 512" style="enable-background:new 0 0 512 512;" xml:space="preserve">
<path style="fill:#73C9C9;" d="M155.429,188.83v6.339c0,6.75,5.013,12.5,11.665,13.384c4.295,0.563,7.598,4.071,7.915,8.393
	c3.125,42.402,38.933,75.625,81.527,75.625c42.683,0,78.5-33.286,81.54-75.768c0.299-4.17,3.384-7.607,7.496-8.348
	c6.375-1.152,11-6.732,11-13.286v-6.339c0-6.455-4.58-12.027-10.888-13.259c-4.295-0.83-7.397-4.598-7.397-8.973v-75.17H225.545
	c-27.987,0-50.755,22.795-50.755,50.821v24.161c0,4.554-3.348,8.411-7.857,9.053C160.268,176.411,155.429,182.027,155.429,188.83z"
	/>
<g>
	<path style="fill:#EAEAEA;" d="M411.429,392.107c0-20.741-17.072-37.616-38.053-37.616h-57.183c-3.491,0-6.674-1.982-8.21-5.116
		l-21.223-43.315c-9.574,3.061-19.71,4.797-30.223,4.797c-12.242,0-24.013-2.269-34.928-6.375c-0.134,0.419-0.131,0.853-0.33,1.259
		l-21.379,43.634c-1.536,3.134-4.719,5.116-8.21,5.116H140.79c-21.424,0-40.219,18.062-40.219,38.652v42.491
		c41.71,36.138,96.038,58.081,155.429,58.081s113.718-21.943,155.429-58.081V392.107z"/>
	<path style="fill:#EAEAEA;" d="M256,18.286C124.924,18.286,18.286,124.92,18.286,256c0,62.574,24.34,119.539,64,162.031v-24.888
		c0-30.866,26.79-56.938,58.504-56.938h45.196l18.871-38.518c0.179-0.363,0.493-0.596,0.713-0.925
		c-25.431-15.165-43.78-41.27-48.096-71.924c-11.978-4.634-20.33-16.33-20.33-29.669v-6.339c0-12.947,7.915-24.393,19.362-29.277
		V142.25c0-38.107,30.973-69.107,69.04-69.107h121.884c5.049,0,9.143,4.089,9.143,9.143v77.75
		c10.933,5.134,18.286,16.268,18.286,28.795v6.339c0,12.955-7.75,24.33-19.192,29.232c-4.401,32.392-24.485,59.682-52.048,74.499
		l18.276,37.305h51.482c31.067,0,56.339,25.08,56.339,55.902v25.924c39.66-42.492,64-99.457,64-162.031
		C493.714,124.92,387.076,18.286,256,18.286z"/>
</g>
<path style="fill:#314E55;" d="M256,0C114.839,0,0,114.839,0,256c0,75.412,32.792,143.293,84.846,190.185
	c0.153,0.16,0.33,0.279,0.494,0.428C130.666,487.236,190.486,512,256,512c141.161,0,256-114.839,256-256S397.161,0,256,0z
	 M100.571,435.633v-42.491c0-20.589,18.795-38.652,40.219-38.652h50.897c3.491,0,6.674-1.982,8.21-5.116l21.379-43.634
	c0.199-0.406,0.196-0.84,0.33-1.259c10.915,4.105,22.687,6.375,34.928,6.375c10.513,0,20.649-1.737,30.223-4.797l21.223,43.315
	c1.536,3.134,4.719,5.116,8.21,5.116h57.183c20.982,0,38.053,16.875,38.053,37.616v43.526
	c-41.71,36.139-96.038,58.081-155.429,58.081S142.282,471.772,100.571,435.633z M166.933,175.464c4.509-0.643,7.857-4.5,7.857-9.053
	V142.25c0-28.027,22.768-50.821,50.755-50.821h112.741v75.17c0,4.375,3.103,8.143,7.397,8.973
	c6.308,1.232,10.888,6.804,10.888,13.259v6.339c0,6.554-4.625,12.134-11,13.286c-4.112,0.741-7.196,4.179-7.496,8.348
	c-3.04,42.482-38.857,75.768-81.54,75.768c-42.594,0-78.402-33.223-81.527-75.625c-0.317-4.321-3.621-7.83-7.915-8.393
	c-6.652-0.884-11.665-6.634-11.665-13.384v-6.339C155.429,182.027,160.268,176.411,166.933,175.464z M429.714,418.031v-25.924
	c0-30.822-25.272-55.902-56.339-55.902h-51.482l-18.276-37.305c27.564-14.817,47.648-42.107,52.048-74.499
	c11.442-4.902,19.192-16.277,19.192-29.232v-6.339c0-12.527-7.353-23.661-18.286-28.795v-77.75c0-5.053-4.094-9.143-9.143-9.143
	H225.545c-38.067,0-69.04,31-69.04,69.107v17.304c-11.446,4.884-19.362,16.33-19.362,29.277v6.339
	c0,13.339,8.353,25.036,20.33,29.67c4.316,30.654,22.665,56.759,48.096,71.924c-0.219,0.329-0.533,0.561-0.713,0.925l-18.871,38.518
	H140.79c-31.714,0-58.504,26.071-58.504,56.937v24.888c-39.66-42.492-64-99.457-64-162.031C18.286,124.92,124.924,18.286,256,18.286
	S493.714,124.92,493.714,256C493.714,318.574,469.374,375.539,429.714,418.031z"/>
<g>
</g>
<g>
</g>
<g>
</g>
<g>
</g>
<g>
</g>
<g>
</g>
<g>
</g>
<g>
</g>
<g>
</g>
<g>
</g>
<g>
</g>
<g>
</g>
<g>
</g>
<g>
</g>
<g>
</g>
</svg>
