<?xml version="1.0" encoding="iso-8859-1"?>
<!-- Generator: Adobe Illustrator 19.0.0, SVG Export Plug-In . SVG Version: 6.00 Build 0)  -->
<svg version="1.1" id="Layer_1" xmlns="http://www.w3.org/2000/svg" xmlns:xlink="http://www.w3.org/1999/xlink" x="0px" y="0px"
	 viewBox="0 0 512 512" style="enable-background:new 0 0 512 512;" xml:space="preserve">
<path style="fill:#73C9C9;" d="M338.08,216.804c0.295-4.17,3.384-7.607,7.491-8.348c6.375-1.152,11-6.732,11-13.286v-6.339
	c0-6.455-4.58-12.027-10.893-13.259c-4.295-0.83-7.393-4.598-7.393-8.973v-75.17H225.545c-27.991,0-50.759,22.795-50.759,50.821
	v24.161c0,4.554-3.348,8.411-7.857,9.053c-6.661,0.947-11.5,6.563-11.5,13.366v6.339c0,6.75,5.018,12.5,11.661,13.384
	c4.295,0.571,7.607,4.071,7.92,8.393c3.125,42.402,38.938,75.625,81.527,75.625C299.214,292.571,335.036,259.286,338.08,216.804z"/>
<path style="fill:#FFFFFF;" d="M411.429,392.107c0-20.741-17.072-37.616-38.053-37.616h-57.188c-3.491,0-6.679-1.991-8.214-5.125
	l-21.215-43.307c-9.574,3.061-19.71,4.798-30.223,4.798c-12.242,0-24.016-2.269-34.932-6.376c-0.133,0.416-0.129,0.848-0.327,1.251
	l-21.375,43.634c-1.536,3.134-4.723,5.125-8.214,5.125h-50.901c-21.42,0-40.214,18.063-40.214,38.652v42.492
	c41.709,36.138,96.037,58.08,155.429,58.08s113.719-21.942,155.429-58.08V392.107z"/>
<g>
	<path style="fill:#314E55;" d="M502.857,246.857c-5.054,0-9.143,4.089-9.143,9.143c0,62.575-24.34,119.541-64,162.032v-25.925
		c0-30.822-25.277-55.902-56.339-55.902h-51.482L303.616,298.9c27.561-14.818,47.645-42.106,52.045-74.498
		c11.446-4.902,19.196-16.268,19.196-29.232v-6.339c0-12.536-7.357-23.661-18.286-28.795v-77.75c0-5.053-4.089-9.143-9.143-9.143
		H225.545c-38.071,0-69.045,31-69.045,69.107v17.304c-11.438,4.884-19.357,16.33-19.357,29.277v6.339
		c0,13.339,8.357,25.027,20.33,29.67c4.313,30.653,22.663,56.757,48.094,71.922c-0.221,0.332-0.539,0.568-0.719,0.935
		l-18.866,38.509h-45.196c-31.714,0-58.5,26.071-58.5,56.937v24.89c-39.66-42.492-64-99.458-64-162.033
		C18.286,124.92,124.92,18.286,256,18.286c5.053,0,9.143-4.089,9.143-9.143S261.053,0,256,0C114.839,0,0,114.839,0,256
		c0,75.41,32.79,143.29,84.842,190.181c0.156,0.163,0.336,0.285,0.504,0.437C130.671,487.239,190.489,512,256,512
		c141.161,0,256-114.839,256-256C512,250.947,507.911,246.857,502.857,246.857z M175.009,216.947
		c-0.312-4.321-3.625-7.821-7.92-8.393c-6.643-0.884-11.661-6.634-11.661-13.384v-6.339c0-6.804,4.839-12.42,11.5-13.366
		c4.509-0.643,7.857-4.5,7.857-9.053V142.25c0-28.027,22.768-50.821,50.759-50.821h112.741v75.17c0,4.375,3.098,8.143,7.393,8.973
		c6.312,1.232,10.893,6.804,10.893,13.259v6.339c0,6.554-4.625,12.134-11,13.286c-4.107,0.741-7.196,4.179-7.491,8.348
		c-3.045,42.482-38.866,75.768-81.545,75.768C213.947,292.571,178.134,259.348,175.009,216.947z M100.571,435.635v-42.492
		c0-20.589,18.795-38.652,40.214-38.652h50.902c3.491,0,6.679-1.991,8.214-5.125l21.375-43.634c0.197-0.403,0.194-0.835,0.327-1.251
		c10.916,4.107,22.69,6.376,34.932,6.376c10.513,0,20.649-1.737,30.223-4.798l21.215,43.307c1.536,3.134,4.723,5.125,8.214,5.125
		h57.187c20.982,0,38.053,16.875,38.053,37.616v43.527c-41.709,36.138-96.037,58.08-155.429,58.08S142.281,471.772,100.571,435.635z
		"/>
	<path style="fill:#314E55;" d="M411.429,73.143h91.429c5.053,0,9.143-4.089,9.143-9.143c0-5.053-4.089-9.143-9.143-9.143h-91.429
		c-5.053,0-9.143,4.089-9.143,9.143C402.286,69.053,406.375,73.143,411.429,73.143z"/>
</g>
<g>
</g>
<g>
</g>
<g>
</g>
<g>
</g>
<g>
</g>
<g>
</g>
<g>
</g>
<g>
</g>
<g>
</g>
<g>
</g>
<g>
</g>
<g>
</g>
<g>
</g>
<g>
</g>
<g>
</g>
</svg>
