<?xml version="1.0" encoding="iso-8859-1"?>
<!-- Generator: Adobe Illustrator 19.0.0, SVG Export Plug-In . SVG Version: 6.00 Build 0)  -->
<svg version="1.1" id="Layer_1" xmlns="http://www.w3.org/2000/svg" xmlns:xlink="http://www.w3.org/1999/xlink" x="0px" y="0px"
	 viewBox="0 0 512 512" style="enable-background:new 0 0 512 512;" xml:space="preserve">
<g>
	<path style="fill:#73C9C9;" d="M332.491,217.452c0.29-4.101,3.328-7.481,7.367-8.21c6.27-1.133,10.818-6.621,10.818-13.066v-6.234
		c0-6.349-4.505-11.828-10.713-13.04c-4.224-0.817-7.271-4.522-7.271-8.825V94.149H221.816c-27.528,0-49.92,22.418-49.92,49.981
		v23.761c0,4.478-3.293,8.272-7.727,8.904c-6.551,0.931-11.31,6.454-11.31,13.145v6.234c0,6.638,4.935,12.293,11.468,13.163
		c4.224,0.562,7.481,4.004,7.789,8.254c3.073,41.701,38.294,74.375,80.179,74.375C294.267,291.967,329.497,259.231,332.491,217.452z
		"/>
	<path style="fill:#73C9C9;" d="M427.106,94.149c17.351,0,31.471-14.12,31.471-31.471s-14.12-31.471-31.471-31.471
		c-17.351,0-31.471,14.12-31.471,31.471S409.754,94.149,427.106,94.149z"/>
</g>
<path style="fill:#FFFFFF;" d="M404.626,389.857c0-20.398-16.789-36.994-37.424-36.994H310.96c-3.433,0-6.568-1.958-8.079-5.04
	l-20.864-42.591c-9.415,3.011-19.384,4.719-29.723,4.719c-12.04,0-23.618-2.232-34.354-6.271c-0.131,0.409-0.127,0.834-0.322,1.23
	l-21.022,42.912c-1.51,3.082-4.645,5.04-8.079,5.04h-50.06c-21.066,0-39.55,17.764-39.55,38.013v41.789
	c41.02,35.54,94.449,57.12,152.859,57.12s111.839-21.579,152.859-57.12V389.857z"/>
<g>
	<path style="fill:#314E55;" d="M494.544,247.008c-4.97,0-8.992,4.022-8.992,8.992c0,61.54-23.937,117.564-62.942,159.354v-25.497
		c0-30.312-24.859-54.978-55.408-54.978h-50.631l-17.975-36.689c27.105-14.573,46.857-41.41,51.184-73.266
		c11.257-4.821,18.879-15.999,18.879-28.749v-6.234c0-12.329-7.236-23.27-17.983-28.319V85.158c0-4.97-4.022-8.992-8.992-8.992
		H221.816c-37.442,0-67.903,30.487-67.903,67.965v17.017c-11.249,4.803-19.037,16.06-19.037,28.793v6.234
		c0,13.119,8.219,24.613,19.994,29.179c4.242,30.146,22.288,55.819,47.299,70.733c-0.218,0.327-0.529,0.557-0.707,0.92
		l-18.554,37.872h-44.449c-31.19,0-57.533,25.64-57.533,55.996v24.478C41.921,373.564,17.983,317.54,17.983,256
		c0-128.913,104.871-233.784,233.784-233.784c4.97,0,8.992-4.022,8.992-8.992s-4.022-8.992-8.992-8.992
		C112.941,4.232,0,117.173,0,256c0,74.163,32.248,140.921,83.439,187.037c0.154,0.161,0.33,0.281,0.496,0.43
		c44.576,39.949,103.405,64.301,167.833,64.301c138.827,0,251.768-112.941,251.768-251.768
		C503.535,251.03,499.513,247.008,494.544,247.008z M172.116,217.592c-0.307-4.25-3.565-7.692-7.789-8.254
		c-6.533-0.869-11.468-6.524-11.468-13.163v-6.234c0-6.691,4.759-12.214,11.31-13.145c4.434-0.632,7.727-4.426,7.727-8.904v-23.761
		c0-27.563,22.392-49.981,49.92-49.981h110.877v73.927c0,4.303,3.047,8.008,7.271,8.825c6.208,1.212,10.713,6.691,10.713,13.04
		v6.234c0,6.445-4.548,11.933-10.818,13.066c-4.039,0.729-7.077,4.109-7.367,8.21c-2.994,41.78-38.224,74.515-80.197,74.515
		C210.409,291.967,175.189,259.293,172.116,217.592z M98.909,432.665v-41.789c0-20.249,18.484-38.013,39.55-38.013h50.06
		c3.433,0,6.568-1.958,8.079-5.04l21.022-42.912c0.194-0.397,0.19-0.822,0.322-1.23c10.736,4.039,22.315,6.271,34.354,6.271
		c10.339,0,20.308-1.708,29.723-4.719l20.864,42.591c1.51,3.082,4.645,5.04,8.079,5.04h56.242c20.635,0,37.424,16.596,37.424,36.994
		v42.808c-41.02,35.54-94.449,57.12-152.859,57.12S139.928,468.205,98.909,432.665z"/>
	<path style="fill:#314E55;" d="M427.106,112.133c10.391,0,20.033-3.239,28.002-8.738l44.178,44.178L512,134.858L467.822,90.68
		c5.499-7.969,8.738-17.611,8.738-28.002c0-27.265-22.189-49.454-49.454-49.454c-27.265,0-49.454,22.189-49.454,49.454
		S399.841,112.133,427.106,112.133z M427.106,31.208c17.351,0,31.471,14.12,31.471,31.471s-14.12,31.471-31.471,31.471
		c-17.351,0-31.471-14.12-31.471-31.471S409.754,31.208,427.106,31.208z"/>
</g>
<g>
</g>
<g>
</g>
<g>
</g>
<g>
</g>
<g>
</g>
<g>
</g>
<g>
</g>
<g>
</g>
<g>
</g>
<g>
</g>
<g>
</g>
<g>
</g>
<g>
</g>
<g>
</g>
<g>
</g>
</svg>
