<?xml version="1.0" encoding="iso-8859-1"?>
<!-- Generator: Adobe Illustrator 19.0.0, SVG Export Plug-In . SVG Version: 6.00 Build 0)  -->
<svg version="1.1" id="Layer_1" xmlns="http://www.w3.org/2000/svg" xmlns:xlink="http://www.w3.org/1999/xlink" x="0px" y="0px"
	 viewBox="0 0 512 512" style="enable-background:new 0 0 512 512;" xml:space="preserve">
<path style="fill:#FCFCFC;" d="M132.112,373.164H82.966c-20.681,0-38.828,17.44-38.828,37.319v35.31h300.138v-36.31
	c0-20.026-16.483-36.319-36.741-36.319h-55.216c-3.371,0-6.448-1.922-7.931-4.948l-20.483-41.814
	c-9.243,2.956-19.03,4.633-29.18,4.633c-11.82,0-23.187-2.191-33.727-6.156c-0.129,0.401-0.125,0.818-0.316,1.208l-20.638,42.129
	C138.56,371.241,135.483,373.164,132.112,373.164z"/>
<path style="fill:#81A4E3;" d="M97.103,213.216v6.121c0,6.517,4.845,12.069,11.259,12.922c4.147,0.552,7.345,3.931,7.646,8.104
	c3.017,40.939,37.595,73.017,78.716,73.017c41.207,0,75.793-32.138,78.733-73.155c0.284-4.026,3.267-7.345,7.233-8.06
	c6.155-1.112,10.621-6.5,10.621-12.828v-6.121c0-6.233-4.422-11.612-10.517-12.802c-4.147-0.802-7.138-4.44-7.138-8.664v-72.578
	H164.802c-27.026,0-49.009,22.009-49.009,49.069v23.328c0,4.397-3.233,8.121-7.586,8.741
	C101.776,201.224,97.103,206.647,97.103,213.216z"/>
<path style="fill:#D8D8D8;" d="M17.655,445.793h8.828v-35.31c0-29.802,25.862-54.974,56.483-54.974h43.638l18.216-37.181
	c0.175-0.356,0.481-0.582,0.695-0.903c-24.554-14.642-42.272-39.846-46.436-69.442c-11.56-4.483-19.629-15.767-19.629-28.646v-6.121
	c0-12.5,7.646-23.552,18.69-28.267v-16.707c0-36.793,29.905-66.724,66.664-66.724h117.681c4.879,0,8.828,3.948,8.828,8.828v75.069
	c10.552,4.957,17.655,15.698,17.655,27.802v6.121c0,12.517-7.483,23.491-18.534,28.224c-4.248,31.275-23.64,57.622-50.25,71.929
	l17.647,36.019h49.707c29.991,0,54.396,24.216,54.396,53.974v36.31h132.414V66.207H17.655V445.793z M329.784,128h138.078v17.655
	H329.784V128z M329.784,163.31h138.078v17.655H329.784V163.31z M329.784,192.733h102.767v17.655H329.784V192.733z"/>
<g>
	<path style="fill:#314E55;" d="M503.172,48.552H8.828C3.948,48.552,0,52.5,0,57.379v397.241c0,4.879,3.948,8.828,8.828,8.828
		h494.345c4.879,0,8.828-3.948,8.828-8.828V57.379C512,52.5,508.052,48.552,503.172,48.552z M108.207,200.31
		c4.354-0.621,7.586-4.345,7.586-8.741v-23.328c0-27.06,21.983-49.069,49.009-49.069h108.853v72.578
		c0,4.224,2.991,7.862,7.138,8.664c6.095,1.19,10.517,6.569,10.517,12.802v6.121c0,6.328-4.465,11.716-10.621,12.828
		c-3.966,0.715-6.948,4.034-7.233,8.06c-2.94,41.017-37.526,73.155-78.733,73.155c-41.121,0-75.698-32.078-78.716-73.017
		c-0.302-4.172-3.5-7.552-7.646-8.104c-6.414-0.853-11.259-6.405-11.259-12.922v-6.121
		C97.103,206.647,101.776,201.224,108.207,200.31z M160.997,324.878c10.54,3.965,21.907,6.156,33.727,6.156
		c10.15,0,19.937-1.677,29.18-4.633l20.483,41.814c1.483,3.026,4.56,4.948,7.931,4.948h55.215c20.259,0,36.741,16.293,36.741,36.319
		v36.31H44.138v-35.31c0-19.879,18.147-37.319,38.828-37.319h49.146c3.371,0,6.448-1.922,7.931-4.948l20.638-42.129
		C160.872,325.697,160.868,325.28,160.997,324.878z M494.345,445.793H361.931v-36.31c0-29.759-24.405-53.974-54.396-53.974h-49.707
		l-17.647-36.019c26.611-14.307,46.002-40.654,50.25-71.929c11.052-4.733,18.534-15.707,18.534-28.224v-6.121
		c0-12.103-7.104-22.845-17.655-27.802v-75.069c0-4.879-3.948-8.828-8.828-8.828H164.802c-36.759,0-66.664,29.931-66.664,66.724
		v16.707c-11.043,4.715-18.69,15.767-18.69,28.267v6.121c0,12.879,8.069,24.164,19.629,28.647
		c4.164,29.596,21.881,54.8,46.436,69.442c-0.214,0.321-0.52,0.547-0.695,0.903l-18.215,37.181H82.966
		c-30.621,0-56.483,25.172-56.483,54.974v35.31h-8.828V66.207h476.69V445.793z"/>
	<rect x="329.777" y="128" style="fill:#314E55;" width="138.086" height="17.655"/>
	<rect x="329.777" y="163.31" style="fill:#314E55;" width="138.086" height="17.655"/>
	<rect x="329.777" y="192.728" style="fill:#314E55;" width="102.766" height="17.655"/>
</g>
<g>
</g>
<g>
</g>
<g>
</g>
<g>
</g>
<g>
</g>
<g>
</g>
<g>
</g>
<g>
</g>
<g>
</g>
<g>
</g>
<g>
</g>
<g>
</g>
<g>
</g>
<g>
</g>
<g>
</g>
</svg>
