<?xml version="1.0" encoding="iso-8859-1"?>
<!-- Generator: Adobe Illustrator 19.0.0, SVG Export Plug-In . SVG Version: 6.00 Build 0)  -->
<svg version="1.1" id="Layer_1" xmlns="http://www.w3.org/2000/svg" xmlns:xlink="http://www.w3.org/1999/xlink" x="0px" y="0px"
	 viewBox="0 0 512 512" style="enable-background:new 0 0 512 512;" xml:space="preserve">
<path style="fill:#73C9C9;" d="M338.076,216.804c0.299-4.17,3.384-7.607,7.496-8.348c6.375-1.152,11-6.732,11-13.286v-6.339
	c0-6.455-4.58-12.027-10.888-13.259c-4.295-0.83-7.397-4.598-7.397-8.973v-75.17H225.545c-27.987,0-50.755,22.795-50.755,50.821
	v24.161c0,4.554-3.348,8.411-7.857,9.053c-6.665,0.947-11.504,6.563-11.504,13.366v6.339c0,6.75,5.013,12.5,11.665,13.384
	c4.295,0.563,7.598,4.071,7.915,8.393c3.125,42.402,38.933,75.625,81.527,75.625C299.219,292.571,335.036,259.286,338.076,216.804z"
	/>
<path style="fill:#FFFFFF;" d="M411.429,392.107c0-20.741-17.072-37.616-38.053-37.616h-57.183c-3.491,0-6.674-1.982-8.21-5.116
	l-21.223-43.315c-9.574,3.061-19.71,4.797-30.223,4.797c-12.242,0-24.013-2.269-34.928-6.375c-0.134,0.419-0.131,0.853-0.33,1.259
	l-21.379,43.634c-1.536,3.134-4.719,5.116-8.21,5.116H140.79c-21.424,0-40.219,18.062-40.219,38.652v42.491
	c41.71,36.138,96.038,58.081,155.429,58.081s113.718-21.943,155.429-58.081V392.107z"/>
<g>
	<path style="fill:#314E55;" d="M502.857,246.857c-5.049,0-9.143,4.089-9.143,9.143c0,62.574-24.34,119.539-64,162.031v-25.924
		c0-30.822-25.272-55.902-56.339-55.902h-51.482l-18.276-37.305c27.564-14.817,47.648-42.107,52.048-74.499
		c11.442-4.902,19.192-16.277,19.192-29.232v-6.339c0-12.527-7.353-23.661-18.286-28.795v-77.75c0-5.053-4.094-9.143-9.143-9.143
		H225.545c-38.067,0-69.04,31-69.04,69.107v17.304c-11.446,4.884-19.362,16.33-19.362,29.277v6.339
		c0,13.339,8.353,25.036,20.33,29.67c4.316,30.653,22.665,56.758,48.095,71.923c-0.219,0.329-0.533,0.561-0.712,0.925
		l-18.871,38.518H140.79c-31.714,0-58.504,26.071-58.504,56.937v24.888c-39.66-42.492-64-99.457-64-162.031
		C18.286,124.92,124.924,18.286,256,18.286c5.049,0,9.143-4.089,9.143-9.143S261.049,0,256,0C114.839,0,0,114.839,0,256
		c0,75.412,32.792,143.293,84.846,190.185c0.153,0.16,0.33,0.279,0.494,0.428C130.666,487.236,190.486,512,256,512
		c141.161,0,256-114.839,256-256C512,250.947,507.906,246.857,502.857,246.857z M175.009,216.947
		c-0.317-4.321-3.621-7.83-7.915-8.393c-6.652-0.884-11.665-6.634-11.665-13.384v-6.339c0-6.804,4.839-12.42,11.504-13.366
		c4.509-0.643,7.857-4.5,7.857-9.053V142.25c0-28.027,22.768-50.821,50.755-50.821h112.741v75.17c0,4.375,3.103,8.143,7.397,8.973
		c6.308,1.232,10.888,6.804,10.888,13.259v6.339c0,6.554-4.625,12.134-11,13.286c-4.112,0.741-7.196,4.179-7.496,8.348
		c-3.04,42.482-38.857,75.768-81.54,75.768C213.942,292.571,178.134,259.348,175.009,216.947z M100.571,435.633v-42.491
		c0-20.589,18.795-38.652,40.219-38.652h50.897c3.491,0,6.674-1.982,8.21-5.116l21.379-43.634c0.199-0.406,0.196-0.84,0.33-1.259
		c10.915,4.105,22.687,6.375,34.928,6.375c10.513,0,20.649-1.737,30.223-4.797l21.223,43.315c1.536,3.134,4.719,5.116,8.21,5.116
		h57.183c20.982,0,38.053,16.875,38.053,37.616v43.526c-41.71,36.139-96.038,58.081-155.429,58.081S142.282,471.772,100.571,435.633
		z"/>
	<path style="fill:#314E55;" d="M424.817,105.464c2.339,0,4.679-0.893,6.464-2.679l26.808-26.804l28.147,28.143
		c1.786,1.786,4.125,2.679,6.464,2.679s4.679-0.893,6.464-2.679c3.571-3.571,3.571-9.357,0-12.928l-28.147-28.143l24.914-24.911
		c3.571-3.571,3.571-9.357,0-12.928c-3.571-3.571-9.357-3.571-12.928,0l-24.915,24.912l-23.576-23.573
		c-3.571-3.571-9.357-3.571-12.928,0c-3.571,3.571-3.571,9.357,0,12.928l23.575,23.571l-26.807,26.804
		c-3.571,3.571-3.571,9.357,0,12.928C420.138,104.572,422.478,105.464,424.817,105.464z"/>
</g>
<g>
</g>
<g>
</g>
<g>
</g>
<g>
</g>
<g>
</g>
<g>
</g>
<g>
</g>
<g>
</g>
<g>
</g>
<g>
</g>
<g>
</g>
<g>
</g>
<g>
</g>
<g>
</g>
<g>
</g>
</svg>
