<?xml version="1.0" encoding="iso-8859-1"?>
<!-- Generator: Adobe Illustrator 19.0.0, SVG Export Plug-In . SVG Version: 6.00 Build 0)  -->
<svg version="1.1" id="Layer_1" xmlns="http://www.w3.org/2000/svg" xmlns:xlink="http://www.w3.org/1999/xlink" x="0px" y="0px"
	 viewBox="0 0 512 512" style="enable-background:new 0 0 512 512;" xml:space="preserve">
<path style="fill:#EA86A5;" d="M339.762,290.36c-5.172-20.995-17.465-74.173-17.465-104.66v-20.899c0-34-27.66-61.66-61.66-61.66
	h-26.729c-34,0-61.66,27.66-61.66,61.66V185.7c0,30.487-12.293,83.665-17.465,104.66c15.49,3.626,50.754,10.599,92.49,10.599
	S324.272,293.986,339.762,290.36z"/>
<path style="fill:#73C9C9;" d="M427.106,94.149c17.351,0,31.471-14.12,31.471-31.471s-14.12-31.471-31.471-31.471
	c-17.351,0-31.471,14.12-31.471,31.471S409.754,94.149,427.106,94.149z"/>
<path style="fill:#FFFFFF;" d="M386.643,401.913c0-18.703-16.412-33.921-36.59-33.921h-48.216c-3.486,0-6.656-2.011-8.131-5.163
	l-21.045-44.698c-8.108,0.495-16.571,0.81-25.389,0.81c-8.72,0-17.092-0.308-25.119-0.794l-18.215,44.277
	c-1.387,3.363-4.671,5.567-8.316,5.567h-42.14c-20.179,0-36.59,15.217-36.59,33.921v44.864
	c38.141,27.043,84.664,43.007,134.876,43.007s96.735-15.964,134.875-43.007V401.913z"/>
<g>
	<path style="fill:#314E55;" d="M494.544,247.008c-4.97,0-8.992,4.022-8.992,8.992c0,70.503-31.412,133.766-80.925,176.665v-30.751
		c0-28.617-24.481-51.904-54.574-51.904h-42.509l-15.759-33.458c35.694-3.748,60.006-10.639,61.384-11.035
		c4.689-1.352,7.437-6.199,6.208-10.915c-0.193-0.729-19.099-73.435-19.099-108.901v-20.899c0-43.914-35.729-79.644-79.643-79.644
		h-26.729c-43.914,0-79.643,35.73-79.643,79.643V185.7c0,35.466-18.906,108.173-19.099,108.901
		c-1.229,4.715,1.519,9.562,6.208,10.915c1.385,0.398,25.949,7.362,61.962,11.097l-13.737,33.396h-36.116
		c-30.092,0-54.574,23.287-54.574,51.904v30.751C49.396,389.766,17.983,326.503,17.983,256
		c0-128.913,104.871-233.784,233.784-233.784c4.97,0,8.992-4.022,8.992-8.992s-4.022-8.992-8.992-8.992
		C112.941,4.232,0,117.173,0,256s112.941,251.768,251.768,251.768S503.535,394.827,503.535,256
		C503.535,251.03,499.513,247.008,494.544,247.008z M172.247,185.7v-20.899c0-34,27.66-61.66,61.66-61.66h26.729
		c34,0,61.66,27.66,61.66,61.66V185.7c0,30.487,12.293,83.665,17.465,104.66c-15.49,3.626-50.754,10.599-92.49,10.599
		s-77-6.972-92.49-10.599C159.954,269.365,172.247,216.187,172.247,185.7z M116.892,446.777v-44.864
		c0-18.703,16.412-33.921,36.59-33.921h42.14c3.644,0,6.928-2.204,8.316-5.567l18.215-44.277c8.027,0.485,16.399,0.794,25.119,0.794
		c8.818,0,17.281-0.316,25.389-0.811l21.045,44.698c1.475,3.152,4.645,5.163,8.131,5.163h48.216c20.179,0,36.59,15.217,36.59,33.921
		v44.864c-38.14,27.043-84.664,43.007-134.875,43.007S155.033,473.82,116.892,446.777z"/>
	<path style="fill:#314E55;" d="M427.106,112.133c10.391,0,20.033-3.239,28.002-8.738l44.178,44.178L512,134.858L467.822,90.68
		c5.499-7.969,8.738-17.611,8.738-28.002c0-27.265-22.189-49.454-49.454-49.454c-27.265,0-49.454,22.189-49.454,49.454
		S399.841,112.133,427.106,112.133z M427.106,31.208c17.351,0,31.471,14.12,31.471,31.471s-14.12,31.471-31.471,31.471
		c-17.351,0-31.471-14.12-31.471-31.471S409.754,31.208,427.106,31.208z"/>
</g>
<g>
</g>
<g>
</g>
<g>
</g>
<g>
</g>
<g>
</g>
<g>
</g>
<g>
</g>
<g>
</g>
<g>
</g>
<g>
</g>
<g>
</g>
<g>
</g>
<g>
</g>
<g>
</g>
<g>
</g>
</svg>
