<?xml version="1.0" encoding="iso-8859-1"?>
<!-- Generator: Adobe Illustrator 19.0.0, SVG Export Plug-In . SVG Version: 6.00 Build 0)  -->
<svg version="1.1" id="Layer_1" xmlns="http://www.w3.org/2000/svg" xmlns:xlink="http://www.w3.org/1999/xlink" x="0px" y="0px"
	 viewBox="0 0 512 512" style="enable-background:new 0 0 512 512;" xml:space="preserve">
<path style="fill:#E65F58;" d="M442.607,115.732c0.277-0.027,0.549-0.036,0.822-0.036s0.545,0.009,0.822,0.036
	c12.567,1.286,27.728-8.848,36.643-24.304c5.759-9.973,8.362-20.848,7.33-30.616c-0.915-8.696-4.647-15.339-10.509-18.723
	c-7.848-4.536-18.665-2.821-28.947,4.58c-3.187,2.304-7.491,2.304-10.679,0c-10.286-7.402-21.107-9.107-28.947-4.58
	c-5.862,3.384-9.594,10.027-10.509,18.723c-1.031,9.768,1.571,20.643,7.33,30.616C414.884,106.884,430.036,117.036,442.607,115.732z
	"/>
<path style="fill:#EA86A5;" d="M345.473,290.938c-5.254-21.348-17.759-75.42-17.759-106.42v-21.25
	c0-34.571-28.125-62.696-62.696-62.696h-27.179c-34.571,0-62.696,28.125-62.696,62.696v21.25c0,31-12.504,85.072-17.759,106.42
	c15.75,3.687,51.603,10.777,94.045,10.777C293.871,301.714,329.723,294.625,345.473,290.938z"/>
<path style="fill:#FFFFFF;" d="M393.143,404.366c0-19.018-16.692-34.491-37.205-34.491h-49.027c-3.54,0-6.763-2.045-8.272-5.25
	l-21.398-45.449c-8.244,0.503-16.847,0.824-25.812,0.824c-8.867,0-17.379-0.314-25.541-0.807l-18.521,45.021
	c-1.411,3.42-4.75,5.661-8.455,5.661h-42.848c-20.513,0-37.205,15.473-37.205,34.491v45.617
	c38.782,27.499,86.088,43.731,137.143,43.731s98.36-16.233,137.143-43.732V404.366z"/>
<g>
	<path style="fill:#314E55;" d="M502.857,246.857c-5.049,0-9.143,4.089-9.143,9.143c0,71.688-31.941,136.014-82.286,179.633v-31.267
		c0-29.098-24.893-52.777-55.491-52.777H312.71l-16.017-34.021c36.295-3.812,61.017-10.818,62.419-11.22
		c4.763-1.375,7.558-6.304,6.304-11.098C365.223,294.509,346,220.58,346,184.518v-21.25c0-44.652-36.331-80.982-80.982-80.982
		h-27.179c-44.652,0-80.982,36.33-80.982,80.982v21.25c0,36.062-19.223,109.991-19.415,110.732
		c-1.254,4.795,1.54,9.723,6.304,11.098c1.408,0.405,26.388,7.487,63.008,11.283l-13.968,33.957h-36.723
		c-30.598,0-55.491,23.679-55.491,52.777v31.267C50.227,392.014,18.286,327.688,18.286,256C18.286,124.92,124.924,18.286,256,18.286
		c5.049,0,9.143-4.089,9.143-9.143S261.049,0,256,0C114.839,0,0,114.839,0,256s114.839,256,256,256s256-114.839,256-256
		C512,250.947,507.906,246.857,502.857,246.857z M175.143,184.518v-21.25c0-34.571,28.125-62.696,62.696-62.696h27.179
		c34.571,0,62.696,28.125,62.696,62.696v21.25c0,31,12.504,85.072,17.759,106.42c-15.75,3.687-51.603,10.777-94.045,10.777
		s-78.295-7.089-94.045-10.777C162.638,269.589,175.143,215.518,175.143,184.518z M118.857,449.983v-45.617
		c0-19.018,16.692-34.491,37.205-34.491h42.848c3.705,0,7.045-2.241,8.455-5.661l18.521-45.021
		c8.162,0.493,16.675,0.807,25.541,0.807c8.965,0,17.568-0.32,25.811-0.824l21.398,45.449c1.509,3.205,4.732,5.25,8.272,5.25h49.027
		c20.513,0,37.205,15.473,37.205,34.491v45.617C354.36,477.482,307.055,493.714,256,493.714S157.64,477.482,118.857,449.983z"/>
	<path style="fill:#314E55;" d="M443.429,134.009c0.911,0.062,1.817,0.098,2.737,0.098c18.817-0.009,38.759-13.089,50.567-33.536
		c7.674-13.295,11.112-28.098,9.679-41.679c-1.549-14.661-8.496-26.259-19.554-32.643c-12.705-7.33-28.589-6.464-43.429,2.116
		c-14.844-8.58-30.71-9.446-43.429-2.116c-11.058,6.384-18.005,17.982-19.554,32.643c-1.433,13.58,2.005,28.384,9.679,41.679
		C402.509,122.027,423.808,135.33,443.429,134.009z M398.634,60.813c0.915-8.696,4.647-15.339,10.509-18.723
		c7.839-4.527,18.661-2.821,28.947,4.58c3.187,2.304,7.491,2.304,10.679,0c10.281-7.402,21.098-9.116,28.947-4.58
		c5.862,3.384,9.594,10.027,10.509,18.723c1.031,9.768-1.571,20.643-7.33,30.616c-8.915,15.455-24.076,25.589-36.643,24.304
		c-0.277-0.027-0.549-0.036-0.822-0.036s-0.545,0.009-0.822,0.036c-12.571,1.304-27.723-8.848-36.643-24.304
		C400.205,81.455,397.603,70.58,398.634,60.813z"/>
</g>
<g>
</g>
<g>
</g>
<g>
</g>
<g>
</g>
<g>
</g>
<g>
</g>
<g>
</g>
<g>
</g>
<g>
</g>
<g>
</g>
<g>
</g>
<g>
</g>
<g>
</g>
<g>
</g>
<g>
</g>
</svg>
