<?xml version="1.0" encoding="iso-8859-1"?>
<!-- Generator: Adobe Illustrator 19.0.0, SVG Export Plug-In . SVG Version: 6.00 Build 0)  -->
<svg version="1.1" id="Layer_1" xmlns="http://www.w3.org/2000/svg" xmlns:xlink="http://www.w3.org/1999/xlink" x="0px" y="0px"
	 viewBox="0 0 512 512" style="enable-background:new 0 0 512 512;" xml:space="preserve">
<g>
	<polygon style="fill:#D8D8D8;" points="269.796,418.574 258.37,395.722 246.944,418.574 258.37,479.531 	"/>
	<path style="fill:#D8D8D8;" d="M255.759,369.778c12.585,0,30.153-1.347,47.139-3.018v-50.019c0-2.398,0.907-4.704,2.546-6.463
		c9.509-10.222,17.417-23.435,22.861-38.213c0.889-2.417,2.731-4.37,5.093-5.407c2.37-1.028,5.046-1.056,7.435-0.074
		c0.306,0.13,0.611,0.213,0.926,0.25c1.435,0.194,2.426-0.361,2.898-0.731c0.472-0.352,1.306-1.167,1.5-2.556l4.046-28.768
		c0.306-2.148-1.139-4.065-3.287-4.37c-5.167-0.083-9.815-4.333-9.824-9.5c-0.028-13.556-1.787-26.806-5.231-39.389
		c-0.361-1.343-0.435-2.75-0.194-4.12c0.657-3.778,0.991-7.639,0.991-11.472c0-39.213-34.546-71.111-77.009-71.111
		c-42.472,0-77.019,31.898-77.019,71.111c0,3.843,0.333,7.694,0.991,11.444c0.25,1.38,0.185,2.796-0.185,4.148
		c-3.472,12.676-5.231,26-5.241,39.62c0,5.167-4.148,9.38-9.315,9.472c-1.759,0.213-2.528,0.926-2.944,1.481
		c-0.352,0.463-0.907,1.444-0.713,2.796l4.009,28.509c0.185,1.352,0.991,2.139,1.454,2.491c0.463,0.343,1.417,0.935,2.769,0.713
		c2.389-0.991,5.556-1.074,7.898-0.037c2.37,1.037,4.676,2.87,5.565,5.296c5.435,14.852,13.37,28.139,22.935,38.417
		c1.63,1.759,2.537,4.065,2.537,6.463v49.979C225.41,368.409,243.08,369.778,255.759,369.778z"/>
	<path style="fill:#D8D8D8;" d="M275.284,492.186c54.465-4.41,103.775-27.27,141.649-62.361c-0.031-0.174-0.134-0.314-0.155-0.491
		c-3.482-28.352-28.241-49.769-57.732-50.074c-6.272,0.86-49.731,6.706-83.324,8.761l12.462,24.924
		c0.926,1.852,1.222,3.954,0.833,5.991L275.284,492.186z"/>
	<path style="fill:#D8D8D8;" d="M94.815,428.176c0,0.419-0.185,0.777-0.238,1.182c39.049,36.385,90.337,59.766,146.949,63.195
		l-13.803-73.618c-0.389-2.037-0.093-4.139,0.833-5.991l12.321-24.642c-34.028-1.728-81.371-8.139-87.932-9.043
		C123.907,379.482,94.815,394.63,94.815,428.176z"/>
</g>
<path style="fill:#314E55;" d="M256,0C114.843,0,0,114.843,0,256s114.843,256,256,256s256-114.843,256-256S397.157,0,256,0z
	 M205.852,310.278c-9.565-10.278-17.5-23.565-22.935-38.417c-0.889-2.426-3.195-4.259-5.565-5.296
	c-2.343-1.037-5.509-0.954-7.898,0.037c-1.352,0.222-2.306-0.37-2.769-0.713c-0.463-0.352-1.269-1.139-1.454-2.491l-4.009-28.509
	c-0.194-1.352,0.361-2.333,0.713-2.796c0.417-0.556,1.185-1.269,2.944-1.481c5.167-0.092,9.315-4.306,9.315-9.472
	c0.009-13.62,1.769-26.944,5.241-39.62c0.37-1.352,0.435-2.769,0.185-4.148c-0.657-3.75-0.991-7.602-0.991-11.444
	c0-39.213,34.546-71.111,77.019-71.111c42.463,0,77.009,31.898,77.009,71.111c0,3.833-0.333,7.694-0.991,11.472
	c-0.241,1.37-0.167,2.778,0.194,4.12c3.444,12.583,5.204,25.833,5.231,39.389c0.009,5.167,4.657,9.417,9.824,9.5
	c2.148,0.306,3.593,2.222,3.287,4.37l-4.046,28.768c-0.194,1.389-1.028,2.204-1.5,2.556c-0.472,0.37-1.463,0.926-2.898,0.732
	c-0.315-0.037-0.62-0.12-0.926-0.25c-2.389-0.982-5.065-0.954-7.435,0.074c-2.361,1.037-4.204,2.991-5.093,5.407
	c-5.445,14.778-13.352,27.991-22.861,38.213c-1.639,1.759-2.546,4.065-2.546,6.463v50.019c-16.985,1.672-34.554,3.018-47.139,3.018
	c-12.679,0-30.35-1.369-47.37-3.058v-49.979C208.389,314.343,207.481,312.037,205.852,310.278z M258.37,395.722l11.426,22.852
	l-11.426,60.957l-11.426-60.957L258.37,395.722z M288.185,412.944l-12.462-24.924c33.593-2.056,77.051-7.901,83.323-8.761
	c29.491,0.306,54.25,21.722,57.732,50.074c0.021,0.178,0.124,0.318,0.155,0.491c-37.874,35.091-87.184,57.951-141.649,62.361
	l13.734-73.251C289.408,416.898,289.111,414.796,288.185,412.944z M240.876,388.303l-12.321,24.642
	c-0.926,1.852-1.222,3.954-0.833,5.991l13.803,73.618c-56.611-3.429-107.899-26.81-146.949-63.195
	c0.053-0.405,0.238-0.763,0.238-1.182c0-33.546,29.092-48.695,58.13-48.917C159.505,380.163,206.848,386.574,240.876,388.303z
	 M432.701,413.778c-9.838-31.255-39.67-53.481-74.285-53.481c-0.435,0-0.87,0.028-1.296,0.093
	c-0.325,0.044-15.701,2.153-35.259,4.359V320.38c8.519-9.806,15.796-21.583,21.37-34.546c4.62-0.167,9.074-1.741,12.843-4.593
	c4.87-3.667,8.009-9.019,8.861-15.056l4.046-28.759c1.435-10.204-4.148-19.815-13.092-23.935
	c-0.528-11.954-2.268-23.676-5.194-34.963c0.611-4.167,0.926-8.398,0.926-12.602c0-49.667-43.056-90.074-95.972-90.074
	c-52.926,0-95.982,40.407-95.982,90.074c0,4.222,0.315,8.454,0.935,12.611c-2.954,11.37-4.695,23.167-5.213,35.195
	c-3.38,1.555-6.333,3.926-8.63,6.981c-3.63,4.843-5.157,10.815-4.315,16.824l4.009,28.5c0.843,6.019,3.972,11.343,8.815,14.991
	c3.731,2.815,8.13,4.38,12.695,4.565c5.574,13.046,12.889,24.917,21.463,34.778v44.321c-19.205-2.186-34.22-4.259-34.537-4.303
	c-0.426-0.065-0.87-0.093-1.306-0.093c-39.299,0-68.354,20.615-75.8,51.732C41.207,370.303,18.963,315.717,18.963,256
	C18.963,125.296,125.296,18.963,256,18.963S493.037,125.296,493.037,256C493.037,316.547,470.19,371.837,432.701,413.778z"/>
<g>
</g>
<g>
</g>
<g>
</g>
<g>
</g>
<g>
</g>
<g>
</g>
<g>
</g>
<g>
</g>
<g>
</g>
<g>
</g>
<g>
</g>
<g>
</g>
<g>
</g>
<g>
</g>
<g>
</g>
</svg>
