<?xml version="1.0" encoding="iso-8859-1"?>
<!-- Generator: Adobe Illustrator 19.0.0, SVG Export Plug-In . SVG Version: 6.00 Build 0)  -->
<svg version="1.1" id="Layer_1" xmlns="http://www.w3.org/2000/svg" xmlns:xlink="http://www.w3.org/1999/xlink" x="0px" y="0px"
	 viewBox="0 0 512 512" style="enable-background:new 0 0 512 512;" xml:space="preserve">
<path style="fill:#FFFFFF;" d="M393.143,404.366c0-19.018-16.688-34.491-37.205-34.491h-49.027c-3.545,0-6.768-2.045-8.268-5.25
	l-21.398-45.449C269,319.679,260.395,320,251.429,320c-8.867,0-17.379-0.314-25.541-0.807l-18.521,45.021
	c-1.411,3.42-4.75,5.661-8.455,5.661h-42.848c-20.518,0-37.205,15.473-37.205,34.491v45.618
	c38.782,27.498,86.088,43.73,137.143,43.73s98.361-16.232,137.143-43.73V404.366z"/>
<path style="fill:#EA86A5;" d="M345.473,290.938c-5.259-21.348-17.759-75.42-17.759-106.42v-21.25
	c0-34.571-28.125-62.696-62.696-62.696h-27.179c-34.571,0-62.696,28.125-62.696,62.696v21.25c0,31-12.5,85.072-17.759,106.42
	c15.75,3.687,51.607,10.777,94.045,10.777S329.723,294.625,345.473,290.938z"/>
<g>
	<path style="fill:#314E55;" d="M502.857,246.857c-5.054,0-9.143,4.089-9.143,9.143c0,71.689-31.94,136.014-82.286,179.635v-31.268
		c0-29.098-24.893-52.777-55.491-52.777h-43.223l-16.024-34.021c36.294-3.811,61.015-10.818,62.416-11.22
		c4.768-1.375,7.563-6.304,6.312-11.098c-0.196-0.741-19.42-74.67-19.42-110.732v-21.25c0-44.652-36.33-80.982-80.982-80.982
		h-27.179c-44.652,0-80.982,36.33-80.982,80.982v21.25c0,36.062-19.223,109.991-19.42,110.732c-1.25,4.795,1.545,9.723,6.312,11.098
		c1.408,0.405,26.386,7.486,63.004,11.283l-13.968,33.957h-36.723c-30.598,0-55.491,23.679-55.491,52.777v31.268
		C50.226,392.014,18.286,327.689,18.286,256C18.286,124.92,124.92,18.286,256,18.286c5.053,0,9.143-4.089,9.143-9.143
		S261.053,0,256,0C114.839,0,0,114.839,0,256s114.839,256,256,256s256-114.839,256-256C512,250.947,507.911,246.857,502.857,246.857
		z M175.143,184.518v-21.25c0-34.571,28.125-62.696,62.696-62.696h27.179c34.571,0,62.696,28.125,62.696,62.696v21.25
		c0,31,12.5,85.072,17.759,106.42c-15.75,3.687-51.607,10.777-94.045,10.777s-78.295-7.089-94.045-10.777
		C162.643,269.589,175.143,215.518,175.143,184.518z M118.857,449.984v-45.618c0-19.018,16.688-34.491,37.205-34.491h42.848
		c3.705,0,7.045-2.241,8.455-5.661l18.521-45.021c8.162,0.493,16.675,0.807,25.541,0.807c8.967,0,17.571-0.321,25.816-0.824
		l21.398,45.449c1.5,3.205,4.723,5.25,8.268,5.25h49.027c20.518,0,37.205,15.473,37.205,34.491v45.618
		c-38.781,27.498-86.087,43.73-137.143,43.73S157.639,477.482,118.857,449.984z"/>
	<path style="fill:#314E55;" d="M411.429,73.143H448v36.571c0,5.053,4.089,9.143,9.143,9.143s9.143-4.089,9.143-9.143V73.143h36.571
		c5.053,0,9.143-4.089,9.143-9.143c0-5.053-4.089-9.143-9.143-9.143h-36.571V18.286c0-5.053-4.089-9.143-9.143-9.143
		S448,13.232,448,18.286v36.571h-36.571c-5.053,0-9.143,4.089-9.143,9.143C402.286,69.053,406.375,73.143,411.429,73.143z"/>
</g>
<g>
</g>
<g>
</g>
<g>
</g>
<g>
</g>
<g>
</g>
<g>
</g>
<g>
</g>
<g>
</g>
<g>
</g>
<g>
</g>
<g>
</g>
<g>
</g>
<g>
</g>
<g>
</g>
<g>
</g>
</svg>
