<?xml version="1.0" encoding="iso-8859-1"?>
<!-- Generator: Adobe Illustrator 19.0.0, SVG Export Plug-In . SVG Version: 6.00 Build 0)  -->
<svg version="1.1" id="Layer_1" xmlns="http://www.w3.org/2000/svg" xmlns:xlink="http://www.w3.org/1999/xlink" x="0px" y="0px"
	 viewBox="0 0 512 512" style="enable-background:new 0 0 512 512;" xml:space="preserve">
<path style="fill:#D8D8D8;" d="M305.552,332.346c9.202-10.577,16.846-24.26,22.115-39.548c0.875-2.529,2.74-4.606,5.183-5.731
	c2.433-1.106,5.212-1.212,7.721-0.221c2.442,0.414,3.962-0.721,4.192-2.356l4.481-31.856c0.231-1.654-0.923-3.144-2.635-3.385
	c-5.423,0-10.337-4.423-10.346-9.856c-0.029-13.577-1.615-26.875-4.721-39.538c-0.288-1.212-0.356-2.462-0.183-3.692
	c0.404-2.942,0.606-5.933,0.606-8.904c0-23.981-13.096-45.875-35.029-58.558c-3.481-2.01-5.385-5.942-4.817-9.923
	c0.894-6.163,0.442-9.192,0.096-10.452c-9.51,0.202-25.26,3.981-43.712,10.442c-0.606,0.211-1.231,0.365-1.856,0.462
	c-35.664,5.125-62.548,34.365-62.548,68.029c0,3.029,0.202,6.019,0.606,8.885c0.173,1.231,0.115,2.5-0.183,3.712
	c-3.125,12.721-4.712,26.106-4.721,39.779c0,5.433-4.414,9.837-9.846,9.837c-2.115,0.26-3.231,1.702-3.01,3.308l4.442,31.567
	c0.135,0.961,0.683,1.548,1.115,1.875c0.365,0.279,1.173,0.692,2.221,0.567c2.49-0.981,5.635-0.981,8.067,0.154
	c2.433,1.125,4.654,3.106,5.529,5.644c5.279,15.404,12.952,29.154,22.183,39.76c1.558,1.789,2.414,4.087,2.414,6.462v35.346h90.221
	v-35.346C303.138,336.433,303.994,334.144,305.552,332.346z"/>
<g>
	<path style="fill:#314E55;" d="M320.84,483.173c-24.548,7.039-50.471,9.981-76.096,8.894c-5.356-0.462-10.029,3.981-10.269,9.404
		c-0.241,5.433,3.971,10.029,9.404,10.269c3.875,0.173,7.769,0.26,11.673,0.26c24.048,0,47.846-3.327,70.731-9.904
		c5.221-1.5,8.241-6.952,6.74-12.183C331.523,484.692,326.148,481.683,320.84,483.173z"/>
	<path style="fill:#314E55;" d="M418.283,427.337c-4.438,4.222-9.066,8.22-13.804,12.075c-4.565-2.054-10.096-4.902-16.273-8.094
		c-14.808-7.664-32.961-17.058-52.029-22.788l-11.846-28.327c-0.382-0.91-0.892-1.739-1.5-2.474v-35.334
		c8.241-10.144,15.288-22.317,20.663-35.702c10.414-0.798,19.26-8.731,20.769-19.452l4.481-31.865
		c1.413-10.096-4.115-19.606-12.952-23.721c-0.49-11.846-2.067-23.471-4.692-34.692c0.375-3.221,0.558-6.471,0.558-9.702
		c0-29.029-14.606-55.577-39.394-72.192c0.433-8.961-1.337-15.635-5.365-20.269c-2.443-2.818-6.875-6.183-14.144-6.183
		c-15.058,0-37.346,6.913-49.875,11.26c-44.808,6.904-78.471,44.308-78.471,87.385c0,3.279,0.183,6.538,0.558,9.712
		c-2.644,11.288-4.221,23.01-4.702,34.952c-8.75,4.106-14.221,13.548-12.817,23.586l4.442,31.577
		c0.836,5.971,3.962,11.269,8.817,14.894c3.471,2.606,7.529,4.125,11.76,4.462c5.394,13.5,12.471,25.76,20.76,35.952v32.659
		c-2.422,1.051-4.426,2.969-5.375,5.553l-10.298,28.01c-18.961,5.731-37.01,15.067-51.75,22.692
		c-8.625,4.462-16.067,8.317-21.24,10.154c-1.138,0.403-2.103,1.053-2.977,1.785c1.186-3.616,0.223-7.746-2.812-10.43
		c-16.539-14.673-30.933-31.558-42.779-50.192c-2.913-4.587-9.01-5.942-13.586-3.029c-4.596,2.913-5.952,9-3.029,13.586
		c12.827,20.192,28.423,38.481,46.336,54.365c1.875,1.664,4.202,2.481,6.529,2.481c2.37,0,4.655-1.007,6.511-2.692
		c-0.783,2.096-0.98,4.429-0.174,6.701c1.817,5.115,7.471,7.769,12.577,5.981c6.433-2.289,14.433-6.423,23.692-11.221
		c15.173-7.846,34.048-17.615,52.731-22.567c3.106-0.827,5.615-3.106,6.721-6.125l9.653-26.259h104.731l11.154,26.663
		c1.183,2.827,3.606,4.933,6.567,5.721c18.692,4.952,37.577,14.721,52.75,22.577c2.552,1.318,4.984,2.569,7.338,3.764
		c-7.064,4.714-14.304,9.167-21.848,13.101c-4.827,2.51-6.692,8.462-4.183,13.279c1.759,3.375,5.183,5.298,8.74,5.298
		c1.529,0,3.087-0.356,4.539-1.115c13.129-6.841,25.531-14.928,37.265-23.92c0.73-0.417,1.377-0.931,1.983-1.525
		c6.506-5.087,12.861-10.374,18.867-16.084c3.933-3.75,4.096-9.981,0.346-13.923C428.456,423.75,422.244,423.596,418.283,427.337z
		 M212.917,374.154v-35.346c0-2.375-0.856-4.673-2.414-6.462c-9.231-10.606-16.904-24.356-22.183-39.76
		c-0.875-2.538-3.096-4.519-5.529-5.644c-2.433-1.135-5.577-1.135-8.067-0.154c-1.048,0.125-1.856-0.288-2.221-0.567
		c-0.433-0.327-0.981-0.913-1.115-1.875l-4.442-31.567c-0.221-1.606,0.894-3.048,3.01-3.308c5.433,0,9.846-4.404,9.846-9.837
		c0.01-13.673,1.596-27.058,4.721-39.779c0.298-1.212,0.356-2.481,0.183-3.711c-0.404-2.865-0.606-5.856-0.606-8.885
		c0-33.664,26.885-62.904,62.548-68.029c0.625-0.096,1.25-0.25,1.856-0.462c18.452-6.462,34.202-10.24,43.711-10.442
		c0.346,1.26,0.798,4.288-0.096,10.452c-0.567,3.981,1.337,7.913,4.817,9.923c21.933,12.683,35.029,34.577,35.029,58.558
		c0,2.971-0.202,5.962-0.606,8.904c-0.173,1.231-0.106,2.481,0.183,3.692c3.106,12.663,4.692,25.962,4.721,39.538
		c0.01,5.433,4.923,9.856,10.346,9.856c1.711,0.24,2.865,1.731,2.635,3.385l-4.481,31.856c-0.231,1.635-1.75,2.769-4.192,2.356
		c-2.51-0.99-5.288-0.885-7.721,0.221c-2.442,1.125-4.308,3.202-5.183,5.731c-5.269,15.288-12.913,28.971-22.115,39.548
		c-1.558,1.798-2.414,4.087-2.414,6.462v35.347H212.917z"/>
	<path style="fill:#314E55;" d="M198.071,485.269c-21.394-5.346-41.933-13.692-61.067-24.798
		c-4.673-2.731-10.721-1.154-13.452,3.567c-2.74,4.702-1.135,10.721,3.567,13.452c20.721,12.048,42.99,21.087,66.183,26.885
		c0.798,0.192,1.606,0.288,2.394,0.288c4.414,0,8.423-2.99,9.548-7.461C206.552,491.923,203.35,486.587,198.071,485.269z"/>
	<path style="fill:#314E55;" d="M31.975,152.385c-4.961-2.096-10.779,0.279-12.865,5.308C9.927,179.75,3.898,203.009,1.186,226.836
		c-0.615,5.404,3.26,10.279,8.663,10.894c0.375,0.048,0.76,0.067,1.125,0.067c4.942,0,9.202-3.712,9.769-8.731
		c2.51-21.99,8.077-43.461,16.539-63.817C39.379,160.231,37.004,154.471,31.975,152.385z"/>
	<path style="fill:#314E55;" d="M491.581,326.788c-5.154-1.789-10.74,0.971-12.51,6.106c-7.173,20.856-17.25,40.606-29.962,58.712
		c-3.125,4.442-2.048,10.587,2.404,13.712c1.721,1.212,3.692,1.789,5.644,1.789c3.096,0,6.154-1.462,8.067-4.192
		c13.769-19.615,24.692-41.019,32.462-63.615C499.456,334.154,496.725,328.558,491.581,326.788z"/>
	<path style="fill:#314E55;" d="M508.773,218.144c-0.788-5.385-5.798-9.029-11.183-8.298c-5.385,0.798-9.096,5.808-8.298,11.183
		c1.702,11.49,2.567,23.26,2.567,34.971c0,10.375-0.673,20.798-2.01,30.981c-0.712,5.394,3.087,10.337,8.481,11.039
		c0.433,0.058,0.865,0.087,1.288,0.087c4.875,0,9.106-3.606,9.75-8.567c1.452-11.029,2.183-22.308,2.183-33.538
		C511.552,243.327,510.619,230.587,508.773,218.144z"/>
	<path style="fill:#314E55;" d="M486.985,181.798c1.115,0,2.25-0.192,3.365-0.587c5.106-1.865,7.75-7.51,5.885-12.625
		c-8.154-22.452-19.442-43.673-33.558-63.058c-3.221-4.394-9.365-5.356-13.759-2.163c-4.394,3.202-5.365,9.365-2.163,13.76
		c13.029,17.885,23.452,37.462,30.981,58.192C479.186,179.317,482.965,181.798,486.985,181.798z"/>
	<path style="fill:#314E55;" d="M361.052,44.49c19.702,9.837,37.962,22.423,54.279,37.404c1.894,1.74,4.279,2.596,6.663,2.596
		c2.654,0,5.308-1.067,7.25-3.183c3.683-4.01,3.413-10.24-0.587-13.913c-17.673-16.231-37.462-29.865-58.817-40.519
		c-4.875-2.442-10.779-0.433-13.202,4.414C354.206,36.154,356.187,42.067,361.052,44.49z"/>
	<path style="fill:#314E55;" d="M251.532,19.731l4.019-0.038c20.827,0,41.481,2.712,61.394,8.048
		c0.856,0.231,1.712,0.336,2.558,0.336c4.346,0,8.317-2.894,9.5-7.298c1.413-5.25-1.702-10.644-6.961-12.058
		C300.475,2.933,278.1,0,255.552,0l-4.423,0.038c-5.433,0.115-9.75,4.615-9.644,10.048C241.6,15.519,246.398,19.981,251.532,19.731z
		"/>
	<path style="fill:#314E55;" d="M138.187,49.423c1.586,0,3.202-0.384,4.692-1.192c19.413-10.567,40.192-18.317,61.76-23.048
		c5.317-1.164,8.673-6.414,7.51-11.721c-1.164-5.317-6.423-8.673-11.721-7.51c-23.385,5.125-45.904,13.529-66.952,24.971
		c-4.779,2.606-6.548,8.577-3.952,13.356C131.311,47.567,134.696,49.423,138.187,49.423z"/>
	<path style="fill:#314E55;" d="M51.523,128.067c3.154,0,6.26-1.519,8.163-4.327c12.384-18.288,27.25-34.769,44.202-48.961
		c4.163-3.49,4.712-9.702,1.221-13.875c-3.49-4.154-9.692-4.721-13.875-1.221c-18.346,15.375-34.452,33.212-47.856,53.019
		c-3.048,4.5-1.865,10.625,2.635,13.673C47.706,127.519,49.629,128.067,51.523,128.067z"/>
	<path style="fill:#314E55;" d="M20.1,276.241c-0.452-5.423-5.26-9.586-10.635-8.981c-5.423,0.452-9.442,5.221-8.981,10.635
		c2.019,23.894,7.375,47.327,15.923,69.635c1.5,3.923,5.231,6.327,9.192,6.327c1.173,0,2.365-0.211,3.519-0.654
		c5.077-1.942,7.625-7.635,5.673-12.712C26.917,319.904,21.965,298.289,20.1,276.241z"/>
</g>
<g>
</g>
<g>
</g>
<g>
</g>
<g>
</g>
<g>
</g>
<g>
</g>
<g>
</g>
<g>
</g>
<g>
</g>
<g>
</g>
<g>
</g>
<g>
</g>
<g>
</g>
<g>
</g>
<g>
</g>
</svg>
