<?xml version="1.0" encoding="iso-8859-1"?>
<!-- Generator: Adobe Illustrator 19.0.0, SVG Export Plug-In . SVG Version: 6.00 Build 0)  -->
<svg version="1.1" id="Layer_1" xmlns="http://www.w3.org/2000/svg" xmlns:xlink="http://www.w3.org/1999/xlink" x="0px" y="0px"
	 viewBox="0 0 512 512" style="enable-background:new 0 0 512 512;" xml:space="preserve">
<path style="fill:#EA86A5;" d="M345.473,290.938c-5.254-21.348-17.759-75.42-17.759-106.42v-21.25
	c0-34.571-28.125-62.696-62.696-62.696h-27.179c-34.571,0-62.696,28.125-62.696,62.696v21.25c0,31-12.504,85.072-17.759,106.42
	c15.75,3.687,51.603,10.777,94.045,10.777C293.871,301.714,329.723,294.625,345.473,290.938z"/>
<path style="fill:#E4AD40;" d="M430.928,83.161l-3.031,17.652l15.848-8.33c1.331-0.706,2.795-1.054,4.255-1.054
	c1.46,0,2.924,0.348,4.254,1.053l15.848,8.33l-3.031-17.652c-0.504-2.964,0.478-5.991,2.634-8.089l12.817-12.5L462.808,60
	c-2.978-0.429-5.554-2.304-6.888-5L448,38.947L440.08,55c-1.335,2.696-3.911,4.571-6.888,5l-17.714,2.571l12.817,12.5
	C430.451,77.17,431.433,80.196,430.928,83.161z"/>
<path style="fill:#FFFFFF;" d="M393.143,404.366c0-19.018-16.692-34.491-37.205-34.491h-49.027c-3.54,0-6.763-2.045-8.272-5.25
	l-21.398-45.449c-8.244,0.503-16.847,0.824-25.812,0.824c-8.867,0-17.379-0.314-25.541-0.807l-18.521,45.021
	c-1.411,3.42-4.75,5.661-8.455,5.661h-42.848c-20.513,0-37.205,15.473-37.205,34.491v45.617
	c38.782,27.499,86.088,43.731,137.143,43.731s98.36-16.233,137.143-43.732V404.366z"/>
<g>
	<path style="fill:#314E55;" d="M502.857,246.857c-5.049,0-9.143,4.089-9.143,9.143c0,71.688-31.941,136.014-82.286,179.633v-31.267
		c0-29.098-24.893-52.777-55.491-52.777H312.71l-16.017-34.021c36.295-3.812,61.017-10.818,62.419-11.22
		c4.763-1.375,7.558-6.304,6.304-11.098C365.223,294.509,346,220.58,346,184.518v-21.25c0-44.652-36.331-80.982-80.982-80.982
		h-27.179c-44.652,0-80.982,36.33-80.982,80.982v21.25c0,36.062-19.223,109.991-19.415,110.732
		c-1.254,4.795,1.54,9.723,6.304,11.098c1.408,0.405,26.388,7.487,63.008,11.283l-13.968,33.957h-36.723
		c-30.598,0-55.491,23.679-55.491,52.777v31.267C50.227,392.014,18.286,327.688,18.286,256C18.286,124.92,124.924,18.286,256,18.286
		c5.049,0,9.143-4.089,9.143-9.143S261.049,0,256,0C114.839,0,0,114.839,0,256s114.839,256,256,256s256-114.839,256-256
		C512,250.947,507.906,246.857,502.857,246.857z M175.143,184.518v-21.25c0-34.571,28.125-62.696,62.696-62.696h27.179
		c34.571,0,62.696,28.125,62.696,62.696v21.25c0,31,12.504,85.072,17.759,106.42c-15.75,3.687-51.603,10.777-94.045,10.777
		s-78.295-7.089-94.045-10.777C162.638,269.589,175.143,215.518,175.143,184.518z M118.857,449.983v-45.617
		c0-19.018,16.692-34.491,37.205-34.491h42.848c3.705,0,7.045-2.241,8.455-5.661l18.521-45.021
		c8.162,0.493,16.675,0.807,25.541,0.807c8.965,0,17.568-0.32,25.811-0.824l21.398,45.449c1.509,3.205,4.732,5.25,8.272,5.25h49.027
		c20.513,0,37.205,15.473,37.205,34.491v45.617C354.36,477.482,307.055,493.714,256,493.714S157.64,477.482,118.857,449.983z"/>
	<path style="fill:#314E55;" d="M412.089,84.813l-5.348,31.17c-0.585,3.429,0.826,6.893,3.638,8.938
		c2.826,2.062,6.558,2.33,9.629,0.696L448,110.902l27.991,14.714c1.339,0.705,2.799,1.053,4.254,1.053
		c1.893,0,3.781-0.589,5.375-1.75c2.813-2.045,4.223-5.509,3.638-8.938l-5.348-31.17l22.643-22.08
		c2.496-2.429,3.393-6.062,2.317-9.375c-1.076-3.304-3.938-5.714-7.384-6.214l-31.295-4.545l-13.991-28.357
		c-3.08-6.25-13.321-6.25-16.402,0l-13.991,28.357l-31.295,4.545c-3.446,0.5-6.308,2.911-7.384,6.214
		c-1.076,3.312-0.178,6.947,2.317,9.375L412.089,84.813z M433.192,60c2.978-0.429,5.554-2.304,6.888-5L448,38.947L455.92,55
		c1.335,2.696,3.911,4.571,6.888,5l17.714,2.571l-12.817,12.5c-2.156,2.098-3.138,5.125-2.634,8.089l3.031,17.652l-15.848-8.33
		c-1.331-0.706-2.795-1.054-4.255-1.054c-1.46,0-2.924,0.348-4.254,1.053l-15.848,8.33l3.031-17.652
		c0.504-2.964-0.478-5.991-2.634-8.089l-12.817-12.5L433.192,60z"/>
</g>
<g>
</g>
<g>
</g>
<g>
</g>
<g>
</g>
<g>
</g>
<g>
</g>
<g>
</g>
<g>
</g>
<g>
</g>
<g>
</g>
<g>
</g>
<g>
</g>
<g>
</g>
<g>
</g>
<g>
</g>
</svg>
