<?xml version="1.0" encoding="iso-8859-1"?>
<!-- Generator: Adobe Illustrator 19.0.0, SVG Export Plug-In . SVG Version: 6.00 Build 0)  -->
<svg version="1.1" id="Layer_1" xmlns="http://www.w3.org/2000/svg" xmlns:xlink="http://www.w3.org/1999/xlink" x="0px" y="0px"
	 viewBox="0 0 512 512" style="enable-background:new 0 0 512 512;" xml:space="preserve">
<path style="fill:#F28544;" d="M391.417,296.574c-6.935-27.509-26.38-108.732-26.38-154.352v-7.703
	c0-63.111-50.875-114.574-113.778-115.537c-62.903,0.963-113.778,52.426-113.778,115.537v7.703
	c0,45.62-19.444,126.843-26.38,154.352c20.695,4.963,75.093,16.315,140.157,16.315S370.722,301.537,391.417,296.574z"/>
<g>
	<polygon style="fill:#EA86A5;" points="214.139,449.083 232.366,430.861 195.333,407.296 	"/>
	<polygon style="fill:#EA86A5;" points="288.38,449.083 307.185,407.296 270.153,430.861 	"/>
</g>
<path style="fill:#314E55;" d="M388.787,370.213h-59.208l-20.023-41.137c55.633-5.198,93.921-15.953,96.013-16.548
	c4.963-1.426,7.88-6.555,6.56-11.546C411.847,299.917,384,194.093,384,142.222v-7.703C384,61.991,326.287,2.685,254.366,0.093
	C253.94,0.028,253.505,0,253.065,0h-3.611c-0.44,0-0.875,0.028-1.301,0.093c-71.491,2.574-128.945,61.194-129.63,133.129
	c-0.005,0.111-0.005,0.232-0.005,0.343v8.657c0,51.87-27.847,157.694-28.13,158.759c-1.319,4.991,1.597,10.12,6.56,11.546
	c2.107,0.6,40.953,11.499,97.237,16.653l-19.968,41.032h-51.004c-39.185,0-71.065,31.796-71.065,70.889v61.417
	c0,5.241,4.245,9.481,9.481,9.481s9.481-4.241,9.481-9.481v-61.417c0-28.63,23.375-51.926,52.102-51.926h43.174l36.095,80.213
	c1.282,2.843,3.875,4.88,6.94,5.435c0.569,0.102,1.139,0.157,1.708,0.157c2.491,0,4.912-0.982,6.704-2.778l33.426-33.422
	l33.426,33.422c1.792,1.796,4.213,2.778,6.704,2.778c0.569,0,1.139-0.055,1.708-0.157c3.065-0.556,5.657-2.593,6.94-5.435
	l36.095-80.213h52.655c28.727,0,52.102,23.296,52.102,51.926v61.417c0,5.241,4.245,9.481,9.481,9.481s9.481-4.241,9.481-9.481
	v-61.417C459.852,402.009,427.972,370.213,388.787,370.213z M137.481,142.222v-7.703c0-63.111,50.875-114.574,113.778-115.537
	c62.903,0.963,113.778,52.426,113.778,115.537v7.703c0,45.62,19.444,126.843,26.38,154.352
	c-20.695,4.963-75.093,16.315-140.157,16.315s-119.463-11.352-140.157-16.315C118.037,269.065,137.481,187.843,137.481,142.222z
	 M251.259,331.852c13.203,0,25.858-0.478,37.962-1.226l24.388,50.104l-62.351,39.672l-61.371-39.05l24.645-50.649
	C226.266,331.406,238.506,331.852,251.259,331.852z M214.139,449.083l-18.806-41.787l37.032,23.565L214.139,449.083z
	 M288.38,449.083l-18.227-18.222l37.032-23.565L288.38,449.083z"/>
<g>
</g>
<g>
</g>
<g>
</g>
<g>
</g>
<g>
</g>
<g>
</g>
<g>
</g>
<g>
</g>
<g>
</g>
<g>
</g>
<g>
</g>
<g>
</g>
<g>
</g>
<g>
</g>
<g>
</g>
</svg>
