<?xml version="1.0" encoding="iso-8859-1"?>
<!-- Generator: Adobe Illustrator 19.0.0, SVG Export Plug-In . SVG Version: 6.00 Build 0)  -->
<svg version="1.1" id="Layer_1" xmlns="http://www.w3.org/2000/svg" xmlns:xlink="http://www.w3.org/1999/xlink" x="0px" y="0px"
	 viewBox="0 0 512 512" style="enable-background:new 0 0 512 512;" xml:space="preserve">
<g>
	<path style="fill:#D8D8D8;" d="M310.737,370.759v-42.862c0-2.129,0.767-4.181,2.164-5.793
		c10.72-12.336,19.625-28.259,25.759-46.052c0.785-2.276,2.47-4.138,4.659-5.146c2.198-1,4.703-1.06,6.94-0.181
		c0.422,0.172,0.871,0.284,1.336,0.354c1.642,0.19,3.168-0.181,4.427-1.129c1.272-0.966,2.099-2.388,2.328-4.009l5.078-36.112
		c0.224-1.604-0.177-3.198-1.134-4.483c-0.948-1.259-2.336-2.078-3.918-2.302c-2.435-0.043-5.034-0.914-6.711-2.569
		c-1.677-1.655-3.034-3.948-3.039-6.302c-0.03-15.724-1.871-31.138-5.466-45.802c-0.267-1.086-0.323-2.207-0.172-3.31
		c0.478-3.448,0.72-6.991,0.72-10.517c0-28.327-15.431-54.147-41.276-69.078c-3.125-1.81-4.836-5.336-4.323-8.905
		c1.694-11.759-0.634-14.569-0.711-14.664c-0.017,0-0.293-0.104-0.97-0.104c-10.703,0-29.444,4.414-51.427,12.104
		c-0.539,0.19-1.095,0.328-1.664,0.414c-41.978,6.035-73.638,40.526-73.638,80.233c0,3.526,0.241,7.069,0.72,10.517
		c0.151,1.103,0.095,2.224-0.172,3.31c-3.617,14.75-5.453,30.25-5.461,46.078c0,2.353-0.948,4.612-2.625,6.276
		c-1.677,1.655-3.957,2.396-6.31,2.543c-4.004,0.509-6.177,3.431-5.72,6.707l5.03,35.802c0.465,3.267,3.392,5.466,6.595,5.026
		c0.453-0.06,0.918-0.19,1.384-0.371c2.233-0.845,4.733-0.776,6.905,0.241s3.84,2.871,4.616,5.138
		c6.138,17.888,15.073,33.897,25.845,46.293c1.397,1.612,2.164,3.664,2.164,5.793v42.862H310.737z"/>
	<path style="fill:#D8D8D8;" d="M335.724,427.517c-3.479-0.922-6.052-3.871-6.496-7.44l-3.957-31.664h-5.707H193.841h-5.638
		l-3.961,31.664c-0.444,3.569-3.017,6.517-6.5,7.44c-27.686,7.332-49.18,13.044-65.752,18.239
		c40.036,30.46,89.938,48.589,144.011,48.589c54.095,0,104.014-18.146,144.059-48.628
		C383.377,440.371,362.479,434.611,335.724,427.517z"/>
</g>
<path style="fill:#314E55;" d="M256,0C114.84,0,0,114.845,0,256s114.84,256,256,256s256-114.845,256-256S397.16,0,256,0z
	 M111.989,445.756c16.572-5.195,38.066-10.906,65.752-18.239c3.483-0.922,6.056-3.871,6.5-7.44l3.961-31.664h5.638h125.724h5.707
	l3.957,31.664c0.444,3.569,3.017,6.517,6.496,7.44c26.755,7.093,47.652,12.853,64.335,18.2
	c-40.046,30.482-89.965,48.628-144.06,48.628C201.927,494.345,152.026,476.216,111.989,445.756z M200.504,322.103
	c-10.772-12.397-19.707-28.405-25.845-46.293c-0.776-2.267-2.444-4.121-4.616-5.138c-2.172-1.017-4.672-1.086-6.905-0.241
	c-0.465,0.181-0.931,0.31-1.384,0.371c-3.203,0.44-6.129-1.759-6.595-5.026l-5.03-35.802c-0.457-3.276,1.715-6.198,5.72-6.707
	c2.353-0.147,4.634-0.888,6.31-2.543c1.677-1.664,2.625-3.922,2.625-6.276c0.009-15.827,1.845-31.327,5.461-46.077
	c0.267-1.086,0.323-2.207,0.172-3.31c-0.478-3.448-0.72-6.991-0.72-10.517c0-39.707,31.659-74.198,73.638-80.233
	c0.569-0.086,1.125-0.224,1.664-0.414c21.983-7.69,40.724-12.103,51.427-12.103c0.677,0,0.952,0.104,0.97,0.104
	c0.078,0.095,2.405,2.905,0.711,14.664c-0.513,3.569,1.198,7.095,4.323,8.905c25.845,14.931,41.276,40.75,41.276,69.078
	c0,3.526-0.241,7.069-0.72,10.517c-0.151,1.103-0.095,2.224,0.172,3.31c3.595,14.664,5.435,30.078,5.466,45.802
	c0.004,2.353,1.362,4.647,3.039,6.302c1.677,1.655,4.276,2.526,6.711,2.569c1.582,0.224,2.97,1.043,3.918,2.302
	c0.957,1.284,1.358,2.879,1.134,4.483l-5.078,36.112c-0.228,1.621-1.056,3.043-2.328,4.009c-1.259,0.948-2.784,1.319-4.427,1.129
	c-0.465-0.069-0.914-0.181-1.336-0.354c-2.237-0.879-4.741-0.819-6.94,0.181c-2.19,1.009-3.875,2.871-4.659,5.146
	c-6.134,17.793-15.039,33.715-25.759,46.052c-1.397,1.612-2.164,3.664-2.164,5.793v42.862H202.668v-42.862
	C202.668,325.767,201.901,323.716,200.504,322.103z M416.065,432.447c-17.539-6.121-40.059-12.472-70.056-20.464l-4.185-33.491
	c-0.552-4.414-4.306-7.733-8.759-7.733h-4.672v-39.629c9.806-11.914,18.138-26.379,24.388-42.336
	c4.996-0.06,9.823-1.698,13.879-4.759c5.03-3.802,8.289-9.353,9.172-15.629l5.078-36.121c0.879-6.259-0.711-12.474-4.478-17.509
	c-2.672-3.578-6.224-6.259-10.285-7.836c-0.483-14.069-2.315-27.879-5.453-41.155c0.444-3.707,0.668-7.483,0.668-11.241
	c0-32.836-16.767-62.836-45.142-81.328c0.72-10.293-1.082-17.802-5.457-22.845c-2.461-2.845-6.944-6.233-14.336-6.233
	c-16.94,0-42.315,7.905-56.461,12.819c-50.19,7.629-87.922,49.431-87.922,97.586c0,3.759,0.224,7.535,0.668,11.241
	c-3.164,13.379-4.996,27.293-5.461,41.474c-9.845,3.905-16.142,14.198-14.603,25.164l5.03,35.81
	c1.634,11.603,11.496,20.069,22.836,20.276c6.267,16.069,14.634,30.638,24.5,42.621v39.629h-4.604c-4.453,0-8.207,3.319-8.759,7.733
	l-4.19,33.483c-31.211,8.279-54.329,14.491-71.524,20.475C47.879,388.814,17.655,325.871,17.655,256
	C17.655,124.578,124.578,17.655,256,17.655S494.345,124.578,494.345,256C494.345,325.87,464.121,388.813,416.065,432.447z"/>
<g>
</g>
<g>
</g>
<g>
</g>
<g>
</g>
<g>
</g>
<g>
</g>
<g>
</g>
<g>
</g>
<g>
</g>
<g>
</g>
<g>
</g>
<g>
</g>
<g>
</g>
<g>
</g>
<g>
</g>
</svg>
