<?xml version="1.0" encoding="iso-8859-1"?>
<!-- Generator: Adobe Illustrator 19.0.0, SVG Export Plug-In . SVG Version: 6.00 Build 0)  -->
<svg version="1.1" id="Layer_1" xmlns="http://www.w3.org/2000/svg" xmlns:xlink="http://www.w3.org/1999/xlink" x="0px" y="0px"
	 viewBox="0 0 512 512" style="enable-background:new 0 0 512 512;" xml:space="preserve">
<circle style="fill:#E65F58;" cx="135.245" cy="376.755" r="19.321"/>
<rect x="19.321" y="241.509" style="fill:#D8D8D8;" width="38.642" height="38.642"/>
<g>
	<circle style="fill:#E65F58;" cx="376.755" cy="135.245" r="19.321"/>
	<circle style="fill:#E65F58;" cx="260.83" cy="260.83" r="19.321"/>
</g>
<polygon style="fill:#D8D8D8;" points="454.038,251.17 454.038,270.491 454.038,280.151 492.679,280.151 492.679,241.509 
	454.038,241.509 "/>
<path style="fill:#314E55;" d="M502.34,222.189h-57.962c-5.335,0-9.66,4.325-9.66,9.66v19.321h-87.188
	c23.55-17.635,38.886-45.665,38.886-77.283c0-0.458-0.199-0.85-0.261-1.291c16.753-4.228,29.242-19.303,29.242-37.35
	c0-21.307-17.335-38.642-38.642-38.642s-38.642,17.335-38.642,38.642c0,18.047,12.489,33.123,29.242,37.35
	c-0.062,0.441-0.261,0.834-0.261,1.291c0,39.858-30.337,72.757-69.132,76.843c-4.473-16.391-19.342-28.541-37.133-28.541
	c-17.952,0-32.949,12.363-37.27,28.981H77.283v-19.321c0-5.335-4.325-9.66-9.66-9.66H9.66c-5.335,0-9.66,4.325-9.66,9.66v57.962
	c0,5.335,4.325,9.66,9.66,9.66h57.962c5.335,0,9.66-4.325,9.66-9.66v-19.321h87.188c-21.433,16.048-36.013,40.71-38.46,68.862
	c-16.839,4.167-29.407,19.294-29.407,37.402c0,21.307,17.335,38.642,38.642,38.642s38.642-17.335,38.642-38.642
	c0-17.79-12.15-32.659-28.541-37.132c4.087-38.795,36.984-69.132,76.843-69.132h1.372c4.321,16.618,19.318,28.981,37.27,28.981
	s32.949-12.363,37.27-28.981h136.617v19.321c0,5.335,4.325,9.66,9.66,9.66h57.962c5.335,0,9.66-4.325,9.66-9.66v-57.962
	C512,226.514,507.675,222.189,502.34,222.189z M357.434,135.245c0-10.656,8.665-19.321,19.321-19.321
	c10.656,0,19.321,8.665,19.321,19.321s-8.665,19.321-19.321,19.321C366.099,154.566,357.434,145.901,357.434,135.245z
	 M57.962,280.151H19.321v-38.642h38.642V280.151z M154.566,376.755c0,10.656-8.665,19.321-19.321,19.321
	s-19.321-8.665-19.321-19.321s8.665-19.321,19.321-19.321S154.566,366.099,154.566,376.755z M260.83,280.151
	c-10.656,0-19.321-8.665-19.321-19.321c0-10.656,8.665-19.321,19.321-19.321c10.656,0,19.321,8.665,19.321,19.321
	C280.151,271.486,271.486,280.151,260.83,280.151z M492.679,280.151h-38.642v-9.66V251.17v-9.66h38.642V280.151z"/>
<g>
</g>
<g>
</g>
<g>
</g>
<g>
</g>
<g>
</g>
<g>
</g>
<g>
</g>
<g>
</g>
<g>
</g>
<g>
</g>
<g>
</g>
<g>
</g>
<g>
</g>
<g>
</g>
<g>
</g>
</svg>
