<?xml version="1.0" encoding="iso-8859-1"?>
<!-- Generator: Adobe Illustrator 19.0.0, SVG Export Plug-In . SVG Version: 6.00 Build 0)  -->
<svg version="1.1" id="Layer_1" xmlns="http://www.w3.org/2000/svg" xmlns:xlink="http://www.w3.org/1999/xlink" x="0px" y="0px"
	 viewBox="0 0 512 512" style="enable-background:new 0 0 512 512;" xml:space="preserve">
<path style="fill:#E65F58;" d="M38.642,130.415c-10.651,0-19.321,8.665-19.321,19.321s8.67,19.321,19.321,19.321
	s19.321-8.665,19.321-19.321S49.293,130.415,38.642,130.415z"/>
<g>
	<rect x="28.981" y="342.943" style="fill:#D8D8D8;" width="38.642" height="38.642"/>
	<polygon style="fill:#D8D8D8;" points="241.509,130.415 241.509,140.075 241.509,159.396 241.509,169.057 280.151,169.057 
		280.151,130.415 	"/>
	<rect x="454.038" y="342.943" style="fill:#D8D8D8;" width="38.642" height="38.642"/>
</g>
<path style="fill:#314E55;" d="M502.34,323.623h-19.81c-4.922-98.811-84.242-178.136-183.058-183.058v-19.81
	c0-5.335-4.321-9.66-9.66-9.66h-57.962c-5.34,0-9.66,4.325-9.66,9.66v19.321H75.911c-4.32-16.618-19.314-28.981-37.269-28.981
	C17.33,111.094,0,128.429,0,149.736s17.33,38.642,38.642,38.642c17.956,0,32.95-12.363,37.269-28.981h72.278
	C86.246,189.324,42.737,251.224,39.131,323.623h-19.81c-5.34,0-9.66,4.325-9.66,9.66v57.962c0,5.335,4.321,9.66,9.66,9.66h57.962
	c5.34,0,9.66-4.325,9.66-9.66v-57.962c0-5.335-4.321-9.66-9.66-9.66H58.452c4.88-88.163,75.578-158.857,163.737-163.737v18.831
	c0,5.335,4.321,9.66,9.66,9.66h57.962c5.34,0,9.66-4.325,9.66-9.66v-18.831c88.159,4.88,158.857,75.574,163.737,163.737h-18.831
	c-5.34,0-9.66,4.325-9.66,9.66v57.962c0,5.335,4.321,9.66,9.66,9.66h57.962c5.34,0,9.66-4.325,9.66-9.66v-57.962
	C512,327.948,507.679,323.623,502.34,323.623z M67.623,381.585H28.981v-38.642h38.642V381.585z M38.642,169.057
	c-10.651,0-19.321-8.665-19.321-19.321s8.67-19.321,19.321-19.321s19.321,8.665,19.321,19.321S49.293,169.057,38.642,169.057z
	 M280.151,169.057h-38.642v-9.66v-19.321v-9.66h38.642V169.057z M492.679,381.585h-38.642v-38.642h38.642V381.585z"/>
<g>
</g>
<g>
</g>
<g>
</g>
<g>
</g>
<g>
</g>
<g>
</g>
<g>
</g>
<g>
</g>
<g>
</g>
<g>
</g>
<g>
</g>
<g>
</g>
<g>
</g>
<g>
</g>
<g>
</g>
</svg>
