<?xml version="1.0" encoding="iso-8859-1"?>
<!-- Generator: Adobe Illustrator 19.0.0, SVG Export Plug-In . SVG Version: 6.00 Build 0)  -->
<svg version="1.1" id="Layer_1" xmlns="http://www.w3.org/2000/svg" xmlns:xlink="http://www.w3.org/1999/xlink" x="0px" y="0px"
	 viewBox="0 0 512 512" style="enable-background:new 0 0 512 512;" xml:space="preserve">
<g>
	<rect x="327.68" y="122.88" style="fill:#81A4E3;" width="81.92" height="194.56"/>
	<rect x="122.88" y="122.88" style="fill:#81A4E3;" width="81.92" height="327.68"/>
</g>
<g>
	<path style="fill:#314E55;" d="M215.04,102.4h-102.4c-5.66,0-10.24,4.585-10.24,10.24V460.8c0,5.655,4.58,10.24,10.24,10.24h102.4
		c5.66,0,10.24-4.585,10.24-10.24V112.64C225.28,106.985,220.7,102.4,215.04,102.4z M204.8,450.56h-81.92V122.88h81.92V450.56z"/>
	<path style="fill:#314E55;" d="M419.84,102.4h-102.4c-5.66,0-10.24,4.585-10.24,10.24v215.04c0,5.655,4.58,10.24,10.24,10.24h102.4
		c5.66,0,10.24-4.585,10.24-10.24V112.64C430.08,106.985,425.5,102.4,419.84,102.4z M409.6,317.44h-81.92V122.88h81.92V317.44z"/>
	<rect y="40.96" style="fill:#314E55;" width="512" height="20.48"/>
</g>
<g>
</g>
<g>
</g>
<g>
</g>
<g>
</g>
<g>
</g>
<g>
</g>
<g>
</g>
<g>
</g>
<g>
</g>
<g>
</g>
<g>
</g>
<g>
</g>
<g>
</g>
<g>
</g>
<g>
</g>
</svg>
