<?xml version="1.0" encoding="iso-8859-1"?>
<!-- Generator: Adobe Illustrator 19.0.0, SVG Export Plug-In . SVG Version: 6.00 Build 0)  -->
<svg version="1.1" id="Layer_1" xmlns="http://www.w3.org/2000/svg" xmlns:xlink="http://www.w3.org/1999/xlink" x="0px" y="0px"
	 viewBox="0 0 512 512" style="enable-background:new 0 0 512 512;" xml:space="preserve">
<g>
	<polygon style="fill:#81A4E3;" points="393.846,157.538 315.077,157.538 315.077,246.154 315.077,265.846 315.077,354.462 
		393.846,354.462 393.846,265.846 393.846,246.154 	"/>
	<polygon style="fill:#81A4E3;" points="196.923,98.462 118.154,98.462 118.154,246.154 118.154,265.846 118.154,413.538 
		196.923,413.538 196.923,265.846 196.923,246.154 	"/>
</g>
<path style="fill:#314E55;" d="M512,246.154h-98.462v-98.462c0-5.438-4.404-9.846-9.846-9.846h-98.462
	c-5.442,0-9.846,4.409-9.846,9.846v98.462h-78.769V88.615c0-5.438-4.404-9.846-9.846-9.846h-98.462
	c-5.442,0-9.846,4.409-9.846,9.846v157.538H0v19.692h98.462v157.538c0,5.438,4.404,9.846,9.846,9.846h98.462
	c5.442,0,9.846-4.409,9.846-9.846V265.846h78.769v98.462c0,5.438,4.404,9.846,9.846,9.846h98.462c5.442,0,9.846-4.409,9.846-9.846
	v-98.462H512V246.154z M196.923,413.538h-78.769V265.846v-19.692V98.462h78.769v147.692v19.692V413.538z M393.846,354.462h-78.769
	v-88.615v-19.692v-88.615h78.769v88.615v19.692V354.462z"/>
<g>
</g>
<g>
</g>
<g>
</g>
<g>
</g>
<g>
</g>
<g>
</g>
<g>
</g>
<g>
</g>
<g>
</g>
<g>
</g>
<g>
</g>
<g>
</g>
<g>
</g>
<g>
</g>
<g>
</g>
</svg>
