<?xml version="1.0" encoding="iso-8859-1"?>
<!-- Generator: Adobe Illustrator 19.0.0, SVG Export Plug-In . SVG Version: 6.00 Build 0)  -->
<svg version="1.1" id="Layer_1" xmlns="http://www.w3.org/2000/svg" xmlns:xlink="http://www.w3.org/1999/xlink" x="0px" y="0px"
	 viewBox="0 0 512 512" style="enable-background:new 0 0 512 512;" xml:space="preserve">
<g>
	<rect x="327.68" y="194.56" style="fill:#81A4E3;" width="81.92" height="194.56"/>
	<rect x="122.88" y="61.44" style="fill:#81A4E3;" width="81.92" height="327.68"/>
</g>
<g>
	<path style="fill:#314E55;" d="M112.64,409.6h102.4c5.66,0,10.24-4.585,10.24-10.24V51.2c0-5.655-4.58-10.24-10.24-10.24h-102.4
		c-5.66,0-10.24,4.585-10.24,10.24v348.16C102.4,405.015,106.98,409.6,112.64,409.6z M122.88,61.44h81.92v327.68h-81.92V61.44z"/>
	<path style="fill:#314E55;" d="M317.44,409.6h102.4c5.66,0,10.24-4.585,10.24-10.24V184.32c0-5.655-4.58-10.24-10.24-10.24h-102.4
		c-5.66,0-10.24,4.585-10.24,10.24v215.04C307.2,405.015,311.78,409.6,317.44,409.6z M327.68,194.56h81.92v194.56h-81.92V194.56z"/>
	<rect y="450.56" style="fill:#314E55;" width="512" height="20.48"/>
</g>
<g>
</g>
<g>
</g>
<g>
</g>
<g>
</g>
<g>
</g>
<g>
</g>
<g>
</g>
<g>
</g>
<g>
</g>
<g>
</g>
<g>
</g>
<g>
</g>
<g>
</g>
<g>
</g>
<g>
</g>
</svg>
