<?xml version="1.0" encoding="iso-8859-1"?>
<!-- Generator: Adobe Illustrator 19.0.0, SVG Export Plug-In . SVG Version: 6.00 Build 0)  -->
<svg version="1.1" id="Layer_1" xmlns="http://www.w3.org/2000/svg" xmlns:xlink="http://www.w3.org/1999/xlink" x="0px" y="0px"
	 viewBox="0 0 512 512" style="enable-background:new 0 0 512 512;" xml:space="preserve">
<path style="fill:#73C9C9;" d="M493.714,356.571V82.286H18.286v274.286H493.714z M210.286,182.857c0-3.17,1.643-6.107,4.335-7.777
	c2.696-1.679,6.067-1.813,8.897-0.402l82.286,41.143c3.098,1.554,5.053,4.714,5.053,8.179s-1.955,6.625-5.053,8.179l-82.286,41.143
	c-1.29,0.643-2.692,0.964-4.089,0.964c-1.67,0-3.339-0.455-4.808-1.366c-2.692-1.669-4.335-4.607-4.335-7.777V182.857z"/>
<g>
	<polygon style="fill:#D8D8D8;" points="228.571,197.652 228.571,250.348 281.272,224 	"/>
	<path style="fill:#D8D8D8;" d="M18.286,429.714h475.429v-54.857H18.286V429.714z M27.429,393.143h320v18.286h-320V393.143z"/>
</g>
<g>
	<path style="fill:#314E55;" d="M502.857,64H9.143C4.094,64,0,68.089,0,73.143v292.571v73.143C0,443.911,4.094,448,9.143,448
		h493.714c5.049,0,9.143-4.089,9.143-9.143v-73.143V73.143C512,68.089,507.906,64,502.857,64z M493.714,82.286v274.286H18.286
		V82.286H493.714z M493.714,429.714H18.286v-54.857h475.429V429.714z"/>
	<rect x="27.429" y="393.143" style="fill:#314E55;" width="320" height="18.286"/>
	<path style="fill:#314E55;" d="M214.621,272.92c1.469,0.911,3.138,1.366,4.808,1.366c1.397,0,2.799-0.321,4.089-0.964
		l82.286-41.143c3.098-1.554,5.053-4.714,5.053-8.179s-1.955-6.625-5.053-8.179l-82.286-41.143c-2.83-1.411-6.201-1.277-8.897,0.402
		c-2.692,1.669-4.335,4.607-4.335,7.777v82.286C210.286,268.312,211.929,271.25,214.621,272.92z M228.571,197.652L281.272,224
		l-52.701,26.348V197.652z"/>
</g>
<g>
</g>
<g>
</g>
<g>
</g>
<g>
</g>
<g>
</g>
<g>
</g>
<g>
</g>
<g>
</g>
<g>
</g>
<g>
</g>
<g>
</g>
<g>
</g>
<g>
</g>
<g>
</g>
<g>
</g>
</svg>
