<?xml version="1.0" encoding="iso-8859-1"?>
<!-- Generator: Adobe Illustrator 19.0.0, SVG Export Plug-In . SVG Version: 6.00 Build 0)  -->
<svg version="1.1" id="Layer_1" xmlns="http://www.w3.org/2000/svg" xmlns:xlink="http://www.w3.org/1999/xlink" x="0px" y="0px"
	 viewBox="0 0 512 512" style="enable-background:new 0 0 512 512;" xml:space="preserve">
<g>
	<polygon style="fill:#D26CBA;" points="109.714,427.929 62.964,457.143 109.714,486.357 109.714,466.286 109.714,448 	"/>
	<polygon style="fill:#D26CBA;" points="402.286,448 402.286,466.286 402.286,486.357 449.036,457.143 402.286,427.929 	"/>
</g>
<g>
	<path style="fill:#314E55;" d="M60.286,99.786c4.625,2.053,10.027-0.036,12.071-4.643l34.152-76.857h140.348v393.143h-36.571
		v18.286h36.571v0.42h18.286v-0.42h36.571v-18.286h-36.571V18.286h140.348l34.152,76.857c1.518,3.411,4.857,5.429,8.366,5.429
		c1.241,0,2.5-0.25,3.705-0.786c4.616-2.053,6.688-7.455,4.643-12.071L419.786,5.429C418.312,2.125,415.045,0,411.429,0H100.571
		c-3.616,0-6.884,2.125-8.357,5.429L55.643,87.714C53.598,92.33,55.67,97.732,60.286,99.786z"/>
	<path style="fill:#314E55;" d="M471.134,449.393l-73.143-45.714c-2.83-1.777-6.384-1.857-9.277-0.25
		c-2.911,1.616-4.714,4.679-4.714,8V448H128v-36.571c0-3.321-1.804-6.384-4.714-8c-2.893-1.598-6.455-1.518-9.277,0.25
		l-73.143,45.714c-2.67,1.669-4.295,4.598-4.295,7.75s1.625,6.08,4.295,7.75l73.143,45.714c1.482,0.929,3.161,1.393,4.848,1.393
		c1.527,0,3.053-0.384,4.429-1.143c2.911-1.616,4.714-4.679,4.714-8v-36.571h256v36.571c0,3.321,1.804,6.384,4.714,8
		c1.375,0.759,2.902,1.143,4.429,1.143c1.688,0,3.366-0.464,4.848-1.393l73.143-45.714c2.67-1.669,4.295-4.598,4.295-7.75
		S473.804,451.062,471.134,449.393z M109.714,486.357l-46.75-29.214l46.75-29.214V448v18.286V486.357z M402.286,486.357v-20.071V448
		v-20.071l46.75,29.214L402.286,486.357z"/>
</g>
<g>
</g>
<g>
</g>
<g>
</g>
<g>
</g>
<g>
</g>
<g>
</g>
<g>
</g>
<g>
</g>
<g>
</g>
<g>
</g>
<g>
</g>
<g>
</g>
<g>
</g>
<g>
</g>
<g>
</g>
</svg>
