<?xml version="1.0" encoding="iso-8859-1"?>
<!-- Generator: Adobe Illustrator 19.0.0, SVG Export Plug-In . SVG Version: 6.00 Build 0)  -->
<svg version="1.1" id="Layer_1" xmlns="http://www.w3.org/2000/svg" xmlns:xlink="http://www.w3.org/1999/xlink" x="0px" y="0px"
	 viewBox="0 0 512 512" style="enable-background:new 0 0 512 512;" xml:space="preserve">
<path style="fill:#73C9C9;" d="M365.714,219.429v64h73.143V118.857H164.571v91.429h192
	C361.621,210.286,365.714,214.375,365.714,219.429z"/>
<polygon style="fill:#D26CBA;" points="347.429,292.571 347.429,228.571 155.429,228.571 73.143,228.571 73.143,393.143 
	347.429,393.143 "/>
<path style="fill:#EAEAEA;" d="M18.286,429.714h475.429V82.286H18.286V429.714z M54.857,219.429c0-5.053,4.094-9.143,9.143-9.143
	h82.286V109.714c0-5.053,4.094-9.143,9.143-9.143H448c5.049,0,9.143,4.089,9.143,9.143v182.857c0,5.053-4.094,9.143-9.143,9.143
	h-82.286v100.571c0,5.053-4.094,9.143-9.143,9.143H64c-5.049,0-9.143-4.089-9.143-9.143V219.429z"/>
<g>
	<path style="fill:#314E55;" d="M502.857,64H9.143C4.094,64,0,68.089,0,73.143v365.714C0,443.911,4.094,448,9.143,448h493.714
		c5.049,0,9.143-4.089,9.143-9.143V73.143C512,68.089,507.906,64,502.857,64z M493.714,429.714H18.286V82.286h475.429V429.714z"/>
	<path style="fill:#314E55;" d="M64,411.429h292.571c5.049,0,9.143-4.089,9.143-9.143V301.714H448c5.049,0,9.143-4.089,9.143-9.143
		V109.714c0-5.053-4.094-9.143-9.143-9.143H155.429c-5.049,0-9.143,4.089-9.143,9.143v100.571H64c-5.049,0-9.143,4.089-9.143,9.143
		v182.857C54.857,407.339,58.951,411.429,64,411.429z M164.571,118.857h274.286v164.571h-73.143v-64
		c0-5.053-4.094-9.143-9.143-9.143h-192V118.857z M73.143,228.571h82.286h192v64v100.571H73.143V228.571z"/>
</g>
<g>
</g>
<g>
</g>
<g>
</g>
<g>
</g>
<g>
</g>
<g>
</g>
<g>
</g>
<g>
</g>
<g>
</g>
<g>
</g>
<g>
</g>
<g>
</g>
<g>
</g>
<g>
</g>
<g>
</g>
</svg>
