<?xml version="1.0" encoding="iso-8859-1"?>
<!-- Generator: Adobe Illustrator 19.0.0, SVG Export Plug-In . SVG Version: 6.00 Build 0)  -->
<svg version="1.1" id="Layer_1" xmlns="http://www.w3.org/2000/svg" xmlns:xlink="http://www.w3.org/1999/xlink" x="0px" y="0px"
	 viewBox="0 0 512 512" style="enable-background:new 0 0 512 512;" xml:space="preserve">
<path style="fill:#5ECC66;" d="M287.362,48.83c4.516-4.275,9.439-8.586,14.928-12.919c3.82-3.01,9.382-2.359,12.401,1.462
	c3.018,3.829,2.363,9.382-1.466,12.405c-7.41,5.849-13.674,11.608-19.116,17.241c4.023,7.278,8.919,11.65,14.709,12.864
	c20.196,4.251,53.035-25.741,73.809-50.624c-20.084-6.17-45.463-11.663-65.211-11.663c-11.728,0-21.464,1.932-26.94,6.808
	c-1.82,1.621-7.347,6.541-3.682,22.283C286.971,47.443,287.178,48.099,287.362,48.83z"/>
<path style="fill:#E65F58;" d="M322.229,141.118c-21.567,0-42.152,6.731-61.175,20.007c-3.035,2.113-7.071,2.113-10.107,0
	c-19.024-13.276-39.608-20.007-61.176-20.007c-49.465,0-132.458,17.208-132.458,132.458c0,99.374,61.124,220.763,132.458,220.763
	c21.567,0,42.152-6.731,61.175-20.007c1.518-1.056,3.286-1.587,5.053-1.587c1.768,0,3.536,0.53,5.053,1.587
	c19.024,13.276,39.608,20.007,61.175,20.007c71.334,0,132.458-121.389,132.458-220.763
	C454.686,158.326,371.693,141.118,322.229,141.118z M130.269,417.882c-1.397,0.806-2.923,1.19-4.424,1.19
	c-3.044,0-6.011-1.578-7.649-4.402c-27.061-46.679-43.221-106.027-43.221-158.755c0-4.877,3.95-8.831,8.831-8.831
	s8.831,3.954,8.831,8.831c0,49.754,15.264,105.789,40.841,149.899C135.926,410.031,134.485,415.433,130.269,417.882z"/>
<g>
	<path style="fill:#314E55;" d="M322.229,123.457c-20.439,0-40.698,5.431-59.324,15.751c-1.165-9.613-0.643-31.493,19.256-58.15
		c6.149,8.709,13.81,14.173,23.036,16.11c2.458,0.517,4.959,0.759,7.485,0.759c39.806,0,86.305-60.477,91.78-67.781
		c1.673-2.246,2.191-5.153,1.389-7.834c-0.811-2.682-2.837-4.825-5.476-5.769c-9.322-3.35-91.798-31.898-121.635-5.334
		c-6.933,6.166-14.142,18.019-9.141,39.483c1.086,4.663,2.399,8.859,3.814,12.84c-25.963,30.838-29.285,58.177-28.399,73.554
		c-17.491-8.91-36.283-13.63-55.243-13.63c-95.402,0-150.119,54.716-150.119,150.119C39.652,381.569,106.614,512,189.771,512
		c22.99,0,45.765-6.834,66.229-19.817C276.463,505.165,299.238,512,322.229,512c83.157,0,150.119-130.431,150.119-238.424
		C472.347,178.174,417.631,123.457,322.229,123.457z M290.477,24.403c5.476-4.877,15.212-6.808,26.94-6.808
		c19.748,0,45.127,5.493,65.211,11.663c-20.774,24.883-53.613,54.876-73.809,50.624c-5.79-1.214-10.686-5.586-14.709-12.864
		c5.442-5.632,11.706-11.392,19.116-17.241c3.829-3.022,4.484-8.576,1.466-12.405c-3.018-3.82-8.58-4.471-12.401-1.462
		c-5.49,4.333-10.413,8.644-14.928,12.919c-0.184-0.731-0.392-1.387-0.568-2.144C283.13,30.944,288.657,26.024,290.477,24.403z
		 M322.229,494.339c-21.567,0-42.152-6.731-61.175-20.007c-1.518-1.056-3.286-1.587-5.053-1.587c-1.768,0-3.536,0.53-5.053,1.587
		c-19.024,13.276-39.608,20.007-61.175,20.007c-71.334,0-132.458-121.389-132.458-220.763c0-115.249,82.993-132.458,132.458-132.458
		c21.567,0,42.152,6.731,61.175,20.007c3.035,2.113,7.071,2.113,10.107,0c19.024-13.276,39.608-20.007,61.175-20.007
		c49.465,0,132.458,17.208,132.458,132.458C454.686,372.949,393.563,494.339,322.229,494.339z"/>
	<path style="fill:#314E55;" d="M92.635,255.915c0-4.877-3.95-8.831-8.831-8.831s-8.831,3.954-8.831,8.831
		c0,52.729,16.161,112.076,43.221,158.755c1.638,2.824,4.605,4.402,7.649,4.402c1.501,0,3.027-0.384,4.424-1.19
		c4.217-2.449,5.657-7.852,3.208-12.069C107.899,361.704,92.635,305.668,92.635,255.915z"/>
</g>
<g>
</g>
<g>
</g>
<g>
</g>
<g>
</g>
<g>
</g>
<g>
</g>
<g>
</g>
<g>
</g>
<g>
</g>
<g>
</g>
<g>
</g>
<g>
</g>
<g>
</g>
<g>
</g>
<g>
</g>
</svg>
