<?xml version="1.0" encoding="iso-8859-1"?>
<!-- Generator: Adobe Illustrator 19.0.0, SVG Export Plug-In . SVG Version: 6.00 Build 0)  -->
<svg version="1.1" id="Layer_1" xmlns="http://www.w3.org/2000/svg" xmlns:xlink="http://www.w3.org/1999/xlink" x="0px" y="0px"
	 viewBox="0 0 512 512" style="enable-background:new 0 0 512 512;" xml:space="preserve">
<path style="fill:#E5D85A;" d="M299.032,179.649c-22.206,0-43.461-9.64-58.145-26.092c-12.811,4.079-27.364,2.031-38.504-5.338
	c-8.342,8.561-19.776,13.465-32.101,13.465c-13.667,0-26.39-6.298-34.785-16.531c-9.226,9.114-21.408,14.93-34.424,16.246
	L90.12,432.421c-0.785,16.504,4.882,31.952,15.956,43.566c11.096,11.64,26.307,18.048,42.833,18.048H321.01
	c16.535,0,31.754-6.408,42.847-18.044c11.066-11.605,16.728-27.057,15.943-43.504L363.06,145.761
	C348.813,166.424,325.124,179.649,299.032,179.649z M163.581,449.785l-17.912-1.377l19.342-251.456l17.912,1.377L163.581,449.785z
	 M245.138,440.14h-17.965V206.596h17.965V440.14z M308.73,449.785l-19.342-251.456l17.912-1.377l19.342,251.456L308.73,449.785z"/>
<path style="fill:#E4AD40;" d="M128.888,124.706c1.768-2.965,5.031-4.667,8.531-4.346c3.443,0.316,6.399,2.575,7.601,5.816
	c3.908,10.491,14.057,17.544,25.263,17.544c9.496,0,18.114-4.851,23.053-12.978c1.456-2.395,3.947-3.974,6.737-4.268
	c2.833-0.267,5.557,0.737,7.478,2.776c8.136,8.649,21.544,10.89,31.965,5.496c1.311-0.68,2.724-1.004,4.123-1.004
	c2.772,0,5.482,1.281,7.224,3.64c11.43,15.443,28.987,24.303,48.171,24.303c26.838,0,50.575-18.039,57.719-43.873
	c0.794-2.86,2.947-5.149,5.754-6.105c15.763-5.381,26.351-20.189,26.351-36.851c0-21.465-17.461-38.925-38.925-38.925
	c-8.518,0-16.605,2.697-23.386,7.807c-2.377,1.785-5.487,2.268-8.285,1.333c-16.93-5.741-36.311-3.434-51.434,6.237
	c-2.031,1.298-4.491,1.719-6.842,1.193c-2.346-0.535-4.377-1.991-5.645-4.039c-7.153-11.597-19.548-18.518-33.154-18.518
	c-13.583,0-25.969,6.908-33.132,18.474c-1.864,3.022-5.338,4.675-8.868,4.171c-3.522-0.491-6.425-3.009-7.404-6.43
	c-4.749-16.601-20.14-28.193-37.429-28.193c-21.46,0-38.921,17.461-38.921,38.925c0,4.316-3.066,8.86-7.307,9.662
	c-18.32,3.474-31.618,19.557-31.618,38.241c0,21.465,17.461,38.925,38.925,38.925C109.072,143.719,121.892,136.434,128.888,124.706z
	"/>
<g>
	<path style="fill:#314E55;" d="M459.282,178.899c-20.257-27.017-55.322-16.81-76.564-4.73l-2.857-48.936
		c-0.037-0.631-0.308-1.169-0.469-1.754c16.761-10.156,27.429-28.439,27.429-48.623c0-31.369-25.522-56.89-56.89-56.89
		c-10.864,0-21.254,3.009-30.316,8.741c-18.171-4.983-38.202-3.061-55.083,5.294c-10.728-12.667-26.395-20.022-43.346-20.022
		c-14.539,0-28.14,5.412-38.482,14.947C172.497,10.553,154.287,0,134.353,0c-29.272,0-53.452,22.224-56.548,50.689
		c-23.127,7.513-39.263,29.232-39.263,54.105c0,27.145,19.125,49.877,44.599,55.515L72.173,431.632
		c-1.017,21.39,6.404,41.548,20.904,56.754C107.594,503.614,127.423,512,148.91,512H321.01c21.496,0,41.333-8.386,55.851-23.61
		c14.487-15.197,21.904-35.355,20.882-56.855l-5.528-94.697c4.947-0.007,44.155-0.45,59.822-12.829
		c12.057-9.531,18.452-45.118,20.329-64.64C474.37,238.509,475.339,200.32,459.282,178.899z M56.506,104.794
		c0-18.684,13.298-34.767,31.618-38.241c4.241-0.803,7.307-5.347,7.307-9.662c0-21.465,17.461-38.925,38.921-38.925
		c17.289,0,32.68,11.592,37.43,28.193c0.978,3.421,3.882,5.939,7.404,6.43c3.531,0.504,7.004-1.149,8.868-4.171
		c7.162-11.566,19.548-18.474,33.132-18.474c13.605,0,26,6.921,33.154,18.518c1.268,2.048,3.298,3.504,5.645,4.039
		c2.351,0.526,4.811,0.105,6.842-1.193c15.123-9.671,34.504-11.978,51.434-6.237c2.798,0.934,5.908,0.452,8.285-1.333
		c6.78-5.11,14.868-7.807,23.386-7.807c21.465,0,38.925,17.461,38.925,38.925c0,16.662-10.588,31.469-26.351,36.851
		c-2.807,0.956-4.961,3.246-5.754,6.105c-7.145,25.833-30.881,43.873-57.719,43.873c-19.184,0-36.741-8.86-48.171-24.303
		c-1.741-2.36-4.452-3.64-7.224-3.64c-1.399,0-2.812,0.324-4.123,1.004c-10.421,5.395-23.829,3.154-31.965-5.496
		c-1.921-2.039-4.645-3.044-7.478-2.776c-2.79,0.294-5.281,1.873-6.737,4.268c-4.939,8.127-13.557,12.978-23.053,12.978
		c-11.206,0-21.355-7.053-25.263-17.544c-1.202-3.241-4.158-5.5-7.601-5.816c-3.5-0.32-6.763,1.382-8.531,4.346
		c-6.996,11.728-19.816,19.013-33.456,19.013C73.967,143.719,56.506,126.259,56.506,104.794z M363.857,475.991
		c-11.092,11.636-26.311,18.044-42.847,18.044H148.91c-16.526,0-31.737-6.408-42.833-18.048
		c-11.074-11.614-16.741-27.061-15.956-43.566l10.953-271.022c13.016-1.316,25.198-7.132,34.424-16.246
		c8.395,10.233,21.118,16.531,34.785,16.531c12.325,0,23.759-4.904,32.101-13.465c11.14,7.368,25.693,9.417,38.504,5.338
		c14.684,16.452,35.939,26.092,58.145,26.092c26.091,0,49.781-13.225,64.028-33.888L379.8,432.487
		C380.585,448.934,374.923,464.386,363.857,475.991z M440.896,309.912c-7.798,6.162-33.246,8.952-48.829,8.96
		c-0.316,0-0.583,0.149-0.891,0.181l-7.276-124.624c0.384-0.195,0.805-0.261,1.167-0.518c0.412-0.303,41.368-28.882,59.838-4.241
		C466.897,219.013,449.375,302.382,440.896,309.912z"/>
	
		<rect x="299.046" y="197.284" transform="matrix(-0.9971 0.0767 -0.0767 -0.9971 639.9532 622.2062)" style="fill:#314E55;" width="17.966" height="252.216"/>
	
		<rect x="38.205" y="314.4" transform="matrix(-0.0767 0.9971 -0.9971 -0.0767 499.3449 184.3558)" style="fill:#314E55;" width="252.216" height="17.966"/>
	<rect x="227.173" y="206.596" style="fill:#314E55;" width="17.965" height="233.544"/>
</g>
<g>
</g>
<g>
</g>
<g>
</g>
<g>
</g>
<g>
</g>
<g>
</g>
<g>
</g>
<g>
</g>
<g>
</g>
<g>
</g>
<g>
</g>
<g>
</g>
<g>
</g>
<g>
</g>
<g>
</g>
</svg>
