<?xml version="1.0" encoding="iso-8859-1"?>
<!-- Generator: Adobe Illustrator 19.0.0, SVG Export Plug-In . SVG Version: 6.00 Build 0)  -->
<svg version="1.1" id="Layer_1" xmlns="http://www.w3.org/2000/svg" xmlns:xlink="http://www.w3.org/1999/xlink" x="0px" y="0px"
	 viewBox="0 0 512 512" style="enable-background:new 0 0 512 512;" xml:space="preserve">
<g>
	<path style="fill:#E9E7D1;" d="M336.593,66.37c-84.319,0-143.527,27.973-154.457,57.049
		c95.093,1.681,168.679,38.428,168.679,85.174c0,17.282-9.81,33.583-28.444,47.389v113.796h99.468
		c24.421,0,44.292-19.884,44.292-44.324v-150.88c0-3.088,1.505-5.981,4.033-7.759c10.435-7.329,22.875-19.144,22.875-33.81
		C493.037,100.824,430.176,66.37,336.593,66.37z M341.333,142.222H322.37v-18.963h18.963V142.222z M341.333,113.778V94.815h18.963
		v18.963H341.333z M379.259,151.704h-18.963v-18.963h18.963V151.704z M436.148,113.778h-18.963V94.815h18.963V113.778z"/>
	<path style="fill:#E9E7D1;" d="M331.852,208.593c0-32.051-62.861-66.37-156.444-66.37c-1.319,0-2.567,0.075-3.873,0.088
		c-0.3,0.03-0.56,0.176-0.868,0.176c-0.245,0-0.45-0.12-0.69-0.139c-90.531,1.315-151.013,34.828-151.013,66.245
		c0,15.139,13.292,27.25,24.444,34.741c2.857,1.917,4.444,5.231,4.162,8.657c-0.107,1.301-0.162,2.611-0.162,3.936v142.37
		c0,26.102,21.306,47.333,47.491,47.333h161.019c26.185,0,47.491-21.231,47.491-47.333v-142.37c0-1.324-0.055-2.634-0.162-3.935
		c-0.282-3.426,1.306-6.741,4.162-8.657C318.56,235.843,331.852,223.731,331.852,208.593z M151.704,180.148h18.963v18.963h-18.963
		V180.148z M123.259,199.111h-18.963v-18.963h18.963V199.111z M132.741,208.593h18.963v18.963h-18.963V208.593z M161.185,256
		h-18.963v-18.963h18.963V256z M189.63,237.037h-18.963v-18.963h18.963V237.037z M189.63,189.63h18.963v18.963H189.63V189.63z
		 M227.556,237.037h-18.963v-18.963h18.963V237.037z M246.519,199.111h-18.963v-18.963h18.963V199.111z"/>
</g>
<g>
	<path style="fill:#314E55;" d="M336.593,47.407c-91.813,0-165.002,32.766-174.347,76.165C70.286,126.759,0,162.906,0,208.593
		c0,17.282,9.81,33.583,28.444,47.389v142.315c0,36.555,29.81,66.296,66.454,66.296h161.019c36.643,0,66.454-29.741,66.454-66.296
		v-9.555h99.468c34.88,0,63.255-28.389,63.255-63.287V179.366C502.722,165.769,512,149.82,512,133.005
		C512,85.005,434.954,47.407,336.593,47.407z M303.245,251.991c0.107,1.301,0.162,2.611,0.162,3.935v142.37
		c0,26.102-21.306,47.333-47.491,47.333H94.898c-26.185,0-47.491-21.231-47.491-47.333v-142.37c0-1.324,0.055-2.634,0.162-3.935
		c0.282-3.426-1.306-6.741-4.162-8.657c-11.153-7.491-24.444-19.602-24.444-34.741c0-31.418,60.482-64.931,151.013-66.245
		c0.24,0.018,0.446,0.139,0.69,0.139c0.308,0,0.567-0.146,0.868-0.176c1.307-0.013,2.554-0.088,3.873-0.088
		c93.583,0,156.444,34.319,156.444,66.37c0,15.139-13.292,27.25-24.444,34.741C304.551,245.25,302.963,248.565,303.245,251.991z
		 M470.162,166.815c-2.528,1.778-4.033,4.671-4.033,7.759v150.88c0,24.44-19.87,44.324-44.292,44.324H322.37V255.982
		c18.634-13.806,28.444-30.107,28.444-47.389c0-46.745-73.586-83.493-168.679-85.174c10.93-29.075,70.138-57.049,154.457-57.049
		c93.583,0,156.444,34.454,156.444,66.634C493.037,147.671,480.597,159.486,470.162,166.815z"/>
	<rect x="104.296" y="180.148" style="fill:#314E55;" width="18.963" height="18.963"/>
	<rect x="132.741" y="208.593" style="fill:#314E55;" width="18.963" height="18.963"/>
	<rect x="322.37" y="123.259" style="fill:#314E55;" width="18.963" height="18.963"/>
	<rect x="151.704" y="180.148" style="fill:#314E55;" width="18.963" height="18.963"/>
	<rect x="341.333" y="94.815" style="fill:#314E55;" width="18.963" height="18.963"/>
	<rect x="170.667" y="218.074" style="fill:#314E55;" width="18.963" height="18.963"/>
	<rect x="360.296" y="132.741" style="fill:#314E55;" width="18.963" height="18.963"/>
	<rect x="227.556" y="180.148" style="fill:#314E55;" width="18.963" height="18.963"/>
	<rect x="417.185" y="94.815" style="fill:#314E55;" width="18.963" height="18.963"/>
	<rect x="189.63" y="189.63" style="fill:#314E55;" width="18.963" height="18.963"/>
	<rect x="208.593" y="218.074" style="fill:#314E55;" width="18.963" height="18.963"/>
	<rect x="142.222" y="237.037" style="fill:#314E55;" width="18.963" height="18.963"/>
</g>
<g>
</g>
<g>
</g>
<g>
</g>
<g>
</g>
<g>
</g>
<g>
</g>
<g>
</g>
<g>
</g>
<g>
</g>
<g>
</g>
<g>
</g>
<g>
</g>
<g>
</g>
<g>
</g>
<g>
</g>
</svg>
