<?xml version="1.0" encoding="iso-8859-1"?>
<!-- Generator: Adobe Illustrator 19.0.0, SVG Export Plug-In . SVG Version: 6.00 Build 0)  -->
<svg version="1.1" id="Layer_1" xmlns="http://www.w3.org/2000/svg" xmlns:xlink="http://www.w3.org/1999/xlink" x="0px" y="0px"
	 viewBox="0 0 512.001 512.001" style="enable-background:new 0 0 512.001 512.001;" xml:space="preserve">
<path style="fill:#E25D56;" d="M90.577,374.819c-10.094,0-20.188,3.839-27.872,11.518c-7.443,7.448-11.542,17.349-11.542,27.876
	c0,10.527,4.099,20.419,11.542,27.867c14.9,14.896,40.848,14.896,55.739,0c7.443-7.448,11.542-17.34,11.542-27.867
	c0-10.527-4.099-20.429-11.542-27.876C110.76,378.659,100.666,374.819,90.577,374.819z"/>
<rect x="284.215" y="146.658" transform="matrix(-0.7071 0.7071 -0.7071 -0.7071 646.0698 163.6499)" style="fill:#DBCF56;" width="9.853" height="137.945"/>
<path style="fill:#E25D56;" d="M195.087,253.96c-7.443,7.448-11.542,17.34-11.542,27.867s4.099,20.429,11.542,27.876
	c15.377,15.358,40.381,15.358,55.739,0c7.443-7.448,11.542-17.349,11.542-27.876s-4.099-20.419-11.542-27.867
	C235.93,239.065,209.983,239.065,195.087,253.96z"/>
<path style="fill:#DBCF56;" d="M306.55,102.704c-1.251,0-2.497,0.481-3.469,1.453c-1.953,1.953-1.934,5.033,0.038,7.005l90.5,90.509
	c1.973,1.973,5.052,1.973,7.005,0.038c1.953-1.953,1.939-5.042-0.034-7.015l-90.505-90.5
	C309.09,103.204,307.815,102.704,306.55,102.704z"/>
<g>
	<path style="fill:#314E55;" d="M48.772,372.404c-11.167,11.172-17.316,26.019-17.316,41.81c0,12.45,3.875,24.284,10.966,34.217
		L0,490.857l13.933,13.933l42.422-42.426c9.936,7.094,21.769,10.97,34.216,10.97c15.795,0,30.638-6.149,41.805-17.32
		c11.167-11.162,17.316-26.01,17.316-41.8s-6.149-30.638-17.316-41.81C109.331,349.339,71.818,349.377,48.772,372.404z
		 M118.444,442.081c-14.891,14.896-40.838,14.896-55.739,0c-7.443-7.448-11.542-17.34-11.542-27.867
		c0-10.527,4.099-20.429,11.542-27.876c7.683-7.679,17.778-11.518,27.872-11.518c10.089,0,20.183,3.839,27.867,11.518
		c7.443,7.448,11.542,17.349,11.542,27.876C129.986,424.741,125.887,434.633,118.444,442.081z"/>
	<path style="fill:#314E55;" d="M222.959,222.706c-15.795,0-30.638,6.149-41.805,17.32c-11.167,11.162-17.316,26.01-17.316,41.8
		c0,15.791,6.149,30.638,17.316,41.81c11.523,11.528,26.664,17.282,41.8,17.282c15.141,0,30.282-5.764,41.805-17.282
		c11.167-11.172,17.316-26.019,17.316-41.81c0-15.791-6.149-30.638-17.316-41.8C253.592,228.855,238.749,222.706,222.959,222.706z
		 M250.826,309.704c-15.358,15.358-40.362,15.358-55.739,0c-7.443-7.448-11.542-17.349-11.542-27.876s4.099-20.419,11.542-27.867
		c14.896-14.896,40.843-14.896,55.739,0c7.443,7.448,11.542,17.34,11.542,27.867S258.269,302.256,250.826,309.704z"/>
	<path style="fill:#314E55;" d="M250.826,142.484c-3.849-3.849-10.085-3.849-13.933,0l-20.905,20.9
		c-1.848,1.848-2.887,4.349-2.887,6.967s1.039,5.119,2.887,6.967l111.482,111.477c1.924,1.924,4.446,2.887,6.967,2.887
		c2.521,0,5.042-0.962,6.967-2.887l20.9-20.9c3.849-3.849,3.849-10.085,0-13.933L250.826,142.484z M334.436,267.894l-97.544-97.543
		l6.967-6.967l97.544,97.544L334.436,267.894z"/>
	<path style="fill:#314E55;" d="M118.444,316.67c-3.849-3.849-10.085-3.849-13.933,0c-3.849,3.849-3.849,10.085,0,13.933
		l69.672,69.677c1.924,1.924,4.446,2.887,6.967,2.887c2.521,0,5.042-0.962,6.967-2.887c3.849-3.849,3.849-10.085,0-13.933
		L118.444,316.67z"/>
	<path style="fill:#314E55;" d="M139.344,295.761c-3.849-3.849-10.085-3.849-13.933,0c-3.849,3.849-3.849,10.085,0,13.933
		l69.677,69.677c1.924,1.924,4.446,2.887,6.967,2.887s5.042-0.962,6.967-2.887c3.849-3.849,3.849-10.085,0-13.933L139.344,295.761z"
		/>
	<path style="fill:#314E55;" d="M292.631,142.484c-3.849-3.849-10.085-3.849-13.933,0s-3.849,10.085,0,13.933l69.672,69.677
		c1.924,1.924,4.446,2.887,6.967,2.887s5.042-0.962,6.967-2.887c3.849-3.849,3.849-10.085,0-13.933L292.631,142.484z"/>
	<path style="fill:#314E55;" d="M494.684,10.097c-3.849-3.849-10.085-3.849-13.933,0s-3.849,10.085,0,13.933
		c7.443,7.448,11.542,17.349,11.542,27.876c0,10.527-4.099,20.419-11.542,27.867c-14.896,14.896-40.843,14.896-55.739,0
		c-0.004-0.004-0.01-0.005-0.015-0.01L411.074,65.84l-55.735,55.74l-31.319-31.318c-9.632-9.632-25.278-9.642-34.872-0.038
		c-9.603,9.603-9.589,25.249,0.038,34.872l90.5,90.509c4.816,4.821,11.143,7.227,17.47,7.227c6.303,0,12.606-2.396,17.407-7.188
		c9.603-9.613,9.584-25.259-0.038-34.882l-45.251-45.249l41.805-41.809l0.001,0.002c11.167,11.172,26.01,17.32,41.8,17.32
		c15.795,0,30.638-6.149,41.805-17.32c11.167-11.162,17.316-26.01,17.316-41.8S505.851,21.268,494.684,10.097z M400.624,201.71
		c-1.953,1.934-5.033,1.934-7.005-0.038l-90.5-90.509c-1.973-1.973-1.992-5.052-0.038-7.005c0.972-0.972,2.218-1.453,3.469-1.453
		c1.265,0,2.54,0.5,3.536,1.492l90.505,90.5C402.563,196.668,402.578,199.757,400.624,201.71z"/>
</g>
<g>
</g>
<g>
</g>
<g>
</g>
<g>
</g>
<g>
</g>
<g>
</g>
<g>
</g>
<g>
</g>
<g>
</g>
<g>
</g>
<g>
</g>
<g>
</g>
<g>
</g>
<g>
</g>
<g>
</g>
</svg>
