<?xml version="1.0" encoding="iso-8859-1"?>
<!-- Generator: Adobe Illustrator 19.0.0, SVG Export Plug-In . SVG Version: 6.00 Build 0)  -->
<svg version="1.1" id="Layer_1" xmlns="http://www.w3.org/2000/svg" xmlns:xlink="http://www.w3.org/1999/xlink" x="0px" y="0px"
	 viewBox="0 0 512 512" style="enable-background:new 0 0 512 512;" xml:space="preserve">
<g>
	<path style="fill:#5ECC66;" d="M381.518,301.118l-95.791,83.847c-2.874,2.522-7.041,3.001-10.421,1.211
		c-3.399-1.799-5.324-5.504-4.854-9.31l9.963-80.878c-1.966,0.078-3.93,0.183-5.905,0.183c-3.568,0-7.117-0.137-10.646-0.387
		l-33.842,85.61c-1.211,3.073-3.959,5.26-7.222,5.749c-3.236,0.524-6.535-0.777-8.595-3.353l-55.216-68.701l-12.817,4.049
		c11.244,17.752,34.003,55.442,48.238,90.954c11.949,29.782,15.673,56.951,17.67,71.548c0.226,1.654,0.47,3.408,0.687,4.881
		c8.912,2.214,33.406,4.98,55.333,6.688c5.658-5.839,21.503-24.765,41.062-70.274c19.978-46.488,61.921-96.014,82.889-119.132
		C388.475,303.119,384.958,302.232,381.518,301.118z"/>
	<path style="fill:#5ECC66;" d="M412.537,148.185c-4.673-0.253-8.424-3.959-8.731-8.641
		c-4.402-67.87-61.199-121.034-129.295-121.034c-69.569,0-126.43,54.393-129.448,123.826c-0.118,2.82-1.518,5.423-3.787,7.077
		c-2.287,1.654-5.17,2.187-7.9,1.455c-6.761-1.844-13.765-2.784-20.834-2.784c-43.375,0-78.671,35.295-78.671,78.671
		s35.295,78.671,78.671,78.671c31.725,0,60.187-18.89,72.524-48.121c1.094-2.594,3.308-4.546,6.02-5.315
		c2.712-0.741,5.622-0.244,7.909,1.392c18.388,13.219,39.58,21.165,61.914,23.487l29.862-0.954c0.933-0.092,1.853,0.062,2.752,0.315
		c17.245-2.546,33.834-8.508,48.749-17.669c3.986-2.467,9.183-1.537,12.084,2.124c8.215,10.32,18.944,17.898,30.971,22.187
		l21.278,3.924c0.706,0.021,1.398,0.118,2.108,0.118c38.278,0,69.415-31.137,69.415-69.415
		C478.129,180.633,449.323,150.192,412.537,148.185z M134.75,208.01c-4.492,2.477-10.096,0.859-12.591-3.606
		c-4.863-8.785-14.543-13.106-21.114-9.454c-2.965,1.636-5.007,4.718-5.767,8.677c-0.859,4.519,0.09,9.707,2.603,14.235
		c2.477,4.474,0.859,10.105-3.606,12.591c-1.428,0.786-2.964,1.157-4.483,1.157c-3.254,0-6.408-1.717-8.107-4.763
		c-4.637-8.379-6.273-17.86-4.583-26.691c1.799-9.445,7.113-17.047,14.968-21.403c15.627-8.641,36.389-1.184,46.286,16.667
		C140.832,199.894,139.214,205.525,134.75,208.01z M251.517,189.066c-4.465,2.467-10.096,0.859-12.581-3.615
		c-3.706-6.688-9.4-11.687-16.034-14.073c-6.191-2.232-12.464-1.88-17.661,1.012c-11.162,6.173-14.199,22.108-6.779,35.503
		c2.477,4.474,0.859,10.105-3.615,12.581c-1.419,0.786-2.955,1.157-4.474,1.157c-3.254,0-6.417-1.717-8.107-4.772
		c-12.365-22.325-6.083-49.54,14.001-60.666c9.924-5.522,21.611-6.291,32.909-2.232c10.855,3.914,20.074,11.904,25.958,22.524
		C257.609,180.949,255.991,186.58,251.517,189.066z M304.094,80.623c-3.263,3.923-9.093,4.438-13.033,1.139
		c-11.361-9.518-25.714-14.055-40.537-12.771c-14.778,1.293-28.164,8.261-37.69,19.623c-1.835,2.187-4.456,3.308-7.104,3.308
		c-2.097,0-4.203-0.714-5.938-2.16c-3.914-3.29-4.429-9.129-1.148-13.042c12.717-15.148,30.568-24.449,50.272-26.166
		c19.668-1.762,38.892,4.32,54.041,17.037C306.868,70.87,307.384,76.709,304.094,80.623z M330.043,240.639
		c-5.116,0-9.255-4.14-9.255-9.255c0-5.116,4.14-9.255,9.255-9.255c25.515,0,46.277-18.682,46.277-41.649
		s-20.761-41.649-46.277-41.649c-5.116,0-9.255-4.14-9.255-9.255s4.14-9.255,9.255-9.255c35.72,0,64.788,26.989,64.788,60.16
		S365.763,240.639,330.043,240.639z M439.3,252.959c-1.419,0.786-2.955,1.157-4.474,1.157c-3.254,0-6.417-1.717-8.107-4.772
		c-2.504-4.528-6.408-8.08-10.692-9.743c-3.76-1.446-7.457-1.365-10.421,0.289c-4.456,2.467-10.105,0.868-12.581-3.615
		c-2.477-4.465-0.859-10.105,3.615-12.581c7.737-4.284,17.254-4.772,26.076-1.347c8.388,3.245,15.555,9.653,20.201,18.032
		C445.392,244.851,443.773,250.482,439.3,252.959z"/>
</g>
<g>
	<path style="fill:#314E55;" d="M496.639,217.501c0-43.99-32.376-80.758-75.082-86.995C412.826,56.716,349.693,0,274.511,0
		c-75.85,0-138.487,56.59-147.082,130.714c-4.908-0.759-9.888-1.139-14.886-1.139c-53.589,0-97.181,43.592-97.181,97.181
		s43.592,97.181,97.181,97.181c4.748,0,9.421-0.397,14.022-1.064c8.136,12.548,35.128,55.356,50.675,94.105
		c11.09,27.667,14.615,53.372,16.504,67.174c1.302,9.499,1.735,12.699,4.528,15.555c2.368,2.431,7.294,7.502,72.479,12.265
		c0.226,0.018,0.452,0.027,0.678,0.027c1.998,0,3.959-0.651,5.568-1.862c2.242-1.681,22.686-18.267,49.178-79.9
		c23.252-54.123,80.479-115.229,90.009-125.19C461.175,301.236,496.639,263.461,496.639,217.501z M309.164,422.935
		c-19.559,45.509-35.404,64.435-41.062,70.274c-21.927-1.708-46.421-4.474-55.333-6.688c-0.217-1.473-0.461-3.227-0.687-4.881
		c-1.998-14.597-5.721-41.767-17.67-71.548c-14.235-35.512-36.994-73.202-48.238-90.954l12.817-4.049l55.216,68.701
		c2.061,2.576,5.36,3.878,8.595,3.353c3.263-0.488,6.01-2.675,7.222-5.749l33.842-85.61c3.529,0.25,7.077,0.387,10.646,0.387
		c1.974,0,3.938-0.105,5.905-0.183l-9.963,80.878c-0.47,3.805,1.455,7.511,4.854,9.31c3.38,1.79,7.547,1.311,10.421-1.211
		l95.791-83.847c3.439,1.114,6.956,2.001,10.535,2.685C371.085,326.922,329.142,376.448,309.164,422.935z M172.923,302.89
		c9.737-7.723,18.06-17.306,24.327-28.447c14.77,9.064,30.876,15.363,47.733,18.766l-26.321,66.584L172.923,302.89z
		 M345.155,278.266c5.373,5.634,11.452,10.379,17.971,14.345l-71.343,62.446l7.515-61.024
		C315.329,291.322,330.83,286.049,345.155,278.266z M408.713,286.916c-0.71,0-1.402-0.097-2.108-0.118l-21.278-3.924
		c-12.027-4.289-22.755-11.867-30.971-22.187c-2.901-3.66-8.098-4.592-12.084-2.124c-14.915,9.161-31.505,15.123-48.749,17.669
		c-0.899-0.253-1.819-0.407-2.752-0.315l-29.862,0.954c-22.335-2.322-43.527-10.268-61.914-23.487
		c-2.287-1.636-5.197-2.133-7.909-1.392c-2.712,0.768-4.926,2.721-6.02,5.315c-12.337,29.23-40.799,48.12-72.524,48.12
		c-43.375,0-78.671-35.295-78.671-78.671s35.295-78.671,78.671-78.671c7.068,0,14.073,0.94,20.834,2.784
		c2.73,0.732,5.613,0.199,7.9-1.455c2.269-1.654,3.67-4.257,3.787-7.077c3.019-69.433,59.88-123.826,129.448-123.826
		c68.096,0,124.893,53.164,129.295,121.034c0.307,4.682,4.058,8.388,8.731,8.641c36.787,2.007,65.592,32.448,65.592,69.316
		C478.129,255.779,446.991,286.916,408.713,286.916z"/>
	<path style="fill:#314E55;" d="M330.043,120.32c-5.116,0-9.255,4.14-9.255,9.255s4.14,9.255,9.255,9.255
		c25.515,0,46.277,18.682,46.277,41.649s-20.761,41.649-46.277,41.649c-5.116,0-9.255,4.14-9.255,9.255
		c0,5.116,4.14,9.255,9.255,9.255c35.72,0,64.788-26.989,64.788-60.16S365.763,120.32,330.043,120.32z"/>
	<path style="fill:#314E55;" d="M229.174,153.961c-11.298-4.058-22.985-3.29-32.909,2.232
		c-20.083,11.126-26.365,38.341-14.001,60.666c1.69,3.055,4.854,4.772,8.107,4.772c1.518,0,3.055-0.371,4.474-1.157
		c4.474-2.477,6.092-8.107,3.615-12.581c-7.42-13.395-4.384-29.33,6.779-35.503c5.197-2.892,11.47-3.245,17.661-1.012
		c6.634,2.386,12.328,7.384,16.034,14.073c2.486,4.474,8.116,6.083,12.581,3.615c4.474-2.486,6.092-8.116,3.615-12.581
		C249.248,165.864,240.029,157.874,229.174,153.961z"/>
	<path style="fill:#314E55;" d="M92.07,178.753c-7.854,4.356-13.169,11.958-14.968,21.403c-1.69,8.831-0.054,18.312,4.583,26.691
		c1.699,3.046,4.854,4.763,8.107,4.763c1.518,0,3.055-0.371,4.483-1.157c4.465-2.486,6.083-8.116,3.606-12.591
		c-2.513-4.528-3.462-9.716-2.603-14.235c0.759-3.959,2.802-7.041,5.767-8.677c6.571-3.651,16.251,0.669,21.114,9.454
		c2.495,4.465,8.098,6.083,12.591,3.606c4.465-2.486,6.083-8.116,3.606-12.591C128.459,177.569,107.697,170.112,92.07,178.753z"/>
	<path style="fill:#314E55;" d="M422.714,222.346c-8.822-3.426-18.339-2.937-26.076,1.347c-4.474,2.477-6.092,8.116-3.615,12.581
		c2.477,4.483,8.126,6.083,12.581,3.615c2.965-1.654,6.661-1.735,10.421-0.289c4.284,1.663,8.189,5.215,10.692,9.743
		c1.69,3.055,4.854,4.772,8.107,4.772c1.518,0,3.055-0.371,4.474-1.157c4.474-2.476,6.092-8.107,3.615-12.581
		C438.269,231.998,431.102,225.59,422.714,222.346z"/>
	<path style="fill:#314E55;" d="M248.914,50.552c-19.704,1.717-37.555,11.018-50.272,26.166c-3.281,3.914-2.766,9.752,1.148,13.042
		c1.735,1.446,3.841,2.16,5.938,2.16c2.648,0,5.269-1.121,7.104-3.308c9.527-11.361,22.912-18.33,37.69-19.623
		c14.823-1.283,29.176,3.254,40.537,12.771c3.941,3.299,9.771,2.784,13.033-1.139c3.29-3.914,2.775-9.752-1.139-13.033
		C287.806,54.872,268.582,48.789,248.914,50.552z"/>
</g>
<g>
</g>
<g>
</g>
<g>
</g>
<g>
</g>
<g>
</g>
<g>
</g>
<g>
</g>
<g>
</g>
<g>
</g>
<g>
</g>
<g>
</g>
<g>
</g>
<g>
</g>
<g>
</g>
<g>
</g>
</svg>
