<?xml version="1.0" encoding="iso-8859-1"?>
<!-- Generator: Adobe Illustrator 19.0.0, SVG Export Plug-In . SVG Version: 6.00 Build 0)  -->
<svg version="1.1" id="Layer_1" xmlns="http://www.w3.org/2000/svg" xmlns:xlink="http://www.w3.org/1999/xlink" x="0px" y="0px"
	 viewBox="0 0 512 512" style="enable-background:new 0 0 512 512;" xml:space="preserve">
<path style="fill:#F28544;" d="M56.77,318.81l230.62-22.945c1.19-0.14,2.47-0.02,3.67,0.3l77.76,20.94l62.5-30.385H52.7
	L56.77,318.81z"/>
<g>
	<path style="fill:#E9E7D1;" d="M254.87,81.92c-82.64,0-157.89,44.685-192.2,112.64h384.41C412.76,126.605,337.5,81.92,254.87,81.92
		z M122.88,184.32H102.4v-20.48h20.48V184.32z M163.84,143.36h-20.48v-20.48h20.48V143.36z M194.56,174.08h-20.48V153.6h20.48
		V174.08z M245.76,122.88h-20.48V102.4h20.48V122.88z M327.68,184.32H307.2v-20.48h20.48V184.32z M368.64,153.6h-20.48v-20.48h20.48
		V153.6z"/>
	<path style="fill:#E9E7D1;" d="M476.2,399.36H35.8c-8.45,0-15.32,6.89-15.32,15.36s6.87,15.36,15.32,15.36h440.4
		c8.45,0,15.32-6.89,15.32-15.36S484.65,399.36,476.2,399.36z"/>
</g>
<g>
	<path style="fill:#314E55;" d="M476.2,378.88H35.8c-19.74,0-35.8,16.08-35.8,35.84c0,19.76,16.06,35.84,35.8,35.84h440.4
		c19.74,0,35.8-16.08,35.8-35.84C512,394.96,495.94,378.88,476.2,378.88z M476.2,430.08H35.8c-8.45,0-15.32-6.89-15.32-15.36
		s6.87-15.36,15.32-15.36h440.4c8.45,0,15.32,6.89,15.32,15.36S484.65,430.08,476.2,430.08z"/>
	<rect x="30.72" y="348.16" style="fill:#314E55;" width="450.56" height="20.48"/>
	<rect x="30.72" y="227.154" style="fill:#314E55;" width="450.56" height="20.48"/>
	<path style="fill:#314E55;" d="M41.08,266.24c-2.94,0-5.74,1.265-7.68,3.47c-1.95,2.205-2.85,5.14-2.48,8.055l6.78,53.505
		c0.66,5.165,5.05,8.955,10.15,8.955c0.34,0,0.68-0.015,1.02-0.05l238.68-23.745l79.64,21.45c2.38,0.645,4.92,0.405,7.14-0.68
		l105.95-51.51c4.29-2.085,6.57-6.86,5.5-11.505c-1.07-4.65-5.21-7.945-9.98-7.945H41.08z M368.82,317.105l-77.76-20.94
		c-1.2-0.32-2.48-0.44-3.67-0.3L56.77,318.81l-4.07-32.09h378.62L368.82,317.105z"/>
	<path style="fill:#314E55;" d="M46.8,215.04h416.15c3.4,0,6.58-1.69,8.49-4.51c1.9-2.82,2.28-6.405,1.01-9.56
		c-33.66-83.455-121.1-139.53-217.58-139.53S70.95,117.515,37.3,200.97c-1.27,3.155-0.89,6.74,1.01,9.56
		C40.22,213.35,43.4,215.04,46.8,215.04z M254.87,81.92c82.63,0,157.89,44.685,192.21,112.64H62.67
		C96.98,126.605,172.23,81.92,254.87,81.92z"/>
	<rect x="102.4" y="163.84" style="fill:#314E55;" width="20.48" height="20.48"/>
	<rect x="143.36" y="122.88" style="fill:#314E55;" width="20.48" height="20.48"/>
	<rect x="174.08" y="153.6" style="fill:#314E55;" width="20.48" height="20.48"/>
	<rect x="225.28" y="102.4" style="fill:#314E55;" width="20.48" height="20.48"/>
	<rect x="307.2" y="163.84" style="fill:#314E55;" width="20.48" height="20.48"/>
	<rect x="348.16" y="133.12" style="fill:#314E55;" width="20.48" height="20.48"/>
</g>
<g>
</g>
<g>
</g>
<g>
</g>
<g>
</g>
<g>
</g>
<g>
</g>
<g>
</g>
<g>
</g>
<g>
</g>
<g>
</g>
<g>
</g>
<g>
</g>
<g>
</g>
<g>
</g>
<g>
</g>
</svg>
