<?xml version="1.0" encoding="iso-8859-1"?>
<!-- Generator: Adobe Illustrator 19.0.0, SVG Export Plug-In . SVG Version: 6.00 Build 0)  -->
<svg version="1.1" id="Layer_1" xmlns="http://www.w3.org/2000/svg" xmlns:xlink="http://www.w3.org/1999/xlink" x="0px" y="0px"
	 viewBox="0 0 512 512" style="enable-background:new 0 0 512 512;" xml:space="preserve">
<path style="fill:#EAEAEA;" d="M226.109,42.844c-13.384-23.206-43.142-31.198-66.33-17.806L41.102,93.561l148.463,257.145
	l160.713-92.789L226.109,42.844z M199.377,98.608c-5.102,2.945-10.684,4.34-16.184,4.34c-11.236,0-22.173-5.826-28.181-16.229
	c-4.34-7.512-5.491-16.265-3.244-24.638c2.247-8.382,7.621-15.386,15.133-19.727c15.504-8.944,35.394-3.634,44.365,11.889
	C220.21,69.747,214.882,89.647,199.377,98.608z"/>
<polygon style="fill:#F28544;" points="367.929,344.155 367.917,344.16 351.854,353.434 430.725,490.044 470.903,466.847 
	392.033,330.238 "/>
<polygon style="fill:#EAEAEA;" points="382.754,314.162 359.557,273.993 354.966,276.643 343.49,283.271 366.687,323.438 
	379.54,316.018 "/>
<g>
	<path style="fill:#314E55;" d="M166.901,42.355c-7.512,4.34-12.885,11.345-15.133,19.727c-2.247,8.373-1.097,17.126,3.244,24.638
		c6.008,10.403,16.945,16.229,28.181,16.229c5.5,0,11.082-1.396,16.184-4.34c15.504-8.962,20.832-28.861,11.889-44.365
		C202.295,38.721,182.405,33.411,166.901,42.355z M190.099,82.533c-3.226,1.858-6.986,2.338-10.566,1.396
		c-3.588-0.961-6.588-3.262-8.445-6.488c-1.858-3.217-2.356-6.968-1.396-10.557c0.961-3.597,3.262-6.597,6.488-8.454
		c2.184-1.269,4.576-1.867,6.932-1.867c4.812,0,9.506,2.501,12.079,6.959C199.024,70.164,196.741,78.7,190.099,82.533z"/>
	<path style="fill:#314E55;" d="M491.618,465.605l-88.15-152.685l-32.476-56.244L242.184,33.565
		C223.662,1.506,182.532-9.522,150.5,8.963L23.785,82.126c-4.44,2.564-5.962,8.237-3.398,12.677l157.741,273.22
		c1.232,2.13,3.262,3.688,5.636,4.322c0.788,0.208,1.595,0.317,2.401,0.317c1.613,0,3.217-0.426,4.639-1.242l136.611-78.872
		l23.194,40.17l-16.073,9.279c-2.129,1.232-3.688,3.262-4.322,5.636s-0.308,4.911,0.924,7.041l88.15,152.685
		c1.722,2.981,4.839,4.639,8.047,4.639c1.577,0,3.172-0.399,4.63-1.242l56.253-32.476c2.129-1.232,3.688-3.262,4.322-5.636
		C493.177,470.272,492.85,467.735,491.618,465.605z M189.564,350.706L41.102,93.561l118.678-68.523
		c23.188-13.393,52.946-5.401,66.33,17.806l124.169,215.073L189.564,350.706z M343.49,283.271l11.476-6.628l4.591-2.651
		l23.197,40.169l-3.214,1.856l-12.854,7.421L343.49,283.271z M430.725,490.044l-78.871-136.61l16.062-9.274
		c0.004-0.002,0.009-0.003,0.013-0.005l24.104-13.917l78.87,136.609L430.725,490.044z"/>
</g>
<g>
</g>
<g>
</g>
<g>
</g>
<g>
</g>
<g>
</g>
<g>
</g>
<g>
</g>
<g>
</g>
<g>
</g>
<g>
</g>
<g>
</g>
<g>
</g>
<g>
</g>
<g>
</g>
<g>
</g>
</svg>
