<?xml version="1.0" encoding="iso-8859-1"?>
<!-- Generator: Adobe Illustrator 19.0.0, SVG Export Plug-In . SVG Version: 6.00 Build 0)  -->
<svg version="1.1" id="Layer_1" xmlns="http://www.w3.org/2000/svg" xmlns:xlink="http://www.w3.org/1999/xlink" x="0px" y="0px"
	 viewBox="0 0 512 512" style="enable-background:new 0 0 512 512;" xml:space="preserve">
<g>
	<path style="fill:#D26CBA;" d="M148.504,250.337c-0.179-4.87,3.469-9.024,8.317-9.481l72.419-6.724l7.834-59.885
		c0.501-3.823,3.339-6.92,7.1-7.762l71.713-15.963c-42.889-34.773-90.897-53.555-131.835-53.555c-27.257,0-51.362,8.29-68.73,25.659
		C69.833,168.118,86.66,259.875,151.62,333.127L148.504,250.337z"/>
	<path style="fill:#D26CBA;" d="M108.913,104.025c-0.131-0.271-0.358-0.465-0.463-0.755L81.811,30.171L68.498,51.935
		c-1.603,2.623-4.418,4.271-7.489,4.378l-34.011,1.236l15.739,44.88c1.486,4.244-0.327,8.944-4.279,11.092l-5.014,2.722
		l51.505,14.369c0.477,0.133,0.832,0.445,1.268,0.645c4.385-7.853,9.687-15.14,16.141-21.595
		C104.415,107.605,106.703,105.87,108.913,104.025z"/>
</g>
<path style="fill:#EA86A5;" d="M218.546,299.094l72.719-14.817l1.056-68.659c0.058-3.626,2.247-6.885,5.591-8.299l51.662-21.898
	l-18.586-19.472l-76.564,17.046l-7.95,60.78c-0.555,4.244-3.979,7.538-8.246,7.941l-71.076,6.598l3.5,92.974l24.029,20.063
	l16.813-65.552C212.369,302.397,215.108,299.792,218.546,299.094z"/>
<g>
	<path style="fill:#D26CBA;" d="M409.782,294.984c-6.677-32.49-22.719-65.531-46.066-95.649l-53.153,22.531l-1.079,70.064
		c-0.067,4.306-3.12,7.977-7.337,8.836l-74.317,15.139l-17.471,68.131c65.943,43.086,138.422,49.661,177.224,10.859
		C410.44,372.041,418.322,336.552,409.782,294.984z"/>
	<path style="fill:#D26CBA;" d="M405.819,401.763c-1.739,2.047-3.359,4.185-5.272,6.097c-6.29,6.289-13.384,11.462-21.005,15.785
		c0.821,0.975,1.481,2.102,1.846,3.41l14.369,51.496l2.717-5.005c2.153-3.957,6.858-5.766,11.088-4.279l44.889,15.73l1.227-34.011
		c0.112-3.071,1.755-5.882,4.382-7.493l21.764-13.304l-73.09-26.643C407.618,403.138,406.657,402.506,405.819,401.763z"/>
</g>
<path style="fill:#314E55;" d="M505.97,419.473l-89.535-32.633c14.759-25.739,18.876-58.697,11.306-95.544
	c-9.539-46.429-36.465-93.673-75.812-133.011c-72.468-72.479-168.011-97.927-227.601-64.998l-31.8-87.262
	c-1.204-3.304-4.199-5.631-7.699-5.98c-3.532-0.34-6.907,1.343-8.733,4.342L55.427,38.174L13.9,39.679
	c-2.914,0.099-5.6,1.585-7.243,3.993c-1.643,2.408-2.041,5.452-1.079,8.201l17.27,49.258l-18.053,9.803
	c-3.281,1.782-5.157,5.381-4.736,9.087c0.421,3.715,3.048,6.795,6.647,7.798l72.023,20.087
	c-20.893,59.716,6.054,145.141,72.247,211.333c51.465,51.469,114.582,79.268,168.195,79.259c15.846,0,30.851-2.448,44.488-7.412
	c0.052,0.301-0.019,0.594,0.065,0.894l20.457,73.314c1.007,3.599,4.091,6.231,7.802,6.652c0.345,0.036,0.689,0.054,1.034,0.054
	c3.33,0,6.437-1.817,8.053-4.799l9.794-18.049l49.267,17.261c2.74,0.976,5.792,0.555,8.196-1.074
	c2.408-1.647,3.89-4.333,3.997-7.243l1.5-41.523l33.788-20.663c3.004-1.844,4.691-5.237,4.342-8.738
	C511.605,423.671,509.278,420.681,505.97,419.473z M170.653,351.288l-3.5-92.974l71.076-6.598c4.266-0.403,7.69-3.698,8.246-7.941
	l7.95-60.78l76.564-17.046l18.586,19.472l-51.662,21.898c-3.344,1.415-5.533,4.673-5.591,8.299l-1.056,68.659l-72.719,14.817
	c-3.438,0.698-6.177,3.304-7.05,6.706l-16.813,65.552L170.653,351.288z M84.949,130.612l-51.505-14.369l5.014-2.722
	c3.953-2.149,5.766-6.849,4.279-11.092l-15.739-44.88l34.011-1.236c3.071-0.107,5.887-1.755,7.489-4.378l13.313-21.764
	l26.639,73.099c0.106,0.289,0.332,0.483,0.463,0.755c-2.21,1.845-4.498,3.58-6.556,5.637c-6.454,6.454-11.756,13.742-16.141,21.595
	C85.781,131.057,85.425,130.745,84.949,130.612z M115.321,122.626c17.368-17.368,41.474-25.659,68.73-25.659
	c40.939,0,88.947,18.782,131.835,53.555l-71.713,15.963c-3.76,0.842-6.598,3.939-7.1,7.762l-7.834,59.885l-72.419,6.724
	c-4.848,0.457-8.496,4.611-8.317,9.481l3.116,82.79C86.66,259.875,69.833,168.118,115.321,122.626z M210.359,384.038l17.471-68.131
	l74.317-15.139c4.217-0.859,7.27-4.53,7.337-8.836l1.079-70.064l53.153-22.531c23.347,30.118,39.389,63.159,46.066,95.649
	c8.541,41.568,0.658,77.056-22.198,99.913C348.781,433.699,276.301,427.124,210.359,384.038z M460.06,443.493
	c-2.628,1.611-4.271,4.423-4.382,7.493l-1.227,34.011l-44.889-15.73c-4.23-1.486-8.935,0.322-11.088,4.279l-2.717,5.005
	l-14.369-51.496c-0.365-1.308-1.025-2.435-1.846-3.41c7.621-4.323,14.715-9.496,21.005-15.785c1.913-1.913,3.533-4.05,5.272-6.097
	c0.838,0.743,1.799,1.375,2.915,1.782l73.09,26.643L460.06,443.493z"/>
<g>
</g>
<g>
</g>
<g>
</g>
<g>
</g>
<g>
</g>
<g>
</g>
<g>
</g>
<g>
</g>
<g>
</g>
<g>
</g>
<g>
</g>
<g>
</g>
<g>
</g>
<g>
</g>
<g>
</g>
</svg>
