<?xml version="1.0" encoding="iso-8859-1"?>
<!-- Generator: Adobe Illustrator 19.0.0, SVG Export Plug-In . SVG Version: 6.00 Build 0)  -->
<svg version="1.1" id="Layer_1" xmlns="http://www.w3.org/2000/svg" xmlns:xlink="http://www.w3.org/1999/xlink" x="0px" y="0px"
	 viewBox="0 0 512 512" style="enable-background:new 0 0 512 512;" xml:space="preserve">
<path style="fill:#E65F58;" d="M378.97,133.533c-24.738-22.914-45.712-33.59-56.253-33.59c-1.506,0-2.806,0.215-3.863,0.65
	c-6.112,2.857-21.299,20.9-42.097,48.619l25.175,25.175l-12.979,12.979l-23.243-23.243c-10.687,14.585-22.499,31.13-35.093,49.089
	l25.423,25.423l-12.979,12.979l-23.117-23.116c-17.368,24.98-35.92,52.143-54.845,80.212l16.851,8.425l-8.21,16.42l-18.973-9.488
	c-33.572,50.006-67.753,101.929-97.853,148.336c28.782-18.475,59.679-38.522,90.913-59.033l-18.705-18.705l12.979-12.979
	l21.382,21.382c30.154-19.882,60.34-40.021,88.987-59.444l-22.386-22.386l12.979-12.979l24.858,24.858
	c23.192-15.823,45.095-31.013,64.878-45.046l-29.037-19.358l10.182-15.273l34.826,23.217c45.12-32.498,76.02-57.131,79.607-65.774
	C432.139,199.184,413.2,165.25,378.97,133.533z"/>
<path style="fill:#314E55;" d="M142.317,309.457C87.858,390.535,37.137,469.066,18.632,497.86c-2.33,3.621-1.829,8.38,1.21,11.433
	c1.775,1.784,4.132,2.707,6.507,2.707c1.703,0,3.406-0.471,4.921-1.43c1.004-0.636,101.105-64.284,201.304-131.418
	C437.75,241.674,443.406,224.107,445.817,216.605c7.166-22.289-15.905-55.722-37.954-79.902c0.011-0.025,0.03-0.043,0.04-0.067
	c0.09-0.22,12.064-22.126,77.747-22.126c5.073,0,9.178-4.11,9.178-9.178c0-5.069-4.105-9.178-9.178-9.178
	c-28.399,0-48.361,3.94-62.462,9.11c14.434-20.723,21.796-52.893,21.796-96.084c0-5.069-4.105-9.178-9.178-9.178
	c-5.073,0-9.178,4.11-9.178,9.178c0,98.08-39.904,101.719-40.98,101.79c-1.286,0.022-2.497,0.325-3.603,0.822
	c-18.534-15.594-49.061-36.785-70.128-28.191c-19.249,7.855-93.558,112.965-163.486,216.776L142.317,309.457z M428.375,210.886
	c-3.587,8.643-34.487,33.276-79.607,65.774l-34.826-23.217l-10.182,15.273l29.037,19.358
	c-19.783,14.033-41.686,29.222-64.878,45.046l-24.858-24.858l-12.979,12.979l22.386,22.386
	c-28.648,19.423-58.833,39.562-88.987,59.444l-21.382-21.382l-12.979,12.979l18.705,18.705
	c-31.233,20.511-62.13,40.557-90.913,59.033c30.1-46.407,64.281-98.331,97.853-148.336l18.973,9.488l8.21-16.42l-16.851-8.425
	c18.926-28.068,37.477-55.231,54.845-80.212l23.117,23.116l12.979-12.979l-25.423-25.423c12.594-17.959,24.406-34.504,35.093-49.089
	l23.243,23.243l12.979-12.979l-25.175-25.175c20.799-27.719,35.985-45.762,42.097-48.619c1.058-0.435,2.357-0.65,3.863-0.65
	c10.541,0,31.515,10.675,56.253,33.59C413.2,165.25,432.139,199.184,428.375,210.886z"/>
<g>
</g>
<g>
</g>
<g>
</g>
<g>
</g>
<g>
</g>
<g>
</g>
<g>
</g>
<g>
</g>
<g>
</g>
<g>
</g>
<g>
</g>
<g>
</g>
<g>
</g>
<g>
</g>
<g>
</g>
</svg>
