<?xml version="1.0" encoding="iso-8859-1"?>
<!-- Generator: Adobe Illustrator 19.0.0, SVG Export Plug-In . SVG Version: 6.00 Build 0)  -->
<svg version="1.1" id="Layer_1" xmlns="http://www.w3.org/2000/svg" xmlns:xlink="http://www.w3.org/1999/xlink" x="0px" y="0px"
	 viewBox="0 0 512 512" style="enable-background:new 0 0 512 512;" xml:space="preserve">
<path style="fill:#DBCF56;" d="M360.343,251.545c-3.637,0-8.921,6.952-8.921,17.842c0,10.89,5.284,17.842,8.921,17.842
	s8.921-6.952,8.921-17.842C369.264,258.497,363.98,251.545,360.343,251.545z"/>
<path style="fill:#E4AD40;" d="M193.432,335.675c2.05-25.797,14.802-68.569,21.119-88.552c-5.62,0.493-12.641,0.91-20.701,0.91
	c-15.856,0-35.375-1.594-54.406-7.318c-35.333-10.643-94.871-37.605-112.046-45.503c-4.159,19.817-10.164,53.834-9.511,82.564
	c0.893,39.177,14.348,76.377,16.84,82.946c4.687,6.273,32.913,43.167,56.013,54.754c25.001,12.528,83.9,25.179,108.938,30.203
	C197.136,424.483,190.906,367.405,193.432,335.675z"/>
<g>
	<path style="fill:#DBCF56;" d="M308.534,366.62c-7.344-9.731-15.886-17.781-24.136-22.625c-5.366-3.154-10.319-4.791-14.183-4.791
		c-1.947,0-3.615,0.418-4.922,1.263c-2.561,1.664-4.739,8.032-2.452,20.499c1.851,10.097,6.181,21.562,12.188,32.495L308.534,366.62
		z"/>
	<path style="fill:#DBCF56;" d="M282.285,233.102c1.891-2.047,2.779-11.953,1.019-21.039l-19.597,14.505
		C270.437,232.1,279.737,234.469,282.285,233.102z"/>
</g>
<path style="fill:#E4AD40;" d="M39.644,181.185c21.25,9.67,73.804,33.067,104.941,42.438c33.619,10.123,70.091,5.802,78.503,4.582
	L447.514,77.258L39.644,181.185z"/>
<path style="fill:#DBCF56;" d="M437.709,155.549c-0.684-0.296-1.451-0.436-2.282-0.436c-2.23,0-4.922,1.028-7.719,2.979
	c-5.083,3.563-9.74,9.705-12.776,16.857c-3.036,7.152-4.216,14.767-3.245,20.891c0.732,4.635,2.592,7.902,5.105,8.964
	c0,0,0,0,0.004,0.009c2.505,1.054,6.151,0.131,9.997-2.553c5.083-3.563,9.74-9.705,12.776-16.858
	c3.036-7.152,4.216-14.767,3.245-20.891C442.083,159.878,440.223,156.612,437.709,155.549z"/>
<path style="fill:#E4AD40;" d="M298.116,199.247c2.584,6.75,4.031,14.949,3.958,23.087c-0.065,7.484-1.568,20.856-10.872,26.223
	c-3.088,1.786-6.839,2.675-10.994,2.675c-4.717,0-9.958-1.141-15.355-3.424c-7.495-3.169-13.956-8.045-18.543-13.717l-11.296,7.597
	c-0.025,0.079-0.003,0.159-0.03,0.239c-0.209,0.636-21.253,63.579-23.762,95.16c-2.242,28.131,3.066,79.619,5.738,102.677
	l44.26-34.489c-17.896-30.807-24.725-67.378-5.641-79.775c17.89-11.592,46.174,1.802,67.877,31.278l170.563-132.911l-4.825-153.135
	L298.116,199.247z M360.343,305.071c-15.006,0-26.763-15.673-26.763-35.684s11.757-35.684,26.763-35.684
	s26.763,15.673,26.763,35.684S375.35,305.071,360.343,305.071z M437.025,216.872c-5.85,4.094-12.088,6.203-18.021,6.203
	c-3.189,0-6.286-0.61-9.187-1.847c-8.294-3.52-14.039-11.752-15.756-22.59c-1.503-9.479,0.079-20.368,4.447-30.657
	c4.369-10.297,11.103-19.001,18.966-24.498c8.999-6.29,18.914-7.893,27.207-4.356c8.294,3.511,14.035,11.752,15.756,22.59
	c1.503,9.479-0.078,20.368-4.447,30.657C451.622,202.671,444.888,211.374,437.025,216.872z"/>
<g>
	<path style="fill:#314E55;" d="M506.55,55.005c-0.087-2.709-1.394-5.227-3.555-6.848c-2.165-1.629-4.953-2.213-7.566-1.516
		L20.349,167.693c-3.154,0.802-5.619,3.258-6.434,6.412c-0.61,2.361-14.906,58.274-13.861,104.072
		c1.046,46.182,17.798,88.434,18.508,90.212c0.274,0.688,0.632,1.333,1.067,1.925c1.377,1.899,34.085,46.556,63.113,61.105
		c34.268,17.18,121.648,33.401,125.351,34.081c0.536,0.096,1.076,0.148,1.616,0.148c1.973,0,3.903-0.653,5.484-1.882
		l293.368-228.608c2.248-1.751,3.524-4.469,3.433-7.318L506.55,55.005z M282.285,233.102c-2.548,1.368-11.848-1.002-18.578-6.534
		l19.597-14.505C285.064,221.149,284.175,231.055,282.285,233.102z M223.088,228.206c-8.411,1.22-44.884,5.541-78.503-4.582
		c-31.136-9.371-83.69-32.769-104.941-42.438l407.87-103.927L223.088,228.206z M34.728,360.722
		c-2.492-6.569-15.947-43.768-16.84-82.946c-0.653-28.73,5.351-62.747,9.511-82.564c17.175,7.898,76.713,34.861,112.046,45.503
		c19.031,5.724,38.55,7.318,54.406,7.318c8.06,0,15.081-0.418,20.701-0.91c-6.317,19.983-19.069,62.755-21.119,88.552
		c-2.526,31.729,3.704,88.808,6.246,110.004c-25.038-5.023-83.936-17.675-108.938-30.203
		C67.641,403.89,39.415,366.995,34.728,360.722z M265.292,340.467c1.307-0.845,2.975-1.263,4.922-1.263
		c3.864,0,8.816,1.638,14.183,4.791c8.25,4.844,16.792,12.893,24.136,22.625l-33.506,26.841
		c-6.007-10.933-10.337-22.398-12.188-32.495C260.553,348.499,262.731,342.131,265.292,340.467z M323.455,356.778
		c-21.702-29.476-49.986-42.87-67.877-31.278c-19.084,12.397-12.255,48.967,5.641,79.775l-44.26,34.489
		c-2.672-23.058-7.98-74.546-5.738-102.677c2.509-31.581,23.552-94.524,23.762-95.16c0.027-0.079,0.005-0.159,0.03-0.239
		l11.296-7.597c4.587,5.672,11.049,10.548,18.543,13.717c5.397,2.282,10.637,3.424,15.355,3.424c4.156,0,7.906-0.889,10.994-2.675
		c9.304-5.366,10.807-18.739,10.872-26.223c0.073-8.138-1.374-16.337-3.958-23.087L489.194,70.732l4.825,153.135L323.455,356.778z"
		/>
	<path style="fill:#314E55;" d="M460.438,161.717c-1.721-10.838-7.462-19.079-15.756-22.59c-8.294-3.537-18.208-1.934-27.207,4.356
		c-7.863,5.497-14.597,14.2-18.966,24.498c-4.369,10.289-5.95,21.179-4.447,30.657c1.716,10.838,7.462,19.07,15.756,22.59
		c2.901,1.237,5.998,1.847,9.187,1.847c5.933,0,12.17-2.108,18.021-6.203c7.863-5.497,14.597-14.2,18.966-24.498
		C460.36,182.085,461.941,171.195,460.438,161.717z M439.569,185.404c-3.036,7.152-7.693,13.294-12.776,16.857
		c-3.846,2.683-7.492,3.607-9.997,2.553c-0.004-0.009-0.004-0.009-0.004-0.009c-2.513-1.063-4.373-4.33-5.105-8.964
		c-0.971-6.124,0.209-13.739,3.245-20.891c3.036-7.152,7.693-13.294,12.776-16.857c2.797-1.951,5.488-2.979,7.719-2.979
		c0.832,0,1.599,0.139,2.282,0.436c2.513,1.063,4.373,4.33,5.105,8.964C443.786,170.637,442.605,178.252,439.569,185.404z"/>
	<path style="fill:#314E55;" d="M360.343,233.703c-15.006,0-26.763,15.673-26.763,35.684s11.757,35.684,26.763,35.684
		s26.763-15.673,26.763-35.684S375.35,233.703,360.343,233.703z M360.343,287.229c-3.637,0-8.921-6.952-8.921-17.842
		c0-10.89,5.284-17.842,8.921-17.842s8.921,6.952,8.921,17.842C369.264,280.277,363.98,287.229,360.343,287.229z"/>
</g>
<g>
</g>
<g>
</g>
<g>
</g>
<g>
</g>
<g>
</g>
<g>
</g>
<g>
</g>
<g>
</g>
<g>
</g>
<g>
</g>
<g>
</g>
<g>
</g>
<g>
</g>
<g>
</g>
<g>
</g>
</svg>
