<?xml version="1.0" encoding="iso-8859-1"?>
<!-- Generator: Adobe Illustrator 19.0.0, SVG Export Plug-In . SVG Version: 6.00 Build 0)  -->
<svg version="1.1" id="Layer_1" xmlns="http://www.w3.org/2000/svg" xmlns:xlink="http://www.w3.org/1999/xlink" x="0px" y="0px"
	 viewBox="0 0 512 512" style="enable-background:new 0 0 512 512;" xml:space="preserve">
<g>
	<circle style="fill:#EAEAEA;" cx="209.264" cy="375.176" r="4.414"/>
	<circle style="fill:#EAEAEA;" cx="297.54" cy="375.176" r="4.414"/>
</g>
<path style="fill:#E4AD40;" d="M279.333,432.741h-52.302c-19.095,22.621-43.518,33.63-74.526,33.63
	c-11.293,0-22.509-1.841-33.138-5.358c15.629,18.599,37.725,33.332,62.388,33.332c32.69,0,51.518-6.737,64.992-23.25
	c1.672-2.052,4.181-3.246,6.836-3.246c2.655,0,5.164,1.194,6.836,3.246c12.94,15.862,35.147,23.25,69.897,23.25
	c25,0,49.802-15.263,66.889-34.621c-14.578,4.509-29.974,6.647-42.035,6.647C323.773,466.37,298.273,455.06,279.333,432.741z"/>
<path style="fill:#E9E7D1;" d="M132.125,181.575c3.017,1.216,5.121,3.987,5.483,7.216l13.353,120.178h204.881l13.354-120.178
	c0.362-3.229,2.466-6,5.483-7.216c20.173-8.116,33.207-27.414,33.207-49.16c0-29.207-23.759-52.966-52.966-52.966
	c-3.603,0-7.207,0.366-10.707,1.082c-4.483,0.931-8.931-1.737-10.233-6.129c-9.948-33.41-41.268-56.746-76.164-56.746
	c-35.888,0-67.449,24.177-76.742,58.794c-0.638,2.379-2.241,4.384-4.422,5.526c-2.172,1.151-4.741,1.332-7.06,0.504
	c-5.655-2.013-11.621-3.03-17.707-3.03c-29.207,0-52.966,23.759-52.966,52.966C98.918,154.161,111.952,173.458,132.125,181.575z
	 M346.092,97.104c4.879,0,8.828,3.953,8.828,8.828c0,4.875-3.948,8.828-8.828,8.828c-9.733,0-17.655,7.918-17.655,17.655
	c0,4.875-3.948,8.828-8.828,8.828s-8.828-3.953-8.828-8.828C310.782,112.945,326.618,97.104,346.092,97.104z M248.988,44.138
	c4.879,0,8.828,3.953,8.828,8.828s-3.948,8.828-8.828,8.828c-9.733,0-17.655,7.918-17.655,17.655c0,4.875-3.948,8.828-8.828,8.828
	s-8.828-3.953-8.828-8.828C213.677,59.979,229.514,44.138,248.988,44.138z M160.711,97.104c4.879,0,8.828,3.953,8.828,8.828
	c0,4.875-3.948,8.828-8.828,8.828c-9.733,0-17.655,7.918-17.655,17.655c0,4.875-3.948,8.828-8.828,8.828
	c-4.879,0-8.828-3.953-8.828-8.828C125.401,112.945,141.237,97.104,160.711,97.104z"/>
<g>
	<path style="fill:#314E55;" d="M120.616,195.756L134.28,318.77c0.5,4.47,4.276,7.854,8.776,7.854h220.692
		c4.5,0,8.276-3.384,8.776-7.854l13.664-123.014c24.078-11.849,39.354-36.16,39.354-63.341c0-38.94-31.681-70.621-70.621-70.621
		c-2.172,0-4.345,0.099-6.509,0.297C334.092,25.177,297.885,0,257.816,0c-40.854,0-77.121,25.642-91.078,63.358
		c-4.854-1.039-9.819-1.565-14.854-1.565c-38.94,0-70.621,31.681-70.621,70.621C81.262,159.596,96.538,183.907,120.616,195.756z
		 M151.884,79.449c6.086,0,12.052,1.017,17.707,3.03c2.319,0.828,4.888,0.647,7.06-0.504c2.181-1.142,3.784-3.147,4.422-5.526
		c9.293-34.617,40.854-58.794,76.742-58.794c34.897,0,66.216,23.336,76.164,56.746c1.302,4.392,5.75,7.06,10.233,6.129
		c3.5-0.715,7.104-1.082,10.707-1.082c29.207,0,52.966,23.759,52.966,52.966c0,21.746-13.035,41.044-33.207,49.16
		c-3.017,1.216-5.121,3.987-5.483,7.216l-13.353,120.178H150.961L137.608,188.79c-0.362-3.229-2.466-6-5.483-7.216
		c-20.173-8.116-33.207-27.414-33.207-49.16C98.918,103.208,122.677,79.449,151.884,79.449z"/>
	<path style="fill:#314E55;" d="M134.228,141.243c4.879,0,8.828-3.953,8.828-8.828c0-9.737,7.922-17.655,17.655-17.655
		c4.879,0,8.828-3.953,8.828-8.828c0-4.875-3.948-8.828-8.828-8.828c-19.474,0-35.311,15.841-35.311,35.311
		C125.401,137.29,129.349,141.243,134.228,141.243z"/>
	<path style="fill:#314E55;" d="M222.505,88.277c4.879,0,8.828-3.953,8.828-8.828c0-9.737,7.922-17.655,17.655-17.655
		c4.879,0,8.828-3.953,8.828-8.828s-3.948-8.828-8.828-8.828c-19.474,0-35.311,15.841-35.311,35.311
		C213.677,84.324,217.626,88.277,222.505,88.277z"/>
	<path style="fill:#314E55;" d="M319.609,141.243c4.879,0,8.828-3.953,8.828-8.828c0-9.737,7.922-17.655,17.655-17.655
		c4.879,0,8.828-3.953,8.828-8.828c0-4.875-3.948-8.828-8.828-8.828c-19.474,0-35.311,15.841-35.311,35.311
		C310.782,137.29,314.73,141.243,319.609,141.243z"/>
	<path style="fill:#314E55;" d="M187.194,375.176c0,12.168,9.897,22.069,22.069,22.069c12.172,0,22.069-9.901,22.069-22.069
		s-9.897-22.069-22.069-22.069C197.091,353.107,187.194,363.007,187.194,375.176z M213.677,375.176c0,2.435-1.983,4.414-4.414,4.414
		c-2.431,0-4.414-1.978-4.414-4.414s1.983-4.414,4.414-4.414C211.695,370.762,213.677,372.74,213.677,375.176z"/>
	<path style="fill:#314E55;" d="M275.471,375.176c0,12.168,9.897,22.069,22.069,22.069c12.172,0,22.069-9.901,22.069-22.069
		s-9.897-22.069-22.069-22.069C285.368,353.107,275.471,363.007,275.471,375.176z M301.954,375.176c0,2.435-1.983,4.414-4.414,4.414
		c-2.431,0-4.414-1.978-4.414-4.414s1.983-4.414,4.414-4.414C299.971,370.762,301.954,372.74,301.954,375.176z"/>
	<path style="fill:#314E55;" d="M427.421,431.249c-3.155-2.526-7.629-2.582-10.836-0.138c-13.25,10.035-39.647,17.604-61.414,17.604
		c-27.629,0-48.785-9.892-64.69-30.237c-1.672-2.142-4.241-3.392-6.957-3.392h-60.69c-2.716,0-5.284,1.25-6.957,3.388
		c-16.354,20.914-35.897,30.242-63.371,30.242c-19.009,0-37.725-6.254-52.707-17.604c-3.215-2.44-7.69-2.384-10.836,0.138
		c-3.155,2.522-4.198,6.866-2.526,10.547C102.297,476.741,137.918,512,181.755,512c24.173,0,51.164-2.854,71.906-22.453
		C275.635,509.504,307.394,512,330.317,512c44.018,0,84.182-36.173,99.63-70.203C431.619,438.116,430.576,433.771,427.421,431.249z
		 M330.316,494.345c-34.75,0-56.957-7.388-69.897-23.25c-1.672-2.052-4.181-3.246-6.836-3.246s-5.164,1.194-6.836,3.246
		c-13.474,16.513-32.302,23.25-64.992,23.25c-24.664,0-46.759-14.733-62.388-33.332c10.629,3.517,21.845,5.358,33.138,5.358
		c31.009,0,55.432-11.009,74.526-33.63h52.302c18.94,22.319,44.44,33.63,75.837,33.63c12.06,0,27.457-2.138,42.035-6.647
		C380.118,479.082,355.317,494.345,330.316,494.345z"/>
</g>
<g>
</g>
<g>
</g>
<g>
</g>
<g>
</g>
<g>
</g>
<g>
</g>
<g>
</g>
<g>
</g>
<g>
</g>
<g>
</g>
<g>
</g>
<g>
</g>
<g>
</g>
<g>
</g>
<g>
</g>
</svg>
