<?xml version="1.0" encoding="iso-8859-1"?>
<!-- Generator: Adobe Illustrator 19.0.0, SVG Export Plug-In . SVG Version: 6.00 Build 0)  -->
<svg version="1.1" id="Layer_1" xmlns="http://www.w3.org/2000/svg" xmlns:xlink="http://www.w3.org/1999/xlink" x="0px" y="0px"
	 viewBox="0 0 512 512" style="enable-background:new 0 0 512 512;" xml:space="preserve">
<path style="fill:#E25D56;" d="M51.01,358.254c0,55.26,44.96,100.215,100.215,100.215S251.44,413.514,251.44,358.254
	s-44.96-100.215-100.215-100.215S51.01,302.994,51.01,358.254z M231.397,358.254c0,5.534-4.482,10.022-10.022,10.022
	c-5.539,0-10.022-4.487-10.022-10.022c0-33.157-26.972-60.129-60.129-60.129c-5.539,0-10.022-4.487-10.022-10.022
	s4.482-10.022,10.022-10.022C195.431,278.082,231.397,314.048,231.397,358.254z"/>
<path style="fill:#5ECC66;" d="M20.309,222.743c8.123,3.655,28.753,7.878,57.643-22.382c33.607-35.222,36.426-83.847,36.308-100.729
	c-9.973,5.314-21.736,12.194-35.477,21.12C29.792,152.563,21.66,205.788,20.309,222.743z"/>
<path style="fill:#E25D56;" d="M391.742,187.888c-55.255,0-100.215,44.955-100.215,100.215s44.96,100.215,100.215,100.215
	s100.215-44.955,100.215-100.215S446.997,187.888,391.742,187.888z M461.892,298.125c-5.539,0-10.022-4.487-10.022-10.022
	c0-33.157-26.972-60.129-60.129-60.129c-5.539,0-10.022-4.487-10.022-10.022c0-5.534,4.482-10.022,10.022-10.022
	c44.206,0,80.172,35.966,80.172,80.172C471.914,293.637,467.432,298.125,461.892,298.125z"/>
<g>
	<path style="fill:#314E55;" d="M141.204,288.103c0,5.534,4.482,10.022,10.022,10.022c33.157,0,60.129,26.972,60.129,60.129
		c0,5.534,4.482,10.022,10.022,10.022c5.539,0,10.022-4.487,10.022-10.022c0-44.206-35.966-80.172-80.172-80.172
		C145.686,278.082,141.204,282.569,141.204,288.103z"/>
	<path style="fill:#314E55;" d="M391.742,207.931c-5.539,0-10.022,4.487-10.022,10.022c0,5.534,4.482,10.022,10.022,10.022
		c33.157,0,60.129,26.972,60.129,60.129c0,5.534,4.482,10.022,10.022,10.022c5.539,0,10.022-4.487,10.022-10.022
		C471.914,243.897,435.948,207.931,391.742,207.931z"/>
	<path style="fill:#314E55;" d="M391.742,167.845c-18.789,0-36.513,4.454-52.37,12.17C325.217,84.126,210.587,40.442,154.601,34.252
		c-14.093-1.556-30.623-1.815-33.921,10.031c-3.143,11.304,9.702,18.467,17.983,22.409c-14.873,5.216-37.75,15.785-70.802,37.245
		C-0.145,148.105-0.037,225.053,0.002,228.307c0.039,2.897,1.321,5.637,3.533,7.516c0.196,0.176,11.382,9.361,29.624,9.356
		c15.473,0,36.044-6.616,59.297-30.98c47.259-49.54,41.818-119.402,41.564-122.353c-0.049-0.587-0.147-1.16-0.294-1.708
		c16.103-7.028,24.192-8.218,26.116-8.419c38.734,43.369,9.166,141.879,4.304,156.996c-4.249-0.456-8.554-0.721-12.921-0.721
		c-66.314,0-120.258,53.949-120.258,120.258s53.944,120.258,120.258,120.258s120.258-53.949,120.258-120.258
		c0-54.954-37.095-101.314-87.533-115.615c8.058-25.416,41.56-144.73-24.142-187.346c23.948,3.949,61.803,14.959,95.88,37.365
		c40.289,26.497,61.982,59.767,64.731,98.843c-29.617,21.926-48.936,57.007-48.936,96.601c0,66.309,53.944,120.258,120.258,120.258
		S512,354.413,512,288.103S458.056,167.845,391.742,167.845z M77.953,200.361c-28.89,30.26-49.52,26.037-57.643,22.382
		c1.351-16.955,9.483-70.18,58.475-101.992c13.741-8.925,25.504-15.805,35.477-21.12C114.378,116.514,111.56,165.139,77.953,200.361
		z M251.44,358.254c0,55.26-44.96,100.215-100.215,100.215S51.01,413.514,51.01,358.254s44.96-100.215,100.215-100.215
		S251.44,302.994,251.44,358.254z M391.742,388.319c-55.255,0-100.215-44.955-100.215-100.215s44.96-100.215,100.215-100.215
		s100.215,44.955,100.215,100.215S446.997,388.319,391.742,388.319z"/>
</g>
<g>
</g>
<g>
</g>
<g>
</g>
<g>
</g>
<g>
</g>
<g>
</g>
<g>
</g>
<g>
</g>
<g>
</g>
<g>
</g>
<g>
</g>
<g>
</g>
<g>
</g>
<g>
</g>
<g>
</g>
</svg>
