<?xml version="1.0" encoding="iso-8859-1"?>
<!-- Generator: Adobe Illustrator 19.0.0, SVG Export Plug-In . SVG Version: 6.00 Build 0)  -->
<svg version="1.1" id="Layer_1" xmlns="http://www.w3.org/2000/svg" xmlns:xlink="http://www.w3.org/1999/xlink" x="0px" y="0px"
	 viewBox="0 0 512 512" style="enable-background:new 0 0 512 512;" xml:space="preserve">
<path style="fill:#EAEAEA;" d="M154.762,255.703L85.91,215.95c-3.742-2.162-5.366-6.714-3.841-10.758
	c3.958-10.473-0.004-22.015-9.418-27.449c-5.107-2.95-11.098-3.691-16.855-2.063c-5.844,1.636-10.758,5.482-13.837,10.818
	c-2.847,4.927-3.816,10.667-2.73,16.162c0.857,4.332-1.623,8.634-5.805,10.055c-5.301,1.809-9.789,5.517-12.631,10.443
	c-6.322,10.951-2.842,24.84,7.756,30.959c10.616,6.124,24.375,2.192,30.692-8.755c1.636-2.829,4.599-4.41,7.648-4.41
	c1.494,0,3.01,0.379,4.401,1.18l68.477,39.533L154.762,255.703z"/>
<path style="fill:#F28544;" d="M362.066,123.705c-66.612,0-123.049,49.766-131.274,115.753c-0.556,4.457-4.66,7.799-8.854,7.73
	l-0.986-0.009c-38.905,0-70.557,31.653-70.557,70.557s31.653,70.557,70.557,70.557h141.114c72.947,0,132.295-59.347,132.295-132.295
	S435.014,123.705,362.066,123.705z M459.082,268.773c-4.871,0-8.82-3.949-8.82-8.82c0-48.633-39.564-88.196-88.196-88.196
	c-4.871,0-8.82-3.949-8.82-8.82s3.949-8.82,8.82-8.82c58.357,0,105.836,47.479,105.836,105.836
	C467.902,264.824,463.953,268.773,459.082,268.773z"/>
<g>
	<path style="fill:#314E55;" d="M362.066,106.066c-72.947,0-135.128,52.672-147.651,123.716
		c-15.907,1.169-30.601,6.649-43.061,15.167c-0.051-0.03-0.081-0.086-0.133-0.116l-70.613-40.769
		c2.941-16.429-4.418-33.104-19.142-41.596c-9.25-5.353-20.068-6.692-30.438-3.772c-10.301,2.89-18.949,9.633-24.349,18.983
		c-3.764,6.52-5.646,13.871-5.517,21.257c-6.46,3.579-11.886,8.884-15.65,15.404c-11.184,19.375-4.806,44.072,14.216,55.058
		c16.451,9.487,37.053,5.676,49.559-8.053l65.501,37.817c-1.292,5.998-2.032,12.198-2.032,18.576
		c0,48.633,39.564,88.196,88.196,88.196h141.114C444.742,405.934,512,338.676,512,256S444.742,106.066,362.066,106.066z
		 M66.888,240.953c-3.049,0-6.012,1.58-7.648,4.41c-6.318,10.947-20.077,14.879-30.692,8.755
		c-10.598-6.12-14.078-20.008-7.756-30.959c2.842-4.927,7.33-8.634,12.631-10.443c4.182-1.421,6.662-5.723,5.805-10.056
		c-1.085-5.495-0.116-11.236,2.73-16.162c3.079-5.336,7.993-9.181,13.837-10.818c5.758-1.628,11.748-0.887,16.855,2.063
		c9.414,5.435,13.376,16.976,9.418,27.449c-1.524,4.044,0.099,8.596,3.841,10.758l68.852,39.753l-14.995,25.964L71.29,242.133
		C69.898,241.332,68.383,240.953,66.888,240.953z M362.066,388.295H220.952c-38.905,0-70.557-31.653-70.557-70.557
		s31.653-70.557,70.557-70.557l0.986,0.009c4.194,0.069,8.299-3.273,8.854-7.73c8.225-65.988,64.662-115.753,131.274-115.753
		c72.947,0,132.295,59.347,132.295,132.295S435.014,388.295,362.066,388.295z"/>
	<path style="fill:#314E55;" d="M362.066,154.118c-4.871,0-8.82,3.949-8.82,8.82s3.949,8.82,8.82,8.82
		c48.633,0,88.196,39.564,88.196,88.196c0,4.871,3.949,8.82,8.82,8.82c4.871,0,8.82-3.949,8.82-8.82
		C467.902,201.597,420.423,154.118,362.066,154.118z"/>
</g>
<g>
</g>
<g>
</g>
<g>
</g>
<g>
</g>
<g>
</g>
<g>
</g>
<g>
</g>
<g>
</g>
<g>
</g>
<g>
</g>
<g>
</g>
<g>
</g>
<g>
</g>
<g>
</g>
<g>
</g>
</svg>
