<?xml version="1.0" encoding="iso-8859-1"?>
<!-- Generator: Adobe Illustrator 19.0.0, SVG Export Plug-In . SVG Version: 6.00 Build 0)  -->
<svg version="1.1" id="Layer_1" xmlns="http://www.w3.org/2000/svg" xmlns:xlink="http://www.w3.org/1999/xlink" x="0px" y="0px"
	 viewBox="0 0 512 512" style="enable-background:new 0 0 512 512;" xml:space="preserve">
<path style="fill:#EAEAEA;" d="M193.263,155.127l-79.394-79.394c-3.154-3.158-3.775-8.051-1.51-11.898
	c6.814-11.52,4.941-26.189-4.539-35.669c-11.085-11.085-30.427-11.085-41.512,0c-4.778,4.778-7.683,10.832-8.419,17.517
	c-0.497,4.558-4.1,8.161-8.658,8.663c-6.689,0.736-12.757,3.646-17.526,8.419c-11.439,11.448-11.439,30.069,0,41.517
	c9.48,9.48,24.139,11.329,35.664,4.544c1.548-0.917,3.268-1.362,4.979-1.362c2.533,0,5.036,0.98,6.919,2.867l78.104,78.096
	c3.895-5.234,8.058-10.284,12.728-14.953C177.145,166.427,184.962,160.4,193.263,155.127z"/>
<path style="fill:#EA86A5;" d="M422.66,218.451c-36.352-36.352-81.458-59.469-127.012-65.083c-7.072-0.874-14.01-1.304-20.804-1.304
	c-19.54,0-37.737,3.691-54.042,10.627c-0.464,1.406-1.154,2.747-2.273,3.866l-48.431,48.436c-1.911,1.911-4.415,2.867-6.919,2.867
	c-0.273,0-0.53-0.134-0.802-0.155c-11.633,23.372-16.114,51.157-12.395,81.326c5.619,45.545,28.736,90.651,65.088,127.007
	c36.352,36.352,81.458,59.469,127.012,65.083c44.647,5.514,84.324-6.551,111.713-33.949
	C511.017,399.943,497.056,292.856,422.66,218.451z M433.038,436.41c-20.957,20.957-49.415,31.12-80.024,31.12
	c-41.847,0-87.746-18.979-124.098-55.335c-3.823-3.823-3.823-10.015,0-13.837c3.822-3.822,10.015-3.823,13.837,0
	c55.321,55.316,134.485,66.191,176.447,24.215c3.822-3.823,10.015-3.823,13.837,0C436.861,426.395,436.861,432.588,433.038,436.41z"
	/>
<g>
	<path style="fill:#314E55;" d="M436.498,204.614c-39.42-39.424-88.596-64.524-138.451-70.668
		c-31.75-3.911-61.377,0.103-86.884,11.408l-78.535-78.541c7.033-17.875,2.972-38.55-10.971-52.483
		C112.417,5.089,100.137,0,87.064,0S61.711,5.089,52.47,14.33c-6.087,6.082-10.454,13.694-12.662,21.936
		c-8.247,2.217-15.863,6.58-21.941,12.662c-19.074,19.074-19.074,50.118,0,69.192c13.933,13.928,34.603,18.009,52.473,10.966
		l76.353,76.34c-14.712,27.491-20.522,60.373-16.129,95.997c6.145,49.855,31.239,99.027,70.668,138.451
		c39.42,39.424,88.596,64.524,138.451,70.668c7.903,0.975,15.682,1.457,23.288,1.457c41.293,0,77.855-14.186,104.66-40.992
		C532.49,406.15,518.519,286.649,436.498,204.614z M79.266,110.332c-1.883-1.887-4.386-2.867-6.919-2.867
		c-1.711,0-3.431,0.444-4.979,1.362c-11.525,6.785-26.184,4.936-35.664-4.544c-11.439-11.448-11.439-30.069,0-41.517
		c4.769-4.773,10.837-7.683,17.526-8.419c4.558-0.502,8.161-4.104,8.658-8.663c0.736-6.685,3.641-12.738,8.419-17.517
		c11.085-11.085,30.427-11.085,41.512,0c9.48,9.48,11.353,24.149,4.539,35.669c-2.265,3.846-1.644,8.739,1.51,11.898l79.393,79.394
		c-8.301,5.274-16.118,11.3-23.164,18.348c-4.67,4.669-8.833,9.719-12.728,14.953L79.266,110.332z M453.795,457.171
		c-27.388,27.398-67.066,39.463-111.713,33.949c-45.555-5.614-90.66-28.731-127.012-65.083
		c-36.352-36.357-59.469-81.462-65.088-127.007c-3.719-30.169,0.762-57.954,12.395-81.326c0.272,0.022,0.529,0.155,0.802,0.155
		c2.504,0,5.008-0.956,6.919-2.867l48.431-48.436c1.119-1.118,1.809-2.46,2.273-3.866c16.305-6.936,34.503-10.627,54.042-10.627
		c6.794,0,13.732,0.43,20.804,1.304c45.555,5.614,90.66,28.731,127.012,65.083C497.056,292.856,511.017,399.943,453.795,457.171z"/>
	<path style="fill:#314E55;" d="M419.201,422.573c-41.961,41.976-121.125,31.101-176.447-24.215c-3.822-3.822-10.015-3.822-13.837,0
		c-3.822,3.823-3.823,10.015,0,13.837c36.352,36.357,82.251,55.335,124.098,55.335c30.609,0,59.067-10.163,80.024-31.12
		c3.823-3.822,3.823-10.015,0-13.837C429.216,418.75,423.023,418.75,419.201,422.573z"/>
</g>
<g>
</g>
<g>
</g>
<g>
</g>
<g>
</g>
<g>
</g>
<g>
</g>
<g>
</g>
<g>
</g>
<g>
</g>
<g>
</g>
<g>
</g>
<g>
</g>
<g>
</g>
<g>
</g>
<g>
</g>
</svg>
