<?xml version="1.0" encoding="iso-8859-1"?>
<!-- Generator: Adobe Illustrator 19.0.0, SVG Export Plug-In . SVG Version: 6.00 Build 0)  -->
<svg version="1.1" id="Layer_1" xmlns="http://www.w3.org/2000/svg" xmlns:xlink="http://www.w3.org/1999/xlink" x="0px" y="0px"
	 viewBox="0 0 512 512" style="enable-background:new 0 0 512 512;" xml:space="preserve">
<polygon style="fill:#C59981;" points="227.152,492.405 243.905,489.151 202.154,319.059 "/>
<g>
	<circle style="fill:#EA86A5;" cx="309.888" cy="71.852" r="8.982"/>
	<circle style="fill:#EA86A5;" cx="363.778" cy="134.724" r="8.982"/>
</g>
<polygon style="fill:#C59981;" points="328.424,437.409 344.011,430.471 265.07,274.133 "/>
<path style="fill:#DBCF56;" d="M256,35.924c-54.969,0-153.303-12.113-187.152-16.499c4.386,33.848,16.499,132.182,16.499,187.152
	c0,54.776-12.025,152.602-16.455,186.792c22.868-3.627,74.735-11.333,123.643-15.119l-34.449-238.86
	c-0.675-4.737,2.482-9.183,7.184-10.096c4.614-0.93,9.289,2.026,10.429,6.675l59.348,241.763c7.443-0.302,14.556-0.501,20.953-0.501
	l7.429-0.035c6.901-0.064,13.618-0.075,22.492,0.346L181.717,108.979c-1.728-4.465,0.351-9.499,4.728-11.447
	c4.377-2,9.517-0.114,11.666,4.149l141.309,279.836l2.697,0.238c42.83,3.789,82.099,9.087,101.018,11.797
	c-4.412-34.023-16.481-132.103-16.481-186.976c0-54.969,12.113-153.303,16.499-187.152C409.304,23.811,310.969,35.924,256,35.924z
	 M309.891,44.906c14.858,0,26.945,12.087,26.945,26.945s-12.087,26.945-26.945,26.945s-26.945-12.087-26.945-26.945
	S295.032,44.906,309.891,44.906z M361.378,246.048l-38.743-27.673c-2.359-1.684-3.763-4.403-3.763-7.306v-24.016l-19.99,5.71
	c-2.877,0.807-6.017,0.149-8.306-1.816c-2.289-1.965-3.447-4.947-3.07-7.938l3.535-28.287l-32.673-9.341l4.938-17.271l40.067,11.447
	c4.263,1.219,6.999,5.359,6.447,9.753l-2.807,22.446l18.376-5.254c2.701-0.763,5.622-0.228,7.877,1.465
	c2.245,1.702,3.57,4.359,3.57,7.175v31.305l34.98,24.989L361.378,246.048z M363.781,161.668c-14.859,0-26.945-12.087-26.945-26.945
	c0-14.858,12.087-26.945,26.945-26.945c14.858,0,26.945,12.087,26.945,26.945C390.726,149.581,378.64,161.668,363.781,161.668z"/>
<g>
	<path style="fill:#314E55;" d="M462.501,10.189c0.377-2.781-0.57-5.579-2.552-7.561c-1.982-1.982-4.78-2.912-7.561-2.552
		C451.072,0.26,320.504,17.96,256,17.96c-64.495,0-195.072-17.7-196.388-17.884c-2.754-0.36-5.579,0.57-7.561,2.552
		s-2.93,4.78-2.552,7.561c0.184,1.316,17.884,131.884,17.884,196.388c0,64.495-17.7,195.072-17.884,196.388
		c-0.386,2.833,0.605,5.684,2.658,7.666c1.693,1.632,3.938,2.526,6.245,2.526c0.5,0,1.009-0.044,1.517-0.132
		c0.717-0.121,70.837-12.054,135.185-16.959l15.61,108.232c0.351,2.438,1.684,4.614,3.693,6.043
		c1.526,1.088,3.351,1.658,5.201,1.658c0.57,0,1.14-0.053,1.71-0.167l35.269-6.85c2.412-0.465,4.535-1.903,5.859-3.973
		c1.325-2.07,1.737-4.596,1.149-6.982l-24.176-98.482c5.828-0.205,11.461-0.352,16.58-0.352l7.561-0.035
		c8.569-0.053,15.937-0.114,27.779,0.667l1.72,0.113l22.023,56.76c0.895,2.298,2.684,4.122,4.956,5.061
		c1.096,0.447,2.254,0.675,3.421,0.675c1.246,0,2.491-0.263,3.649-0.781l32.822-14.613c2.254-1,3.991-2.868,4.815-5.184
		c0.825-2.316,0.658-4.868-0.447-7.07l-15.332-30.361c55.431,5.215,102.753,12.551,103.246,12.626
		c2.833,0.421,5.649-0.482,7.675-2.465c2.026-1.991,2.991-4.815,2.614-7.622c-0.184-1.316-17.884-131.884-17.884-196.388
		C444.617,142.082,462.317,11.505,462.501,10.189z M227.152,492.405l-24.998-173.346l41.751,170.092L227.152,492.405z
		 M328.424,437.409L265.07,274.133l78.941,156.338L328.424,437.409z M443.134,393.553c-18.92-2.71-58.188-8.008-101.018-11.797
		l-2.697-0.238L198.11,101.682c-2.149-4.263-7.289-6.149-11.666-4.149c-4.377,1.947-6.456,6.982-4.728,11.447l104.205,268.561
		c-8.874-0.421-15.591-0.41-22.492-0.346L256,377.23c-6.397,0-13.509,0.199-20.953,0.501L175.7,135.969
		c-1.14-4.649-5.815-7.605-10.429-6.675c-4.701,0.912-7.859,5.359-7.184,10.096l34.449,238.86
		c-48.908,3.786-100.775,11.493-123.643,15.119c4.43-34.19,16.455-132.016,16.455-186.792c0-54.969-12.113-153.303-16.499-187.152
		C102.697,23.811,201.031,35.924,256,35.924s153.303-12.113,187.152-16.499c-4.386,33.848-16.499,132.182-16.499,187.152
		C426.653,261.45,438.723,359.53,443.134,393.553z"/>
	<path style="fill:#314E55;" d="M336.836,175.141c0-2.816-1.325-5.473-3.57-7.175c-2.254-1.693-5.175-2.228-7.877-1.465
		l-18.376,5.254l2.807-22.446c0.553-4.394-2.184-8.534-6.447-9.753l-40.067-11.447l-4.938,17.271l32.673,9.341l-3.535,28.287
		c-0.377,2.991,0.781,5.973,3.07,7.938s5.429,2.623,8.306,1.816l19.99-5.71v24.016c0,2.903,1.403,5.622,3.763,7.306l38.743,27.673
		l10.438-14.613l-34.979-24.989V175.141z"/>
	<path style="fill:#314E55;" d="M309.891,98.796c14.858,0,26.945-12.087,26.945-26.945s-12.087-26.945-26.945-26.945
		s-26.945,12.087-26.945,26.945S295.032,98.796,309.891,98.796z M309.891,62.869c4.956,0,8.982,4.026,8.982,8.982
		c0,4.956-4.026,8.982-8.982,8.982c-4.956,0-8.982-4.026-8.982-8.982C300.909,66.895,304.935,62.869,309.891,62.869z"/>
	<path style="fill:#314E55;" d="M363.781,107.778c-14.859,0-26.945,12.087-26.945,26.945s12.087,26.945,26.945,26.945
		c14.858,0,26.945-12.087,26.945-26.945C390.726,119.864,378.64,107.778,363.781,107.778z M363.781,143.705
		c-4.956,0-8.982-4.026-8.982-8.982s4.026-8.982,8.982-8.982c4.956,0,8.982,4.026,8.982,8.982S368.737,143.705,363.781,143.705z"/>
</g>
<g>
</g>
<g>
</g>
<g>
</g>
<g>
</g>
<g>
</g>
<g>
</g>
<g>
</g>
<g>
</g>
<g>
</g>
<g>
</g>
<g>
</g>
<g>
</g>
<g>
</g>
<g>
</g>
<g>
</g>
</svg>
