<?xml version="1.0" encoding="iso-8859-1"?>
<!-- Generator: Adobe Illustrator 19.0.0, SVG Export Plug-In . SVG Version: 6.00 Build 0)  -->
<svg version="1.1" id="Layer_1" xmlns="http://www.w3.org/2000/svg" xmlns:xlink="http://www.w3.org/1999/xlink" x="0px" y="0px"
	 viewBox="0 0 512 512" style="enable-background:new 0 0 512 512;" xml:space="preserve">
<g>
	<rect x="270.222" y="18.963" style="fill:#D8D8D8;" width="37.926" height="66.37"/>
	<polygon style="fill:#D8D8D8;" points="270.222,256 270.222,280.091 308.148,298.528 308.148,256 	"/>
	<rect x="327.111" y="180.148" style="fill:#D8D8D8;" width="37.926" height="56.889"/>
	<rect x="327.111" y="104.296" style="fill:#D8D8D8;" width="37.926" height="56.889"/>
	<rect x="270.222" y="104.296" style="fill:#D8D8D8;" width="37.926" height="56.889"/>
	<polygon style="fill:#D8D8D8;" points="365.037,256 327.111,256 327.111,307.748 365.037,326.185 	"/>
	<polygon style="fill:#D8D8D8;" points="251.259,256 220.668,256 251.259,270.872 	"/>
	<rect x="213.333" y="180.148" style="fill:#D8D8D8;" width="37.926" height="56.889"/>
	<rect x="270.222" y="180.148" style="fill:#D8D8D8;" width="37.926" height="56.889"/>
	<polygon style="fill:#D8D8D8;" points="194.37,180.148 156.444,180.148 156.444,224.778 194.37,243.215 	"/>
</g>
<path style="fill:#EAEAEA;" d="M256,436.148c23.528,0,42.667-19.139,42.667-42.667c0-23.528-19.139-42.667-42.667-42.667
	s-42.667,19.139-42.667,42.667C213.333,417.009,232.472,436.148,256,436.148z"/>
<g>
	<rect x="156.444" y="18.963" style="fill:#D8D8D8;" width="37.926" height="66.37"/>
	<rect x="213.333" y="18.963" style="fill:#D8D8D8;" width="37.926" height="66.37"/>
</g>
<path style="fill:#F28544;" d="M146.963,493.037h218.074V347.296L146.963,242.62V493.037z M256,331.852
	c33.981,0,61.63,27.648,61.63,61.63s-27.648,61.63-61.63,61.63s-61.63-27.648-61.63-61.63S222.019,331.852,256,331.852z"/>
<g>
	<rect x="213.333" y="104.296" style="fill:#D8D8D8;" width="37.926" height="56.889"/>
	<rect x="156.444" y="104.296" style="fill:#D8D8D8;" width="37.926" height="56.889"/>
	<rect x="327.111" y="18.963" style="fill:#D8D8D8;" width="37.926" height="66.37"/>
</g>
<g>
	<path style="fill:#314E55;" d="M374.519,0H146.963c-5.241,0-9.481,4.241-9.481,9.481v208.643c-1.758,0.001-3.511,0.44-5.046,1.403
		c-2.759,1.741-4.435,4.769-4.435,8.028v274.963c0,5.241,4.241,9.481,9.481,9.481h237.037c5.241,0,9.481-4.241,9.481-9.481V341.333
		V9.481C384,4.241,379.759,0,374.519,0z M156.444,180.148h37.926v63.067l-37.926-18.437V180.148z M251.259,237.037h-37.926v-56.889
		h37.926V237.037z M270.222,180.148h37.926v56.889h-37.926V180.148z M251.259,256v14.872L220.668,256H251.259z M270.222,280.091V256
		h37.926v42.528L270.222,280.091z M327.111,256h37.926v70.185l-37.926-18.437V256z M365.037,237.037h-37.926v-56.889h37.926V237.037
		z M365.037,161.185h-37.926v-56.889h37.926V161.185z M308.148,161.185h-37.926v-56.889h37.926V161.185z M270.222,85.333v-66.37
		h37.926v66.37H270.222z M251.259,85.333h-37.926v-66.37h37.926V85.333z M251.259,104.296v56.889h-37.926v-56.889H251.259z
		 M194.37,161.185h-37.926v-56.889h37.926V161.185z M365.037,85.333h-37.926v-66.37h37.926V85.333z M194.37,18.963v66.37h-37.926
		v-66.37H194.37z M365.037,493.037H146.963V242.62l218.074,104.676V493.037z"/>
	<path style="fill:#314E55;" d="M256,455.111c33.981,0,61.63-27.648,61.63-61.63s-27.648-61.63-61.63-61.63
		s-61.63,27.648-61.63,61.63S222.019,455.111,256,455.111z M256,350.815c23.528,0,42.667,19.139,42.667,42.667
		c0,23.528-19.139,42.667-42.667,42.667s-42.667-19.139-42.667-42.667C213.333,369.954,232.472,350.815,256,350.815z"/>
</g>
<g>
</g>
<g>
</g>
<g>
</g>
<g>
</g>
<g>
</g>
<g>
</g>
<g>
</g>
<g>
</g>
<g>
</g>
<g>
</g>
<g>
</g>
<g>
</g>
<g>
</g>
<g>
</g>
<g>
</g>
</svg>
