<?xml version="1.0" encoding="iso-8859-1"?>
<!-- Generator: Adobe Illustrator 19.0.0, SVG Export Plug-In . SVG Version: 6.00 Build 0)  -->
<svg version="1.1" id="Layer_1" xmlns="http://www.w3.org/2000/svg" xmlns:xlink="http://www.w3.org/1999/xlink" x="0px" y="0px"
	 viewBox="0 0 512 512" style="enable-background:new 0 0 512 512;" xml:space="preserve">
<path style="fill:#F28544;" d="M391.741,137.143c-10.228-7.018-56.045-18.286-135.741-18.286s-125.513,11.268-135.741,18.286
	c10.228,7.018,56.045,18.286,135.741,18.286S381.513,144.161,391.741,137.143z"/>
<path style="fill:#DBCF56;" d="M493.714,141.714c0-20.5-92.603-50.286-237.714-50.286S18.286,121.214,18.286,141.714
	S110.888,192,256,192S493.714,162.214,493.714,141.714z M100.571,137.143c0-34.813,129.473-36.571,155.429-36.571
	c25.955,0,155.429,1.759,155.429,36.571S281.955,173.714,256,173.714C230.045,173.714,100.571,171.955,100.571,137.143z"/>
<g>
	<path style="fill:#314E55;" d="M512,141.714c0-45.018-128.786-68.571-256-68.571S0,96.696,0,141.714
		c0,43.939,122.69,67.418,246.857,68.518v164.624c0,25.205-20.509,45.714-45.714,45.714s-45.714-20.509-45.714-45.714
		c0-5.053-4.094-9.143-9.143-9.143s-9.143,4.089-9.143,9.143c0,35.286,28.71,64,64,64c17.901,0,34.088-7.409,45.714-19.296v19.296
		h18.286v-19.296c11.627,11.887,27.813,19.296,45.714,19.296c35.29,0,64-28.714,64-64c0-5.053-4.094-9.143-9.143-9.143
		c-5.049,0-9.143,4.089-9.143,9.143c0,25.205-20.509,45.714-45.714,45.714c-25.205,0-45.714-20.509-45.714-45.714V210.233
		C389.31,209.132,512,185.653,512,141.714z M18.286,141.714c0-20.5,92.603-50.286,237.714-50.286s237.714,29.786,237.714,50.286
		S401.112,192,256,192S18.286,162.214,18.286,141.714z"/>
	<path style="fill:#314E55;" d="M411.429,137.143c0-34.813-129.473-36.571-155.429-36.571c-25.955,0-155.429,1.759-155.429,36.571
		S230.045,173.714,256,173.714C281.955,173.714,411.429,171.955,411.429,137.143z M256,118.857
		c79.696,0,125.513,11.268,135.741,18.286c-10.228,7.018-56.045,18.286-135.741,18.286s-125.513-11.268-135.741-18.286
		C130.487,130.125,176.304,118.857,256,118.857z"/>
</g>
<g>
</g>
<g>
</g>
<g>
</g>
<g>
</g>
<g>
</g>
<g>
</g>
<g>
</g>
<g>
</g>
<g>
</g>
<g>
</g>
<g>
</g>
<g>
</g>
<g>
</g>
<g>
</g>
<g>
</g>
</svg>
