<?xml version="1.0" encoding="iso-8859-1"?>
<!-- Generator: Adobe Illustrator 19.0.0, SVG Export Plug-In . SVG Version: 6.00 Build 0)  -->
<svg version="1.1" id="Layer_1" xmlns="http://www.w3.org/2000/svg" xmlns:xlink="http://www.w3.org/1999/xlink" x="0px" y="0px"
	 viewBox="0 0 512 512" style="enable-background:new 0 0 512 512;" xml:space="preserve">
<path style="fill:#5ECC66;" d="M129.583,251.17l11.691,217.707c0.698,13.127,11.887,23.802,24.934,23.802h179.585
	c13.047,0,24.236-10.674,24.934-23.797l11.69-217.712H129.583z M369.925,376.755H140.896v-19.321h229.028V376.755z"/>
<rect x="149.736" y="19.321" style="fill:#EAEAEA;" width="212.528" height="19.321"/>
<polygon style="fill:#5ECC66;" points="128.545,231.849 383.455,231.849 390.717,96.604 121.283,96.604 "/>
<polygon style="fill:#EAEAEA;" points="140.075,57.962 82.113,57.962 82.113,77.283 111.094,77.283 400.906,77.283 429.887,77.283 
	429.887,57.962 371.925,57.962 "/>
<g>
	<rect x="140.897" y="357.434" style="fill:#314E55;" width="229.023" height="19.321"/>
	<path style="fill:#314E55;" d="M439.547,38.642h-57.962V9.66c0-5.335-4.321-9.66-9.66-9.66H140.075c-5.34,0-9.66,4.325-9.66,9.66
		v28.981H72.453c-5.34,0-9.66,4.325-9.66,9.66v38.642c0,5.335,4.321,9.66,9.66,9.66h29.481l20.038,373.307
		c1.245,23.207,21.085,42.09,44.236,42.09h179.585c23.151,0,42.991-18.882,44.236-42.085l20.038-373.311h29.481
		c5.34,0,9.66-4.325,9.66-9.66V48.302C449.208,42.967,444.887,38.642,439.547,38.642z M149.736,19.321h212.528v19.321H149.736
		V19.321z M370.726,468.882c-0.698,13.123-11.887,23.797-24.934,23.797H166.208c-13.047,0-24.236-10.674-24.934-23.802
		L129.583,251.17h252.834L370.726,468.882z M383.455,231.849H128.545l-7.262-135.245h269.434L383.455,231.849z M429.887,77.283
		h-28.981H111.094H82.113V57.962h57.962h231.849h57.962V77.283z"/>
</g>
<g>
</g>
<g>
</g>
<g>
</g>
<g>
</g>
<g>
</g>
<g>
</g>
<g>
</g>
<g>
</g>
<g>
</g>
<g>
</g>
<g>
</g>
<g>
</g>
<g>
</g>
<g>
</g>
<g>
</g>
</svg>
