<?xml version="1.0" encoding="iso-8859-1"?>
<!-- Generator: Adobe Illustrator 19.0.0, SVG Export Plug-In . SVG Version: 6.00 Build 0)  -->
<svg version="1.1" id="Layer_1" xmlns="http://www.w3.org/2000/svg" xmlns:xlink="http://www.w3.org/1999/xlink" x="0px" y="0px"
	 viewBox="0 0 512 512" style="enable-background:new 0 0 512 512;" xml:space="preserve">
<path style="fill:#D8D8D8;" d="M248.576,183.616c12.612-3.022,25.049-11.005,35.022-22.478
	c9.978-11.478,16.152-24.906,17.388-37.813c0.595-6.227-0.096-11.843-1.833-16.696c-9.653,6.696-26.214,19.402-37.976,34.969
	c-1.799,2.379-4.531,3.629-7.304,3.629c-1.92,0-3.853-0.603-5.504-1.848c-4.027-3.045-4.826-8.777-1.781-12.808
	c12.738-16.857,29.827-30.324,40.659-37.951c-4.019-2.075-8.632-3.134-13.619-3.134c-14.594,0-32.094,8.549-45.228,23.665
	c-19.509,22.442-23.348,52.388-8.388,65.393C226.942,184.571,237.08,186.366,248.576,183.616z"/>
<g>
	<rect x="320" y="393.143" style="fill:#E9E7D1;" width="27.429" height="36.571"/>
	<path style="fill:#E9E7D1;" d="M374.857,246.857V146.286V34.491C356.875,29.982,305.429,18.286,256,18.286
		S155.125,29.982,137.143,34.491v111.795v100.571H374.857z M214.598,101.156c26.455-30.446,66.558-39.053,89.388-19.214
		c11.504,10,16.906,25.317,15.201,43.125c-1.594,16.67-9.33,33.741-21.786,48.067s-28.281,24.366-44.567,28.263
		c-4.964,1.187-9.813,1.777-14.469,1.777c-11.656,0-22.129-3.683-30.353-10.826C185.187,172.504,188.143,131.594,214.598,101.156z"
		/>
</g>
<polygon style="fill:#E4AD40;" points="210.286,484.571 301.714,484.571 301.714,438.857 301.714,384 301.714,374.857 
	210.286,374.857 "/>
<path style="fill:#E9E7D1;" d="M393.143,155.429V256c0,5.049-4.094,9.143-9.143,9.143H128c-5.049,0-9.143-4.094-9.143-9.143V155.429
	H82.286v338.286H192v-128c0-5.049,4.094-9.143,9.143-9.143h109.714c5.049,0,9.143,4.094,9.143,9.143v9.143h36.571
	c5.049,0,9.143,4.094,9.143,9.143v54.857c0,5.049-4.094,9.143-9.143,9.143H320v45.714h109.714V155.429H393.143z M292.571,292.571
	h-73.143v-18.286h73.143V292.571z"/>
<g>
	<path style="fill:#314E55;" d="M448,493.714V146.286c0-5.049-4.094-9.143-9.143-9.143h-45.714V27.429
		c0-4.098-2.723-7.692-6.67-8.804C383.768,17.866,319.496,0,256,0S128.232,17.866,125.527,18.625
		c-3.947,1.112-6.67,4.705-6.67,8.804v109.714H73.143c-5.049,0-9.143,4.094-9.143,9.143v347.429H27.429V512h45.714h365.714h45.714
		v-18.286H448z M137.143,34.491C155.125,29.982,206.571,18.286,256,18.286s100.875,11.696,118.857,16.205v111.795v100.571H137.143
		V146.286V34.491z M320,393.143h27.429v36.571H320V393.143z M301.714,384v54.857v45.714h-91.429V374.857h91.429V384z M320,493.714
		V448h36.571c5.049,0,9.143-4.094,9.143-9.143V384c0-5.049-4.094-9.143-9.143-9.143H320v-9.143c0-5.049-4.094-9.143-9.143-9.143
		H201.143c-5.049,0-9.143,4.094-9.143,9.143v128H82.286V155.429h36.571V256c0,5.049,4.094,9.143,9.143,9.143h256
		c5.049,0,9.143-4.094,9.143-9.143V155.429h36.571v338.286H320z"/>
	<rect x="219.429" y="274.286" style="fill:#314E55;" width="73.143" height="18.286"/>
	<path style="fill:#314E55;" d="M208.013,192.348c8.223,7.143,18.696,10.826,30.353,10.826c4.656,0,9.504-0.589,14.469-1.777
		c16.286-3.897,32.112-13.938,44.567-28.263c12.455-14.326,20.192-31.397,21.786-48.067c1.705-17.808-3.696-33.125-15.201-43.125
		c-22.83-19.839-62.933-11.232-89.388,19.214C188.143,131.594,185.187,172.504,208.013,192.348z M228.402,113.152
		c13.134-15.116,30.634-23.665,45.228-23.665c4.987,0,9.599,1.059,13.619,3.134c-10.833,7.627-27.921,21.094-40.659,37.951
		c-3.045,4.031-2.245,9.763,1.781,12.808c1.652,1.245,3.585,1.848,5.504,1.848c2.772,0,5.504-1.25,7.304-3.629
		c11.762-15.567,28.322-28.272,37.976-34.969c1.737,4.854,2.428,10.47,1.833,16.696c-1.237,12.906-7.411,26.335-17.388,37.813
		c-9.973,11.473-22.411,19.455-35.022,22.478c-11.496,2.75-21.634,0.955-28.563-5.072
		C205.053,165.54,208.893,135.594,228.402,113.152z"/>
</g>
<g>
</g>
<g>
</g>
<g>
</g>
<g>
</g>
<g>
</g>
<g>
</g>
<g>
</g>
<g>
</g>
<g>
</g>
<g>
</g>
<g>
</g>
<g>
</g>
<g>
</g>
<g>
</g>
<g>
</g>
</svg>
