<?xml version="1.0" encoding="iso-8859-1"?>
<!-- Generator: Adobe Illustrator 19.0.0, SVG Export Plug-In . SVG Version: 6.00 Build 0)  -->
<svg version="1.1" id="Layer_1" xmlns="http://www.w3.org/2000/svg" xmlns:xlink="http://www.w3.org/1999/xlink" x="0px" y="0px"
	 viewBox="0 0 512 512" style="enable-background:new 0 0 512 512;" xml:space="preserve">
<path style="fill:#E4AD40;" d="M466.693,99.602c-1.705-2.568-7.414-4.534-12.946-6.437c-7.559-2.6-16.117-5.553-22.751-12.176
	c-7.008-7.008-10.845-15.764-14.235-23.489c-2.984-6.8-5.802-13.227-9.701-15.608c-76.458-46.594-172.308-13.133-284.942,99.511
	C18.334,245.187-10.376,385.365,58.117,453.868c68.503,68.503,208.671,39.763,312.466-64.001
	C485.774,274.666,518.112,177.006,466.693,99.602z M407.309,120.024c-2.683-0.083-5.334-0.135-7.923-0.135
	c-100.967,0-127.68,69.398-155.931,142.778c-27.087,70.323-55.09,143.048-149.276,153.404c-0.395,0.042-0.79,0.062-1.175,0.062
	c-5.365,0-9.972-4.034-10.575-9.483c-0.645-5.844,3.577-11.105,9.421-11.75c81.304-8.943,105.791-72.548,131.735-139.887
	c28.969-75.231,62.161-160.527,184.454-156.264c5.875,0.198,10.481,5.126,10.273,11.001
	C418.113,115.625,413.184,120.492,407.309,120.024z"/>
<g>
	<path style="fill:#314E55;" d="M484.433,87.821c-5.688-8.579-15.285-11.875-23.75-14.797c-5.906-2.028-11.48-3.951-14.63-7.092
		c-4.17-4.18-6.905-10.398-9.785-16.98c-3.983-9.078-8.495-19.372-18.124-25.237c-85.92-52.365-190.588-17.864-311.083,102.63
		C-5.031,238.438-33.741,392.113,43.061,468.925c29.115,29.105,69.252,43.059,114.006,43.059
		c73.318,0,158.968-37.454,228.573-107.06C509.014,281.549,542.257,174.864,484.433,87.821z M370.583,389.867
		C266.788,493.631,126.621,522.371,58.117,453.868c-68.493-68.503-39.784-208.682,64.001-312.466
		C234.751,28.759,330.602-4.703,407.06,41.892c3.899,2.381,6.717,8.807,9.701,15.608c3.39,7.726,7.227,16.481,14.235,23.489
		c6.634,6.624,15.192,9.577,22.751,12.176c5.532,1.903,11.241,3.868,12.946,6.437C518.112,177.006,485.774,274.666,370.583,389.867z
		"/>
	<path style="fill:#314E55;" d="M408.037,98.749c-122.293-4.263-155.484,81.033-184.454,156.264
		C197.64,322.352,173.152,385.957,91.849,394.9c-5.844,0.645-10.065,5.906-9.421,11.75c0.603,5.449,5.209,9.483,10.575,9.483
		c0.385,0,0.78-0.021,1.175-0.062c94.187-10.357,122.189-83.081,149.276-153.404c28.252-73.38,54.965-142.778,155.931-142.778
		c2.589,0,5.241,0.052,7.924,0.135c5.875,0.468,10.804-4.398,11.001-10.273C418.519,103.875,413.912,98.946,408.037,98.749z"/>
</g>
<g>
</g>
<g>
</g>
<g>
</g>
<g>
</g>
<g>
</g>
<g>
</g>
<g>
</g>
<g>
</g>
<g>
</g>
<g>
</g>
<g>
</g>
<g>
</g>
<g>
</g>
<g>
</g>
<g>
</g>
</svg>
