<?xml version="1.0" encoding="iso-8859-1"?>
<!-- Generator: Adobe Illustrator 19.0.0, SVG Export Plug-In . SVG Version: 6.00 Build 0)  -->
<svg version="1.1" id="Layer_1" xmlns="http://www.w3.org/2000/svg" xmlns:xlink="http://www.w3.org/1999/xlink" x="0px" y="0px"
	 viewBox="0 0 512.002 512.002" style="enable-background:new 0 0 512.002 512.002;" xml:space="preserve">
<path style="fill:#73C9C9;" d="M98.232,415.536c0,27.523,22.4,49.918,49.937,49.918h132.855c27.536,0,49.937-22.395,49.937-49.918
	V204.799H98.232V415.536z M126.159,232.726h18.618v149.278h-18.618V232.726z"/>
<g>
	<rect x="126.159" y="493.384" style="fill:#314E55;" width="176.874" height="18.618"/>
	<path style="fill:#314E55;" d="M441.579,250.571c-0.4-4.823-4.427-8.536-9.273-8.536h-82.727v-37.237h9.309V186.18h-18.618H88.923
		H70.304v18.618h9.309v210.737c0,37.791,30.755,68.537,68.555,68.537h132.855c37.8,0,68.555-30.746,68.555-68.537v-47.118
		c0.387-0.107,0.782-0.077,1.164-0.236C446.87,327.776,441.842,253.703,441.579,250.571z M330.96,415.536
		c0,27.523-22.4,49.918-49.937,49.918H148.168c-27.536,0-49.937-22.395-49.937-49.918V204.799H330.96V415.536z M349.578,348.24
		v-87.587h73.109C420.744,278.569,409.475,320.649,349.578,348.24z"/>
	<rect x="126.159" y="232.728" style="fill:#314E55;" width="18.618" height="149.272"/>
	<path style="fill:#314E55;" d="M174.441,160.562c-4.346,2.741-5.655,8.486-2.909,12.836c1.764,2.814,4.791,4.35,7.882,4.35
		c1.691,0,3.409-0.464,4.955-1.432c1.627-1.027,39.564-25.905,6.646-91.45c-8.882-17.695-11.209-33.068-6.909-45.691
		c5.036-14.805,17.945-21.277,18.3-21.45c4.627-2.182,6.627-7.691,4.473-12.336c-2.155-4.655-7.673-6.682-12.364-4.527
		c-0.818,0.382-20.1,9.541-27.9,31.923c-6.145,17.614-3.527,37.946,7.764,60.437C199.35,142.944,175.359,159.944,174.441,160.562z"
		/>
	<path style="fill:#314E55;" d="M241.314,138.58c-4.355,2.736-5.664,8.486-2.927,12.836c1.773,2.809,4.8,4.35,7.891,4.35
		c1.691,0,3.409-0.464,4.945-1.432c1.264-0.791,30.609-20.014,5.746-69.519c-6.091-12.132-7.736-22.564-4.891-31.009
		c3.264-9.691,11.473-13.873,11.955-14.114c4.609-2.186,6.609-7.686,4.455-12.327c-2.155-4.659-7.664-6.682-12.364-4.527
		c-1.582,0.736-15.646,7.668-21.546,24.596c-4.682,13.427-2.745,28.814,5.755,45.736
		C257.269,126.894,241.805,138.225,241.314,138.58z"/>
</g>
<g>
</g>
<g>
</g>
<g>
</g>
<g>
</g>
<g>
</g>
<g>
</g>
<g>
</g>
<g>
</g>
<g>
</g>
<g>
</g>
<g>
</g>
<g>
</g>
<g>
</g>
<g>
</g>
<g>
</g>
</svg>
