<?xml version="1.0" encoding="iso-8859-1"?>
<!-- Generator: Adobe Illustrator 19.0.0, SVG Export Plug-In . SVG Version: 6.00 Build 0)  -->
<svg version="1.1" id="Layer_1" xmlns="http://www.w3.org/2000/svg" xmlns:xlink="http://www.w3.org/1999/xlink" x="0px" y="0px"
	 viewBox="0 0 512 512" style="enable-background:new 0 0 512 512;" xml:space="preserve">
<path style="fill:#73C9C9;" d="M195.086,117.13l66.311-66.311c7.34-7.34,7.368-19.272,0.046-26.594
	c-7.331-7.331-19.263-7.295-26.594,0.055L35.888,223.241c-7.35,7.35-7.368,19.272-0.055,26.594
	c7.322,7.295,19.235,7.295,26.594-0.046l66.311-66.311L195.086,117.13z"/>
<rect x="150.916" y="158.074" transform="matrix(-0.7071 0.7071 -0.7071 -0.7071 446.7513 168.6338)" style="fill:#D8D8D8;" width="75.069" height="37.536"/>
<path style="fill:#314E55;" d="M497.646,495.981l-29.866-29.866l-7.854-38.599c-0.999-4.949-5.746-8.229-10.704-7.395l-32.734,5.352
	l4.949-33.284c0.44-2.951-0.55-5.929-2.658-8.028c-2.099-2.098-5.095-3.024-8.028-2.639l-33.192,5.022l5.306-32.789
	c0.467-2.905-0.449-5.865-2.483-7.991c-2.025-2.117-4.875-3.217-7.863-2.832l-41,4.747l11.547-31.552
	c1.146-3.143,0.541-6.653-1.604-9.228c-2.135-2.575-5.48-3.757-8.779-3.253l-46.508,7.89l18.759-50.026
	c1.283-3.427,0.458-7.276-2.098-9.879c-2.566-2.603-6.415-3.492-9.842-2.254l-48.909,17.458l10.264-35.556
	c0.944-3.281,0.037-6.818-2.383-9.237l-27.813-27.813l24.019-24.019c1.76-1.759,2.749-4.142,2.749-6.635
	c0-2.493-0.99-4.875-2.749-6.635l-33.182-33.174l59.676-59.676c14.662-14.662,14.681-38.498,0.046-53.133
	c-14.626-14.635-38.471-14.598-53.133,0.055L22.618,209.971c-14.662,14.662-14.69,38.498-0.055,53.133
	c7.313,7.313,16.917,10.96,26.53,10.96c9.631,0,19.272-3.666,26.603-11.006l59.676-59.676l33.174,33.182
	c1.759,1.759,4.142,2.749,6.635,2.749c2.493,0,4.875-0.99,6.635-2.749l29.068-29.068l23.9,23.9l-13.81,47.836
	c-0.971,3.382,0.027,7.029,2.593,9.439c2.566,2.419,6.287,3.171,9.576,1.998l47.121-16.825l-17.393,46.37
	c-1.173,3.153-0.586,6.681,1.549,9.274c2.154,2.594,5.517,3.812,8.807,3.281l46.663-7.918l-11.226,30.672
	c-1.118,3.061-0.568,6.479,1.448,9.036c2.016,2.557,5.132,3.922,8.449,3.51l43.795-5.068l-5.379,33.238
	c-0.476,2.96,0.486,5.975,2.594,8.101c2.117,2.135,5.114,3.097,8.074,2.685l33.366-5.049l-4.976,33.449
	c-0.44,2.969,0.559,5.966,2.694,8.064c2.135,2.108,5.178,3.07,8.101,2.584l36.51-5.966l6.616,32.514
	c0.366,1.805,1.256,3.464,2.557,4.765l31.863,31.863c1.833,1.833,4.234,2.749,6.635,2.749c2.401,0,4.802-0.916,6.635-2.749
	C501.312,505.585,501.312,499.647,497.646,495.981z M62.427,249.789c-7.359,7.34-19.272,7.34-26.594,0.046
	c-7.313-7.322-7.295-19.244,0.055-26.594L234.849,24.28c7.331-7.35,19.263-7.386,26.594-0.055
	c7.322,7.322,7.295,19.254-0.046,26.594l-66.311,66.311l-66.348,66.348L62.427,249.789z M175.182,216.661l-26.539-26.548
	l53.078-53.078l26.548,26.539L175.182,216.661z"/>
<g>
</g>
<g>
</g>
<g>
</g>
<g>
</g>
<g>
</g>
<g>
</g>
<g>
</g>
<g>
</g>
<g>
</g>
<g>
</g>
<g>
</g>
<g>
</g>
<g>
</g>
<g>
</g>
<g>
</g>
</svg>
