<?xml version="1.0" encoding="iso-8859-1"?>
<!-- Generator: Adobe Illustrator 19.0.0, SVG Export Plug-In . SVG Version: 6.00 Build 0)  -->
<svg version="1.1" id="Layer_1" xmlns="http://www.w3.org/2000/svg" xmlns:xlink="http://www.w3.org/1999/xlink" x="0px" y="0px"
	 viewBox="0 0 512 512" style="enable-background:new 0 0 512 512;" xml:space="preserve">
<path style="fill:#E65F58;" d="M362.121,295.001l-31.124,32.954c6.328,9.296,12.187,19.382,17.578,30.104l31.737-31.737
	C374.781,315.056,368.696,304.578,362.121,295.001z"/>
<path style="fill:#EA86A5;" d="M151.065,273.622c0.533-0.693,1.113-1.279,1.652-1.961c2.567-3.248,5.208-6.348,7.89-9.364
	c1.369-1.538,2.735-3.073,4.131-4.545c2.909-3.074,5.891-5.979,8.919-8.776c1.129-1.038,2.252-2.079,3.395-3.076
	c3.47-3.041,7.017-5.876,10.625-8.543c0.686-0.503,1.368-1.01,2.058-1.499c4.06-2.898,8.201-5.548,12.417-7.953
	c0.249-0.141,0.497-0.282,0.746-0.421c12.112-6.811,24.825-11.538,37.975-13.934c2.784,0.333,4.618,0.528,7.339,0.047
	c0.3-0.053,1.026-1.378,1.308-1.278c3.737-0.383,7.494-0.646,11.29-0.646c0.052,0,0.103,0.005,0.156,0.005
	c0.026,0,0.053-0.005,0.079-0.005c1.289,0,2.563,0.099,3.845,0.142c1.313,0.047,2.632,0.053,3.938,0.146
	c2.304,0.159,4.59,0.423,6.869,0.721c0.299,0.04,0.603,0.059,0.902,0.1c2.551,0.354,5.083,0.807,7.601,1.332
	c0.011,0.002,0.021,0.004,0.032,0.006c74.081,15.461,133.467,104.063,147.066,221.127c32.901-45.375,50.809-101.68,50.809-161.033
	c0-140.593-101.43-254.971-226.106-254.971S29.894,133.621,29.894,274.214c0,63.931,21.461,125.503,59.491,172.323
	c6.265-69.294,28.89-129.907,61.313-172.214C150.843,274.098,150.899,273.838,151.065,273.622z M262.977,29.231
	c5.116-1.4,10.439,1.503,11.895,6.615l9.622,33.675c1.461,5.102-1.499,10.43-6.605,11.895c-0.883,0.244-1.776,0.367-2.65,0.367
	c-4.186,0-8.038-2.753-9.246-6.981l-9.622-33.675C254.91,36.025,257.87,30.697,262.977,29.231z M260.811,86.594
	c21.221,0,38.486,17.261,38.486,38.486c0,14.725-8.404,27.39-20.579,33.859c1.433-0.204,2.91-0.18,4.38,0.314
	c5.041,1.672,7.766,7.122,6.084,12.168l-9.622,28.865c-1.344,4.031-5.097,6.577-9.128,6.577c-1.005,0-2.034-0.16-3.044-0.498
	c-5.041-1.672-7.766-7.122-6.084-12.168l9.622-28.865c0.595-1.786,1.765-3.144,3.122-4.257c-4.145,1.53-8.567,2.491-13.237,2.491
	c-21.221,0-38.486-17.261-38.486-38.486S239.59,86.594,260.811,86.594z"/>
<path style="fill:#D8D8D8;" d="M260.811,144.323c10.613,0,19.243-8.635,19.243-19.243s-8.63-19.243-19.243-19.243
	c-10.613,0-19.243,8.635-19.243,19.243S250.198,144.323,260.811,144.323z"/>
<g>
	<path style="fill:#E65F58;" d="M397.622,388.47c1.198-1.496,2.802-2.371,4.497-2.939c-3.735-14.179-8.23-27.69-13.398-40.408
		l-31.565,31.565c5.769,13.713,10.775,28.322,14.932,43.698L397.622,388.47z"/>
	<path style="fill:#E65F58;" d="M350.347,279.443c-8.704-10.42-18.046-19.409-27.914-26.689l-23.065,38.441
		c6.968,6.315,13.642,13.348,19.957,21.095L350.347,279.443z"/>
	<path style="fill:#E65F58;" d="M407.153,407.363l-29.447,36.808c2.657,13.079,4.757,26.586,6.174,40.505
		c10.614-8.206,20.603-17.44,29.861-27.576C412.563,439.949,410.327,423.318,407.153,407.363z"/>
	<path style="fill:#E65F58;" d="M306.112,242.551c-14.367-7.499-29.544-11.606-45.175-11.628c-2.388,0.003-4.761,0.15-7.131,0.332
		l-2.904,11.615c-1.094,4.379-5.017,7.291-9.325,7.291c-0.775,0-1.56-0.094-2.344-0.291c-4.369-1.09-7.287-5.008-7.287-9.321
		c-0.005-0.77,0.089-1.56,0.286-2.34l0.745-2.977c-13.554,4.159-26.658,11.276-39.052,21.356c6.281-1.081,12.628-1.616,19.013-1.616
		c25.392,0,49.522,8.599,71.294,24.047L306.112,242.551z"/>
</g>
<g>
	<path style="fill:#314E55;" d="M501.35,274.214C501.35,123.013,391.284,0,256,0S10.65,123.013,10.65,274.214
		c0,76.907,29.161,150.76,80.012,202.626c1.842,1.879,4.332,2.885,6.869,2.885c1.17,0,2.344-0.216,3.477-0.648
		c3.585-1.391,5.999-4.783,6.14-8.625c2.698-74.167,24.509-139.416,57.167-183.023c15.669-8.728,32.019-13.214,48.623-13.214
		c49.228,0,94.191,40.162,122.646,102.084c1.068,2.294,1.454,3.278,2.491,5.562c7.903,18.187,14.391,38.137,19.204,59.407
		c0.599,2.446,0.95,4.466,1.423,6.526c3.655,17.626,6.185,36.089,7.372,55.187c0.211,3.42,2.236,6.483,5.314,8.015
		c1.353,0.667,2.823,1.005,4.289,1.005c1.856,0,3.707-0.536,5.309-1.597c18.289-12.093,35.141-26.826,50.09-43.785
		c0.236-0.268,0.325-0.618,0.527-0.908C476.576,414.202,501.35,346.26,501.35,274.214z M240.873,213.551
		c-13.15,2.396-25.863,7.123-37.975,13.934c-0.249,0.139-0.497,0.28-0.746,0.421c-4.216,2.405-8.357,5.055-12.417,7.953
		c-0.69,0.489-1.372,0.995-2.058,1.499c-3.608,2.667-7.155,5.502-10.625,8.543c-1.143,0.996-2.267,2.038-3.395,3.076
		c-3.027,2.797-6.01,5.702-8.919,8.776c-1.397,1.472-2.762,3.007-4.131,4.545c-2.682,3.016-5.323,6.116-7.89,9.364
		c-0.539,0.682-1.119,1.268-1.652,1.961c-0.166,0.216-0.222,0.476-0.367,0.701c-32.423,42.307-55.049,102.92-61.313,172.214
		c-38.03-46.82-59.491-108.393-59.491-172.323c0-140.593,101.43-254.971,226.106-254.971s226.106,114.378,226.106,254.971
		c0,59.354-17.908,115.658-50.809,161.033c-13.599-117.063-72.984-205.665-147.066-221.127c-0.011-0.002-0.021-0.004-0.032-0.006
		c-2.518-0.525-5.05-0.978-7.601-1.332c-0.299-0.042-0.603-0.06-0.902-0.1c-2.279-0.298-4.565-0.563-6.869-0.721
		c-1.306-0.093-2.625-0.099-3.938-0.146c-1.282-0.044-2.556-0.142-3.845-0.142c-0.026,0-0.053,0.005-0.079,0.005
		c-0.052,0-0.103-0.005-0.156-0.005c-3.795,0-7.553,0.263-11.29,0.646L240.873,213.551z M330.998,327.955l31.124-32.954
		c6.574,9.578,12.66,20.056,18.191,31.321l-31.737,31.737C343.185,347.337,337.326,337.251,330.998,327.955z M388.722,345.124
		c5.168,12.718,9.663,26.229,13.398,40.408c-1.695,0.567-3.299,1.442-4.497,2.939l-25.534,31.917
		c-4.157-15.376-9.164-29.985-14.932-43.698L388.722,345.124z M193.925,256.587c12.394-10.08,25.499-17.197,39.052-21.356
		l-0.745,2.977c-0.197,0.78-4.984,20.282-4.979,21.052c0,4.313,2.917,8.231,7.287,9.321c0.785,0.197,1.569,0.291,2.344,0.291
		c4.308,0,8.231-2.913,9.326-7.291l7.597-30.327c2.369-0.181,4.743-0.329,7.131-0.332c15.631,0.022,30.808,4.129,45.175,11.628
		l-21.88,36.467c-21.772-15.448-45.902-24.047-71.294-24.047C206.553,254.971,200.206,255.507,193.925,256.587z M299.367,291.194
		l23.065-38.441c9.868,7.281,19.211,16.269,27.915,26.689l-31.022,32.847C313.009,304.542,306.335,297.509,299.367,291.194z
		 M383.88,484.676c-1.417-13.919-3.516-27.426-6.174-40.505l29.447-36.808c3.174,15.954,5.41,32.586,6.588,49.737
		C404.483,467.236,394.494,476.47,383.88,484.676z"/>
	<path style="fill:#314E55;" d="M260.811,163.566c4.67,0,9.092-0.96,13.237-2.491c-1.357,1.113-2.527,2.471-3.122,4.257
		l-9.622,28.865c-1.682,5.046,1.043,10.495,6.084,12.168c1.01,0.338,2.039,0.498,3.044,0.498c4.031,0,7.785-2.546,9.128-6.577
		l9.622-28.865c1.682-5.046-1.043-10.495-6.084-12.168c-1.47-0.495-2.947-0.519-4.38-0.314
		c12.175-6.469,20.579-19.134,20.579-33.859c0-21.226-17.265-38.486-38.486-38.486s-38.486,17.261-38.486,38.486
		S239.59,163.566,260.811,163.566z M260.811,105.837c10.613,0,19.243,8.635,19.243,19.243s-8.63,19.243-19.243,19.243
		c-10.613,0-19.243-8.635-19.243-19.243S250.198,105.837,260.811,105.837z"/>
	<path style="fill:#314E55;" d="M265.993,74.802c1.207,4.228,5.06,6.981,9.246,6.981c0.874,0,1.767-0.122,2.65-0.366
		c5.107-1.466,8.066-6.793,6.605-11.895l-9.622-33.675c-1.456-5.111-6.779-8.015-11.895-6.615
		c-5.107,1.466-8.066,6.793-6.605,11.895L265.993,74.802z"/>
</g>
<g>
</g>
<g>
</g>
<g>
</g>
<g>
</g>
<g>
</g>
<g>
</g>
<g>
</g>
<g>
</g>
<g>
</g>
<g>
</g>
<g>
</g>
<g>
</g>
<g>
</g>
<g>
</g>
<g>
</g>
</svg>
