<?xml version="1.0" encoding="iso-8859-1"?>
<!-- Generator: Adobe Illustrator 19.0.0, SVG Export Plug-In . SVG Version: 6.00 Build 0)  -->
<svg version="1.1" id="Layer_1" xmlns="http://www.w3.org/2000/svg" xmlns:xlink="http://www.w3.org/1999/xlink" x="0px" y="0px"
	 viewBox="0 0 512 512" style="enable-background:new 0 0 512 512;" xml:space="preserve">
<g>
	<path style="fill:#E4AD40;" d="M210.202,283.105c4.89,5.295,15.384,4.578,23.333,3.037c0.282-0.053,0.938-0.181,1.884-1.712
		c10.163-16.436-1.967-81.425-12.967-122.976h-16.255c6.043,16.678,13.491,47.097,4.23,80.32
		C202.679,269.552,206.962,279.593,210.202,283.105z"/>
	<path style="fill:#E4AD40;" d="M185.1,141.77c0.221,0.183,0.32,0.44,0.519,0.638h141.897c2.573-10.055,9.374-34.057,18.638-47.035
		c-4.736-2.843-15.516-6.321-21.77-8.341c-9.01-2.909-16.792-5.423-21.761-8.658c-5.225-3.407-6.708-7.601-7.029-10.524
		c-0.805-7.333,4.485-12.751,9.604-17.989c4.534-4.635,9.666-9.89,9.666-15.014c0-7.703-27.774-16.818-51.235-16.818
		c-18.055,0-50.169,10.326-62.965,23.152c-0.735,0.735-0.995,1.219-1.03,1.342c0.088,1.659,4.472,6.497,6.827,9.094
		c6.638,7.315,15.723,17.338,11.162,30.133c-4.349,12.206-17.602,17.567-29.292,22.294c-8.064,3.257-17.201,6.954-18.883,11.396
		C166.807,122.412,177.225,135.274,185.1,141.77z"/>
</g>
<path style="fill:#EAEAEA;" d="M260.507,430.87h1.184c25.661,0,49.174-9.934,66.213-27.972
	c17.034-18.033,25.608-42.062,24.147-67.661l-9.969-174.8H240.825c8.153,31.431,25.652,108.044,9.933,133.473
	c-4.217,6.818-9.829,9.164-13.79,9.934c-4.991,0.964-9.635,1.448-13.913,1.448c-11.237,0-19.983-3.332-26.101-9.961
	c-10.427-11.303-11.699-30.406-3.895-58.4c9.599-34.421-2.047-65.977-6.694-76.495h-16.445l-9.97,174.8
	c-1.461,25.604,7.109,49.632,24.134,67.661c17.043,18.038,40.56,27.972,66.226,27.972L260.507,430.87L260.507,430.87z"/>
<path style="fill:#314E55;" d="M261.691,448.899c30.67,0,58.84-11.941,79.316-33.619c20.476-21.678,30.789-50.468,29.046-81.073
	L359.6,150.908c-0.273-4.771-4.221-8.499-9.001-8.499h-4.409c3.722-13.418,9.773-30.811,15.585-37.801
	c4.648-5.59,4.032-10.938,3.253-13.623c-3.134-10.788-17.949-15.573-35.107-21.11c-4.947-1.598-10.379-3.354-14.173-4.978
	c0.775-0.828,1.615-1.686,2.346-2.434c6.246-6.391,14.798-15.146,14.798-27.615C332.891,8.517,286.226,0,263.628,0
	c-22.391,0-58.999,11.682-75.729,28.443c-14.032,14.063-1.518,27.871,5.207,35.283c3.777,4.164,8.473,9.345,7.536,11.977
	c-1.633,4.578-10.898,8.323-19.072,11.629c-11.488,4.644-24.503,9.908-28.98,21.717c-4.606,12.153,1.534,24.477,8.393,33.441
	c-4.58,0.221-8.318,3.794-8.583,8.418l-10.454,183.299c-1.743,30.613,8.566,59.399,29.033,81.068
	c18.718,19.816,43.892,31.379,71.499,33.241v45.455h-45.072V512h108.173v-18.029h-45.072v-45.072H261.691z M169.447,115.44
	c1.681-4.441,10.819-8.138,18.883-11.396c11.691-4.727,24.944-10.088,29.292-22.294c4.56-12.795-4.525-22.818-11.162-30.133
	c-2.355-2.597-6.739-7.434-6.827-9.094c0.035-0.123,0.295-0.607,1.03-1.342c12.796-12.826,44.909-23.152,62.965-23.152
	c23.46,0,51.234,9.116,51.234,16.818c0,5.123-5.132,10.379-9.666,15.014c-5.119,5.238-10.41,10.656-9.604,17.989
	c0.321,2.923,1.805,7.117,7.029,10.524c4.969,3.235,12.751,5.749,21.761,8.658c6.255,2.02,17.034,5.498,21.77,8.341
	c-9.264,12.978-16.065,36.98-18.638,47.035H185.618c-0.199-0.198-0.298-0.455-0.519-0.638
	C177.225,135.274,166.807,122.412,169.447,115.44z M206.196,161.454h16.255c11,41.551,23.13,106.54,12.967,122.976
	c-0.946,1.532-1.602,1.659-1.884,1.712c-7.949,1.541-18.443,2.258-23.333-3.037c-3.24-3.512-7.522-13.553,0.224-41.331
	C219.687,208.551,212.24,178.132,206.196,161.454z M159.949,335.237l9.969-174.8h16.445c4.647,10.518,16.294,42.073,6.694,76.495
	c-7.804,27.994-6.532,47.097,3.895,58.4c6.118,6.629,14.864,9.961,26.101,9.961c4.278,0,8.922-0.484,13.913-1.448
	c3.961-0.77,9.573-3.116,13.79-9.934c15.719-25.429-1.779-102.043-9.933-133.473h101.257l9.97,174.8
	c1.461,25.6-7.113,49.628-24.147,67.661c-17.038,18.038-40.552,27.972-66.213,27.972h-1.184h-10.198
	c-25.666,0-49.183-9.934-66.226-27.972C167.057,384.869,158.488,360.841,159.949,335.237z"/>
<g>
</g>
<g>
</g>
<g>
</g>
<g>
</g>
<g>
</g>
<g>
</g>
<g>
</g>
<g>
</g>
<g>
</g>
<g>
</g>
<g>
</g>
<g>
</g>
<g>
</g>
<g>
</g>
<g>
</g>
</svg>
