<?xml version="1.0" encoding="iso-8859-1"?>
<!-- Generator: Adobe Illustrator 19.0.0, SVG Export Plug-In . SVG Version: 6.00 Build 0)  -->
<svg version="1.1" id="Layer_1" xmlns="http://www.w3.org/2000/svg" xmlns:xlink="http://www.w3.org/1999/xlink" x="0px" y="0px"
	 viewBox="0 0 512 512" style="enable-background:new 0 0 512 512;" xml:space="preserve">
<path style="fill:#EAEAEA;" d="M177.582,491.922H379.17l15.784-386.696c0.059-1.588,0.51-3.147,1.294-4.529l45.618-80.618H158.327
	L177.582,491.922z M199.837,52.618l1.574,37.735h56.887v20.078h-56.05l1.675,40.157h34.297v20.078h-33.46l1.675,40.157h61.903
	v20.078h-61.066l1.675,40.157h39.313v20.078h-38.476l2.093,50.196h66.501v20.078h-65.664l1.675,40.157h43.911v20.078h-43.073
	l1.554,37.265l-20.059,0.843L179.778,53.461L199.837,52.618z"/>
<g>
	<path style="fill:#314E55;" d="M467.759,4.98C465.955,1.902,462.651,0,459.082,0H147.866c-2.735,0-5.353,1.118-7.245,3.088
		s-2.902,4.628-2.784,7.363l3.375,82.681c-15.064-8.381-38.294-18.284-59.679-14.877c-13.539,2.147-24.5,9.088-32.598,20.657
		c-32.129,45.879,72.746,140.983,99.199,163.82l9.781,239.64c0.216,5.382,4.647,9.627,10.029,9.627h220.863
		c5.382,0,9.814-4.245,10.029-9.627l16.078-393.902l52.902-93.49C469.582,11.873,469.553,8.069,467.759,4.98z M65.386,110.422
		c4.912-7.01,11.206-11.049,19.255-12.333c19.898-3.109,45.883,11.208,57.556,19.187l4.795,117.468
		C100.084,191.428,50.448,131.762,65.386,110.422z M396.249,100.696c-0.784,1.382-1.235,2.941-1.294,4.529L379.17,491.922H177.582
		L158.327,20.078h283.539L396.249,100.696z"/>
	<polygon style="fill:#314E55;" points="216.778,458.912 215.224,421.647 258.298,421.647 258.298,401.569 214.387,401.569 
		212.712,361.412 278.376,361.412 278.376,341.333 211.876,341.333 209.783,291.137 248.259,291.137 248.259,271.059 
		208.946,271.059 207.271,230.902 268.337,230.902 268.337,210.824 206.434,210.824 204.759,170.667 238.219,170.667 
		238.219,150.588 203.922,150.588 202.248,110.431 258.298,110.431 258.298,90.353 201.411,90.353 199.837,52.618 179.778,53.461 
		196.719,459.755 	"/>
</g>
<g>
</g>
<g>
</g>
<g>
</g>
<g>
</g>
<g>
</g>
<g>
</g>
<g>
</g>
<g>
</g>
<g>
</g>
<g>
</g>
<g>
</g>
<g>
</g>
<g>
</g>
<g>
</g>
<g>
</g>
</svg>
