<?xml version="1.0" encoding="iso-8859-1"?>
<!-- Generator: Adobe Illustrator 19.0.0, SVG Export Plug-In . SVG Version: 6.00 Build 0)  -->
<svg version="1.1" id="Layer_1" xmlns="http://www.w3.org/2000/svg" xmlns:xlink="http://www.w3.org/1999/xlink" x="0px" y="0px"
	 viewBox="0 0 512 512" style="enable-background:new 0 0 512 512;" xml:space="preserve">
<path style="fill:#F58CAC;" d="M360.296,75.852c-5.065,0-10.139,0.444-15.079,1.324c-4.393,0.801-8.704-1.583-10.412-5.685
	C321.5,39.583,290.569,18.963,256,18.963s-65.5,20.62-78.806,52.528c-1.708,4.102-6.028,6.486-10.412,5.685
	c-4.94-0.88-10.014-1.324-15.079-1.324c-47.051,0-85.333,38.282-85.333,85.333s38.282,85.333,85.333,85.333h208.593
	c47.051,0,85.333-38.282,85.333-85.333S407.347,75.852,360.296,75.852z M161.185,218.074c5.236,0,9.481,4.245,9.481,9.481
	s-4.245,9.481-9.481,9.481c-41.824,0-75.852-34.028-75.852-75.852s34.028-75.852,75.852-75.852c5.236,0,9.481,4.245,9.481,9.481
	c0,5.236-4.245,9.481-9.481,9.481c-31.37,0-56.889,25.518-56.889,56.889S129.815,218.074,161.185,218.074z M350.815,237.037
	c-5.236,0-9.481-4.245-9.481-9.481s4.245-9.481,9.481-9.481c31.37,0,56.889-25.518,56.889-56.889s-25.518-56.889-56.889-56.889
	c-5.236,0-9.481-4.245-9.481-9.481c0-5.236,4.245-9.481,9.481-9.481c41.824,0,75.852,34.028,75.852,75.852
	S392.639,237.037,350.815,237.037z"/>
<path style="fill:#EAEAEA;" d="M150.546,493.037h210.907l25.972-199.111H124.574L150.546,493.037z M333.19,311.718l18.796,2.509
	l-21.472,161.019l-18.796-2.509L333.19,311.718z M246.519,312.889h18.963v161.185h-18.963V312.889z M178.81,311.718l21.472,161.019
	l-18.796,2.509l-21.472-161.019L178.81,311.718z"/>
<g>
	<path style="fill:#314E55;" d="M360.296,56.889c-3.699,0-7.403,0.194-11.074,0.583C331.593,22.329,295.764,0,256,0
		s-75.593,22.329-93.222,57.472c-3.671-0.389-7.375-0.583-11.074-0.583c-57.509,0-104.296,46.787-104.296,104.296
		s46.787,104.296,104.296,104.296h208.593c57.509,0,104.296-46.787,104.296-104.296S417.806,56.889,360.296,56.889z
		 M360.296,246.519H151.704c-47.051,0-85.333-38.282-85.333-85.333s38.282-85.333,85.333-85.333c5.065,0,10.139,0.444,15.079,1.324
		c4.384,0.801,8.704-1.583,10.412-5.685C190.5,39.583,221.431,18.963,256,18.963s65.5,20.62,78.806,52.528
		c1.708,4.102,6.019,6.486,10.412,5.685c4.94-0.88,10.014-1.324,15.079-1.324c47.051,0,85.333,38.282,85.333,85.333
		S407.347,246.519,360.296,246.519z"/>
	<path style="fill:#314E55;" d="M398.222,274.963H113.778c-2.727,0-5.324,1.176-7.125,3.227c-1.801,2.051-2.63,4.773-2.278,7.481
		l28.444,218.074c0.616,4.723,4.639,8.255,9.403,8.255h227.556c4.764,0,8.787-3.532,9.403-8.255l28.444-218.074
		c0.352-2.708-0.477-5.431-2.278-7.481S400.949,274.963,398.222,274.963z M361.454,493.037H150.546l-25.972-199.111h262.852
		L361.454,493.037z"/>
	
		<rect x="250.619" y="384.007" transform="matrix(-0.1323 0.9912 -0.9912 -0.1323 765.7707 116.6251)" style="fill:#314E55;" width="162.44" height="18.963"/>
	
		<rect x="170.669" y="312.239" transform="matrix(-0.9912 0.1322 -0.1322 -0.9912 410.7349 759.6459)" style="fill:#314E55;" width="18.963" height="162.438"/>
	<rect x="246.519" y="312.889" style="fill:#314E55;" width="18.963" height="161.185"/>
	<path style="fill:#314E55;" d="M350.815,85.333c-5.236,0-9.481,4.245-9.481,9.481c0,5.236,4.245,9.481,9.481,9.481
		c31.37,0,56.889,25.518,56.889,56.889s-25.518,56.889-56.889,56.889c-5.236,0-9.481,4.245-9.481,9.481s4.245,9.481,9.481,9.481
		c41.824,0,75.852-34.028,75.852-75.852S392.639,85.333,350.815,85.333z"/>
	<path style="fill:#314E55;" d="M161.185,104.296c5.236,0,9.481-4.245,9.481-9.481c0-5.236-4.245-9.481-9.481-9.481
		c-41.824,0-75.852,34.028-75.852,75.852s34.028,75.852,75.852,75.852c5.236,0,9.481-4.245,9.481-9.481s-4.245-9.481-9.481-9.481
		c-31.37,0-56.889-25.518-56.889-56.889S129.815,104.296,161.185,104.296z"/>
</g>
<g>
</g>
<g>
</g>
<g>
</g>
<g>
</g>
<g>
</g>
<g>
</g>
<g>
</g>
<g>
</g>
<g>
</g>
<g>
</g>
<g>
</g>
<g>
</g>
<g>
</g>
<g>
</g>
<g>
</g>
</svg>
