<?xml version="1.0" encoding="iso-8859-1"?>
<!-- Generator: Adobe Illustrator 19.0.0, SVG Export Plug-In . SVG Version: 6.00 Build 0)  -->
<svg version="1.1" id="Layer_1" xmlns="http://www.w3.org/2000/svg" xmlns:xlink="http://www.w3.org/1999/xlink" x="0px" y="0px"
	 viewBox="0 0 512 512" style="enable-background:new 0 0 512 512;" xml:space="preserve">
<path style="fill:#D26CBA;" d="M253.44,20.48c-76.52,0-139.22,81.785-143.16,184.32H396.6C392.66,102.265,329.96,20.48,253.44,20.48
	z"/>
<path style="fill:#E9E7D1;" d="M450.29,225.28h-43.25H99.84H61.71C67.05,327.815,152.16,409.6,256,409.6
	S444.95,327.815,450.29,225.28z M317.95,354.48c33.3-15.43,60.03-42.31,75.28-75.69c2.35-5.145,8.43-7.41,13.56-5.06
	c5.15,2.35,7.41,8.425,5.06,13.57c-17.27,37.82-47.56,68.275-85.28,85.76c-1.4,0.645-2.86,0.95-4.3,0.95
	c-3.87,0-7.57-2.195-9.3-5.935C310.59,362.945,312.82,356.855,317.95,354.48z"/>
<path style="fill:#D8D8D8;" d="M232.96,428.801v62.719h51.2v-63.503c-9.24,1.218-18.593,2.063-28.16,2.063
	C248.212,430.08,240.536,429.613,232.96,428.801z"/>
<g>
	<path style="fill:#314E55;" d="M471.04,215.04c0-5.655-4.58-10.24-10.24-10.24h-43.915C412.772,90.994,341.147,0,253.44,0
		S94.108,90.994,89.995,204.8H51.2c-5.66,0-10.24,4.585-10.24,10.24c0,103.667,73.743,190.424,171.52,210.602v65.878h-51.2V512
		h61.44h71.68h61.44v-20.48h-51.2v-67.197C399.825,402.192,471.04,316.865,471.04,215.04z M253.44,20.48
		c76.52,0,139.22,81.785,143.16,184.32H110.28C114.22,102.265,176.92,20.48,253.44,20.48z M61.71,225.28h38.13h307.2h43.25
		C444.95,327.815,359.84,409.6,256,409.6S67.05,327.815,61.71,225.28z M284.16,491.52h-51.2v-62.719
		c7.576,0.811,15.252,1.279,23.04,1.279c9.567,0,18.92-0.845,28.16-2.063V491.52z"/>
	<path style="fill:#314E55;" d="M322.27,374.01c1.44,0,2.9-0.305,4.3-0.95c37.72-17.485,68.01-47.94,85.28-85.76
		c2.35-5.145,0.09-11.22-5.06-13.57c-5.13-2.35-11.21-0.085-13.56,5.06c-15.25,33.38-41.98,60.26-75.28,75.69
		c-5.13,2.375-7.36,8.465-4.98,13.595C314.7,371.815,318.4,374.01,322.27,374.01z"/>
</g>
<g>
</g>
<g>
</g>
<g>
</g>
<g>
</g>
<g>
</g>
<g>
</g>
<g>
</g>
<g>
</g>
<g>
</g>
<g>
</g>
<g>
</g>
<g>
</g>
<g>
</g>
<g>
</g>
<g>
</g>
</svg>
