<?xml version="1.0" encoding="iso-8859-1"?>
<!-- Generator: Adobe Illustrator 19.0.0, SVG Export Plug-In . SVG Version: 6.00 Build 0)  -->
<svg version="1.1" id="Layer_1" xmlns="http://www.w3.org/2000/svg" xmlns:xlink="http://www.w3.org/1999/xlink" x="0px" y="0px"
	 viewBox="0 0 512 512" style="enable-background:new 0 0 512 512;" xml:space="preserve">
<polygon style="fill:#E4AD40;" points="62.353,402.286 202.79,402.286 208.277,374.857 56.866,374.857 "/>
<g>
	<path style="fill:#E9E7D1;" d="M228.571,233.143c0-68.062-43.067-123.429-96-123.429s-96,55.366-96,123.429
		c0,24.652,5.594,48.241,16.219,68.571h159.563C222.978,281.384,228.571,257.795,228.571,233.143z M132.571,146.286
		c-32.768,0-59.429,38.964-59.429,86.857c0,5.053-4.094,9.143-9.143,9.143c-5.049,0-9.143-4.089-9.143-9.143
		C54.857,175.17,89.719,128,132.571,128c5.049,0,9.143,4.089,9.143,9.143S137.621,146.286,132.571,146.286z"/>
	<path style="fill:#E9E7D1;" d="M475.429,233.143c0-68.062-43.067-123.429-96-123.429s-96,55.366-96,123.429
		c0,24.652,5.594,48.241,16.219,68.571H459.21C469.835,281.384,475.429,257.795,475.429,233.143z M379.429,146.286
		c-32.768,0-59.429,38.964-59.429,86.857c0,5.053-4.094,9.143-9.143,9.143c-5.049,0-9.143-4.089-9.143-9.143
		c0-57.973,34.862-105.143,77.714-105.143c5.049,0,9.143,4.089,9.143,9.143S384.478,146.286,379.429,146.286z"/>
</g>
<polygon style="fill:#81A4E3;" points="294.237,320 217.763,320 47.379,320 18.286,320 18.286,356.571 45.714,356.571 
	219.429,356.571 292.571,356.571 466.286,356.571 493.714,356.571 493.714,320 464.621,320 "/>
<polygon style="fill:#E4AD40;" points="309.21,402.286 449.647,402.286 455.134,374.857 303.723,374.857 "/>
<g>
	<path style="fill:#314E55;" d="M132.571,128c-42.853,0-77.714,47.17-77.714,105.143c0,5.053,4.094,9.143,9.143,9.143
		c5.049,0,9.143-4.089,9.143-9.143c0-47.893,26.661-86.857,59.429-86.857c5.049,0,9.143-4.089,9.143-9.143S137.621,128,132.571,128z
		"/>
	<path style="fill:#314E55;" d="M379.429,128c-42.853,0-77.714,47.17-77.714,105.143c0,5.053,4.094,9.143,9.143,9.143
		c5.049,0,9.143-4.089,9.143-9.143c0-47.893,26.661-86.857,59.429-86.857c5.049,0,9.143-4.089,9.143-9.143S384.478,128,379.429,128z
		"/>
	<path style="fill:#314E55;" d="M502.857,301.714h-23.444c9.337-20.904,14.301-44.289,14.301-68.571
		c0-78.143-51.268-141.714-114.286-141.714S265.143,155,265.143,233.143c0,24.282,4.964,47.668,14.301,68.571h-46.888
		c9.337-20.904,14.301-44.289,14.301-68.571c0-78.143-51.268-141.714-114.286-141.714S18.286,155,18.286,233.143
		c0,24.282,4.964,47.668,14.301,68.571H9.143c-5.049,0-9.143,4.089-9.143,9.143v54.857c0,5.053,4.094,9.143,9.143,9.143H38.22
		l7.673,38.366c0.853,4.268,4.607,7.348,8.964,7.348h155.429c4.357,0,8.112-3.08,8.964-7.348l7.673-38.366h58.154l7.673,38.366
		c0.853,4.268,4.607,7.348,8.964,7.348h155.429c4.357,0,8.112-3.08,8.964-7.348l7.673-38.366h29.077
		c5.049,0,9.143-4.089,9.143-9.143v-54.857C512,305.804,507.906,301.714,502.857,301.714z M283.429,233.143
		c0-68.062,43.067-123.429,96-123.429s96,55.366,96,123.429c0,24.652-5.594,48.241-16.219,68.571H299.647
		C289.022,281.384,283.429,257.795,283.429,233.143z M36.571,233.143c0-68.062,43.067-123.429,96-123.429s96,55.366,96,123.429
		c0,24.652-5.594,48.241-16.219,68.571H52.79C42.165,281.384,36.571,257.795,36.571,233.143z M202.79,402.286H62.353l-5.487-27.429
		h151.411L202.79,402.286z M449.647,402.286H309.21l-5.487-27.429h151.411L449.647,402.286z M493.714,356.571h-27.429H292.571
		h-73.143H45.714H18.286V320h29.094h170.384h76.473h170.384h29.094V356.571z"/>
</g>
<g>
</g>
<g>
</g>
<g>
</g>
<g>
</g>
<g>
</g>
<g>
</g>
<g>
</g>
<g>
</g>
<g>
</g>
<g>
</g>
<g>
</g>
<g>
</g>
<g>
</g>
<g>
</g>
<g>
</g>
</svg>
