<?xml version="1.0" encoding="iso-8859-1"?>
<!-- Generator: Adobe Illustrator 19.0.0, SVG Export Plug-In . SVG Version: 6.00 Build 0)  -->
<svg version="1.1" id="Layer_1" xmlns="http://www.w3.org/2000/svg" xmlns:xlink="http://www.w3.org/1999/xlink" x="0px" y="0px"
	 viewBox="0 0 512 512" style="enable-background:new 0 0 512 512;" xml:space="preserve">
<g>
	<path style="fill:#C59981;" d="M117.044,447.466c47.252-69.709,17.631-135.544,5.77-156.517
		c-40.267,15.687-75.489,43.128-100.83,79.802c24.066,34.83,57.065,61.287,94.812,77.305
		C116.907,447.867,116.919,447.65,117.044,447.466z M69.533,341.342l37.809-18.905l8.926,17.852l-37.809,18.905L69.533,341.342z"/>
	<path style="fill:#C59981;" d="M202.665,275.955c-20.86,0-41.236,3.011-60.705,8.59c14.405,27.314,41.443,96.972-6.165,170.615
		c21.301,6.786,43.802,10.388,66.869,10.388c72.525,0,139.578-35.31,180.681-94.796C342.243,311.265,275.19,275.955,202.665,275.955
		z"/>
	<polygon style="fill:#C59981;" points="492.043,435.972 492.043,315.509 409.223,375.74 	"/>
</g>
<g>
	<path style="fill:#314E55;" d="M506.548,287.02c-3.333-1.7-7.362-1.384-10.398,0.823l-97.157,70.66
		c-44.887-64.292-117.613-102.505-196.328-102.505c-26.322,0-51.96,4.324-76.138,12.404c-1.972,0.024-3.955,0.452-5.678,1.692
		c-0.195,0.139-0.288,0.353-0.47,0.504c-48.088,17.55-89.937,50.269-118.771,94.721c-2.144,3.303-2.144,7.562,0,10.865
		c44.402,68.452,119.567,109.321,201.057,109.321c76.011,0,146.497-35.583,191.668-95.917l101.817,74.05
		c1.74,1.267,3.8,1.91,5.871,1.91c1.544,0,3.099-0.361,4.527-1.086c3.347-1.705,5.452-5.14,5.452-8.892V295.912
		C512,292.16,509.896,288.725,506.548,287.02z M21.984,370.751c25.34-36.674,60.562-64.115,100.83-79.802
		c11.861,20.973,41.482,86.808-5.77,156.517c-0.125,0.184-0.136,0.401-0.247,0.589C79.049,432.038,46.05,405.581,21.984,370.751z
		 M202.665,465.547c-23.067,0-45.569-3.602-66.869-10.388c47.608-73.643,20.569-143.301,6.165-170.615
		c19.468-5.579,39.844-8.59,60.705-8.59c72.525,0,139.578,35.31,180.681,94.796C342.243,430.237,275.19,465.547,202.665,465.547z
		 M492.043,435.972l-82.82-60.232l82.82-60.232V435.972z"/>
	
		<rect x="71.753" y="330.833" transform="matrix(-0.8944 0.4472 -0.4472 -0.8944 328.3858 604.1008)" style="fill:#314E55;" width="42.27" height="19.956"/>
	<path style="fill:#314E55;" d="M194.553,198.602c-4.663,2.938-6.066,9.097-3.128,13.759c1.895,3.016,5.14,4.663,8.454,4.663
		c1.817,0,3.654-0.497,5.306-1.535c1.749-1.101,42.409-27.768,7.128-98.027c-9.526-18.968-12.02-35.446-7.411-48.977
		c5.398-15.869,19.236-22.808,19.616-22.993c4.955-2.339,7.104-8.244,4.794-13.224c-2.324-5.004-8.263-7.153-13.253-4.853
		c-0.877,0.409-21.541,10.227-29.906,34.218c-6.583,18.88-3.781,40.674,8.327,64.783
		C221.244,179.716,195.527,197.939,194.553,198.602z"/>
	<path style="fill:#314E55;" d="M244.446,198.602c-4.663,2.938-6.066,9.097-3.128,13.759c1.895,3.016,5.14,4.663,8.454,4.663
		c1.817,0,3.654-0.497,5.306-1.535c1.749-1.101,42.409-27.768,7.128-98.027c-9.526-18.968-12.02-35.446-7.411-48.977
		c5.399-15.869,19.236-22.807,19.616-22.993c4.955-2.339,7.104-8.244,4.794-13.224c-2.324-5.004-8.268-7.153-13.253-4.853
		c-0.877,0.409-21.541,10.227-29.906,34.218c-6.583,18.88-3.781,40.674,8.327,64.783
		C271.136,179.716,245.42,197.939,244.446,198.602z"/>
	<path style="fill:#314E55;" d="M294.338,198.602c-4.663,2.938-6.066,9.097-3.128,13.759c1.895,3.016,5.14,4.663,8.454,4.663
		c1.817,0,3.654-0.497,5.306-1.535c1.749-1.101,42.409-27.768,7.128-98.027c-9.526-18.968-12.02-35.446-7.411-48.977
		c5.399-15.869,19.236-22.807,19.616-22.993c4.955-2.339,7.104-8.244,4.794-13.224c-2.319-5.004-8.254-7.153-13.253-4.853
		c-0.877,0.409-21.541,10.227-29.906,34.218c-6.583,18.88-3.781,40.674,8.327,64.783
		C321.029,179.716,295.313,197.939,294.338,198.602z"/>
</g>
<g>
</g>
<g>
</g>
<g>
</g>
<g>
</g>
<g>
</g>
<g>
</g>
<g>
</g>
<g>
</g>
<g>
</g>
<g>
</g>
<g>
</g>
<g>
</g>
<g>
</g>
<g>
</g>
<g>
</g>
</svg>
