<?xml version="1.0" encoding="iso-8859-1"?>
<!-- Generator: Adobe Illustrator 19.0.0, SVG Export Plug-In . SVG Version: 6.00 Build 0)  -->
<svg version="1.1" id="Layer_1" xmlns="http://www.w3.org/2000/svg" xmlns:xlink="http://www.w3.org/1999/xlink" x="0px" y="0px"
	 viewBox="0 0 512 512" style="enable-background:new 0 0 512 512;" xml:space="preserve">
<g>
	<path style="fill:#E4AD40;" d="M139.091,422.207c1.166,22.25,10.88,43.002,26.96,58.126c14.41-16.719,21.9-38.376,20.734-60.626
		c-1.166-22.249-10.88-43.002-26.96-58.126C145.415,378.3,137.925,399.957,139.091,422.207z"/>
	<path style="fill:#E4AD40;" d="M83.287,316.206C61,315.077,39.38,322.529,22.661,336.94c15.119,16.08,35.876,25.789,58.126,26.955
		c22.236,1.17,43.907-6.319,60.621-20.729C126.294,327.085,105.537,317.371,83.287,316.206z"/>
	<path style="fill:#E4AD40;" d="M411.571,158.751l-3.749-18.729l80.024-16.011c7.372-38.402,7.543-75.765-4.625-87.934
		c-22.399-22.366-119.843,5.759-184.521,31.591l142.801,142.806c0.746,0.746,1.837,2.001,3.059,3.432
		c0.76,0.891,2.071,2.43,3.125,3.558c2.5-1.007,8.184-5.405,15.828-19.633c7.862-14.641,14.687-33.603,19.794-53.432
		L411.571,158.751z M392.049,62.506l20.258-20.258l13.505,13.505l-20.258,20.258L392.049,62.506z"/>
</g>
<g>
	<path style="fill:#314E55;" d="M496.726,22.572c-18.411-18.416-60.108-18.081-127.472,1.007
		c-47.395,13.426-89.404,31.166-91.172,31.917c-2.919,1.236-5.037,3.847-5.643,6.967c-0.606,3.115,0.373,6.333,2.621,8.576
		l67.735,67.74l-20.904,20.904L196.671,87.185l-9.574,16.532l120.815,69.946l-26.592,26.591l-91.476-52.271l-9.476,16.583
		l86.954,49.687l-31.385,31.385l-72.824-43.699l-9.831,16.378l68.731,41.244l-27.826,27.825l-37.208-24.803l-10.595,15.893
		l34.029,22.683l-27.023,27.024c-18.294-18.485-42.82-29.675-69.105-31.053c-30.597-1.604-60.453,10.25-81.654,32.537
		c-3.246,3.414-3.521,8.679-0.648,12.41c18.752,24.376,47.115,39.281,77.806,40.89c1.847,0.098,3.684,0.144,5.526,0.144
		c15.62,0,30.828-3.583,44.702-10.122c-7.307,15.506-10.92,32.678-10.001,50.214c1.609,30.691,16.513,59.049,40.894,77.806
		c1.726,1.329,3.777,1.982,5.825,1.982c2.378,0,4.747-0.886,6.585-2.63c22.287-21.2,34.146-50.963,32.537-81.654
		c-1.575-30.045-15.956-57.795-39.432-76.549l29.076-29.076l29.015,43.521l15.893-10.595l-28.782-43.17l-2.243-3.599l1.009-1.05
		l25.413-25.413l42.111,70.176l16.378-9.831l-44.566-74.269l33.252-33.253l55.44,97.015l16.583-9.476l-56.062-98.101l-2.244-3.579
		l1.808-1.383l25.019-25.02l75.75,130.835l16.532-9.574l-76.307-131.798l-2.07-3.31l1.566-1.624l17.302-17.302L428,223.989
		c0.504,0.499,1.208,1.352,2.015,2.299c4.845,5.689,8.114,9.21,12.675,10.134c1.371,0.28,2.738,0.42,4.099,0.42
		c11.589,0,22.856-10.059,33.549-29.972C504.967,161.004,528.298,54.144,496.726,22.572z M80.788,363.895
		c-22.25-1.166-43.007-10.875-58.126-26.955C39.38,322.529,61,315.077,83.287,316.205c22.25,1.166,43.007,10.88,58.121,26.96
		C124.694,357.575,103.023,365.065,80.788,363.895z M186.784,419.707c1.166,22.25-6.324,43.907-20.734,60.626
		c-16.08-15.124-25.794-35.876-26.96-58.126s6.324-43.907,20.734-60.626C175.905,376.705,185.619,397.458,186.784,419.707z
		 M463.513,197.832c-7.644,14.228-13.328,18.626-15.828,19.634c-1.054-1.129-2.364-2.668-3.125-3.558
		c-1.222-1.432-2.313-2.686-3.059-3.432L298.7,67.668c64.678-25.831,162.122-53.957,184.521-31.591
		c12.167,12.169,11.996,49.532,4.625,87.934l-80.024,16.011l3.749,18.729l71.736-14.352
		C478.199,164.228,471.375,183.19,463.513,197.832z"/>
	
		<rect x="394.598" y="49.589" transform="matrix(-0.7071 0.7071 -0.7071 -0.7071 739.8915 -188.1961)" style="fill:#314E55;" width="28.65" height="19.099"/>
</g>
<g>
</g>
<g>
</g>
<g>
</g>
<g>
</g>
<g>
</g>
<g>
</g>
<g>
</g>
<g>
</g>
<g>
</g>
<g>
</g>
<g>
</g>
<g>
</g>
<g>
</g>
<g>
</g>
<g>
</g>
</svg>
