<?xml version="1.0" encoding="iso-8859-1"?>
<!-- Generator: Adobe Illustrator 19.0.0, SVG Export Plug-In . SVG Version: 6.00 Build 0)  -->
<svg version="1.1" id="Layer_1" xmlns="http://www.w3.org/2000/svg" xmlns:xlink="http://www.w3.org/1999/xlink" x="0px" y="0px"
	 viewBox="0 0 512 512" style="enable-background:new 0 0 512 512;" xml:space="preserve">
<rect x="374.7" y="30.564" transform="matrix(-0.866 0.5 -0.5 -0.866 798.387 -53.3605)" style="fill:#E4AD40;" width="63.285" height="99.444"/>
<polygon style="fill:#D8D8D8;" points="380.316,152.728 388.143,148.208 338.417,62.088 330.59,66.607 322.762,71.128 
	372.488,157.248 "/>
<path style="fill:#E4AD40;" d="M273.204,146.477c0.42,0.885,0.562,1.811,0.68,2.732l28.134,48.725l54.807-31.643L307.1,80.169
	l-54.809,31.644l18.145,31.426C271.561,144.088,272.558,145.117,273.204,146.477z"/>
<path style="fill:#FFFFFF;" d="M325.685,349.533l-46.266,4.212c-0.852,0.088-1.735,0.026-2.591-0.141
	c-0.945-0.185-23.468-4.733-50.813-13.853c-19.526-6.498-50.848,4.106-61.275,8.732c-4.423,1.951-9.602,0.106-11.761-4.22
	c-0.216-0.38-7.545-13.085-32.598-13.085c-8.039,0-12.118,0.962-14.025,1.66c1.395,4.176-0.428,8.785-4.371,10.86
	c-4.092,2.163-9.156,0.874-11.73-2.984c-0.53-0.795-1.024-1.722-1.444-2.737c-2.075-3.417-9.165-11.134-28.156-3.011
	c-5.642,2.419-12.803,6.578-14.868,12.67c-1.836,5.412,1.011,10.586,1.037,10.639l0.013,0.026h290.532L325.685,349.533z"/>
<path style="fill:#D26CBA;" d="M34.491,376.382H30.54C38.853,441.975,136.8,493.918,256,493.918s217.147-51.943,225.46-117.535
	H364.494H34.491z"/>
<path style="fill:#314E55;" d="M491.071,358.3H367.507l-33.752-25.313c-1.792-1.351-4.062-1.995-6.242-1.775l-48.384,4.397
	c-5.046-1.068-24.717-5.448-47.391-13.006c-5.32-1.78-11.039-2.572-16.834-2.817c0.21-0.831,0.441-1.659,0.402-2.56
	c-3.495-80.367,43.417-117.137,60.818-127.969l14.752,25.549c1.678,2.905,4.715,4.521,7.841,4.521c1.532,0,3.09-0.389,4.512-1.21
	l70.466-40.684l0.005-0.002l15.659-9.041l86.13-49.726c2.075-1.201,3.593-3.178,4.212-5.492c0.622-2.313,0.296-4.785-0.901-6.86
	L420.031,4.529c-2.503-4.326-8.039-5.818-12.352-3.311L337.21,41.902l-0.003,0.001l-15.659,9.041l-86.13,49.726
	c-2.075,1.201-3.593,3.178-4.212,5.492c-0.622,2.313-0.296,4.785,0.901,6.86l7.852,13.6
	c-31.301,11.33-132.749,55.155-128.611,146.192c0.221,4.856,4.22,8.635,9.024,8.635c0.141,0,0.278,0,0.419-0.009
	c4.988-0.23,8.847-4.459,8.622-9.439c-3.68-80.957,96.35-121.14,119.763-129.417l2.622,4.54
	c-23.367,13.161-82.25,52.01-86.189,111.12c-0.335,4.98,3.435,9.288,8.419,9.624c0.203,0.009,0.406,0.018,0.609,0.018
	c4.719,0,8.692-3.664,9.01-8.441c3.328-49.911,56.621-84.896,77.219-96.615l6.217,10.768
	c-20.342,12.566-73.762,54.268-69.843,144.403c0.041,0.951,0.335,1.815,0.645,2.665c-13.79,1.85-26.48,5.884-33.852,8.627
	c-6.441-6.807-19.676-16.202-43.652-16.202c-8.207,0-18.85,0.698-25.848,5.607c-1.58-1.033-3.351-1.995-5.328-2.808
	c-10.11-4.212-22.108-3.373-35.675,2.454c-13.31,5.704-21.72,13.738-25,23.883c-1.97,6.088-1.639,11.668-0.683,16.069h-6.92
	c-4.993,0-9.041,4.044-9.041,9.041C11.888,447.105,121.398,512,256,512s244.112-64.895,244.112-144.659
	C500.112,362.344,496.064,358.3,491.071,358.3z M330.59,66.607l7.828-4.519l49.726,86.12l-7.827,4.521l-7.828,4.519l-49.726-86.12
	L330.59,66.607z M408.888,21.401l49.726,86.121l-54.809,31.644L354.08,53.044L408.888,21.401z M307.1,80.169l49.725,86.122
	l-54.807,31.643l-28.134-48.725c-0.119-0.921-0.26-1.848-0.68-2.732c-0.646-1.36-1.643-2.389-2.767-3.238l-18.145-31.426
	L307.1,80.169z M46.826,358.274c-0.026-0.053-2.874-5.227-1.037-10.639c2.066-6.092,9.227-10.251,14.868-12.67
	c18.992-8.123,26.082-0.406,28.156,3.011c0.419,1.015,0.914,1.943,1.444,2.737c2.574,3.858,7.637,5.147,11.73,2.984
	c3.942-2.075,5.766-6.684,4.371-10.86c1.907-0.698,5.986-1.66,14.025-1.66c25.053,0,32.381,12.705,32.598,13.085
	c2.159,4.326,7.337,6.172,11.761,4.22c10.427-4.627,41.749-15.231,61.275-8.732c27.344,9.121,49.868,13.668,50.813,13.853
	c0.856,0.168,1.739,0.23,2.591,0.141l46.266-4.212l11.685,8.768H46.839L46.826,358.274z M256,493.918
	c-119.2,0-217.147-51.943-225.46-117.535h3.951h330.003H481.46C473.147,441.975,375.2,493.918,256,493.918z"/>
<g>
</g>
<g>
</g>
<g>
</g>
<g>
</g>
<g>
</g>
<g>
</g>
<g>
</g>
<g>
</g>
<g>
</g>
<g>
</g>
<g>
</g>
<g>
</g>
<g>
</g>
<g>
</g>
<g>
</g>
</svg>
