<?xml version="1.0" encoding="iso-8859-1"?>
<!-- Generator: Adobe Illustrator 19.0.0, SVG Export Plug-In . SVG Version: 6.00 Build 0)  -->
<svg version="1.1" id="Layer_1" xmlns="http://www.w3.org/2000/svg" xmlns:xlink="http://www.w3.org/1999/xlink" x="0px" y="0px"
	 viewBox="0 0 512 512" style="enable-background:new 0 0 512 512;" xml:space="preserve">
<path style="fill:#E9E7D1;" d="M256,201.143c-82.634,0-150.411,64.821-155.161,146.286h310.321
	C406.411,265.964,338.634,201.143,256,201.143z M173.714,310.857h-27.429v-18.286h27.429V310.857z M201.143,228.571h27.429v18.286
	h-27.429V228.571z M256,329.143h-27.429v-18.286H256V329.143z M292.571,283.429h-27.429v-18.286h27.429V283.429z M338.286,320
	v-18.286h27.429V320H338.286z"/>
<rect x="265.143" y="45.714" style="fill:#73C9C9;" width="100.571" height="54.857"/>
<rect x="109.714" y="420.571" style="fill:#D8D8D8;" width="292.571" height="73.143"/>
<path style="fill:#EA86A5;" d="M429.652,365.714h-9.08H91.429h-9.08C72.232,365.714,64,373.92,64,384
	c0,10.08,8.232,18.286,18.348,18.286h18.223h310.857h18.223C439.768,402.286,448,394.08,448,384
	C448,373.92,439.768,365.714,429.652,365.714z"/>
<g>
	<path style="fill:#314E55;" d="M429.652,347.429h-0.401c-4.64-88.479-75.63-159.469-164.108-164.108v-64.463h109.714
		c5.054,0,9.143-4.089,9.143-9.143V36.571c0-5.053-4.089-9.143-9.143-9.143H265.143V0h-18.286v36.571v73.143v73.606
		c-88.479,4.64-159.469,75.629-164.108,164.108h-0.401c-20.196,0-36.634,16.402-36.634,36.571c0,20.17,16.437,36.571,36.634,36.571
		h9.08v82.286c0,5.053,4.089,9.143,9.143,9.143h310.857c5.053,0,9.143-4.089,9.143-9.143v-82.286h9.08
		c20.196,0,36.634-16.402,36.634-36.571C466.286,363.83,449.848,347.429,429.652,347.429z M365.714,45.714v54.857H265.143V45.714
		H365.714z M256,201.143c82.634,0,150.411,64.821,155.161,146.286H100.839C105.589,265.964,173.366,201.143,256,201.143z
		 M402.286,493.714H109.714v-73.143h292.571V493.714z M429.652,402.286h-18.223H100.571H82.348C72.232,402.286,64,394.08,64,384
		c0-10.08,8.232-18.286,18.348-18.286h9.08h329.143h9.08C439.768,365.714,448,373.92,448,384
		C448,394.08,439.768,402.286,429.652,402.286z"/>
	<rect x="201.143" y="228.571" style="fill:#314E55;" width="27.429" height="18.286"/>
	<rect x="265.143" y="265.143" style="fill:#314E55;" width="27.429" height="18.286"/>
	<rect x="146.286" y="292.571" style="fill:#314E55;" width="27.429" height="18.286"/>
	<rect x="338.286" y="301.714" style="fill:#314E55;" width="27.429" height="18.286"/>
	<rect x="228.571" y="310.857" style="fill:#314E55;" width="27.429" height="18.286"/>
</g>
<g>
</g>
<g>
</g>
<g>
</g>
<g>
</g>
<g>
</g>
<g>
</g>
<g>
</g>
<g>
</g>
<g>
</g>
<g>
</g>
<g>
</g>
<g>
</g>
<g>
</g>
<g>
</g>
<g>
</g>
</svg>
