<?xml version="1.0" encoding="iso-8859-1"?>
<!-- Generator: Adobe Illustrator 19.0.0, SVG Export Plug-In . SVG Version: 6.00 Build 0)  -->
<svg version="1.1" id="Layer_1" xmlns="http://www.w3.org/2000/svg" xmlns:xlink="http://www.w3.org/1999/xlink" x="0px" y="0px"
	 viewBox="0 0 512 512" style="enable-background:new 0 0 512 512;" xml:space="preserve">
<path style="fill:#E4AD40;" d="M353.231,161.517c0,29.598-41.802,51.916-97.231,51.916s-97.231-22.318-97.231-51.916
	c0-0.47,0.009-0.936,0.032-1.402H95.246l43.864,333.364h233.782l43.864-333.364H353.2
	C353.222,160.581,353.231,161.047,353.231,161.517z M256,373.098c-28.083,0-50.931-22.847-50.931-50.931
	s22.847-50.931,50.931-50.931s50.931,22.847,50.931,50.931S284.083,373.098,256,373.098z"/>
<path style="fill:#E65F58;" d="M256,289.757c-17.869,0-32.41,14.541-32.41,32.41c0,17.869,14.541,32.41,32.41,32.41
	s32.41-14.541,32.41-32.41C288.41,304.298,273.869,289.757,256,289.757z"/>
<g>
	<path style="fill:#314E55;" d="M434.275,144.751c-1.759-2.008-4.296-3.156-6.963-3.156h-86.113c-3.251,0-6.262,1.705-7.935,4.485
		c-1.673,2.785-1.768,6.244-0.244,9.115c1.139,2.143,1.691,4.214,1.691,6.321c0,15.767-33.663,33.396-78.711,33.396
		s-78.711-17.629-78.711-33.396c0-2.107,0.552-4.178,1.691-6.321c1.524-2.871,1.429-6.33-0.244-9.115
		c-1.673-2.781-4.684-4.485-7.935-4.485H84.688c-2.668,0-5.204,1.148-6.963,3.156c-1.759,2.003-2.564,4.666-2.215,7.311
		l46.301,351.885c0.606,4.607,4.531,8.053,9.179,8.053h250.023c4.648,0,8.573-3.445,9.179-8.053l46.301-351.885
		C436.839,149.417,436.034,146.754,434.275,144.751z M372.891,493.48H139.109L95.245,160.115H158.8
		c-0.023,0.466-0.032,0.931-0.032,1.402c0,29.598,41.802,51.916,97.231,51.916s97.231-22.318,97.231-51.916
		c0-0.47-0.009-0.936-0.032-1.402h63.555L372.891,493.48z"/>
	<path style="fill:#314E55;" d="M194.715,158.913c1.325,4.937,6.407,7.867,11.34,6.547c4.942-1.325,7.872-6.398,6.547-11.34
		l-29.39-109.693l26.261-7.036l24.819,122.479c0.891,4.39,4.752,7.42,9.066,7.42c0.61,0,1.225-0.059,1.849-0.185
		c5.01-1.013,8.252-5.901,7.234-10.915L225.669,24.058c-0.507-2.505-2.026-4.684-4.201-6.032c-2.161-1.347-4.802-1.736-7.271-1.072
		l-44.723,11.982c-2.374,0.633-4.395,2.188-5.625,4.314c-1.225,2.125-1.56,4.653-0.922,7.027L194.715,158.913z"/>
	<path style="fill:#314E55;" d="M283.36,164.352c0.316,0,0.642-0.014,0.968-0.05c5.087-0.529,8.781-5.082,8.252-10.169
		l-12.769-122.9l22.965,6.24l9.703,102.359c0.484,5.091,5.019,8.817,10.092,8.347c5.091-0.484,8.831-5.001,8.347-10.092
		L320.609,29.348c-0.366-3.839-3.07-7.054-6.791-8.062L271.631,9.819c-2.939-0.8-6.1-0.1-8.424,1.881
		c-2.329,1.976-3.531,4.974-3.215,8.012l14.166,136.338C274.651,160.812,278.671,164.352,283.36,164.352z"/>
	<path style="fill:#314E55;" d="M351.626,131.734c5.218,0.353,9.5-3.572,9.807-8.677l6.308-103.109l16.684,2.555l-4.698,100.6
		c-0.24,5.109,3.712,9.446,8.817,9.685c0.149,0.005,0.294,0.009,0.443,0.009c4.915,0,9.011-3.866,9.242-8.826l5.087-108.924
		c0.222-4.734-3.165-8.871-7.849-9.586L360.52,0.107c-2.577-0.393-5.191,0.307-7.216,1.944c-2.026,1.632-3.269,4.047-3.427,6.642
		l-6.927,113.233C342.637,127.031,346.521,131.422,351.626,131.734z"/>
	<path style="fill:#314E55;" d="M97.402,131.155c0.882,4.404,4.748,7.442,9.07,7.442c0.601,0,1.216-0.059,1.827-0.181
		c5.014-1.004,8.265-5.882,7.262-10.897L97.542,37.591l13.696-5.733l35.404,98.94c1.723,4.82,7.022,7.325,11.837,5.598
		c4.816-1.723,7.32-7.022,5.598-11.837L125.386,16.425c-0.854-2.392-2.654-4.327-4.983-5.354c-2.32-1.022-4.965-1.045-7.311-0.068
		l-29.693,12.43c-4.065,1.7-6.371,6.036-5.503,10.359L97.402,131.155z"/>
	<path style="fill:#314E55;" d="M256,271.237c-28.083,0-50.931,22.847-50.931,50.931s22.847,50.931,50.931,50.931
		s50.931-22.847,50.931-50.931S284.083,271.237,256,271.237z M256,354.578c-17.869,0-32.41-14.541-32.41-32.41
		c0-17.869,14.541-32.41,32.41-32.41s32.41,14.541,32.41,32.41C288.41,340.037,273.869,354.578,256,354.578z"/>
</g>
<g>
</g>
<g>
</g>
<g>
</g>
<g>
</g>
<g>
</g>
<g>
</g>
<g>
</g>
<g>
</g>
<g>
</g>
<g>
</g>
<g>
</g>
<g>
</g>
<g>
</g>
<g>
</g>
<g>
</g>
</svg>
