<?xml version="1.0" encoding="iso-8859-1"?>
<!-- Generator: Adobe Illustrator 19.0.0, SVG Export Plug-In . SVG Version: 6.00 Build 0)  -->
<svg version="1.1" id="Layer_1" xmlns="http://www.w3.org/2000/svg" xmlns:xlink="http://www.w3.org/1999/xlink" x="0px" y="0px"
	 viewBox="0 0 512 512" style="enable-background:new 0 0 512 512;" xml:space="preserve">
<g>
	<path style="fill:#E4AD40;" d="M320.147,156.415l57.194-57.186l14.173,14.173l-57.286,57.278c1.944,2.564,3.912,5.366,5.871,8.32
		l76.138-76.142c-0.277-0.374-0.563-0.795-0.839-1.163c-8.113-10.811-33.624-18.264-60.289-22.765l-60.663,60.663
		C302.972,144.478,312.471,150.405,320.147,156.415z"/>
	<path style="fill:#E4AD40;" d="M276.005,129.687l54.129-54.129c-6.514-0.675-12.804-1.188-18.551-1.505l-37.428,54.708
		C274.673,129.018,275.299,129.331,276.005,129.687z"/>
	<path style="fill:#E4AD40;" d="M360.853,214.942l77.959-77.959c-3.498-5.737-7.205-11.633-10.972-17.38l-76.977,76.981
		C355.134,204.049,358.703,210.785,360.853,214.942z"/>
</g>
<polygon style="fill:#81A4E3;" points="155.311,328.346 197.343,323.217 202.471,281.185 160.44,286.314 "/>
<path style="fill:#E4AD40;" d="M456.079,166.553c-1.8-3.213-4.117-7.29-6.712-11.778l-41.059,41.059L456.079,166.553z"/>
<path style="fill:#F28544;" d="M345.842,234.123l0.623-0.382c-0.158-2.074-0.563-4.059-1.436-5.716
	c-5.491-10.934-21.652-41.013-31.479-50.841c-11.511-11.511-40.142-26.566-50.205-31.401c-2.281-1.174-4.982-1.733-7.723-1.733
	c-4.875,0-9.896,1.742-12.999,4.845L23.021,368.498c-3.935,3.945-3.984,10.307-0.098,14.193l85.13,85.13
	c3.896,3.876,10.258,3.847,14.193-0.098L341.848,248.12c3.081-3.081,4.616-8.211,4.585-13.032L345.842,234.123z M216.283,333.426
	c-0.558,4.571-4.16,8.173-8.731,8.731l-62.528,7.635c-0.401,0.059-0.812,0.078-1.214,0.078c-2.643,0-5.198-1.047-7.087-2.937
	c-2.183-2.183-3.24-5.237-2.858-8.301l7.635-62.528c0.558-4.571,4.16-8.173,8.731-8.731l62.528-7.635
	c3.034-0.47,6.118,0.685,8.301,2.858c2.183,2.183,3.24,5.237,2.858,8.301L216.283,333.426z"/>
<g>
	<path style="fill:#314E55;" d="M212.759,259.739l-62.528,7.635c-4.571,0.558-8.173,4.16-8.731,8.731l-7.635,62.528
		c-0.382,3.064,0.675,6.118,2.858,8.301c1.889,1.889,4.444,2.937,7.087,2.937c0.401,0,0.812-0.02,1.214-0.078l62.528-7.635
		c4.571-0.558,8.173-4.16,8.731-8.731l7.635-62.528c0.382-3.064-0.675-6.118-2.858-8.301
		C218.877,260.424,215.793,259.269,212.759,259.739z M197.343,323.217l-42.031,5.129l5.129-42.031l42.031-5.129L197.343,323.217z"/>
	<path style="fill:#314E55;" d="M497.826,77.969l-44.434,44.434c-3.562-5.753-7.293-11.595-11.086-17.267L512,35.438l-14.173-14.173
		l-67.363,67.367c-10.974-13.441-34.458-21.75-58.205-26.851l26.343-26.343l-14.173-14.174l-36.295,36.295
		c-20.292-2.837-37.207-3.636-41.298-3.788c-3.387-0.255-6.705,1.517-8.643,4.356l-45.14,65.985
		c-9.141,0.588-18.168,4.186-24.602,10.609L8.848,354.324c-11.756,11.756-11.805,30.843-0.098,42.54l85.13,85.139
		c5.844,5.824,13.508,8.731,21.182,8.731c7.723,0,15.466-2.946,21.358-8.839l219.602-219.602c4.449-4.445,7.495-10.28,9.162-16.516
		l109.532-67.135c4.532-2.78,6.108-8.614,3.592-13.293c-0.484-0.899-6.174-11.422-14.267-25.248l47.959-47.959L497.826,77.969z
		 M438.812,136.983l-77.959,77.959c-2.149-4.158-5.719-10.893-9.99-18.357l76.977-76.981
		C431.607,125.35,435.313,131.247,438.812,136.983z M415.398,101.696c0.276,0.368,0.562,0.789,0.839,1.163l-76.138,76.142
		c-1.959-2.954-3.927-5.756-5.871-8.32l57.286-57.278l-14.173-14.173l-57.194,57.186c-7.675-6.01-17.175-11.938-25.701-16.822
		l60.663-60.663C381.774,83.431,407.285,90.884,415.398,101.696z M311.583,74.053c5.748,0.317,12.037,0.83,18.551,1.505
		l-54.129,54.129c-0.707-0.355-1.332-0.669-1.851-0.925L311.583,74.053z M122.246,467.723c-3.935,3.945-10.297,3.974-14.193,0.098
		l-85.129-85.13c-3.886-3.886-3.837-10.248,0.098-14.193l219.602-219.602c3.103-3.103,8.124-4.845,12.999-4.845
		c2.741,0,5.442,0.558,7.723,1.733c10.062,4.835,38.693,19.89,50.205,31.401c9.828,9.828,25.988,39.907,31.479,50.841
		c0.873,1.657,1.278,3.642,1.436,5.716l-0.623,0.382l0.592,0.965c0.031,4.821-1.504,9.95-4.585,13.032L122.246,467.723z
		 M456.079,166.553l-47.772,29.281l41.059-41.059C451.962,159.264,454.278,163.34,456.079,166.553z"/>
</g>
<g>
</g>
<g>
</g>
<g>
</g>
<g>
</g>
<g>
</g>
<g>
</g>
<g>
</g>
<g>
</g>
<g>
</g>
<g>
</g>
<g>
</g>
<g>
</g>
<g>
</g>
<g>
</g>
<g>
</g>
</svg>
