<?xml version="1.0" encoding="iso-8859-1"?>
<!-- Generator: Adobe Illustrator 19.0.0, SVG Export Plug-In . SVG Version: 6.00 Build 0)  -->
<svg version="1.1" id="Layer_1" xmlns="http://www.w3.org/2000/svg" xmlns:xlink="http://www.w3.org/1999/xlink" x="0px" y="0px"
	 viewBox="0 0 512 512" style="enable-background:new 0 0 512 512;" xml:space="preserve">
<path style="fill:#EAEAEA;" d="M52.93,137.143h191.938c5.143,0,9.174-3.982,9.174-9.072V27.357c0-5-4.116-9.072-9.174-9.072H52.93
	c-5.143,0-9.174,3.982-9.174,9.072v100.714C43.756,133.072,47.872,137.143,52.93,137.143z M208.327,36.571h18.286v73.143h-18.286
	V36.571z"/>
<path style="fill:#D8D8D8;" d="M244.867,155.429H52.93c-5.058,0-9.174,4.107-9.174,9.161v301.679c0,5.053,4.116,9.161,9.174,9.161
	h36.54h18.286h82.286h18.286h36.54c5.058,0,9.174-4.107,9.174-9.161V164.589C254.042,159.536,249.925,155.429,244.867,155.429z
	 M226.613,274.286h-18.286v-73.143h18.286V274.286z"/>
<g>
	<path style="fill:#314E55;" d="M244.867,0H52.93C37.787,0,25.47,12.277,25.47,27.357v100.714c0,7.026,2.749,13.377,7.136,18.228
		c-4.387,4.867-7.136,11.239-7.136,18.289v301.679c0,15.134,12.317,27.446,27.46,27.446h36.54V512h18.286v-18.286h82.286V512h18.286
		v-18.286h36.54c15.143,0,27.46-12.312,27.46-27.446V164.589c0-7.051-2.749-13.423-7.136-18.29
		c4.387-4.851,7.136-11.202,7.136-18.228V27.357C272.327,12.277,260.01,0,244.867,0z M43.756,27.357
		c0-5.089,4.031-9.072,9.174-9.072h191.938c5.058,0,9.174,4.071,9.174,9.072v100.714c0,5.089-4.031,9.071-9.174,9.071H52.93
		c-5.058,0-9.174-4.071-9.174-9.072V27.357z M254.042,466.268c0,5.053-4.116,9.161-9.174,9.161h-36.54h-18.286h-82.286H89.47H52.93
		c-5.058,0-9.174-4.107-9.174-9.161V164.589c0-5.053,4.116-9.161,9.174-9.161h191.938c5.058,0,9.174,4.107,9.174,9.161V466.268z"/>
	<rect x="208.327" y="36.571" style="fill:#314E55;" width="18.286" height="73.143"/>
	<rect x="208.327" y="201.143" style="fill:#314E55;" width="18.286" height="73.143"/>
	<path style="fill:#314E55;" d="M475.019,223.42l-33.808,9.055l-30.515-17.618l30.515-17.618l33.808,9.055
		c0.795,0.214,1.589,0.312,2.371,0.312c4.04,0,7.732-2.696,8.826-6.777c1.308-4.875-1.589-9.893-6.464-11.196l-16.145-4.324
		l4.882-2.819c4.375-2.527,5.871-8.116,3.348-12.491c-2.527-4.384-8.125-5.884-12.491-3.348l-4.884,2.82l4.326-16.141
		c1.308-4.875-1.585-9.893-6.464-11.196c-4.884-1.321-9.893,1.58-11.196,6.464l-9.059,33.803l-22.598,13.046v-26.09l24.75-24.75
		c3.571-3.571,3.571-9.357,0-12.928c-3.571-3.571-9.357-3.571-12.928,0L409.47,142.5v-5.357c0-5.053-4.094-9.143-9.143-9.143
		s-9.143,4.089-9.143,9.143v5.357l-11.822-11.821c-3.571-3.571-9.357-3.571-12.928,0c-3.571,3.571-3.571,9.357,0,12.928l24.75,24.75
		v35.235l-30.517-17.619l-9.059-33.804c-1.308-4.884-6.33-7.786-11.196-6.464c-4.88,1.304-7.772,6.321-6.464,11.196l4.326,16.142
		l-4.638-2.678c-4.393-2.527-9.973-1.018-12.491,3.348c-2.522,4.375-1.027,9.964,3.348,12.491l4.635,2.676l-16.144,4.324
		c-4.875,1.304-7.772,6.321-6.464,11.196c1.094,4.08,4.786,6.777,8.826,6.777c0.781,0,1.576-0.098,2.371-0.312l33.807-9.055
		l22.597,13.046l-22.597,13.046l-33.807-9.055c-4.92-1.339-9.893,1.598-11.196,6.464c-1.308,4.875,1.589,9.893,6.464,11.196
		l16.144,4.324l-4.635,2.676c-4.375,2.527-5.871,8.116-3.348,12.491c1.696,2.938,4.768,4.571,7.929,4.571
		c1.549,0,3.125-0.393,4.563-1.223l4.638-2.678l-4.326,16.142c-1.308,4.875,1.585,9.893,6.464,11.196
		c0.79,0.214,1.589,0.312,2.371,0.312c4.04,0,7.732-2.688,8.826-6.777l9.059-33.804l30.517-17.619v35.235l-24.75,24.75
		c-3.571,3.571-3.571,9.357,0,12.928c1.786,1.786,4.125,2.679,6.464,2.679c2.339,0,4.679-0.893,6.464-2.679l11.822-11.821v5.643
		c0,5.053,4.094,9.143,9.143,9.143s9.143-4.089,9.143-9.143v-5.643l11.822,11.821c1.786,1.786,4.125,2.679,6.464,2.679
		c2.339,0,4.679-0.893,6.464-2.679c3.571-3.571,3.571-9.357,0-12.928l-24.75-24.75v-26.09l22.598,13.046l9.059,33.803
		c1.094,4.089,4.786,6.777,8.826,6.777c0.781,0,1.58-0.098,2.37-0.312c4.88-1.304,7.772-6.321,6.464-11.196l-4.326-16.141
		l4.884,2.82c1.442,0.83,3.013,1.223,4.563,1.223c3.161,0,6.232-1.643,7.929-4.571c2.522-4.375,1.027-9.964-3.348-12.491
		l-4.882-2.819l16.145-4.324c4.875-1.304,7.772-6.321,6.464-11.196C484.908,225.018,479.921,222.08,475.019,223.42z"/>
</g>
<g>
</g>
<g>
</g>
<g>
</g>
<g>
</g>
<g>
</g>
<g>
</g>
<g>
</g>
<g>
</g>
<g>
</g>
<g>
</g>
<g>
</g>
<g>
</g>
<g>
</g>
<g>
</g>
<g>
</g>
</svg>
