<?xml version="1.0" encoding="iso-8859-1"?>
<!-- Generator: Adobe Illustrator 19.0.0, SVG Export Plug-In . SVG Version: 6.00 Build 0)  -->
<svg version="1.1" id="Layer_1" xmlns="http://www.w3.org/2000/svg" xmlns:xlink="http://www.w3.org/1999/xlink" x="0px" y="0px"
	 viewBox="0 0 512 512" style="enable-background:new 0 0 512 512;" xml:space="preserve">
<path style="fill:#E4AD40;" d="M153.052,112.172c-7.214,0-14.428,2.745-19.918,8.231c-10.972,10.981-10.972,28.842,0,39.823
	c10.99,10.99,28.855,10.972,39.828,0c10.972-10.981,10.972-28.842,0-39.823C167.471,114.918,160.257,112.172,153.052,112.172z"/>
<g>
	<path style="fill:#EAEAEA;" d="M238.188,93.597c-4.822-4.574-9.872-9.35-14.923-14.405c-22.971-22.966-53.742-18.594-77.977-12.209
		c-24.08,6.339-48.737,24.204-60.653,38.581c-11.586,13.988-15.198,39.484-10.156,71.79c4.079,26.202,29.552,42.591,36.417,46.565
		c27.563,0.701,96.429-4.304,117.108-35.909c15.638-23.919,26.014-32.439,32.879-38.077c5.527-4.537,6.682-5.481,8.039-12.585
		C271.297,124.95,256.686,111.114,238.188,93.597z M186.234,173.499c-9.148,9.153-21.165,13.726-33.182,13.726
		c-12.026,0-24.043-4.574-33.191-13.726c-18.296-18.296-18.296-48.072,0-66.368c18.296-18.287,48.077-18.305,66.373,0
		C204.53,125.427,204.53,155.203,186.234,173.499z"/>
	<path style="fill:#EAEAEA;" d="M298.713,281.285l-6.992,6.989c-0.021,0.021-0.037,0.044-0.057,0.064
		c-0.021,0.02-0.043,0.037-0.064,0.057l-13.631,13.628l158.787,180.681c5.72,6.508,13.429,10.239,21.715,10.509
		c8.506,0.192,16.234-2.965,22.347-9.084c6.114-6.118,9.34-14.056,9.065-22.352c-0.266-8.296-3.987-16.004-10.486-21.715
		L298.713,281.285z"/>
</g>
<path style="fill:#D8D8D8;" d="M278.468,274.981c58.472-58.566,58.45-153.775-0.077-212.307
	c-29.277-29.272-67.748-43.911-106.2-43.911C133.73,18.763,95.277,33.397,66,62.674C7.446,121.233,7.446,216.507,66,275.066
	c58.536,58.527,153.736,58.54,212.306,0.078L278.468,274.981z M243.716,198.285c-26.875,41.097-104.056,44.443-128.438,44.443
	c-4.116,0-6.719-0.096-7.333-0.124c-1.347-0.055-2.667-0.399-3.877-1.013c-1.705-0.871-41.982-21.793-48.141-61.346
	c-5.876-37.696-0.816-68.472,14.263-86.662c13.392-16.165,41.111-37.068,70.314-44.759c26.839-7.054,65.96-12.97,96.035,17.095
	c4.932,4.927,9.854,9.588,14.556,14.043c21.779,20.619,40.579,38.425,36.271,60.914c-2.512,13.112-7.177,17.498-14.565,23.567
	C266.815,169.351,257.786,176.771,243.716,198.285z"/>
<g>
	<path style="fill:#314E55;" d="M491.791,425.965L310.05,266.256c46.591-65.909,40.574-157.89-18.386-216.854
		c-65.887-65.869-173.068-65.869-238.937,0c-65.869,65.873-65.869,173.064,0,238.937c32.934,32.939,76.19,49.406,119.464,49.406
		c31.153,0,62.249-8.68,89.547-25.757l160.921,183.11c9.176,10.445,21.678,16.44,35.208,16.875c0.532,0.018,1.054,0.027,1.586,0.027
		c12.943,0,25.198-5.147,34.639-14.597c9.826-9.826,14.996-22.691,14.556-36.234C508.217,447.639,502.223,435.132,491.791,425.965z
		 M66,275.066C7.446,216.507,7.446,121.233,66,62.674c29.277-29.277,67.73-43.911,106.191-43.911
		c38.452,0,76.923,14.639,106.2,43.911c58.527,58.531,58.548,153.741,0.077,212.307l-0.162,0.163
		C219.736,333.606,124.536,333.592,66,275.066z M480.819,484.13c-6.114,6.118-13.841,9.276-22.347,9.084
		c-8.286-0.27-15.995-4.001-21.715-10.509L277.97,302.024l13.631-13.628c0.021-0.021,0.043-0.037,0.064-0.057
		c0.021-0.021,0.037-0.044,0.057-0.064l6.992-6.989l180.685,158.778c6.499,5.711,10.22,13.42,10.486,21.715
		C490.16,470.074,486.933,478.011,480.819,484.13z"/>
	<path style="fill:#314E55;" d="M119.861,107.131c-18.296,18.296-18.296,48.072,0,66.368c9.148,9.153,21.165,13.726,33.191,13.726
		c12.017,0,24.034-4.574,33.182-13.726c18.296-18.296,18.296-48.072,0-66.368C167.938,88.826,138.157,88.844,119.861,107.131z
		 M172.961,160.226c-10.972,10.972-28.837,10.99-39.828,0c-10.972-10.981-10.972-28.842,0-39.823
		c5.49-5.486,12.705-8.231,19.918-8.231c7.205,0,14.418,2.745,19.909,8.231C183.933,131.385,183.933,149.245,172.961,160.226z"/>
	<path style="fill:#314E55;" d="M287.365,140.876c4.308-22.489-14.492-40.295-36.271-60.914c-4.702-4.455-9.625-9.116-14.556-14.043
		c-30.074-30.065-69.196-24.148-96.035-17.095C111.3,56.515,83.581,77.418,70.189,93.583
		c-15.079,18.191-20.138,48.966-14.263,86.662c6.16,39.552,46.436,60.474,48.141,61.345c1.21,0.614,2.53,0.958,3.877,1.013
		c0.614,0.027,3.217,0.124,7.333,0.124c24.382,0,101.562-3.346,128.438-44.443c14.07-21.513,23.099-28.933,29.084-33.842
		C280.188,158.375,284.854,153.989,287.365,140.876z M268.923,137.347c-1.357,7.104-2.512,8.048-8.039,12.585
		c-6.866,5.637-17.242,14.157-32.879,38.077c-20.679,31.605-89.545,36.61-117.108,35.909c-6.866-3.974-32.338-20.363-36.417-46.565
		c-5.041-32.307-1.43-57.802,10.156-71.79c11.916-14.377,36.573-32.242,60.653-38.581c24.236-6.384,55.007-10.757,77.977,12.209
		c5.051,5.055,10.101,9.831,14.923,14.405C256.686,111.114,271.297,124.95,268.923,137.347z"/>
</g>
<g>
</g>
<g>
</g>
<g>
</g>
<g>
</g>
<g>
</g>
<g>
</g>
<g>
</g>
<g>
</g>
<g>
</g>
<g>
</g>
<g>
</g>
<g>
</g>
<g>
</g>
<g>
</g>
<g>
</g>
</svg>
