<?xml version="1.0" encoding="iso-8859-1"?>
<!-- Generator: Adobe Illustrator 19.0.0, SVG Export Plug-In . SVG Version: 6.00 Build 0)  -->
<svg version="1.1" id="Layer_1" xmlns="http://www.w3.org/2000/svg" xmlns:xlink="http://www.w3.org/1999/xlink" x="0px" y="0px"
	 viewBox="0 0 512 512" style="enable-background:new 0 0 512 512;" xml:space="preserve">
<path style="fill:#E9E7D1;" d="M455.194,196.029c-22.628-27.296-40.497-48.854-40.497-91.293c0-24.124-106.74-40.344-206.669-40.412
	c-8.622,1.218-120.983,18.57-139.163,95.62c-5.477,23.216-15.34,45.246-24.874,66.549C17,286.783-6.306,338.85,72.406,402.204
	c73.032,58.775,122.296,47.569,169.941,36.727c23.666-5.387,48.144-10.968,74.286-7.472c11.449,1.523,22.897,3.397,34.148,5.239
	c69.177,11.332,112.285,15.78,125.948-33.357c23.32-83.816,22.354-150.805-2.655-183.798
	C467.496,210.866,461.241,203.322,455.194,196.029z M203.252,350.757c-53.276,0-96.622-43.346-96.622-96.622
	s43.346-96.622,96.622-96.622s96.622,43.346,96.622,96.622S256.527,350.757,203.252,350.757z"/>
<path style="fill:#F28544;" d="M203.252,175.918c-43.13,0-78.217,35.087-78.217,78.217s35.087,78.217,78.217,78.217
	s78.217-35.087,78.217-78.217S246.382,175.918,203.252,175.918z M203.252,203.524c-27.907,0-50.611,22.704-50.611,50.611
	c0,5.082-4.12,9.202-9.202,9.202s-9.202-4.12-9.202-9.202c0-38.057,30.958-69.015,69.015-69.015c5.082,0,9.202,4.12,9.202,9.202
	C212.454,199.404,208.333,203.524,203.252,203.524z"/>
<g>
	<path style="fill:#314E55;" d="M488.74,208.426c-6.821-9-13.493-17.047-19.379-24.146c-21.832-26.339-36.26-43.741-36.26-79.543
		c0-54.574-172.745-58.816-225.689-58.816c-0.378,0-0.75,0.023-1.128,0.067c-5.441,0.674-133.574,17.501-155.329,109.733
		c-5.077,21.513-14.576,42.73-23.765,63.251c-27.579,61.61-56.098,125.315,33.677,197.565
		c48.14,38.749,87.622,49.542,122.228,49.542c22.884,0,43.638-4.722,63.336-9.202c23.095-5.253,44.9-10.213,67.775-7.176
		c11.264,1.501,22.529,3.347,33.6,5.158c62.86,10.29,127.872,20.938,146.653-46.585C509.076,355.74,527.772,259.918,488.74,208.426z
		 M476.73,403.341c-13.664,49.138-56.771,44.689-125.948,33.357c-11.251-1.842-22.7-3.716-34.148-5.239
		c-26.141-3.496-50.62,2.085-74.286,7.472c-47.646,10.842-96.909,22.048-169.941-36.727C-6.306,338.85,17,286.783,43.991,226.493
		c9.534-21.302,19.397-43.332,24.874-66.549c18.179-77.049,130.541-94.402,139.163-95.62
		c99.928,0.067,206.669,16.288,206.669,40.412c0,42.438,17.869,63.997,40.497,91.293c6.048,7.292,12.302,14.836,18.88,23.513
		C499.083,252.536,500.049,319.525,476.73,403.341z"/>
	<path style="fill:#314E55;" d="M203.252,157.514c-53.276,0-96.622,43.346-96.622,96.622s43.346,96.622,96.622,96.622
		s96.622-43.346,96.622-96.622S256.527,157.514,203.252,157.514z M203.252,332.353c-43.13,0-78.217-35.087-78.217-78.217
		s35.087-78.217,78.217-78.217s78.217,35.087,78.217,78.217S246.382,332.353,203.252,332.353z"/>
	<path style="fill:#314E55;" d="M203.252,185.12c-38.057,0-69.015,30.958-69.015,69.015c0,5.082,4.12,9.202,9.202,9.202
		s9.202-4.12,9.202-9.202c0-27.907,22.704-50.611,50.611-50.611c5.082,0,9.202-4.12,9.202-9.202
		C212.454,189.24,208.333,185.12,203.252,185.12z"/>
</g>
<g>
</g>
<g>
</g>
<g>
</g>
<g>
</g>
<g>
</g>
<g>
</g>
<g>
</g>
<g>
</g>
<g>
</g>
<g>
</g>
<g>
</g>
<g>
</g>
<g>
</g>
<g>
</g>
<g>
</g>
</svg>
