<?xml version="1.0" encoding="iso-8859-1"?>
<!-- Generator: Adobe Illustrator 19.0.0, SVG Export Plug-In . SVG Version: 6.00 Build 0)  -->
<svg version="1.1" id="Layer_1" xmlns="http://www.w3.org/2000/svg" xmlns:xlink="http://www.w3.org/1999/xlink" x="0px" y="0px"
	 viewBox="0 0 512 512" style="enable-background:new 0 0 512 512;" xml:space="preserve">
<path style="fill:#5ECC66;" d="M101.811,139.367c27.984,21.209,62.149,24.421,81.156,24.079
	C128.202,80.627,71.129,13.902,57.602,17.806c0.026,0-4.853,4.432-1.47,31.81C61.112,89.972,76.482,120.167,101.811,139.367z"/>
<g>
	<path style="fill:#D26CBA;" d="M374.127,213.929c-11.583,2.457-24.596,12.329-33.152,25.141
		c-7.542,11.293-15.405,30.098-9.999,55.529c9.604,45.192,43.344,76.492,75.11,69.691c31.81-6.766,49.873-49.026,40.269-94.209
		c-8.622-40.541-42.717-56.889-64.707-56.889C378.931,213.192,376.4,213.446,374.127,213.929z M400.088,242.43
		c0,4.967-4.023,8.986-8.986,8.986c-7.612,0-21.81,7.494-21.81,21.815c0,4.967-4.023,8.986-8.986,8.986
		c-4.962,0-8.986-4.019-8.986-8.986c0-25.614,23.522-39.786,39.782-39.786C396.065,233.445,400.088,237.464,400.088,242.43z"/>
	<path style="fill:#D26CBA;" d="M131.405,377.873c0,64.049,37.097,116.155,82.696,116.155c45.595,0,82.692-52.106,82.692-116.155
		c0-64.909-53.014-97.482-82.692-97.482C184.419,280.391,131.405,312.964,131.405,377.873z M223.086,310.832
		c0,4.967-4.023,8.986-8.986,8.986c-18.476,0-51.479,20.464-51.479,61.241c0,4.967-4.023,8.986-8.986,8.986
		s-8.986-4.019-8.986-8.986c0-51.001,41.063-79.212,69.45-79.212C219.063,301.846,223.086,305.865,223.086,310.832z"/>
</g>
<g>
	<path style="fill:#314E55;" d="M479.2,66.903c3.637-3.378,3.852-9.065,0.474-12.697c-3.374-3.642-9.069-3.861-12.697-0.483
		c-1.65,1.536-168.086,153.327-428.613,169.315c-4.954,0.307-8.722,4.563-8.42,9.521c0.29,4.765,4.247,8.433,8.959,8.433
		c0.184,0,0.373-0.009,0.557-0.018c53.407-3.277,102.903-12.207,148.053-24.319l8.06,48.349
		c-38.41,9.922-82.139,49.137-82.139,112.869C113.433,451.83,158.594,512,214.101,512s100.663-60.171,100.663-134.127
		c0-74.342-59.521-115.453-100.663-115.453c-0.239,0-0.495,0.042-0.734,0.044l-8.448-50.675
		c59.586-17.493,110.941-40.325,152.541-62.712l8.105,48.618c-14.656,4.68-29.45,16.287-39.534,31.388
		c-13.378,20.034-17.866,44.621-12.632,69.253c10.521,49.491,46.723,84.82,84.17,84.82c4.076,0,8.178-0.421,12.254-1.281
		c41.502-8.828,65.773-60.653,54.107-115.532c-10.231-48.132-50.108-70.331-80.554-71.079l-9.239-55.42
		C440.885,101.835,478.409,67.634,479.2,66.903z M296.792,377.873c0,64.049-37.097,116.155-82.692,116.155
		c-45.6,0-82.696-52.106-82.696-116.155c0-64.909,53.014-97.482,82.696-97.482C243.778,280.391,296.792,312.964,296.792,377.873z
		 M446.355,270.081c9.604,45.183-8.459,87.443-40.269,94.209c-31.766,6.801-65.506-24.5-75.11-69.691
		c-5.405-25.43,2.457-44.235,9.999-55.529c8.556-12.812,21.569-22.684,33.152-25.141c2.273-0.483,4.804-0.737,7.52-0.737
		C403.637,213.192,437.733,229.54,446.355,270.081z"/>
	<path style="fill:#314E55;" d="M91.105,153.802c31.178,23.552,67.748,27.703,89.681,27.703c11.241,0,18.643-1.088,19.489-1.22
		c3.01-0.465,5.572-2.422,6.818-5.204c1.246-2.773,1.005-5.993-0.645-8.547C171.581,112.481,86.573-11.8,51.482,0.906
		C34.778,6.961,35.954,32.865,38.293,51.81C43.9,97.256,61.669,131.566,91.105,153.802z M57.602,17.806
		c13.527-3.905,70.6,62.821,125.365,145.64c-19.007,0.342-53.172-2.869-81.156-24.079c-25.329-19.2-40.699-49.395-45.679-89.751
		C52.749,22.238,57.628,17.806,57.602,17.806z"/>
	<path style="fill:#314E55;" d="M144.651,381.059c0,4.967,4.023,8.986,8.986,8.986s8.986-4.019,8.986-8.986
		c0-40.778,33.003-61.241,51.479-61.241c4.962,0,8.986-4.019,8.986-8.986s-4.023-8.986-8.986-8.986
		C185.714,301.846,144.651,330.058,144.651,381.059z"/>
	<path style="fill:#314E55;" d="M351.321,273.231c0,4.967,4.023,8.986,8.986,8.986c4.962,0,8.986-4.019,8.986-8.986
		c0-14.321,14.198-21.815,21.81-21.815c4.962,0,8.986-4.019,8.986-8.986c0-4.967-4.023-8.986-8.986-8.986
		C374.842,233.445,351.321,247.616,351.321,273.231z"/>
</g>
<g>
</g>
<g>
</g>
<g>
</g>
<g>
</g>
<g>
</g>
<g>
</g>
<g>
</g>
<g>
</g>
<g>
</g>
<g>
</g>
<g>
</g>
<g>
</g>
<g>
</g>
<g>
</g>
<g>
</g>
</svg>
