<?xml version="1.0" encoding="iso-8859-1"?>
<!-- Generator: Adobe Illustrator 19.0.0, SVG Export Plug-In . SVG Version: 6.00 Build 0)  -->
<svg version="1.1" id="Layer_1" xmlns="http://www.w3.org/2000/svg" xmlns:xlink="http://www.w3.org/1999/xlink" x="0px" y="0px"
	 viewBox="0 0 512 512" style="enable-background:new 0 0 512 512;" xml:space="preserve">
<g>
	<path style="fill:#314E55;" d="M201.516,246.769c-4.131-5.611-7.376-11.905-9.445-18.725c-3.387,7.019-8.035,13.297-13.678,18.553
		c3.576-0.643,7.24-1.033,10.998-1.033C193.541,245.563,197.591,245.989,201.516,246.769z"/>
	<path style="fill:#314E55;" d="M244.425,336.555c-2.509,4.77-5.64,9.148-9.251,13.089c4.815-2.604,10.083-4.45,15.64-5.471
		C248.464,341.832,246.347,339.267,244.425,336.555z"/>
</g>
<g>
	<path style="fill:#D26CBA;" d="M233.797,307.732c0-24.484-19.922-44.406-44.406-44.406s-44.406,19.922-44.406,44.406
		c0,24.484,19.922,44.406,44.406,44.406S233.797,332.216,233.797,307.732z"/>
	<path style="fill:#D26CBA;" d="M180.51,201.157c0-24.484-19.922-44.406-44.406-44.406s-44.406,19.922-44.406,44.406
		s19.922,44.406,44.406,44.406S180.51,225.641,180.51,201.157z"/>
</g>
<g>
	<path style="fill:#314E55;" d="M241.703,274.271c0.527-0.901,1.052-1.804,1.626-2.673c-1.306-0.175-2.615-0.343-3.895-0.596
		C240.221,272.07,240.984,273.152,241.703,274.271z"/>
	<path style="fill:#314E55;" d="M213.32,371.733c1.936-3.662,4.301-7.053,7.003-10.151c-3.912,2.256-8.062,4.145-12.449,5.513
		C209.815,368.495,211.654,370.02,213.32,371.733z"/>
</g>
<g>
	<path style="fill:#D26CBA;" d="M251.559,254.445c4.573,0,8.901-0.894,13.056-2.185c2.698-1.429,5.53-2.627,8.458-3.619
		c13.581-7.603,22.892-21.963,22.892-38.603c0-24.484-19.922-44.406-44.406-44.406s-44.406,19.922-44.406,44.406
		S227.075,254.445,251.559,254.445z"/>
	<path style="fill:#D26CBA;" d="M291.525,263.326c-3.958,0-7.708,0.756-11.32,1.832c-2.712,1.416-5.547,2.616-8.474,3.624
		c-11.99,6.907-20.171,19.706-20.171,34.509c0,22.038,17.927,39.965,39.965,39.965s39.965-17.927,39.965-39.965
		C331.49,281.253,313.563,263.326,291.525,263.326z"/>
	<path style="fill:#D26CBA;" d="M207.153,400.13c0-12.71-10.343-23.053-23.053-23.053c-12.715,0-23.057,10.343-23.057,23.053
		c0,12.715,10.343,23.057,23.057,23.057C196.811,423.188,207.153,412.845,207.153,400.13z"/>
</g>
<path style="fill:#314E55;" d="M306.731,238.575c-1.447,2.787-3.112,5.434-4.949,7.955c5.381,0.969,10.49,2.695,15.246,5.05
	C313.096,247.684,309.672,243.296,306.731,238.575z"/>
<g>
	<path style="fill:#D26CBA;" d="M367.015,147.87c-29.384,0-53.287,23.903-53.287,53.287s23.903,53.287,53.287,53.287
		s53.287-23.903,53.287-53.287S396.4,147.87,367.015,147.87z"/>
	<path style="fill:#D26CBA;" d="M219.625,448.127c-12.715,0-23.057,10.343-23.057,23.053c0,12.715,10.343,23.057,23.057,23.057
		c12.71,0,23.053-10.343,23.053-23.057C242.678,458.47,232.335,448.127,219.625,448.127z"/>
	<path style="fill:#D26CBA;" d="M260.441,361.019c-19.588,0-35.525,15.937-35.525,35.525s15.937,35.525,35.525,35.525
		c19.588,0,35.525-15.937,35.525-35.525S280.029,361.019,260.441,361.019z"/>
</g>
<g>
	<path style="fill:#314E55;" d="M215.79,425.536c-1.848,2.3-3.921,4.377-6.218,6.231c3.136-0.802,6.367-1.346,9.744-1.371
		C218.044,428.852,216.886,427.216,215.79,425.536z"/>
	<path style="fill:#314E55;" d="M367.015,130.108c-29.315,0-54.532,17.851-65.375,43.25c-11.324-15.42-29.526-25.488-50.081-25.488
		c-24.642,0-45.916,14.447-55.968,35.282c-7.741-25.525-31.469-44.163-59.488-44.163c-34.28,0-62.169,27.888-62.169,62.169
		s27.888,62.169,62.169,62.169c3.758,0,7.421-0.39,10.998-1.033c-12.195,11.358-19.879,27.499-19.879,45.439
		c0,25.386,15.312,47.233,37.171,56.878c-12.523,6.979-21.112,20.196-21.112,35.52c0,22.507,18.313,40.82,40.82,40.82
		c3.486,0,6.815-0.575,10.047-1.401c-9.278,7.488-15.342,18.808-15.342,31.631c0,22.507,18.313,40.82,40.82,40.82
		s40.815-18.313,40.815-40.82c0-8.022-2.407-15.458-6.42-21.774c2.109,0.255,4.243,0.425,6.42,0.425
		c29.384,0,53.287-23.903,53.287-53.287c0-13.953-5.434-26.631-14.241-36.141c28.066-3.899,49.765-27.99,49.765-57.112
		c0-15.295-6.022-29.183-15.767-39.523c9.995,5.374,21.408,8.439,33.529,8.439c39.176,0,71.05-31.874,71.05-71.05
		S406.191,130.108,367.015,130.108z M251.559,165.632c24.484,0,44.406,19.922,44.406,44.406c0,16.639-9.311,31-22.892,38.603
		c-2.929,0.992-5.761,2.19-8.458,3.619c-4.155,1.29-8.482,2.185-13.056,2.185c-24.484,0-44.406-19.922-44.406-44.406
		S227.075,165.632,251.559,165.632z M213.32,371.733c-1.665-1.713-3.505-3.237-5.446-4.638c4.387-1.368,8.536-3.257,12.449-5.513
		C217.621,364.679,215.256,368.07,213.32,371.733z M244.425,336.555c1.922,2.713,4.039,5.278,6.389,7.618
		c-5.557,1.02-10.826,2.866-15.64,5.471C238.784,345.703,241.916,341.325,244.425,336.555z M241.703,274.271
		c-0.719-1.119-1.482-2.201-2.268-3.27c1.28,0.254,2.588,0.422,3.895,0.596C242.755,272.467,242.23,273.37,241.703,274.271z
		 M91.697,201.157c0-24.484,19.922-44.406,44.406-44.406s44.406,19.922,44.406,44.406s-19.922,44.406-44.406,44.406
		S91.697,225.641,91.697,201.157z M192.071,228.044c2.068,6.82,5.314,13.114,9.445,18.725c-3.925-0.78-7.975-1.206-12.125-1.206
		c-3.758,0-7.421,0.39-10.998,1.033C184.036,241.341,188.685,235.062,192.071,228.044z M144.985,307.732
		c0-24.484,19.922-44.406,44.406-44.406s44.406,19.922,44.406,44.406c0,24.484-19.922,44.406-44.406,44.406
		S144.985,332.216,144.985,307.732z M161.043,400.13c0-12.71,10.343-23.053,23.057-23.053c12.71,0,23.053,10.343,23.053,23.053
		c0,12.715-10.343,23.057-23.053,23.057C171.385,423.188,161.043,412.845,161.043,400.13z M215.79,425.536
		c1.096,1.68,2.254,3.316,3.527,4.859c-3.377,0.026-6.608,0.569-9.744,1.371C211.87,429.913,213.942,427.837,215.79,425.536z
		 M219.625,494.237c-12.715,0-23.057-10.343-23.057-23.057c0-12.71,10.343-23.053,23.057-23.053
		c12.71,0,23.053,10.343,23.053,23.053C242.678,483.895,232.335,494.237,219.625,494.237z M260.441,432.069
		c-19.588,0-35.525-15.937-35.525-35.525s15.937-35.525,35.525-35.525c19.588,0,35.525,15.937,35.525,35.525
		S280.029,432.069,260.441,432.069z M291.525,343.257c-22.038,0-39.965-17.927-39.965-39.965c0-14.803,8.181-27.602,20.171-34.509
		c2.927-1.008,5.762-2.208,8.474-3.624c3.613-1.077,7.362-1.832,11.32-1.832c22.038,0,39.965,17.927,39.965,39.965
		C331.49,325.33,313.563,343.257,291.525,343.257z M301.782,246.531c1.837-2.522,3.502-5.168,4.949-7.955
		c2.941,4.721,6.365,9.109,10.297,13.005C312.272,249.226,307.163,247.5,301.782,246.531z M367.015,254.445
		c-29.384,0-53.287-23.903-53.287-53.287s23.903-53.287,53.287-53.287s53.287,23.903,53.287,53.287S396.4,254.445,367.015,254.445z"
		/>
	<path style="fill:#314E55;" d="M229.278,76.348c-3.131,24.892,2.988,52.988,4.05,57.58c0.95,4.102,4.601,6.878,8.643,6.878
		c0.663,0,1.336-0.074,2.012-0.23c4.779-1.106,7.754-5.876,6.648-10.655c-2.866-12.39-5.139-30.031-4.341-45.161
		c26.366,11.318,48.283,12.637,60.898,8.452c9.393-3.109,15.048-9.432,15.507-17.355c0.473-8.083-4.389-20.247-30.23-32.299
		c-20.377-9.501-36.561-9.61-48.075-0.278c-4.779,3.868-8.235,9.111-10.69,15.13c-19.311-11.501-40.954-29.098-62.858-55.235
		c-3.157-3.76-8.756-4.254-12.515-1.101c-3.755,3.153-4.25,8.756-1.102,12.515C181.793,43.893,206.659,63.689,229.278,76.348z
		 M255.575,57.08c5.794-4.675,15.685-3.816,29.384,2.576c16.331,7.615,19.935,13.929,20.108,14.805
		c-0.347,0.542-3.17,2.667-10.668,3.153c-9.861,0.655-25.733-1.965-44.992-10.889C250.87,62.597,252.886,59.257,255.575,57.08z"/>
</g>
<g>
</g>
<g>
</g>
<g>
</g>
<g>
</g>
<g>
</g>
<g>
</g>
<g>
</g>
<g>
</g>
<g>
</g>
<g>
</g>
<g>
</g>
<g>
</g>
<g>
</g>
<g>
</g>
<g>
</g>
</svg>
