<?xml version="1.0" encoding="iso-8859-1"?>
<!-- Generator: Adobe Illustrator 19.0.0, SVG Export Plug-In . SVG Version: 6.00 Build 0)  -->
<svg version="1.1" id="Layer_1" xmlns="http://www.w3.org/2000/svg" xmlns:xlink="http://www.w3.org/1999/xlink" x="0px" y="0px"
	 viewBox="0 0 512 512" style="enable-background:new 0 0 512 512;" xml:space="preserve">
<path style="fill:#D8D8D8;" d="M170.536,109.714l-32.585,384h236.098l-32.585-384H170.536z M256,137.143h27.429v18.286H256
	C256,155.429,256,137.143,256,137.143z M219.429,228.571h27.429v18.286h-27.429V228.571z M201.143,192v-18.286h27.429V192H201.143z
	 M237.714,192v-18.286h27.429V192H237.714z M265.143,265.143v18.286h-27.429v-18.286H265.143z M228.571,265.143v18.286h-27.429
	v-18.286H228.571z M219.429,320h27.429v18.286h-27.429V320z M228.571,356.571v18.286h-27.429v-18.286H228.571z M219.429,411.429
	h27.429v18.286h-27.429V411.429z M237.714,374.857v-18.286h27.429v18.286H237.714z M256,411.429h27.429v18.286H256
	C256,429.714,256,411.429,256,411.429z M274.286,374.857v-18.286h27.429v18.286H274.286z M283.429,338.286H256V320h27.429V338.286z
	 M274.286,283.429v-18.286h27.429v18.286H274.286z M283.429,246.857H256v-18.286h27.429V246.857z M274.286,192v-18.286h27.429V192
	H274.286z M219.429,137.143h27.429v18.286h-27.429V137.143z M182.857,137.143h27.429v18.286h-27.429V137.143z M182.857,228.571
	h27.429v18.286h-27.429V228.571z M182.857,320h27.429v18.286h-27.429V320z M182.857,411.429h27.429v18.286h-27.429V411.429z
	 M228.571,466.286h-27.429V448h27.429V466.286z M265.143,466.286h-27.429V448h27.429V466.286z M301.714,466.286h-27.429V448h27.429
	V466.286z M320,429.714h-27.429v-18.286H320V429.714z M320,338.286h-27.429V320H320V338.286z M320,246.857h-27.429v-18.286H320
	V246.857z M320,155.429h-27.429v-18.286H320V155.429z"/>
<g>
	<path style="fill:#314E55;" d="M358.978,99.795c-0.402-4.732-4.362-8.366-9.112-8.366h-20.723V9.143C329.143,4.089,325.049,0,320,0
		H192c-5.049,0-9.143,4.089-9.143,9.143v82.286h-20.723c-4.75,0-8.71,3.634-9.112,8.366L118.888,502.08
		c-0.214,2.554,0.647,5.08,2.379,6.964C123,510.929,125.442,512,128,512h256c2.558,0,5-1.072,6.732-2.955
		c1.732-1.884,2.594-4.411,2.379-6.964L358.978,99.795z M201.143,18.286h109.714v73.143H201.143
		C201.143,91.429,201.143,18.286,201.143,18.286z M137.951,493.714l32.585-384h170.928l32.585,384H137.951z"/>
	<rect x="219.428" y="137.143" style="fill:#314E55;" width="27.429" height="18.286"/>
	<rect x="255.999" y="137.143" style="fill:#314E55;" width="27.429" height="18.286"/>
	<rect x="182.856" y="137.143" style="fill:#314E55;" width="27.429" height="18.286"/>
	<rect x="292.571" y="137.143" style="fill:#314E55;" width="27.429" height="18.286"/>
	<rect x="274.285" y="173.714" style="fill:#314E55;" width="27.429" height="18.286"/>
	<rect x="237.713" y="173.714" style="fill:#314E55;" width="27.429" height="18.286"/>
	<rect x="201.142" y="173.714" style="fill:#314E55;" width="27.429" height="18.286"/>
	<rect x="182.856" y="228.571" style="fill:#314E55;" width="27.429" height="18.286"/>
	<rect x="219.428" y="228.571" style="fill:#314E55;" width="27.429" height="18.286"/>
	<rect x="255.999" y="228.571" style="fill:#314E55;" width="27.429" height="18.286"/>
	<rect x="292.571" y="228.571" style="fill:#314E55;" width="27.429" height="18.286"/>
	<rect x="201.142" y="265.143" style="fill:#314E55;" width="27.429" height="18.286"/>
	<rect x="274.285" y="265.143" style="fill:#314E55;" width="27.429" height="18.286"/>
	<rect x="237.713" y="265.143" style="fill:#314E55;" width="27.429" height="18.286"/>
	<rect x="292.571" y="320" style="fill:#314E55;" width="27.429" height="18.286"/>
	<rect x="182.856" y="320" style="fill:#314E55;" width="27.429" height="18.286"/>
	<rect x="255.999" y="320" style="fill:#314E55;" width="27.429" height="18.286"/>
	<rect x="219.428" y="320" style="fill:#314E55;" width="27.429" height="18.286"/>
	<rect x="274.285" y="356.571" style="fill:#314E55;" width="27.429" height="18.286"/>
	<rect x="201.142" y="356.571" style="fill:#314E55;" width="27.429" height="18.286"/>
	<rect x="237.713" y="356.571" style="fill:#314E55;" width="27.429" height="18.286"/>
	<rect x="255.999" y="411.429" style="fill:#314E55;" width="27.429" height="18.286"/>
	<rect x="292.571" y="411.429" style="fill:#314E55;" width="27.429" height="18.286"/>
	<rect x="219.428" y="411.429" style="fill:#314E55;" width="27.429" height="18.286"/>
	<rect x="182.856" y="411.429" style="fill:#314E55;" width="27.429" height="18.286"/>
	<rect x="274.285" y="448" style="fill:#314E55;" width="27.429" height="18.286"/>
	<rect x="237.713" y="448" style="fill:#314E55;" width="27.429" height="18.286"/>
	<rect x="201.142" y="448" style="fill:#314E55;" width="27.429" height="18.286"/>
</g>
<g>
</g>
<g>
</g>
<g>
</g>
<g>
</g>
<g>
</g>
<g>
</g>
<g>
</g>
<g>
</g>
<g>
</g>
<g>
</g>
<g>
</g>
<g>
</g>
<g>
</g>
<g>
</g>
<g>
</g>
</svg>
