<?xml version="1.0" encoding="iso-8859-1"?>
<!-- Generator: Adobe Illustrator 19.0.0, SVG Export Plug-In . SVG Version: 6.00 Build 0)  -->
<svg version="1.1" id="Layer_1" xmlns="http://www.w3.org/2000/svg" xmlns:xlink="http://www.w3.org/1999/xlink" x="0px" y="0px"
	 viewBox="0 0 512 512" style="enable-background:new 0 0 512 512;" xml:space="preserve">
<path style="fill:#73C9C9;" d="M78.108,244.704c9.302,46.797,86.982,84.707,177.892,84.707s168.591-37.909,177.892-84.707H78.108z"
	/>
<g>
	<path style="fill:#314E55;" d="M442.576,272.94h67.544v-18.824h-59.323c1.732-6.124,2.852-12.378,2.852-18.824
		c0-5.198-4.214-9.412-9.412-9.412H67.763c-5.198,0-9.412,4.214-9.412,9.412c0,6.445,1.12,12.7,2.852,18.824H1.88v18.824h66.816
		v-1.158c18.488,31.898,60.7,56.995,115.337,68.877L63.999,500.709L79.059,512l124.234-165.65l-3.548-2.661
		c17.783,2.916,36.614,4.545,56.255,4.545s38.472-1.629,56.255-4.545l-3.548,2.661L432.941,512l15.06-11.291l-120.034-160.05
		C381.935,328.923,423.74,304.282,442.576,272.94z M256,329.411c-90.911,0-168.591-37.909-177.892-84.707h355.785
		C424.591,291.502,346.911,329.411,256,329.411z"/>
	<path style="fill:#314E55;" d="M201.289,162.332c-4.398,2.771-5.721,8.58-2.95,12.978c1.788,2.845,4.848,4.398,7.973,4.398
		c1.714,0,3.447-0.469,5.005-1.448c1.65-1.039,40-26.191,6.723-92.46c-8.985-17.891-11.338-33.433-6.99-46.195
		c5.092-14.968,18.143-21.512,18.502-21.687c4.674-2.206,6.701-7.776,4.522-12.473c-2.188-4.72-7.789-6.746-12.5-4.577
		c-0.827,0.386-20.317,9.646-28.208,32.275c-6.209,17.808-3.566,38.364,7.854,61.104
		C226.464,144.519,202.208,161.707,201.289,162.332z"/>
	<path style="fill:#314E55;" d="M248.348,162.332c-4.398,2.771-5.721,8.58-2.95,12.978c1.788,2.845,4.848,4.398,7.974,4.398
		c1.714,0,3.447-0.469,5.005-1.448c1.65-1.039,40-26.191,6.723-92.46c-8.985-17.891-11.338-33.433-6.99-46.195
		c5.092-14.968,18.143-21.512,18.502-21.687c4.674-2.206,6.701-7.776,4.522-12.473c-2.192-4.72-7.794-6.746-12.5-4.577
		c-0.827,0.386-20.317,9.646-28.208,32.275c-6.209,17.808-3.566,38.364,7.854,61.104
		C273.523,144.519,249.268,161.707,248.348,162.332z"/>
	<path style="fill:#314E55;" d="M295.408,162.332c-4.398,2.771-5.721,8.58-2.95,12.978c1.788,2.845,4.848,4.398,7.973,4.398
		c1.714,0,3.447-0.469,5.005-1.448c1.65-1.039,40-26.191,6.723-92.46c-8.985-17.891-11.338-33.433-6.99-46.195
		c5.092-14.968,18.144-21.512,18.502-21.687c4.674-2.206,6.701-7.776,4.522-12.473c-2.192-4.72-7.794-6.746-12.5-4.577
		c-0.827,0.386-20.317,9.646-28.208,32.275c-6.209,17.808-3.566,38.364,7.854,61.104
		C320.583,144.519,296.327,161.707,295.408,162.332z"/>
</g>
<g>
</g>
<g>
</g>
<g>
</g>
<g>
</g>
<g>
</g>
<g>
</g>
<g>
</g>
<g>
</g>
<g>
</g>
<g>
</g>
<g>
</g>
<g>
</g>
<g>
</g>
<g>
</g>
<g>
</g>
</svg>
