<?xml version="1.0" encoding="iso-8859-1"?>
<!-- Generator: Adobe Illustrator 19.0.0, SVG Export Plug-In . SVG Version: 6.00 Build 0)  -->
<svg version="1.1" id="Layer_1" xmlns="http://www.w3.org/2000/svg" xmlns:xlink="http://www.w3.org/1999/xlink" x="0px" y="0px"
	 viewBox="0 0 512.001 512.001" style="enable-background:new 0 0 512.001 512.001;" xml:space="preserve">
<path style="fill:#E4AD40;" d="M273.796,307.451l-52.31-19.671c0.352,2.171,0.655,4.325,0.962,6.484
	c0.196,1.378,0.39,2.751,0.568,4.122c0.604,4.649,1.123,9.267,1.522,13.842l44.743,18.704L273.796,307.451z"/>
<path style="fill:#E65F58;" d="M83.773,216.928c-0.36,0-0.702,0.032-1.043,0.097c-4.413,0.863-10.119,9.606-12.898,27.199
	c-3.102,19.587-1.994,44.805,3.102,71.016c5.096,26.216,13.526,50.017,23.727,67.014c9.177,15.266,17.856,21.202,22.149,20.38
	c0.009,0,0.009,0,0.009,0c11.079-2.156,20.635-42.428,9.796-98.215C118.099,250.317,95.249,216.928,83.773,216.928z"/>
<path style="fill:#E4AD40;" d="M147.124,135.761c1.114,0.965,2.215,1.976,3.316,2.992c2.471,2.287,4.914,4.696,7.335,7.258
	c1.554,1.639,3.096,3.31,4.618,5.05c0.797,0.914,1.623,1.694,2.413,2.638c0.581,0.695,1.113,1.482,1.688,2.188
	c2.219,2.726,4.404,5.542,6.538,8.478c1.171,1.613,2.298,3.294,3.437,4.962c1.456,2.128,2.887,4.303,4.298,6.528
	c1.033,1.633,2.08,3.237,3.084,4.913c2.072,3.459,4.076,7.041,6.03,10.703c0.882,1.656,1.736,3.341,2.59,5.032
	c1.564,3.091,3.082,6.248,4.558,9.467c0.556,1.215,1.142,2.395,1.684,3.626c1.892,4.289,3.674,8.718,5.4,13.213
	c0.549,1.43,1.082,2.867,1.612,4.315c1.644,4.486,3.225,9.037,4.694,13.704c0.106,0.337,0.226,0.661,0.331,0.998
	c1.555,4.998,2.964,10.13,4.304,15.32c0.339,1.316,0.67,2.631,0.995,3.956c0.398,1.626,0.815,3.236,1.191,4.879l60.179,22.63
	l23.778-123.637c-3.934-1.017-7.922-2.155-12.02-3.552c-50.597-17.242-106.471-25.848-147.376-30.121
	C143.589,132.698,145.356,134.224,147.124,135.761z"/>
<path style="fill:#F58CAC;" d="M162.408,457.86c10.342-6.731,19.161-17.509,26.136-31.316c0.132-0.261,0.249-0.547,0.379-0.813
	c1.546-3.116,3.001-6.377,4.359-9.783c0.317-0.797,0.6-1.641,0.906-2.454c1.104-2.919,2.155-5.912,3.119-9.017
	c0.395-1.275,0.753-2.594,1.123-3.898c0.779-2.732,1.519-5.51,2.191-8.365c0.397-1.693,0.76-3.421,1.118-5.154
	c0.535-2.576,1.032-5.189,1.481-7.85c0.342-2.039,0.657-4.102,0.948-6.187c0.347-2.474,0.649-4.984,0.921-7.521
	c0.247-2.306,0.477-4.625,0.661-6.977c0.192-2.435,0.328-4.908,0.452-7.391c0.125-2.494,0.245-4.99,0.299-7.524
	c0.055-2.5,0.037-5.04,0.023-7.578c-0.014-2.546-0.015-5.085-0.099-7.663c-0.089-2.733-0.273-5.507-0.443-8.277
	c-0.148-2.437-0.261-4.861-0.473-7.319c-0.279-3.227-0.678-6.493-1.066-9.756c-0.243-2.052-0.425-4.088-0.713-6.149
	c-0.732-5.242-1.598-10.516-2.622-15.815c-0.022-0.115-0.035-0.229-0.058-0.344c-5.342-27.47-14.055-52.825-24.918-74.633
	c-0.234-0.467-0.447-0.96-0.683-1.425c-1.559-3.081-3.208-6.001-4.851-8.931c-0.866-1.537-1.701-3.121-2.592-4.619
	c-1.169-1.978-2.393-3.829-3.598-5.729c-1.536-2.403-3.063-4.818-4.666-7.108c-0.757-1.088-1.537-2.108-2.305-3.167
	c-2.151-2.942-4.332-5.827-6.591-8.553c-0.533-0.646-1.073-1.264-1.611-1.895c-2.044-2.394-4.099-4.72-6.175-6.876
	c-0.267-0.277-0.54-0.528-0.808-0.802c-8.864-9.051-17.976-15.821-27.087-20.361c-1.24-0.614-2.477-1.272-3.721-1.803
	c-1.364-0.584-2.725-1.041-4.086-1.521c-1.527-0.533-3.055-1.041-4.584-1.444c-1.212-0.322-2.421-0.586-3.628-0.823
	c-1.733-0.335-3.464-0.572-5.195-0.731c-1.043-0.098-2.087-0.209-3.123-0.24c-1.586-0.045-3.163,0.091-4.742,0.202
	c-1.899,0.132-3.807,0.178-5.679,0.54c-47.786,9.293-73.286,93.636-55.689,184.183c8.854,45.557,26.876,86.351,50.751,114.87
	c22.573,26.968,47.353,39.395,69.89,35.042c5.442-1.057,10.553-3.206,15.386-6.107C161.295,458.455,161.87,458.208,162.408,457.86z
	 M122.42,421.191h0.009c-1.431,0.281-2.973,0.448-4.616,0.448c-9.805,0-23.137-5.96-37.364-29.655
	c-11.31-18.839-20.57-44.81-26.073-73.135c-5.512-28.32-6.657-55.87-3.222-77.576c5.032-31.866,17.985-40.867,27.965-42.806
	c30.402-5.913,57.297,47.002,68.052,102.342C157.928,356.154,152.887,415.273,122.42,421.191z"/>
<g>
	<path style="fill:#E4AD40;" d="M357.694,167.468l-20.306,91.353l-18.456-4.104l18.936-85.19c-5.776,0.105-11.837-0.289-18.09-1.059
		l-24.404,126.897l68.64,25.812l-1.196,3.178c72.692-84.535,72.284-164.27,67.198-199.691
		C416.475,140.084,392.355,160.92,357.694,167.468z"/>
	<path style="fill:#E4AD40;" d="M291.751,314.204l-4.65,24.177l44.172,18.465c7.291-6.71,14.091-13.417,20.397-20.111
		L291.751,314.204z"/>
	<path style="fill:#E4AD40;" d="M265.632,349.901l-39.931-16.692c0.018,0.863-0.005,1.703,0.005,2.564
		c0.056,4.875,0.013,9.694-0.169,14.433c-0.061,1.606-0.179,3.169-0.267,4.757c-0.194,3.493-0.451,6.942-0.773,10.347
		c-0.166,1.759-0.316,3.523-0.516,5.257c-0.497,4.299-1.093,8.52-1.795,12.655c-0.297,1.748-0.644,3.447-0.976,5.164
		c-0.57,2.94-1.192,5.83-1.866,8.676c-0.384,1.623-0.743,3.266-1.162,4.855c-0.999,3.798-2.106,7.486-3.293,11.086
		c-0.533,1.615-1.105,3.175-1.675,4.745c-0.927,2.559-1.907,5.049-2.932,7.491c-0.568,1.353-1.103,2.744-1.7,4.059
		c-1.471,3.239-3.054,6.332-4.701,9.336c-0.76,1.387-1.552,2.723-2.349,4.056c-0.442,0.739-0.85,1.528-1.303,2.25
		c19.159-9.664,36.62-19.547,52.807-29.554L265.632,349.901z"/>
	<path style="fill:#E4AD40;" d="M283.453,357.35l-8.43,43.835c14.806-10.075,28.202-20.251,40.414-30.465L283.453,357.35z"/>
</g>
<g>
	<path style="fill:#314E55;" d="M147.172,300.81c-10.756-55.339-37.65-108.255-68.052-102.342
		c-9.98,1.939-22.933,10.94-27.965,42.806c-3.434,21.705-2.29,49.255,3.222,77.576c5.502,28.325,14.763,54.296,26.073,73.135
		c14.227,23.695,27.559,29.655,37.364,29.655c1.643,0,3.185-0.166,4.616-0.448h-0.009
		C152.887,415.273,157.928,356.154,147.172,300.81z M118.819,402.634c0,0,0,0-0.009,0c-4.293,0.822-12.972-5.115-22.149-20.38
		C86.46,365.257,78.03,341.456,72.934,315.24c-5.096-26.211-6.204-51.429-3.102-71.016c2.779-17.592,8.484-26.336,12.898-27.199
		c0.342-0.065,0.683-0.097,1.043-0.097c11.476,0,34.326,33.389,44.842,87.491C139.454,360.206,129.898,400.478,118.819,402.634z"/>
	<path style="fill:#314E55;" d="M496.334,30.419c-12.51-4.104-27.319,4.528-46.504,27.12
		c-11.026,12.976-18.131,22.435-22.412,29.631c-11.382-5.911-29.677-20.107-31.016-50.797c-0.222-5.216-4.293-9.177-9.86-9.034
		c-5.216,0.226-9.26,4.639-9.029,9.856c1.685,38.728,25.744,59.667,44.045,68.232c-13.692,18.599-54.922,62.414-126.287,38.102
		c-96.553-32.913-207.887-35.198-212.577-35.281c-3.349-0.064-6.459,1.796-8.188,4.644c-58.293,13.53-88.3,102.993-68.34,205.694
		c9.454,48.641,28.916,92.463,54.804,123.396c23.34,27.887,49.661,42.682,75.346,42.682c4.238,0,8.466-0.402,12.649-1.219
		c2.873-0.558,5.617-1.459,8.355-2.373c1.515,0.951,3.175,1.611,4.939,1.611c1.283,0,2.576-0.259,3.795-0.794
		C477.694,345.395,455.72,152.084,446.171,108.357c1.346-2.444,1.71-5.403,0.538-8.205c-0.619-1.5-1.597-2.747-2.797-3.693
		c2.89-4.764,8.697-12.99,20.321-26.677c19.037-22.393,26.183-21.401,26.229-21.392c0.932,0.503,2.382,4.085,2.659,7.132
		c0.388,5.212,5.004,9.145,10.137,8.72c5.207-0.388,9.103-4.926,8.715-10.133C511.826,52.157,510.145,34.915,496.334,30.419z
		 M301.196,164.975l-23.778,123.637l-60.179-22.63c-0.376-1.643-0.793-3.253-1.191-4.879c-0.325-1.325-0.655-2.641-0.995-3.956
		c-1.34-5.19-2.749-10.322-4.304-15.32c-0.104-0.337-0.225-0.661-0.331-0.998c-1.468-4.667-3.05-9.219-4.694-13.704
		c-0.53-1.448-1.064-2.885-1.612-4.315c-1.726-4.495-3.508-8.924-5.4-13.213c-0.542-1.231-1.128-2.411-1.684-3.626
		c-1.476-3.219-2.994-6.376-4.558-9.467c-0.854-1.691-1.707-3.376-2.59-5.032c-1.954-3.662-3.958-7.244-6.03-10.703
		c-1.004-1.676-2.051-3.28-3.084-4.913c-1.41-2.225-2.841-4.4-4.298-6.528c-1.14-1.669-2.266-3.349-3.437-4.962
		c-2.134-2.936-4.32-5.752-6.538-8.478c-0.575-0.706-1.107-1.493-1.688-2.188c-0.791-0.944-1.616-1.724-2.413-2.638
		c-1.522-1.74-3.064-3.411-4.618-5.05c-2.421-2.562-4.864-4.97-7.335-7.258c-1.101-1.017-2.202-2.028-3.316-2.992
		c-1.769-1.537-3.535-3.063-5.324-4.459c40.904,4.272,96.779,12.879,147.376,30.121
		C293.274,162.821,297.263,163.958,301.196,164.975z M223.016,298.386c-0.178-1.371-0.372-2.744-0.568-4.122
		c-0.307-2.158-0.611-4.313-0.962-6.484l52.311,19.671l-4.515,23.48l-44.743-18.704C224.139,307.653,223.62,303.035,223.016,298.386
		z M145.363,464.888c-22.536,4.353-47.316-8.074-69.89-35.042c-23.875-28.519-41.897-69.312-50.751-114.87
		c-17.597-90.547,7.903-174.89,55.69-184.182c1.871-0.362,3.779-0.409,5.679-0.54c1.579-0.111,3.156-0.247,4.742-0.202
		c1.036,0.031,2.08,0.142,3.123,0.24c1.73,0.158,3.461,0.396,5.195,0.731c1.207,0.237,2.416,0.501,3.628,0.823
		c1.529,0.403,3.056,0.911,4.584,1.444c1.361,0.48,2.722,0.937,4.086,1.521c1.244,0.531,2.481,1.189,3.721,1.803
		c9.111,4.54,18.223,11.31,27.087,20.361c0.268,0.273,0.541,0.525,0.808,0.802c2.076,2.156,4.131,4.482,6.175,6.876
		c0.537,0.631,1.077,1.249,1.61,1.895c2.259,2.726,4.44,5.611,6.591,8.553c0.768,1.058,1.549,2.078,2.305,3.167
		c1.602,2.29,3.13,4.705,4.666,7.108c1.205,1.9,2.429,3.751,3.598,5.729c0.892,1.498,1.727,3.081,2.592,4.619
		c1.643,2.93,3.292,5.85,4.851,8.931c0.236,0.465,0.45,0.958,0.683,1.425c10.862,21.808,19.576,47.163,24.918,74.633
		c0.022,0.115,0.035,0.229,0.058,0.344c1.024,5.299,1.89,10.573,2.622,15.815c0.288,2.061,0.47,4.097,0.713,6.149
		c0.388,3.264,0.788,6.53,1.066,9.756c0.211,2.458,0.324,4.882,0.473,7.319c0.17,2.77,0.353,5.544,0.443,8.277
		c0.084,2.578,0.085,5.117,0.099,7.663c0.014,2.538,0.032,5.078-0.023,7.578c-0.055,2.534-0.175,5.03-0.299,7.524
		c-0.125,2.482-0.26,4.956-0.452,7.391c-0.185,2.352-0.414,4.672-0.661,6.977c-0.272,2.536-0.574,5.047-0.921,7.521
		c-0.291,2.085-0.606,4.148-0.948,6.187c-0.448,2.661-0.946,5.274-1.481,7.85c-0.358,1.733-0.721,3.461-1.118,5.154
		c-0.672,2.855-1.411,5.633-2.191,8.365c-0.37,1.304-0.728,2.623-1.123,3.898c-0.965,3.104-2.016,6.098-3.119,9.017
		c-0.306,0.813-0.59,1.656-0.906,2.454c-1.358,3.406-2.813,6.667-4.359,9.783c-0.13,0.265-0.247,0.552-0.379,0.813
		c-6.976,13.807-15.795,24.585-26.136,31.316c-0.538,0.347-1.113,0.594-1.659,0.921
		C155.915,461.683,150.805,463.831,145.363,464.888z M201.534,442.691c0.797-1.334,1.589-2.669,2.349-4.056
		c1.647-3.004,3.23-6.097,4.701-9.336c0.597-1.315,1.132-2.706,1.7-4.059c1.025-2.442,2.005-4.932,2.932-7.491
		c0.57-1.571,1.142-3.131,1.675-4.745c1.187-3.599,2.294-7.288,3.293-11.086c0.418-1.589,0.777-3.233,1.162-4.855
		c0.674-2.846,1.297-5.736,1.866-8.676c0.332-1.717,0.68-3.416,0.976-5.164c0.702-4.135,1.298-8.356,1.795-12.655
		c0.2-1.733,0.35-3.498,0.516-5.257c0.323-3.406,0.579-6.854,0.773-10.347c0.088-1.588,0.207-3.151,0.267-4.757
		c0.182-4.739,0.225-9.558,0.169-14.432c-0.01-0.861,0.013-1.701-0.005-2.564l39.931,16.692l-12.595,65.487
		c-16.186,10.007-33.648,19.89-52.807,29.554C200.684,444.219,201.092,443.43,201.534,442.691z M283.453,357.35l31.983,13.37
		c-12.212,10.213-25.607,20.39-40.414,30.465L283.453,357.35z M331.273,356.846l-44.172-18.465l4.65-24.177l59.919,22.532
		C345.364,343.429,338.564,350.136,331.273,356.846z M362.819,324.355l1.196-3.178l-68.64-25.812l24.404-126.897
		c6.254,0.771,12.314,1.164,18.09,1.059l-18.936,85.19l18.456,4.104l20.306-91.353c34.661-6.548,58.781-27.383,72.323-42.804
		C435.102,160.084,435.511,239.82,362.819,324.355z"/>
</g>
<g>
</g>
<g>
</g>
<g>
</g>
<g>
</g>
<g>
</g>
<g>
</g>
<g>
</g>
<g>
</g>
<g>
</g>
<g>
</g>
<g>
</g>
<g>
</g>
<g>
</g>
<g>
</g>
<g>
</g>
</svg>
