<?xml version="1.0" encoding="iso-8859-1"?>
<!-- Generator: Adobe Illustrator 19.0.0, SVG Export Plug-In . SVG Version: 6.00 Build 0)  -->
<svg version="1.1" id="Layer_1" xmlns="http://www.w3.org/2000/svg" xmlns:xlink="http://www.w3.org/1999/xlink" x="0px" y="0px"
	 viewBox="0 0 512 512" style="enable-background:new 0 0 512 512;" xml:space="preserve">
<g>
	<path style="fill:#E9E7D1;" d="M256,401.655c85.267,0,158.121-35.556,166.854-79.448H89.146
		C97.879,366.099,170.733,401.655,256,401.655z M318.931,332.461l15.526,8.405l-17.802,32.884l-15.526-8.405L318.931,332.461z
		 M273.198,341.629l2.586,17.461l-36.983,5.487l-2.586-17.461L273.198,341.629z M195.345,332.461l15.526,8.405l-17.802,32.884
		l-15.526-8.405L195.345,332.461z"/>
	<path style="fill:#E9E7D1;" d="M256,110.345c-85.267,0-158.121,35.556-166.854,79.448h333.707
		C414.121,145.901,341.267,110.345,256,110.345z M154.948,166.328l-7.896-15.793l33.448-16.724l7.896,15.793L154.948,166.328z
		 M242.293,166.328l-33.448-16.724l7.896-15.793l33.448,16.724L242.293,166.328z M278.534,166.328l-7.896-15.793l33.448-16.724
		l7.896,15.793L278.534,166.328z"/>
</g>
<path style="fill:#E4AD40;" d="M445.741,207.448h-13.19H79.448h-13.19c-26.802,0-48.603,21.78-48.603,48.552
	s21.802,48.552,48.603,48.552h13.19h353.103h13.19c26.802,0,48.603-21.78,48.603-48.552S472.543,207.448,445.741,207.448z
	 M458,241.914c-6.75,16.556-26.854,43.823-58.698,43.823c-4.828,0-9.931-0.625-15.293-2.013
	c-21.448-5.543-34.569-14.082-46.147-21.616c-13.121-8.535-22.603-14.703-40.664-14.703c-14.75,0-23.5,5.405-33.638,11.659
	c-12.871,7.935-27.465,16.94-53.388,11.724c-17.957-3.616-27.784-9.384-36.457-14.474c-12.198-7.168-22.741-13.353-57.103-13.353
	c-19.241,0-33.569,4.461-41.422,12.901c-7.784,8.366-7.181,18.168-7.155,18.582c0.354,4.823-3.25,9.078-8.069,9.478
	c-4.776,0.375-9.06-3.103-9.509-7.918c-0.069-0.711-1.491-17.565,11.474-31.806c11.414-12.535,29.81-18.892,54.681-18.892
	c39.164,0,52.828,8.022,66.043,15.78c8.207,4.815,15.948,9.362,31,12.392c19.129,3.853,28.612-2.017,40.629-9.435
	c10.854-6.698,23.155-14.293,42.914-14.293c23.302,0,36.414,8.53,50.293,17.56c10.948,7.129,22.276,14.496,40.931,19.319
	c35.957,9.306,52.552-29.741,53.241-31.409c1.853-4.487,7-6.647,11.517-4.793C457.681,232.276,459.836,237.41,458,241.914z"/>
<g>
	<path style="fill:#314E55;" d="M445.741,189.793h-5.117C432.992,134.688,354.724,92.69,256,92.69S79.008,134.688,71.376,189.793
		h-5.117C29.724,189.793,0,219.491,0,256s29.724,66.207,66.259,66.207h5.117c7.631,55.106,85.9,97.103,184.624,97.103
		s176.992-41.998,184.624-97.103h5.117C482.276,322.207,512,292.509,512,256S482.276,189.793,445.741,189.793z M256,110.345
		c85.267,0,158.121,35.556,166.854,79.448H89.146C97.879,145.901,170.733,110.345,256,110.345z M256,401.655
		c-85.267,0-158.121-35.556-166.854-79.448h333.707C414.121,366.099,341.267,401.655,256,401.655z M445.741,304.552h-13.19H79.448
		h-13.19c-26.802,0-48.603-21.78-48.603-48.552s21.802-48.552,48.603-48.552h13.19h353.103h13.19
		c26.802,0,48.603,21.78,48.603,48.552S472.543,304.552,445.741,304.552z"/>
	<path style="fill:#314E55;" d="M453.181,230.427c-4.517-1.853-9.664,0.306-11.517,4.793c-0.69,1.668-17.284,40.715-53.241,31.409
		c-18.655-4.823-29.983-12.19-40.931-19.319c-13.879-9.03-26.991-17.56-50.293-17.56c-19.759,0-32.06,7.595-42.914,14.293
		c-12.017,7.418-21.5,13.289-40.629,9.435c-15.052-3.03-22.793-7.578-31-12.392c-13.216-7.759-26.879-15.78-66.043-15.78
		c-24.871,0-43.267,6.358-54.681,18.892c-12.966,14.241-11.543,31.095-11.474,31.806c0.448,4.815,4.733,8.293,9.509,7.918
		c4.819-0.401,8.422-4.655,8.069-9.478c-0.026-0.414-0.629-10.215,7.155-18.582c7.853-8.44,22.181-12.901,41.422-12.901
		c34.362,0,44.905,6.185,57.103,13.353c8.672,5.09,18.5,10.858,36.457,14.474c25.922,5.216,40.517-3.789,53.388-11.724
		c10.138-6.254,18.888-11.659,33.638-11.659c18.06,0,27.543,6.168,40.664,14.703c11.578,7.535,24.698,16.073,46.147,21.616
		c5.362,1.388,10.466,2.013,15.293,2.013c31.845,0,51.948-27.267,58.698-43.823C459.836,237.41,457.681,232.276,453.181,230.427z"/>
	
		<rect x="149.026" y="141.24" transform="matrix(-0.8944 0.4472 -0.4472 -0.8944 384.8524 209.2825)" style="fill:#314E55;" width="37.395" height="17.655"/>
	
		<rect x="220.674" y="131.37" transform="matrix(-0.4472 0.8944 -0.8944 -0.4472 466.3618 11.9077)" style="fill:#314E55;" width="17.655" height="37.395"/>
	
		<rect x="272.609" y="141.241" transform="matrix(-0.8944 0.4472 -0.4472 -0.8944 618.9716 154.018)" style="fill:#314E55;" width="37.395" height="17.655"/>
	
		<rect x="175.514" y="344.278" transform="matrix(-0.4761 0.8794 -0.8794 -0.4761 597.1928 350.4294)" style="fill:#314E55;" width="37.394" height="17.655"/>
	
		<rect x="237.295" y="344.277" transform="matrix(-0.9892 0.1465 -0.1465 -0.9892 560.944 664.8924)" style="fill:#314E55;" width="37.387" height="17.651"/>
	
		<rect x="299.102" y="344.286" transform="matrix(-0.4761 0.8794 -0.8794 -0.4761 779.6269 241.7591)" style="fill:#314E55;" width="37.394" height="17.655"/>
</g>
<g>
</g>
<g>
</g>
<g>
</g>
<g>
</g>
<g>
</g>
<g>
</g>
<g>
</g>
<g>
</g>
<g>
</g>
<g>
</g>
<g>
</g>
<g>
</g>
<g>
</g>
<g>
</g>
<g>
</g>
</svg>
