<?xml version="1.0" encoding="iso-8859-1"?>
<!-- Generator: Adobe Illustrator 19.0.0, SVG Export Plug-In . SVG Version: 6.00 Build 0)  -->
<svg version="1.1" id="Layer_1" xmlns="http://www.w3.org/2000/svg" xmlns:xlink="http://www.w3.org/1999/xlink" x="0px" y="0px"
	 viewBox="0 0 512 512" style="enable-background:new 0 0 512 512;" xml:space="preserve">
<path style="fill:#E4AD40;" d="M467.428,274.755c-11.865-5.834-25.692-6.04-38.919-0.572c-0.804,0.482-40.425,21.247-180.439,58.754
	C114.93,368.613,68.193,371.99,62.354,372.285c-14.362,2.18-26.268,9.444-33.55,20.487c-7.201,10.918-9.136,24.508-5.45,38.267
	c7.983,29.788,39.312,50.427,69.73,45.978c1.063-0.116,68.086-7.13,183.401-38.026c115.319-30.905,176.866-58.343,177.473-58.62
	c29.06-11.347,45.812-44.843,37.776-74.837C487.991,291.57,479.361,280.643,467.428,274.755z"/>
<path style="fill:#DBCF56;" d="M60.179,354.104c0.335-0.045,0.675-0.071,1.014-0.081c0.411-0.018,45.048-2.019,182.141-38.758
	c137.111-36.73,176.991-57.405,177.375-57.611c3.752-1.562,7.507-2.708,11.253-3.627c0.331-0.313,0.548-0.706,0.934-0.974
	c25.307-17.583,34.09-54.108,19.571-81.412c-6.786-12.768-17.659-21.479-30.61-24.526c-12.879-3.047-26.388-0.134-38.048,8.193
	c-0.675,0.643-34.613,29.788-162.592,97.843C99.513,317.855,54.729,331.659,49.109,333.259
	c-12.544,4.977-22.167,13.893-27.121,25.142c-2.492,5.664-3.653,11.755-3.612,17.947C28.669,364.378,43.219,356.552,60.179,354.104z
	"/>
<g>
	<path style="fill:#314E55;" d="M509.408,300.8c-5.124-19.129-17.159-34.202-33.885-42.448c-5.175-2.557-10.613-4.262-16.193-5.289
		c19.854-24.844,24.524-61.36,9.291-90.017c-9.292-17.476-24.414-29.466-42.569-33.737c-18.07-4.289-36.851-0.331-53.572,11.66
		c-0.326,0.277-33.719,28.957-159.854,96.029C87.308,303.623,44.261,315.622,43.864,315.729c-0.326,0.089-0.652,0.197-0.969,0.313
		c-17.302,6.71-30.673,19.138-37.65,34.988c-6.759,15.341-6.991,32.763-0.657,49.042c0.17,0.435,0.454,0.78,0.68,1.173
		c-2.846,10.934-2.75,22.726,0.415,34.53c9.368,34.97,43.632,60.157,79.063,60.157c3.52,0,7.054-0.25,10.574-0.759
		c2.765-0.277,68.975-7.183,185.903-38.508c116.932-31.334,177.723-58.468,179.823-59.424
		C498.088,382.784,519.781,339.522,509.408,300.8z M21.988,358.401c4.954-11.249,14.577-20.165,27.121-25.142
		c5.62-1.599,50.405-15.403,172.108-80.108c127.98-68.055,161.918-97.2,162.592-97.843c11.66-8.327,25.169-11.24,38.048-8.193
		c12.951,3.047,23.824,11.758,30.61,24.526c14.519,27.304,5.736,63.829-19.571,81.412c-0.385,0.268-0.603,0.662-0.934,0.974
		c-3.746,0.919-7.501,2.064-11.253,3.627c-0.384,0.205-40.264,20.88-177.375,57.611c-137.093,36.739-181.73,38.741-182.141,38.758
		c-0.339,0.009-0.679,0.036-1.014,0.081c-16.96,2.448-31.51,10.274-41.803,22.245C18.335,370.156,19.496,364.065,21.988,358.401z
		 M453.959,380.371c-0.607,0.277-62.154,27.715-177.473,58.62c-115.315,30.896-182.338,37.91-183.401,38.026
		c-30.418,4.449-61.747-16.189-69.73-45.978c-3.685-13.759-1.751-27.349,5.45-38.267c7.282-11.043,19.187-18.307,33.55-20.487
		c5.839-0.295,52.576-3.672,185.715-39.348c140.015-37.508,179.635-58.272,180.439-58.754c13.228-5.468,27.054-5.262,38.919,0.572
		c11.932,5.888,20.563,16.815,24.307,30.78C499.772,335.528,483.019,369.024,453.959,380.371z"/>
	<path style="fill:#314E55;" d="M158.884,185.167c-1.818,7.094-9.212,10.382-9.212,10.382c-4.673,1.912-6.915,7.255-5.003,11.928
		c1.447,3.547,4.865,5.691,8.475,5.691c1.153,0,2.323-0.215,3.458-0.679c1.595-0.652,15.73-6.835,19.92-22.435
		c3.382-12.607-0.96-26.831-12.91-42.279c-6.683-8.631-9.144-15.93-7.322-21.702c2.622-8.309,14.01-13.491,18.2-14.796
		c4.829-1.465,7.563-6.558,6.107-11.392c-1.461-4.834-6.589-7.559-11.396-6.129c-2.47,0.75-24.275,7.809-30.324,26.688
		c-3.797,11.856-0.344,24.829,10.261,38.535C157.227,169.434,160.6,178.493,158.884,185.167z"/>
	<path style="fill:#314E55;" d="M206.796,107.865c-1.818,7.085-9.212,10.373-9.212,10.373c-4.673,1.912-6.915,7.255-5.003,11.928
		c1.447,3.547,4.865,5.691,8.475,5.691c1.153,0,2.323-0.215,3.458-0.679c1.595-0.652,15.73-6.835,19.92-22.435
		c3.382-12.607-0.965-26.831-12.915-42.279c-6.679-8.631-9.144-15.93-7.322-21.702c2.627-8.309,14.014-13.491,18.204-14.796
		c4.829-1.465,7.563-6.558,6.107-11.392c-1.456-4.843-6.58-7.55-11.396-6.129c-2.47,0.75-24.275,7.809-30.324,26.688
		c-3.797,11.856-0.348,24.82,10.257,38.535C205.139,92.122,208.507,101.182,206.796,107.865z"/>
</g>
<g>
</g>
<g>
</g>
<g>
</g>
<g>
</g>
<g>
</g>
<g>
</g>
<g>
</g>
<g>
</g>
<g>
</g>
<g>
</g>
<g>
</g>
<g>
</g>
<g>
</g>
<g>
</g>
<g>
</g>
</svg>
