<?xml version="1.0" encoding="iso-8859-1"?>
<!-- Generator: Adobe Illustrator 19.0.0, SVG Export Plug-In . SVG Version: 6.00 Build 0)  -->
<svg version="1.1" id="Layer_1" xmlns="http://www.w3.org/2000/svg" xmlns:xlink="http://www.w3.org/1999/xlink" x="0px" y="0px"
	 viewBox="0 0 512 512" style="enable-background:new 0 0 512 512;" xml:space="preserve">
<path style="fill:#5ECC66;" d="M430.966,118.966c-8.679-7.552-20.078-10.358-32.116-10.358c-24.915,0-52.586,12.028-64.642,18.933
	c-2.309,1.154-177.69,87.586-208.638,170.959c-25.125,67.69-74.015,146.405-96.621,181.135
	c34.224-7.474,105.528-31.344,162.997-105.473c50.87-65.614,112.802-100.896,158.032-126.66
	c28.885-16.459,51.701-29.455,61.831-43.985c1.807-2.592,3.961-5.476,6.297-8.606C438.888,167.067,455.516,140.308,430.966,118.966z
	 M325.438,174.304c-0.894,0.475-89.302,47.694-115.366,79.933c-1.844,2.286-4.545,3.473-7.274,3.473
	c-2.063,0-4.134-0.68-5.868-2.076c-4.016-3.244-4.636-9.131-1.387-13.142c28.447-35.2,117.347-82.685,121.116-84.688
	c4.554-2.432,10.222-0.694,12.64,3.865C331.726,166.222,329.992,171.881,325.438,174.304z"/>
<g>
	<path style="fill:#314E55;" d="M316.658,157.803c-3.769,2.003-92.669,49.488-121.116,84.688c-3.249,4.011-2.628,9.897,1.387,13.142
		c1.734,1.396,3.806,2.076,5.868,2.076c2.729,0,5.43-1.186,7.274-3.473c26.065-32.239,114.472-79.459,115.366-79.933
		c4.554-2.423,6.288-8.081,3.86-12.635C326.88,157.11,321.212,155.371,316.658,157.803z"/>
	<path style="fill:#314E55;" d="M503.885,10.49c-5.111-0.662-9.82,2.916-10.495,8.031c-7.721,58.19-24.167,76.073-33.284,81.553
		c-8.396,5.042-15.232,2.729-15.752,2.542c-1.58-0.628-3.203-0.648-4.783-0.415c-42.475-31.387-111.631,7.388-114.106,8.834
		c-7.493,3.655-183.878,90.597-217.417,180.957C76.215,377.771,2.383,485.873,1.643,486.959c-2.026,2.943-2.19,6.781-0.429,9.888
		c1.661,2.943,4.782,4.741,8.132,4.741c0.182,0,0.374-0.005,0.566-0.018c4.581-0.278,113.149-8.059,196.801-115.955
		c48.589-62.671,106.213-95.498,152.51-121.874c30.938-17.623,55.379-31.545,67.918-49.538c1.707-2.441,3.733-5.161,5.941-8.113
		c14.751-19.756,40.099-53.923,23.434-84.88c3.844-0.762,8.011-2.127,12.406-4.645c21.766-12.471,36.232-44.628,42.994-95.58
		C512.601,15.866,508.996,11.17,503.885,10.49z M418.107,194.911c-2.336,3.13-4.49,6.014-6.297,8.606
		c-10.13,14.529-32.946,27.525-61.831,43.985c-45.23,25.764-107.162,61.046-158.032,126.66
		C134.478,448.291,63.174,472.161,28.95,479.635c22.606-34.73,71.496-113.445,96.621-181.135
		c30.948-83.374,206.329-169.805,208.638-170.959c12.056-6.904,39.727-18.933,64.642-18.933c12.038,0,23.436,2.806,32.116,10.358
		C455.516,140.308,438.888,167.067,418.107,194.911z"/>
</g>
<g>
</g>
<g>
</g>
<g>
</g>
<g>
</g>
<g>
</g>
<g>
</g>
<g>
</g>
<g>
</g>
<g>
</g>
<g>
</g>
<g>
</g>
<g>
</g>
<g>
</g>
<g>
</g>
<g>
</g>
</svg>
