<?xml version="1.0" encoding="iso-8859-1"?>
<!-- Generator: Adobe Illustrator 19.0.0, SVG Export Plug-In . SVG Version: 6.00 Build 0)  -->
<svg version="1.1" id="Layer_1" xmlns="http://www.w3.org/2000/svg" xmlns:xlink="http://www.w3.org/1999/xlink" x="0px" y="0px"
	 viewBox="0 0 512 512" style="enable-background:new 0 0 512 512;" xml:space="preserve">
<g>
	<path style="fill:#D8D8D8;" d="M288.243,286.663h-37.603l89.787,89.787l4.945-33.59c-0.995-0.437-1.946-1.019-2.761-1.834
		L288.243,286.663z"/>
	<path style="fill:#D8D8D8;" d="M335.264,396.779L225.148,286.663h-37.603l144.785,144.785l4.911-33.356
		C336.557,397.701,335.847,397.362,335.264,396.779z"/>
	<path style="fill:#D8D8D8;" d="M168.071,292.501l6.522,44.304l149.641,149.641l4.825-32.778L168.427,293.036
		C168.269,292.878,168.215,292.667,168.071,292.501z"/>
	<path style="fill:#D8D8D8;" d="M178.993,366.697l6.852,46.551c1.581,0.37,3.107,1.012,4.34,2.245l78.481,78.481h37.603
		L178.993,366.697z"/>
</g>
<g>
	<path style="fill:#EA86A5;" d="M343.934,208.156c-0.915,0.238-30.685,7.702-53.104,7.702c-38.708,0-118.126-10.571-121.488-11.02
		c-1.285-0.158-2.561-0.238-3.82-0.238c-6.791,0-13.067,2.262-17.908,6.549c-5.717,5.07-8.868,12.455-8.868,20.809v9.63
		c0,14.911,12.116,27.049,27.014,27.049h180.322c14.898,0,27.014-12.138,27.014-27.049v-9.63c0-8.248-3.001-15.219-8.45-19.629
		C359.255,207.944,351.918,206.466,343.934,208.156z"/>
	<path style="fill:#EA86A5;" d="M249.596,124.244l11.769,1.514c18.075,2.227,32.854-1.91,45.873-5.581
		c5.949-1.679,11.775-3.31,17.423-4.108c5.064-55.376-22.178-95.548-35.983-97.972c-2.143-0.37-3.842,2.051-4.969,7.271
		c-7.262,33.528-34.531,35.737-58.596,37.691c-13.3,1.074-27.054,2.192-38.078,8.133c-5.713,3.072-9.194,7.262-10.637,12.79
		c-3.06,11.738,3.282,27.218,7.664,35.404C203.783,118.333,226.883,121.297,249.596,124.244z"/>
</g>
<g>
	<polygon style="fill:#D8D8D8;" points="189.885,440.683 197.729,493.973 243.175,493.973 	"/>
	<polygon style="fill:#D8D8D8;" points="313.735,286.663 348.522,321.448 353.643,286.663 346.082,286.663 	"/>
</g>
<path style="fill:#EA86A5;" d="M171.631,186.96c0.915,0.114,81.693,10.871,119.2,10.871c20.157,0,48.738-7.165,49.024-7.235
	c1.843-0.393,3.664-0.664,5.466-0.852c2.835-18.285,3.409-44.292-5.713-52.912c-5.272-4.964-11.725-3.759-27.472,0.695
	c-13.929,3.935-31.257,8.846-53.007,6.117l-11.857-1.523c-36.107-4.692-77.042-10.008-91.31,4.243
	c-10.349,10.349-4.799,30.888-0.955,41.435C160.294,186.591,165.88,186.255,171.631,186.96z"/>
<path style="fill:#314E55;" d="M382.268,268.636h-0.385c5.717-7.557,9.239-16.86,9.239-27.049v-9.63
	c0-13.784-5.374-25.738-15.131-33.642c-3.815-3.087-8.105-5.361-12.724-6.843c2.492-16.792,5.342-52.045-11.284-67.739
	c-3.018-2.855-6.159-4.741-9.386-6.033c5.628-62.318-25.454-112.907-50.804-117.357c-9.854-1.76-21.75,2.931-25.707,21.205
	c-4.23,19.55-17.459,21.513-42.431,23.537c-14.445,1.179-30.817,2.509-45.169,10.237c-10.224,5.501-16.795,13.617-19.532,24.109
	c-3.98,15.264,1.559,32.033,6.361,42.609c-8.796,2.22-16.372,5.852-22.1,11.578c-18.15,18.147-9.776,48.21-4.652,61.734
	c-0.987,0.736-1.973,1.477-2.905,2.302c-9.633,8.538-14.941,20.712-14.941,34.302v9.63c0,10.189,3.522,19.492,9.239,27.049h-0.226
	c-4.978,0-9.013,4.031-9.013,9.013c0,4.982,4.036,9.013,9.013,9.013h19.258l32.037,217.635c0.651,4.427,4.445,7.702,8.917,7.702
	h140.968c4.472,0,8.265-3.274,8.917-7.702l32.037-217.635h10.403c4.978,0,9.013-4.032,9.013-9.013S387.246,268.636,382.268,268.636z
	 M373.096,231.957v9.63c0,14.911-12.116,27.049-27.014,27.049H165.76c-14.898,0-27.014-12.138-27.014-27.049v-9.63
	c0-8.353,3.151-15.738,8.868-20.809c4.841-4.287,11.117-6.549,17.908-6.549c1.259,0,2.535,0.079,3.82,0.238
	c3.362,0.449,82.781,11.02,121.488,11.02c22.419,0,52.189-7.464,53.104-7.702c7.984-1.69,15.32-0.211,20.712,4.172
	C370.095,216.738,373.096,223.709,373.096,231.957z M324.234,486.446L174.593,336.805l-6.522-44.304
	c0.144,0.166,0.197,0.377,0.355,0.535l160.632,160.632L324.234,486.446z M268.666,493.973l-78.481-78.481
	c-1.233-1.233-2.759-1.875-4.34-2.245l-6.852-46.551L306.27,493.973L268.666,493.973L268.666,493.973z M187.545,286.663h37.603
	l110.116,110.116c0.583,0.583,1.293,0.923,1.976,1.313l-4.911,33.356L187.545,286.663z M340.426,376.449l-89.787-89.787h37.603
	l54.367,54.363c0.815,0.815,1.766,1.397,2.761,1.834L340.426,376.449z M176.397,83.982c1.444-5.528,4.925-9.718,10.637-12.79
	c11.025-5.941,24.778-7.059,38.078-8.133c24.065-1.954,51.335-4.164,58.596-37.691c1.127-5.22,2.826-7.64,4.969-7.271
	c13.805,2.424,41.046,42.595,35.983,97.972c-5.648,0.798-11.474,2.429-17.423,4.108c-13.018,3.671-27.797,7.807-45.873,5.581
	l-11.769-1.514c-22.713-2.947-45.814-5.911-65.535-4.857C179.679,111.2,173.337,95.72,176.397,83.982z M155.963,146.364
	c14.268-14.251,55.203-8.934,91.31-4.243l11.857,1.523c21.75,2.729,39.078-2.183,53.007-6.117
	c15.747-4.454,22.199-5.66,27.472-0.695c9.121,8.62,8.548,34.627,5.713,52.912c-1.802,0.188-3.623,0.459-5.466,0.852
	c-0.286,0.07-28.867,7.235-49.024,7.235c-37.506,0-118.284-10.756-119.2-10.871c-5.751-0.705-11.337-0.369-16.622,0.839
	C151.164,177.252,145.614,156.713,155.963,146.364z M189.885,440.683l53.29,53.29h-45.446L189.885,440.683z M348.522,321.448
	l-34.788-34.785h32.347h7.561L348.522,321.448z"/>
<g>
</g>
<g>
</g>
<g>
</g>
<g>
</g>
<g>
</g>
<g>
</g>
<g>
</g>
<g>
</g>
<g>
</g>
<g>
</g>
<g>
</g>
<g>
</g>
<g>
</g>
<g>
</g>
<g>
</g>
</svg>
