<?xml version="1.0" encoding="iso-8859-1"?>
<!-- Generator: Adobe Illustrator 19.0.0, SVG Export Plug-In . SVG Version: 6.00 Build 0)  -->
<svg version="1.1" id="Layer_1" xmlns="http://www.w3.org/2000/svg" xmlns:xlink="http://www.w3.org/1999/xlink" x="0px" y="0px"
	 viewBox="0 0 512 512" style="enable-background:new 0 0 512 512;" xml:space="preserve">
<path style="fill:#73C9C9;" d="M131.266,158.021c-17.659-40.305-2.546-88.447,36.433-110.959c4.639-2.7,10.603-1.088,13.298,3.564
	c2.685,4.653,1.093,10.608-3.564,13.298c-29.665,17.131-41.499,53.341-29.129,84.26l147.502-85.16
	c-13.902-19.631-34.019-33.675-57.539-39.982c-8.911-2.386-17.951-3.564-26.934-3.564c-17.922,0-35.607,4.7-51.543,13.902
	c-23.925,13.811-41.035,36.111-48.188,62.793c-6.302,23.526-4.197,47.974,5.855,69.822l2.42-1.398L131.266,158.021z"/>
<polygon style="fill:#E9E7D1;" points="170.465,157.871 118.376,187.946 118.372,187.947 117.996,188.165 167.554,235.834 
	213.449,174.487 229.038,186.15 181.694,249.434 225.281,291.36 257.583,250.311 272.882,262.35 239.381,304.922 278.887,342.922 
	295.385,317.928 311.63,328.65 293.152,356.644 412.968,471.892 314.74,74.575 "/>
<path style="fill:#314E55;" d="M439.953,499.928L332.29,64.444l19.092-11.023l-9.734-16.863l-25.425,14.679
	c-0.002,0.002-0.005,0.001-0.005,0.001l-3.574,2.064C296.101,29.197,271.85,11.891,243.305,4.24
	c-31.71-8.498-64.817-4.13-93.248,12.276c-28.426,16.411-48.758,42.912-57.256,74.618c-7.651,28.545-4.785,58.2,7.819,84.58
	l-28.86,16.662l9.734,16.863l18.95-10.941l112.737,108.438l-0.052,0.066l0.661,0.521l209.965,201.959
	c1.863,1.792,4.296,2.719,6.754,2.719c1.663,0,3.346-0.428,4.862-1.302C439.126,508.531,440.994,504.139,439.953,499.928z
	 M111.603,96.172c7.153-26.682,24.263-48.981,48.188-62.793c15.936-9.201,33.621-13.902,51.543-13.902
	c8.983,0,18.022,1.179,26.934,3.564c23.52,6.307,43.636,20.351,57.539,39.982l-147.502,85.16
	c-12.37-30.919-0.537-67.128,29.129-84.26c4.658-2.69,6.25-8.645,3.564-13.298c-2.695-4.653-8.659-6.264-13.298-3.564
	c-38.979,22.512-54.092,70.654-36.433,110.959l-11.388,6.574l-2.42,1.398C107.406,144.145,105.301,119.698,111.603,96.172z
	 M293.152,356.644l18.479-27.993l-16.245-10.722l-16.498,24.995l-39.506-38l33.501-42.572l-15.299-12.039l-32.301,41.049
	l-43.588-41.926l47.344-63.285l-15.589-11.663l-45.895,61.348l-49.558-47.67l0.375-0.216c0,0,0.004-0.001,0.005-0.002l52.09-30.075
	L314.74,74.575l98.228,397.316L293.152,356.644z"/>
<g>
</g>
<g>
</g>
<g>
</g>
<g>
</g>
<g>
</g>
<g>
</g>
<g>
</g>
<g>
</g>
<g>
</g>
<g>
</g>
<g>
</g>
<g>
</g>
<g>
</g>
<g>
</g>
<g>
</g>
</svg>
