<?xml version="1.0" encoding="iso-8859-1"?>
<!-- Generator: Adobe Illustrator 19.0.0, SVG Export Plug-In . SVG Version: 6.00 Build 0)  -->
<svg version="1.1" id="Layer_1" xmlns="http://www.w3.org/2000/svg" xmlns:xlink="http://www.w3.org/1999/xlink" x="0px" y="0px"
	 viewBox="0 0 512 512" style="enable-background:new 0 0 512 512;" xml:space="preserve">
<g>
	<polygon style="fill:#E5D85A;" points="167.731,492.308 344.269,492.308 350.832,482.462 161.168,482.462 	"/>
	<path style="fill:#E5D85A;" d="M260.923,384c-5.438,0-9.846-4.409-9.846-9.846V167.385c0-5.438,4.409-9.846,9.846-9.846h128
		v-39.385c0-16.288-13.26-29.538-29.558-29.538H152.635c-16.298,0-29.558,13.25-29.558,29.538v315.077
		c0,16.289,13.26,29.538,29.558,29.538h206.731c16.298,0,29.558-13.25,29.558-29.538V384H260.923z M152.615,443.596h-19.692V118.154
		h19.692V443.596z"/>
</g>
<rect x="270.769" y="177.231" style="fill:#73C9C9;" width="118.154" height="187.077"/>
<path style="fill:#D8D8D8;" d="M388.942,19.692H123.058c-5.418,0-9.827,4.418-9.827,9.846c0,5.519,4.317,9.846,9.827,9.846h265.885
	c5.418,0,9.827-4.418,9.827-9.846C398.769,24.019,394.452,19.692,388.942,19.692z"/>
<g>
	<path style="fill:#314E55;" d="M359.365,68.923H152.635c-27.159,0-49.25,22.087-49.25,49.231v315.077
		c0,21.023,13.314,38.875,31.907,45.918l18.977,28.466c1.827,2.74,4.899,4.384,8.192,4.384h187.077c3.293,0,6.365-1.644,8.192-4.384
		l18.977-28.466c18.593-7.043,31.907-24.896,31.907-45.918v-59.077V167.385v-49.231C408.615,91.01,386.524,68.923,359.365,68.923z
		 M344.269,492.308H167.731l-6.562-9.846h189.663L344.269,492.308z M359.365,462.769H152.635c-16.298,0-29.558-13.25-29.558-29.538
		V118.154c0-16.288,13.26-29.538,29.558-29.538h206.731c16.298,0,29.558,13.25,29.558,29.538v39.385h-128
		c-5.438,0-9.846,4.409-9.846,9.846v206.769c0,5.438,4.409,9.846,9.846,9.846h128v49.231
		C388.923,449.519,375.664,462.769,359.365,462.769z M388.923,364.308H270.769V177.231h118.154V364.308z"/>
	<path style="fill:#314E55;" d="M388.942,0H123.058c-16.279,0-29.519,13.25-29.519,29.538s13.24,29.538,29.519,29.538h265.885
		c16.279,0,29.519-13.25,29.519-29.538S405.221,0,388.942,0z M388.942,39.385H123.058c-5.51,0-9.827-4.327-9.827-9.846
		c0-5.428,4.409-9.846,9.827-9.846h265.885c5.51,0,9.827,4.327,9.827,9.846C398.769,34.966,394.361,39.385,388.942,39.385z"/>
	<rect x="132.923" y="118.154" style="fill:#314E55;" width="19.692" height="325.44"/>
</g>
<g>
</g>
<g>
</g>
<g>
</g>
<g>
</g>
<g>
</g>
<g>
</g>
<g>
</g>
<g>
</g>
<g>
</g>
<g>
</g>
<g>
</g>
<g>
</g>
<g>
</g>
<g>
</g>
<g>
</g>
</svg>
