<?xml version="1.0" encoding="iso-8859-1"?>
<!-- Generator: Adobe Illustrator 19.0.0, SVG Export Plug-In . SVG Version: 6.00 Build 0)  -->
<svg version="1.1" id="Layer_1" xmlns="http://www.w3.org/2000/svg" xmlns:xlink="http://www.w3.org/1999/xlink" x="0px" y="0px"
	 viewBox="0 0 512 512" style="enable-background:new 0 0 512 512;" xml:space="preserve">
<g>
	<circle style="fill:#EAEAEA;" cx="265.149" cy="283.291" r="9.148"/>
	<path style="fill:#EAEAEA;" d="M164.523,210.467c-0.098-2.488,0.813-4.909,2.546-6.705c1.724-1.796,4.101-2.81,6.593-2.81h39.079
		l-2.418-54.891h-72.79l17.386,347.643h20.988L164.523,210.467z"/>
	<circle style="fill:#EAEAEA;" cx="228.559" cy="365.621" r="9.148"/>
	<path style="fill:#EAEAEA;" d="M231.056,200.952h107.279c2.493,0,4.869,1.014,6.593,2.81c1.733,1.796,2.644,4.217,2.546,6.705
		L336.09,493.704h20.988l17.386-347.643H228.637L231.056,200.952z"/>
</g>
<path style="fill:#F28544;" d="M183.186,219.249l11.034,274.455h123.558l11.034-274.455L183.186,219.249L183.186,219.249z
	 M228.554,393.071c-15.134,0-27.445-12.311-27.445-27.445s12.311-27.445,27.445-27.445s27.445,12.31,27.445,27.444
	S243.688,393.071,228.554,393.071z M265.148,310.734c-15.134,0-27.445-12.311-27.445-27.445s12.311-27.445,27.445-27.445
	c15.134,0,27.445,12.311,27.445,27.445S280.282,310.734,265.148,310.734z"/>
<g>
	<path style="fill:#314E55;" d="M390.707,130.605c-1.724-1.814-4.128-2.841-6.629-2.841H227.831l-2.77-62.847
		c-0.116-2.68-1.403-5.173-3.52-6.817l-72.16-56.164c-3.994-3.109-9.738-2.399-12.838,1.599c-3.1,3.989-2.385,9.734,1.599,12.838
		l68.828,53.569l2.548,57.821h-81.597c-2.502,0-4.905,1.027-6.629,2.841c-1.724,1.818-2.635,4.262-2.511,6.763l18.297,365.94
		c0.25,4.869,4.262,8.693,9.14,8.693h39.212h141.139h39.212c4.878,0,8.889-3.824,9.14-8.693l18.297-365.94
		C393.343,134.867,392.431,132.423,390.707,130.605z M137.533,146.061h72.79l2.418,54.891h-39.079c-2.493,0-4.869,1.014-6.593,2.81
		c-1.733,1.796-2.644,4.217-2.546,6.705l11.384,283.237h-20.988L137.533,146.061z M194.22,493.704l-11.034-274.455h145.626
		l-11.034,274.455H194.22z M357.079,493.704h-20.988l11.384-283.237c0.098-2.488-0.813-4.909-2.546-6.705
		c-1.724-1.796-4.101-2.81-6.593-2.81h-107.28l-2.42-54.891h145.828L357.079,493.704z"/>
	<path style="fill:#314E55;" d="M265.148,255.843c-15.134,0-27.445,12.311-27.445,27.445s12.311,27.446,27.445,27.446
		c15.134,0,27.445-12.311,27.445-27.445S280.282,255.843,265.148,255.843z M265.148,292.437c-5.048,0-9.148-4.105-9.148-9.148
		s4.101-9.148,9.148-9.148c5.048,0,9.148,4.105,9.148,9.148S270.195,292.437,265.148,292.437z"/>
	<path style="fill:#314E55;" d="M228.554,338.18c-15.134,0-27.445,12.311-27.445,27.445s12.311,27.445,27.445,27.445
		s27.445-12.311,27.445-27.445S243.688,338.18,228.554,338.18z M228.554,374.774c-5.048,0-9.148-4.105-9.148-9.148
		s4.101-9.148,9.148-9.148s9.148,4.105,9.148,9.148C237.702,370.668,233.601,374.774,228.554,374.774z"/>
</g>
<g>
</g>
<g>
</g>
<g>
</g>
<g>
</g>
<g>
</g>
<g>
</g>
<g>
</g>
<g>
</g>
<g>
</g>
<g>
</g>
<g>
</g>
<g>
</g>
<g>
</g>
<g>
</g>
<g>
</g>
</svg>
