<?xml version="1.0" encoding="iso-8859-1"?>
<!-- Generator: Adobe Illustrator 19.0.0, SVG Export Plug-In . SVG Version: 6.00 Build 0)  -->
<svg version="1.1" id="Layer_1" xmlns="http://www.w3.org/2000/svg" xmlns:xlink="http://www.w3.org/1999/xlink" x="0px" y="0px"
	 viewBox="0 0 512 512" style="enable-background:new 0 0 512 512;" xml:space="preserve">
<g>
	<polygon style="fill:#EAEAEA;" points="296.616,91.432 160.001,91.432 160.001,283.43 253.262,283.43 	"/>
	<polygon style="fill:#EAEAEA;" points="351.999,283.43 351.999,91.432 315.365,91.432 272.01,283.43 	"/>
	
		<rect x="233.141" y="420.593" transform="matrix(-0.3257 0.9455 -0.9455 -0.3257 748.2645 344.1004)" style="fill:#EAEAEA;" width="36.572" height="36.572"/>
</g>
<path style="fill:#5ECC66;" d="M160.001,301.716v191.998h191.998V301.716H160.001z M294.933,424.831l-17.857,51.87
	c-0.786,2.29-2.455,4.178-4.634,5.241c-1.259,0.612-2.634,0.924-4.009,0.924c-1.005,0-2.009-0.165-2.978-0.5l-51.87-17.862
	c-2.29-0.786-4.178-2.455-5.241-4.634c-1.063-2.178-1.214-4.692-0.424-6.986l17.862-51.866c1.638-4.772,6.835-7.312,11.62-5.665
	l51.866,17.857C294.04,414.854,296.58,420.054,294.933,424.831z M315.428,329.144v54.857c0,5.049-4.094,9.143-9.143,9.143h-54.857
	c-5.049,0-9.143-4.094-9.143-9.143v-54.857c0-5.049,4.094-9.143,9.143-9.143h54.857
	C311.334,320.002,315.428,324.095,315.428,329.144z"/>
<rect x="260.571" y="338.283" style="fill:#EAEAEA;" width="36.571" height="36.571"/>
<g>
	<path style="fill:#314E55;" d="M361.142,73.146h-41.649l13.997-61.986c1.112-4.924-1.982-9.821-6.906-10.933
		c-4.933-1.116-9.826,1.982-10.933,6.906l-14.906,66.013H150.858c-5.049,0-9.143,4.094-9.143,9.143v210.284v210.284
		c0,5.049,4.094,9.143,9.143,9.143h210.284c5.049,0,9.143-4.094,9.143-9.143V292.573V82.289
		C370.285,77.24,366.191,73.146,361.142,73.146z M351.999,91.432V283.43H272.01l43.355-191.998H351.999z M160.001,91.432h136.616
		L253.262,283.43h-93.261V91.432z M351.999,493.714H160.001V301.716h191.998V493.714z"/>
	<path style="fill:#314E55;" d="M242.286,329.144v54.857c0,5.049,4.094,9.143,9.143,9.143h54.857c5.049,0,9.143-4.094,9.143-9.143
		v-54.857c0-5.049-4.094-9.143-9.143-9.143h-54.857C246.38,320.002,242.286,324.095,242.286,329.144z M260.571,338.287h36.571
		v36.571h-36.571V338.287z"/>
	<path style="fill:#314E55;" d="M289.268,413.211l-51.866-17.857c-4.786-1.647-9.982,0.893-11.62,5.665l-17.862,51.866
		c-0.79,2.295-0.638,4.808,0.424,6.986c1.062,2.178,2.951,3.848,5.241,4.634l51.87,17.862c0.969,0.335,1.973,0.5,2.978,0.5
		c1.375,0,2.75-0.312,4.009-0.924c2.178-1.062,3.848-2.951,4.634-5.241l17.857-51.87C296.58,420.054,294.04,414.854,289.268,413.211
		z M262.763,462.103l-34.58-11.911l11.911-34.576l34.576,11.906L262.763,462.103z"/>
</g>
<g>
</g>
<g>
</g>
<g>
</g>
<g>
</g>
<g>
</g>
<g>
</g>
<g>
</g>
<g>
</g>
<g>
</g>
<g>
</g>
<g>
</g>
<g>
</g>
<g>
</g>
<g>
</g>
<g>
</g>
</svg>
