<?xml version="1.0" encoding="iso-8859-1"?>
<!-- Generator: Adobe Illustrator 19.0.0, SVG Export Plug-In . SVG Version: 6.00 Build 0)  -->
<svg version="1.1" id="Layer_1" xmlns="http://www.w3.org/2000/svg" xmlns:xlink="http://www.w3.org/1999/xlink" x="0px" y="0px"
	 viewBox="0 0 512 512" style="enable-background:new 0 0 512 512;" xml:space="preserve">
<g>
	<path style="fill:#C59981;" d="M298.209,145.421c13.237,1.952,31.22,4.589,56.426,7.49c0.442-12.326-0.34-23.317-2.538-32.509
		c-32.75,7.438-142.866,20.853-185.463,20.853c-3.485,0-6.498-0.093-8.998-0.283c-1.285,12.191,1.64,24.196,6.572,37.577
		c24.052-9.608,40.808-16.946,53.264-22.417C255.297,139.518,256.801,139.316,298.209,145.421z"/>
	<path style="fill:#C59981;" d="M178.059,212.971c30.277-8.849,49.799-15.484,62.791-19.91
		c32.447-11.053,33.768-11.158,70.842-4.833c9.588,1.633,21.942,3.729,38.045,6.159c1.498-8.119,2.672-15.976,3.52-23.543
		c-25.846-2.966-44.19-5.665-57.671-7.651c-37.057-5.447-37.066-5.465-70.895,9.386c-12.581,5.52-29.505,12.94-53.832,22.666
		c0.362,0.873,0.709,1.719,1.078,2.606C173.927,202.645,175.996,207.737,178.059,212.971z"/>
	<polygon style="fill:#C59981;" points="237.547,494.035 244.406,494.035 240.976,487.175 	"/>
	<path style="fill:#C59981;" d="M337.959,243.271c3.069-10.538,5.797-21,8.131-31.266c-15.758-2.389-27.941-4.452-37.416-6.067
		c-33.268-5.667-33.268-5.675-62.035,4.131c-12.975,4.42-32.419,11.023-62.407,19.804c1.479,4.398,2.858,8.947,4.151,13.646
		c21.582,0.903,38.504-2.296,54.875-5.45C270.818,232.776,296.959,227.796,337.959,243.271z"/>
	<path style="fill:#C59981;" d="M251.998,363.605c-13.075,5.465-26.491,11.07-45.824,11.07c-5.344,0-11.269-0.556-17.633-1.531
		c-0.128,2.145-0.236,4.457-0.31,6.869c25.519,2.736,40.704,5.092,50.829,6.679c18.254,2.842,18.246,2.842,40.044-3.018
		c5.557-1.5,12.417-3.342,21.136-5.579l0.293-0.075c0.756-7.315,1.825-15.249,3.31-23.651
		C280.555,351.859,266.6,357.506,251.998,363.605z"/>
	<path style="fill:#C59981;" d="M193.617,342.546c-0.348,1.415-0.696,2.806-1.039,4.165c-0.74,2.922-1.359,5.749-1.972,8.599
		c24.833,3.981,38.667-1.67,54.468-8.283c15.682-6.549,33.506-13.853,62.417-10.316c1.24-5.275,2.649-10.661,4.254-16.141
		L193.617,342.546z"/>
	<path style="fill:#C59981;" d="M248.169,260.824c13.572,1.327,36.202,3.518,83.434,3.015c0.361-1.096,0.697-2.195,1.052-3.292
		c-36.833-14.118-59.742-9.899-86.003-4.837c-15.385,2.968-32.552,6.229-53.839,5.937c0.935,4.406,1.746,8.617,2.412,12.595
		l3.453-1.725C225.169,259.211,227.007,258.79,248.169,260.824z"/>
	<path style="fill:#C59981;" d="M283.77,401.017c-14.623,3.939-21.079,5.579-28.311,5.579c-5.018,0-10.412-0.79-19.171-2.158
		c-9.655-1.507-24.003-3.731-47.757-6.328c0.267,3.722,0.673,7.409,1.296,10.899c3.447,5.553,36.395,13.105,72.785,10.825
		c27.399-1.737,35.531-7.886,36.206-9.439c-0.006-3.836,0.081-8.381,0.307-13.453C293.076,398.519,288.025,399.879,283.77,401.017z"
		/>
	<path style="fill:#C59981;" d="M318.198,301.099c0.548-1.48,1.067-2.955,1.646-4.441c1.901-4.877,3.754-9.821,5.558-14.804
		c-43.992,0.22-65.676-1.852-78.979-3.144c-16.794-1.64-16.785-1.649-39.676,9.86l-9.127,4.559
		c0.996,12.213,0.625,22.08-0.405,30.477L318.198,301.099z"/>
	<polygon style="fill:#C59981;" points="244.406,17.965 237.547,17.965 240.976,24.825 	"/>
	<path style="fill:#C59981;" d="M345.051,103.62c-1.744-2.475-3.663-4.705-5.93-6.435c-62.026-47.351-136.07-26.351-163.531,6.281
		c-5.908,7.016-10.1,13.592-13.023,19.948C191.608,124.203,307.709,111.667,345.051,103.62z"/>
</g>
<path style="fill:#314E55;" d="M350.025,82.904c-24.174-18.454-62.221-31.631-100.066-30.676v-5.193L266.976,13
	c1.39-2.781,1.241-6.088-0.395-8.737S262.055,0,258.941,0h-35.93c-3.114,0-6.004,1.614-7.64,4.263s-1.785,5.956-0.395,8.737
	l17.017,34.035v6.643c-26.186,4.002-51.178,15.686-70.149,38.208c-35.728,42.439-22.184,75.071-6.5,112.851
	c6.118,14.746,12.447,29.991,16.93,47.772c0.598,2.371,1.118,4.613,1.639,6.856l-0.086,1.302l0.404,0.027
	c7.413,32.482,6.864,51.683,4.325,66.385l-1.04,0.194l0.502,2.695c-0.863,4.396-1.869,8.44-2.857,12.349
	c-1.14,4.509-2.224,8.816-3.018,13.272c-0.004,0.017-0.009,0.035-0.009,0.053c-0.053,0.289-4.425,31.702,0.009,56.526
	c2.964,16.582,32.241,23.374,59.851,25.32v27.479L214.977,499c-1.39,2.781-1.241,6.088,0.395,8.737
	c1.636,2.649,4.526,4.263,7.64,4.263h35.93c3.114,0,6.004-1.614,7.64-4.263s1.785-5.956,0.395-8.737l-17.017-34.035V438.12
	c0.076,0,0.157,0.003,0.232,0.003c6.961,0,13.32-0.281,18.504-0.737c39.715-3.526,48.053-16.518,48.053-26.798
	c0-16.991,1.934-61.465,19.833-107.403C348.147,273.518,403.139,123.465,350.025,82.904z M237.547,494.035l3.43-6.86l3.43,6.86
	H237.547z M300.24,378.096c-8.719,2.237-15.579,4.079-21.136,5.579c-21.798,5.86-21.789,5.86-40.044,3.018
	c-10.125-1.587-25.31-3.944-50.829-6.679c0.075-2.412,0.182-4.724,0.31-6.869c6.365,0.974,12.29,1.531,17.633,1.531
	c19.333,0,32.75-5.605,45.824-11.07c14.601-6.099,28.557-11.747,51.844-9.235c-1.485,8.402-2.554,16.336-3.31,23.651L300.24,378.096
	z M307.49,336.71c-28.911-3.537-46.734,3.767-62.417,10.316c-15.801,6.614-29.634,12.264-54.468,8.283
	c0.613-2.85,1.232-5.678,1.972-8.599c0.343-1.359,0.692-2.75,1.039-4.165l118.127-21.977
	C310.139,326.049,308.73,331.435,307.49,336.71z M157.636,140.972c2.5,0.19,5.513,0.283,8.998,0.283
	c42.597,0,152.713-13.414,185.463-20.853c2.198,9.192,2.98,20.183,2.538,32.509c-25.206-2.901-43.19-5.538-56.426-7.49
	c-41.408-6.105-42.912-5.904-80.737,10.71c-12.456,5.47-29.212,12.809-53.264,22.417
	C159.276,165.167,156.351,153.162,157.636,140.972z M224.691,172.579c33.829-14.851,33.838-14.833,70.895-9.386
	c13.481,1.986,31.825,4.685,57.671,7.651c-0.849,7.568-2.022,15.424-3.52,23.543c-16.103-2.43-28.457-4.526-38.045-6.159
	c-37.075-6.325-38.395-6.219-70.842,4.833c-12.992,4.425-32.514,11.06-62.791,19.91c-2.063-5.234-4.131-10.326-6.122-15.12
	c-0.368-0.887-0.716-1.734-1.078-2.606C195.186,185.519,212.111,178.099,224.691,172.579z M188.383,243.52
	c-1.292-4.699-2.672-9.248-4.151-13.646c29.987-8.781,49.431-15.384,62.407-19.804c28.767-9.807,28.767-9.798,62.035-4.131
	c9.475,1.615,21.658,3.678,37.416,6.067c-2.335,10.266-5.062,20.728-8.131,31.266c-41-15.476-67.14-10.496-94.702-5.201
	C226.887,241.224,209.965,244.423,188.383,243.52z M192.813,261.647c21.288,0.292,38.454-2.969,53.839-5.937
	c26.262-5.062,49.17-9.281,86.003,4.837c-0.355,1.097-0.691,2.196-1.052,3.292c-47.232,0.503-69.862-1.688-83.434-3.015
	c-21.162-2.035-23-1.614-49.491,11.693l-3.453,1.725C194.559,270.265,193.747,266.054,192.813,261.647z M244.406,17.965l-3.43,6.86
	l-3.43-6.86H244.406z M175.59,103.465c27.46-32.631,101.504-53.632,163.531-6.281c2.267,1.731,4.187,3.96,5.93,6.435
	c-37.342,8.047-153.444,20.584-182.484,19.794C165.49,117.056,169.682,110.481,175.59,103.465z M197.621,293.129l9.127-4.559
	c22.89-11.509,22.882-11.5,39.676-9.86c13.303,1.292,34.987,3.363,78.979,3.144c-1.804,4.983-3.657,9.927-5.558,14.804
	c-0.579,1.486-1.098,2.961-1.646,4.441l-120.982,22.508C198.246,315.209,198.617,305.343,197.621,293.129z M262.612,419.833
	c-36.39,2.281-69.338-5.272-72.785-10.825c-0.623-3.49-1.029-7.177-1.296-10.899c23.754,2.597,38.101,4.821,47.757,6.328
	c8.759,1.368,14.153,2.158,19.171,2.158c7.232,0,13.689-1.64,28.311-5.579c4.254-1.139,9.306-2.498,15.355-4.076
	c-0.226,5.072-0.313,9.617-0.307,13.453C298.143,411.947,290.011,418.096,262.612,419.833z"/>
<g>
</g>
<g>
</g>
<g>
</g>
<g>
</g>
<g>
</g>
<g>
</g>
<g>
</g>
<g>
</g>
<g>
</g>
<g>
</g>
<g>
</g>
<g>
</g>
<g>
</g>
<g>
</g>
<g>
</g>
</svg>
