<?xml version="1.0" encoding="iso-8859-1"?>
<!-- Generator: Adobe Illustrator 19.0.0, SVG Export Plug-In . SVG Version: 6.00 Build 0)  -->
<svg version="1.1" id="Layer_1" xmlns="http://www.w3.org/2000/svg" xmlns:xlink="http://www.w3.org/1999/xlink" x="0px" y="0px"
	 viewBox="0 0 512 512" style="enable-background:new 0 0 512 512;" xml:space="preserve">
<path style="fill:#F28544;" d="M117.857,292.541V47.103c-12.435,18.273-30.834,51.315-49.786,106.748
	C42.19,229.56,40.732,275.284,41.468,292.541h38.041H117.857z"/>
<g>
	<rect x="365.771" y="311.632" style="fill:#D8D8D8;" width="28.625" height="181.292"/>
	<rect x="89.062" y="311.632" style="fill:#D8D8D8;" width="28.625" height="181.292"/>
</g>
<path style="fill:#F28544;" d="M289.426,219.468l15.603,73.072h51.189h47.708h51.189l15.603-73.166V25.373H289.426V219.468z
	 M403.926,44.456h19.083v182.411h-19.083V44.456z M337.135,44.456h19.083v182.411h-19.083V44.456z"/>
<g>
	<path style="fill:#314E55;" d="M50.012,147.682c-35.497,103.84-27.05,154.009-26.673,156.096l1.416,7.846h45.211v190.834
		c0,5.274,4.272,9.542,9.542,9.542h47.709c5.269,0,9.542-4.268,9.542-9.542V311.624h0.182V0l-15.65,13.036
		C119.851,14.238,85.579,43.646,50.012,147.682z M68.071,153.851c18.953-55.433,37.351-88.475,49.786-106.748v245.438H79.509H41.468
		C40.732,275.284,42.19,229.56,68.071,153.851z M117.675,492.917H89.05V311.624h28.625V492.917z"/>
	<path style="fill:#314E55;" d="M480.26,6.29H279.884c-5.269,0-9.542,4.268-9.542,9.542v204.644c0,0.671,0.07,1.342,0.21,1.994
		l17.425,81.608c0.941,4.398,4.831,7.548,9.332,7.548h49.367v190.834c0,5.274,4.272,9.542,9.542,9.542h47.708
		c5.269,0,9.542-4.268,9.542-9.542V311.624h49.367c4.501,0,8.391-3.149,9.332-7.548l17.425-81.701c0.14-0.661,0.21-1.323,0.21-1.994
		V15.831C489.802,10.557,485.53,6.29,480.26,6.29z M394.385,492.917H365.76V311.624h28.625V492.917z M470.718,219.375
		l-15.603,73.166h-51.189h-47.708h-51.189l-15.603-73.072V25.373h181.292V219.375z"/>
	<rect x="337.146" y="44.457" style="fill:#314E55;" width="19.083" height="182.414"/>
	<rect x="403.938" y="44.457" style="fill:#314E55;" width="19.083" height="182.414"/>
</g>
<g>
</g>
<g>
</g>
<g>
</g>
<g>
</g>
<g>
</g>
<g>
</g>
<g>
</g>
<g>
</g>
<g>
</g>
<g>
</g>
<g>
</g>
<g>
</g>
<g>
</g>
<g>
</g>
<g>
</g>
</svg>
