<?xml version="1.0" encoding="iso-8859-1"?>
<!-- Generator: Adobe Illustrator 19.0.0, SVG Export Plug-In . SVG Version: 6.00 Build 0)  -->
<svg version="1.1" id="Layer_1" xmlns="http://www.w3.org/2000/svg" xmlns:xlink="http://www.w3.org/1999/xlink" x="0px" y="0px"
	 viewBox="0 0 512 512" style="enable-background:new 0 0 512 512;" xml:space="preserve">
<path style="fill:#C59981;" d="M388.962,445.115c53.078,0,96.864-40.542,102.021-92.278H286.942
	C292.098,404.574,335.884,445.115,388.962,445.115z"/>
<g>
	<path style="fill:#314E55;" d="M501.747,332.331H278.313L133.956,82.301c-9.582-16.601-25.062-28.477-43.576-33.443
		c-18.524-4.966-37.858-2.423-54.46,7.169C19.32,65.61,7.444,81.09,2.478,99.603c-4.966,18.524-2.413,37.868,7.169,54.47
		c13.277,23,37.448,35.866,62.28,35.866c12.166,0,24.491-3.084,35.766-9.592c4.906-2.834,6.588-9.102,3.755-14.008
		c-2.844-4.906-9.122-6.598-14.008-3.755c-24.491,14.118-55.912,5.707-70.03-18.764c-6.849-11.865-8.671-25.673-5.127-38.91
		c3.545-13.227,12.025-24.281,23.891-31.12c11.865-6.859,25.683-8.661,38.9-5.127c13.227,3.545,24.281,12.025,31.12,23.891
		L266.442,352.79c5.216,63.077,58.119,112.832,122.52,112.832c67.847,0,123.037-55.191,123.037-123.037
		C512,336.917,507.414,332.331,501.747,332.331z M388.962,445.115c-53.078,0-96.864-40.542-102.021-92.278h204.041
		C485.826,404.574,442.04,445.115,388.962,445.115z"/>
	<path style="fill:#314E55;" d="M375.425,273.276c-1.592,6.198-6.258,8.881-6.288,8.902c-5.047,2.573-7.049,8.751-4.486,13.798
		c1.812,3.555,5.417,5.597,9.152,5.597c1.562,0,3.154-0.36,4.646-1.111c1.272-0.651,12.576-6.769,16.641-21.347
		c3.615-12.977,0.26-27.906-9.963-44.357c-5.797-9.332-7.68-17.242-5.597-23.51c2.874-8.681,12.776-12.756,13.097-12.886
		c5.257-2.013,7.92-7.89,5.938-13.177c-1.982-5.307-7.9-7.95-13.207-5.998c-1.942,0.731-19.185,7.65-25.202,25.332
		c-4.215,12.386-1.672,26.204,7.55,41.052C374.574,256.614,377.237,266.197,375.425,273.276z"/>
	<path style="fill:#314E55;" d="M416.437,201.504c-1.592,6.198-6.258,8.881-6.288,8.902c-5.047,2.573-7.049,8.751-4.486,13.798
		c1.812,3.555,5.417,5.597,9.152,5.597c1.562,0,3.154-0.36,4.646-1.111c1.272-0.651,12.576-6.769,16.641-21.347
		c3.615-12.977,0.26-27.906-9.963-44.357c-5.797-9.332-7.68-17.242-5.597-23.51c2.874-8.681,12.776-12.756,13.097-12.886
		c5.257-2.013,7.92-7.89,5.938-13.177c-1.992-5.307-7.9-7.96-13.207-5.998c-1.942,0.731-19.185,7.65-25.202,25.332
		c-4.215,12.386-1.672,26.204,7.55,41.052C415.586,184.843,418.25,194.425,416.437,201.504z"/>
</g>
<g>
</g>
<g>
</g>
<g>
</g>
<g>
</g>
<g>
</g>
<g>
</g>
<g>
</g>
<g>
</g>
<g>
</g>
<g>
</g>
<g>
</g>
<g>
</g>
<g>
</g>
<g>
</g>
<g>
</g>
</svg>
