<?xml version="1.0" encoding="iso-8859-1"?>
<!-- Generator: Adobe Illustrator 19.0.0, SVG Export Plug-In . SVG Version: 6.00 Build 0)  -->
<svg version="1.1" id="Layer_1" xmlns="http://www.w3.org/2000/svg" xmlns:xlink="http://www.w3.org/1999/xlink" x="0px" y="0px"
	 viewBox="0 0 512 512" style="enable-background:new 0 0 512 512;" xml:space="preserve">
<path style="fill:#5ECC66;" d="M450.577,44.633C343.63,0.078,222.094,24.003,139.896,106.202
	c-82.21,82.21-106.145,203.712-61.58,310.692c106.947,44.554,228.482,20.629,310.681-61.58
	C471.206,273.115,495.142,151.613,450.577,44.633z M429.53,81.179c-0.774,0.535-37.987,26.589-92.737,74.989l45.074,19.876
	c5.69,2.504,8.26,9.15,5.756,14.829c-1.857,4.207-5.976,6.712-10.304,6.712c-1.516,0-3.054-0.308-4.526-0.956l-54.357-23.969
	c-18.419,16.801-38.383,35.82-59.306,56.921l82.434,28.441c5.877,2.021,8.985,8.425,6.964,14.302
	c-1.604,4.657-5.965,7.579-10.633,7.579c-1.219,0-2.45-0.198-3.669-0.615l-87.68-30.252c-1.563-0.538-2.89-1.416-4.018-2.481
	c-19.105,19.83-38.832,41.292-58.79,64.366l88.061,32.98c5.822,2.175,8.766,8.667,6.591,14.478
	c-1.692,4.515-5.976,7.305-10.534,7.305c-1.307,0-2.647-0.231-3.943-0.714l-95.675-35.831
	c-17.923,21.366-35.928,43.948-53.717,67.775c-2.219,2.955-5.602,4.515-9.029,4.515c-2.34,0-4.702-0.725-6.723-2.23
	c-4.976-3.724-5.998-10.765-2.285-15.752c19.272-25.811,38.801-50.213,58.214-73.181l-29.819-69.577
	c-2.45-5.701,0.198-12.314,5.91-14.763c5.668-2.493,12.314,0.176,14.763,5.91l25.473,59.438
	c20.425-23.415,40.581-45.162,60.066-65.217l-27.474-64.106c-2.45-5.701,0.198-12.314,5.91-14.763
	c5.646-2.472,12.314,0.176,14.763,5.91l23.849,55.647c19.172-19.169,37.507-36.586,54.559-52.156l-20.453-51.133
	c-2.307-5.767,0.505-12.314,6.272-14.621c5.723-2.318,12.314,0.483,14.621,6.272l17.383,43.456
	c56.685-50.228,95.401-77.326,96.199-77.883c5.108-3.537,12.105-2.263,15.653,2.845C435.912,70.633,434.638,77.642,429.53,81.179z"
	/>
<g>
	<path style="fill:#314E55;" d="M469.471,31.572c-1.131-2.614-3.218-4.702-5.833-5.833C347.112-24.879,213.801,0.463,123.99,90.296
		C36.261,178.025,10.245,307.187,56.198,421.699c-10.811,5.391-26.015,15.476-34.014,32.137
		c-7.327,15.258-7.184,32.471,0.428,51.156C24.38,509.353,28.587,512,33.025,512c1.417,0,2.856-0.264,4.24-0.835
		c5.756-2.34,8.524-8.898,6.173-14.654c-5.163-12.698-5.503-23.441-1.022-32.833c7.178-15.085,24.816-22.648,30.548-24.773
		c37.521,15.136,76.592,22.62,115.308,22.62c79.584,0,157.532-31.197,216.63-90.306C494.735,281.397,520.088,148.076,469.471,31.572
		z M388.997,355.314c-82.199,82.21-203.734,106.134-310.681,61.58c-44.565-106.98-20.629-228.482,61.58-310.692
		C222.094,24.003,343.63,0.078,450.577,44.633C495.142,151.613,471.206,273.115,388.997,355.314z"/>
	<path style="fill:#314E55;" d="M416.722,62.681c-0.798,0.557-39.514,27.655-96.199,77.883L303.14,97.107
		c-2.307-5.789-8.898-8.59-14.621-6.272c-5.767,2.307-8.579,8.854-6.272,14.621l20.453,51.133
		c-17.053,15.569-35.387,32.986-54.559,52.156l-23.849-55.647c-2.45-5.734-9.117-8.381-14.763-5.91
		c-5.712,2.45-8.36,9.063-5.91,14.763l27.474,64.106c-19.485,20.055-39.641,41.802-60.066,65.217l-25.473-59.438
		c-2.45-5.734-9.095-8.403-14.763-5.91c-5.712,2.45-8.36,9.063-5.91,14.763l29.819,69.576
		c-19.414,22.968-38.942,47.37-58.214,73.181c-3.713,4.987-2.691,12.028,2.285,15.752c2.021,1.505,4.383,2.23,6.723,2.23
		c3.427,0,6.811-1.56,9.029-4.515c17.788-23.826,35.794-46.409,53.717-67.775l95.675,35.831c1.296,0.483,2.636,0.714,3.943,0.714
		c4.559,0,8.843-2.79,10.534-7.305c2.175-5.811-0.769-12.303-6.591-14.478l-88.061-32.98c19.957-23.074,39.685-44.536,58.79-64.366
		c1.127,1.065,2.454,1.944,4.018,2.481l87.68,30.252c1.219,0.417,2.45,0.615,3.669,0.615c4.669,0,9.029-2.922,10.633-7.579
		c2.021-5.877-1.087-12.281-6.964-14.302L259.13,229.58c20.923-21.101,40.887-40.12,59.306-56.921l54.357,23.969
		c1.472,0.648,3.01,0.956,4.526,0.956c4.328,0,8.447-2.504,10.304-6.712c2.504-5.679-0.066-12.325-5.756-14.829l-45.074-19.876
		c54.75-48.399,91.963-74.453,92.737-74.989c5.108-3.537,6.382-10.545,2.845-15.653C428.827,60.418,421.83,59.143,416.722,62.681z"
		/>
</g>
<g>
</g>
<g>
</g>
<g>
</g>
<g>
</g>
<g>
</g>
<g>
</g>
<g>
</g>
<g>
</g>
<g>
</g>
<g>
</g>
<g>
</g>
<g>
</g>
<g>
</g>
<g>
</g>
<g>
</g>
</svg>
