<?xml version="1.0" encoding="iso-8859-1"?>
<!-- Generator: Adobe Illustrator 19.0.0, SVG Export Plug-In . SVG Version: 6.00 Build 0)  -->
<svg version="1.1" id="Layer_1" xmlns="http://www.w3.org/2000/svg" xmlns:xlink="http://www.w3.org/1999/xlink" x="0px" y="0px"
	 viewBox="0 0 512 512" style="enable-background:new 0 0 512 512;" xml:space="preserve">
<g>
	<circle style="fill:#D8D8D8;" cx="303.28" cy="319.55" r="10.592"/>
	<path style="fill:#D8D8D8;" d="M53.524,74.473c5.73,12.066,22.539,22.648,35.955,22.648H358.21
		c13.416,0,30.214-10.582,35.955-22.648l13.013-27.359c1.996-4.199,2.348-7.882,0.952-10.09c-1.386-2.193-4.841-3.455-9.465-3.455
		H49.025c-4.634,0-8.079,1.262-9.475,3.46c-1.386,2.203-1.045,5.88,0.962,10.085L53.524,74.473z"/>
	<circle style="fill:#D8D8D8;" cx="176.17" cy="383.11" r="10.592"/>
</g>
<path style="fill:#E4AD40;" d="M349.635,235.365H98.054l-37.879,171.65c-1.738,7.861-0.362,15.086,3.858,20.346
	c4.231,5.26,10.995,8.156,19.043,8.156h281.536c8.058,0,14.812-2.896,19.033-8.151c4.231-5.255,5.606-12.485,3.868-20.351
	L349.635,235.365z M176.181,414.881c-17.522,0-31.776-14.254-31.776-31.776s14.254-31.776,31.776-31.776
	s31.776,14.254,31.776,31.776S193.703,414.881,176.181,414.881z M303.285,351.329c-17.522,0-31.776-14.254-31.776-31.776
	s14.254-31.776,31.776-31.776s31.776,14.254,31.776,31.776S320.807,351.329,303.285,351.329z"/>
<path style="fill:#EAEAEA;" d="M379.705,150.081H67.995L22.1,417.751c-2.803,16.369,0.941,31.642,10.53,43.014
	c9.599,11.394,24.07,17.667,40.723,17.667h300.983c16.664,0,31.124-6.273,40.734-17.662c9.589-11.368,13.323-26.651,10.52-43.02
	L379.705,150.081z M400.164,440.637c-8.327,10.359-20.946,16.064-35.552,16.064H83.076c-14.595,0-27.225-5.71-35.552-16.074
	c-8.327-10.365-11.182-23.92-8.037-38.174l39.71-179.961c1.076-4.856,5.368-8.311,10.344-8.311h268.607
	c4.975,0,9.268,3.455,10.344,8.311l39.71,179.961C411.346,416.712,408.491,430.273,400.164,440.637z"/>
<g>
	<path style="fill:#314E55;" d="M368.492,222.492c-1.076-4.856-5.368-8.311-10.344-8.311H89.541c-4.975,0-9.268,3.455-10.344,8.311
		L39.488,402.453c-3.145,14.254-0.29,27.809,8.037,38.174s20.957,16.074,35.552,16.074h281.536c14.605,0,27.225-5.705,35.552-16.064
		c8.327-10.365,11.182-23.925,8.037-38.184L368.492,222.492z M383.646,427.366c-4.22,5.255-10.975,8.151-19.033,8.151H83.076
		c-8.048,0-14.812-2.896-19.043-8.156c-4.22-5.26-5.596-12.485-3.858-20.346l37.879-171.649h251.581l37.879,171.65
		C389.252,414.881,387.876,422.111,383.646,427.366z"/>
	<path style="fill:#314E55;" d="M303.285,287.777c-17.522,0-31.776,14.254-31.776,31.776s14.254,31.776,31.776,31.776
		s31.776-14.254,31.776-31.776S320.807,287.777,303.285,287.777z M303.285,330.145c-5.844,0-10.592-4.753-10.592-10.592
		c0-5.839,4.748-10.592,10.592-10.592s10.592,4.753,10.592,10.592S309.129,330.145,303.285,330.145z"/>
	<path style="fill:#314E55;" d="M176.181,351.329c-17.522,0-31.776,14.254-31.776,31.776s14.254,31.776,31.776,31.776
		s31.776-14.254,31.776-31.776S193.703,351.329,176.181,351.329z M176.181,393.697c-5.844,0-10.592-4.753-10.592-10.592
		c0-5.839,4.748-10.592,10.592-10.592s10.592,4.753,10.592,10.592S182.025,393.697,176.181,393.697z"/>
	<path style="fill:#314E55;" d="M34.388,83.57c9.258,19.477,33.462,34.734,55.091,34.734H358.21
		c21.619,0,45.823-15.257,55.091-34.729l13.013-27.364c5.182-10.902,5.079-22.022-0.279-30.504
		c-5.348-8.466-15.33-13.323-27.37-13.323H49.025c-12.051,0-22.032,4.856-27.38,13.333c-5.358,8.477-5.451,19.596-0.269,30.499
		L34.388,83.57z M39.55,37.029c1.397-2.198,4.841-3.46,9.475-3.46h349.64c4.624,0,8.079,1.262,9.464,3.455
		c1.396,2.208,1.045,5.891-0.952,10.09l-13.013,27.359c-5.741,12.066-22.539,22.648-35.955,22.648H89.479
		c-13.416,0-30.225-10.582-35.955-22.648L40.512,47.114C38.505,42.909,38.164,39.232,39.55,37.029z"/>
	<path style="fill:#314E55;" d="M498.482,112.336c-7.437-7.147-16.664-10.302-26.77-9.066
		c-27.382,3.297-56.045,39.451-68.709,57.382l-3.935-22.953c-0.869-5.084-5.275-8.803-10.437-8.803H59.069
		c-5.161,0-9.568,3.719-10.437,8.802L1.226,414.172c-3.879,22.627,1.52,44.023,15.205,60.252
		c13.695,16.245,33.917,25.192,56.922,25.192h300.983c23.005,0,43.227-8.947,56.922-25.187
		c13.685-16.224,19.084-37.625,15.205-60.258l-5.049-29.451c2.835-1.055,5.23-3.25,6.321-6.323
		c3.631-10.24,7.313-20.491,10.985-30.695C497.903,238.577,531.747,144.33,498.482,112.336z M415.07,460.771
		c-9.609,11.389-24.07,17.662-40.734,17.662H73.353c-16.654,0-31.124-6.273-40.723-17.667c-9.589-11.373-13.333-26.646-10.53-43.014
		l45.895-267.671h311.709l45.885,267.671C428.393,434.12,424.658,449.403,415.07,460.771z M438.778,340.545
		c-1.113,3.101-2.222,6.219-3.337,9.328l-28.078-163.79c2.853-0.485,5.508-2.039,7.18-4.677c13.261-20.9,41.21-54.884,59.715-57.108
		c3.786-0.46,6.703,0.574,9.537,3.305C507.171,150.086,470.833,251.274,438.778,340.545z"/>
</g>
<g>
</g>
<g>
</g>
<g>
</g>
<g>
</g>
<g>
</g>
<g>
</g>
<g>
</g>
<g>
</g>
<g>
</g>
<g>
</g>
<g>
</g>
<g>
</g>
<g>
</g>
<g>
</g>
<g>
</g>
</svg>
