<?xml version="1.0" encoding="iso-8859-1"?>
<!-- Generator: Adobe Illustrator 19.0.0, SVG Export Plug-In . SVG Version: 6.00 Build 0)  -->
<svg version="1.1" id="Layer_1" xmlns="http://www.w3.org/2000/svg" xmlns:xlink="http://www.w3.org/1999/xlink" x="0px" y="0px"
	 viewBox="0 0 512 512" style="enable-background:new 0 0 512 512;" xml:space="preserve">
<path style="fill:#5ECC66;" d="M451.657,177.495c11.089-11.09,16.831-26.348,15.982-41.84c-15.438-0.821-30.75,4.884-41.84,15.982
	c-11.09,11.09-16.831,26.348-15.982,41.84C425.273,194.299,440.568,188.594,451.657,177.495z"/>
<g>
	<path style="fill:#E4AD40;" d="M117.448,69.479L43.762,94.566c7.438,17.913,20.577,33.613,38.63,44.036
		c6.299,3.64,12.873,6.342,19.559,8.34L117.448,69.479z"/>
	<path style="fill:#E4AD40;" d="M119.909,150.392c31.456,2.78,63.197-10.831,82.414-37.567l-67.145-38.766L119.909,150.392z"/>
</g>
<path style="fill:#5ECC66;" d="M364.245,186.067c2.277-9.009,1.009-18.643-3.714-26.822c-4.723-8.17-12.438-14.09-21.366-16.625
	c-2.277,9-1.009,18.634,3.714,26.813C347.602,177.612,355.316,183.531,364.245,186.067z"/>
<path style="fill:#E4AD40;" d="M102.571,55.234L44.75,21.851c-8.025,17.773-9.818,37.047-6.238,55.193L102.571,55.234z"/>
<polygon style="fill:#EA86A5;" points="89.393,493.714 431.889,493.714 472.22,356.569 57.125,356.569 "/>
<g>
	<path style="fill:#314E55;" d="M491.765,341.953c-1.723-2.313-4.438-3.67-7.321-3.67H45.58c-2.795,0-5.438,1.277-7.17,3.464
		c-1.732,2.187-2.366,5.054-1.732,7.777L73.25,504.955c0.973,4.125,4.661,7.045,8.902,7.045h356.576c4.054,0,7.625-2.67,8.768-6.563
		l45.715-155.431C494.024,347.239,493.488,344.257,491.765,341.953z M431.889,493.714H89.393L57.125,356.569H472.22L431.889,493.714
		z"/>
	<path style="fill:#314E55;" d="M137.59,235.773c-3.17-0.482-6.393-0.723-9.625-0.723c-35.286,0-64.001,28.715-64.001,64.001
		c0,5.732,0.759,11.402,2.25,16.875c1.116,4.062,4.795,6.732,8.813,6.732c0.804,0,1.616-0.107,2.42-0.321
		c4.866-1.33,7.741-6.357,6.411-11.232c-1.072-3.893-1.607-7.956-1.607-12.054c0-25.206,20.509-45.715,45.715-45.715
		c4.313,0,8.58,0.598,12.661,1.777c4.643,1.304,9.491-1.143,11.125-5.652c13.107-35.965,47.634-60.126,85.93-60.126
		c31.938,0,61.036,16.241,77.84,43.438c2.143,3.482,6.357,5.089,10.268,3.991c4.018-1.134,8.215-1.714,12.464-1.714
		c25.206,0,45.715,20.509,45.715,45.715c0,1.348-0.062,2.679-0.17,4.009c-0.321,3.723,1.875,7.384,5.223,9.063
		c2.732,1.366,6,1.277,8.67-0.268c4.143-2.393,8.875-3.661,13.706-3.661c14.098,0,25.831,10.554,27.277,24.554
		c0.527,5.009,4.991,8.563,10.045,8.152c5.018-0.527,8.67-5.018,8.152-10.045c-2.429-23.34-21.974-40.947-45.474-40.947
		c-3.259,0-6.5,0.348-9.652,1.027c-4-31.474-30.947-55.885-63.492-55.885c-3.634,0-7.25,0.304-10.795,0.911
		c-20.572-29.322-53.662-46.626-89.778-46.626C194.421,171.049,155.162,196.755,137.59,235.773z"/>
	<path style="fill:#314E55;" d="M146.153,283.426c0,20.17,16.402,36.572,36.572,36.572s36.572-16.402,36.572-36.572
		c0-20.17-16.402-36.572-36.572-36.572S146.153,263.255,146.153,283.426z M201.011,283.426c0,10.081-8.205,18.286-18.286,18.286
		s-18.286-8.205-18.286-18.286s8.205-18.286,18.286-18.286S201.011,273.345,201.011,283.426z"/>
	<path style="fill:#314E55;" d="M292.441,274.283c0,15.125,12.304,27.429,27.429,27.429c15.125,0,27.429-12.304,27.429-27.429
		s-12.304-27.429-27.429-27.429C304.744,246.854,292.441,259.157,292.441,274.283z M329.012,274.283
		c0,5.045-4.098,9.143-9.143,9.143s-9.143-4.098-9.143-9.143c0-5.045,4.098-9.143,9.143-9.143S329.012,269.238,329.012,274.283z"/>
	<path style="fill:#314E55;" d="M399.978,210.71c4.286,0.759,8.58,1.134,12.848,1.134c19.25,0,37.938-7.589,51.76-21.42
		c16.902-16.884,24.482-41.036,20.286-64.608c-0.67-3.768-3.625-6.723-7.393-7.393c-23.599-4.17-47.724,3.393-64.608,20.286
		c-16.902,16.884-24.482,41.036-20.286,64.608C393.254,207.085,396.21,210.041,399.978,210.71z M425.8,151.638
		c11.09-11.098,26.402-16.804,41.84-15.982c0.848,15.491-4.893,30.75-15.982,41.84c-11.09,11.098-26.384,16.804-41.84,15.982
		C408.969,177.987,414.71,162.727,425.8,151.638z"/>
	<path style="fill:#314E55;" d="M369.442,205.514c0.259,0.027,0.518,0.036,0.777,0.036c3.527,0,6.768-2.036,8.277-5.268
		c7.527-16.063,6.732-34.822-2.125-50.179c-8.866-15.348-24.715-25.42-42.393-26.938c-3.947-0.375-7.447,1.759-9.063,5.232
		c-7.527,16.063-6.732,34.822,2.125,50.179C335.914,193.933,351.763,204.005,369.442,205.514z M339.164,142.62
		c8.929,2.536,16.643,8.455,21.366,16.625c4.723,8.179,5.991,17.813,3.714,26.822c-8.929-2.536-16.643-8.455-21.366-16.634
		C338.155,161.254,336.888,151.62,339.164,142.62z"/>
	<path style="fill:#314E55;" d="M73.25,154.442c17.232,9.947,36.072,14.679,54.67,14.679c37.947,0,74.903-19.688,95.207-54.84
		c1.214-2.098,1.536-4.598,0.911-6.938c-0.625-2.339-2.161-4.339-4.259-5.554L45.58,1.216c-2.107-1.205-4.616-1.527-6.938-0.911
		c-2.339,0.625-4.339,2.161-5.553,4.259C2.847,56.958,20.865,124.191,73.25,154.442z M43.762,94.566l73.685-25.087l-15.495,77.463
		c-6.686-1.998-13.26-4.7-19.559-8.34C64.34,128.179,51.201,112.479,43.762,94.566z M119.909,150.392l15.269-76.332l67.145,38.766
		C183.106,139.561,151.365,153.171,119.909,150.392z M44.75,21.851l57.822,33.383l-64.059,21.81
		C34.931,58.898,36.725,39.623,44.75,21.851z"/>
</g>
<g>
</g>
<g>
</g>
<g>
</g>
<g>
</g>
<g>
</g>
<g>
</g>
<g>
</g>
<g>
</g>
<g>
</g>
<g>
</g>
<g>
</g>
<g>
</g>
<g>
</g>
<g>
</g>
<g>
</g>
</svg>
