<?xml version="1.0" encoding="iso-8859-1"?>
<!-- Generator: Adobe Illustrator 19.0.0, SVG Export Plug-In . SVG Version: 6.00 Build 0)  -->
<svg version="1.1" id="Layer_1" xmlns="http://www.w3.org/2000/svg" xmlns:xlink="http://www.w3.org/1999/xlink" x="0px" y="0px"
	 viewBox="0 0 512 512" style="enable-background:new 0 0 512 512;" xml:space="preserve">
<path style="fill:#E4AD40;" d="M187.095,284.226l0.252-0.261l-22.596-64.04c-7.588,3.73-14.697,8.728-20.899,15.153
	c-6.161,6.377-10.98,13.676-14.506,21.527L187.095,284.226z"/>
<rect x="230.758" y="371.471" transform="matrix(-0.9976 0.0697 -0.0697 -0.9976 538.7257 774.3387)" style="fill:#D8D8D8;" width="50.193" height="50.193"/>
<g>
	<path style="fill:#E4AD40;" d="M183.771,213.497l19.167,54.323l39.689-41.096c-13.235-9.745-28.931-14.598-44.608-14.598
		C193.243,212.127,188.473,212.599,183.771,213.497z"/>
	<path style="fill:#E4AD40;" d="M123.618,276.129c-0.615,4.125-0.968,8.314-0.893,12.567c0.284,16.726,5.98,32.52,16.206,45.402
		l33.457-34.643L123.618,276.129z"/>
</g>
<rect x="311.09" y="250.998" transform="matrix(-0.5001 0.866 -0.866 -0.5001 755.2726 126.2181)" style="fill:#D8D8D8;" width="60.229" height="60.229"/>
<path style="fill:#DBCF56;" d="M345.941,157.529c-2.951-1.823-4.745-5.059-4.745-8.529v-38.569H160.49V149
	c0,3.471-1.794,6.706-4.745,8.529c-53.608,33.235-85.608,90.686-85.608,153.686c0,99.637,81.069,180.706,180.706,180.706
	s180.706-81.069,180.706-180.706C431.548,248.216,399.548,190.765,345.941,157.529z M138.725,358.804
	c-2.51,0-5.029-0.931-6.97-2.814c-18.333-17.696-28.667-41.47-29.108-66.941c-0.441-25.471,9.059-49.588,26.755-67.912
	c36.539-37.853,97.03-38.882,134.853-2.363c1.922,1.853,3.02,4.392,3.069,7.049c0.049,2.667-0.971,5.235-2.814,7.147L145.95,355.735
	C143.98,357.775,141.352,358.804,138.725,358.804z M294.058,439.167l-70.098,4.902c-0.235,0.01-0.471,0.02-0.706,0.02
	c-5.225,0-9.637-4.049-10.01-9.343l-4.902-70.098c-0.382-5.529,3.784-10.324,9.323-10.716l70.098-4.902
	c5.441-0.216,10.324,3.794,10.716,9.323l4.902,70.098C303.764,433.98,299.598,438.774,294.058,439.167z M404.745,271.422
	l-40.157,69.549c-1.863,3.226-5.235,5.02-8.706,5.02c-1.706,0-3.431-0.431-5.01-1.343l-69.549-40.157
	c-4.804-2.775-6.451-8.912-3.676-13.716l40.157-69.549c2.775-4.814,8.922-6.451,13.716-3.676l69.549,40.157
	C405.872,260.481,407.519,266.618,404.745,271.422z"/>
<g>
	<path style="fill:#314E55;" d="M317.803,221.225l-40.157,69.549c-2.775,4.804-1.127,10.941,3.676,13.716l69.549,40.157
		c1.578,0.912,3.304,1.343,5.01,1.343c3.471,0,6.843-1.794,8.706-5.02l40.157-69.549c2.775-4.804,1.127-10.941-3.676-13.716
		l-69.549-40.157C326.725,214.774,320.578,216.412,317.803,221.225z M352.215,322.235l-52.157-30.118l30.118-52.157l52.157,30.118
		L352.215,322.235z"/>
	<path style="fill:#314E55;" d="M287.764,349.029l-70.098,4.902c-5.539,0.392-9.706,5.186-9.323,10.716l4.902,70.098
		c0.372,5.294,4.784,9.343,10.01,9.343c0.235,0,0.471-0.01,0.706-0.02l70.098-4.902c5.539-0.392,9.706-5.186,9.323-10.716
		l-4.902-70.098C298.088,352.823,293.205,348.814,287.764,349.029z M232.578,423.333l-3.5-50.069l50.069-3.5l3.5,50.069
		L232.578,423.333z"/>
	<path style="fill:#314E55;" d="M267.323,225.824c-0.049-2.657-1.147-5.196-3.069-7.049c-37.824-36.52-98.314-35.49-134.853,2.363
		c-17.696,18.324-27.196,42.441-26.755,67.912s10.775,49.245,29.108,66.941c1.941,1.882,4.461,2.814,6.97,2.814
		c2.628,0,5.255-1.03,7.225-3.069l118.559-122.765C266.352,231.059,267.372,228.49,267.323,225.824z M143.852,235.079
		c6.202-6.425,13.312-11.423,20.899-15.153l22.596,64.04l-0.252,0.261l-57.749-27.621
		C132.873,248.754,137.692,241.455,143.852,235.079z M138.931,334.098c-10.225-12.882-15.922-28.677-16.206-45.402
		c-0.075-4.254,0.278-8.442,0.893-12.567l48.77,23.326L138.931,334.098z M202.938,267.821l-19.167-54.323
		c4.702-0.899,9.473-1.37,14.248-1.37c15.676,0,31.373,4.853,44.608,14.598L202.938,267.821z"/>
	<path style="fill:#314E55;" d="M458.764,88.853c-15.077-43.301-75.885-34.005-97.49-29.203v-49.61
		C361.274,4.49,356.784,0,351.235,0H120.333c-3.667,0-7.029,1.99-8.794,5.206c-1.765,3.206-1.647,7.127,0.324,10.216l28.549,44.971
		v40V143.5c-56.686,37.324-90.353,99.598-90.353,167.716C50.058,421.931,140.127,512,250.843,512s200.784-90.069,200.784-200.784
		c0-40.006-11.689-77.948-32.757-110.052C427.101,191.64,474.5,134.118,458.764,88.853z M439.803,95.451
		c9.848,28.35-17.706,70.225-33.114,89.001c-12.766-15.632-27.991-29.48-45.416-40.952v-43.108V80.299
		C372.594,77.525,429.309,65.297,439.803,95.451z M138.597,20.078h202.598v70.275H160.49V57.47c0-1.902-0.539-3.774-1.569-5.382
		L138.597,20.078z M250.843,491.922c-99.637,0-180.706-81.069-180.706-180.706c0-63,32-120.451,85.608-153.686
		c2.951-1.823,4.745-5.059,4.745-8.529v-38.569h180.706V149c0,3.471,1.794,6.706,4.745,8.529
		c53.608,33.235,85.608,90.686,85.608,153.686C431.548,410.853,350.48,491.922,250.843,491.922z"/>
</g>
<g>
</g>
<g>
</g>
<g>
</g>
<g>
</g>
<g>
</g>
<g>
</g>
<g>
</g>
<g>
</g>
<g>
</g>
<g>
</g>
<g>
</g>
<g>
</g>
<g>
</g>
<g>
</g>
<g>
</g>
</svg>
