<?xml version="1.0" encoding="iso-8859-1"?>
<!-- Generator: Adobe Illustrator 19.0.0, SVG Export Plug-In . SVG Version: 6.00 Build 0)  -->
<svg version="1.1" id="Layer_1" xmlns="http://www.w3.org/2000/svg" xmlns:xlink="http://www.w3.org/1999/xlink" x="0px" y="0px"
	 viewBox="0 0 512 512" style="enable-background:new 0 0 512 512;" xml:space="preserve">
<g>
	<path style="fill:#E65F58;" d="M314.84,222.073h83.327c7.301,0,13.238-5.911,13.238-13.179v-13.179H314.84L314.84,222.073
		L314.84,222.073z"/>
	<path style="fill:#E65F58;" d="M116.185,178.144c0.03-0.142-0.013-0.279,0.025-0.42c0,0,0,0.009-0.009,0.009
		c-0.051,0,0.609-7.284-6.401-25.173c-7.507-19.193,2.548-89.418,8.554-126.123c-9.232,7.087-21.209,18.635-31.737,36.275
		c-15.563,26.068-1.369,87.382,7.358,115.432H116.185z"/>
	<path style="fill:#E65F58;" d="M422.036,62.712c-10.527-17.631-22.505-29.18-31.737-36.267
		c6.006,36.696,16.061,106.921,8.554,126.114c-6.992,17.845-6.369,25.072-6.313,25.585h22.131
		C423.404,150.094,437.598,88.779,422.036,62.712z"/>
</g>
<path style="fill:#E25D56;" d="M270.911,160.573c0-9.687-7.885-17.571-17.571-17.571s-17.571,7.885-17.571,17.571
	s7.885,17.571,17.571,17.571S270.911,170.259,270.911,160.573z"/>
<g>
	<rect x="209.409" y="362.651" style="fill:#E65F58;" width="87.857" height="17.571"/>
	<path style="fill:#E65F58;" d="M209.412,397.786v61.5c0,19.382,19.708,35.143,43.928,35.143s43.928-15.761,43.928-35.143v-61.5
		H209.412z"/>
	<rect x="209.409" y="327.508" style="fill:#E65F58;" width="87.857" height="17.571"/>
	<path style="fill:#E65F58;" d="M95.121,208.894c0,7.267,5.937,13.179,13.238,13.179h83.404v-26.357H95.121
		C95.121,195.716,95.121,208.894,95.121,208.894z"/>
	<path style="fill:#E65F58;" d="M297.269,231.241c-0.006-0.134-0.077-0.247-0.077-0.383v-35.143h-87.78v114.214h87.857V231.241z"/>
</g>
<path style="fill:#314E55;" d="M450.932,267.013c-2.256-4.298-7.584-5.937-11.866-3.681l-38.472,20.24H314.84v-43.928h83.327
	c16.988,0,30.81-13.796,30.81-30.75v-18.382c0.121-0.264,0.307-0.479,0.403-0.759c1.321-3.869,32.106-95.244,7.739-136.049
	C413.336,13.85,382.955,1.161,381.668,0.637c-2.952-1.184-6.332-0.704-8.837,1.321c-2.488,2.008-3.681,5.216-3.115,8.374
	c5.404,30.158,11.946,74.708,13.861,105.057c-28.772-25.421-42.741-56.69-42.371-95.301c0.043-4.856-3.853-8.829-8.7-8.872
	c-0.034,0-0.06,0-0.086,0c-4.813,0-8.743,3.878-8.786,8.7c-0.472,48.991,19.047,87.599,59.672,118.04
	c0.18,0.134,0.391,0.181,0.577,0.299c-0.256,3.407-0.703,6.123-1.401,7.903c-6.62,16.919-7.676,26.802-7.512,31.985h-68.917h-0.077
	h-22.381c3.026-5.19,4.887-11.141,4.887-17.571c0-10.599-4.811-20.001-12.253-26.449l21.51-35.128l14.8,17.571
	c3.106,3.689,8.657,4.187,12.381,1.055c3.706-3.123,4.187-8.666,1.055-12.381l-22.651-26.889c-1.819-2.162-4.582-3.32-7.379-3.097
	c-2.814,0.215-5.354,1.767-6.83,4.17l-28.619,46.746c-2.313-0.481-4.705-0.741-7.158-0.741c-2.591,0-5.1,0.323-7.533,0.858
	l-28.699-46.862c-1.476-2.402-4.015-3.955-6.83-4.17c-2.909-0.223-5.568,0.944-7.379,3.097l-22.642,26.889
	c-3.132,3.715-2.651,9.257,1.055,12.381c3.741,3.14,9.275,2.643,12.381-1.055l14.792-17.571l21.668,35.374
	c-7.273,6.443-11.956,15.743-11.956,26.203c0,6.43,1.861,12.382,4.887,17.571h-22.458c-0.014,0-0.025,0.008-0.039,0.008
	c-0.014,0-0.025-0.008-0.039-0.008h-66.872c0.168-5.188-0.883-15.074-7.506-31.985c-0.643-1.64-1.055-4.147-1.321-7.179
	c0.679-0.277,1.359-0.566,1.973-1.024c40.625-30.441,60.144-69.05,59.672-118.04c-0.043-4.822-3.972-8.7-8.786-8.7
	c-0.026,0-0.06,0-0.086,0c-4.848,0.043-8.743,4.015-8.7,8.872c0.376,39.283-14.14,70.946-43.942,96.601
	c1.808-30.363,8.476-75.778,13.956-106.356c0.566-3.157-0.626-6.366-3.115-8.374c-2.488-2.025-5.877-2.505-8.837-1.321
	c-1.287,0.523-31.668,13.213-55.451,53.066c-21.682,36.309,0.281,112.605,6.319,131.715c-0.092,0.509-0.305,0.975-0.305,1.512
	v21.964c0,16.954,13.822,30.75,30.81,30.75h83.481v43.928h-80.435l-38.472-20.24c-4.281-2.256-9.601-0.618-11.866,3.681
	c-2.265,4.298-0.609,9.609,3.681,11.866l40.394,21.252c1.261,0.669,2.668,1.012,4.093,1.012h82.606v8.786v8.786h-63.104
	c-2.445,0-4.788,1.021-6.452,2.823l-24.753,26.769c-3.295,3.561-3.071,9.12,0.489,12.415c1.69,1.561,3.827,2.334,5.963,2.334
	c2.359,0,4.719-0.952,6.452-2.823l22.144-23.946h59.261v8.786v17.571h-63.104c-2.445,0-4.788,1.021-6.452,2.823l-24.753,26.769
	c-3.295,3.561-3.071,9.12,0.489,12.415c1.69,1.561,3.827,2.334,5.963,2.334c2.359,0,4.719-0.952,6.452-2.823l22.144-23.946h59.261
	v17.571v61.5c0,29.068,27.593,52.714,61.5,52.714s61.5-23.646,61.5-52.714v-78.994h57.931l22.144,23.955
	c1.733,1.87,4.093,2.823,6.452,2.823c2.136,0,4.273-0.772,5.963-2.334c3.561-3.295,3.784-8.854,0.489-12.415l-24.753-26.777
	c-1.664-1.802-3.998-2.823-6.452-2.823H314.84v-26.846h57.931l22.144,23.946c1.733,1.87,4.093,2.823,6.452,2.823
	c2.136,0,4.273-0.772,5.963-2.334c3.561-3.295,3.784-8.854,0.489-12.415l-24.753-26.769c-1.664-1.802-4.007-2.823-6.452-2.823
	H314.84v-17.16h87.926c1.424,0,2.831-0.343,4.093-1.012l40.393-21.252C451.541,276.623,453.197,271.312,450.932,267.013z
	 M209.412,362.644h87.857v17.571h-87.857V362.644z M411.405,208.894c0,7.267-5.937,13.179-13.238,13.179H314.84v-26.357h96.565
	L411.405,208.894L411.405,208.894z M398.853,152.559c7.508-19.193-2.548-89.418-8.554-126.114
	c9.232,7.087,21.209,18.635,31.737,36.267c15.563,26.068,1.368,87.382-7.365,115.432H392.54
	C392.484,177.632,391.861,170.404,398.853,152.559z M235.769,160.573c0-9.687,7.885-17.571,17.571-17.571
	s17.571,7.885,17.571,17.571s-7.885,17.571-17.571,17.571S235.769,170.259,235.769,160.573z M86.618,62.712
	c10.527-17.64,22.505-29.188,31.737-36.275c-6.006,36.704-16.061,106.93-8.554,126.123c7.01,17.889,6.349,25.173,6.401,25.173
	c0.009,0,0.009-0.009,0.009-0.009c-0.038,0.142,0.005,0.279-0.025,0.42H93.976C85.249,150.094,71.055,88.779,86.618,62.712z
	 M191.763,222.073h-83.404c-7.301,0-13.238-5.911-13.238-13.179v-13.179h96.643L191.763,222.073L191.763,222.073z M209.412,195.716
	h87.78v35.143c0,0.136,0.071,0.249,0.077,0.383v78.688h-87.857V195.716z M209.412,327.501h87.857v17.571h-87.857V327.501z
	 M253.34,494.429c-24.221,0-43.928-15.761-43.928-35.143v-61.5h87.857v61.5C297.269,478.668,277.561,494.429,253.34,494.429z"/>
<g>
</g>
<g>
</g>
<g>
</g>
<g>
</g>
<g>
</g>
<g>
</g>
<g>
</g>
<g>
</g>
<g>
</g>
<g>
</g>
<g>
</g>
<g>
</g>
<g>
</g>
<g>
</g>
<g>
</g>
</svg>
