<?xml version="1.0" encoding="iso-8859-1"?>
<!-- Generator: Adobe Illustrator 19.0.0, SVG Export Plug-In . SVG Version: 6.00 Build 0)  -->
<svg version="1.1" id="Layer_1" xmlns="http://www.w3.org/2000/svg" xmlns:xlink="http://www.w3.org/1999/xlink" x="0px" y="0px"
	 viewBox="0 0 512 512" style="enable-background:new 0 0 512 512;" xml:space="preserve">
<path style="fill:#EA86A5;" d="M346.328,182.02c0-89.213-72.583-161.795-161.795-161.795S22.738,92.807,22.738,182.02
	S95.32,343.815,184.533,343.815S346.328,271.233,346.328,182.02z M196.048,296.503c-2.893,0.178-5.767,0.257-8.591,0.257
	c-30.426,0-57.306-9.845-78.153-28.747c-23.217-21.034-36.756-51.835-38.118-86.714c-2.656-67.556,62.658-121.702,65.433-123.973
	c4.306-3.516,10.685-2.903,14.22,1.432c3.535,4.315,2.903,10.685-1.422,14.22c-0.602,0.504-60.278,50.117-58.027,107.531
	c1.155,29.408,12.334,55.163,31.492,72.524c18.684,16.916,43.609,24.994,71.961,23.286c31.285-1.857,64.169-24.342,83.781-57.296
	c16.867-28.352,20.027-58.511,8.68-82.754c-13.025-27.799-36.558-45.041-61.453-45.041c-0.069,0-0.138,0.01-0.197,0.01
	c-22.604,0.079-41.851,13.796-52.793,37.634c-14.744,32.104-5.876,61.602,9.954,73.067c10.053,7.288,21.31,5.984,31.68-3.624
	c10.418-9.658,15.692-19.039,15.257-27.127c-0.504-9.352-8.473-15.385-8.552-15.445c-4.444-3.318-5.441-9.618-2.173-14.102
	s9.47-5.55,14.003-2.301c0.642,0.454,15.682,11.396,16.887,30.376c0.938,14.615-6.36,29.231-21.676,43.431
	c-17.43,16.176-39.382,18.151-57.286,5.175c-22.348-16.185-35.719-55.992-16.482-97.883c14.171-30.84,40.745-49.317,71.102-49.425
	c0.089,0,0.188-0.01,0.277-0.01c32.835,0,63.379,21.696,79.762,56.694c14.25,30.406,10.744,67.467-9.609,101.665
	C273.064,267.915,233.83,294.261,196.048,296.503z"/>
<path style="fill:#81A4E3;" d="M319.715,315.108l-7.15,7.15l168.096,168.096c1.254,1.244,2.716,1.442,3.496,1.442c0,0,0,0,0.01,0
	c0.78-0.01,2.291-0.207,3.585-1.501c0.978-0.978,1.511-2.251,1.511-3.595c0.01-1.313-0.513-2.558-1.442-3.486L319.715,315.108z"/>
<g>
	<path style="fill:#314E55;" d="M305.613,127.696c-16.383-34.998-46.927-56.694-79.762-56.694c-0.089,0-0.188,0.01-0.277,0.01
		c-30.356,0.109-56.931,18.585-71.102,49.425c-19.237,41.891-5.866,81.698,16.482,97.883c17.904,12.976,39.856,11.001,57.286-5.175
		c15.316-14.201,22.614-28.816,21.676-43.431c-1.205-18.98-16.245-29.922-16.887-30.376c-4.533-3.249-10.734-2.182-14.003,2.301
		s-2.271,10.784,2.173,14.102c0.079,0.059,8.048,6.093,8.552,15.445c0.435,8.088-4.839,17.469-15.257,27.127
		c-10.369,9.609-21.627,10.912-31.68,3.624c-15.83-11.465-24.698-40.962-9.954-73.067c10.942-23.839,30.189-37.556,52.793-37.634
		c0.059,0,0.128-0.01,0.197-0.01c24.896,0,48.428,17.242,61.453,45.041c11.347,24.244,8.187,54.402-8.68,82.754
		c-19.612,32.954-52.497,55.439-83.781,57.296c-28.352,1.708-53.277-6.369-71.961-23.286
		c-19.158-17.361-30.337-43.115-31.492-72.524c-2.251-57.414,57.424-107.027,58.027-107.531c4.325-3.535,4.957-9.905,1.422-14.22
		c-3.535-4.335-9.915-4.947-14.22-1.432c-2.775,2.271-68.09,56.417-65.433,123.973c1.363,34.879,14.902,65.68,38.118,86.714
		c20.847,18.901,47.727,28.747,78.153,28.747c2.824,0,5.698-0.079,8.591-0.257c37.783-2.242,77.017-28.589,99.957-67.142
		C316.357,195.164,319.863,158.102,305.613,127.696z"/>
	<path style="fill:#314E55;" d="M502.11,468.905L327.505,294.299c24.372-30.967,39.048-69.908,39.048-112.279
		C366.553,81.658,284.895,0,184.533,0S2.513,81.658,2.513,182.02s81.658,182.02,182.02,182.02
		c39.792,0,76.527-12.985,106.515-34.735c0.03,0.031,0.038,0.072,0.069,0.102l175.245,175.245
		c4.898,4.898,11.337,7.347,17.785,7.347c6.478,0,12.966-2.469,17.904-7.406c4.789-4.789,7.426-11.129,7.436-17.854
		C509.497,479.995,506.88,473.665,502.11,468.905z M22.738,182.02c0-89.213,72.583-161.795,161.795-161.795
		S346.328,92.807,346.328,182.02s-72.583,161.795-161.795,161.795S22.738,271.233,22.738,182.02z M487.751,490.294
		c-1.294,1.294-2.805,1.491-3.585,1.501c-0.01,0-0.01,0-0.01,0c-0.78,0-2.242-0.197-3.496-1.442L312.565,322.258l7.15-7.15
		L487.82,483.214c0.928,0.928,1.452,2.173,1.442,3.486C489.262,488.043,488.729,489.317,487.751,490.294z"/>
</g>
<g>
</g>
<g>
</g>
<g>
</g>
<g>
</g>
<g>
</g>
<g>
</g>
<g>
</g>
<g>
</g>
<g>
</g>
<g>
</g>
<g>
</g>
<g>
</g>
<g>
</g>
<g>
</g>
<g>
</g>
</svg>
