<?xml version="1.0" encoding="iso-8859-1"?>
<!-- Generator: Adobe Illustrator 19.0.0, SVG Export Plug-In . SVG Version: 6.00 Build 0)  -->
<svg version="1.1" id="Layer_1" xmlns="http://www.w3.org/2000/svg" xmlns:xlink="http://www.w3.org/1999/xlink" x="0px" y="0px"
	 viewBox="0 0 512 512" style="enable-background:new 0 0 512 512;" xml:space="preserve">
<g>
	<polygon style="fill:#E4AD40;" points="282.162,274.531 283.243,232.626 250.954,236.116 	"/>
	<path style="fill:#E4AD40;" d="M374.953,20.303c-61.573,0-111.666,50.093-111.666,111.666c0,31.188,12.885,59.396,33.571,79.675
		c1.365,0.447,2.635,1.181,3.714,2.176c1.02,0.941,1.786,2.092,2.342,3.33c19.464,16.488,44.592,26.485,72.039,26.485
		c61.573,0,111.666-50.093,111.666-111.666S436.526,20.303,374.953,20.303z M374.953,60.909c-39.178,0-71.06,31.877-71.06,71.06
		c0,5.606-4.54,10.151-10.151,10.151c-5.611,0-10.151-4.545-10.151-10.151c0-50.376,40.983-91.363,91.363-91.363
		c5.611,0,10.151,4.545,10.151,10.151S380.564,60.909,374.953,60.909z"/>
</g>
<g>
	<path style="fill:#314E55;" d="M374.953,0c-72.766,0-131.969,59.199-131.969,131.969c0,30.772,10.671,59.049,28.393,81.517
		l-41.162,4.449c-3.698,0.396-6.88,2.791-8.298,6.226c-1.418,3.44-0.833,7.381,1.507,10.265l20.112,24.757L5.078,497.645L19.433,512
		l236.971-236.976l27.314,33.624c1.963,2.419,4.878,3.752,7.881,3.752c1.091,0,2.201-0.178,3.272-0.54
		c4.025-1.373,6.771-5.101,6.88-9.349l1.547-59.878c20.659,13.423,45.236,21.304,71.654,21.304
		c72.766,0,131.969-59.199,131.969-131.969S447.718,0,374.953,0z M282.162,274.531l-31.208-38.415l32.289-3.49L282.162,274.531z
		 M374.953,243.635c-27.448,0-52.575-9.998-72.039-26.485c-0.556-1.238-1.322-2.389-2.342-3.33
		c-1.079-0.995-2.349-1.729-3.714-2.176c-20.686-20.279-33.571-48.487-33.571-79.675c0-61.573,50.093-111.666,111.666-111.666
		s111.666,50.093,111.666,111.666S436.526,243.635,374.953,243.635z"/>
	<path style="fill:#314E55;" d="M374.953,40.606c-50.381,0-91.363,40.988-91.363,91.363c0,5.606,4.54,10.151,10.151,10.151
		c5.611,0,10.151-4.545,10.151-10.151c0-39.183,31.882-71.06,71.06-71.06c5.611,0,10.151-4.545,10.151-10.151
		S380.564,40.606,374.953,40.606z"/>
</g>
<g>
</g>
<g>
</g>
<g>
</g>
<g>
</g>
<g>
</g>
<g>
</g>
<g>
</g>
<g>
</g>
<g>
</g>
<g>
</g>
<g>
</g>
<g>
</g>
<g>
</g>
<g>
</g>
<g>
</g>
</svg>
