<?xml version="1.0" encoding="iso-8859-1"?>
<!-- Generator: Adobe Illustrator 19.0.0, SVG Export Plug-In . SVG Version: 6.00 Build 0)  -->
<svg version="1.1" id="Layer_1" xmlns="http://www.w3.org/2000/svg" xmlns:xlink="http://www.w3.org/1999/xlink" x="0px" y="0px"
	 viewBox="0 0 512 512" style="enable-background:new 0 0 512 512;" xml:space="preserve">
<g>
	<circle style="fill:#F58CAC;" cx="109.01" cy="33.811" r="14.491"/>
	<circle style="fill:#F58CAC;" cx="220.093" cy="115.925" r="9.66"/>
	<path style="fill:#F58CAC;" d="M278.066,270.5c-0.021,0-0.043-0.009-0.063-0.009H156.5l96.022,57.962h6.955l96.025-57.962h-77.379
		C278.105,270.491,278.086,270.5,278.066,270.5z"/>
</g>
<g>
	<path style="fill:#314E55;" d="M495.528,200.278c-1.16-4.179-4.962-7.071-9.302-7.071h-177.75l25.458-84.722l84.34-64.58
		c4.236-3.245,5.038-9.307,1.793-13.542c-3.236-4.241-9.293-5.038-13.547-1.797l-86.811,66.481
		c-1.604,1.236-2.792,2.944-3.377,4.892l-28.03,93.269H25.774c-4.34,0-8.142,2.892-9.302,7.071
		c-1.17,4.179,0.594,8.618,4.311,10.859l228.302,137.806v124.593c-24.425,0.79-77.283,5.217-77.283,28.804
		c0,5.335,4.321,9.66,9.66,9.66c4.736,0,8.679-3.406,9.5-7.901c4.642-4.128,28.425-11.42,67.783-11.42s63.141,7.292,67.783,11.42
		c0.821,4.495,4.764,7.901,9.5,7.901c5.34,0,9.66-4.325,9.66-9.66c0-23.587-52.858-28.014-77.283-28.804V345.627l126.792-76.528
		c0.007-0.005,0.011-0.011,0.017-0.014l96.002-57.948C494.934,208.896,496.698,204.458,495.528,200.278z M282.494,212.528
		l-11.613,38.642H124.489l-64.017-38.642H282.494z M259.478,328.453h-6.955L156.5,270.491h121.503c0.021,0,0.043,0.009,0.063,0.009
		c0.02,0,0.038-0.009,0.058-0.009h77.379L259.478,328.453z M387.511,251.17H291.06l11.612-38.642h148.857L387.511,251.17z"/>
	<path style="fill:#314E55;" d="M220.104,144.906c15.981,0,28.981-13,28.981-28.981s-13-28.981-28.981-28.981
		s-28.981,13-28.981,28.981S204.123,144.906,220.104,144.906z M220.104,106.264c5.33,0,9.66,4.335,9.66,9.66s-4.33,9.66-9.66,9.66
		c-5.33,0-9.66-4.335-9.66-9.66S214.774,106.264,220.104,106.264z"/>
	<path style="fill:#314E55;" d="M109.01,67.623c18.642,0,33.811-15.17,33.811-33.811S127.651,0,109.01,0S75.198,15.17,75.198,33.811
		S90.368,67.623,109.01,67.623z M109.01,19.321c7.991,0,14.491,6.5,14.491,14.491S117,48.302,109.01,48.302
		s-14.491-6.5-14.491-14.491S101.019,19.321,109.01,19.321z"/>
</g>
<g>
</g>
<g>
</g>
<g>
</g>
<g>
</g>
<g>
</g>
<g>
</g>
<g>
</g>
<g>
</g>
<g>
</g>
<g>
</g>
<g>
</g>
<g>
</g>
<g>
</g>
<g>
</g>
<g>
</g>
</svg>
