<?xml version="1.0" encoding="iso-8859-1"?>
<!-- Generator: Adobe Illustrator 19.0.0, SVG Export Plug-In . SVG Version: 6.00 Build 0)  -->
<svg version="1.1" id="Layer_1" xmlns="http://www.w3.org/2000/svg" xmlns:xlink="http://www.w3.org/1999/xlink" x="0px" y="0px"
	 viewBox="0 0 512 512" style="enable-background:new 0 0 512 512;" xml:space="preserve">
<path style="fill:#FFFFFF;" d="M466.192,121.897c-4.848-0.134-12.172-0.344-14.82-7.458c-2.658-7.152,3.165-12.468,5.077-14.208
	c11.043-10.087,13.768-21.045,7.668-30.854c-6.406-10.307-21.857-17.526-36.668-11.732c-26.007,10.173-18.788,46.248-18.463,47.778
	c0.794,3.805-0.727,7.754-3.891,10.011l-45.207,32.238c1.692,9.913,0.654,24.179-3.202,42.828c0.917,0.574,1.891,1.221,2.888,1.918
	c3.622-2.675,44.899-32.152,78.479-15.39c19.61,9.81,35.071,12.305,43.504,7.094c8.978-5.546,10.862-20.796,10.862-32.604
	C492.418,122.634,477.875,122.223,466.192,121.897z"/>
<path style="fill:#E9E7D1;" d="M341.55,204.507c-4.245-1.922-6.578-6.588-5.536-11.129c3.633-15.776,5.584-32.595,4.972-40.817
	c-18.367,9.475-39.125,21.905-39.345,22.039c-0.889,0.536-1.855,0.918-2.859,1.147c-46.736,10.69-174.676,46.736-205.033,84.694
	c-24.298,30.363-21.511,71.967-17.29,95.344l16.898-19.714c3.519-4.121,9.714-4.58,13.797-1.061
	c4.111,3.519,4.589,9.695,1.061,13.797l-28.865,33.675c-8.356,13.119-27.577,50.82-20.558,74.731
	c2.438,8.309,7.898,14.285,16.675,18.281c51.899,23.597,181.838,12.478,202.786-25.213c9.628-17.335,17.478-53.094,25.07-87.687
	c12.009-54.71,23.349-106.379,45.656-125.492c4.8-4.121,10.355-10.221,9.542-15.92C357.403,213.333,345.594,206.343,341.55,204.507z
	 M273.732,322.724c-0.545,0.096-1.08,0.134-1.616,0.134c-4.704,0-8.854-3.394-9.647-8.185l-4.895-29.372
	c-0.889-5.326,2.715-10.374,8.051-11.263c5.326-0.937,10.384,2.715,11.263,8.051l4.895,29.372
	C282.671,316.786,279.067,321.835,273.732,322.724z M293.313,293.351c-0.545,0.096-1.08,0.134-1.616,0.134
	c-4.704,0-8.854-3.394-9.647-8.185l-4.895-29.372c-0.889-5.326,2.715-10.374,8.051-11.263c5.345-0.947,10.374,2.715,11.263,8.051
	l4.895,29.372C302.253,287.414,298.648,292.462,293.313,293.351z"/>
<g>
	<path style="fill:#314E55;" d="M479.338,103.559c10.948-16.398,8.51-33.101,1.405-44.527
		c-12.344-19.84-38.332-28.263-60.428-19.629c-29.726,11.636-33.857,43.686-31.543,63.612l-40.094,28.602
		c-3.047-0.972-7.253-1.219-12.398,1.354c-17.296,8.653-37.939,20.805-43.38,24.047c-18.348,4.283-175.192,42.118-214.451,91.186
		C41.735,294.107,55.915,357.862,60.781,375.33c-7.687,13.022-30.214,55.169-20.786,87.371
		c4.073,13.912,13.281,24.219,27.365,30.615c20.347,9.246,51.851,14.027,85.182,14.027c59.529,0,124.881-15.25,142.827-47.558
		c11.024-19.84,18.826-55.37,27.078-92.994c10.288-46.86,21.943-99.973,39.268-114.832c12.439-10.651,17.88-21.972,16.178-33.637
		c-0.641-4.371-2.31-8.247-4.457-11.726c11.39-7.703,37.72-21.136,55.859-12.053c26.638,13.328,47.682,15.403,62.56,6.234
		c13.367-8.261,20.146-24.84,20.146-49.26C512,116.247,493.546,106.418,479.338,103.559z M348.979,237.102
		c-22.307,19.113-33.646,70.783-45.656,125.492c-7.592,34.593-15.442,70.352-25.07,87.687
		c-20.949,37.691-150.887,48.811-202.786,25.214c-8.777-3.997-14.237-9.972-16.675-18.281
		c-7.019-23.912,12.202-61.613,20.558-74.731l28.865-33.675c3.528-4.102,3.05-10.278-1.061-13.797
		c-4.083-3.519-10.278-3.06-13.797,1.061l-16.898,19.714c-4.221-23.378-7.009-64.982,17.29-95.344
		c30.357-37.958,158.298-74.005,205.033-84.694c1.004-0.23,1.97-0.612,2.859-1.147c0.22-0.134,20.978-12.564,39.345-22.039
		c0.612,8.223-1.339,25.041-4.972,40.817c-1.042,4.542,1.291,9.208,5.536,11.129c4.044,1.836,15.853,8.825,16.971,16.675
		C359.334,226.881,353.779,232.981,348.979,237.102z M481.557,184.123c-8.433,5.211-23.894,2.715-43.504-7.094
		c-33.58-16.762-74.858,12.715-78.479,15.39c-0.996-0.697-1.97-1.344-2.888-1.918c3.856-18.649,4.894-32.915,3.202-42.828
		l45.207-32.239c3.165-2.257,4.685-6.205,3.891-10.011c-0.325-1.53-7.544-37.605,18.463-47.778
		c14.811-5.794,30.262,1.425,36.668,11.732c6.1,9.81,3.375,20.767-7.668,30.855c-1.912,1.74-7.735,7.056-5.077,14.208
		c2.648,7.114,9.972,7.324,14.82,7.458c11.684,0.325,26.227,0.736,26.227,29.621C492.418,163.327,490.535,178.577,481.557,184.123z"
		/>
	<path style="fill:#314E55;" d="M265.623,274.038c-5.335,0.889-8.94,5.938-8.051,11.263l4.895,29.372
		c0.794,4.79,4.943,8.185,9.647,8.185c0.536,0,1.071-0.038,1.616-0.134c5.335-0.889,8.94-5.938,8.051-11.263l-4.895-29.372
		C276.007,276.753,270.949,273.101,265.623,274.038z"/>
	<path style="fill:#314E55;" d="M285.205,244.665c-5.335,0.889-8.94,5.938-8.051,11.263l4.895,29.372
		c0.794,4.79,4.943,8.185,9.647,8.185c0.536,0,1.071-0.038,1.616-0.134c5.335-0.889,8.94-5.938,8.051-11.263l-4.895-29.372
		C295.579,247.381,290.55,243.719,285.205,244.665z"/>
	<path style="fill:#314E55;" d="M48.619,164.799l9.696-36.197l32.68-18.868v37.73l-26.504,26.504c-3.825,3.825-3.825,10.02,0,13.845
		c1.912,1.912,4.417,2.868,6.922,2.868c2.505,0,5.01-0.956,6.922-2.868l12.659-12.659v6.043c0,5.412,4.379,9.791,9.791,9.791
		c5.412,0,9.791-4.379,9.791-9.791v-6.043l12.659,12.659c1.912,1.912,4.417,2.868,6.922,2.868c2.505,0,5.01-0.956,6.922-2.868
		c3.825-3.825,3.825-10.02,0-13.845l-26.504-26.504v-27.94l24.198,13.971l9.697,36.199c1.167,4.379,5.125,7.257,9.447,7.257
		c0.842,0,1.692-0.105,2.543-0.335c5.22-1.396,8.318-6.769,6.922-11.99l-4.631-17.287l5.233,3.021
		c1.539,0.889,3.222,1.31,4.886,1.31c3.385,0,6.674-1.75,8.491-4.895c2.706-4.685,1.1-10.671-3.585-13.376l-5.228-3.019l17.285-4.63
		c5.22-1.396,8.318-6.769,6.922-11.99c-1.386-5.23-6.76-8.328-11.99-6.922l-36.199,9.697l-32.676-18.867l32.676-18.866l36.199,9.697
		c0.851,0.23,1.702,0.335,2.543,0.335c4.322,0,8.28-2.888,9.447-7.257c1.396-5.22-1.702-10.594-6.922-11.99l-17.285-4.63
		l5.228-3.019c4.685-2.706,6.291-8.691,3.585-13.376c-2.715-4.695-8.71-6.291-13.376-3.585l-5.233,3.021l4.631-17.287
		c1.396-5.22-1.702-10.594-6.922-11.99c-5.192-1.405-10.594,1.702-11.99,6.922l-9.697,36.198l-24.198,13.971v-27.94l26.504-26.504
		c3.825-3.825,3.825-10.02,0-13.845s-10.02-3.825-13.845,0l-12.659,12.659v-5.737c0-5.412-4.379-9.791-9.791-9.791
		c-5.412,0-9.791,4.379-9.791,9.791v5.737L78.336,7.525c-3.825-3.825-10.02-3.825-13.845,0c-3.825,3.825-3.825,10.02,0,13.845
		l26.504,26.504v37.73l-32.68-18.868l-9.696-36.197c-1.386-5.23-6.75-8.328-11.99-6.922c-5.22,1.396-8.318,6.769-6.922,11.99
		l4.63,17.285l-4.965-2.867c-4.685-2.706-10.67-1.109-13.376,3.585c-2.706,4.685-1.1,10.671,3.585,13.376l4.963,2.866L7.257,74.483
		c-5.22,1.396-8.318,6.769-6.922,11.99c1.167,4.379,5.125,7.257,9.447,7.257c0.842,0,1.692-0.105,2.543-0.335l36.201-9.697
		l24.198,13.971L48.526,111.64l-36.201-9.697c-5.211-1.396-10.594,1.711-11.99,6.922c-1.396,5.22,1.702,10.594,6.922,11.99
		l17.287,4.631l-4.963,2.866c-4.685,2.706-6.291,8.691-3.585,13.376c1.817,3.146,5.106,4.895,8.49,4.895
		c1.664,0,3.346-0.421,4.886-1.31l4.965-2.867l-4.63,17.285c-1.396,5.22,1.702,10.594,6.922,11.99
		c0.851,0.23,1.702,0.335,2.543,0.335C43.495,172.056,47.453,169.169,48.619,164.799z"/>
</g>
<g>
</g>
<g>
</g>
<g>
</g>
<g>
</g>
<g>
</g>
<g>
</g>
<g>
</g>
<g>
</g>
<g>
</g>
<g>
</g>
<g>
</g>
<g>
</g>
<g>
</g>
<g>
</g>
<g>
</g>
</svg>
