<?xml version="1.0" encoding="iso-8859-1"?>
<!-- Generator: Adobe Illustrator 19.0.0, SVG Export Plug-In . SVG Version: 6.00 Build 0)  -->
<svg version="1.1" id="Layer_1" xmlns="http://www.w3.org/2000/svg" xmlns:xlink="http://www.w3.org/1999/xlink" x="0px" y="0px"
	 viewBox="0 0 512 512" style="enable-background:new 0 0 512 512;" xml:space="preserve">
<g>
	<path style="fill:#E65F58;" d="M25.51,217.055c161.855,193.953,365.759,129.659,441.892,95.551
		c-18.348-0.553-42.91-3.742-70.62-13.557l0.383,1.53l-95.42,23.857l-4.659-18.626l72.648-18.164
		c-2.641-1.297-5.283-2.595-7.957-4.025c-12.083-6.456-23.424-16.042-34.263-27.518l-100.927,40.37l-7.129-17.825l94.673-37.868
		c-10.032-12.387-19.669-26.125-29.111-40.181l-105.848,48.113l-7.945-17.478l103.036-46.835c-0.923-1.403-1.849-2.806-2.77-4.208
		c-6.592-10.023-13.235-20.093-19.935-29.786l-149.053,69.557l-8.118-17.398l145.804-68.04
		c-21.556-28.926-43.801-51.092-67.178-51.092c-36.371,0-123.511,56.294-147.787,133.397C25.31,216.92,25.428,216.958,25.51,217.055
		z"/>
	<path style="fill:#E65F58;" d="M295.032,368.495c-86.552,0-186.733-29.018-274.861-128.476
		c-5.895,49.298,20.085,95.073,76.268,133.486c171.06,116.971,362.167,14.136,393.331-4.148v-46.365
		C457.345,338.524,383.318,368.495,295.032,368.495z"/>
</g>
<path style="fill:#314E55;" d="M510.703,300.753c-0.64-1.078-1.48-1.955-2.416-2.675c-0.573-1.689-1.439-3.261-2.852-4.416
	c-2.231-1.823-5.189-2.573-7.992-1.973c-0.595,0.098-58.678,11.305-126.622-24.996c-12.834-6.86-25.127-18.333-37.044-32.308
	l-0.504-1.261l-0.437,0.175c-10.924-12.952-21.53-27.988-31.948-43.5l-8.935-13.44l0,0c-1.476-2.24-2.951-4.481-4.422-6.717
	c-35.645-54.206-69.313-105.408-114.52-105.408c-47.682,0-141.189,66.139-166.387,147.634
	c-14.38,46.505-12.351,115.049,78.978,177.491c63.834,43.641,130.118,58.41,190.643,58.41c125.938,0,226.855-63.988,228.341-64.949
	c2.733-1.772,4.383-4.804,4.383-8.057v-62.32C512.104,309.421,513.021,304.66,510.703,300.753z M173.012,83.431
	c23.376,0,45.622,22.165,67.178,51.092l-145.804,68.04l8.118,17.398l149.054-69.557c6.699,9.693,13.343,19.763,19.935,29.786
	c0.921,1.401,1.846,2.805,2.77,4.208l-103.036,46.835l7.945,17.478l105.847-48.113c9.442,14.057,19.079,27.794,29.111,40.181
	l-94.673,37.868l7.129,17.825l100.927-40.37c10.839,11.476,22.181,21.062,34.263,27.518c2.674,1.43,5.316,2.728,7.957,4.025
	l-72.648,18.164l4.659,18.626l95.42-23.857l-0.383-1.53c27.711,9.816,52.272,13.004,70.62,13.557
	c-76.133,34.108-280.036,98.402-441.892-95.551c-0.081-0.097-0.2-0.135-0.284-0.227C49.501,139.725,136.642,83.431,173.012,83.431z
	 M96.439,373.506c-56.183-38.413-82.163-84.188-76.268-133.486c88.128,99.458,188.309,128.475,274.861,128.475
	c88.286,0,162.314-29.972,194.739-45.502v46.365C458.607,387.642,267.5,490.477,96.439,373.506z"/>
<g>
</g>
<g>
</g>
<g>
</g>
<g>
</g>
<g>
</g>
<g>
</g>
<g>
</g>
<g>
</g>
<g>
</g>
<g>
</g>
<g>
</g>
<g>
</g>
<g>
</g>
<g>
</g>
<g>
</g>
</svg>
