<?xml version="1.0" encoding="iso-8859-1"?>
<!-- Generator: Adobe Illustrator 19.0.0, SVG Export Plug-In . SVG Version: 6.00 Build 0)  -->
<svg version="1.1" id="Layer_1" xmlns="http://www.w3.org/2000/svg" xmlns:xlink="http://www.w3.org/1999/xlink" x="0px" y="0px"
	 viewBox="0 0 512 512" style="enable-background:new 0 0 512 512;" xml:space="preserve">
<path style="fill:#FFFFFF;" d="M462.548,94.297c-5.233-0.145-13.14-0.372-15.999-8.051c-2.869-7.721,3.417-13.46,5.481-15.338
	c11.922-10.89,14.864-22.719,8.278-33.309c-6.926-11.127-23.586-18.92-39.585-12.665c-28.076,10.982-20.283,49.927-19.932,51.579
	c0.857,4.108-0.785,8.371-4.201,10.807l-48.803,34.803c1.827,10.701,0.706,26.102-3.457,46.235c0.99,0.619,2.042,1.318,3.117,2.07
	c3.91-2.888,48.471-34.709,84.722-16.614c21.17,10.59,37.861,13.284,46.965,7.659c9.692-5.987,11.726-22.45,11.726-35.198
	C490.861,95.092,475.162,94.648,462.548,94.297z"/>
<path style="fill:#E9E7D1;" d="M327.992,183.479c-4.583-2.075-7.101-7.112-5.976-12.015c3.922-17.031,6.028-35.187,5.367-44.064
	c-19.828,10.229-42.237,23.647-42.475,23.792c-0.96,0.578-2.002,0.991-3.086,1.239c-50.454,11.54-188.571,50.454-221.343,91.432
	c-26.231,32.778-23.222,77.692-18.665,102.929l18.242-21.283c3.788-4.449,10.477-4.944,14.894-1.146
	c4.438,3.798,4.955,10.466,1.146,14.894l-31.161,36.354c-9.021,14.162-29.77,54.862-22.193,80.676
	c2.632,8.97,8.526,15.421,18.001,19.736c56.048,25.474,196.302,13.47,218.918-27.219c10.394-18.714,18.868-57.318,27.064-94.662
	c12.964-59.062,25.206-114.842,49.287-135.475c5.182-4.449,11.179-11.034,10.301-17.186
	C345.105,193.006,332.358,185.46,327.992,183.479z M254.778,311.099c-0.588,0.103-1.166,0.145-1.745,0.145
	c-5.078,0-9.558-3.664-10.415-8.836l-5.285-31.709c-0.96-5.749,2.931-11.199,8.691-12.159c5.76-1.012,11.199,2.931,12.159,8.691
	l5.285,31.709C264.429,304.689,260.538,310.139,254.778,311.099z M275.918,279.39c-0.588,0.103-1.166,0.145-1.745,0.145
	c-5.078,0-9.558-3.664-10.415-8.836l-5.285-31.709c-0.96-5.749,2.931-11.199,8.691-12.159c5.78-1.022,11.21,2.931,12.159,8.691
	l5.285,31.709C285.569,272.98,281.677,278.43,275.918,279.39z"/>
<g>
	<path style="fill:#314E55;" d="M476.741,74.5c11.819-17.702,9.187-35.734,1.517-48.069C464.932,5.013,436.877-4.081,413.024,5.24
		c-32.091,12.562-36.55,47.161-34.052,68.672l-43.282,30.877c-3.29-1.049-7.833-1.315-13.386,1.462
		c-18.672,9.341-40.957,22.461-46.831,25.96c-19.808,4.624-189.129,45.468-231.51,98.44C4.327,280.205,19.634,349.032,24.888,367.89
		c-8.299,14.058-32.617,59.558-22.44,94.322c4.397,15.018,14.337,26.145,29.541,33.051c21.965,9.981,55.976,15.142,91.958,15.142
		c64.264,0,134.815-16.464,154.189-51.341c11.901-21.418,20.324-59.774,29.232-100.391c11.106-50.588,23.689-107.926,42.392-123.966
		c13.429-11.499,19.302-23.72,17.465-36.313c-0.692-4.718-2.494-8.903-4.811-12.658c12.296-8.316,40.721-22.817,60.302-13.012
		c28.757,14.389,51.475,16.629,67.536,6.73c14.43-8.918,21.748-26.816,21.748-53.179C512,88.197,492.079,77.586,476.741,74.5z
		 M336.012,218.666c-24.081,20.634-36.323,76.413-49.287,135.475c-8.196,37.345-16.67,75.949-27.064,94.662
		c-22.615,40.689-162.87,52.693-218.918,27.219c-9.475-4.315-15.369-10.766-18.001-19.736
		c-7.577-25.814,13.173-66.514,22.193-80.676l31.161-36.354c3.809-4.428,3.293-11.096-1.146-14.895
		c-4.418-3.798-11.106-3.303-14.894,1.146l-18.242,21.283c-4.557-25.237-7.566-70.151,18.665-102.929
		c32.772-40.978,170.89-79.892,221.343-91.432c1.084-0.248,2.126-0.661,3.086-1.239c0.237-0.145,22.646-13.563,42.475-23.792
		c0.661,8.877-1.445,27.033-5.367,44.064c-1.125,4.903,1.393,9.94,5.976,12.015c4.366,1.982,17.114,9.527,18.321,18.001
		C347.19,207.632,341.193,214.217,336.012,218.666z M479.135,161.472c-9.104,5.625-25.794,2.932-46.965-7.659
		c-36.251-18.096-80.812,13.726-84.722,16.614c-1.075-0.752-2.127-1.451-3.117-2.07c4.163-20.132,5.284-35.533,3.457-46.235
		l48.803-34.803c3.417-2.436,5.058-6.699,4.201-10.807c-0.351-1.652-8.144-40.596,19.932-51.579
		c15.999-6.255,32.659,1.538,39.585,12.665c6.585,10.59,3.644,22.419-8.278,33.309c-2.064,1.878-8.351,7.618-5.481,15.338
		c2.859,7.679,10.766,7.907,15.999,8.051c12.613,0.351,28.313,0.795,28.313,31.977C490.861,139.022,488.828,155.486,479.135,161.472
		z"/>
	<path style="fill:#314E55;" d="M246.025,258.54c-5.76,0.96-9.651,6.41-8.691,12.159l5.285,31.709
		c0.857,5.171,5.336,8.836,10.415,8.836c0.578,0,1.156-0.041,1.745-0.145c5.76-0.96,9.651-6.41,8.691-12.159l-5.285-31.709
		C257.224,261.471,251.785,257.528,246.025,258.54z"/>
	<path style="fill:#314E55;" d="M267.165,226.831c-5.76,0.96-9.651,6.41-8.691,12.159l5.285,31.709
		c0.857,5.171,5.336,8.836,10.415,8.836c0.578,0,1.156-0.041,1.745-0.145c5.76-0.96,9.651-6.41,8.691-12.159l-5.285-31.709
		C278.374,229.762,272.945,225.809,267.165,226.831z"/>
</g>
<g>
</g>
<g>
</g>
<g>
</g>
<g>
</g>
<g>
</g>
<g>
</g>
<g>
</g>
<g>
</g>
<g>
</g>
<g>
</g>
<g>
</g>
<g>
</g>
<g>
</g>
<g>
</g>
<g>
</g>
</svg>
