<?xml version="1.0" encoding="iso-8859-1"?>
<!-- Generator: Adobe Illustrator 19.0.0, SVG Export Plug-In . SVG Version: 6.00 Build 0)  -->
<svg version="1.1" id="Layer_1" xmlns="http://www.w3.org/2000/svg" xmlns:xlink="http://www.w3.org/1999/xlink" x="0px" y="0px"
	 viewBox="0 0 512 512" style="enable-background:new 0 0 512 512;" xml:space="preserve">
<path style="fill:#E5D85A;" d="M417.384,24.899l-109.25,109.25c41.016,48.438,38.696,121.286-6.97,166.953
	c-45.671,45.671-118.525,47.991-166.958,6.975L24.962,417.326c108.748,101.075,279.441,98.694,385.281-7.141
	C516.073,304.355,518.458,133.646,417.384,24.899z"/>
<g>
	<path style="fill:#314E55;" d="M424.786,2.949c-3.857-3.857-10.686-3.857-14.542,0L286.622,126.576
		c-4.017,4.017-4.017,10.525,0,14.542c40.092,40.103,40.092,105.343,0,145.44c-40.103,40.103-105.343,40.103-145.445,0
		c-3.857-3.857-10.686-3.857-14.542,0L3.013,410.185c-4.017,4.017-4.017,10.525,0,14.542
		c58.14,58.145,134.513,87.215,210.887,87.215s152.747-29.07,210.887-87.215C541.071,308.448,541.071,119.234,424.786,2.949z
		 M410.243,410.185C304.403,516.02,133.709,518.4,24.962,417.326l109.245-109.25c48.433,41.016,121.286,38.696,166.958-6.975
		c45.666-45.666,47.986-118.515,6.97-166.953l109.25-109.25C518.458,133.646,516.073,304.355,410.243,410.185z"/>
	
		<rect x="167.249" y="254.468" transform="matrix(-0.7071 0.7071 -0.7071 -0.7071 490.2744 326.4224)" style="fill:#314E55;" width="20.568" height="20.566"/>
	
		<rect x="210.876" y="254.466" transform="matrix(-0.7071 0.7071 -0.7071 -0.7071 564.7493 295.5714)" style="fill:#314E55;" width="20.568" height="20.566"/>
	
		<rect x="203.601" y="218.118" transform="matrix(-0.7071 0.7071 -0.7071 -0.7071 526.6287 238.6659)" style="fill:#314E55;" width="20.568" height="20.566"/>
	
		<rect x="247.239" y="232.678" transform="matrix(-0.7071 0.7071 -0.7071 -0.7071 611.4177 232.6633)" style="fill:#314E55;" width="20.568" height="20.566"/>
	
		<rect x="261.779" y="159.928" transform="matrix(-0.7071 0.7071 -0.7071 -0.7071 584.796 98.191)" style="fill:#314E55;" width="20.566" height="20.566"/>
	
		<rect x="239.964" y="196.268" transform="matrix(-0.7071 0.7071 -0.7071 -0.7071 573.2533 175.6519)" style="fill:#314E55;" width="20.568" height="20.566"/>
	
		<rect x="276.317" y="203.551" transform="matrix(-0.7071 0.7071 -0.7071 -0.7071 640.4623 162.3791)" style="fill:#314E55;" width="20.568" height="20.566"/>
	
		<rect x="239.974" y="269.013" transform="matrix(-0.7071 0.7071 -0.7071 -0.7071 624.7087 299.8285)" style="fill:#314E55;" width="20.568" height="20.566"/>
</g>
<g>
</g>
<g>
</g>
<g>
</g>
<g>
</g>
<g>
</g>
<g>
</g>
<g>
</g>
<g>
</g>
<g>
</g>
<g>
</g>
<g>
</g>
<g>
</g>
<g>
</g>
<g>
</g>
<g>
</g>
</svg>
