<?xml version="1.0" encoding="iso-8859-1"?>
<!-- Generator: Adobe Illustrator 19.0.0, SVG Export Plug-In . SVG Version: 6.00 Build 0)  -->
<svg version="1.1" id="Layer_1" xmlns="http://www.w3.org/2000/svg" xmlns:xlink="http://www.w3.org/1999/xlink" x="0px" y="0px"
	 viewBox="0 0 512 512" style="enable-background:new 0 0 512 512;" xml:space="preserve">
<polygon style="fill:#E65F58;" points="126.17,235.508 175.485,136.877 76.855,136.877 "/>
<path style="fill:#73C9C9;" d="M475.427,63.57H282.953c-10.063,0-18.246,8.251-18.246,18.389V430.04
	c0,10.139,8.184,18.389,18.246,18.389h192.474c10.063,0,18.246-8.251,18.246-18.389V81.96
	C493.673,71.821,485.49,63.57,475.427,63.57z M446.886,338.47h-137.45v-18.327h137.45V338.47z M446.886,301.816h-137.45V283.49
	h137.45V301.816z M446.886,265.163h-137.45v-18.327h137.45V265.163z M446.886,191.857h-137.45V173.53h137.45V191.857z
	 M446.886,155.203h-137.45v-18.327h137.45V155.203z"/>
<path style="fill:#EAEAEA;" d="M226.98,63.57H36.582c-10.067,0-18.255,8.251-18.255,18.389V430.04
	c0,10.139,8.188,18.389,18.255,18.389H226.98c10.067,0,18.255-8.251,18.255-18.389V81.96C245.235,71.821,237.047,63.57,226.98,63.57
	z M198.51,131.812l-63.177,126.353v89.468h36.653v18.327H80.354v-18.327h36.653v-89.468L53.83,131.812
	c-1.418-2.837-1.266-6.21,0.403-8.913c1.669-2.702,4.618-4.349,7.794-4.349h128.286c3.177,0,6.125,1.647,7.794,4.349
	C199.776,125.601,199.928,128.975,198.51,131.812z"/>
<g>
	<path style="fill:#314E55;" d="M475.427,45.244H282.953c-11.287,0-21.269,5.27-27.983,13.364
		c-6.716-8.094-16.701-13.364-27.99-13.364H36.582C16.412,45.244,0,61.718,0,81.96V430.04c0,20.242,16.412,36.716,36.582,36.716
		H226.98c11.289,0,21.274-5.27,27.99-13.364c6.714,8.094,16.696,13.364,27.983,13.364h192.474c20.165,0,36.573-16.474,36.573-36.716
		V81.96C512,61.718,495.593,45.244,475.427,45.244z M245.235,430.04c0,10.139-8.188,18.389-18.255,18.389H36.582
		c-10.067,0-18.255-8.251-18.255-18.389V81.96c0-10.139,8.188-18.389,18.255-18.389H226.98c10.067,0,18.255,8.251,18.255,18.389
		L245.235,430.04L245.235,430.04z M493.673,430.04c0,10.139-8.184,18.389-18.246,18.389H282.953
		c-10.063,0-18.246-8.251-18.246-18.389V81.96c0-10.139,8.184-18.389,18.246-18.389h192.474c10.063,0,18.246,8.251,18.246,18.389
		V430.04z"/>
	<rect x="309.445" y="136.877" style="fill:#314E55;" width="137.45" height="18.327"/>
	<rect x="309.445" y="173.53" style="fill:#314E55;" width="137.45" height="18.327"/>
	<rect x="309.445" y="246.837" style="fill:#314E55;" width="137.45" height="18.327"/>
	<rect x="309.445" y="283.49" style="fill:#314E55;" width="137.45" height="18.327"/>
	<rect x="309.445" y="320.143" style="fill:#314E55;" width="137.45" height="18.327"/>
	<path style="fill:#314E55;" d="M190.313,118.55H62.027c-3.177,0-6.125,1.647-7.794,4.349c-1.669,2.702-1.821,6.076-0.403,8.913
		l63.177,126.353v89.468H80.354v18.327h91.633v-18.327h-36.653v-89.468l63.177-126.353c1.418-2.837,1.266-6.21-0.403-8.913
		C196.439,120.197,193.49,118.55,190.313,118.55z M126.17,235.508l-49.316-98.631h98.631L126.17,235.508z"/>
</g>
<g>
</g>
<g>
</g>
<g>
</g>
<g>
</g>
<g>
</g>
<g>
</g>
<g>
</g>
<g>
</g>
<g>
</g>
<g>
</g>
<g>
</g>
<g>
</g>
<g>
</g>
<g>
</g>
<g>
</g>
</svg>
