<?xml version="1.0" encoding="iso-8859-1"?>
<!-- Generator: Adobe Illustrator 19.0.0, SVG Export Plug-In . SVG Version: 6.00 Build 0)  -->
<svg version="1.1" id="Layer_1" xmlns="http://www.w3.org/2000/svg" xmlns:xlink="http://www.w3.org/1999/xlink" x="0px" y="0px"
	 viewBox="0 0 512 512" style="enable-background:new 0 0 512 512;" xml:space="preserve">
<rect x="273.965" y="116.772" style="fill:#F58CAC;" width="35.93" height="35.93"/>
<rect x="273.965" y="332.351" style="fill:#E65F58;" width="35.93" height="35.93"/>
<path style="fill:#D8D8D8;" d="M238.035,494.035h179.649V62.877H238.035V494.035z M381.754,467.088H273.965v-17.965h107.789V467.088
	z M336.842,98.807h63.768v17.965h-63.768V98.807z M336.842,206.597h63.768v17.965h-63.768V206.597z M336.842,314.386h63.768v17.965
	h-63.768V314.386z M256,107.789c0-4.961,4.022-8.982,8.982-8.982h53.895c4.961,0,8.982,4.022,8.982,8.982v53.895
	c0,4.961-4.022,8.982-8.982,8.982h-53.895c-4.961,0-8.982-4.022-8.982-8.982V107.789z M256,215.579c0-4.961,4.022-8.982,8.982-8.982
	h53.895c4.961,0,8.982,4.022,8.982,8.982v53.895c0,4.961-4.022,8.982-8.982,8.982h-53.895c-4.961,0-8.982-4.022-8.982-8.982V215.579
	z M256,323.368c0-4.961,4.022-8.982,8.982-8.982h53.895c4.961,0,8.982,4.022,8.982,8.982v53.895c0,4.961-4.022,8.982-8.982,8.982
	h-53.895c-4.961,0-8.982-4.022-8.982-8.982V323.368z M256,413.193h144.04v17.965H256V413.193z"/>
<polygon style="fill:#EAEAEA;" points="220.07,60.5 94.316,21.202 94.316,451.5 220.07,490.798 "/>
<rect x="273.965" y="224.561" style="fill:#DBCF56;" width="35.93" height="35.93"/>
<g>
	<path style="fill:#314E55;" d="M426.667,44.912h-196.24L88.013,0.408c-2.728-0.847-5.693-0.364-8,1.338
		c-2.303,1.693-3.662,4.377-3.662,7.237v449.123c0,3.93,2.553,7.404,6.303,8.575l143.719,44.912c0.877,0.272,1.781,0.408,2.68,0.408
		h197.614c4.961,0,8.982-4.022,8.982-8.982V53.895C435.649,48.934,431.627,44.912,426.667,44.912z M94.316,21.202L220.07,60.5
		v430.298L94.316,451.5V21.202z M417.684,494.035H238.035V62.877h179.649V494.035z"/>
	<path style="fill:#314E55;" d="M264.982,170.667h53.895c4.961,0,8.982-4.022,8.982-8.982v-53.895c0-4.961-4.022-8.982-8.982-8.982
		h-53.895c-4.961,0-8.982,4.022-8.982,8.982v53.895C256,166.645,260.022,170.667,264.982,170.667z M273.965,116.772h35.93v35.93
		h-35.93V116.772z"/>
	<path style="fill:#314E55;" d="M264.982,278.456h53.895c4.961,0,8.982-4.022,8.982-8.982v-53.895c0-4.961-4.022-8.982-8.982-8.982
		h-53.895c-4.961,0-8.982,4.022-8.982,8.982v53.895C256,274.434,260.022,278.456,264.982,278.456z M273.965,224.561h35.93v35.93
		h-35.93V224.561z"/>
	<path style="fill:#314E55;" d="M264.982,386.246h53.895c4.961,0,8.982-4.022,8.982-8.982v-53.895c0-4.961-4.022-8.982-8.982-8.982
		h-53.895c-4.961,0-8.982,4.022-8.982,8.982v53.895C256,382.224,260.022,386.246,264.982,386.246z M273.965,332.351h35.93v35.93
		h-35.93V332.351z"/>
	<rect x="336.842" y="98.807" style="fill:#314E55;" width="63.766" height="17.965"/>
	<rect x="336.842" y="206.597" style="fill:#314E55;" width="63.766" height="17.965"/>
	<rect x="336.842" y="314.386" style="fill:#314E55;" width="63.766" height="17.965"/>
	<rect x="256" y="413.193" style="fill:#314E55;" width="144.034" height="17.965"/>
	<rect x="273.965" y="449.123" style="fill:#314E55;" width="107.789" height="17.965"/>
</g>
<g>
</g>
<g>
</g>
<g>
</g>
<g>
</g>
<g>
</g>
<g>
</g>
<g>
</g>
<g>
</g>
<g>
</g>
<g>
</g>
<g>
</g>
<g>
</g>
<g>
</g>
<g>
</g>
<g>
</g>
</svg>
