<?xml version="1.0" encoding="iso-8859-1"?>
<!-- Generator: Adobe Illustrator 19.0.0, SVG Export Plug-In . SVG Version: 6.00 Build 0)  -->
<svg version="1.1" id="Layer_1" xmlns="http://www.w3.org/2000/svg" xmlns:xlink="http://www.w3.org/1999/xlink" x="0px" y="0px"
	 viewBox="0 0 512 512" style="enable-background:new 0 0 512 512;" xml:space="preserve">
<g>
	<path style="fill:#E4AD40;" d="M435.071,311.618c-3.453-1.651-7.271-2.653-11.347-2.653c-14.603,0-26.483,11.879-26.483,26.483
		c0,4.075,1.002,7.894,2.654,11.347L435.071,311.618z"/>
	<path style="fill:#E4AD40;" d="M412.378,359.278c3.453,1.651,7.271,2.653,11.347,2.653c14.603,0,26.483-11.879,26.483-26.483
		c0-4.075-1.002-7.894-2.654-11.347L412.378,359.278z"/>
</g>
<rect x="52.966" y="141.241" style="fill:#EAEAEA;" width="300.138" height="229.517"/>
<path style="fill:#E65F58;" d="M476.767,105.931H35.233c-9.69,0-17.577,7.948-17.577,17.72v264.698
	c0,9.771,7.888,17.72,17.577,17.72h441.534c9.69,0,17.578-7.948,17.578-17.72V123.651
	C494.345,113.879,486.457,105.931,476.767,105.931z M441.379,146.414l12.483,12.483l-43.69,43.694l-12.483-12.483L441.379,146.414z
	 M441.379,208.207l12.483,12.483l-43.69,43.694l-12.483-12.483L441.379,208.207z M370.759,379.586c0,4.875-3.948,8.828-8.828,8.828
	H44.138c-4.879,0-8.828-3.953-8.828-8.828V132.414c0-4.875,3.948-8.828,8.828-8.828h317.793c4.879,0,8.828,3.953,8.828,8.828
	V379.586z M423.724,379.586c-24.336,0-44.138-19.802-44.138-44.138c0-24.336,19.802-44.138,44.138-44.138
	c24.336,0,44.138,19.802,44.138,44.138C467.862,359.784,448.06,379.586,423.724,379.586z"/>
<g>
	<path style="fill:#314E55;" d="M476.767,88.276H35.233C15.802,88.276,0,104.147,0,123.651v264.698
		c0,19.504,15.802,35.375,35.233,35.375h441.534c19.431,0,35.233-15.871,35.233-35.375V123.651
		C512,104.147,496.198,88.276,476.767,88.276z M494.345,388.349c0,9.771-7.888,17.72-17.577,17.72H35.233
		c-9.69,0-17.577-7.948-17.577-17.72V123.651c0-9.771,7.888-17.72,17.577-17.72h441.534c9.69,0,17.578,7.948,17.578,17.72V388.349z"
		/>
	<path style="fill:#314E55;" d="M361.931,123.586H44.138c-4.879,0-8.828,3.953-8.828,8.828v247.172c0,4.875,3.948,8.828,8.828,8.828
		h317.793c4.879,0,8.828-3.953,8.828-8.828V132.414C370.759,127.539,366.81,123.586,361.931,123.586z M353.103,370.759H52.966
		V141.241h300.138V370.759z"/>
	<path style="fill:#314E55;" d="M423.724,291.31c-24.336,0-44.138,19.802-44.138,44.138c0,24.336,19.802,44.138,44.138,44.138
		c24.336,0,44.138-19.802,44.138-44.138C467.862,311.112,448.06,291.31,423.724,291.31z M423.724,308.966
		c4.076,0,7.894,1.002,11.347,2.653l-35.176,35.177c-1.652-3.453-2.654-7.272-2.654-11.347
		C397.241,320.845,409.121,308.966,423.724,308.966z M423.724,361.931c-4.076,0-7.894-1.002-11.347-2.653l35.176-35.177
		c1.652,3.453,2.654,7.272,2.654,11.347C450.207,350.052,438.328,361.931,423.724,361.931z"/>
	
		<rect x="394.871" y="227.477" transform="matrix(-0.7071 0.7071 -0.7071 -0.7071 893.9183 102.3328)" style="fill:#314E55;" width="61.788" height="17.653"/>
	
		<rect x="394.874" y="165.686" transform="matrix(-0.7071 0.7071 -0.7071 -0.7071 850.2304 -3.1521)" style="fill:#314E55;" width="61.788" height="17.653"/>
</g>
<g>
</g>
<g>
</g>
<g>
</g>
<g>
</g>
<g>
</g>
<g>
</g>
<g>
</g>
<g>
</g>
<g>
</g>
<g>
</g>
<g>
</g>
<g>
</g>
<g>
</g>
<g>
</g>
<g>
</g>
</svg>
