<?xml version="1.0" encoding="iso-8859-1"?>
<!-- Generator: Adobe Illustrator 19.0.0, SVG Export Plug-In . SVG Version: 6.00 Build 0)  -->
<svg version="1.1" id="Layer_1" xmlns="http://www.w3.org/2000/svg" xmlns:xlink="http://www.w3.org/1999/xlink" x="0px" y="0px"
	 viewBox="0 0 512 512" style="enable-background:new 0 0 512 512;" xml:space="preserve">
<g>
	<path style="fill:#EAEAEA;" d="M406.857,265.143v-81.661c0-9.848-24.152-62.866-48.339-110.339h-52.232h-91.429h-53.143
		c-27.553,46.214-56.366,100.134-56.571,109.947v82.053H406.857z"/>
	<rect x="224" y="18.286" style="fill:#EAEAEA;" width="73.143" height="36.571"/>
	<rect x="105.143" y="420.571" style="fill:#EAEAEA;" width="301.714" height="73.143"/>
</g>
<path style="fill:#E4AD40;" d="M105.143,402.286h301.714V283.429H105.143V402.286z M315.429,347.429v-18.286v-27.429h18.286v27.429
	h27.429v-18.286h18.286v18.286v18.286V384h-18.286v-36.571h-27.429v37.223h-18.286V347.429z M242.286,365.714v-64h18.286v64h45.714
	V384h-45.714h-18.286V365.714z M214.857,301.714h18.286v82.938h-18.286V301.714z M132.571,320v-18.286h18.286H160h18.286h9.143
	h18.286V320v64h-18.286v-64h-9.143v27.429H160V320h-9.143v64h-18.286V320z"/>
<g>
	<rect x="214.857" y="301.714" style="fill:#314E55;" width="18.286" height="82.949"/>
	<polygon style="fill:#314E55;" points="333.714,347.429 361.143,347.429 361.143,384 379.429,384 379.429,347.429 379.429,329.143 
		379.429,310.857 361.143,310.857 361.143,329.143 333.714,329.143 333.714,301.714 315.429,301.714 315.429,329.143 
		315.429,347.429 315.429,384.652 333.714,384.652 	"/>
	<polygon style="fill:#314E55;" points="306.286,384 306.286,365.714 260.571,365.714 260.571,301.714 242.286,301.714 
		242.286,365.714 242.286,384 260.571,384 	"/>
	<polygon style="fill:#314E55;" points="150.857,320 160,320 160,347.429 178.286,347.429 178.286,320 187.429,320 187.429,384 
		205.714,384 205.714,320 205.714,301.714 187.429,301.714 178.286,301.714 160,301.714 150.857,301.714 132.571,301.714 
		132.571,320 132.571,384 150.857,384 	"/>
	<path style="fill:#314E55;" d="M372.241,59.821c-1.571-3.045-4.705-4.964-8.134-4.964h-48.679V9.143
		c0-5.053-4.089-9.143-9.143-9.143h-91.429c-5.053,0-9.143,4.089-9.143,9.143v45.714h-49.179c-3.205,0-6.187,1.679-7.839,4.437
		c-14.509,24.134-61.839,104.402-61.839,123.795v91.196v137.143v91.429c0,5.053,4.089,9.143,9.143,9.143h320
		c5.053,0,9.143-4.089,9.143-9.143v-91.429V274.286v-90.804C425.143,163.777,381.072,77.018,372.241,59.821z M224,18.286h73.143
		v36.571H224V18.286z M161.714,73.143h53.143h91.429h52.232c24.187,47.473,48.339,100.491,48.339,110.339v81.661H105.143v-82.053
		C105.348,173.277,134.161,119.357,161.714,73.143z M406.857,402.286H105.143V283.429h301.714V402.286z M105.143,493.714v-73.143
		h301.714v73.143H105.143z"/>
</g>
<g>
</g>
<g>
</g>
<g>
</g>
<g>
</g>
<g>
</g>
<g>
</g>
<g>
</g>
<g>
</g>
<g>
</g>
<g>
</g>
<g>
</g>
<g>
</g>
<g>
</g>
<g>
</g>
<g>
</g>
</svg>
