<?xml version="1.0" encoding="iso-8859-1"?>
<!-- Generator: Adobe Illustrator 19.0.0, SVG Export Plug-In . SVG Version: 6.00 Build 0)  -->
<svg version="1.1" id="Layer_1" xmlns="http://www.w3.org/2000/svg" xmlns:xlink="http://www.w3.org/1999/xlink" x="0px" y="0px"
	 viewBox="0 0 512 512" style="enable-background:new 0 0 512 512;" xml:space="preserve">
<circle style="fill:#D8D8D8;" cx="448" cy="329.143" r="9.143"/>
<polygon style="fill:#E65F58;" points="384,45.714 384,27.429 329.143,27.429 329.143,45.714 374.857,45.714 "/>
<path style="fill:#E4AD40;" d="M493.714,329.143c0-25.205-20.5-45.714-45.696-45.714h-18.304H283.429h-45.714H91.429H63.982
	c-25.196,0-45.696,20.509-45.696,45.714c0,25.205,20.5,45.714,45.696,45.714h384.036
	C473.214,374.857,493.714,354.348,493.714,329.143z M64,356.571c-15.125,0-27.429-12.304-27.429-27.429
	c0-15.125,12.304-27.429,27.429-27.429s27.429,12.304,27.429,27.429C91.429,344.268,79.125,356.571,64,356.571z M420.571,329.143
	c0-15.125,12.304-27.429,27.429-27.429c15.125,0,27.429,12.304,27.429,27.429c0,15.125-12.304,27.429-27.429,27.429
	C432.875,356.571,420.571,344.268,420.571,329.143z"/>
<g>
	<path style="fill:#E65F58;" d="M420.571,193.036c0-15.696-12.714-28.464-28.339-28.464h-1.902c-4.513,0-8.348-3.295-9.036-7.75
		L367.014,64H346.13l-14.281,92.822c-0.688,4.455-4.523,7.75-9.036,7.75h-1.902c-15.625,0-28.339,12.768-28.339,28.464v72.107h128
		V193.036z"/>
	<polygon style="fill:#E65F58;" points="192,45.714 192,27.429 137.143,27.429 137.143,45.714 182.857,45.714 	"/>
</g>
<circle style="fill:#D8D8D8;" cx="64" cy="329.143" r="9.143"/>
<path style="fill:#E65F58;" d="M228.571,193.036c0-15.696-12.714-28.464-28.339-28.464h-1.902c-4.513,0-8.348-3.295-9.036-7.75
	L175.013,64H154.13l-14.281,92.822c-0.688,4.455-4.523,7.75-9.036,7.75h-1.902c-15.625,0-28.339,12.768-28.339,28.464v72.107h128
	V193.036z"/>
<circle style="fill:#D8D8D8;" cx="64" cy="438.857" r="9.143"/>
<path style="fill:#E4AD40;" d="M448.018,393.143H63.982c-25.196,0-45.696,20.509-45.696,45.714c0,25.205,20.5,45.714,45.696,45.714
	h384.036c25.196,0,45.696-20.509,45.696-45.714C493.714,413.652,473.214,393.143,448.018,393.143z M64,466.286
	c-15.125,0-27.429-12.304-27.429-27.429c0-15.125,12.304-27.429,27.429-27.429s27.429,12.304,27.429,27.429
	C91.429,453.982,79.125,466.286,64,466.286z M448,466.286c-15.125,0-27.429-12.304-27.429-27.429
	c0-15.125,12.304-27.429,27.429-27.429c15.125,0,27.429,12.304,27.429,27.429C475.429,453.982,463.125,466.286,448,466.286z"/>
<circle style="fill:#D8D8D8;" cx="448" cy="438.857" r="9.143"/>
<g>
	<path style="fill:#314E55;" d="M480.803,384C499.452,372.804,512,352.435,512,329.143c0-35.286-28.701-64-63.982-64h-9.161v-72.107
		c0-23.741-17.741-43.402-40.625-46.366L385.513,64h7.63c5.049,0,9.143-4.089,9.143-9.143V18.286c0-5.053-4.094-9.143-9.143-9.143
		H320c-5.049,0-9.143,4.089-9.143,9.143v36.571c0,5.053,4.094,9.143,9.143,9.143h7.63l-12.719,82.67
		c-22.884,2.964-40.625,22.625-40.625,46.366v72.107h-27.429v-72.107c0-23.741-17.741-43.402-40.625-46.366L193.513,64h7.629
		c5.049,0,9.143-4.089,9.143-9.143V18.286c0-5.053-4.094-9.143-9.143-9.143H128c-5.049,0-9.143,4.089-9.143,9.143v36.571
		c0,5.053,4.094,9.143,9.143,9.143h7.629l-12.719,82.67c-22.884,2.964-40.625,22.625-40.625,46.366v72.107H63.982
		c-35.281,0-63.982,28.714-63.982,64C0,352.435,12.548,372.804,31.197,384C12.548,395.196,0,415.565,0,438.857
		c0,35.286,28.701,64,63.982,64h384.036c35.281,0,63.982-28.714,63.982-64C512,415.565,499.452,395.196,480.803,384z
		 M329.143,27.429H384v18.286h-9.143h-45.714V27.429z M292.571,193.036c0-15.696,12.714-28.464,28.339-28.464h1.902
		c4.513,0,8.348-3.295,9.036-7.75L346.129,64h20.884l14.281,92.822c0.688,4.455,4.523,7.75,9.036,7.75h1.902
		c15.625,0,28.339,12.768,28.339,28.464v72.107h-128V193.036z M137.143,27.429H192v18.286h-9.143h-45.714V27.429z M100.571,193.036
		c0-15.696,12.714-28.464,28.339-28.464h1.902c4.513,0,8.348-3.295,9.036-7.75L154.129,64h20.884l14.281,92.822
		c0.688,4.455,4.523,7.75,9.036,7.75h1.902c15.625,0,28.339,12.768,28.339,28.464v72.107h-128V193.036z M18.286,329.143
		c0-25.205,20.5-45.714,45.696-45.714h27.446h146.286h45.714h146.286h18.304c25.196,0,45.696,20.509,45.696,45.714
		c0,25.205-20.5,45.714-45.696,45.714H63.982C38.786,374.857,18.286,354.348,18.286,329.143z M448.018,484.571H63.982
		c-25.196,0-45.696-20.509-45.696-45.714c0-25.205,20.5-45.714,45.696-45.714h384.036c25.196,0,45.696,20.509,45.696,45.714
		C493.714,464.062,473.214,484.571,448.018,484.571z"/>
	<path style="fill:#314E55;" d="M64,301.714c-15.125,0-27.429,12.304-27.429,27.429c0,15.125,12.304,27.429,27.429,27.429
		s27.429-12.304,27.429-27.429C91.429,314.018,79.125,301.714,64,301.714z M64,338.286c-5.04,0-9.143-4.098-9.143-9.143
		c0-5.045,4.103-9.143,9.143-9.143c5.04,0,9.143,4.098,9.143,9.143C73.143,334.187,69.04,338.286,64,338.286z"/>
	<path style="fill:#314E55;" d="M64,411.429c-15.125,0-27.429,12.304-27.429,27.429c0,15.125,12.304,27.429,27.429,27.429
		s27.429-12.304,27.429-27.429C91.429,423.732,79.125,411.429,64,411.429z M64,448c-5.04,0-9.143-4.098-9.143-9.143
		c0-5.045,4.103-9.143,9.143-9.143c5.04,0,9.143,4.098,9.143,9.143C73.143,443.902,69.04,448,64,448z"/>
	<path style="fill:#314E55;" d="M475.429,329.143c0-15.125-12.304-27.429-27.429-27.429c-15.125,0-27.429,12.304-27.429,27.429
		c0,15.125,12.304,27.429,27.429,27.429C463.125,356.571,475.429,344.268,475.429,329.143z M448,338.286
		c-5.04,0-9.143-4.098-9.143-9.143c0-5.045,4.103-9.143,9.143-9.143c5.04,0,9.143,4.098,9.143,9.143
		C457.143,334.187,453.04,338.286,448,338.286z"/>
	<path style="fill:#314E55;" d="M448,411.429c-15.125,0-27.429,12.304-27.429,27.429c0,15.125,12.304,27.429,27.429,27.429
		c15.125,0,27.429-12.304,27.429-27.429C475.429,423.732,463.125,411.429,448,411.429z M448,448c-5.04,0-9.143-4.098-9.143-9.143
		c0-5.045,4.103-9.143,9.143-9.143c5.04,0,9.143,4.098,9.143,9.143C457.143,443.902,453.04,448,448,448z"/>
</g>
<g>
</g>
<g>
</g>
<g>
</g>
<g>
</g>
<g>
</g>
<g>
</g>
<g>
</g>
<g>
</g>
<g>
</g>
<g>
</g>
<g>
</g>
<g>
</g>
<g>
</g>
<g>
</g>
<g>
</g>
</svg>
