<?xml version="1.0" encoding="iso-8859-1"?>
<!-- Generator: Adobe Illustrator 19.0.0, SVG Export Plug-In . SVG Version: 6.00 Build 0)  -->
<svg version="1.1" id="Layer_1" xmlns="http://www.w3.org/2000/svg" xmlns:xlink="http://www.w3.org/1999/xlink" x="0px" y="0px"
	 viewBox="0 0 512 512" style="enable-background:new 0 0 512 512;" xml:space="preserve">
<path style="fill:#E9E7D1;" d="M343.146,329.219l125.615-125.62c8.099-8.099,12.557-18.828,12.552-30.224
	c0-11.38-4.443-22.089-12.51-30.156c-16.641-16.63-43.719-16.62-60.38,0.042l-50.193,50.188c-3.052,3.052-7.641,3.969-11.625,2.313
	c-3.984-1.651-6.583-5.542-6.583-9.854v-45.042c0-65.911-53.687-119.531-119.682-119.531H182.37
	c-65.995,0-119.682,53.62-119.682,119.531V416h277.333v-79.239C340.021,333.932,341.146,331.219,343.146,329.219z M180.021,64
	c-35.292,0-64,28.708-64,64c0,5.891-4.776,10.667-10.667,10.667S94.687,133.891,94.687,128c0-47.052,38.281-85.333,85.333-85.333
	c5.891,0,10.667,4.776,10.667,10.667S185.911,64,180.021,64z"/>
<polygon style="fill:#F58CAC;" points="52.021,437.333 30.687,437.333 30.687,490.667 372.021,490.667 372.021,437.333 
	350.688,437.333 "/>
<g>
	<path style="fill:#314E55;" d="M483.844,218.682c12.13-12.125,18.807-28.214,18.802-45.313c0-17.073-6.661-33.141-18.761-45.234
		c-24.948-24.948-65.568-24.927-90.547,0.042l-31.984,31.979v-19.292C361.354,63.193,298.094,0,220.338,0H182.37
		C104.615,0,41.354,63.193,41.354,140.865V416H20.021c-5.891,0-10.667,4.776-10.667,10.667v74.667
		c0,5.891,4.776,10.667,10.667,10.667h362.667c5.891,0,10.667-4.776,10.667-10.667v-74.667c0-5.891-4.776-10.667-10.667-10.667
		h-21.333v-74.823L483.844,218.682z M372.021,490.667H30.687v-53.333h21.333h298.667h21.333V490.667z M62.687,416V140.865
		c0-65.911,53.687-119.531,119.682-119.531h37.969c65.995,0,119.682,53.62,119.682,119.531v45.042c0,4.313,2.599,8.203,6.583,9.854
		c3.984,1.656,8.573,0.739,11.625-2.313l50.193-50.187c16.661-16.661,43.739-16.672,60.38-0.042
		c8.068,8.068,12.51,18.776,12.51,30.156c0.005,11.396-4.453,22.125-12.552,30.224l-125.615,125.62c-2,2-3.125,4.714-3.125,7.542
		V416H62.687z"/>
	<path style="fill:#314E55;" d="M180.021,42.667c-47.052,0-85.333,38.281-85.333,85.333c0,5.891,4.776,10.667,10.667,10.667
		s10.667-4.776,10.667-10.667c0-35.292,28.708-64,64-64c5.891,0,10.667-4.776,10.667-10.667S185.911,42.667,180.021,42.667z"/>
</g>
<g>
</g>
<g>
</g>
<g>
</g>
<g>
</g>
<g>
</g>
<g>
</g>
<g>
</g>
<g>
</g>
<g>
</g>
<g>
</g>
<g>
</g>
<g>
</g>
<g>
</g>
<g>
</g>
<g>
</g>
</svg>
