<?xml version="1.0" encoding="iso-8859-1"?>
<!-- Generator: Adobe Illustrator 19.0.0, SVG Export Plug-In . SVG Version: 6.00 Build 0)  -->
<svg version="1.1" id="Layer_1" xmlns="http://www.w3.org/2000/svg" xmlns:xlink="http://www.w3.org/1999/xlink" x="0px" y="0px"
	 viewBox="0 0 512 512" style="enable-background:new 0 0 512 512;" xml:space="preserve">
<path style="fill:#D8D8D8;" d="M479.616,51.724c-5.463-0.315-24.232,7.481-47.565,30.806c-23.319,23.324-30.963,42-30.806,47.574
	c5.653,0.213,24.236-7.472,47.565-30.806C472.13,75.974,479.773,57.298,479.616,51.724z"/>
<path style="fill:#C59981;" d="M256,460.233c125.005,0,227.722-54.472,236.44-123.259H19.56
	C28.278,405.761,130.995,460.233,256,460.233z"/>
<path style="fill:#314E55;" d="M502.519,318.011H305.027c32.45-40.563,44.24-83.342,29.785-108.067l44.549-44.549l5.023,5.023
	l13.407-13.407l-5.023-5.023l3.523-3.523c1.535,0.332,3.12,0.555,4.806,0.555c17,0,41.083-16.278,61.12-36.315
	c26.329-26.333,46.162-59.639,31.116-74.694c-15.051-15.065-48.361,4.787-74.69,31.111c-22.024,22.028-39.419,48.895-35.741,65.917
	l-3.541,3.541l-5.032-5.032l-13.407,13.407l5.032,5.032l-44.551,44.551c-29.019-17.009-82.612,2.153-128.093,47.63
	c-22.952,22.956-40.3,49.509-48.564,73.842H9.481c-5.236,0-9.481,4.241-9.481,9.481c0,83.648,114.843,151.704,256,151.704
	s256-68.055,256-151.704C512,322.252,507.755,318.011,502.519,318.011z M432.051,82.529c23.333-23.324,42.102-31.12,47.565-30.806
	c0.157,5.574-7.486,24.25-30.806,47.574c-23.329,23.333-41.912,31.018-47.565,30.806
	C401.088,124.529,408.731,105.853,432.051,82.529z M266.963,318.011c0.032-0.033,0.064-0.06,0.097-0.093
	c16.821-16.821,38.068-41.04,52.093-63.557c-5.389,18.48-18.052,40.912-39.048,63.65H266.963z M315.417,215.927
	c1.046,9.102-17.644,44.454-61.769,88.583c-4.667,4.676-9.338,9.148-13.972,13.407c-0.03,0.027-0.038,0.065-0.067,0.093h-48.391
	c10.067-13.113,22.313-27.016,35.616-40.315C270.944,233.585,306.25,214.816,315.417,215.927z M206.718,257.576
	c23.756-23.749,48.663-38.517,69.167-44.785c-19.201,12.146-41.212,30.246-62.459,51.498c-18.089,18.08-33.712,36.561-45.638,53.722
	h-2.852C172.982,298.062,187.697,276.601,206.718,257.576z M256,460.233c-125.005,0-227.722-54.472-236.44-123.259H492.44
	C483.722,405.761,381.005,460.233,256,460.233z"/>
<g>
</g>
<g>
</g>
<g>
</g>
<g>
</g>
<g>
</g>
<g>
</g>
<g>
</g>
<g>
</g>
<g>
</g>
<g>
</g>
<g>
</g>
<g>
</g>
<g>
</g>
<g>
</g>
<g>
</g>
</svg>
