<?xml version="1.0" encoding="iso-8859-1"?>
<!-- Generator: Adobe Illustrator 19.0.0, SVG Export Plug-In . SVG Version: 6.00 Build 0)  -->
<svg version="1.1" id="Layer_1" xmlns="http://www.w3.org/2000/svg" xmlns:xlink="http://www.w3.org/1999/xlink" x="0px" y="0px"
	 viewBox="0 0 512 512" style="enable-background:new 0 0 512 512;" xml:space="preserve">
<circle style="fill:#E25D56;" cx="94.896" cy="210.824" r="10.039"/>
<circle style="fill:#73C9C9;" cx="175.21" cy="210.824" r="10.039"/>
<g>
	<path style="fill:#E9E7D1;" d="M375.993,180.706V50.255c0-16.637-13.52-30.176-30.137-30.176H135.072
		c-17.902,0-37.976,14.284-43.828,31.196L27.165,236.392c-2.426,7.01-2.02,13.314,1.142,17.755
		c3.157,4.431,8.961,6.873,16.343,6.873h301.279c16.579,0,30.064-13.539,30.064-30.176L375.993,180.706L375.993,180.706z
		 M94.895,240.941c-16.608,0-30.118-13.51-30.118-30.118s13.51-30.118,30.118-30.118s30.118,13.51,30.118,30.118
		S111.503,240.941,94.895,240.941z M175.209,240.941c-16.608,0-30.118-13.51-30.118-30.118s13.51-30.118,30.118-30.118
		s30.118,13.51,30.118,30.118S191.817,240.941,175.209,240.941z M335.836,120.471c0,5.549-4.495,10.039-10.039,10.039H135.052
		c-5.544,0-10.039-4.49-10.039-10.039V60.235c0-5.549,4.495-10.039,10.039-10.039h190.745c5.544,0,10.039,4.49,10.039,10.039
		V120.471z"/>
	<polygon style="fill:#E9E7D1;" points="436.228,190.745 396.072,190.745 396.072,230.843 396.072,230.902 436.228,230.902 
		436.228,220.863 436.228,200.784 	"/>
</g>
<g>
	<path style="fill:#314E55;" d="M325.797,50.196H135.052c-5.544,0-10.039,4.49-10.039,10.039v60.235
		c0,5.549,4.495,10.039,10.039,10.039h190.745c5.544,0,10.039-4.49,10.039-10.039V60.235
		C335.836,54.686,331.341,50.196,325.797,50.196z M315.758,110.431H145.091V70.275h170.667V110.431z"/>
	<path style="fill:#314E55;" d="M94.895,180.706c-16.608,0-30.118,13.51-30.118,30.118s13.51,30.118,30.118,30.118
		s30.118-13.51,30.118-30.118S111.503,180.706,94.895,180.706z M94.895,220.863c-5.534,0-10.039-4.5-10.039-10.039
		s4.505-10.039,10.039-10.039s10.039,4.5,10.039,10.039S100.429,220.863,94.895,220.863z"/>
	<path style="fill:#314E55;" d="M175.209,180.706c-16.608,0-30.118,13.51-30.118,30.118s13.51,30.118,30.118,30.118
		s30.118-13.51,30.118-30.118S191.817,180.706,175.209,180.706z M175.209,220.863c-5.534,0-10.039-4.5-10.039-10.039
		s4.505-10.039,10.039-10.039c5.534,0,10.039,4.5,10.039,10.039S180.743,220.863,175.209,220.863z"/>
	<path style="fill:#314E55;" d="M506.503,200.784h-50.196v-20.078c0-5.549-4.495-10.039-10.039-10.039h-50.196V50.255
		C396.072,22.549,373.547,0,345.856,0H135.072c-26.539,0-54.123,19.637-62.799,44.706L8.194,229.824
		c-4.613,13.314-3.275,26.088,3.755,35.971c6.927,9.725,18.848,15.304,32.701,15.304h30.167v70.275H64.733
		c-27.652,0-50.152,22.49-50.152,50.128v60.373c0,27.637,22.5,50.127,50.152,50.127h40.24c27.657,0,50.157-22.49,50.157-50.128
		V401.5c0-27.637-22.5-50.128-50.157-50.128H94.895v-70.275H345.93c20.494,0,38.104-12.422,45.872-30.118h54.466
		c5.544,0,10.039-4.49,10.039-10.039v-20.078h50.196V200.784z M34.66,461.872V401.5c0-16.569,13.49-30.049,30.073-30.049h10.083
		v120.471H64.733C48.15,491.922,34.66,478.441,34.66,461.872z M104.973,371.451c16.583,0,30.078,13.48,30.078,30.049v60.373
		c0,16.569-13.495,30.049-30.078,30.049H94.895V371.451L104.973,371.451L104.973,371.451z M345.93,261.02H44.65
		c-7.382,0-13.186-2.441-16.343-6.873c-3.162-4.441-3.569-10.745-1.142-17.755L91.243,51.275
		c5.853-16.912,25.927-31.196,43.829-31.196h210.784c16.618,0,30.137,13.539,30.137,30.176v130.451v50.137
		C375.993,247.48,362.508,261.02,345.93,261.02z M436.228,230.902h-40.157v-0.059v-40.098h40.157v10.039v20.078V230.902z"/>
</g>
<g>
</g>
<g>
</g>
<g>
</g>
<g>
</g>
<g>
</g>
<g>
</g>
<g>
</g>
<g>
</g>
<g>
</g>
<g>
</g>
<g>
</g>
<g>
</g>
<g>
</g>
<g>
</g>
<g>
</g>
</svg>
