<?xml version="1.0" encoding="iso-8859-1"?>
<!-- Generator: Adobe Illustrator 19.0.0, SVG Export Plug-In . SVG Version: 6.00 Build 0)  -->
<svg version="1.1" id="Layer_1" xmlns="http://www.w3.org/2000/svg" xmlns:xlink="http://www.w3.org/1999/xlink" x="0px" y="0px"
	 viewBox="0 0 512 512" style="enable-background:new 0 0 512 512;" xml:space="preserve">
<path style="fill:#EA86A5;" d="M482.694,19.141c-3.094,0-8.946,1.066-18.397,5.787c-14.443,7.226-30.971,19.772-46.536,35.337
	s-28.12,32.093-35.346,46.536c-7.273,14.555-5.852,20.576-5.272,21.155c0.58,0.589,6.581,2.019,21.155-5.272
	c14.443-7.226,30.971-19.781,46.536-35.346c15.565-15.565,28.11-32.093,35.337-46.536c7.273-14.555,5.852-20.566,5.272-21.146
	C485.237,19.45,484.368,19.141,482.694,19.141z"/>
<path style="fill:#314E55;" d="M498.979,6.119c-6.048-6.058-18.463-10.704-43.245,1.683c-16.238,8.124-34.533,21.95-51.509,38.926
	c-16.986,16.977-30.812,35.271-38.926,51.509c-8.063,16.119-8.866,26.947-6.807,34.259l-98.028,99.947
	c-42.968-21.4-116.804,5.086-178.946,67.228c-65.994,65.994-91.862,145.227-62.781,186.603c0.974,3.37,2.616,6.358,5.101,8.843
	c2.503,2.509,5.548,4.111,8.955,5.08C44.134,508.119,58.25,512,74.206,512c42.301,0,97.138-26.774,145.002-74.637
	c66.038-66.038,91.89-145.327,62.716-186.68c-0.747-2.464-1.885-4.658-3.379-6.603l95.292-97.158
	c1.819,0.407,3.787,0.683,6.035,0.683c6.759,0,15.565-2.094,26.988-7.806c16.238-8.114,34.533-21.941,51.509-38.926
	c16.977-16.977,30.803-35.271,38.926-51.509C509.674,24.601,505.046,12.177,498.979,6.119z M41.459,482.61
	c-0.952-0.78-1.995-1.445-2.87-2.319c-0.844-0.844-1.484-1.854-2.239-2.771c0.235-15.016,25.652-64.925,91.88-131.153
	c31.485-31.485,63.943-58.062,91.417-74.843c22.213-13.564,34.54-16.551,40.146-16.671c0.765,0.65,1.629,1.178,2.342,1.891
	c0.737,0.737,1.286,1.628,1.956,2.421c-0.108,5.587-3.06,17.885-16.661,40.151c-16.771,27.465-43.348,59.932-74.833,91.417
	C106.4,456.939,56.517,482.369,41.459,482.61z M95.053,313.208c44.552-44.546,97.647-70.212,134.591-68.815
	c-6.192,2.903-12.786,6.403-19.971,10.79c-28.727,17.547-62.456,45.124-94.979,77.647c-28.575,28.575-70.577,76.947-88.457,114.958
	C24.844,410.846,50.506,357.755,95.053,313.208z M205.672,423.827c-44.521,44.521-97.566,70.191-134.507,68.828
	c38.02-17.866,86.384-59.8,114.969-88.385c32.523-32.523,60.1-66.252,77.638-94.979c4.352-7.125,7.826-13.663,10.718-19.811
	C275.767,326.412,250.127,379.372,205.672,423.827z M480.17,40.801c-7.226,14.443-19.772,30.971-35.337,46.536
	c-15.565,15.565-32.093,28.12-46.536,35.346c-14.574,7.292-20.576,5.861-21.155,5.272c-0.58-0.58-2-6.6,5.272-21.155
	c7.226-14.443,19.781-30.971,35.346-46.536c15.565-15.565,32.093-28.11,46.536-35.337c9.451-4.721,15.303-5.787,18.397-5.787
	c1.673,0,2.543,0.308,2.748,0.514C486.022,20.235,487.443,26.246,480.17,40.801z"/>
<g>
</g>
<g>
</g>
<g>
</g>
<g>
</g>
<g>
</g>
<g>
</g>
<g>
</g>
<g>
</g>
<g>
</g>
<g>
</g>
<g>
</g>
<g>
</g>
<g>
</g>
<g>
</g>
<g>
</g>
</svg>
