<?xml version="1.0" encoding="iso-8859-1"?>
<!-- Generator: Adobe Illustrator 19.0.0, SVG Export Plug-In . SVG Version: 6.00 Build 0)  -->
<svg version="1.1" id="Layer_1" xmlns="http://www.w3.org/2000/svg" xmlns:xlink="http://www.w3.org/1999/xlink" x="0px" y="0px"
	 viewBox="0 0 512 512" style="enable-background:new 0 0 512 512;" xml:space="preserve">
<g>
	<polygon style="fill:#D8D8D8;" points="388.571,420.571 357.295,420.571 345.107,475.429 468.607,475.429 456.42,420.571 
		425.143,420.571 	"/>
	<path style="fill:#D8D8D8;" d="M68.571,421.304v8.411V448v18.286v18.286v8.411c20.839-3.402,36.571-18.178,36.571-35.839
		S89.411,424.705,68.571,421.304z"/>
	<path style="fill:#D8D8D8;" d="M434.348,27.429h50.196c2.581,0,4.598-2.009,4.598-4.571s-2.018-4.571-4.598-4.571H329.17
		c-2.58,0-4.598,2.009-4.598,4.571s2.018,4.571,4.598,4.571h50.196H434.348z"/>
	<rect x="397.714" y="310.857" style="fill:#D8D8D8;" width="18.286" height="91.429"/>
</g>
<path style="fill:#5ECC66;" d="M406.857,182.857c10.08,0,18.286-8.205,18.286-18.286c0-10.08-8.205-18.286-18.286-18.286
	c-10.08,0-18.286,8.205-18.286,18.286C388.571,174.652,396.777,182.857,406.857,182.857z"/>
<path style="fill:#D8D8D8;" d="M352,73.161v191.964c0,15.134,12.277,27.446,27.366,27.446h9.205h36.571h9.205
	c15.089,0,27.366-12.312,27.366-27.446V73.161c0-15.134-12.277-27.446-27.366-27.446h-54.982C364.277,45.714,352,58.027,352,73.161z
	 M416,265.143h-18.286v-45.714H416V265.143z M406.857,128c20.17,0,36.571,16.402,36.571,36.571s-16.402,36.571-36.571,36.571
	c-20.17,0-36.571-16.402-36.571-36.571S386.688,128,406.857,128z"/>
<g>
	<path style="fill:#314E55;" d="M507.429,22.857C507.429,10.25,497.161,0,484.545,0H329.17c-12.616,0-22.884,10.25-22.884,22.857
		s10.268,22.857,22.884,22.857h13.915c-2.144,2.836-4.05,5.848-5.494,9.143H233.143v0.924
		c-20.796,4.239-36.493,22.642-36.558,44.656h-0.013v320.134c0,15.125-12.304,27.429-27.429,27.429h-46.677
		c-5.103-25.903-31.392-45.714-63.037-45.714c-5.053,0-9.143,4.089-9.143,9.143v18.286H4.571V448h45.714v18.286H4.571v18.286h45.714
		v18.286c0,5.053,4.089,9.143,9.143,9.143c31.645,0,57.934-19.811,63.037-45.714h46.677c22.075,0,40.542-15.732,44.79-36.571h0.924
		V100.571c0-15.125,12.304-27.429,27.429-27.429h91.43c0,0.006-0.002,0.012-0.002,0.018v191.964
		c0,25.214,20.482,45.732,45.652,45.732h0.062v91.429h-29.464c-4.286,0-8,2.973-8.928,7.161l-16.25,73.143
		c-0.598,2.705,0.062,5.536,1.795,7.705c1.741,2.161,4.357,3.42,7.134,3.42H480c2.777,0,5.393-1.259,7.134-3.42
		c1.732-2.17,2.393-5,1.795-7.705l-16.25-73.143c-0.928-4.187-4.643-7.161-8.928-7.161h-29.464v-91.429h0.062
		c25.17,0,45.652-20.518,45.652-45.732V73.161c0-10.338-3.573-19.778-9.371-27.446h13.915
		C497.161,45.714,507.429,35.464,507.429,22.857z M68.571,492.982v-8.411v-18.286V448v-18.286v-8.411
		c20.839,3.402,36.571,18.178,36.571,35.839S89.411,489.58,68.571,492.982z M324.571,22.857c0-2.563,2.018-4.571,4.598-4.571
		h155.375c2.58,0,4.598,2.009,4.598,4.571s-2.018,4.571-4.598,4.571h-50.196h-54.982H329.17
		C326.589,27.429,324.571,25.42,324.571,22.857z M468.607,475.429h-123.5l12.187-54.857h31.277h36.571h31.277L468.607,475.429z
		 M416,402.286h-18.286v-91.429H416V402.286z M461.714,73.161v191.964c0,15.134-12.277,27.446-27.366,27.446h-9.205h-36.571h-9.205
		c-15.089,0-27.366-12.312-27.366-27.446V73.161c0-15.134,12.277-27.446,27.366-27.446h54.982
		C449.438,45.714,461.714,58.027,461.714,73.161z"/>
	<rect x="397.714" y="219.429" style="fill:#314E55;" width="18.286" height="45.714"/>
	<path style="fill:#314E55;" d="M406.857,201.143c20.17,0,36.571-16.402,36.571-36.571S427.027,128,406.857,128
		c-20.17,0-36.571,16.402-36.571,36.571S386.688,201.143,406.857,201.143z M406.857,146.286c10.08,0,18.286,8.205,18.286,18.286
		c0,10.08-8.205,18.286-18.286,18.286c-10.08,0-18.286-8.205-18.286-18.286C388.571,154.491,396.777,146.286,406.857,146.286z"/>
</g>
<g>
</g>
<g>
</g>
<g>
</g>
<g>
</g>
<g>
</g>
<g>
</g>
<g>
</g>
<g>
</g>
<g>
</g>
<g>
</g>
<g>
</g>
<g>
</g>
<g>
</g>
<g>
</g>
<g>
</g>
</svg>
