<?xml version="1.0" encoding="iso-8859-1"?>
<!-- Generator: Adobe Illustrator 19.0.0, SVG Export Plug-In . SVG Version: 6.00 Build 0)  -->
<svg version="1.1" id="Layer_1" xmlns="http://www.w3.org/2000/svg" xmlns:xlink="http://www.w3.org/1999/xlink" x="0px" y="0px"
	 viewBox="0 0 512 512" style="enable-background:new 0 0 512 512;" xml:space="preserve">
<path style="fill:#EAEAEA;" d="M410.72,355.409c-12.406,17.19-32.126,27.571-53.24,27.571c-3.639,0-7.262-0.306-10.832-0.908
	C332.53,419.308,296.394,444.65,256,444.65s-76.53-25.342-90.648-62.579c-3.571,0.602-7.193,0.908-10.832,0.908
	c-21.113,0-40.833-10.38-53.24-27.571c-8.096,3.506-16.855,5.334-25.725,5.334c-2.395,0-4.755-0.146-7.084-0.402
	C95.616,440.17,170.052,494.38,256.146,494.38c84.778,0,160.431-55.287,187.601-134.073c-2.401,0.271-4.832,0.437-7.302,0.437
	C427.575,360.743,418.816,358.915,410.72,355.409z"/>
<path style="fill:#F58CAC;" d="M436.445,242.154c-2.048,0-4.061,0.129-6.04,0.383c-4.457,0.602-8.526-2.224-9.645-6.509
	c-15.332-58.664-69.079-124.263-122.353-149.334l-36.253-17.06c-1.929,9.589-0.28,16.122-0.235,16.281
	c1.334,4.68-1.385,9.554-6.066,10.888c-0.8,0.228-1.618,0.34-2.418,0.34c-3.837,0-7.365-2.529-8.466-6.401
	c-0.223-0.783-2.101-7.885-1.112-18.29l-30.265,14.242c-53.283,25.076-107.021,90.67-122.353,149.334
	c-1.118,4.28-5.214,7.102-9.645,6.509c-1.979-0.254-3.992-0.383-6.04-0.383c-26.809,0-48.619,22.645-48.619,50.482
	c0,17.927,9.072,33.662,22.673,42.622c0.798-0.494,1.63-0.955,2.596-1.178c4.732-1.08,9.473,1.867,10.565,6.608
	c0.051,0.222,0.128,0.431,0.18,0.653c4.028,1.126,8.239,1.782,12.605,1.782c8.561,0,16.975-2.34,24.331-6.771
	c2.065-1.239,4.534-1.583,6.849-0.951c2.323,0.628,4.285,2.177,5.429,4.285c8.63,15.835,24.856,25.673,42.356,25.673
	c4.775,0,9.498-0.718,14.033-2.134c0.852-0.267,1.738-0.4,2.624-0.4c1.454,0,2.899,0.361,4.198,1.067
	c2.091,1.131,3.639,3.067,4.285,5.36c9.567,34.019,40.962,57.778,76.341,57.778s66.773-23.759,76.341-57.778
	c0.645-2.293,2.194-4.229,4.285-5.36c2.091-1.131,4.569-1.368,6.823-0.667c4.534,1.415,9.258,2.134,14.033,2.134
	c17.5,0,33.726-9.838,42.356-25.673c1.144-2.108,3.106-3.657,5.429-4.285c2.289-0.632,4.784-0.288,6.849,0.951
	c7.356,4.431,15.771,6.771,24.331,6.771c4.462,0,8.765-0.68,12.873-1.854c0.125-0.532,0.307-1.04,0.428-1.574
	c1.067-4.749,5.739-7.752,10.531-6.664c1.222,0.275,2.312,0.805,3.261,1.503c12.974-9.077,21.526-24.469,21.526-41.898
	C485.064,264.799,463.254,242.154,436.445,242.154z M292.961,305.12l-20.778-114.248l17.336-3.149l20.778,114.248L292.961,305.12z
	 M367.013,271.592l-61.293-112.381l15.469-8.44l61.293,112.381L367.013,271.592z"/>
<g>
	<path style="fill:#314E55;" d="M502.685,292.636c0-37.551-29.717-68.102-66.24-68.102c-0.215,0-0.422,0-0.637,0.004
		C417.018,163.267,361.24,96.791,305.91,70.752l-37.336-17.569c6.85-11.724,19.728-24.867,43.9-36.415
		c4.396-2.099,6.255-7.356,4.156-11.748c-2.099-4.396-7.365-6.259-11.744-4.151c-31.613,15.102-47.261,33.189-54.791,49.176
		L206.09,70.752c-55.339,26.044-111.116,92.52-129.898,153.787c-0.215-0.004-0.422-0.004-0.637-0.004
		c-36.523,0-66.24,30.552-66.24,68.103c0,27.583,16.06,51.336,39.045,62.033C74.489,447.767,158.391,512,256.146,512
		c96.366,0,181.883-65.625,207.814-157.489C486.771,343.742,502.685,320.091,502.685,292.636z M256.146,494.38
		c-86.094,0-160.53-54.21-187.675-134.039c2.329,0.256,4.69,0.402,7.084,0.402c8.87,0,17.629-1.828,25.725-5.334
		c12.406,17.19,32.126,27.571,53.24,27.571c3.639,0,7.262-0.306,10.832-0.908C179.47,419.308,215.606,444.65,256,444.65
		s76.53-25.342,90.648-62.579c3.571,0.602,7.193,0.908,10.832,0.908c21.113,0,40.833-10.38,53.24-27.571
		c8.096,3.506,16.855,5.334,25.725,5.334c2.47,0,4.901-0.166,7.302-0.437C416.577,439.092,340.925,494.38,256.146,494.38z
		 M463.539,334.534c-0.949-0.698-2.04-1.228-3.261-1.503c-4.792-1.088-9.464,1.914-10.531,6.664
		c-0.12,0.535-0.303,1.042-0.428,1.574c-4.108,1.174-8.411,1.854-12.873,1.854c-8.561,0-16.975-2.34-24.331-6.771
		c-2.065-1.239-4.56-1.583-6.849-0.951c-2.323,0.628-4.285,2.177-5.429,4.285c-8.63,15.835-24.856,25.673-42.356,25.673
		c-4.775,0-9.498-0.718-14.033-2.134c-2.254-0.701-4.732-0.465-6.823,0.667c-2.091,1.131-3.639,3.067-4.285,5.36
		c-9.567,34.019-40.962,57.778-76.341,57.778s-66.773-23.759-76.341-57.778c-0.645-2.293-2.194-4.229-4.285-5.36
		c-1.299-0.705-2.745-1.067-4.198-1.067c-0.886,0-1.772,0.133-2.624,0.4c-4.534,1.415-9.258,2.134-14.033,2.134
		c-17.5,0-33.726-9.838-42.356-25.673c-1.144-2.108-3.106-3.657-5.429-4.285c-2.314-0.632-4.784-0.288-6.849,0.951
		c-7.356,4.431-15.771,6.771-24.331,6.771c-4.366,0-8.577-0.656-12.605-1.782c-0.052-0.222-0.129-0.431-0.18-0.653
		c-1.093-4.741-5.833-7.687-10.565-6.608c-0.966,0.223-1.798,0.684-2.596,1.178c-13.601-8.959-22.673-24.694-22.673-42.621
		c0-27.837,21.81-50.482,48.619-50.482c2.048,0,4.061,0.129,6.04,0.383c4.431,0.594,8.526-2.228,9.645-6.509
		c15.332-58.664,69.07-124.259,122.353-149.334l30.265-14.242c-0.988,10.405,0.889,17.507,1.113,18.29
		c1.101,3.872,4.629,6.401,8.466,6.401c0.8,0,1.618-0.112,2.418-0.34c4.68-1.334,7.399-6.208,6.066-10.888
		c-0.045-0.159-1.694-6.693,0.235-16.281l36.253,17.06c53.274,25.071,107.021,90.67,122.353,149.334
		c1.118,4.285,5.188,7.111,9.645,6.509c1.979-0.254,3.992-0.383,6.04-0.383c26.809,0,48.619,22.645,48.619,50.482
		C485.064,310.065,476.512,325.457,463.539,334.534z"/>
	
		<rect x="335.284" y="147.189" transform="matrix(-0.8779 0.4788 -0.4788 -0.8779 747.3026 231.8487)" style="fill:#314E55;" width="17.62" height="128.009"/>
	
		<rect x="282.434" y="188.378" transform="matrix(-0.9839 0.1789 -0.1789 -0.9839 621.8776 436.8052)" style="fill:#314E55;" width="17.621" height="116.126"/>
</g>
<g>
</g>
<g>
</g>
<g>
</g>
<g>
</g>
<g>
</g>
<g>
</g>
<g>
</g>
<g>
</g>
<g>
</g>
<g>
</g>
<g>
</g>
<g>
</g>
<g>
</g>
<g>
</g>
<g>
</g>
</svg>
