<?xml version="1.0" encoding="iso-8859-1"?>
<!-- Generator: Adobe Illustrator 19.0.0, SVG Export Plug-In . SVG Version: 6.00 Build 0)  -->
<svg version="1.1" id="Layer_1" xmlns="http://www.w3.org/2000/svg" xmlns:xlink="http://www.w3.org/1999/xlink" x="0px" y="0px"
	 viewBox="0 0 512 512" style="enable-background:new 0 0 512 512;" xml:space="preserve">
<path style="fill:#E4AD40;" d="M267.305,314.023h-32.562c-23.778,33.411-76.213,114.153-76.213,148.064
	c0,2.929,0.844,6.781,7.399,10.613c29.637,17.301,121.229,4.524,147.686-9.014c5.26-13.455-3.425-84.584-15.084-147.279
	C291.055,315.407,278.66,314.023,267.305,314.023z"/>
<path style="fill:#DBCF56;" d="M256,30.776c-130.08,0-235.901,105.826-235.901,235.906c0,29.034,5.123,47.081,15.663,55.168
	c16.458,12.625,50.972,3.386,90.973-7.331c38.254-10.245,81.611-21.865,129.266-21.865s91.012,11.619,129.266,21.865
	c40.001,10.716,74.505,19.956,90.973,7.331c10.54-8.087,15.663-26.134,15.663-55.168C491.902,136.602,386.08,30.776,256,30.776z
	 M256,91.071c-96.969,0-175.861,78.892-175.861,175.861c0,5.55-4.495,10.049-10.049,10.049c-5.554,0-10.049-4.5-10.049-10.049
	c0-108.054,87.911-195.96,195.96-195.96c5.554,0,10.049,4.5,10.049,10.049C266.049,86.572,261.555,91.071,256,91.071z"/>
<g>
	<path style="fill:#314E55;" d="M256,10.677c-141.16,0-256,114.845-256,256.005c0,36.203,7.478,58.799,23.523,71.11
		c24.338,18.69,61.434,8.729,108.412-3.857c23.659-6.341,49.351-13.187,76.536-17.333c-23.76,34.775-70.039,107.364-70.039,145.486
		c0,8.131,3.013,19.583,17.361,27.969c13.837,8.082,35.692,11.266,59.402,11.266c42.415,0,90.767-10.206,109.678-20.869
		c5.536-3.126,22.052-12.471-5.34-161.097c21.294,4.09,41.569,9.496,60.533,14.578c28.273,7.576,52.964,14.191,73.456,14.191
		c13.553,0,25.27-2.9,34.956-10.334C504.522,325.481,512,302.885,512,266.682C512,125.522,397.16,10.677,256,10.677z
		 M313.616,463.687c-26.458,13.538-118.049,26.315-147.686,9.014c-6.556-3.832-7.399-7.684-7.399-10.613
		c0-33.911,52.435-114.653,76.213-148.064h32.562c11.354,0,23.749,1.384,31.227,2.385
		C310.191,379.103,318.876,450.233,313.616,463.687z M476.239,321.85c-16.467,12.625-50.972,3.386-90.973-7.331
		c-38.254-10.245-81.611-21.865-129.266-21.865s-91.012,11.619-129.266,21.865c-40.001,10.716-74.515,19.956-90.973,7.331
		c-10.54-8.087-15.663-26.134-15.663-55.168C20.098,136.602,125.919,30.776,256,30.776s235.901,105.826,235.901,235.906
		C491.902,295.716,486.779,313.763,476.239,321.85z"/>
	<path style="fill:#314E55;" d="M256,70.973c-108.049,0-195.96,87.906-195.96,195.96c0,5.55,4.495,10.049,10.049,10.049
		c5.554,0,10.049-4.5,10.049-10.049c0-96.969,78.892-175.861,175.861-175.861c5.554,0,10.049-4.5,10.049-10.049
		C266.049,75.472,261.555,70.973,256,70.973z"/>
</g>
<g>
</g>
<g>
</g>
<g>
</g>
<g>
</g>
<g>
</g>
<g>
</g>
<g>
</g>
<g>
</g>
<g>
</g>
<g>
</g>
<g>
</g>
<g>
</g>
<g>
</g>
<g>
</g>
<g>
</g>
</svg>
