<?xml version="1.0" encoding="iso-8859-1"?>
<!-- Generator: Adobe Illustrator 19.0.0, SVG Export Plug-In . SVG Version: 6.00 Build 0)  -->
<svg version="1.1" id="Layer_1" xmlns="http://www.w3.org/2000/svg" xmlns:xlink="http://www.w3.org/1999/xlink" x="0px" y="0px"
	 viewBox="0 0 512 512" style="enable-background:new 0 0 512 512;" xml:space="preserve">
<g>
	<polygon style="fill:#DBCF56;" points="270.786,18.286 250.357,18.286 243.5,73.143 277.643,73.143 	"/>
	<polygon style="fill:#DBCF56;" points="298.54,91.429 288,91.429 233.143,91.429 222.603,91.429 216.509,128 304.634,128 	"/>
	<path style="fill:#DBCF56;" d="M333.714,246.857v-73.143c0-15.125-12.33-27.429-27.487-27.429H205.772
		c-15.156,0-27.487,12.304-27.487,27.429v73.143H333.714z"/>
</g>
<rect x="178.286" y="265.143" style="fill:#E4AD40;" width="155.429" height="64"/>
<path style="fill:#DBCF56;" d="M178.286,347.429v118.857c0,15.125,12.33,27.429,27.487,27.429h100.455
	c15.156,0,27.487-12.304,27.487-27.429V347.429H178.286z"/>
<path style="fill:#314E55;" d="M323.758,131.515l-8.455-50.729c-0.732-4.411-4.549-7.643-9.018-7.643H296.07l-8.142-65.134
	C287.357,3.437,283.469,0,278.857,0h-36.571c-4.612,0-8.5,3.437-9.072,8.009l-8.142,65.134h-10.215
	c-4.469,0-8.286,3.232-9.018,7.643l-8.003,48.016C176.382,132.578,160,151.223,160,173.714V256v82.286v128
	C160,491.491,180.531,512,205.772,512h100.455C331.469,512,352,491.491,352,466.286v-128V256v-82.286
	C352,154.711,340.319,138.402,323.758,131.515z M250.357,18.286h20.429l6.857,54.857H243.5L250.357,18.286z M222.603,91.429h10.54
	H288h10.54L304.634,128h-88.125L222.603,91.429z M205.772,146.286h100.455c15.156,0,27.487,12.304,27.487,27.429v73.143H178.286
	v-73.143C178.286,158.589,190.616,146.286,205.772,146.286z M333.714,329.143H178.286v-64h155.429V329.143z M306.228,493.714
	H205.772c-15.156,0-27.487-12.304-27.487-27.429V347.429h155.429v118.857C333.714,481.411,321.384,493.714,306.228,493.714z"/>
<g>
</g>
<g>
</g>
<g>
</g>
<g>
</g>
<g>
</g>
<g>
</g>
<g>
</g>
<g>
</g>
<g>
</g>
<g>
</g>
<g>
</g>
<g>
</g>
<g>
</g>
<g>
</g>
<g>
</g>
</svg>
