<?xml version="1.0" encoding="iso-8859-1"?>
<!-- Generator: Adobe Illustrator 19.0.0, SVG Export Plug-In . SVG Version: 6.00 Build 0)  -->
<svg version="1.1" id="Layer_1" xmlns="http://www.w3.org/2000/svg" xmlns:xlink="http://www.w3.org/1999/xlink" x="0px" y="0px"
	 viewBox="0 0 512 512" style="enable-background:new 0 0 512 512;" xml:space="preserve">
<polygon style="fill:#314E55;" points="101.625,81.653 101.625,86.105 119.967,85.231 "/>
<path style="fill:#E4AD40;" d="M474.528,376.383c-0.01,0-0.019,0.005-0.019,0.005c-0.024,0-0.039-0.005-0.054-0.005H21.934
	c-0.705,0-1.269,0.054-1.707,0.126c0.17,0.413,0.428,0.929,0.803,1.532c0.005,0,0.005,0,0.005,0l28.674,45.886
	c3.998,6.391,14.527,12.217,22.089,12.217h368.42c7.563,0,18.092-5.826,22.094-12.222l28.67-45.876
	c0.379-0.608,0.637-1.124,0.803-1.537c-0.433-0.073-0.997-0.126-1.702-0.126L474.528,376.383L474.528,376.383z"/>
<path style="fill:#314E55;" d="M509.749,366.55c-3.555-6.41-10.724-10.087-19.667-10.087h-5.466
	c-1.286-11.794-7.67-26.649-26.335-35.668c-7.427-3.589-15.365-4.66-23.657-4.364c-8.262-8.077-19.731-14.443-35.52-16.69
	c-13.379-1.902-28.869-6.531-43.843-11.015c-36.738-10.982-78.373-23.432-91.509,9.036c-2.221,5.493-5.761,10.804-10.028,15.838
	c-7.548,0.255-15.979,0.965-25.62,2.327c-57.36,8.09-72.755,28.188-76.723,40.536h-9.913V127.379c0-5.501-4.46-9.96-9.96-9.96
	c-5.501,0-9.96,4.46-9.96,9.96v229.084h-19.92V106.045l100.493-4.786l295.823,57.721l3.813-19.551L285.726,97.279l214.769-10.228
	l-0.948-19.896L203.575,81.249L73.835,55.935l-3.813,19.551l11.682,2.278v9.289l-20.382,0.97l0.948,19.896l19.434-0.925v249.468
	H21.934c-8.963,0-16.141,3.672-19.692,10.082c-3.55,6.41-2.86,14.449,1.902,22.06l28.67,45.876
	c7.689,12.304,24.448,21.584,38.985,21.584h368.42c14.532,0,31.291-9.279,38.985-21.584l28.674-45.881
	C512.624,381.004,513.305,372.969,509.749,366.55z M101.625,81.653l18.342,3.578l-18.342,0.874V81.653z M464.541,356.463h-11.317
	c-0.519-5.429-1.856-11.64-4.293-17.975c0.219,0.096,0.467,0.139,0.683,0.243C460.002,343.75,463.46,350.948,464.541,356.463z
	 M262.329,333.435c19.674,0.391,30.871,4.907,41.792,9.333c11.516,4.664,23.422,9.484,42.759,9.484
	c20.3,0,39.087-5.014,55.666-9.435c8.509-2.269,16.455-4.345,23.699-5.542c4.479,6.878,6.237,14.172,6.913,19.189h-199.42
	C243.009,350.306,253.309,342.473,262.329,333.435z M349.55,307.815c15.68,4.688,31.889,9.537,46.747,11.653
	c3.232,0.46,6.092,1.211,8.789,2.079c-2.541,0.657-5.098,1.337-7.675,2.026c-16.146,4.304-32.842,8.759-50.53,8.759
	c-15.456,0-24.643-3.72-35.279-8.029c-9.394-3.798-19.497-7.86-34.188-9.746c1.835-3.038,3.517-6.129,4.808-9.323
	C288.116,290.657,312.71,296.794,349.55,307.815z M228.254,336.072c-15.176,10.71-29.174,17.512-29.445,17.643
	c-1.38,0.66-2.474,1.634-3.377,2.748h-21.175C180.805,349.625,196.145,340.951,228.254,336.072z M490.982,378.047l-28.67,45.876
	c-4.003,6.395-14.532,12.222-22.094,12.222H71.798c-7.563,0-18.092-5.826-22.089-12.217l-28.674-45.881c0,0,0-0.005-0.005-0.005
	c-0.375-0.603-0.632-1.119-0.803-1.532c0.438-0.073,1.002-0.126,1.707-0.126h452.522c0.015,0,0.03,0.005,0.044,0.005
	c0,0,0.019-0.005,0.029-0.005h15.554c0.705,0,1.269,0.054,1.702,0.126C491.619,376.923,491.361,377.439,490.982,378.047z"/>
<g>
</g>
<g>
</g>
<g>
</g>
<g>
</g>
<g>
</g>
<g>
</g>
<g>
</g>
<g>
</g>
<g>
</g>
<g>
</g>
<g>
</g>
<g>
</g>
<g>
</g>
<g>
</g>
<g>
</g>
</svg>
