<?xml version="1.0" encoding="iso-8859-1"?>
<!-- Generator: Adobe Illustrator 19.0.0, SVG Export Plug-In . SVG Version: 6.00 Build 0)  -->
<svg version="1.1" id="Layer_1" xmlns="http://www.w3.org/2000/svg" xmlns:xlink="http://www.w3.org/1999/xlink" x="0px" y="0px"
	 viewBox="0 0 512.001 512.001" style="enable-background:new 0 0 512.001 512.001;" xml:space="preserve">
<path style="fill:#5ECC66;" d="M368.098,403.98L241.28,386.963c-5.177-0.699-9.186-4.882-9.655-10.081l-9.087-100.222
	l-108.479-0.699c-5.516-0.033-10.179-4.085-10.988-9.546L88.15,165.765c-22.265,25.91-41.964,53.41-53.753,81.452
	c-0.112,0.268-0.218,0.538-0.328,0.806c-1.069,2.577-2.04,5.16-2.971,7.745c-0.352,0.987-0.709,1.975-1.04,2.963
	c-0.633,1.87-1.193,3.742-1.748,5.615c-0.382,1.3-0.803,2.598-1.148,3.898c-0.221,0.827-0.379,1.648-0.584,2.473
	c-0.982,3.981-1.803,7.97-2.424,11.968c-0.098,0.62-0.208,1.24-0.297,1.859c-0.336,2.384-0.611,4.771-0.813,7.164
	c-0.018,0.205-0.033,0.409-0.05,0.613c-2.527,31.685,6.814,64.124,31.844,98.603c0.059,0.081,0.117,0.162,0.177,0.243
	c1.928,2.649,3.964,5.311,6.079,7.984c0.535,0.672,1.089,1.345,1.635,2.018c1.792,2.221,3.627,4.447,5.55,6.686
	c1.193,1.383,2.452,2.773,3.692,4.16c1.462,1.64,2.894,3.277,4.426,4.927c2.922,3.139,5.936,6.286,9.1,9.45
	c3.216,3.216,6.415,6.284,9.605,9.25c3.051,2.829,6.088,5.538,9.109,8.125c0.042,0.036,0.084,0.076,0.126,0.112
	C197.5,523.599,276.334,489.61,368.098,403.98z"/>
<path style="fill:#DBCF56;" d="M123.791,253.658l109.047,0.699c5.756,0.033,10.54,4.445,11.064,10.179l9.197,101.445l135.556,18.186
	c1.763-1.746,3.536-3.494,5.275-5.232c90.829-90.818,120.919-205.119,73.364-278.297c-0.634-0.398-1.625-0.806-2.83-1.212
	c-1.822,0.524-3.735,0.762-5.7,0.295c-2.927-0.732-70.623-16.634-100.32,35.453c-2.064,3.615-5.844,5.647-9.732,5.647
	c-1.879,0-3.779-0.47-5.527-1.463c-5.363-3.058-7.241-9.896-4.183-15.258c19.115-33.539,51.604-46.082,80.584-48.936
	c-1.448-4.391-2.458-9.424-3.539-14.828c-0.961-4.784-2.534-12.648-3.987-15.204c-23.428-15.455-51.083-22.904-80.868-22.904
	c-63.305,0-136.167,33.662-198.237,95.733c-8.44,8.44-16.985,17.183-25.392,26.171L123.791,253.658z"/>
<path style="fill:#314E55;" d="M485.588,87.728h-0.011c-5.406-8.224-16.973-10.725-29.217-13.369
	c-4.871-1.059-13.03-2.818-14.472-3.67c-1.354-2.01-2.949-9.983-3.91-14.745c-2.425-12.113-4.718-23.559-12.768-28.933
	c-82.2-54.993-208.865-24.083-308.071,75.134c-48.451,48.44-95.471,101.27-111.352,159.322
	c-16.886,61.743,4.008,120.865,63.895,180.74c5.536,5.538,11.019,10.638,16.467,15.443c0.466,0.411,0.932,0.851,1.397,1.257
	c5.297,4.619,10.545,8.851,15.759,12.808c0.641,0.486,1.282,0.998,1.923,1.475c5.264,3.922,10.481,7.481,15.66,10.757
	c0.58,0.366,1.158,0.748,1.738,1.107c5.445,3.375,10.84,6.386,16.194,9.081c0.302,0.152,0.603,0.311,0.905,0.461
	c24.332,12.091,47.737,17.404,70.262,17.404c59.863,0,113.562-37.112,162.375-81.453c0.278-0.251,0.553-0.506,0.83-0.757
	c2.662-2.425,5.316-4.854,7.949-7.317c1.926-1.795,3.835-3.613,5.748-5.428c1.184-1.125,2.376-2.24,3.554-3.37
	c3.116-2.988,6.214-5.994,9.295-9.017c0.235-0.23,0.475-0.459,0.71-0.689c0,0,0.003-0.005,0.005-0.007
	c3.114-3.059,6.211-6.132,9.29-9.211C508.404,296.101,539.598,169.852,485.588,87.728z M132.954,117.96
	c62.071-62.071,134.933-95.733,198.238-95.733c29.785,0,57.44,7.449,80.868,22.904c1.453,2.556,3.025,10.42,3.987,15.204
	c1.081,5.405,2.091,10.437,3.539,14.828c-28.98,2.853-61.469,15.396-80.584,48.936c-3.058,5.363-1.18,12.2,4.183,15.258
	c1.748,0.994,3.648,1.463,5.527,1.463c3.888,0,7.667-2.032,9.732-5.647c29.697-52.088,97.393-36.185,100.32-35.453
	c1.965,0.467,3.878,0.229,5.7-0.295c1.206,0.406,2.197,0.814,2.83,1.212c47.555,73.179,17.465,187.479-73.364,278.297
	c-1.739,1.739-3.512,3.487-5.275,5.232l-135.556-18.186l-9.197-101.445c-0.524-5.734-5.308-10.147-11.064-10.179l-109.047-0.699
	l-16.228-109.526C115.97,135.144,124.514,126.401,132.954,117.96z M104.211,443.767c-3.021-2.588-6.057-5.297-9.108-8.125
	c-3.19-2.965-6.39-6.034-9.605-9.25c-3.164-3.164-6.178-6.312-9.1-9.45c-1.533-1.65-2.965-3.287-4.426-4.927
	c-1.24-1.387-2.499-2.777-3.692-4.16c-1.923-2.239-3.758-4.464-5.55-6.686c-0.546-0.673-1.101-1.347-1.635-2.018
	c-2.115-2.673-4.151-5.336-6.079-7.984c-0.059-0.081-0.118-0.162-0.177-0.243c-25.03-34.479-34.371-66.917-31.844-98.603
	c0.017-0.204,0.032-0.408,0.05-0.613c0.202-2.393,0.477-4.779,0.813-7.164c0.089-0.619,0.199-1.24,0.297-1.859
	c0.621-3.998,1.442-7.987,2.424-11.968c0.205-0.825,0.363-1.645,0.584-2.473c0.345-1.3,0.765-2.598,1.148-3.898
	c0.555-1.873,1.115-3.746,1.748-5.615c0.331-0.988,0.688-1.975,1.04-2.963c0.931-2.584,1.902-5.167,2.971-7.745
	c0.11-0.268,0.216-0.538,0.328-0.806c11.789-28.043,31.488-55.542,53.753-81.452l14.921,100.65
	c0.808,5.461,5.472,9.513,10.988,9.546l108.479,0.699l9.087,100.222c0.47,5.199,4.478,9.382,9.655,10.081l126.818,17.017
	c-91.764,85.63-170.598,119.619-263.76,39.9C104.295,443.843,104.254,443.803,104.211,443.767z"/>
<g>
</g>
<g>
</g>
<g>
</g>
<g>
</g>
<g>
</g>
<g>
</g>
<g>
</g>
<g>
</g>
<g>
</g>
<g>
</g>
<g>
</g>
<g>
</g>
<g>
</g>
<g>
</g>
<g>
</g>
</svg>
