<?xml version="1.0" encoding="iso-8859-1"?>
<!-- Generator: Adobe Illustrator 19.0.0, SVG Export Plug-In . SVG Version: 6.00 Build 0)  -->
<svg version="1.1" id="Layer_1" xmlns="http://www.w3.org/2000/svg" xmlns:xlink="http://www.w3.org/1999/xlink" x="0px" y="0px"
	 viewBox="0 0 512 512" style="enable-background:new 0 0 512 512;" xml:space="preserve">
<rect x="338.286" y="256" style="fill:#E9E7D1;" width="27.429" height="27.429"/>
<path style="fill:#E5D85A;" d="M128,164.571H91.429v45.714h64c5.049,0,9.143,4.094,9.143,9.143v201.143
	c0,5.049-4.094,9.143-9.143,9.143h-64v64h118.857V164.571h-36.571H128z"/>
<rect x="91.429" y="228.571" style="fill:#F58CAC;" width="54.857" height="182.857"/>
<g>
	<polygon style="fill:#E9E7D1;" points="173.714,100.571 182.857,100.571 182.857,18.286 118.857,18.286 118.857,100.571 
		128,100.571 	"/>
	<rect x="137.143" y="118.857" style="fill:#E9E7D1;" width="27.429" height="27.429"/>
</g>
<g>
	<rect x="283.429" y="429.714" style="fill:#E5D85A;" width="137.143" height="64"/>
	<polygon style="fill:#E5D85A;" points="420.571,338.286 420.571,301.714 374.857,301.714 329.143,301.714 283.429,301.714 
		283.429,338.286 	"/>
</g>
<rect x="283.429" y="356.571" style="fill:#F58CAC;" width="137.143" height="54.857"/>
<g>
	<path style="fill:#314E55;" d="M219.429,146.286h-36.571v-27.429H192c5.049,0,9.143-4.094,9.143-9.143V9.143
		C201.143,4.094,197.049,0,192,0h-82.286c-5.049,0-9.143,4.094-9.143,9.143v100.571c0,5.049,4.094,9.143,9.143,9.143h9.143v27.429
		H82.286c-5.049,0-9.143,4.094-9.143,9.143v64v201.143v82.286c0,5.049,4.094,9.143,9.143,9.143h137.143
		c5.049,0,9.143-4.094,9.143-9.143V155.429C228.571,150.379,224.478,146.286,219.429,146.286z M118.857,18.286h64v82.286h-9.143H128
		h-9.143V18.286z M137.143,118.857h27.429v27.429h-27.429V118.857z M91.429,228.571h54.857v182.857H91.429V228.571z
		 M210.286,493.714H91.429v-64h64c5.049,0,9.143-4.094,9.143-9.143V219.429c0-5.049-4.094-9.143-9.143-9.143h-64v-45.714H128h45.714
		h36.571V493.714z"/>
	<path style="fill:#314E55;" d="M429.714,283.429H384v-36.571c0-5.049-4.094-9.143-9.143-9.143h-45.714
		c-5.049,0-9.143,4.094-9.143,9.143v36.571h-45.714c-5.049,0-9.143,4.094-9.143,9.143v54.857v73.143v82.286
		c0,5.049,4.094,9.143,9.143,9.143h155.429c5.049,0,9.143-4.094,9.143-9.143v-82.286v-73.143v-54.857
		C438.857,287.522,434.763,283.429,429.714,283.429z M338.286,256h27.429v27.429h-27.429V256z M329.143,301.714h45.714h45.714
		v36.571H283.429v-36.571H329.143z M420.571,411.429H283.429v-54.857h137.143V411.429z M283.429,493.714v-64h137.143v64H283.429z"/>
</g>
<g>
</g>
<g>
</g>
<g>
</g>
<g>
</g>
<g>
</g>
<g>
</g>
<g>
</g>
<g>
</g>
<g>
</g>
<g>
</g>
<g>
</g>
<g>
</g>
<g>
</g>
<g>
</g>
<g>
</g>
</svg>
