<?xml version="1.0" encoding="iso-8859-1"?>
<!-- Generator: Adobe Illustrator 19.0.0, SVG Export Plug-In . SVG Version: 6.00 Build 0)  -->
<svg version="1.1" id="Layer_1" xmlns="http://www.w3.org/2000/svg" xmlns:xlink="http://www.w3.org/1999/xlink" x="0px" y="0px"
	 viewBox="0 0 512 512" style="enable-background:new 0 0 512 512;" xml:space="preserve">
<path style="fill:#5ECC66;" d="M316.52,111.674l34.192-43.465c-9.559-9.693-32.594-28.896-56.175-17.569
	c-10.986,5.264-17.586,11.211-19.108,17.197c-1.306,5.134,1.592,9.217,1.721,9.39c2.768,3.828,2.093,9.225-1.592,12.175
	c-3.702,2.954-8.996,2.556-12.128-0.986L215.984,34.62l3.72,47.239c0.285,3.689-1.747,7.171-5.104,8.732
	c-3.339,1.557-7.335,0.869-9.965-1.743C188.718,73.083,157.24,48.2,140.216,48.2c-0.078,0-0.156,0-0.234,0
	c-3.763,0.052-5.502,1.375-6.6,2.522c-0.977,1.025-1.583,2.158-1.341,4.377c1.594,14.66,33.352,42.311,56.636,58.319
	c20.913-5.773,43.475-8.878,67.323-8.878C277.288,104.54,297.536,107.041,316.52,111.674z"/>
<path style="fill:#E65F58;" d="M318.091,130.489c-0.521-0.099-1.003-0.276-1.506-0.473c-18.853-5.051-39.152-7.761-60.585-7.761
	c-112.92,0-194.872,74.504-194.872,177.157c0,107.453,87.419,194.872,194.872,194.872s194.872-87.419,194.872-194.872
	C450.872,216.775,397.711,152.46,318.091,130.489z M159.654,195.575c-35.449,27.08-55.777,68.155-55.777,112.695
	c0,4.892-3.962,8.858-8.858,8.858c-4.896,0-8.858-3.966-8.858-8.858c0-50.107,22.863-96.316,62.731-126.769
	c3.901-2.963,9.446-2.228,12.422,1.661C164.282,187.05,163.538,192.608,159.654,195.575z M256,467.711
	c-4.896,0-8.858-3.966-8.858-8.858c0-4.892,3.962-8.858,8.858-8.858c83.034,0,150.583-66.65,150.583-148.572
	c0-4.892,3.962-8.858,8.858-8.858s8.858,3.966,8.858,8.858C424.299,393.116,348.8,467.711,256,467.711z"/>
<g>
	<path style="fill:#314E55;" d="M334.9,116.963l34.358-43.673c2.526-3.209,2.526-7.729,0.009-10.943
		c-1.566-1.994-38.831-48.567-82.393-27.685c-13.46,6.457-22.387,14.286-26.651,23.334l-48.51-55.002
		c-2.526-2.863-6.6-3.771-10.095-2.297c-3.512,1.488-5.675,5.052-5.38,8.853l4.066,51.59c-16.193-13.421-40.76-30.656-60.119-30.656
		c-0.147,0-0.294,0-0.441,0.004c-7.638,0.104-14.264,2.868-19.16,7.993c-4.792,5.013-6.92,11.423-6.15,18.537
		c2.397,22.021,34.045,48.785,53.42,63.259C92.435,149.25,43.412,215.827,43.412,299.412C43.412,416.631,138.781,512,256,512
		s212.588-95.369,212.588-212.588C468.588,212.458,415.535,143.91,334.9,116.963z M132.042,55.099
		c-0.242-2.219,0.363-3.352,1.341-4.377c1.099-1.146,2.837-2.47,6.6-2.522c0.078,0,0.156,0,0.234,0
		c17.024,0,48.502,24.882,64.418,40.647c2.63,2.612,6.626,3.3,9.965,1.743c3.356-1.561,5.389-5.043,5.104-8.732l-3.72-47.239
		l47.447,53.796c3.131,3.542,8.425,3.94,12.128,0.986c3.685-2.95,4.36-8.347,1.592-12.175c-0.13-0.173-3.028-4.256-1.721-9.39
		c1.522-5.986,8.123-11.933,19.108-17.197c23.58-11.327,46.616,7.876,56.175,17.569l-34.192,43.465
		c-18.984-4.633-39.232-7.134-60.52-7.134c-23.847,0-46.41,3.105-67.322,8.878C165.394,97.411,133.637,69.759,132.042,55.099z
		 M256,494.284c-107.453,0-194.872-87.419-194.872-194.872c0-102.652,81.952-177.157,194.872-177.157
		c21.433,0,41.732,2.711,60.585,7.761c0.503,0.197,0.985,0.373,1.506,0.473c79.621,21.97,132.782,86.286,132.782,168.923
		C450.872,406.865,363.453,494.284,256,494.284z"/>
	<path style="fill:#314E55;" d="M415.441,292.565c-4.896,0-8.858,3.966-8.858,8.858c0,81.922-67.55,148.572-150.583,148.572
		c-4.896,0-8.858,3.966-8.858,8.858c0,4.892,3.962,8.858,8.858,8.858c92.8,0,168.299-74.595,168.299-166.288
		C424.299,296.531,420.337,292.565,415.441,292.565z"/>
	<path style="fill:#314E55;" d="M148.893,181.501c-39.869,30.453-62.731,76.663-62.731,126.769c0,4.892,3.962,8.858,8.858,8.858
		c4.896,0,8.858-3.966,8.858-8.858c0-44.54,20.328-85.616,55.777-112.695c3.884-2.967,4.628-8.525,1.661-12.413
		C158.339,179.273,152.794,178.538,148.893,181.501z"/>
</g>
<g>
</g>
<g>
</g>
<g>
</g>
<g>
</g>
<g>
</g>
<g>
</g>
<g>
</g>
<g>
</g>
<g>
</g>
<g>
</g>
<g>
</g>
<g>
</g>
<g>
</g>
<g>
</g>
<g>
</g>
</svg>
