<?xml version="1.0" encoding="iso-8859-1"?>
<!-- Generator: Adobe Illustrator 19.0.0, SVG Export Plug-In . SVG Version: 6.00 Build 0)  -->
<svg version="1.1" id="Layer_1" xmlns="http://www.w3.org/2000/svg" xmlns:xlink="http://www.w3.org/1999/xlink" x="0px" y="0px"
	 viewBox="0 0 512 512" style="enable-background:new 0 0 512 512;" xml:space="preserve">
<path style="fill:#5ECC66;" d="M287.892,81.891c20.517,4.335,53.836-26.143,74.949-51.411
	c-20.395-6.261-46.166-11.843-66.219-11.843c-11.9,0-21.787,1.966-27.347,6.918c-1.848,1.642-7.452,6.642-3.739,22.623
	C270.247,68.419,277.769,79.759,287.892,81.891z"/>
<path style="fill:#E4AD40;" d="M273.039,136.253c-0.649,7.463-1.512,14.166-2.382,19.761c7.508,3.075,12.244,8.551,12.244,15.244
	c0,10.39-11.314,17.934-26.901,17.934s-26.901-7.544-26.901-17.934c0-9.661,9.837-16.778,23.742-17.741
	c0.789-5.112,1.581-11.252,2.189-18.077C156.59,135.97,76.662,216.17,76.662,314.728c0,98.885,80.448,179.338,179.338,179.338
	s179.338-80.453,179.338-179.338C435.338,221.594,363.959,144.869,273.039,136.253z M139.43,234.026h17.934v17.934H139.43V234.026z
	 M166.331,314.728v17.934h-17.934v-17.934H166.331z M139.43,269.894h17.934v17.934H139.43V269.894z M103.563,260.927h17.934v17.934
	h-17.934V260.927z M121.496,350.596h-17.934v-17.934h17.934V350.596z M112.53,314.728v-17.934h17.934v17.934H112.53z
	 M130.463,359.563h17.934v17.934h-17.934V359.563z M157.364,413.364H139.43V395.43h17.934V413.364z M184.265,431.298h-17.934
	v-17.934h17.934V431.298z"/>
<g>
	<path style="fill:#314E55;" d="M274.012,118.315c0.128-6.145,0.056-12.524-0.341-19.037c-0.088-1.438-0.243-2.807-0.359-4.216
		c3.377,2.034,6.984,3.56,10.902,4.383c2.504,0.525,5.035,0.771,7.61,0.771c40.412,0,87.638-61.411,93.198-68.828
		c1.699-2.277,2.224-5.228,1.41-7.955c-0.823-2.723-2.881-4.899-5.561-5.858c-9.457-3.398-93.215-32.4-123.514-5.416
		c-3.394,3.018-6.819,7.421-8.921,13.568C238.356,13.77,225.44,5.202,209.747,0.392c-4.737-1.441-9.746,1.213-11.2,5.946
		c-1.454,4.733,1.209,9.751,5.946,11.2c43.792,13.42,52.233,61.475,51.513,99.919c-0.002,0-0.004,0-0.004,0
		c-108.777,0-197.273,88.496-197.273,197.272S147.224,512,256,512s197.272-88.496,197.272-197.272
		C453.272,212.027,374.373,127.446,274.012,118.315z M269.275,25.554c5.561-4.952,15.447-6.918,27.347-6.918
		c20.053,0,45.824,5.582,66.219,11.843c-21.113,25.268-54.432,55.745-74.949,51.411c-10.123-2.132-17.645-13.472-22.356-33.714
		C261.823,32.196,267.428,27.196,269.275,25.554z M256,494.066c-98.89,0-179.338-80.453-179.338-179.338
		c0-98.558,79.928-178.758,178.368-179.289c-0.608,6.825-1.4,12.965-2.189,18.077c-13.905,0.963-23.742,8.08-23.742,17.741
		c0,10.39,11.314,17.934,26.901,17.934s26.901-7.544,26.901-17.934c0-6.693-4.735-12.17-12.244-15.244
		c0.87-5.594,1.733-12.298,2.382-19.761c90.92,8.617,162.299,85.341,162.299,178.475C435.338,413.614,354.89,494.066,256,494.066z"
		/>
	<rect x="103.563" y="260.937" style="fill:#314E55;" width="17.934" height="17.934"/>
	<rect x="112.53" y="296.805" style="fill:#314E55;" width="17.934" height="17.934"/>
	<rect x="103.563" y="332.672" style="fill:#314E55;" width="17.934" height="17.934"/>
	<rect x="130.463" y="359.573" style="fill:#314E55;" width="17.934" height="17.934"/>
	<rect x="139.43" y="395.44" style="fill:#314E55;" width="17.934" height="17.934"/>
	<rect x="139.43" y="269.904" style="fill:#314E55;" width="17.934" height="17.934"/>
	<rect x="148.397" y="314.738" style="fill:#314E55;" width="17.934" height="17.934"/>
	<rect x="166.331" y="413.374" style="fill:#314E55;" width="17.934" height="17.934"/>
	<rect x="139.43" y="234.036" style="fill:#314E55;" width="17.934" height="17.934"/>
</g>
<g>
</g>
<g>
</g>
<g>
</g>
<g>
</g>
<g>
</g>
<g>
</g>
<g>
</g>
<g>
</g>
<g>
</g>
<g>
</g>
<g>
</g>
<g>
</g>
<g>
</g>
<g>
</g>
<g>
</g>
</svg>
