<?xml version="1.0" encoding="iso-8859-1"?>
<!-- Generator: Adobe Illustrator 19.0.0, SVG Export Plug-In . SVG Version: 6.00 Build 0)  -->
<svg version="1.1" id="Layer_1" xmlns="http://www.w3.org/2000/svg" xmlns:xlink="http://www.w3.org/1999/xlink" x="0px" y="0px"
	 viewBox="0 0 512 512" style="enable-background:new 0 0 512 512;" xml:space="preserve">
<path style="fill:#73C9C9;" d="M481.27,122.88h10.25V40.96H20.48v81.92h10.25H481.27z M337.92,71.68h51.2v20.48h-51.2V71.68z
	 M71.68,51.2c16.94,0,30.72,13.78,30.72,30.72c0-16.94,13.78-30.72,30.72-30.72s30.72,13.78,30.72,30.72
	c0-16.94,13.78-30.72,30.72-30.72s30.72,13.78,30.72,30.72c0-16.94,13.78-30.72,30.72-30.72s30.72,13.78,30.72,30.72
	s-13.78,30.72-30.72,30.72s-30.72-13.78-30.72-30.72c0,16.94-13.78,30.72-30.72,30.72s-30.72-13.78-30.72-30.72
	c0,16.94-13.78,30.72-30.72,30.72S102.4,98.86,102.4,81.92c0,16.94-13.78,30.72-30.72,30.72S40.96,98.86,40.96,81.92
	S54.74,51.2,71.68,51.2z"/>
<path style="fill:#EAEAEA;" d="M61.44,378.88h389.12V184.32H61.44V378.88z M95.16,259l40.96-40.96c4-4,10.48-4,14.48,0
	c4,4,4,10.48,0,14.48l-40.96,40.96c-2,2-4.62,3-7.24,3c-2.62,0-5.24-1-7.24-3C91.16,269.48,91.16,263,95.16,259z"/>
<path style="fill:#C59981;" d="M481.27,143.36H30.73c-5.65,0-10.25,4.59-10.25,10.24v307.2c0,5.65,4.6,10.24,10.25,10.24h450.54
	c5.65,0,10.25-4.59,10.25-10.24V153.6C491.52,147.95,486.92,143.36,481.27,143.36z M460.8,440.32H51.2v-20.48h409.6V440.32z
	 M471.04,389.12c0,5.66-4.58,10.24-10.24,10.24H51.2c-5.66,0-10.24-4.58-10.24-10.24V174.08c0-5.66,4.58-10.24,10.24-10.24h409.6
	c5.66,0,10.24,4.58,10.24,10.24V389.12z"/>
<g>
	<path style="fill:#314E55;" d="M460.8,163.84H51.2c-5.66,0-10.24,4.58-10.24,10.24v215.04c0,5.66,4.58,10.24,10.24,10.24h409.6
		c5.66,0,10.24-4.58,10.24-10.24V174.08C471.04,168.42,466.46,163.84,460.8,163.84z M450.56,378.88H61.44V184.32h389.12V378.88z"/>
	<path style="fill:#314E55;" d="M512,133.12V30.72c0-5.66-4.58-10.24-10.24-10.24H10.24C4.58,20.48,0,25.06,0,30.72v102.4
		c0,2.869,1.19,5.446,3.088,7.304C1.166,144.432,0,148.866,0,153.6v307.2c0,16.94,13.79,30.72,30.73,30.72h450.54
		c16.94,0,30.73-13.78,30.73-30.72V153.6c0-4.734-1.166-9.168-3.088-13.176C510.81,138.566,512,135.989,512,133.12z M20.48,40.96
		h471.04v81.92h-10.25H30.73H20.48V40.96z M491.52,460.8c0,5.65-4.6,10.24-10.25,10.24H30.73c-5.65,0-10.25-4.59-10.25-10.24V153.6
		c0-5.65,4.6-10.24,10.25-10.24h450.54c5.65,0,10.25,4.59,10.25,10.24L491.52,460.8L491.52,460.8z"/>
	<rect x="51.2" y="419.84" style="fill:#314E55;" width="409.6" height="20.48"/>
	<path style="fill:#314E55;" d="M71.68,112.64c16.94,0,30.72-13.78,30.72-30.72S88.62,51.2,71.68,51.2S40.96,64.98,40.96,81.92
		S54.74,112.64,71.68,112.64z M71.68,71.68c5.65,0,10.24,4.59,10.24,10.24s-4.59,10.24-10.24,10.24c-5.65,0-10.24-4.59-10.24-10.24
		S66.03,71.68,71.68,71.68z"/>
	<path style="fill:#314E55;" d="M133.12,112.64c16.94,0,30.72-13.78,30.72-30.72S150.06,51.2,133.12,51.2S102.4,64.98,102.4,81.92
		S116.18,112.64,133.12,112.64z M133.12,71.68c5.65,0,10.24,4.59,10.24,10.24s-4.59,10.24-10.24,10.24s-10.24-4.59-10.24-10.24
		S127.47,71.68,133.12,71.68z"/>
	<path style="fill:#314E55;" d="M194.56,112.64c16.94,0,30.72-13.78,30.72-30.72S211.5,51.2,194.56,51.2s-30.72,13.78-30.72,30.72
		S177.62,112.64,194.56,112.64z M194.56,71.68c5.65,0,10.24,4.59,10.24,10.24s-4.59,10.24-10.24,10.24s-10.24-4.59-10.24-10.24
		S188.91,71.68,194.56,71.68z"/>
	<path style="fill:#314E55;" d="M256,112.64c16.94,0,30.72-13.78,30.72-30.72S272.94,51.2,256,51.2s-30.72,13.78-30.72,30.72
		S239.06,112.64,256,112.64z M256,71.68c5.65,0,10.24,4.59,10.24,10.24S261.65,92.16,256,92.16c-5.65,0-10.24-4.59-10.24-10.24
		S250.35,71.68,256,71.68z"/>
	<rect x="337.92" y="71.68" style="fill:#314E55;" width="51.2" height="20.48"/>
	<path style="fill:#314E55;" d="M102.4,276.48c2.62,0,5.24-1,7.24-3l40.96-40.96c4-4,4-10.48,0-14.48s-10.48-4-14.48,0L95.16,259
		c-4,4-4,10.48,0,14.48C97.16,275.48,99.78,276.48,102.4,276.48z"/>
</g>
<g>
</g>
<g>
</g>
<g>
</g>
<g>
</g>
<g>
</g>
<g>
</g>
<g>
</g>
<g>
</g>
<g>
</g>
<g>
</g>
<g>
</g>
<g>
</g>
<g>
</g>
<g>
</g>
<g>
</g>
</svg>
