<?xml version="1.0" encoding="iso-8859-1"?>
<!-- Generator: Adobe Illustrator 19.0.0, SVG Export Plug-In . SVG Version: 6.00 Build 0)  -->
<svg version="1.1" id="Layer_1" xmlns="http://www.w3.org/2000/svg" xmlns:xlink="http://www.w3.org/1999/xlink" x="0px" y="0px"
	 viewBox="0 0 512 512" style="enable-background:new 0 0 512 512;" xml:space="preserve">
<g>
	<path style="fill:#5ECC66;" d="M142.223,407.705c-12.344,0-22.771,7.95-26.697,18.963h53.394
		C164.994,415.655,154.568,407.705,142.223,407.705z"/>
	<path style="fill:#5ECC66;" d="M244.771,426.667c-3.926-11.013-14.353-18.963-26.697-18.963c-12.344,0-22.771,7.95-26.697,18.963
		H244.771z"/>
	<path style="fill:#5ECC66;" d="M320.623,426.667c-3.926-11.013-14.353-18.963-26.697-18.963c-12.344,0-22.771,7.95-26.697,18.963
		H320.623z"/>
	<path style="fill:#5ECC66;" d="M396.474,426.667c-3.926-11.013-14.353-18.963-26.697-18.963c-12.344,0-22.771,7.95-26.697,18.963
		H396.474z"/>
</g>
<path style="fill:#F28544;" d="M102.298,218.077L47.409,447.778v45.259h417.181v-45.259l-54.888-229.702H102.298z M426.665,436.149
	c0,5.241-4.245,9.481-9.481,9.481H94.816c-5.236,0-9.481-4.241-9.481-9.481c0-5.241,4.245-9.481,9.481-9.481h0.958
	c4.406-21.611,23.557-37.926,46.449-37.926c15.562,0,29.276,7.639,37.926,19.256c8.649-11.617,22.364-19.256,37.926-19.256
	s29.276,7.639,37.926,19.256c8.649-11.617,22.364-19.256,37.926-19.256c15.562,0,29.276,7.639,37.926,19.256
	c8.649-11.617,22.364-19.256,37.926-19.256c22.892,0,42.043,16.315,46.449,37.926h0.958
	C422.42,426.667,426.665,430.908,426.665,436.149z"/>
<g>
	<path style="fill:#314E55;" d="M483.294,444.454l-56.888-238.063c-1.019-4.269-4.833-7.278-9.222-7.278H94.816
		c-4.389,0-8.204,3.009-9.222,7.278L28.706,444.454c-0.171,0.722-0.259,1.463-0.259,2.204v55.861c0,5.241,4.245,9.481,9.481,9.481
		h436.144c5.236,0,9.481-4.241,9.481-9.481v-55.861C483.554,445.917,483.466,445.177,483.294,444.454z M464.591,493.037H47.409
		v-45.259l54.888-229.702h307.405l54.889,229.702V493.037z"/>
	<path style="fill:#314E55;" d="M369.777,388.742c-15.562,0-29.276,7.639-37.926,19.256c-8.649-11.617-22.364-19.256-37.926-19.256
		c-15.562,0-29.276,7.639-37.926,19.256c-8.649-11.617-22.364-19.256-37.926-19.256s-29.276,7.639-37.926,19.256
		c-8.649-11.617-22.364-19.256-37.926-19.256c-22.892,0-42.043,16.315-46.449,37.926h-0.958c-5.236,0-9.481,4.241-9.481,9.481
		c0,5.241,4.245,9.481,9.481,9.481h322.368c5.236,0,9.481-4.241,9.481-9.481c0-5.241-4.245-9.481-9.481-9.481h-0.958
		C411.82,405.056,392.669,388.742,369.777,388.742z M369.777,407.705c12.344,0,22.771,7.95,26.697,18.963H343.08
		C347.006,415.655,357.432,407.705,369.777,407.705z M293.926,407.705c12.344,0,22.771,7.95,26.697,18.963h-53.394
		C271.155,415.655,281.581,407.705,293.926,407.705z M218.074,407.705c12.344,0,22.771,7.95,26.697,18.963h-53.394
		C195.304,415.655,205.73,407.705,218.074,407.705z M142.223,407.705c12.344,0,22.771,7.95,26.697,18.963h-53.394
		C119.453,415.655,129.879,407.705,142.223,407.705z"/>
	<path style="fill:#314E55;" d="M200.885,163.531c-4.43,2.796-5.764,8.648-2.972,13.083c1.801,2.861,4.884,4.426,8.032,4.426
		c1.727,0,3.472-0.472,5.042-1.454c1.662-1.046,40.296-26.389,6.773-93.147c-9.051-18.018-11.421-33.676-7.042-46.527
		c5.148-15.129,18.361-21.713,18.643-21.852c4.708-2.222,6.745-7.833,4.551-12.565c-2.204-4.759-7.847-6.815-12.592-4.611
		c-0.833,0.389-20.472,9.722-28.421,32.518c-6.25,17.935-3.588,38.648,7.916,61.555
		C226.246,145.596,201.811,162.901,200.885,163.531z"/>
	<path style="fill:#314E55;" d="M248.292,163.531c-4.43,2.796-5.764,8.648-2.972,13.083c1.801,2.861,4.884,4.426,8.032,4.426
		c1.727,0,3.472-0.472,5.042-1.454c1.662-1.046,40.296-26.389,6.773-93.147c-9.051-18.018-11.421-33.676-7.042-46.527
		c5.148-15.129,18.361-21.713,18.643-21.852c4.708-2.222,6.745-7.833,4.551-12.565c-2.208-4.759-7.852-6.815-12.592-4.611
		c-0.833,0.389-20.472,9.722-28.421,32.518c-6.25,17.935-3.588,38.648,7.916,61.555
		C273.653,145.596,249.218,162.901,248.292,163.531z"/>
	<path style="fill:#314E55;" d="M295.699,163.531c-4.43,2.796-5.764,8.648-2.972,13.083c1.801,2.861,4.884,4.426,8.032,4.426
		c1.727,0,3.472-0.472,5.042-1.454c1.662-1.046,40.296-26.389,6.773-93.147c-9.051-18.018-11.421-33.676-7.042-46.527
		c5.148-15.129,18.361-21.713,18.643-21.852c4.708-2.222,6.745-7.833,4.551-12.565c-2.208-4.759-7.852-6.815-12.592-4.611
		c-0.833,0.389-20.472,9.722-28.421,32.518c-6.25,17.935-3.588,38.648,7.916,61.555C321.06,145.596,296.625,162.901,295.699,163.531
		z"/>
</g>
<g>
</g>
<g>
</g>
<g>
</g>
<g>
</g>
<g>
</g>
<g>
</g>
<g>
</g>
<g>
</g>
<g>
</g>
<g>
</g>
<g>
</g>
<g>
</g>
<g>
</g>
<g>
</g>
<g>
</g>
</svg>
