<?xml version="1.0" encoding="iso-8859-1"?>
<!-- Generator: Adobe Illustrator 19.0.0, SVG Export Plug-In . SVG Version: 6.00 Build 0)  -->
<svg version="1.1" id="Layer_1" xmlns="http://www.w3.org/2000/svg" xmlns:xlink="http://www.w3.org/1999/xlink" x="0px" y="0px"
	 viewBox="0 0 512 512" style="enable-background:new 0 0 512 512;" xml:space="preserve">
<path style="fill:#DBCF56;" d="M206.83,277.045c0,39.308,18.037,60.956,50.797,60.956s50.797-21.648,50.797-60.956
	c0-35.796-35.26-79.35-50.797-96.812C242.09,197.695,206.83,241.249,206.83,277.045z"/>
<path style="fill:#E4AD40;" d="M376.811,22.456c-37.284-7.947-77.693,6.399-113.797,40.31c-3.909,3.671-10.001,3.681-13.91,0.01
	c-36.123-33.921-76.513-48.237-113.807-40.32c-39,8.284-70.927,39.864-89.906,88.924c-19.545,50.559-22.928,113.162-9.505,176.281
	C49.3,350.79,77.844,406.606,116.269,444.833c37.294,37.106,79.301,52.989,118.311,44.675c4.911-1.042,14.654-4.445,17.997-5.665
	c1.121-0.407,2.302-0.615,3.482-0.615c1.339,0,2.669,0.268,3.919,0.784c5.665,2.371,11.568,4.227,17.561,5.506
	c82.178,17.412,171.33-73.08,198.693-201.858C503.594,158.893,458.998,39.917,376.811,22.456z M257.627,358.32
	c-44.526,0-71.115-30.379-71.115-81.275c0-54.071,61.303-116.297,63.913-118.916c3.81-3.83,10.596-3.83,14.406,0
	c2.609,2.619,63.913,64.845,63.913,118.916C328.742,327.941,302.153,358.32,257.627,358.32z"/>
<g>
	<path style="fill:#314E55;" d="M381.037,2.574c-41.471-8.76-85.581,5.05-124.978,39.119c-39.387-34.059-83.438-47.9-124.988-39.119
		C85.136,12.337,47.981,48.38,26.442,104.059c-20.954,54.18-24.664,120.89-10.437,187.829s44.745,126.367,85.938,167.352
		C136.687,493.805,175.667,512,213.944,512c8.334,0,16.648-0.863,24.863-2.609l0.01-0.01c5.04-1.072,12.54-3.572,17.045-5.139
		c5.665,2.153,11.519,3.879,17.442,5.149c93.21,19.793,193.107-77.783,222.811-217.503
		C525.798,152.157,474.178,22.377,381.037,2.574z M476.232,287.661C448.869,416.439,359.716,506.93,277.539,489.519
		c-5.992-1.28-11.896-3.135-17.561-5.506c-1.25-0.516-2.579-0.784-3.919-0.784c-1.181,0-2.361,0.208-3.482,0.615
		c-3.343,1.22-13.086,4.623-17.997,5.665c-39.01,8.314-81.017-7.57-118.311-44.675C77.844,406.607,49.3,350.79,35.887,287.661
		c-13.424-63.119-10.04-125.722,9.505-176.281c18.979-49.061,50.906-80.64,89.906-88.924c37.294-7.917,77.683,6.399,113.807,40.32
		c3.909,3.671,10.001,3.661,13.91-0.01c36.103-33.911,76.513-48.257,113.797-40.31C458.998,39.917,503.594,158.893,476.232,287.661z
		"/>
	<path style="fill:#314E55;" d="M250.424,158.129c-2.609,2.619-63.913,64.845-63.913,118.916c0,50.896,26.589,81.275,71.115,81.275
		s71.115-30.379,71.115-81.275c0-54.071-61.303-116.297-63.913-118.916C261.02,154.3,254.234,154.3,250.424,158.129z
		 M257.627,338.001c-32.76,0-50.797-21.648-50.797-60.956c0-35.796,35.26-79.35,50.797-96.812
		c15.537,17.461,50.797,61.016,50.797,96.812C308.424,316.353,290.387,338.001,257.627,338.001z"/>
</g>
<g>
</g>
<g>
</g>
<g>
</g>
<g>
</g>
<g>
</g>
<g>
</g>
<g>
</g>
<g>
</g>
<g>
</g>
<g>
</g>
<g>
</g>
<g>
</g>
<g>
</g>
<g>
</g>
<g>
</g>
</svg>
