<?xml version="1.0" encoding="iso-8859-1"?>
<!-- Generator: Adobe Illustrator 19.0.0, SVG Export Plug-In . SVG Version: 6.00 Build 0)  -->
<svg version="1.1" id="Layer_1" xmlns="http://www.w3.org/2000/svg" xmlns:xlink="http://www.w3.org/1999/xlink" x="0px" y="0px"
	 viewBox="0 0 512 512" style="enable-background:new 0 0 512 512;" xml:space="preserve">
<path style="fill:#5ECC66;" d="M180.61,82.787c2.378-0.535,9.602-2.162,14.03-17.72c5.61-19.705,4.544-33.079-3.168-39.751
	c-15.584-13.469-58.913-3.189-89.179,8.506C125.542,57.955,161.405,87.06,180.61,82.787z"/>
<path style="fill:#DBCF56;" d="M370.373,250.114c-11.941-16.74-24.289-34.055-34.076-51.115
	c-8.062-14.043-14.703-28.086-20.564-40.477c-19.01-40.192-30.304-61.166-59.733-61.166c-39.51,0-49.992,23.166-70.885,69.327
	c-4.454,9.84-9.27,20.478-14.833,31.811c-8.213,16.745-19.917,35.026-32.307,54.386c-21.324,33.308-45.487,71.061-45.487,94.992
	c0,45.526,21.345,89.61,57.096,117.93c30.999,24.547,69.05,33.874,104.391,25.54c0.665-0.155,1.347-0.233,2.024-0.233
	s1.359,0.078,2.024,0.233c35.362,8.308,73.396-0.997,104.391-25.54c35.751-28.315,57.096-72.404,57.096-117.93
	C419.511,319.004,394.532,283.983,370.373,250.114z M234.53,327.182c-0.634,0.138-1.269,0.203-1.895,0.203
	c-4.057,0-7.708-2.805-8.618-6.927c-0.125-0.514-4.872-20.107-21-26.153c-4.57-1.713-6.888-6.81-5.174-11.38
	c1.722-4.566,6.823-6.871,11.38-5.174c25.376,9.512,31.793,37.715,32.057,38.91C242.32,321.434,239.299,326.142,234.53,327.182z
	 M306.454,294.306c-16.261,6.094-20.952,25.963-21,26.161c-0.932,4.1-4.583,6.901-8.623,6.901c-0.634,0-1.277-0.069-1.92-0.216
	c-4.752-1.057-7.755-5.736-6.719-10.491c0.263-1.195,6.681-29.398,32.057-38.91c4.583-1.696,9.663,0.609,11.38,5.174
	C313.342,287.496,311.025,292.592,306.454,294.306z"/>
<g>
	<path style="fill:#314E55;" d="M384.766,239.847c-11.695-16.391-23.784-33.343-33.14-49.643
		c-7.708-13.439-13.914-26.554-19.912-39.242c-16.291-34.435-30.647-64.553-63.972-70.237c-0.087-0.354-0.046-0.712-0.18-1.062
		c-0.505-1.312-11.972-32.505,16.697-64.972c3.232-3.66,2.883-9.244-0.772-12.477c-3.668-3.232-9.244-2.883-12.477,0.772
		c-28.35,32.102-24.857,63.932-21.725,76.978c-45.52,2.89-60.289,35.278-80.271,79.43c-4.385,9.684-9.123,20.158-14.6,31.314
		c-7.773,15.843-19.213,33.718-31.327,52.642c-23.736,37.076-48.275,75.416-48.275,104.521c0,50.881,23.848,100.145,63.798,131.787
		C165.341,500.827,196.82,512,228.19,512c9.322,0,18.639-0.988,27.81-2.991c40.066,8.743,82.718-1.89,117.394-29.351
		c39.946-31.642,63.794-80.906,63.794-131.787C437.188,313.342,411.726,277.643,384.766,239.847z M362.415,465.801
		c-30.995,24.543-69.029,33.848-104.391,25.54c-0.665-0.155-1.347-0.233-2.024-0.233c-0.677,0-1.359,0.078-2.024,0.233
		c-35.341,8.334-73.392-0.993-104.391-25.54c-35.751-28.319-57.096-72.404-57.096-117.929c0-23.93,24.163-61.684,45.487-94.992
		c12.39-19.36,24.094-37.641,32.307-54.386c5.563-11.333,10.379-21.971,14.833-31.811c20.892-46.16,31.375-69.327,70.885-69.327
		c29.428,0,40.723,20.974,59.733,61.166c5.861,12.39,12.502,26.433,20.564,40.477c9.788,17.06,22.135,34.374,34.076,51.115
		c24.159,33.869,49.138,68.891,49.138,97.758C419.511,393.397,398.166,437.486,362.415,465.801z"/>
	<path style="fill:#314E55;" d="M300.248,277.751c-25.376,9.512-31.793,37.715-32.057,38.91c-1.036,4.756,1.968,9.434,6.719,10.491
		c0.643,0.147,1.286,0.216,1.92,0.216c4.039,0,7.691-2.801,8.623-6.901c0.047-0.198,4.738-20.068,21-26.161
		c4.57-1.713,6.888-6.81,5.174-11.38C309.911,278.359,304.832,276.055,300.248,277.751z"/>
	<path style="fill:#314E55;" d="M209.223,277.751c-4.557-1.696-9.658,0.609-11.38,5.174c-1.713,4.57,0.604,9.667,5.174,11.38
		c16.128,6.046,20.875,25.639,21,26.153c0.911,4.121,4.562,6.927,8.618,6.927c0.626,0,1.26-0.065,1.895-0.203
		c4.769-1.04,7.79-5.749,6.75-10.522C241.016,315.466,234.599,287.263,209.223,277.751z"/>
	<path style="fill:#314E55;" d="M176.903,100.844c2.589,0,5.127-0.259,7.583-0.811c9.054-2.037,21.116-8.916,27.158-30.123
		c7.656-26.899,4.76-46.397-8.61-57.963C171.159-15.614,92.48,18.471,83.611,22.454c-2.555,1.148-4.419,3.439-5.015,6.18
		c-0.595,2.741,0.143,5.602,1.99,7.708C86.702,43.316,138.325,100.844,176.903,100.844z M191.473,25.316
		c7.712,6.672,8.778,20.046,3.168,39.751c-4.428,15.558-11.652,17.185-14.03,17.72c-19.205,4.273-55.068-24.832-78.316-48.965
		C132.56,22.126,175.889,11.847,191.473,25.316z"/>
</g>
<g>
</g>
<g>
</g>
<g>
</g>
<g>
</g>
<g>
</g>
<g>
</g>
<g>
</g>
<g>
</g>
<g>
</g>
<g>
</g>
<g>
</g>
<g>
</g>
<g>
</g>
<g>
</g>
<g>
</g>
</svg>
