<?xml version="1.0" encoding="iso-8859-1"?>
<!-- Generator: Adobe Illustrator 19.0.0, SVG Export Plug-In . SVG Version: 6.00 Build 0)  -->
<svg version="1.1" id="Layer_1" xmlns="http://www.w3.org/2000/svg" xmlns:xlink="http://www.w3.org/1999/xlink" x="0px" y="0px"
	 viewBox="0 0 512 512" style="enable-background:new 0 0 512 512;" xml:space="preserve">
<g>
	<path style="fill:#DBCF56;" d="M178.963,292.261l-50.535-50.536c-5.758,14.48-9.081,30.148-9.56,46.541l8.952-8.953l32.045,32.045
		L178.963,292.261z"/>
	
		<rect x="178.396" y="310.793" transform="matrix(-0.7071 0.7071 -0.7071 -0.7071 556.9075 417.9172)" style="fill:#DBCF56;" width="27.009" height="27.009"/>
	<path style="fill:#DBCF56;" d="M178.963,356.352l-19.099-19.099l-32.957,32.957l-7.943-7.942
		c0.677,15.694,3.931,30.709,9.463,44.619L178.963,356.352z"/>
	
		<rect x="242.486" y="246.704" transform="matrix(-0.7071 0.7071 -0.7071 -0.7071 620.9987 263.1905)" style="fill:#DBCF56;" width="27.009" height="27.009"/>
	<path style="fill:#DBCF56;" d="M188.638,172.716c-8.213,4.648-15.864,10.139-22.919,16.318l58.235,58.235l19.099-19.099
		l-54.935-54.935L188.638,172.716z"/>
	
		<rect x="274.529" y="278.749" transform="matrix(-0.7071 0.7071 -0.7071 -0.7071 698.3582 295.2377)" style="fill:#DBCF56;" width="27.009" height="27.009"/>
	<path style="fill:#DBCF56;" d="M323.362,172.716l0.52,0.52l-54.935,54.935l19.098,19.098l58.235-58.235
		C339.226,182.855,331.575,177.364,323.362,172.716z"/>
	<path style="fill:#DBCF56;" d="M188.638,475.896l-0.52-0.52l54.935-54.935l-19.098-19.098l-58.235,58.235
		C172.774,465.757,180.425,471.248,188.638,475.896z"/>
	<polygon style="fill:#DBCF56;" points="146.918,324.306 118.663,296.052 118.663,352.56 	"/>
	
		<rect x="242.481" y="374.879" transform="matrix(-0.7071 0.7071 -0.7071 -0.7071 711.6231 482.0038)" style="fill:#DBCF56;" width="27.009" height="27.009"/>
</g>
<path style="fill:#5ECC66;" d="M245.861,93.833c1.672-1.556,3.889-2.45,6.232-2.45c2.343,0,4.56,0.894,6.232,2.45
	c5.284-32.805,33.655-57.93,67.752-57.93c5.526,0,10.953,0.653,16.21,1.931c-9.335-11.963-23.846-19.523-39.641-19.523
	c-17.516,0-33.498,8.955-42.761,23.958c-3.344,5.401-12.241,5.401-15.585,0c-9.263-15.003-25.245-23.958-42.761-23.958
	c-15.79,0-30.302,7.56-39.641,19.519c5.257-1.274,10.689-1.927,16.21-1.927C212.206,35.903,240.577,61.028,245.861,93.833z"/>
<g>
	
		<rect x="242.483" y="310.791" transform="matrix(-0.7071 0.7071 -0.7071 -0.7071 666.3109 372.5972)" style="fill:#DBCF56;" width="27.009" height="27.009"/>
	<path style="fill:#DBCF56;" d="M323.362,475.896c8.213-4.648,15.864-10.139,22.919-16.318l-58.235-58.235l-19.099,19.099
		l54.935,54.935L323.362,475.896z"/>
	<path style="fill:#DBCF56;" d="M393.036,362.269l-7.943,7.942l-32.957-32.957l-19.099,19.099l50.535,50.536
		C389.104,392.977,392.358,377.962,393.036,362.269z"/>
	<path style="fill:#DBCF56;" d="M211.008,388.397l-19.099-19.099l-55.058,55.058c4.566,7.967,9.91,15.408,15.922,22.275
		L211.008,388.397z"/>
	<path style="fill:#DBCF56;" d="M136.975,224.379l54.935,54.935l19.099-19.099l-58.234-58.234
		c-6.173,7.05-11.66,14.696-16.305,22.903L136.975,224.379z"/>
	<path style="fill:#DBCF56;" d="M256,215.224l50.539-50.539c-15.663-6.228-32.683-9.76-50.539-9.76s-34.876,3.532-50.539,9.761
		L256,215.224z"/>
	<path style="fill:#DBCF56;" d="M300.992,260.216l19.099,19.098l54.935-54.935l0.506,0.505
		c-4.645-8.207-10.132-15.853-16.305-22.903L300.992,260.216z"/>
	<path style="fill:#DBCF56;" d="M256,433.389l-50.539,50.539c15.663,6.229,32.683,9.761,50.539,9.761s34.876-3.531,50.539-9.761
		L256,433.389z"/>
	<path style="fill:#DBCF56;" d="M320.091,369.298l-19.099,19.099l58.234,58.234c6.012-6.867,11.356-14.308,15.922-22.275
		L320.091,369.298z"/>
	
		<rect x="306.571" y="310.794" transform="matrix(-0.7071 0.7071 -0.7071 -0.7071 775.7175 327.2849)" style="fill:#DBCF56;" width="27.009" height="27.009"/>
	
		<rect x="210.441" y="278.746" transform="matrix(-0.7071 0.7071 -0.7071 -0.7071 588.9515 340.55)" style="fill:#DBCF56;" width="27.009" height="27.009"/>
	
		<rect x="274.526" y="342.837" transform="matrix(-0.7071 0.7071 -0.7071 -0.7071 743.6703 404.6444)" style="fill:#DBCF56;" width="27.009" height="27.009"/>
	<polygon style="fill:#DBCF56;" points="365.083,324.306 393.337,352.56 393.337,296.052 	"/>
	
		<rect x="210.438" y="342.834" transform="matrix(-0.7071 0.7071 -0.7071 -0.7071 634.2637 449.9566)" style="fill:#DBCF56;" width="27.009" height="27.009"/>
	<path style="fill:#DBCF56;" d="M393.133,288.267c-0.479-16.394-3.802-32.061-9.56-46.541l-50.535,50.536l19.099,19.098
		l32.045-32.045L393.133,288.267z"/>
</g>
<g>
	<path style="fill:#314E55;" d="M256,136.613c-85.827,0-155.648,69.84-155.648,155.68v64.028C100.352,442.161,170.174,512,256,512
		s155.648-69.84,155.648-155.68v-64.028C411.649,206.452,341.827,136.613,256,136.613z M256,407.495l-19.099-19.099L256,369.298
		l19.099,19.099L256,407.495z M288.045,401.344l58.235,58.235c-7.055,6.178-14.706,11.669-22.919,16.318l0.52-0.52l-54.935-54.935
		L288.045,401.344z M243.053,420.442l-54.935,54.935l0.52,0.52c-8.213-4.648-15.864-10.139-22.919-16.318l58.235-58.235
		L243.053,420.442z M146.918,324.306l-28.254,28.254v-56.508L146.918,324.306z M118.867,288.267
		c0.479-16.394,3.802-32.061,9.56-46.541l50.535,50.536l-19.099,19.098l-40.9-40.9L118.867,288.267z M117.183,379.934l42.681-42.681
		l19.099,19.099l-50.535,50.536c-5.532-13.91-8.786-28.925-9.463-44.619L117.183,379.934z M172.811,324.306l19.099-19.099
		l19.099,19.099l-19.099,19.098L172.811,324.306z M256,241.117l19.099,19.099L256,279.314l-19.099-19.099L256,241.117z
		 M223.955,247.269l-58.235-58.235c7.055-6.178,14.706-11.669,22.919-16.318l-0.52,0.52l54.935,54.935L223.955,247.269z
		 M268.947,228.171l54.935-54.935l-0.52-0.52c8.213,4.648,15.864,10.139,22.919,16.318l-58.235,58.235L268.947,228.171z
		 M268.947,292.261l19.099-19.099l19.099,19.099l-19.099,19.098L268.947,292.261z M275.099,324.306L256,343.405l-19.099-19.099
		L256,305.208L275.099,324.306z M243.053,292.261l-19.099,19.098l-19.099-19.099l19.099-19.098L243.053,292.261z M223.955,337.253
		l19.099,19.099l-19.099,19.098l-19.099-19.099L223.955,337.253z M268.947,356.352l19.099-19.099l19.099,19.099l-19.099,19.098
		L268.947,356.352z M300.992,324.306l19.099-19.099l19.099,19.099l-19.099,19.098L300.992,324.306z M333.037,292.261l50.535-50.536
		c5.758,14.48,9.081,30.148,9.56,46.541l0.204-18.108l-41.201,41.201L333.037,292.261z M352.136,337.253l41.201,41.201
		l-0.301-16.186c-0.677,15.694-3.931,30.709-9.463,44.619l-50.535-50.536L352.136,337.253z M365.083,324.306l28.254-28.254v56.508
		L365.083,324.306z M375.531,224.885l-0.506-0.505l-54.935,54.935l-19.099-19.099l58.234-58.234
		C365.399,209.032,370.886,216.678,375.531,224.885z M306.539,164.685L256,215.224l-50.539-50.539
		c15.663-6.229,32.683-9.761,50.539-9.761S290.876,158.456,306.539,164.685z M152.774,201.982l58.234,58.234l-19.098,19.098
		l-54.935-54.935l-0.506,0.505C141.114,216.678,146.601,209.032,152.774,201.982z M136.852,424.356l55.058-55.058l19.099,19.099
		l-58.234,58.234C146.762,439.764,141.418,432.323,136.852,424.356z M205.461,483.928L256,433.389l50.539,50.539
		c-15.663,6.229-32.683,9.761-50.539,9.761S221.124,490.157,205.461,483.928z M359.226,446.631l-58.234-58.234l19.098-19.099
		l55.058,55.058C370.582,432.323,365.238,439.764,359.226,446.631z"/>
	<path style="fill:#314E55;" d="M138.401,63.965c3.179,2.083,7.301,1.971,10.372-0.25c8.584-6.214,18.727-9.5,29.336-9.5
		c27.749,0,50.321,22.737,50.321,50.688c0,3.626-0.385,7.256-1.14,10.783c-0.791,3.711,0.782,7.52,3.956,9.59
		c1.524,0.992,3.259,1.484,4.998,1.484c1.887,0,3.773-0.581,5.369-1.739c3.827-2.772,7.327-5.897,10.479-9.343
		c3.152,3.447,6.657,6.572,10.484,9.343c3.071,2.218,7.193,2.311,10.372,0.25c3.174-2.07,4.748-5.883,3.948-9.594
		c-0.756-3.518-1.14-7.144-1.14-10.774c0-27.95,22.572-50.688,50.321-50.688c10.609,0,20.753,3.286,29.336,9.5
		c3.067,2.213,7.189,2.32,10.372,0.255c3.174-2.074,4.743-5.888,3.948-9.594C362.968,22.867,334.754,0,302.646,0
		c-19.546,0-37.687,8.154-50.553,22.299C239.227,8.154,221.085,0,201.539,0c-32.103,0-60.317,22.867-67.086,54.376
		C133.658,58.082,135.227,61.895,138.401,63.965z M201.539,18.312c17.516,0,33.498,8.955,42.761,23.958
		c3.344,5.401,12.241,5.401,15.585,0c9.263-15.003,25.246-23.958,42.761-23.958c15.795,0,30.306,7.56,39.641,19.523
		c-5.257-1.279-10.685-1.931-16.21-1.931c-34.097,0-62.468,25.125-67.752,57.93c-1.672-1.556-3.889-2.45-6.232-2.45
		s-4.56,0.894-6.232,2.45c-5.284-32.805-33.655-57.93-67.752-57.93c-5.521,0-10.953,0.653-16.21,1.927
		C171.238,25.871,185.749,18.312,201.539,18.312z"/>
</g>
<g>
</g>
<g>
</g>
<g>
</g>
<g>
</g>
<g>
</g>
<g>
</g>
<g>
</g>
<g>
</g>
<g>
</g>
<g>
</g>
<g>
</g>
<g>
</g>
<g>
</g>
<g>
</g>
<g>
</g>
</svg>
