<?xml version="1.0" encoding="iso-8859-1"?>
<!-- Generator: Adobe Illustrator 19.0.0, SVG Export Plug-In . SVG Version: 6.00 Build 0)  -->
<svg version="1.1" id="Layer_1" xmlns="http://www.w3.org/2000/svg" xmlns:xlink="http://www.w3.org/1999/xlink" x="0px" y="0px"
	 viewBox="0 0 512 512" style="enable-background:new 0 0 512 512;" xml:space="preserve">
<path style="fill:#D8D8D8;" d="M256,416.158c21.314,0,39.144-15.19,43.246-35.31h-86.491
	C216.856,400.969,234.686,416.158,256,416.158z"/>
<g>
	<path style="fill:#73C9C9;" d="M211.862,363.193h88.276h17.655h171.095L409.44,204.296h-92.341
		c-1.743,15.481-7.25,34.641-18.202,59.164c-1.466,3.276-4.69,5.224-8.069,5.224c-1.198,0-2.423-0.241-3.595-0.767
		c-4.448-1.991-6.448-7.207-4.457-11.664c9.864-22.082,14.87-38.867,16.604-51.957h-31.211c1.051,12.857-0.263,27.637-5.773,45.379
		c-1.172,3.784-4.664,6.207-8.431,6.207c-0.862,0-1.75-0.129-2.621-0.397c-4.655-1.448-7.259-6.396-5.81-11.052
		c4.958-15.962,6.058-28.871,4.929-40.138h-18.559c-0.804,19.744-7.016,45.334-22.405,79.784c-1.466,3.276-4.69,5.224-8.069,5.224
		c-1.198,0-2.423-0.241-3.595-0.767c-4.448-1.991-6.448-7.207-4.457-11.664c14.423-32.282,20.346-55.362,21.105-72.578H102.56
		L23.112,363.192h171.095L211.862,363.193L211.862,363.193z M349.155,348.555l-7.896-15.793l51.103-25.552l7.896,15.793
		L349.155,348.555z M407.5,271.805l8.302,15.578l-81.785,43.612l-8.302-15.578L407.5,271.805z"/>
	<path style="fill:#73C9C9;" d="M256,433.813c-31.064,0-56.78-23.073-61.088-52.966H17.655v70.621h476.69v-70.621H317.088
		C312.78,410.74,287.064,433.813,256,433.813z"/>
</g>
<g>
	<path style="fill:#314E55;" d="M511.935,371.701c-0.033-0.925-0.22-1.833-0.547-2.717c-0.073-0.197-0.118-0.395-0.205-0.586
		c-0.048-0.106-0.061-0.222-0.114-0.326L422.793,191.52c-1.5-2.991-4.552-4.879-7.896-4.879h-97.532
		c-2.009-21.171-12.847-33.767-25.278-45.069c-14.285-12.983-22.897-20.819,10.362-65.216c2.931-3.905,2.138-9.431-1.767-12.354
		c-3.914-2.931-9.44-2.121-12.354,1.767c-39.819,53.138-28.483,70.345-8.121,88.862c8.375,7.612,17.263,15.836,19.367,32.009
		h-34.475c-3.038-11.342-7.642-21.187-12.039-30.5c-10.026-21.259-17.948-38.043-4.948-67.44c1.974-4.457-0.043-9.672-4.5-11.638
		c-4.431-1.974-9.664,0.043-11.638,4.5c-16.276,36.776-5.397,59.819,5.121,82.112c3.561,7.548,7.032,14.968,9.614,22.965h-15.657
		c-3.759-24.628-17.664-37.484-29.361-48.121c-18.086-16.44-29.009-26.371,12.319-81.526c2.931-3.905,2.138-9.431-1.767-12.354
		c-3.914-2.931-9.44-2.121-12.354,1.767c-47.414,63.276-34.776,82.724-10.078,105.181c9.574,8.705,19.701,18.047,23.332,35.052
		H97.103c-3.345,0-6.396,1.888-7.896,4.879L0.931,368.072c-0.053,0.105-0.066,0.221-0.115,0.328
		c-0.086,0.19-0.132,0.387-0.204,0.583c-0.327,0.884-0.515,1.792-0.548,2.717C0.06,371.812,0,371.907,0,372.02v88.276
		c0,4.879,3.948,8.828,8.828,8.828h494.345c4.879,0,8.828-3.948,8.828-8.828V372.02C512,371.907,511.94,371.813,511.935,371.701z
		 M102.56,204.296h111.923c-0.758,17.216-6.682,40.296-21.105,72.578c-1.991,4.457,0.009,9.672,4.457,11.664
		c1.172,0.526,2.396,0.767,3.595,0.767c3.379,0,6.603-1.948,8.069-5.224c15.388-34.451,21.601-60.04,22.405-79.784h18.559
		c1.129,11.267,0.029,24.176-4.929,40.138c-1.448,4.655,1.155,9.604,5.81,11.052c0.871,0.267,1.759,0.397,2.621,0.397
		c3.767,0,7.259-2.423,8.431-6.207c5.51-17.743,6.823-32.522,5.773-45.379h31.211c-1.734,13.09-6.74,29.875-16.604,51.957
		c-1.991,4.457,0.009,9.672,4.457,11.664c1.172,0.526,2.396,0.767,3.595,0.767c3.379,0,6.603-1.948,8.069-5.224
		c10.953-24.523,16.46-43.683,18.202-59.164h92.341l79.448,158.897H317.793h-17.655h-88.276h-17.655H23.112L102.56,204.296z
		 M299.246,380.848c-4.102,20.121-21.932,35.31-43.246,35.31s-39.144-15.19-43.246-35.31H299.246z M494.345,451.469H17.655v-70.621
		h177.257c4.308,29.892,30.024,52.966,61.088,52.966s56.78-23.073,61.088-52.966h177.257V451.469z"/>
	
		<rect x="324.415" y="292.579" transform="matrix(-0.8825 0.4703 -0.4703 -0.8825 839.7044 393.0262)" style="fill:#314E55;" width="92.685" height="17.651"/>
	
		<rect x="342.18" y="319.05" transform="matrix(-0.8944 0.4472 -0.4472 -0.8944 848.9858 455.3364)" style="fill:#314E55;" width="57.135" height="17.655"/>
</g>
<g>
</g>
<g>
</g>
<g>
</g>
<g>
</g>
<g>
</g>
<g>
</g>
<g>
</g>
<g>
</g>
<g>
</g>
<g>
</g>
<g>
</g>
<g>
</g>
<g>
</g>
<g>
</g>
<g>
</g>
</svg>
