<?xml version="1.0" encoding="iso-8859-1"?>
<!-- Generator: Adobe Illustrator 19.0.0, SVG Export Plug-In . SVG Version: 6.00 Build 0)  -->
<svg version="1.1" id="Layer_1" xmlns="http://www.w3.org/2000/svg" xmlns:xlink="http://www.w3.org/1999/xlink" x="0px" y="0px"
	 viewBox="0 0 512 512" style="enable-background:new 0 0 512 512;" xml:space="preserve">
<g>
	<path style="fill:#E65F58;" d="M212.999,209.258c-15.176,0-27.522,12.345-27.522,27.522s12.345,27.522,27.522,27.522
		c15.176,0,27.522-12.345,27.522-27.522S228.176,209.258,212.999,209.258z"/>
	<path style="fill:#E65F58;" d="M327.673,227.605c-17.703,0-32.109,14.406-32.109,32.109s14.406,32.109,32.109,32.109
		s32.109-14.406,32.109-32.109S345.375,227.605,327.673,227.605z"/>
</g>
<path style="fill:#E4AD40;" d="M391.438,246.271c-5.572-11.499-11.333-23.387-17.649-34.071
	c-16.646-28.171-34.899-32.073-58.009-37.009l-4.582-0.986c-18.957-4.134-25.672-16.708-33.443-31.271
	c-5.447-10.2-11.62-21.757-23.616-34.975c-21.085-23.229-44.051-23.007-52.302-22.016L38.539,461.79l88.24-38.339
	c2.831-1.232,6.096-0.959,8.686,0.739c2.585,1.698,4.143,4.582,4.143,7.673v20.484c0,7.602,6.173,13.783,13.761,13.783
	c7.588,0,13.761-6.182,13.761-13.783v-40.413c0-3.655,2.168-6.957,5.519-8.412l55.043-23.916c1.169-0.511,2.414-0.761,3.655-0.761
	c1.76,0,3.512,0.506,5.03,1.501c2.585,1.698,4.143,4.582,4.143,7.673v91.851c0,7.602,6.173,13.783,13.761,13.783
	s13.761-6.182,13.761-13.783v-111.78c0-3.655,2.168-6.957,5.519-8.412l147.401-64.047
	C409.983,284.4,401.212,266.433,391.438,246.271z M148.782,383.561c-20.234,0-36.695-16.462-36.695-36.695
	c0-20.234,16.462-36.695,36.695-36.695c20.234,0,36.695,16.462,36.695,36.695C185.478,367.099,169.016,383.561,148.782,383.561z
	 M212.999,282.649c-25.291,0-45.869-20.579-45.869-45.869s20.579-45.869,45.869-45.869s45.869,20.579,45.869,45.869
	S238.29,282.649,212.999,282.649z M327.673,310.17c-27.822,0-50.456-22.634-50.456-50.456c0-27.822,22.634-50.456,50.456-50.456
	s50.456,22.634,50.456,50.456C378.129,287.536,355.494,310.17,327.673,310.17z"/>
<circle style="fill:#E65F58;" cx="148.783" cy="346.864" r="18.348"/>
<path style="fill:#E4AD40;" d="M230.088,20.92l-20.18,46.447c14.642,0.473,37.189,5.546,57.811,28.256
	c13.532,14.908,20.565,28.081,26.218,38.666c7.467,13.989,10.908,19.75,21.17,21.99l4.502,0.968
	c24.207,5.174,49.238,10.522,69.973,45.618c6.701,11.333,12.632,23.571,18.366,35.405c10.256,21.161,20.862,42.994,31.871,49.166
	l39.544-17.183c-7.951-17.873-34.326-67.174-108.223-141.071C296.792,54.834,247.867,28.75,230.088,20.92z"/>
<g>
	<path style="fill:#314E55;" d="M499.952,272.552c-0.69-2.343-17.98-58.488-115.838-156.341
		C286.26,18.353,230.115,1.063,227.772,0.373c-4.466-1.304-9.151,0.905-10.997,5.147L12.437,475.82
		c-1.505,3.454-0.739,7.476,1.926,10.141c2.656,2.656,6.679,3.436,10.141,1.926l96.756-42.035v6.495
		c0,17.716,14.406,32.131,32.109,32.131s32.109-14.415,32.109-32.131V417.95l36.695-15.942v77.861
		c0,17.716,14.406,32.131,32.109,32.131s32.109-14.415,32.109-32.131V374.105l208.414-90.556
		C499.051,281.708,501.255,276.991,499.952,272.552z M273.561,359.677c-3.351,1.456-5.519,4.757-5.519,8.412v111.78
		c0,7.602-6.173,13.783-13.761,13.783s-13.761-6.182-13.761-13.783v-91.851c0-3.091-1.559-5.976-4.143-7.673
		c-1.519-0.994-3.27-1.501-5.03-1.501c-1.241,0-2.486,0.251-3.655,0.761l-55.043,23.916c-3.351,1.456-5.519,4.757-5.519,8.412
		v40.413c0,7.602-6.173,13.783-13.761,13.783s-13.761-6.182-13.761-13.783v-20.484c0-3.091-1.559-5.976-4.143-7.673
		c-2.589-1.698-5.855-1.971-8.686-0.739l-88.24,38.339L201.837,85.944c8.251-0.991,31.217-1.213,52.302,22.016
		c11.996,13.219,18.169,24.776,23.616,34.975c7.772,14.563,14.486,27.136,33.443,31.271l4.582,0.986
		c23.109,4.936,41.363,8.838,58.009,37.009c6.316,10.683,12.076,22.572,17.649,34.071c9.774,20.162,18.546,38.129,29.525,49.359
		L273.561,359.677z M439.82,287.437c-11.009-6.173-21.615-28.005-31.871-49.166c-5.734-11.835-11.664-24.072-18.366-35.405
		c-20.735-35.096-45.766-40.445-69.973-45.618l-4.502-0.968c-10.262-2.24-13.703-8-21.17-21.99
		c-5.653-10.585-12.686-23.759-26.218-38.666c-20.623-22.711-43.169-27.784-57.811-28.256l20.18-46.447
		c17.779,7.83,66.703,33.914,141.053,108.263c73.897,73.897,100.272,123.198,108.223,141.071L439.82,287.437z"/>
	<path style="fill:#314E55;" d="M212.999,190.91c-25.291,0-45.869,20.579-45.869,45.869s20.579,45.869,45.869,45.869
		s45.869-20.579,45.869-45.869S238.29,190.91,212.999,190.91z M212.999,264.301c-15.176,0-27.522-12.345-27.522-27.522
		s12.345-27.522,27.522-27.522c15.176,0,27.522,12.345,27.522,27.522S228.176,264.301,212.999,264.301z"/>
	<path style="fill:#314E55;" d="M148.782,310.17c-20.234,0-36.695,16.462-36.695,36.695c0,20.234,16.462,36.695,36.695,36.695
		c20.234,0,36.695-16.462,36.695-36.695C185.478,326.632,169.016,310.17,148.782,310.17z M148.782,365.214
		c-10.119,0-18.348-8.229-18.348-18.348c0-10.119,8.229-18.348,18.348-18.348c10.119,0,18.348,8.229,18.348,18.348
		C167.13,356.985,158.901,365.214,148.782,365.214z"/>
	<path style="fill:#314E55;" d="M327.673,209.258c-27.822,0-50.456,22.634-50.456,50.456s22.634,50.456,50.456,50.456
		s50.456-22.634,50.456-50.456C378.129,231.892,355.494,209.258,327.673,209.258z M327.673,291.823
		c-17.703,0-32.109-14.406-32.109-32.109s14.406-32.109,32.109-32.109s32.109,14.406,32.109,32.109S345.375,291.823,327.673,291.823
		z"/>
</g>
<g>
</g>
<g>
</g>
<g>
</g>
<g>
</g>
<g>
</g>
<g>
</g>
<g>
</g>
<g>
</g>
<g>
</g>
<g>
</g>
<g>
</g>
<g>
</g>
<g>
</g>
<g>
</g>
<g>
</g>
</svg>
