<?xml version="1.0" encoding="iso-8859-1"?>
<!-- Generator: Adobe Illustrator 19.0.0, SVG Export Plug-In . SVG Version: 6.00 Build 0)  -->
<svg version="1.1" id="Layer_1" xmlns="http://www.w3.org/2000/svg" xmlns:xlink="http://www.w3.org/1999/xlink" x="0px" y="0px"
	 viewBox="0 0 512 512" style="enable-background:new 0 0 512 512;" xml:space="preserve">
<path style="fill:#E4AD40;" d="M100.843,411.097c15.927,15.919,34.636,27.728,55.468,35.504l50.54-141.512L65.345,355.626
	C73.118,376.468,84.921,395.175,100.843,411.097z M109.905,372.196c2.37-4.42,7.857-6.116,12.286-3.768
	c2.598,1.295,11.603,4.589,19.692-6.5c2.978-4.071,8.683-4.973,12.772-2.009c4.08,2.982,4.978,8.696,2.005,12.777
	c-8.62,11.83-19.178,15.42-28.116,15.42c-6.107,0-11.455-1.67-14.924-3.536C109.173,382.186,107.513,376.642,109.905,372.196z"/>
<g>
	<path style="fill:#E25D56;" d="M333.582,372.303c5.178-5.178,8.031-12.062,8.031-19.393c0-7.33-2.853-14.214-8.031-19.393
		c-5.183-5.178-12.067-8.036-19.393-8.036c-7.33,0-14.214,2.857-19.397,8.036c-5.178,5.178-8.031,12.062-8.031,19.393
		c0,7.33,2.853,14.214,8.031,19.393C305.154,382.66,323.211,382.66,333.582,372.303z"/>
	<path style="fill:#E25D56;" d="M204.284,113.707c-10.692,10.696-10.692,28.098,0,38.794c10.696,10.696,28.093,10.687,38.79,0
		c10.692-10.696,10.692-28.098,0-38.794C232.368,103.002,214.971,103.01,204.284,113.707z"/>
</g>
<path style="fill:#E4AD40;" d="M87.914,424.025c-17.857-17.857-31.082-38.853-39.77-62.256l-25.292,9.033
	c6.125,13.589,20.964,41.794,48.727,69.562c27.763,27.759,55.964,42.598,69.557,48.723l9.029-25.283
	C126.768,455.117,105.775,441.878,87.914,424.025z"/>
<path style="fill:#E25D56;" d="M385.305,243.009c10.692-10.696,10.692-28.098,0-38.794c-10.696-10.679-28.098-10.687-38.794,0
	c-10.692,10.696-10.692,28.098,0,38.794C357.207,253.688,374.608,253.679,385.305,243.009z"/>
<g>
	<path style="fill:#E4AD40;" d="M217.913,434.711c60.964,12.992,123.122-5.201,167.391-49.471
		c71.294-71.294,71.294-187.311,0-258.605c-71.299-71.294-187.311-71.285-258.6,0c-43.78,43.789-62.26,107.145-49.497,167.401
		l201.558-72.554c3.335-1.205,7.053-0.366,9.562,2.134c2.504,2.5,3.339,6.232,2.138,9.562L217.913,434.711z M152.494,185.706
		c-2.875,0.375-12.187,2.679-12.687,16.393c-0.183,4.937-4.237,8.812-9.134,8.812c-0.112,0-0.223,0-0.339-0.009
		c-5.045-0.179-8.986-4.42-8.804-9.464c0.897-24.616,19.384-32.955,29.035-33.919c5.013-0.437,9.504,3.161,10.009,8.187
		C161.074,180.697,157.463,185.144,152.494,185.706z M256.002,165.43c-8.911,8.911-20.616,13.366-32.326,13.366
		c-11.705,0-23.411-4.455-32.321-13.366c-17.821-17.821-17.821-46.83,0-64.651c17.821-17.812,46.825-17.821,64.647,0
		S273.824,147.608,256.002,165.43z M393.992,340.223c-1.71,1.437-3.79,2.134-5.862,2.134c-2.612,0-5.21-1.116-7.018-3.277
		c-15.808-18.893-7.638-37.455-1.112-44.633c3.397-3.723,9.187-4,12.915-0.616c3.71,3.375,4.005,9.098,0.683,12.839
		c-1.884,2.205-7.268,10.152,1.54,20.678C398.38,331.223,397.867,336.981,393.992,340.223z M398.233,191.287
		c17.821,17.821,17.821,46.83,0,64.651c-8.911,8.911-20.62,13.366-32.326,13.366c-11.71,0-23.411-4.455-32.326-13.366
		c-17.821-17.821-17.821-46.83,0-64.651C351.408,173.465,380.407,173.465,398.233,191.287z M308.886,132.831
		c3.393-3.732,9.187-4.018,12.915-0.607c3.71,3.375,4.005,9.098,0.683,12.83c-1.888,2.214-7.263,10.152,1.54,20.67
		c3.241,3.875,2.728,9.634-1.147,12.875c-1.71,1.437-3.79,2.134-5.862,2.134c-2.612,0-5.21-1.116-7.018-3.277
		C294.189,158.564,302.359,140.001,308.886,132.831z M314.189,307.196c12.21,0,23.687,4.759,32.321,13.393
		c8.634,8.634,13.388,20.107,13.388,32.321c0,12.214-4.754,23.687-13.388,32.321s-20.111,13.393-32.321,13.393
		c-12.214,0-23.692-4.759-32.326-13.393s-13.388-20.107-13.388-32.321c0-12.214,4.754-23.687,13.388-32.321
		C290.497,311.955,301.975,307.196,314.189,307.196z"/>
	<path style="fill:#E4AD40;" d="M424.09,87.85c-92.678-92.669-243.48-92.678-336.175,0C28.969,146.805,5.371,232.188,25.147,312.776
		l34.748-12.508c-15.068-66.996,5.13-137.811,53.881-186.561c78.428-78.428,206.029-78.428,284.457,0
		c78.423,78.428,78.423,206.034,0,284.462c-38.402,38.401-89.049,59.026-141.62,59.026c-14.912,0-29.966-1.738-44.95-5.124
		l-12.5,34.722c80.584,19.776,165.972-3.821,224.927-62.767c44.897-44.901,69.624-104.588,69.624-168.088
		S468.987,132.751,424.09,87.85z"/>
</g>
<g>
	<path style="fill:#314E55;" d="M437.018,74.921c-99.812-99.821-262.221-99.821-362.032,0
		C9.022,140.885-15.839,237.59,10.103,327.285c0.701,2.429,2.375,4.455,4.625,5.607c2.25,1.143,4.875,1.33,7.254,0.455
		l244.699-88.089l-88.093,244.694c-0.857,2.375-0.688,5,0.46,7.25s3.174,3.929,5.603,4.634c23.5,6.795,47.464,10.107,71.245,10.107
		c66.999,0,132.441-26.303,181.123-74.99C485.371,388.606,512,324.321,512,255.938S485.371,123.269,437.018,74.921z
		 M288.328,223.617c-2.509-2.5-6.228-3.339-9.562-2.134L77.207,294.037c-12.763-60.256,5.717-123.613,49.497-167.401
		c71.289-71.285,187.302-71.294,258.6,0c71.294,71.294,71.294,187.311,0,258.605c-44.27,44.27-106.428,62.463-167.391,49.471
		l72.553-201.532C291.667,229.849,290.832,226.116,288.328,223.617z M424.09,424.025c-58.955,58.946-144.342,82.544-224.927,62.767
		l12.5-34.722c14.984,3.386,30.039,5.124,44.95,5.124c52.571,0,103.218-20.625,141.619-59.026
		c78.423-78.428,78.423-206.034,0-284.462c-78.428-78.428-206.029-78.428-284.457,0c-48.751,48.751-68.949,119.566-53.881,186.561
		l-34.748,12.508C5.371,232.188,28.969,146.805,87.914,87.85c92.696-92.678,243.498-92.669,336.175,0
		c44.897,44.901,69.624,104.588,69.624,168.088S468.987,379.124,424.09,424.025z"/>
	<path style="fill:#314E55;" d="M228.418,283.527c-2.5-2.5-6.219-3.366-9.54-2.143L7.687,356.803
		c-4.701,1.679-7.183,6.813-5.585,11.545c0.594,1.75,15.031,43.419,56.549,84.946c41.522,41.518,83.187,55.946,84.941,56.544
		c0.973,0.33,1.96,0.482,2.933,0.482c3.759,0,7.277-2.33,8.612-6.071l75.428-211.186
		C231.752,289.741,230.918,286.027,228.418,283.527z M141.137,489.087c-13.594-6.125-41.794-20.964-69.557-48.723
		c-27.763-27.768-42.602-55.973-48.727-69.562l25.292-9.033c8.688,23.403,21.913,44.399,39.77,62.256
		c17.861,17.852,38.853,31.092,62.252,39.779L141.137,489.087z M156.311,446.601c-20.832-7.776-39.54-19.585-55.468-35.504
		c-15.922-15.922-27.725-34.628-35.498-55.471l141.505-50.538L156.311,446.601z"/>
	<path style="fill:#314E55;" d="M191.355,100.778c-17.821,17.821-17.821,46.83,0,64.651c8.911,8.911,20.616,13.366,32.321,13.366
		c11.71,0,23.415-4.455,32.326-13.366c17.821-17.821,17.821-46.83,0-64.651S209.177,82.966,191.355,100.778z M243.074,152.501
		c-10.696,10.687-28.093,10.696-38.79,0c-10.692-10.696-10.692-28.098,0-38.794c10.687-10.696,28.085-10.705,38.79,0
		C253.766,124.403,253.766,141.805,243.074,152.501z"/>
	<path style="fill:#314E55;" d="M268.475,352.91c0,12.214,4.754,23.687,13.388,32.321s20.111,13.393,32.326,13.393
		c12.21,0,23.687-4.759,32.321-13.393c8.634-8.634,13.388-20.107,13.388-32.321c0-12.214-4.754-23.687-13.388-32.321
		c-8.634-8.634-20.111-13.393-32.321-13.393c-12.214,0-23.692,4.759-32.326,13.393C273.229,329.223,268.475,340.696,268.475,352.91z
		 M294.792,333.517c5.183-5.178,12.067-8.036,19.397-8.036c7.326,0,14.21,2.857,19.393,8.036c5.178,5.178,8.031,12.062,8.031,19.393
		c0,7.33-2.853,14.214-8.031,19.393c-10.37,10.357-28.428,10.357-38.79,0c-5.178-5.178-8.031-12.062-8.031-19.393
		C286.761,345.58,289.614,338.696,294.792,333.517z"/>
	<path style="fill:#314E55;" d="M333.582,255.938c8.915,8.911,20.616,13.366,32.326,13.366c11.705,0,23.415-4.455,32.326-13.366
		c17.821-17.821,17.821-46.83,0-64.651c-17.826-17.821-46.825-17.821-64.651,0C315.761,209.108,315.761,238.116,333.582,255.938z
		 M346.51,204.215c10.696-10.687,28.098-10.679,38.794,0c10.692,10.696,10.692,28.098,0,38.794
		c-10.696,10.67-28.098,10.679-38.794,0C335.818,232.313,335.818,214.911,346.51,204.215z"/>
	<path style="fill:#314E55;" d="M150.566,167.519c-9.652,0.964-28.138,9.303-29.035,33.919c-0.183,5.045,3.759,9.286,8.804,9.464
		c0.116,0.009,0.227,0.009,0.339,0.009c4.897,0,8.951-3.875,9.134-8.813c0.5-13.714,9.812-16.018,12.687-16.393
		c4.969-0.563,8.58-5.009,8.08-10C160.07,170.679,155.579,167.081,150.566,167.519z"/>
	<path style="fill:#314E55;" d="M317.015,180.733c2.071,0,4.152-0.696,5.862-2.134c3.875-3.241,4.388-9,1.147-12.875
		c-8.804-10.518-3.429-18.455-1.54-20.67c3.321-3.732,3.027-9.455-0.683-12.83c-3.728-3.411-9.522-3.125-12.915,0.607
		c-6.527,7.17-14.696,25.732,1.112,44.625C311.805,179.617,314.404,180.733,317.015,180.733z"/>
	<path style="fill:#314E55;" d="M393.599,306.669c3.321-3.741,3.027-9.464-0.683-12.839c-3.728-3.384-9.518-3.107-12.915,0.616
		c-6.527,7.178-14.696,25.741,1.112,44.633c1.808,2.161,4.406,3.277,7.018,3.277c2.071,0,4.152-0.696,5.862-2.134
		c3.875-3.241,4.388-9,1.147-12.875C386.331,316.821,391.715,308.875,393.599,306.669z"/>
	<path style="fill:#314E55;" d="M113.619,384.579c3.469,1.866,8.817,3.536,14.924,3.536c8.938,0,19.495-3.589,28.116-15.42
		c2.973-4.08,2.076-9.795-2.005-12.777c-4.089-2.965-9.795-2.063-12.772,2.009c-8.089,11.089-17.094,7.795-19.692,6.5
		c-4.429-2.348-9.915-0.652-12.286,3.768C107.513,376.642,109.173,382.186,113.619,384.579z"/>
</g>
<g>
</g>
<g>
</g>
<g>
</g>
<g>
</g>
<g>
</g>
<g>
</g>
<g>
</g>
<g>
</g>
<g>
</g>
<g>
</g>
<g>
</g>
<g>
</g>
<g>
</g>
<g>
</g>
<g>
</g>
</svg>
