<?xml version="1.0" encoding="iso-8859-1"?>
<!-- Generator: Adobe Illustrator 19.0.0, SVG Export Plug-In . SVG Version: 6.00 Build 0)  -->
<svg version="1.1" id="Layer_1" xmlns="http://www.w3.org/2000/svg" xmlns:xlink="http://www.w3.org/1999/xlink" x="0px" y="0px"
	 viewBox="0 0 512 512" style="enable-background:new 0 0 512 512;" xml:space="preserve">
<path style="fill:#E25D56;" d="M249.013,190.097c-38.421-10.275-78.457-5.001-112.848,14.858
	C73.318,241.238,29.96,404.434,20.366,443.522c38.657,11.232,201.644,55.294,264.508,19.002
	c71.015-40.999,95.431-132.127,54.432-203.142C319.446,224.982,287.379,200.376,249.013,190.097z M288.958,246.589
	c-3.159,4.034-8.995,4.765-13.043,1.602c-21.529-16.819-48.296-24.262-75.408-20.912c-27.103,3.326-51.291,17.009-68.101,38.53
	c-1.834,2.346-4.565,3.572-7.334,3.572c-1.997,0-4.012-0.644-5.709-1.97c-4.048-3.163-4.765-9.004-1.607-13.047
	c19.869-25.432,48.451-41.602,80.481-45.537c32.04-3.939,63.681,4.842,89.113,24.715C291.4,236.705,292.117,242.546,288.958,246.589
	z"/>
<path style="fill:#5ECC66;" d="M422.547,210.773c-2.777-6.562-2.532-13.71,0.699-20.676c7.77-16.733,24.87-27.547,39.946-37.087
	c15.884-10.043,22.601-15.171,20.386-19.002c-4.221-7.329-16.928-3.472-33.12,2.333c-10.293,3.699-19.142,6.944-26.576,5.292
	c-4.838-1.048-7.406-3.835-8.704-5.995c-3.467-5.732-1.715-12.081,0.508-20.113c4.066-14.722,10.22-36.973-7.379-67.452
	c-1.997-3.463-9.013-14.513-14.477-12.085c-14.105,6.236-27.438,57.563-9.322,114.292c9.875,30.96,8.468,54.722-4.202,70.638
	c-8.632,10.847-20.676,15.612-30.624,17.658l8.287,11.427c8.732-0.726,29.326-2.659,65.714-7.202
	c16.292-2.033,30.679-2.46,42.46-2.396C447.816,233.705,428.591,225.055,422.547,210.773z"/>
<g>
	<path style="fill:#314E55;" d="M510.09,241.012c-3.413-5.909-11.328-8.872-27.484-14.5c-14.568-5.069-38.947-13.56-42.941-22.986
		c-0.508-1.203-0.853-2.809,0.445-5.6c5.464-11.777,20.104-21.035,33.02-29.204c16.955-10.724,38.058-24.071,26.549-44.008
		c-12.362-21.384-38.321-12.04-55.512-5.868c-3.322,1.194-7.67,2.755-11.146,3.731c0.191-0.708,0.39-1.425,0.581-2.097
		c4.293-15.544,12.29-44.48-9.194-81.702c-15.212-26.34-31.704-22.614-38.094-19.791c-25.623,11.327-39.737,73.615-19.523,136.947
		c7.751,24.271,7.416,42.71-0.962,53.325c-9.292,11.754-26.619,12.271-31.354,12.19c-21.387-23.698-49.09-40.848-80.65-49.304
		c-43.177-11.573-88.251-5.637-126.953,16.71C48.657,234.009,2.158,439.184,0.225,447.897c-1.053,4.711,1.679,9.44,6.281,10.887
		c6.263,1.965,116.633,36.206,205.701,36.206c32.013,0,61.285-4.429,81.961-16.365c74.004-42.728,102.901-133.815,70.121-210.51
		c10.665-0.963,30.258-2.948,61.697-6.873c23.908-2.973,43.703-2.301,56.792-1.856c15.648,0.545,23.544,0.812,27.674-6.077
		C511.487,251.59,513.52,246.943,510.09,241.012z M284.874,462.524c-62.864,36.292-225.851-7.77-264.508-19.002
		c9.594-39.088,52.953-202.284,115.798-238.567c34.391-19.859,74.427-25.133,112.848-14.858
		c38.366,10.279,70.434,34.886,90.293,69.286C380.304,330.397,355.889,421.525,284.874,462.524z M423.681,242.8
		c-36.388,4.543-56.982,6.476-65.714,7.202l-8.287-11.427c9.948-2.047,21.992-6.812,30.624-17.658
		c12.671-15.916,14.078-39.678,4.202-70.638c-18.117-56.728-4.783-108.056,9.322-114.292c5.464-2.428,12.48,8.623,14.477,12.085
		c17.599,30.479,11.446,52.73,7.379,67.452c-2.224,8.033-3.975,14.382-0.508,20.113c1.298,2.16,3.867,4.947,8.704,5.995
		c7.434,1.652,16.283-1.593,26.576-5.292c16.193-5.804,28.9-9.662,33.12-2.333c2.215,3.83-4.502,8.959-20.386,19.002
		c-15.076,9.54-32.176,20.354-39.946,37.087c-3.231,6.966-3.476,14.114-0.699,20.676c6.045,14.282,25.269,22.932,43.594,29.63
		C454.36,240.34,439.974,240.766,423.681,242.8z"/>
	<path style="fill:#314E55;" d="M198.238,208.826c-32.031,3.935-60.613,20.104-80.481,45.537c-3.159,4.044-2.442,9.884,1.607,13.047
		c1.697,1.325,3.712,1.97,5.709,1.97c2.768,0,5.5-1.225,7.334-3.572c16.81-21.52,40.999-35.203,68.101-38.53
		c27.112-3.349,53.878,4.093,75.408,20.912c4.048,3.163,9.884,2.433,13.043-1.602c3.159-4.044,2.442-9.884-1.607-13.047
		C261.919,213.668,230.279,204.887,198.238,208.826z"/>
</g>
<g>
</g>
<g>
</g>
<g>
</g>
<g>
</g>
<g>
</g>
<g>
</g>
<g>
</g>
<g>
</g>
<g>
</g>
<g>
</g>
<g>
</g>
<g>
</g>
<g>
</g>
<g>
</g>
<g>
</g>
</svg>
