<?xml version="1.0" encoding="iso-8859-1"?>
<!-- Generator: Adobe Illustrator 19.0.0, SVG Export Plug-In . SVG Version: 6.00 Build 0)  -->
<svg version="1.1" id="Layer_1" xmlns="http://www.w3.org/2000/svg" xmlns:xlink="http://www.w3.org/1999/xlink" x="0px" y="0px"
	 viewBox="0 0 512 512" style="enable-background:new 0 0 512 512;" xml:space="preserve">
<g>
	<path style="fill:#EAEAEA;" d="M256.775,161.297c-0.899-0.064-1.766-0.269-2.678-0.269c-2.904,0-5.637-1.371-7.387-3.689
		c-7.053-9.398-17.823-14.783-29.557-14.783c-15.333,0-28.854,9.227-34.428,23.514c-1.723,4.411-6.467,6.819-11.067,5.538
		c-11.978-3.328-25.336-0.226-34.617,8.118c-2.507,2.273-6.043,2.977-9.236,1.849c-12.068-4.221-25.823-1.822-35.727,6.341
		c-1.082,0.893-2.345,1.524-3.707,1.849c-9.94,2.399-18.31,8.839-23.289,17.444h169.527L256.775,161.297z"/>
	<path style="fill:#EAEAEA;" d="M444.79,207.208c-8.298-7.315-20.177-10.733-31.361-8.587c-3.509,0.668-7.134-0.776-9.227-3.689
		c-7.54-10.499-20.421-16.335-33.084-15.306c-3.932,0.262-7.64-1.921-9.209-5.538c-2.078-4.809-5.132-8.975-8.821-12.398
		l-51.333,45.518L444.79,207.208L444.79,207.208z"/>
	<path style="fill:#EAEAEA;" d="M275.484,207.208l-0.696-0.785l60.651-53.781c-2.431-0.502-4.907-0.851-7.454-0.851
		c-13.376,0-25.742,7.261-32.272,18.95c-1.434,2.571-4.005,4.302-6.918,4.663c-2.868,0.352-5.836-0.677-7.856-2.814
		c-1.975-2.089-4.182-3.843-6.508-5.389l-19.315,40.007L275.484,207.208L275.484,207.208z"/>
</g>
<g>
	<path style="fill:#73C9C9;" d="M74.644,465.819c5.592,9.614,11.563,18.895,18.001,27.708h322.903
		c6.439-8.814,12.409-18.094,18.001-27.708H74.644z"/>
	<path style="fill:#73C9C9;" d="M462.685,225.68H51.822H24.691c-0.992,12.221-1.497,24.614-1.497,36.944
		c0,67.273,14.519,130.988,41.459,184.722h378.888C470.48,393.613,485,329.898,485,262.625c0-12.33-0.505-24.723-1.497-36.944
		H462.685z"/>
</g>
<path style="fill:#314E55;" d="M491.936,207.208h-23.759c-10.662-18.312-31.19-29.398-52.529-27.51
	c-10.057-11.329-24.425-18.13-39.641-18.644c-2.497-4.332-5.548-8.244-9.024-11.686L507.278,24.966L495.02,11.139L351.312,138.568
	c-7.18-3.338-15.081-5.249-23.326-5.249c-16.307,0-31.605,7.189-42.022,19.284c-1.111-0.785-2.303-1.418-3.462-2.115L351.283,8.028
	L334.651,0l-69.386,143.711c-2.182-0.443-4.391-0.795-6.641-0.975c-10.517-11.906-25.39-18.653-41.472-18.653
	c-20.348,0-38.559,10.833-48.282,28.168c-14.152-1.84-28.665,1.948-40.056,10.373c-16.01-3.933-33.652-0.307-46.821,9.723
	c-17.351,4.902-31.22,18.055-37.174,34.861H16.258c-4.744,0-8.713,3.59-9.191,8.316c-1.551,15.505-2.345,31.352-2.345,47.1
	c0,93.525,26.96,180.781,75.9,245.695c1.75,2.318,4.483,3.68,7.378,3.68h332.193c2.895,0,5.628-1.362,7.378-3.68
	c48.941-64.914,75.9-152.17,75.9-245.695c0-15.748-0.794-31.596-2.345-47.1C500.649,210.798,496.68,207.208,491.936,207.208z
	 M361.909,174.088c1.569,3.617,5.277,5.8,9.209,5.538c12.664-1.028,25.544,4.807,33.084,15.306c2.092,2.913,5.719,4.356,9.227,3.689
	c11.184-2.147,23.063,1.272,31.361,8.587H301.754l51.333-45.518C356.777,165.113,359.831,169.279,361.909,174.088z M280.939,172.591
	c2.02,2.138,4.988,3.166,7.856,2.814c2.913-0.361,5.484-2.092,6.918-4.663c6.53-11.689,18.896-18.95,32.272-18.95
	c2.547,0,5.023,0.35,7.454,0.851l-60.651,53.781l0.696,0.785h-20.367l19.315-40.007
	C276.757,168.748,278.964,170.502,280.939,172.591z M88.37,189.764c1.362-0.325,2.625-0.956,3.707-1.849
	c9.904-8.163,23.659-10.562,35.727-6.341c3.193,1.127,6.729,0.424,9.236-1.849c9.281-8.343,22.639-11.446,34.617-8.118
	c4.6,1.281,9.344-1.127,11.067-5.538c5.574-14.287,19.094-23.514,34.428-23.514c11.734,0,22.504,5.385,29.557,14.783
	c1.75,2.318,4.483,3.689,7.387,3.689c0.912,0,1.779,0.205,2.678,0.269l-22.166,45.911H65.081
	C70.06,198.603,78.43,192.164,88.37,189.764z M415.549,493.528H92.645c-6.439-8.814-12.409-18.094-18.001-27.708H433.55
	C427.958,475.434,421.987,484.714,415.549,493.528z M443.541,447.347H64.653c-26.939-53.734-41.459-117.449-41.459-184.722
	c0-12.33,0.505-24.723,1.497-36.944h27.131h410.863h20.817c0.992,12.222,1.497,24.615,1.497,36.944
	C485,329.898,470.48,393.613,443.541,447.347z"/>
<g>
</g>
<g>
</g>
<g>
</g>
<g>
</g>
<g>
</g>
<g>
</g>
<g>
</g>
<g>
</g>
<g>
</g>
<g>
</g>
<g>
</g>
<g>
</g>
<g>
</g>
<g>
</g>
<g>
</g>
</svg>
