<?xml version="1.0" encoding="iso-8859-1"?>
<!-- Generator: Adobe Illustrator 19.0.0, SVG Export Plug-In . SVG Version: 6.00 Build 0)  -->
<svg version="1.1" id="Layer_1" xmlns="http://www.w3.org/2000/svg" xmlns:xlink="http://www.w3.org/1999/xlink" x="0px" y="0px"
	 viewBox="0 0 512 512" style="enable-background:new 0 0 512 512;" xml:space="preserve">
<path style="fill:#E4AD40;" d="M35.93,66.197c-9.908,0-17.965,8.061-17.965,17.965s8.057,17.965,17.965,17.965
	s17.965-8.061,17.965-17.965S45.838,66.197,35.93,66.197z"/>
<path style="fill:#E9E7D1;" d="M461.079,408.487c-12.167-25.097-24.741-51.044-37.439-84.675
	c-10.355-27.439-21.833-26.009-56.601-17.412c-6.219,1.544-12.838,3.176-19.877,4.64c-30.447,6.368-104.456,0.254-163.921-4.658
	c-27.259-2.246-50.803-4.184-62.25-4.184c-14.825,0-28.588,6.509-37.763,17.851c-9.386,11.605-12.746,26.447-9.461,41.79
	c5.539,25.877-15.496,45.219-32.395,60.772c-5.517,5.07-18.434,16.947-16.842,19.649c7.934,13.474,64.618,21.947,136.324,13.123
	c14.136-1.746,29.588-2.439,45.706-2.439c34.697,0,72.518,3.219,107.184,6.175c28.11,2.386,54.662,4.649,74.351,4.649
	c43.298,0,76.294-7.921,84.061-20.184c1.399-2.211,2.882-5.939-0.36-12.789C468.241,423.259,464.667,415.882,461.079,408.487z"/>
<g>
	<path style="fill:#E4AD40;" d="M431.14,48.232H80.86c-4.961,0-9,4.026-9,8.982v53.895c0,4.956,4.039,8.982,9,8.982H431.14
		c4.961,0,9-4.026,9-8.982V57.215C440.14,52.259,436.101,48.232,431.14,48.232z"/>
	<path style="fill:#E4AD40;" d="M476.07,66.197c-9.908,0-17.965,8.061-17.965,17.965s8.057,17.965,17.965,17.965
		c9.908,0,17.965-8.061,17.965-17.965S485.978,66.197,476.07,66.197z"/>
</g>
<g>
	<path style="fill:#314E55;" d="M476.07,48.232c-6.728,0-12.957,1.974-18.347,5.205c-1.858-13.061-13.009-23.17-26.583-23.17H80.86
		c-13.574,0-24.724,10.109-26.583,23.17c-5.39-3.231-11.619-5.205-18.347-5.205C16.118,48.232,0,64.347,0,84.162
		s16.118,35.93,35.93,35.93c6.728,0,12.957-1.974,18.347-5.205c1.858,13.061,13.009,23.17,26.583,23.17H431.14
		c13.574,0,24.724-10.109,26.583-23.17c5.39,3.231,11.619,5.205,18.347,5.205c19.811,0,35.93-16.114,35.93-35.93
		S495.882,48.232,476.07,48.232z M35.93,102.127c-9.908,0-17.965-8.061-17.965-17.965s8.057-17.965,17.965-17.965
		s17.965,8.061,17.965,17.965S45.838,102.127,35.93,102.127z M440.14,111.11c0,4.956-4.039,8.982-9,8.982H80.86
		c-4.961,0-9-4.026-9-8.982V57.215c0-4.956,4.039-8.982,9-8.982H431.14c4.961,0,9,4.026,9,8.982V111.11z M476.07,102.127
		c-9.908,0-17.965-8.061-17.965-17.965s8.057-17.965,17.965-17.965c9.908,0,17.965,8.061,17.965,17.965
		S485.978,102.127,476.07,102.127z"/>
	<path style="fill:#314E55;" d="M477.241,400.645c-11.987-24.728-24.386-50.298-36.794-83.184
		c-16.478-43.667-46.224-36.307-77.728-28.5c-6.013,1.491-12.412,3.079-19.224,4.5c-27.899,5.807-103.548-0.421-158.781-4.983
		c-27.654-2.281-51.535-4.246-63.724-4.246c-20.276,0-39.132,8.939-51.732,24.526c-12.675,15.667-17.434,36.386-13.061,56.833
		c3.395,15.842-12.746,30.693-26.987,43.789c-14.316,13.167-29.118,26.781-20.162,42c15.478,26.281,88.487,29.886,154,21.825
		c42.715-5.254,99.272-0.447,149.171,3.807c28.504,2.43,55.425,4.719,75.877,4.719c30.311,0,83.513-3.71,99.237-28.535
		c3.899-6.158,7.189-16.368,0.711-30.088C484.456,415.531,480.855,408.101,477.241,400.645z M472.158,443.583
		c-7.768,12.263-40.763,20.184-84.061,20.184c-19.689,0-46.241-2.263-74.351-4.649c-34.667-2.956-72.487-6.175-107.184-6.175
		c-16.118,0-31.57,0.693-45.706,2.439c-71.706,8.825-128.39,0.351-136.324-13.123c-1.592-2.702,11.325-14.579,16.842-19.649
		c16.899-15.553,37.934-34.895,32.395-60.772c-3.285-15.342,0.075-30.184,9.461-41.79c9.175-11.342,22.938-17.851,37.763-17.851
		c11.447,0,34.991,1.939,62.25,4.184c59.465,4.912,133.474,11.026,163.921,4.658c7.04-1.465,13.658-3.096,19.877-4.64
		c34.767-8.596,46.246-10.026,56.601,17.412c12.697,33.632,25.272,59.579,37.439,84.675c3.588,7.395,7.162,14.772,10.719,22.307
		C475.039,437.645,473.557,441.373,472.158,443.583z"/>
	<rect x="152.702" y="173.987" style="fill:#314E55;" width="17.965" height="35.93"/>
	<rect x="242.526" y="156.022" style="fill:#314E55;" width="17.965" height="35.93"/>
	<rect x="206.596" y="227.882" style="fill:#314E55;" width="17.965" height="35.93"/>
	<rect x="305.404" y="200.934" style="fill:#314E55;" width="17.965" height="35.93"/>
	<rect x="395.228" y="156.022" style="fill:#314E55;" width="17.965" height="35.93"/>
	<rect x="377.263" y="227.882" style="fill:#314E55;" width="17.965" height="35.93"/>
</g>
<g>
</g>
<g>
</g>
<g>
</g>
<g>
</g>
<g>
</g>
<g>
</g>
<g>
</g>
<g>
</g>
<g>
</g>
<g>
</g>
<g>
</g>
<g>
</g>
<g>
</g>
<g>
</g>
<g>
</g>
</svg>
