<?xml version="1.0" encoding="iso-8859-1"?>
<!-- Generator: Adobe Illustrator 19.0.0, SVG Export Plug-In . SVG Version: 6.00 Build 0)  -->
<svg version="1.1" id="Layer_1" xmlns="http://www.w3.org/2000/svg" xmlns:xlink="http://www.w3.org/1999/xlink" x="0px" y="0px"
	 viewBox="0 0 512 512" style="enable-background:new 0 0 512 512;" xml:space="preserve">
<path style="fill:#F28544;" d="M191.751,331.691c-49.234,0-90.829,23.106-90.829,50.461s41.596,50.461,90.829,50.461
	s90.829-23.106,90.829-50.461S240.985,331.691,191.751,331.691z M161.474,392.244H141.29V372.06h20.184V392.244z M191.751,341.783
	h20.184v20.184h-20.184V341.783z M232.119,412.428h-20.184v-20.184h20.184V412.428z"/>
<path style="fill:#D8D8D8;" d="M322.944,79.387H174.642c28.606,20.101,47.385,53.288,47.385,90.829s-18.779,70.729-47.385,90.829
	h148.302c50.086,0,90.834-40.748,90.834-90.829S373.03,79.387,322.944,79.387z"/>
<path style="fill:#F28544;" d="M201.843,170.217c0-50.081-40.748-90.829-90.829-90.829s-90.829,40.748-90.829,90.829
	s40.748,90.829,90.829,90.829S201.843,220.298,201.843,170.217z M141.29,230.77h-20.184v-20.184h20.184V230.77z M151.382,170.217
	h-20.184v-20.184h20.184V170.217z M111.014,109.664h20.184v20.184h-20.184V109.664z M70.645,220.678H50.461v-20.184h20.184V220.678z
	 M80.737,139.94H60.553v-20.184h20.184V139.94z M90.829,170.217h20.184v20.184H90.829V170.217z"/>
<path style="fill:#D8D8D8;" d="M477.514,113.227c-11.25,7.963-27.423,19.913-42.788,31.558l1.242,19.844l48.731,7.608
	c-1.533-3.573-3.306-7.811-5.347-12.827C473.375,144.71,475.366,126.763,477.514,113.227z"/>
<g>
	<path style="fill:#314E55;" d="M191.751,311.507c-62.253,0-111.014,31.03-111.014,70.645s48.761,70.645,111.014,70.645
		s111.014-31.03,111.014-70.645S254.004,311.507,191.751,311.507z M191.751,432.613c-49.234,0-90.829-23.106-90.829-50.461
		s41.596-50.461,90.829-50.461s90.829,23.106,90.829,50.461S240.985,432.613,191.751,432.613z"/>
	<path style="fill:#314E55;" d="M510.471,179.688c-0.128-0.212-3.292-5.426-12.423-27.877c-4.647-11.432-1.7-28.976,0.251-40.581
		c1.981-11.778,3.292-19.554-3.119-24.447c-3.444-2.617-8.022-3.006-12.27-1.055c-8.116,3.765-41.87,28.984-57.82,41.036
		c-16.944-39.677-56.343-67.562-102.146-67.562h-211.93C49.8,59.203,0,109.004,0,170.217S49.8,281.23,111.014,281.23h211.93
		c56.339,0,102.9-42.213,109.981-96.649l67.504,10.54c0.508,0.079,1.01,0.113,1.508,0.113c3.351,0,6.505-1.73,8.402-4.583
		C512.521,187.37,512.541,183.039,510.471,179.688z M20.184,170.217c0-50.081,40.748-90.829,90.829-90.829
		s90.829,40.748,90.829,90.829s-40.748,90.829-90.829,90.829S20.184,220.298,20.184,170.217z M322.944,261.046H174.642
		c28.606-20.101,47.385-53.288,47.385-90.829s-18.779-70.729-47.385-90.829h148.302c50.086,0,90.834,40.748,90.834,90.829
		S373.03,261.046,322.944,261.046z M435.968,164.629l-1.242-19.844c15.365-11.644,31.538-23.594,42.788-31.558
		c-2.149,13.537-4.139,31.484,1.838,46.183c2.04,5.017,3.814,9.255,5.347,12.827L435.968,164.629z"/>
	<rect x="60.553" y="119.756" style="fill:#314E55;" width="20.184" height="20.184"/>
	<rect x="131.198" y="150.033" style="fill:#314E55;" width="20.184" height="20.184"/>
	<rect x="191.751" y="341.783" style="fill:#314E55;" width="20.184" height="20.184"/>
	<rect x="121.106" y="210.585" style="fill:#314E55;" width="20.184" height="20.184"/>
	<rect x="211.935" y="392.244" style="fill:#314E55;" width="20.184" height="20.184"/>
	<rect x="90.829" y="170.217" style="fill:#314E55;" width="20.184" height="20.184"/>
	<rect x="111.014" y="109.664" style="fill:#314E55;" width="20.184" height="20.184"/>
	<rect x="141.29" y="372.06" style="fill:#314E55;" width="20.184" height="20.184"/>
	<rect x="50.461" y="200.493" style="fill:#314E55;" width="20.184" height="20.184"/>
</g>
<g>
</g>
<g>
</g>
<g>
</g>
<g>
</g>
<g>
</g>
<g>
</g>
<g>
</g>
<g>
</g>
<g>
</g>
<g>
</g>
<g>
</g>
<g>
</g>
<g>
</g>
<g>
</g>
<g>
</g>
</svg>
