<?xml version="1.0" encoding="iso-8859-1"?>
<!-- Generator: Adobe Illustrator 19.0.0, SVG Export Plug-In . SVG Version: 6.00 Build 0)  -->
<svg version="1.1" id="Layer_1" xmlns="http://www.w3.org/2000/svg" xmlns:xlink="http://www.w3.org/1999/xlink" x="0px" y="0px"
	 viewBox="0 0 511.962 511.962" style="enable-background:new 0 0 511.962 511.962;" xml:space="preserve">
<path style="fill:#F58CAC;" d="M362.717,248.016L250.229,360.503c32.758,26.484,79.912,25.573,108.987-3.497
	C388.295,327.928,389.206,280.778,362.717,248.016z"/>
<path style="fill:#EAEAEA;" d="M162.646,24.233c-3.082-3.469-7.239-5.454-11.705-5.586c-0.159-0.005-0.319-0.009-0.473-0.009
	c-4.339,0-8.477,1.762-11.705,4.985L25.837,136.548c-3.374,3.374-5.158,7.699-5.026,12.179c0.132,4.439,2.135,8.596,5.637,11.705
	l189.579,168.336l114.953-114.953L162.646,24.233z M258.056,192.502H99.543c-5.149,0-9.324-4.175-9.324-9.324
	s4.175-9.324,9.324-9.324h158.513c5.149,0,9.324,4.175,9.324,9.324S263.205,192.502,258.056,192.502z"/>
<g>
	<path style="fill:#314E55;" d="M350.379,220.785l25.318-25.318l-13.185-13.185l-18.323,18.323L176.587,11.849
		c-6.524-7.348-15.434-11.555-25.091-11.842c-9.625-0.187-18.904,3.415-25.919,10.431L12.651,123.362
		c-7.043,7.043-10.767,16.249-10.481,25.915c0.287,9.629,4.512,18.544,11.892,25.095l188.753,167.605l-18.453,18.453l13.185,13.185
		l25.437-25.437c0.004-0.005,0.01-0.005,0.01-0.005L350.379,220.785z M26.447,160.432c-3.501-3.11-5.504-7.266-5.637-11.705
		c-0.132-4.48,1.653-8.805,5.026-12.179L138.761,23.623c3.228-3.223,7.367-4.985,11.705-4.985c0.155,0,0.314,0.005,0.473,0.009
		c4.466,0.132,8.623,2.117,11.705,5.586l168.333,189.582L216.026,328.768L26.447,160.432z"/>
	<path style="fill:#314E55;" d="M369.656,227.887c-3.642-3.642-9.543-3.642-13.185,0L230.101,354.257
		c-3.642,3.642-3.642,9.543,0,13.185c20.502,20.502,47.272,30.818,73.679,30.818c25.1,0,49.872-9.32,68.621-28.068
		C410.877,331.716,409.648,267.875,369.656,227.887z M359.216,357.007c-29.075,29.07-76.229,29.981-108.987,3.497l112.488-112.488
		C389.206,280.778,388.295,327.928,359.216,357.007z"/>
	<path style="fill:#314E55;" d="M258.056,173.854H99.543c-5.149,0-9.324,4.175-9.324,9.324s4.175,9.324,9.324,9.324h158.513
		c5.149,0,9.324-4.175,9.324-9.324S263.205,173.854,258.056,173.854z"/>
	
		<rect x="443.983" y="327.95" transform="matrix(-0.3163 0.9487 -0.9487 -0.3163 926.5326 27.636)" style="fill:#314E55;" width="18.649" height="39.499"/>
	
		<rect x="386.91" y="419.54" transform="matrix(-0.9486 0.3164 -0.3164 -0.9486 928.1204 707.0251)" style="fill:#314E55;" width="39.497" height="18.648"/>
	
		<rect x="294.789" y="430.503" transform="matrix(-0.3163 0.9487 -0.9487 -0.3163 827.4385 304.1603)" style="fill:#314E55;" width="18.649" height="39.499"/>
	
		<rect x="388.046" y="477.119" transform="matrix(-0.3163 0.9487 -0.9487 -0.3163 994.415 277.0521)" style="fill:#314E55;" width="18.649" height="39.499"/>
	<rect x="477.973" y="434.931" style="fill:#314E55;" width="31.833" height="18.649"/>
</g>
<g>
</g>
<g>
</g>
<g>
</g>
<g>
</g>
<g>
</g>
<g>
</g>
<g>
</g>
<g>
</g>
<g>
</g>
<g>
</g>
<g>
</g>
<g>
</g>
<g>
</g>
<g>
</g>
<g>
</g>
</svg>
