<?xml version="1.0" encoding="iso-8859-1"?>
<!-- Generator: Adobe Illustrator 19.0.0, SVG Export Plug-In . SVG Version: 6.00 Build 0)  -->
<svg version="1.1" id="Layer_1" xmlns="http://www.w3.org/2000/svg" xmlns:xlink="http://www.w3.org/1999/xlink" x="0px" y="0px"
	 viewBox="0 0 512 512" style="enable-background:new 0 0 512 512;" xml:space="preserve">
<path style="fill:#E9E7D1;" d="M89.004,406.536c-2.153,0.319-4.604,0.941-6.304,2.641h-0.004l-62.408,62.408
	c-1.683,1.683-2.615,3.918-2.615,6.291c-0.004,2.356,0.91,4.574,2.576,6.239c1.678,1.674,3.888,2.598,6.226,2.598
	c0.009,0,0.017,0,0.026,0c2.36-0.009,4.591-0.941,6.282-2.632l62.412-62.408c3.465-3.469,3.478-9.095,0.034-12.539
	C93.556,407.459,91.347,406.536,89.004,406.536z"/>
<g>
	<path style="fill:#E4AD40;" d="M153.177,38.377c2.228-4.019,4.249-8.532,5.385-11.985c-6.304,1.294-13.203,2.14-19.572,2.692
		l11.178,9.582C151.136,38.523,152.14,38.429,153.177,38.377z"/>
	<path style="fill:#E4AD40;" d="M478.557,320.762c1.708,5.401,2.444,11.135,2.078,16.979c4.682,4.594,10.741,8.195,13.383,8.561
		c1.523-7.05-1.1-27.416-4.44-43.035C485.624,311.618,481.241,317.532,478.557,320.762z"/>
	<path style="fill:#E4AD40;" d="M461.727,343.843l0.01-0.01c2.241-7.948,1.682-15.977-1.925-22.409
		c-3.883-6.921-10.735-10.735-19.287-10.735c-48.092,0-148.159,0-207.952-102.5c-31.817-54.547-33.137-80.073-34.099-98.712
		c-0.755-14.618-1.135-21.962-17.66-38.487c-6.006-6.006-16.573-14.981-26.082-14.981c-1.085,0-2.149,0.167-3.2,0.419l-3.302,3.853
		l-1.645-1.41c-9.726,6.989-16.097,26.54-16.097,50.84c0,0.009,0,0.026,0,0.043c-0.004,0.665,0.099,67.448,31.096,134.214
		c1.204,2.594,2.53,5.029,3.79,7.551l17.335-17.337l12.495,12.495l-21.058,21.061c3.091,5.284,6.318,10.389,9.685,15.313
		l24.067-24.068l12.495,12.495l-25.945,25.947c1.854,2.32,3.704,4.644,5.628,6.871l26.569-26.569l12.495,12.495l-26.959,26.959
		c6.349,6.257,13.006,12.104,20.017,17.475l25.491-25.493l12.495,12.495l-23.337,23.338c36.458,23.325,80.765,36.041,132.68,37.966
		c37.258,1.346,65.73-9.277,77.932-29.262c1.944-3.185,3.329-6.51,4.273-9.849L461.727,343.843z"/>
</g>
<path style="fill:#314E55;" d="M510.164,318.145c-2.019-14.152-5.928-32.231-10.101-40.696c-3.616-7.335-8.414-8.371-11.84-7.905
	c-3.404,0.449-7.801,2.666-9.41,10.709c-2.1,10.495-6.481,18.671-10.029,24.003c-7.22-7.23-17.081-11.24-28.26-11.24
	c-48.23,0-138.011,0-192.686-93.733c-29.655-50.836-30.846-73.885-31.713-90.713c-0.833-16.068-1.489-28.753-22.816-50.077
	c-8.1-8.102-15.501-13.208-22.166-16.274c5.127-10.324,8.769-22.267,3.272-29.522c-1.989-2.632-6.709-6.74-16.033-4.375
	c-16.387,4.09-41.784,4.151-42.038,4.151c-3.698,0-7.007,2.304-8.289,5.773c-1.282,3.469-0.268,7.369,2.537,9.769l22.494,19.283
	c-12.663,11.727-20.272,34.215-20.272,62.412c0.002,2.595,0.791,80.178,39.77,154.599l-38.583,38.588
	c-11.714,11.71-18.161,27.26-18.156,43.777c0.004,13.522,4.389,26.346,12.377,36.978l-7.872,7.87
	c-3.514-1.682-7.341-2.659-11.344-2.659c-0.026,0-0.052,0-0.078,0.009c-7.063,0.017-13.712,2.787-18.726,7.81L7.792,459.089
	C2.774,464.103,0.009,470.765,0,477.85c-0.013,7.093,2.744,13.755,7.749,18.76c5.014,5.014,11.663,7.775,18.726,7.775
	c0.026,0,0.052,0,0.078,0c7.059-0.017,13.712-2.796,18.726-7.81l62.417-62.408c8.146-8.156,9.788-20.278,5.124-30.126l7.899-7.898
	c10.622,7.968,23.449,12.343,36.985,12.343c0,0,0.004,0,0.009,0c16.534,0,32.076-6.429,43.76-18.113l33.012-33.014
	c36.274,24.262,83.231,40.991,144.388,43.257c2.339,0.086,4.647,0.129,6.929,0.129c40.554,0,71.944-13.609,86.739-37.831
	c1.234-2.02,2.329-4.087,3.287-6.185c5.977,4.274,12.639,7.316,18.904,7.316c4.423,0,8.638-1.502,12.249-5.117
	C509.34,356.571,514.862,351.049,510.164,318.145z M158.562,26.392c-1.136,3.452-3.157,7.966-5.385,11.985
	c-1.037,0.052-2.041,0.146-3.009,0.29l-11.178-9.582C145.359,28.532,152.258,27.687,158.562,26.392z M126.495,315.392l35.077-35.081
	c3.088,5.083,6.429,10.102,9.921,15.076l-57.378,57.381c-0.28-2.016-0.598-4.025-0.598-6.093
	C113.512,334.877,118.12,323.762,126.495,315.392z M120.855,371.018l61.412-61.415c1.857,2.291,3.709,4.584,5.667,6.831
	l-61.461,61.461C124.349,375.77,122.48,373.462,120.855,371.018z M95.196,421.672L32.783,484.08
	c-1.691,1.691-3.922,2.623-6.282,2.632c-0.009,0-0.017,0-0.026,0c-2.339,0-4.548-0.923-6.226-2.598
	c-1.665-1.665-2.58-3.883-2.576-6.239c0-2.373,0.932-4.608,2.615-6.291l62.408-62.408H82.7c1.7-1.7,4.151-2.321,6.304-2.641
	c2.343,0,4.552,0.923,6.226,2.598C98.673,412.577,98.661,418.203,95.196,421.672z M188.976,377.878
	c-8.345,8.345-19.446,12.936-31.269,12.936c-5.604,0-11.019-1.106-16.081-3.081l58.378-58.378
	c6.177,6.118,12.912,11.919,19.996,17.497L188.976,377.878z M379.527,382.96c-51.915-1.924-96.222-14.64-132.68-37.966
	l23.337-23.338l-12.495-12.495l-25.491,25.493c-7.011-5.371-13.669-11.218-20.017-17.475l26.959-26.959l-12.495-12.495
	l-26.569,26.569c-1.924-2.226-3.774-4.551-5.628-6.871l25.945-25.946l-12.495-12.495l-24.067,24.068
	c-3.367-4.924-6.594-10.029-9.685-15.313l21.058-21.061l-12.495-12.495l-17.335,17.337c-1.26-2.522-2.586-4.958-3.79-7.551
	c-30.997-66.767-31.101-133.55-31.096-134.214c0-0.017,0-0.034,0-0.043c0-24.3,6.371-43.851,16.097-50.84l1.645,1.41l3.302-3.853
	c1.051-0.253,2.115-0.419,3.2-0.419c9.51,0,20.076,8.975,26.082,14.981c16.525,16.525,16.905,23.869,17.66,38.487
	c0.962,18.64,2.282,44.165,34.099,98.712c59.793,102.5,159.86,102.5,207.952,102.5c8.552,0,15.404,3.814,19.287,10.735
	c3.608,6.432,4.166,14.462,1.925,22.409l-0.01,0.01l0.005,0.005c-0.943,3.339-2.328,6.665-4.273,9.849
	C445.257,373.684,416.785,384.306,379.527,382.96z M494.018,346.302c-2.641-0.367-8.7-3.967-13.383-8.561
	c0.366-5.845-0.37-11.579-2.078-16.979c2.684-3.23,7.067-9.143,11.021-17.494C492.918,318.887,495.541,339.252,494.018,346.302z"/>
<g>
</g>
<g>
</g>
<g>
</g>
<g>
</g>
<g>
</g>
<g>
</g>
<g>
</g>
<g>
</g>
<g>
</g>
<g>
</g>
<g>
</g>
<g>
</g>
<g>
</g>
<g>
</g>
<g>
</g>
</svg>
