<?xml version="1.0" encoding="iso-8859-1"?>
<!-- Generator: Adobe Illustrator 19.0.0, SVG Export Plug-In . SVG Version: 6.00 Build 0)  -->
<svg version="1.1" id="Layer_1" xmlns="http://www.w3.org/2000/svg" xmlns:xlink="http://www.w3.org/1999/xlink" x="0px" y="0px"
	 viewBox="0 0 512 512" style="enable-background:new 0 0 512 512;" xml:space="preserve">
<path style="fill:#5ECC66;" d="M291.84,280.758l-31.823,63.645l-16.07-8.035l31.83-63.659c-6.228-2.071-12.864-3.236-19.777-3.236
	c-34.667,0-62.878,28.206-62.878,62.877s28.211,62.877,62.878,62.877s62.877-28.206,62.877-62.877
	C318.877,310.999,308.157,292.127,291.84,280.758z"/>
<path style="fill:#E4AD40;" d="M145.999,215.577L96.341,458.105h51.869h17.965h179.65h17.965h51.869L366,215.577H145.999z
	 M256,413.192c-44.579,0-80.842-36.268-80.842-80.842s36.263-80.842,80.842-80.842s80.842,36.268,80.842,80.842
	S300.579,413.192,256,413.192z"/>
<polygon style="fill:#D26CBA;" points="357.59,107.787 374.614,55.971 300.912,70.283 300.912,107.787 "/>
<polygon style="fill:#EA86A5;" points="282.947,62.879 282.947,45.831 223.377,21.682 212.316,107.787 282.947,107.787 "/>
<path style="fill:#DBCF56;" d="M364.088,125.757H291.93c-0.008,0-0.014-0.004-0.014-0.004h-89.811H58.385v22.456
	c0,12.382,10.053,22.456,22.412,22.456h350.405c12.36,0,22.412-10.075,22.412-22.456v-22.456h-89.499
	C364.106,125.752,364.098,125.757,364.088,125.757z"/>
<g>
	<path style="fill:#314E55;" d="M462.597,107.787h-86.101l19.96-60.75c0.991-3.026,0.307-6.355-1.798-8.741
		c-2.105-2.39-5.325-3.487-8.447-2.877l-85.298,16.568V39.779c0-3.658-2.219-6.952-5.605-8.325L219.333,0.655
		c-2.579-1.039-5.5-0.838-7.912,0.57c-2.403,1.404-4.018,3.847-4.377,6.61L194.2,107.788H49.402c-4.965,0-8.983,4.022-8.983,8.982
		v31.439c0,22.29,18.114,40.421,40.377,40.421h350.405c22.263,0,40.377-18.132,40.377-40.421V116.77
		C471.58,111.809,467.562,107.787,462.597,107.787z M374.614,55.971l-17.025,51.816h-56.677V70.283L374.614,55.971z M223.377,21.682
		l59.57,24.149v17.048v44.908h-70.632L223.377,21.682z M453.615,148.209c0,12.382-10.053,22.456-22.412,22.456H80.797
		c-12.36,0-22.412-10.075-22.412-22.456v-22.456h143.72h89.803c0,0,0.014,0.004,0.022,0.004h72.158c0.009,0,0.018-0.004,0.027-0.004
		h89.499V148.209z"/>
	<path style="fill:#314E55;" d="M373.334,197.612H138.666c-4.263,0-7.947,3-8.798,7.18L76.534,465.285
		c-0.544,2.645,0.132,5.39,1.842,7.482c1.702,2.088,4.254,3.303,6.956,3.303h62.877V512h17.965v-35.93h179.65V512h17.965v-35.93
		h62.878c2.702,0,5.254-1.215,6.956-3.303c1.711-2.092,2.386-4.838,1.842-7.482l-53.334-260.492
		C381.281,200.613,377.597,197.612,373.334,197.612z M363.79,458.105h-17.965h-179.65H148.21H96.341l49.658-242.527H366
		l49.658,242.527H363.79z"/>
	<path style="fill:#314E55;" d="M256,251.507c-44.579,0-80.842,36.268-80.842,80.842s36.263,80.842,80.842,80.842
		s80.842-36.268,80.842-80.842S300.579,251.507,256,251.507z M256,395.227c-34.667,0-62.878-28.206-62.878-62.877
		s28.211-62.878,62.878-62.878c6.913,0,13.549,1.165,19.777,3.236l-31.83,63.659l16.07,8.035l31.823-63.645
		c16.317,11.37,27.037,30.241,27.037,51.592C318.877,367.021,290.667,395.227,256,395.227z"/>
</g>
<g>
</g>
<g>
</g>
<g>
</g>
<g>
</g>
<g>
</g>
<g>
</g>
<g>
</g>
<g>
</g>
<g>
</g>
<g>
</g>
<g>
</g>
<g>
</g>
<g>
</g>
<g>
</g>
<g>
</g>
</svg>
