<?xml version="1.0" encoding="iso-8859-1"?>
<!-- Generator: Adobe Illustrator 19.0.0, SVG Export Plug-In . SVG Version: 6.00 Build 0)  -->
<svg version="1.1" id="Layer_1" xmlns="http://www.w3.org/2000/svg" xmlns:xlink="http://www.w3.org/1999/xlink" x="0px" y="0px"
	 viewBox="0 0 512 512" style="enable-background:new 0 0 512 512;" xml:space="preserve">
<polygon style="fill:#81A4E3;" points="187.718,321.373 202.59,493.845 344.62,493.845 359.493,321.373 "/>
<path style="fill:#EAEAEA;" d="M273.605,67.204c-54.633,0-99.595,44.022-104.027,99.852h208.055
	C373.2,111.226,328.238,67.204,273.605,67.204z"/>
<polygon style="fill:#81A4E3;" points="186.152,303.218 361.058,303.218 368.103,221.521 179.107,221.521 "/>
<path style="fill:#EAEAEA;" d="M396.169,185.211h-9.095H160.137h-9.095c-5,0-9.06,4.069-9.06,9.077c0,5.088,3.98,9.077,9.06,9.077
	h18.173h208.782h18.173c5,0,9.06-4.069,9.06-9.077C405.229,189.2,401.248,185.211,396.169,185.211z"/>
<path style="fill:#314E55;" d="M396.169,167.056h-0.461c-4.519-65.838-57.482-118.007-122.103-118.007
	c-15.471,0-30.222,3.112-43.863,8.56L215.08,30.433c-1.25-2.322-3.448-3.98-6.019-4.556L92.552,0l-3.936,17.729l112.458,24.972
	l12.336,22.862C178.644,86,154.492,123.512,151.502,167.056h-0.461c-15.008,0-27.215,12.216-27.215,27.232
	c0,15.017,12.207,27.232,27.215,27.232h9.847l24.336,282.182c0.399,4.689,4.335,8.297,9.042,8.297h158.679
	c4.707,0,8.643-3.608,9.042-8.297l24.336-282.182h9.847c15.008,0,27.215-12.216,27.215-27.232S411.177,167.056,396.169,167.056z
	 M273.605,67.204c54.633,0,99.595,44.022,104.027,99.852H169.578C174.01,111.226,218.972,67.204,273.605,67.204z M344.62,493.845
	H202.59l-14.872-172.472h171.775L344.62,493.845z M361.058,303.218H186.152l-7.045-81.697h188.996L361.058,303.218z
	 M396.169,203.366h-18.173H169.214h-18.173c-5.08,0-9.06-3.989-9.06-9.077c0-5.008,4.06-9.077,9.06-9.077h9.095h226.937h9.095
	c5.08,0,9.06,3.989,9.06,9.077C405.229,199.297,401.169,203.366,396.169,203.366z"/>
<g>
</g>
<g>
</g>
<g>
</g>
<g>
</g>
<g>
</g>
<g>
</g>
<g>
</g>
<g>
</g>
<g>
</g>
<g>
</g>
<g>
</g>
<g>
</g>
<g>
</g>
<g>
</g>
<g>
</g>
</svg>
