<?xml version="1.0" encoding="iso-8859-1"?>
<!-- Generator: Adobe Illustrator 19.0.0, SVG Export Plug-In . SVG Version: 6.00 Build 0)  -->
<svg version="1.1" id="Layer_1" xmlns="http://www.w3.org/2000/svg" xmlns:xlink="http://www.w3.org/1999/xlink" x="0px" y="0px"
	 viewBox="0 0 512 512" style="enable-background:new 0 0 512 512;" xml:space="preserve">
<path style="fill:#EA86A5;" d="M256,469.916c125.009,0,227.722-54.472,236.435-123.259H19.565
	C28.278,415.443,130.991,469.916,256,469.916z"/>
<path style="fill:#DBCF56;" d="M162.333,275.128c16.88,7.13,37.185,8.093,57.176,2.741c36.232-9.713,61.102-37.639,59.982-65.148
	L135,251.434C140.333,261.582,149.769,269.823,162.333,275.128z"/>
<g>
	<path style="fill:#314E55;" d="M502.519,327.693H9.481c-5.241,0-9.481,4.241-9.481,9.481c0,83.648,114.843,151.704,256,151.704
		s256-68.055,256-151.704C512,331.934,507.759,327.693,502.519,327.693z M256,469.916c-125.009,0-227.722-54.472-236.435-123.259
		h472.87C483.722,415.443,381.009,469.916,256,469.916z"/>
	<path style="fill:#314E55;" d="M154.963,292.601c12.028,5.074,25.38,7.639,39.157,7.639c9.981,0,20.194-1.352,30.296-4.055
		c46.407-12.442,77.329-50.508,73.646-87.951l197.515-52.919l-4.907-18.315l-203.472,54.515c-0.818,0.001-1.641-0.054-2.439,0.161
		l-164.852,44.167c-5.056,1.352-8.055,6.555-6.704,11.611C118.565,267.462,133.389,283.499,154.963,292.601z M279.491,212.721
		c1.12,27.509-23.75,55.435-59.982,65.148c-19.991,5.352-40.296,4.389-57.176-2.741c-12.565-5.306-22-13.546-27.333-23.694
		L279.491,212.721z"/>
	<path style="fill:#314E55;" d="M177.555,170.193c-1.741,4.944,0.861,10.352,5.806,12.083c1.037,0.37,2.093,0.537,3.139,0.537
		c3.917,0,7.574-2.435,8.944-6.343c8.805-25.074,1.204-46.537-6.148-67.287c-5.796-16.38-11.796-33.324-10.917-53.676
		c0.222-5.231-3.833-9.657-9.065-9.88c-5.074-0.435-9.648,3.843-9.88,9.065c-1.037,24.028,5.88,43.574,11.991,60.815
		C178.528,135.573,184.139,151.425,177.555,170.193z"/>
	<path style="fill:#314E55;" d="M213.769,173.777c-1.991,4.843,0.315,10.389,5.148,12.389c1.185,0.481,2.407,0.713,3.62,0.713
		c3.722,0,7.259-2.204,8.768-5.861c12.861-31.185,4.954-54.25-2.019-74.602c-7.426-21.639-13.833-40.333,1.259-69.445
		c2.407-4.648,0.593-10.37-4.055-12.778c-4.639-2.417-10.38-0.611-12.778,4.055c-18.824,36.306-10.083,61.815-2.37,84.324
		C218.083,132.23,223.907,149.212,213.769,173.777z"/>
</g>
<g>
</g>
<g>
</g>
<g>
</g>
<g>
</g>
<g>
</g>
<g>
</g>
<g>
</g>
<g>
</g>
<g>
</g>
<g>
</g>
<g>
</g>
<g>
</g>
<g>
</g>
<g>
</g>
<g>
</g>
</svg>
