<?xml version="1.0" encoding="iso-8859-1"?>
<!-- Generator: Adobe Illustrator 19.0.0, SVG Export Plug-In . SVG Version: 6.00 Build 0)  -->
<svg version="1.1" id="Layer_1" xmlns="http://www.w3.org/2000/svg" xmlns:xlink="http://www.w3.org/1999/xlink" x="0px" y="0px"
	 viewBox="0 0 512 512" style="enable-background:new 0 0 512 512;" xml:space="preserve">
<g>
	<path style="fill:#81A4E3;" d="M172.887,347.439v23.089h159.155v-20.697C280.596,366.349,223.849,365.52,172.887,347.439z"/>
	<path style="fill:#81A4E3;" d="M256.004,318.66c108.737,0,204.323-77.462,231.212-185.681H24.784
		C51.672,241.198,147.259,318.66,256.004,318.66z"/>
</g>
<path style="fill:#D8D8D8;" d="M110.993,423.58c-33.546,0-61.894,16.199-61.894,35.368s28.348,35.368,61.894,35.368
	s61.894-16.199,61.894-35.368S144.539,423.58,110.993,423.58z"/>
<g>
	<path style="fill:#314E55;" d="M337.758,329.108c-54.148,20.473-115.256,19.704-168.956-2.133
		c-1.062-0.432-2.193-0.656-3.333-0.656h-1.425c-4.887,0-8.842,3.955-8.842,8.842v44.21c0,4.887,3.955,8.842,8.842,8.842h176.839
		c4.887,0,8.842-3.955,8.842-8.842V337.38c0-2.901-1.425-5.621-3.817-7.271C343.534,328.46,340.469,328.098,337.758,329.108z
		 M332.042,370.529H172.887v-23.089c50.962,18.081,107.71,18.91,159.155,2.392V370.529z"/>
	<path style="fill:#314E55;" d="M256.004,336.344c120.636,0,226.169-88.506,250.933-210.445c0.527-2.599-0.147-5.302-1.822-7.357
		c-1.684-2.055-4.196-3.247-6.847-3.247H13.731c-2.651,0-5.163,1.192-6.847,3.247c-1.675,2.055-2.349,4.758-1.822,7.357
		C29.826,247.838,135.369,336.344,256.004,336.344z M487.216,132.979C460.328,241.198,364.741,318.66,256.004,318.66
		c-108.746,0-204.332-77.462-231.221-185.681C24.784,132.979,487.216,132.979,487.216,132.979z"/>
	<path style="fill:#314E55;" d="M455.967,450.106H189.422c-6.156-25.384-38.346-44.21-78.429-44.21
		c-44.624,0-79.578,23.305-79.578,53.052S66.369,512,110.993,512c40.083,0,72.274-18.825,78.429-44.21h266.545
		c4.887,0,8.842-3.955,8.842-8.842S460.854,450.106,455.967,450.106z M110.993,494.316c-33.546,0-61.894-16.199-61.894-35.368
		s28.348-35.368,61.894-35.368s61.894,16.199,61.894,35.368S144.539,494.316,110.993,494.316z"/>
	<path style="fill:#314E55;" d="M240.79,81.706c-1.373,5.336-5.397,7.65-5.414,7.668c-4.352,2.219-6.087,7.538-3.877,11.89
		c1.563,3.074,4.671,4.835,7.892,4.835c1.347,0,2.711-0.311,3.998-0.958c1.105-0.561,10.845-5.828,14.351-18.401
		c3.126-11.191,0.242-24.065-8.583-38.26c-4.999-8.048-6.623-14.869-4.827-20.274c2.478-7.486,11.018-11.001,11.294-11.113
		c4.533-1.736,6.83-6.804,5.12-11.363c-1.718-4.576-6.813-6.865-11.389-5.172c-1.675,0.63-16.544,6.597-21.734,21.846
		c-3.635,10.681-1.442,22.597,6.511,35.402C240.056,67.338,242.353,75.601,240.79,81.706z"/>
	<path style="fill:#314E55;" d="M285,81.706c-1.373,5.336-5.397,7.65-5.414,7.668c-4.352,2.219-6.087,7.538-3.877,11.89
		c1.563,3.074,4.671,4.835,7.892,4.835c1.347,0,2.711-0.311,3.998-0.958c1.105-0.561,10.845-5.828,14.351-18.401
		c3.126-11.191,0.242-24.065-8.583-38.26c-4.999-8.048-6.623-14.869-4.827-20.274c2.478-7.486,11.018-11.001,11.294-11.113
		c4.533-1.736,6.83-6.804,5.12-11.363c-1.71-4.576-6.813-6.865-11.389-5.172c-1.675,0.63-16.544,6.597-21.734,21.846
		c-3.635,10.681-1.442,22.597,6.511,35.402C284.266,67.338,286.563,75.601,285,81.706z"/>
</g>
<g>
</g>
<g>
</g>
<g>
</g>
<g>
</g>
<g>
</g>
<g>
</g>
<g>
</g>
<g>
</g>
<g>
</g>
<g>
</g>
<g>
</g>
<g>
</g>
<g>
</g>
<g>
</g>
<g>
</g>
</svg>
