<?xml version="1.0" encoding="iso-8859-1"?>
<!-- Generator: Adobe Illustrator 19.0.0, SVG Export Plug-In . SVG Version: 6.00 Build 0)  -->
<svg version="1.1" id="Layer_1" xmlns="http://www.w3.org/2000/svg" xmlns:xlink="http://www.w3.org/1999/xlink" x="0px" y="0px"
	 viewBox="0 0 512 512" style="enable-background:new 0 0 512 512;" xml:space="preserve">
<path style="fill:#D8D8D8;" d="M459.755,120.163c0-5.857-4.612-10.449-10.5-10.449H62.745c-5.786,0-10.5,4.689-10.5,10.449v10.449
	h407.51V120.163z"/>
<path style="fill:#EAEAEA;" d="M52.245,381.48c0,40.281,32.827,73.051,73.173,73.051h261.163c40.347,0,73.173-32.77,73.173-73.051
	V193.306H52.245V381.48z M73.143,235.102c0-5.77,4.674-10.449,10.449-10.449s10.449,4.679,10.449,10.449v135.837
	c0,5.77-4.674,10.449-10.449,10.449s-10.449-4.679-10.449-10.449V235.102z"/>
<g>
	<path style="fill:#314E55;" d="M512,172.408h-41.796H41.796H0v20.898h31.347V381.48c0,51.806,42.204,93.949,94.071,93.949h261.163
		c51.867,0,94.071-42.143,94.071-93.949V193.306H512V172.408z M459.755,381.48c0,40.281-32.827,73.051-73.173,73.051H125.418
		c-40.347,0-73.173-32.77-73.173-73.051V193.306h407.51V381.48z"/>
	<path style="fill:#314E55;" d="M41.796,151.51h428.408c5.775,0,10.449-4.679,10.449-10.449v-20.898
		c0-17.286-14.082-31.347-31.398-31.347H322.975c-4.998-29.603-30.746-52.245-61.75-52.245s-56.752,22.642-61.75,52.245H62.745
		c-17.316,0-31.398,14.061-31.398,31.347v20.898C31.347,146.832,36.021,151.51,41.796,151.51z M261.224,57.469
		c19.422,0,35.64,13.372,40.312,31.347h-80.624C225.585,70.842,241.803,57.469,261.224,57.469z M52.245,120.163
		c0-5.76,4.714-10.449,10.5-10.449h386.51c5.888,0,10.5,4.592,10.5,10.449v10.449H52.245V120.163z"/>
	<path style="fill:#314E55;" d="M83.592,381.388c5.775,0,10.449-4.679,10.449-10.449V235.102c0-5.77-4.674-10.449-10.449-10.449
		s-10.449,4.679-10.449,10.449v135.837C73.143,376.709,77.816,381.388,83.592,381.388z"/>
</g>
<g>
</g>
<g>
</g>
<g>
</g>
<g>
</g>
<g>
</g>
<g>
</g>
<g>
</g>
<g>
</g>
<g>
</g>
<g>
</g>
<g>
</g>
<g>
</g>
<g>
</g>
<g>
</g>
<g>
</g>
</svg>
