<?xml version="1.0" encoding="iso-8859-1"?>
<!-- Generator: Adobe Illustrator 19.0.0, SVG Export Plug-In . SVG Version: 6.00 Build 0)  -->
<svg version="1.1" id="Layer_1" xmlns="http://www.w3.org/2000/svg" xmlns:xlink="http://www.w3.org/1999/xlink" x="0px" y="0px"
	 viewBox="0 0 512 512" style="enable-background:new 0 0 512 512;" xml:space="preserve">
<path style="fill:#D8D8D8;" d="M111.446,308.662c42.333,10.43,92.341,16.261,144.554,16.261c52.212,0,102.219-5.829,144.552-16.26
	c27.854-7.84,42.525-16.863,42.525-23.125c0-13.365-66.029-39.385-187.077-39.385S68.923,272.173,68.923,285.538
	C68.923,291.8,83.593,300.822,111.446,308.662z"/>
<path style="fill:#EAEAEA;" d="M408.657,327.055c-40.303,11.902-97.622,17.56-152.657,17.56s-112.354-5.659-152.657-17.56
	c-15.231-3.867-29.507-8.313-42.526-13.325c-1.154,6.947-1.741,13.986-1.741,21.039c0,86.865,88.336,157.538,196.923,157.538
	s196.923-70.673,196.923-157.538c0-7.053-0.587-14.091-1.74-21.039C438.164,318.743,423.888,323.189,408.657,327.055z"/>
<g>
	<path style="fill:#314E55;" d="M467.875,297.687c-0.721-2.784-2.635-5.111-5.221-6.37c-0.211-0.103-0.454-0.075-0.671-0.163
		c0.471-1.827,0.787-3.689,0.787-5.615c0-40.591-107.183-59.077-206.769-59.077S49.231,244.947,49.231,285.538
		c0,1.927,0.316,3.789,0.787,5.615c-0.216,0.088-0.46,0.06-0.671,0.163c-2.587,1.26-4.5,3.586-5.221,6.37
		c-3.144,12.096-4.74,24.567-4.74,37.082C39.385,432.495,136.558,512,256,512s216.615-79.505,216.615-177.231
		C472.615,322.255,471.019,309.784,467.875,297.687z M256,246.154c121.048,0,187.077,26.019,187.077,39.385
		c0,6.262-14.671,15.285-42.525,23.125c-42.332,10.43-92.339,16.26-144.552,16.26c-52.213,0-102.221-5.831-144.554-16.261
		c-27.853-7.84-42.523-16.862-42.523-23.124C68.923,272.173,134.952,246.154,256,246.154z M256,492.308
		c-108.587,0-196.923-70.673-196.923-157.538c0-7.053,0.587-14.091,1.74-21.039c13.019,5.012,27.295,9.458,42.526,13.325
		c40.303,11.902,97.623,17.56,152.657,17.56s112.354-5.659,152.657-17.56c15.231-3.867,29.507-8.313,42.526-13.325
		c1.154,6.947,1.741,13.986,1.741,21.039C452.923,421.635,364.587,492.308,256,492.308z"/>
	<rect x="128" style="fill:#314E55;" width="19.692" height="60.288"/>
	<rect x="187.077" y="29.538" style="fill:#314E55;" width="19.692" height="60.288"/>
	<rect x="108.308" y="118.154" style="fill:#314E55;" width="19.692" height="60.288"/>
	<rect x="256" y="118.154" style="fill:#314E55;" width="19.692" height="60.288"/>
	<rect x="334.769" y="49.231" style="fill:#314E55;" width="19.692" height="60.288"/>
	<rect x="295.385" y="118.154" style="fill:#314E55;" width="19.692" height="60.288"/>
	<rect x="393.846" y="68.923" style="fill:#314E55;" width="19.692" height="60.288"/>
</g>
<g>
</g>
<g>
</g>
<g>
</g>
<g>
</g>
<g>
</g>
<g>
</g>
<g>
</g>
<g>
</g>
<g>
</g>
<g>
</g>
<g>
</g>
<g>
</g>
<g>
</g>
<g>
</g>
<g>
</g>
</svg>
