<?xml version="1.0" encoding="iso-8859-1"?>
<!-- Generator: Adobe Illustrator 19.0.0, SVG Export Plug-In . SVG Version: 6.00 Build 0)  -->
<svg version="1.1" id="Layer_1" xmlns="http://www.w3.org/2000/svg" xmlns:xlink="http://www.w3.org/1999/xlink" x="0px" y="0px"
	 viewBox="0 0 512 512" style="enable-background:new 0 0 512 512;" xml:space="preserve">
<polygon style="fill:#73C9C9;" points="106.6,413.868 405.4,413.868 477.604,320.001 34.396,320.001 "/>
<g>
	<path style="fill:#314E55;" d="M512,302.934h-17.067H337.298l127.007-110.075l-11.179-12.896L312.229,302.076l0.744,0.858H17.067H0
		v17.067h12.865l82.772,107.604c1.613,2.1,4.112,3.329,6.762,3.329h307.2c2.65,0,5.15-1.229,6.762-3.329l82.772-107.604H512V302.934
		z M405.4,413.868H106.6l-72.204-93.867h443.208L405.4,413.868z"/>
	<path style="fill:#314E55;" d="M214.929,228.251c-3.987,2.512-5.187,7.779-2.675,11.767c1.621,2.579,4.396,3.987,7.229,3.987
		c1.554,0,3.125-0.425,4.538-1.312c1.496-0.942,36.267-23.746,6.096-83.829c-8.146-16.221-10.279-30.313-6.338-41.883
		c4.617-13.571,16.45-19.504,16.775-19.663c4.237-2,6.075-7.05,4.1-11.308c-1.987-4.279-7.067-6.129-11.333-4.15
		c-0.75,0.35-18.421,8.746-25.575,29.263c-5.629,16.146-3.233,34.783,7.121,55.4C237.754,212.101,215.763,227.684,214.929,228.251z"
		/>
	<path style="fill:#314E55;" d="M274.662,228.251c-3.987,2.512-5.187,7.779-2.675,11.767c1.621,2.579,4.396,3.987,7.229,3.987
		c1.554,0,3.125-0.425,4.538-1.312c1.496-0.942,36.267-23.746,6.096-83.829c-8.146-16.221-10.279-30.313-6.337-41.883
		c4.617-13.571,16.45-19.504,16.775-19.663c4.237-2,6.075-7.05,4.1-11.308c-1.987-4.279-7.067-6.129-11.333-4.15
		c-0.75,0.35-18.421,8.746-25.575,29.263c-5.629,16.146-3.233,34.783,7.121,55.4C297.488,212.101,275.496,227.684,274.662,228.251z"
		/>
</g>
<g>
</g>
<g>
</g>
<g>
</g>
<g>
</g>
<g>
</g>
<g>
</g>
<g>
</g>
<g>
</g>
<g>
</g>
<g>
</g>
<g>
</g>
<g>
</g>
<g>
</g>
<g>
</g>
<g>
</g>
</svg>
