<?xml version="1.0" encoding="iso-8859-1"?>
<!-- Generator: Adobe Illustrator 19.0.0, SVG Export Plug-In . SVG Version: 6.00 Build 0)  -->
<svg version="1.1" id="Layer_1" xmlns="http://www.w3.org/2000/svg" xmlns:xlink="http://www.w3.org/1999/xlink" x="0px" y="0px"
	 viewBox="0 0 512 512" style="enable-background:new 0 0 512 512;" xml:space="preserve">
<g>
	<path style="fill:#E4AD40;" d="M471.17,37.312c-11.961-11.961-29.553-17.217-49.615-17.217c-43.542,0-98.744,24.749-133.461,59.466
		c-24.764,24.764-40.449,55.494-44.179,86.539c-3.618,30.146,4.57,56.933,23.052,75.415c18.482,18.477,45.268,26.65,75.415,23.052
		c31.046-3.729,61.776-19.415,86.539-44.179C479.635,169.674,509.091,75.233,471.17,37.312z M414.835,206.306
		c-1.945,1.945-4.493,2.917-7.041,2.917c-2.548,0-5.096-0.972-7.041-2.917c-3.89-3.89-3.89-10.192,0-14.081
		c34.941-34.945,44.417-82.324,21.127-105.624c-3.89-3.89-3.89-10.196,0-14.081c3.89-3.89,10.192-3.89,14.081,0
		C467.022,103.585,457.541,163.601,414.835,206.306z"/>
	<path style="fill:#E4AD40;" d="M246.085,247.907l-218.3,205.069l34.761,34.761l206.07-219.371
		c-5.637-3.683-10.902-7.941-15.73-12.771C250.449,253.16,248.232,250.557,246.085,247.907z"/>
</g>
<g>
	<path style="fill:#314E55;" d="M485.251,23.23C437.664-24.362,332.618,6.869,274.013,65.479
		c-27.905,27.9-45.613,62.792-49.868,98.248c-2.977,24.786,0.978,47.75,10.959,67.17L6.663,445.493
		c-1.964,1.848-3.097,4.41-3.141,7.104c-0.039,2.694,1.011,5.29,2.917,7.196l49.289,49.289c1.867,1.872,4.4,2.917,7.041,2.917
		c0.054,0,0.102,0,0.156,0c2.694-0.044,5.256-1.177,7.104-3.141l217.029-231.035c12.706,4.947,26.683,7.5,41.49,7.5
		c5.3,0,10.717-0.326,16.206-0.987c35.456-4.255,70.348-21.963,98.248-49.868C501.613,175.859,532.839,70.818,485.251,23.23z
		 M62.546,487.737l-34.761-34.761l218.3-205.069c2.147,2.65,4.365,5.253,6.801,7.689c4.828,4.829,10.093,9.088,15.73,12.771
		L62.546,487.737z M428.921,220.388c-24.764,24.764-55.494,40.449-86.539,44.179c-30.146,3.598-56.933-4.575-75.415-23.052
		c-18.482-18.482-26.67-45.268-23.052-75.415c3.729-31.046,19.415-61.776,44.179-86.539c34.717-34.717,89.919-59.466,133.461-59.466
		c20.062,0,37.654,5.256,49.615,17.217C509.091,75.233,479.635,169.674,428.921,220.388z"/>
	<path style="fill:#314E55;" d="M421.88,72.52c-3.89,3.885-3.89,10.192,0,14.081c23.291,23.3,13.814,70.679-21.127,105.624
		c-3.89,3.89-3.89,10.192,0,14.081c1.945,1.945,4.493,2.917,7.041,2.917c2.548,0,5.096-0.972,7.041-2.917
		c42.706-42.706,52.187-102.721,21.127-133.787C432.072,68.63,425.77,68.63,421.88,72.52z"/>
</g>
<g>
</g>
<g>
</g>
<g>
</g>
<g>
</g>
<g>
</g>
<g>
</g>
<g>
</g>
<g>
</g>
<g>
</g>
<g>
</g>
<g>
</g>
<g>
</g>
<g>
</g>
<g>
</g>
<g>
</g>
</svg>
