<?xml version="1.0" encoding="iso-8859-1"?>
<!-- Generator: Adobe Illustrator 19.0.0, SVG Export Plug-In . SVG Version: 6.00 Build 0)  -->
<svg version="1.1" id="Layer_1" xmlns="http://www.w3.org/2000/svg" xmlns:xlink="http://www.w3.org/1999/xlink" x="0px" y="0px"
	 viewBox="0 0 512 512" style="enable-background:new 0 0 512 512;" xml:space="preserve">
<path style="fill:#EA86A5;" d="M20.577,302.103c0.174,1.418,0.373,2.937,0.569,4.443c0.362,1.72,0.764,3.366,1.244,4.853
	c3.803,11.772,30.37,34.531,68.252,52.239c34.747,16.253,66.606,22.159,83.149,15.507c25.127-10.161,39.376-31.583,55.87-56.396
	c11.04-16.607,22.454-33.784,38.506-50.077c26.493-26.915,85.08-33.588,136.773-39.484c31.514-3.587,61.28-6.977,74.61-14.16
	c11.247-6.063,12.539-21.943,12.303-30.876c-0.87-33.411-24.439-78.702-62.37-96.656c-31.166-14.75-143.986-56.179-287.191,29.814
	C38.152,183.848,15.702,262.912,20.241,301.1C20.323,301.45,20.532,301.738,20.577,302.103z M211.147,139.215
	c1.253-5.424,6.692-8.805,12.072-7.547l34.862,8.045l2.598-34.931c0.413-5.542,5.208-9.787,10.78-9.286
	c5.542,0.413,9.699,5.238,9.286,10.78l-2.828,38.015l19.734,4.554l3.277-44.063c0.408-5.542,5.169-9.787,10.78-9.286
	c5.542,0.413,9.699,5.238,9.286,10.78l-3.507,47.147l36.544,8.433c5.414,1.248,8.79,6.653,7.542,12.067
	c-1.076,4.658-5.218,7.803-9.797,7.803c-0.752,0-1.513-0.078-2.275-0.256l-33.525-7.737l-3.493,46.955
	c-0.393,5.287-4.805,9.316-10.023,9.316c-0.251,0-0.501-0.01-0.757-0.029c-5.542-0.413-9.699-5.238-9.286-10.78l3.722-50.039
	l-19.734-4.554l-4.171,56.087c-0.393,5.287-4.805,9.316-10.023,9.316c-0.251,0-0.501-0.01-0.757-0.029
	c-5.542-0.413-9.699-5.238-9.286-10.78l4.401-59.171l-37.881-8.742C213.275,150.034,209.899,144.629,211.147,139.215z
	 M64.739,221.101c9.158-9.493,21.083-15.3,33.583-16.352c12.952-1.13,25.048,3.027,33.937,11.605
	c8.883,8.589,13.423,20.489,12.785,33.519c-0.614,12.519-5.999,24.646-15.163,34.128c-10.519,10.898-24.326,16.479-37.617,16.479
	c-11.055,0-21.752-3.862-29.908-11.733c-8.883-8.589-13.423-20.489-12.785-33.519C50.19,242.71,55.575,230.584,64.739,221.101z"/>
<path style="fill:#D8D8D8;" d="M115.405,270.028c5.773-5.984,9.163-13.492,9.537-21.147c0.354-7.144-2.015-13.551-6.667-18.042
	c-4.132-3.999-9.723-6.132-15.929-6.132c-0.771,0-1.548,0.029-2.339,0.098c-7.635,0.639-15.02,4.284-20.789,10.269
	c-5.778,5.984-9.168,13.492-9.547,21.147c-0.349,7.144,2.015,13.561,6.667,18.042C86.308,283.904,103.839,281.987,115.405,270.028z"
	/>
<path style="fill:#E25D56;" d="M407.22,253.185c-45.984,5.238-103.21,11.763-124.716,33.598
	c-14.696,14.937-25.569,31.288-36.084,47.109c-17.58,26.444-34.187,51.414-65.083,63.903c-7.341,2.968-15.595,4.186-24.179,4.186
	c-28.296,0-60.208-13.178-75.037-20.106c-18.988-8.881-39.059-20.907-54.368-33.671c4.63,24.808,10.491,48.813,16.25,57.452
	c12.357,18.494,111.548,53.221,154.653,31.043c25.83-13.256,49.561-48.475,68.625-76.766c15.364-22.798,27.495-40.801,39.602-47.159
	c24.449-12.824,85.144-25.658,135.29-35.406c16.557-3.217,28.386-19.085,36.355-36.271
	C461.063,246.985,435.804,249.93,407.22,253.185z"/>
<g>
	<path style="fill:#314E55;" d="M511.973,187.631c-1.017-38.953-27.255-92.253-73.882-114.334
		c-33.455-15.831-154.378-60.395-306.157,30.758C12.613,175.712-3.76,264.222,0.618,304.323c0.008,0.082-0.028,0.155-0.018,0.236
		c1.11,9.06,11.306,89.247,26.67,112.27c13.551,20.292,81.031,46.775,135.231,46.775c17.157,0,32.988-2.653,45.35-9.001
		c30.434-15.624,55.767-53.212,76.123-83.429c12.121-17.983,24.655-36.585,32.266-40.575
		c24.965-13.109,101.112-27.908,129.777-33.48c52.042-10.112,64.606-91.281,65.117-94.73c0.033-0.226-0.052-0.432-0.034-0.657
		C511.753,197.305,512.103,192.636,511.973,187.631z M142.291,121.31c143.205-85.994,256.026-44.564,287.191-29.814
		c37.931,17.953,61.501,63.245,62.37,96.656c0.236,8.933-1.056,24.813-12.303,30.876c-13.33,7.183-43.095,10.574-74.61,14.16
		c-51.693,5.896-110.281,12.568-136.773,39.484c-16.052,16.293-27.466,33.47-38.506,50.077
		c-16.494,24.813-30.743,46.235-55.87,56.396c-16.543,6.653-48.402,0.747-83.149-15.507c-37.882-17.708-64.449-40.466-68.252-52.239
		c-0.48-1.487-0.882-3.133-1.244-4.853c-0.196-1.506-0.395-3.025-0.569-4.443c-0.045-0.364-0.254-0.653-0.337-1.003
		C15.702,262.912,38.152,183.848,142.291,121.31z M442.174,277.369c-50.146,9.748-110.841,22.582-135.29,35.406
		c-12.107,6.358-24.238,24.361-39.602,47.159c-19.064,28.291-42.795,63.51-68.625,76.766
		c-43.105,22.179-142.296-12.549-154.653-31.043c-5.759-8.639-11.621-32.644-16.25-57.452c15.309,12.765,35.38,24.79,54.368,33.671
		c14.828,6.928,46.741,20.106,75.037,20.106c8.584,0,16.838-1.219,24.179-4.186c30.895-12.49,47.502-37.459,65.083-63.903
		c10.515-15.821,21.388-32.173,36.084-47.109c21.506-21.835,78.732-28.36,124.716-33.598c28.584-3.255,53.843-6.2,71.308-12.087
		C470.56,258.284,458.731,274.152,442.174,277.369z"/>
	<path style="fill:#314E55;" d="M92.263,300.481c13.291,0,27.097-5.582,37.617-16.479c9.163-9.483,14.548-21.609,15.163-34.128
		c0.639-13.03-3.901-24.931-12.785-33.519c-8.888-8.579-20.985-12.735-33.937-11.605c-12.5,1.052-24.424,6.859-33.583,16.352
		c-9.163,9.483-14.548,21.609-15.168,34.128c-0.639,13.03,3.901,24.931,12.785,33.519C70.512,296.619,81.208,300.481,92.263,300.481
		z M79.218,235.074c5.768-5.984,13.153-9.63,20.789-10.269c0.791-0.069,1.567-0.098,2.339-0.098c6.206,0,11.797,2.133,15.929,6.132
		c4.653,4.491,7.021,10.898,6.667,18.042c-0.373,7.655-3.764,15.163-9.537,21.147c-11.566,11.959-29.097,13.875-39.066,4.235
		c-4.653-4.481-7.016-10.898-6.667-18.042C70.05,248.567,73.44,241.059,79.218,235.074z"/>
	<path style="fill:#314E55;" d="M218.689,151.282l37.881,8.742l-4.401,59.171c-0.413,5.542,3.744,10.367,9.286,10.78
		c0.256,0.02,0.506,0.029,0.757,0.029c5.218,0,9.63-4.029,10.023-9.316l4.171-56.087l19.734,4.554l-3.722,50.039
		c-0.413,5.542,3.744,10.367,9.286,10.78c0.256,0.02,0.506,0.029,0.757,0.029c5.218,0,9.63-4.029,10.023-9.316l3.493-46.955
		l33.524,7.737c0.762,0.177,1.523,0.256,2.275,0.256c4.579,0,8.721-3.144,9.797-7.803c1.248-5.414-2.128-10.819-7.542-12.067
		l-36.544-8.433l3.507-47.147c0.413-5.542-3.744-10.367-9.286-10.78c-5.611-0.501-10.372,3.744-10.78,9.286l-3.277,44.063
		l-19.734-4.554l2.828-38.015c0.413-5.542-3.744-10.367-9.286-10.78c-5.572-0.501-10.367,3.744-10.78,9.286l-2.598,34.931
		l-34.862-8.045c-5.38-1.258-10.819,2.123-12.072,7.547C209.899,144.629,213.275,150.034,218.689,151.282z"/>
</g>
<g>
</g>
<g>
</g>
<g>
</g>
<g>
</g>
<g>
</g>
<g>
</g>
<g>
</g>
<g>
</g>
<g>
</g>
<g>
</g>
<g>
</g>
<g>
</g>
<g>
</g>
<g>
</g>
<g>
</g>
</svg>
