<?xml version="1.0" encoding="iso-8859-1"?>
<!-- Generator: Adobe Illustrator 19.0.0, SVG Export Plug-In . SVG Version: 6.00 Build 0)  -->
<svg version="1.1" id="Layer_1" xmlns="http://www.w3.org/2000/svg" xmlns:xlink="http://www.w3.org/1999/xlink" x="0px" y="0px"
	 viewBox="0 0 512 512" style="enable-background:new 0 0 512 512;" xml:space="preserve">
<rect x="230.948" y="20.042" style="fill:#F28544;" width="70.146" height="80.166"/>
<polygon style="fill:#E9E7D1;" points="375.584,120.25 311.114,120.25 220.927,120.25 146.437,120.25 98.334,200.416 
	423.687,200.416 "/>
<path style="fill:#F28544;" d="M80.636,220.457H40.553v60.125h430.894v-60.125h-30.062H80.636z M341.177,250.52
	c0,5.539-4.487,10.021-10.021,10.021h-10.021c-5.534,0-10.021-4.482-10.021-10.021v-10.021c0-5.539,4.487-10.021,10.021-10.021
	h10.021c5.534,0,10.021,4.482,10.021,10.021V250.52z M381.26,250.52c0,5.539-4.487,10.021-10.021,10.021h-10.021
	c-5.534,0-10.021-4.482-10.021-10.021v-10.021c0-5.539,4.487-10.021,10.021-10.021h10.021c5.534,0,10.021,4.482,10.021,10.021
	V250.52z M421.343,250.52c0,5.539-4.487,10.021-10.021,10.021h-10.021c-5.534,0-10.021-4.482-10.021-10.021v-10.021
	c0-5.539,4.487-10.021,10.021-10.021h10.021c5.534,0,10.021,4.482,10.021,10.021V250.52z"/>
<g>
	<path style="fill:#314E55;" d="M481.468,200.416h-34.409l-57.207-95.344c-1.81-3.014-5.074-4.864-8.592-4.864h-60.125V10.021
		C321.135,4.482,316.648,0,311.114,0h-90.187c-5.534,0-10.021,4.482-10.021,10.021v90.187h-70.146c-3.518,0-6.782,1.85-8.592,4.864
		l-57.207,95.344h-44.43c-5.534,0-10.021,4.482-10.021,10.021v80.166c0,5.539,4.487,10.021,10.021,10.021h450.936
		c5.534,0,10.021-4.482,10.021-10.021v-80.166C491.489,204.898,487.002,200.416,481.468,200.416z M230.948,20.042h70.146v80.166
		h-70.146V20.042z M146.437,120.25h74.491h90.187h64.47l48.103,80.166H98.334L146.437,120.25z M471.447,280.582H40.553v-60.125
		h40.083h360.749h30.062V280.582z"/>
	<path style="fill:#314E55;" d="M411.322,230.478h-10.021c-5.534,0-10.021,4.482-10.021,10.021v10.021
		c0,5.539,4.487,10.021,10.021,10.021h10.021c5.534,0,10.021-4.482,10.021-10.021v-10.021
		C421.343,234.96,416.856,230.478,411.322,230.478z"/>
	<path style="fill:#314E55;" d="M371.239,230.478h-10.021c-5.534,0-10.021,4.482-10.021,10.021v10.021
		c0,5.539,4.487,10.021,10.021,10.021h10.021c5.534,0,10.021-4.482,10.021-10.021v-10.021
		C381.26,234.96,376.773,230.478,371.239,230.478z"/>
	<path style="fill:#314E55;" d="M331.156,230.478h-10.021c-5.534,0-10.021,4.482-10.021,10.021v10.021
		c0,5.539,4.487,10.021,10.021,10.021h10.021c5.534,0,10.021-4.482,10.021-10.021v-10.021
		C341.177,234.96,336.69,230.478,331.156,230.478z"/>
	<path style="fill:#314E55;" d="M214.336,321.595c-0.881,0.411-21.637,10.275-30.038,34.368
		c-6.605,18.955-3.792,40.847,8.367,65.057c26.877,53.519,1.052,71.809,0.073,72.475c-4.682,2.955-6.092,9.14-3.141,13.827
		c1.903,3.024,5.162,4.678,8.489,4.678c1.825,0,3.67-0.499,5.329-1.536c1.757-1.106,42.588-27.89,7.158-98.447
		c-9.566-19.044-12.071-35.591-7.442-49.174c5.441-15.99,19.406-22.948,19.704-23.095c4.976-2.349,7.129-8.279,4.81-13.28
		C225.316,321.439,219.352,319.256,214.336,321.595z"/>
	<path style="fill:#314E55;" d="M264.44,321.595c-0.881,0.411-21.637,10.275-30.038,34.368c-6.605,18.955-3.792,40.847,8.367,65.057
		c26.877,53.519,1.052,71.809,0.073,72.475c-4.682,2.955-6.092,9.14-3.141,13.827c1.903,3.024,5.162,4.678,8.489,4.678
		c1.825,0,3.67-0.499,5.329-1.536c1.757-1.106,42.588-27.89,7.158-98.447c-9.566-19.044-12.071-35.591-7.442-49.174
		c5.441-15.99,19.406-22.948,19.704-23.095c4.976-2.349,7.129-8.279,4.81-13.28C275.415,321.439,269.451,319.256,264.44,321.595z"/>
	<path style="fill:#314E55;" d="M314.544,321.595c-0.881,0.411-21.637,10.275-30.038,34.368
		c-6.605,18.955-3.792,40.847,8.367,65.057c26.877,53.519,1.052,71.809,0.073,72.475c-4.682,2.955-6.092,9.14-3.141,13.827
		c1.903,3.024,5.162,4.678,8.489,4.678c1.825,0,3.67-0.499,5.329-1.536c1.757-1.106,42.588-27.89,7.158-98.447
		c-9.566-19.044-12.071-35.591-7.442-49.174c5.441-15.99,19.406-22.948,19.704-23.095c4.976-2.349,7.129-8.279,4.81-13.28
		C325.519,321.439,319.555,319.256,314.544,321.595z"/>
</g>
<g>
</g>
<g>
</g>
<g>
</g>
<g>
</g>
<g>
</g>
<g>
</g>
<g>
</g>
<g>
</g>
<g>
</g>
<g>
</g>
<g>
</g>
<g>
</g>
<g>
</g>
<g>
</g>
<g>
</g>
</svg>
