<?xml version="1.0" encoding="iso-8859-1"?>
<!-- Generator: Adobe Illustrator 19.0.0, SVG Export Plug-In . SVG Version: 6.00 Build 0)  -->
<svg version="1.1" id="Layer_1" xmlns="http://www.w3.org/2000/svg" xmlns:xlink="http://www.w3.org/1999/xlink" x="0px" y="0px"
	 viewBox="0 0 512 512" style="enable-background:new 0 0 512 512;" xml:space="preserve">
<path style="fill:#DBCF56;" d="M450.138,141.241H61.862c-0.043,1.715-0.069,3.44-0.069,5.173
	c0,79.879,47.698,150.431,121.655,180.207h145.103c73.957-29.776,121.655-100.328,121.655-180.207
	C450.207,144.681,450.181,142.957,450.138,141.241z M379.586,158.897h26.483v17.655h-26.483V158.897z M388.414,194.207v17.655
	h-26.483v-17.655H388.414z M344.276,158.897h26.483v17.655h-26.483V158.897z M353.103,194.207v17.655h-26.483v-17.655H353.103z
	 M308.966,158.897h26.483v17.655h-26.483V158.897z M317.793,194.207v17.655H291.31v-17.655H317.793z M273.655,158.897h26.483v17.655
	h-26.483V158.897z M282.483,194.207v17.655H256v-17.655H282.483z M238.345,158.897h26.483v17.655h-26.483V158.897z M247.172,194.207
	v17.655H220.69v-17.655H247.172z M203.034,158.897h26.483v17.655h-26.483V158.897z M211.862,194.207v17.655h-26.483v-17.655H211.862
	z M167.724,158.897h26.483v17.655h-26.483V158.897z M176.552,194.207v17.655h-26.483v-17.655H176.552z M132.414,158.897h26.483
	v17.655h-26.483V158.897z M97.103,158.897h26.483v17.655H97.103V158.897z M105.931,211.862H79.448v-17.655h26.483V211.862z
	 M114.759,211.862v-17.655h26.483v17.655H114.759z M158.897,247.172h-26.483v-17.655h26.483V247.172z M194.207,282.483h-26.483
	v-17.655h26.483V282.483z M194.207,247.172h-26.483v-17.655h26.483V247.172z M229.517,282.483h-26.483v-17.655h26.483V282.483z
	 M229.517,247.172h-26.483v-17.655h26.483V247.172z M264.828,282.483h-26.483v-17.655h26.483V282.483z M264.828,247.172h-26.483
	v-17.655h26.483V247.172z M300.138,282.483h-26.483v-17.655h26.483V282.483z M300.138,247.172h-26.483v-17.655h26.483V247.172z
	 M335.448,282.483h-26.483v-17.655h26.483V282.483z M335.448,247.172h-26.483v-17.655h26.483V247.172z M370.759,247.172h-26.483
	v-17.655h26.483V247.172z M397.328,247.172h-17.655l-0.086-17.655h17.741V247.172z M423.724,211.862h-26.483v-17.655h26.483V211.862
	z"/>
<polygon style="fill:#D8D8D8;" points="187.819,344.276 179.673,370.759 332.328,370.759 324.181,344.276 "/>
<g>
	<rect x="167.724" y="158.897" style="fill:#314E55;" width="26.483" height="17.655"/>
	<rect x="203.034" y="158.897" style="fill:#314E55;" width="26.483" height="17.655"/>
	<rect x="273.655" y="158.897" style="fill:#314E55;" width="26.483" height="17.655"/>
	<rect x="379.586" y="158.897" style="fill:#314E55;" width="26.483" height="17.655"/>
	<rect x="238.345" y="158.897" style="fill:#314E55;" width="26.483" height="17.655"/>
	<rect x="308.966" y="158.897" style="fill:#314E55;" width="26.483" height="17.655"/>
	<rect x="97.103" y="158.897" style="fill:#314E55;" width="26.483" height="17.655"/>
	<rect x="344.276" y="158.897" style="fill:#314E55;" width="26.483" height="17.655"/>
	<rect x="132.414" y="158.897" style="fill:#314E55;" width="26.483" height="17.655"/>
	<rect x="238.345" y="229.517" style="fill:#314E55;" width="26.483" height="17.655"/>
	<rect x="167.724" y="229.517" style="fill:#314E55;" width="26.483" height="17.655"/>
	<rect x="344.276" y="229.517" style="fill:#314E55;" width="26.483" height="17.655"/>
	<rect x="203.034" y="229.517" style="fill:#314E55;" width="26.483" height="17.655"/>
	<polygon style="fill:#314E55;" points="379.672,247.172 397.328,247.172 397.328,229.517 379.586,229.517 	"/>
	<rect x="273.655" y="229.517" style="fill:#314E55;" width="26.483" height="17.655"/>
	<rect x="132.414" y="229.517" style="fill:#314E55;" width="26.483" height="17.655"/>
	<rect x="308.966" y="229.517" style="fill:#314E55;" width="26.483" height="17.655"/>
	<rect x="238.345" y="264.828" style="fill:#314E55;" width="26.483" height="17.655"/>
	<rect x="167.724" y="264.828" style="fill:#314E55;" width="26.483" height="17.655"/>
	<rect x="273.655" y="264.828" style="fill:#314E55;" width="26.483" height="17.655"/>
	<rect x="308.966" y="264.828" style="fill:#314E55;" width="26.483" height="17.655"/>
	<rect x="203.034" y="264.828" style="fill:#314E55;" width="26.483" height="17.655"/>
	<rect x="361.931" y="194.207" style="fill:#314E55;" width="26.483" height="17.655"/>
	<rect x="326.621" y="194.207" style="fill:#314E55;" width="26.483" height="17.655"/>
	<rect x="256" y="194.207" style="fill:#314E55;" width="26.483" height="17.655"/>
	<rect x="291.31" y="194.207" style="fill:#314E55;" width="26.483" height="17.655"/>
	<rect x="185.379" y="194.207" style="fill:#314E55;" width="26.483" height="17.655"/>
	<rect x="397.241" y="194.207" style="fill:#314E55;" width="26.483" height="17.655"/>
	<rect x="114.759" y="194.207" style="fill:#314E55;" width="26.483" height="17.655"/>
	<rect x="220.69" y="194.207" style="fill:#314E55;" width="26.483" height="17.655"/>
	<rect x="79.448" y="194.207" style="fill:#314E55;" width="26.483" height="17.655"/>
	<rect x="150.069" y="194.207" style="fill:#314E55;" width="26.483" height="17.655"/>
	<path style="fill:#314E55;" d="M503.172,167.724h-36.487c0.696-7.032,1.177-14.12,1.177-21.31c0-4.905-0.172-9.767-0.491-14.586
		c-0.31-4.638-4.164-8.241-8.81-8.241H53.44c-4.647,0-8.5,3.603-8.81,8.241c-0.319,4.819-0.491,9.681-0.491,14.586
		c0,7.19,0.482,14.278,1.177,21.31H8.828c-4.879,0-8.828,3.948-8.828,8.828s3.948,8.828,8.828,8.828h38.993
		c12.578,68.355,57.782,126.238,122.781,154.822l-11.317,36.791c-0.819,2.681-0.327,5.586,1.336,7.836
		c1.664,2.258,4.302,3.586,7.104,3.586h176.552c2.802,0,5.44-1.328,7.104-3.586c1.664-2.25,2.155-5.155,1.336-7.836l-11.317-36.79
		c64.999-28.584,110.203-86.466,122.781-154.822h38.993c4.879,0,8.828-3.948,8.828-8.828S508.052,167.724,503.172,167.724z
		 M179.673,370.759l8.147-26.483h136.362l8.147,26.483H179.673z M328.552,326.621H183.448
		C109.491,296.845,61.793,226.293,61.793,146.414c0-1.733,0.026-3.457,0.069-5.173h388.276c0.043,1.715,0.069,3.44,0.069,5.173
		C450.207,226.293,402.509,296.845,328.552,326.621z"/>
</g>
<g>
</g>
<g>
</g>
<g>
</g>
<g>
</g>
<g>
</g>
<g>
</g>
<g>
</g>
<g>
</g>
<g>
</g>
<g>
</g>
<g>
</g>
<g>
</g>
<g>
</g>
<g>
</g>
<g>
</g>
</svg>
