<?xml version="1.0" encoding="iso-8859-1"?>
<!-- Generator: Adobe Illustrator 19.0.0, SVG Export Plug-In . SVG Version: 6.00 Build 0)  -->
<svg version="1.1" id="Layer_1" xmlns="http://www.w3.org/2000/svg" xmlns:xlink="http://www.w3.org/1999/xlink" x="0px" y="0px"
	 viewBox="0 0 512 512" style="enable-background:new 0 0 512 512;" xml:space="preserve">
<path style="fill:#5ECC66;" d="M212.953,130.544c12.507,0.758,25.27,2.635,38.108,5.919c15.885-3.832,31.979-5.613,47.735-5.743
	c0.503-1.178,1.24-2.275,2.224-3.215c23.83-22.754,52.467-60.774,44.266-72.97c-1.023-1.528-1.595-1.533-2.176-1.48
	c-9.497,0-31.813,22.43-46.76,43.461c-2.513,3.537-7.083,4.97-11.167,3.556c-4.098-1.433-6.755-5.408-6.517-9.74l2.385-43.009
	L250.828,96.01c-2.785,4.489-8.645,5.955-13.2,3.275c-4.56-2.666-6.169-8.478-3.627-13.11c1.366-2.67,7.455-17.28-12.919-31.17
	c-4.289-2.918-8.354-3.775-12.81-2.732c-10.477,2.48-20.564,14.709-25.862,22.635l30.194,54.529
	C212.798,129.789,212.805,130.18,212.953,130.544z"/>
<path style="fill:#E65F58;" d="M253.393,155.971c-1.623,0.414-3.308,0.4-4.927-0.033c-15.614-4.189-31.361-6.255-46.484-6.255
	c-24.782,0-47.898,5.536-66.082,16.323c-19.541,11.586-32.531,28.695-37.572,49.474c-16.561,68.291,20.669,148.596,61.031,200.978
	c34.655,44.975,75.117,75.536,100.689,76.04c0.138,0.005,0.281,0.005,0.424,0.005c21.312,0,56.252-31.261,89.226-79.891
	c46.289-68.276,82.605-162.406,62.455-210.199C396.52,165.329,327.492,137.149,253.393,155.971z M255.293,213.879h-19.498v-19.498
	h19.498V213.879z M284.54,194.381h19.498v19.498H284.54V194.381z M265.042,223.628h19.498v19.498h-19.498V223.628z M294.289,272.373
	h-19.498v-19.498h19.498V272.373z M323.536,252.875h-19.498v-19.498h19.498V252.875z M323.536,204.13h19.498v19.498h-19.498V204.13z
	 M362.532,252.875h-19.498v-19.498h19.498V252.875z M382.03,213.879h-19.498v-19.498h19.498V213.879z"/>
<g>
	<path style="fill:#314E55;" d="M430.118,194.833c-14.395-34.145-56.61-57.24-106.065-62.85
		c19.327-20.332,54.5-62.928,37.408-88.331c-4.313-6.417-10.72-10.001-18.032-10.092c-14.3-0.338-30.889,14.043-43.632,27.819
		l2.832-51.087c0.248-4.446-2.556-8.497-6.802-9.835c-4.275-1.352-8.873,0.367-11.215,4.156L250.78,59.119
		c-3.542-6.921-9.444-13.9-18.722-20.222c-8.769-5.979-18.56-7.916-28.338-5.584c-23.402,5.579-39.386,33.46-41.134,36.621
		c-1.619,2.937-1.619,6.498,0.005,9.435l28.348,51.201c-24.005,1.448-46.353,7.607-64.983,18.665
		c-24.163,14.328-40.267,35.645-46.574,61.645c-15.447,63.692,8.678,144.993,64.53,217.482
		c39.258,50.949,83.609,82.995,115.746,83.633c0.271,0.005,0.533,0.005,0.805,0.005c40.957-0.005,87.279-61.759,105.373-88.45
		C413.562,353.155,454.034,251.557,430.118,194.833z M208.271,52.273c4.456-1.042,8.521-0.186,12.81,2.732
		c20.374,13.89,14.285,28.5,12.919,31.17c-2.542,4.632-0.933,10.444,3.627,13.11c4.555,2.68,10.415,1.214,13.2-3.275l30.223-48.688
		l-2.385,43.009c-0.238,4.332,2.418,8.307,6.517,9.74c4.084,1.414,8.654-0.019,11.167-3.556
		c14.947-21.031,37.263-43.461,46.76-43.461c0.581-0.052,1.152-0.048,2.176,1.48c8.202,12.196-20.436,50.216-44.266,72.97
		c-0.984,0.94-1.721,2.037-2.224,3.215c-15.755,0.13-31.85,1.911-47.735,5.743c-12.838-3.285-25.601-5.161-38.108-5.919
		c-0.147-0.364-0.154-0.755-0.35-1.107l-30.194-54.529C187.707,66.982,197.793,54.753,208.271,52.273z M349.698,412.611
		c-32.974,48.631-67.915,79.891-89.226,79.891c-0.143,0-0.286,0-0.424-0.005c-25.572-0.505-66.034-31.065-100.689-76.04
		c-40.362-52.382-77.592-132.687-61.031-200.978c5.041-20.779,18.032-37.887,37.573-49.473c18.184-10.787,41.3-16.323,66.082-16.323
		c15.123,0,30.87,2.066,46.484,6.255c1.619,0.433,3.304,0.447,4.927,0.033c74.098-18.822,143.127,9.359,158.759,46.441
		C432.303,250.205,395.987,344.334,349.698,412.611z"/>
	<rect x="235.805" y="194.371" style="fill:#314E55;" width="19.498" height="19.498"/>
	<rect x="265.052" y="223.618" style="fill:#314E55;" width="19.498" height="19.498"/>
	<rect x="284.55" y="194.371" style="fill:#314E55;" width="19.498" height="19.498"/>
	<rect x="304.048" y="233.367" style="fill:#314E55;" width="19.498" height="19.498"/>
	<rect x="362.542" y="194.371" style="fill:#314E55;" width="19.498" height="19.498"/>
	<rect x="323.546" y="204.12" style="fill:#314E55;" width="19.498" height="19.498"/>
	<rect x="343.044" y="233.367" style="fill:#314E55;" width="19.498" height="19.498"/>
	<rect x="274.801" y="252.865" style="fill:#314E55;" width="19.498" height="19.498"/>
</g>
<g>
</g>
<g>
</g>
<g>
</g>
<g>
</g>
<g>
</g>
<g>
</g>
<g>
</g>
<g>
</g>
<g>
</g>
<g>
</g>
<g>
</g>
<g>
</g>
<g>
</g>
<g>
</g>
<g>
</g>
</svg>
