<?xml version="1.0" encoding="iso-8859-1"?>
<!-- Generator: Adobe Illustrator 19.0.0, SVG Export Plug-In . SVG Version: 6.00 Build 0)  -->
<svg version="1.1" id="Layer_1" xmlns="http://www.w3.org/2000/svg" xmlns:xlink="http://www.w3.org/1999/xlink" x="0px" y="0px"
	 viewBox="0 0 512 512" style="enable-background:new 0 0 512 512;" xml:space="preserve">
<path style="fill:#DBCF56;" d="M256,229.513c-104.129,0-189.371,82.379-194.009,185.379h388.017
	C445.371,311.892,360.129,229.513,256,229.513z M201.078,274.565c-37.853,13.94-68.741,41.491-86.983,77.582
	c-1.552,3.073-4.664,4.845-7.888,4.845c-1.336,0-2.698-0.306-3.974-0.948c-4.354-2.202-6.095-7.509-3.896-11.862
	c20.267-40.086,54.586-70.694,96.638-86.185c4.569-1.677,9.647,0.651,11.336,5.233C207.991,267.806,205.655,272.88,201.078,274.565z
	"/>
<path style="fill:#E4AD40;" d="M260.414,211.858c12.172,0,22.069-9.901,22.069-22.069c0-12.168-9.897-22.069-22.069-22.069
	s-22.069,9.901-22.069,22.069C238.345,201.957,248.241,211.858,260.414,211.858z"/>
<g>
	<path style="fill:#314E55;" d="M52.966,432.548h406.069c4.879,0,8.828-3.953,8.828-8.828c0-104.888-76.637-192.17-176.845-208.916
		c5.611-6.852,9.121-15.487,9.121-25.015c0-21.905-17.819-39.724-39.724-39.724s-39.724,17.819-39.724,39.724
		c0,8.992,3.117,17.201,8.173,23.866C124.821,227.028,44.138,316.1,44.138,423.72C44.138,428.595,48.086,432.548,52.966,432.548z
		 M260.414,167.72c12.172,0,22.069,9.901,22.069,22.069c0,12.168-9.897,22.069-22.069,22.069s-22.069-9.901-22.069-22.069
		C238.345,177.621,248.241,167.72,260.414,167.72z M256,229.513c104.129,0,189.371,82.379,194.009,185.379H61.991
		C66.629,311.892,151.871,229.513,256,229.513z"/>
	<path style="fill:#314E55;" d="M194.974,257.996c-42.052,15.491-76.371,46.099-96.638,86.185c-2.198,4.354-0.457,9.66,3.896,11.862
		c1.276,0.642,2.638,0.948,3.974,0.948c3.224,0,6.336-1.771,7.888-4.845c18.241-36.09,49.129-63.642,86.983-77.582
		c4.578-1.685,6.914-6.759,5.233-11.336C204.621,258.647,199.543,256.319,194.974,257.996z"/>
	<polygon style="fill:#314E55;" points="512,450.203 485.517,450.203 467.862,450.203 44.138,450.203 26.483,450.203 0,450.203 
		0,467.858 26.483,467.858 26.483,503.168 44.138,503.168 44.138,467.858 467.862,467.858 467.862,503.168 485.517,503.168 
		485.517,467.858 512,467.858 	"/>
	<path style="fill:#314E55;" d="M232.448,105.336c-1.983,7.599-8.802,10.918-9,11.013c-4.448,1.987-6.457,7.203-4.465,11.655
		c1.457,3.289,4.69,5.241,8.069,5.241c1.198,0,2.414-0.25,3.586-0.767c1.474-0.659,14.569-6.884,18.793-22.289
		c3.56-13.004-0.5-27.858-12.069-44.151c-6.845-9.642-9.224-17.897-7.069-24.526c3.397-10.5,17.207-15.358,17.577-15.487
		c4.612-1.53,7.121-6.509,5.604-11.129c-1.526-4.625-6.509-7.125-11.138-5.634c-0.922,0.302-22.509,7.586-28.793,26.66
		c-4.043,12.263-0.871,25.832,9.422,40.332C231.129,87.759,234.414,97.815,232.448,105.336z"/>
	<path style="fill:#314E55;" d="M288.647,92.936c-1.112,4.384-5.121,6.392-5.164,6.414c-4.448,1.983-6.457,7.203-4.465,11.655
		c1.457,3.289,4.69,5.241,8.069,5.241c1.198-0.004,2.414-0.25,3.586-0.767c1.172-0.526,11.612-5.483,14.957-17.715
		c2.784-10.151-0.276-21.595-9.095-34.009c-3.078-4.336-6.405-10.56-4.793-15.573c1.733-5.366,8.655-8.793,11.19-9.668
		c4.612-1.534,7.112-6.504,5.595-11.125c-1.526-4.625-6.509-7.125-11.138-5.634c-1.784,0.586-17.552,6.138-22.396,20.845
		c-3.181,9.655-0.776,20.207,7.147,31.375C287.595,81.66,289.845,88.22,288.647,92.936z"/>
</g>
<g>
</g>
<g>
</g>
<g>
</g>
<g>
</g>
<g>
</g>
<g>
</g>
<g>
</g>
<g>
</g>
<g>
</g>
<g>
</g>
<g>
</g>
<g>
</g>
<g>
</g>
<g>
</g>
<g>
</g>
</svg>
