<?xml version="1.0" encoding="iso-8859-1"?>
<!-- Generator: Adobe Illustrator 19.0.0, SVG Export Plug-In . SVG Version: 6.00 Build 0)  -->
<svg version="1.1" id="Layer_1" xmlns="http://www.w3.org/2000/svg" xmlns:xlink="http://www.w3.org/1999/xlink" x="0px" y="0px"
	 viewBox="0 0 511.984 511.984" style="enable-background:new 0 0 511.984 511.984;" xml:space="preserve">
<g>
	<path style="fill:#F28544;" d="M160.632,370.549c68.46,0,110.496-20.597,110.496-35.359s-42.036-35.359-110.496-35.359
		S50.136,320.429,50.136,335.191S92.172,370.549,160.632,370.549z M156.212,308.672c25.543,0,53.038,8.296,53.038,26.519
		c0,18.223-27.494,26.519-53.038,26.519s-53.038-8.296-53.038-26.519C103.174,316.968,130.669,308.672,156.212,308.672z"/>
	<path style="fill:#F28544;" d="M160.632,388.229c-48.59,0-99.418-11.413-119.335-32.844v113.817
		c0.604,0.388,1.165,0.855,1.666,1.398c10.717,11.49,55.602,23.705,117.669,23.705s106.952-12.215,117.669-23.705
		c0.501-0.544,1.062-1.01,1.666-1.398V355.384C260.05,376.815,209.222,388.229,160.632,388.229z"/>
</g>
<path style="fill:#EA86A5;" d="M191.35,335.191c-2.279-2.892-14.39-8.84-35.138-8.84s-32.859,5.948-35.138,8.84
	c2.279,2.892,14.39,8.84,35.138,8.84S189.071,338.083,191.35,335.191z"/>
<g>
	<path style="fill:#314E55;" d="M288.807,317.512c-2.012,0-3.777,0.79-5.263,1.922c-16.651-24.298-71.067-37.281-122.912-37.281
		S54.372,295.136,37.72,319.434c-1.486-1.132-3.251-1.922-5.263-1.922c-4.882,0-8.84,3.954-8.84,8.84v150.274
		c0,4.886,3.958,8.84,8.84,8.84h0.544c21.637,18.292,78.681,26.519,127.631,26.519s105.994-8.227,127.631-26.519h0.544
		c4.882,0,8.84-3.954,8.84-8.84V326.351C297.646,321.465,293.688,317.512,288.807,317.512z M160.632,299.832
		c68.46,0,110.496,20.597,110.496,35.359s-42.036,35.359-110.496,35.359S50.136,349.952,50.136,335.191
		S92.172,299.832,160.632,299.832z M278.301,470.6c-10.717,11.49-55.602,23.705-117.669,23.705S53.68,482.09,42.963,470.6
		c-0.501-0.544-1.062-1.01-1.666-1.398V355.384c19.917,21.431,70.745,32.844,119.335,32.844s99.418-11.414,119.335-32.844v113.817
		C279.363,469.59,278.802,470.056,278.301,470.6z"/>
	<path style="fill:#314E55;" d="M156.212,361.71c25.543,0,53.038-8.296,53.038-26.519c0-18.223-27.494-26.519-53.038-26.519
		s-53.038,8.296-53.038,26.519C103.174,353.414,130.669,361.71,156.212,361.71z M156.212,326.351c20.748,0,32.859,5.948,35.138,8.84
		c-2.279,2.892-14.39,8.84-35.138,8.84s-32.859-5.948-35.138-8.84C123.353,332.299,135.464,326.351,156.212,326.351z"/>
	
		<rect x="12.174" y="114.211" transform="matrix(-0.8876 0.4606 -0.4606 -0.8876 551.7781 111.4587)" style="fill:#314E55;" width="500.232" height="17.679"/>
	
		<rect x="22.919" y="167.238" transform="matrix(-0.9171 0.3987 -0.3987 -0.9171 564.5583 234.7436)" style="fill:#314E55;" width="469.901" height="17.677"/>
</g>
<g>
</g>
<g>
</g>
<g>
</g>
<g>
</g>
<g>
</g>
<g>
</g>
<g>
</g>
<g>
</g>
<g>
</g>
<g>
</g>
<g>
</g>
<g>
</g>
<g>
</g>
<g>
</g>
<g>
</g>
</svg>
