<?xml version="1.0" encoding="iso-8859-1"?>
<!-- Generator: Adobe Illustrator 19.0.0, SVG Export Plug-In . SVG Version: 6.00 Build 0)  -->
<svg version="1.1" id="Layer_1" xmlns="http://www.w3.org/2000/svg" xmlns:xlink="http://www.w3.org/1999/xlink" x="0px" y="0px"
	 viewBox="0 0 512 512" style="enable-background:new 0 0 512 512;" xml:space="preserve">
<path style="fill:#E25D56;" d="M223.418,191.947c-20.532,0-37.236,16.7-37.236,37.236s16.704,37.236,37.236,37.236
	s37.236-16.7,37.236-37.236S243.95,191.947,223.418,191.947z M223.418,247.801c-10.268,0-18.618-8.354-18.618-18.618
	c0-10.264,8.35-18.618,18.618-18.618c10.268,0,18.618,8.354,18.618,18.618S233.686,247.801,223.418,247.801z"/>
<polygon style="fill:#EAEAEA;" points="420.581,136.092 392.345,136.092 372.434,204.874 "/>
<g>
	<path style="fill:#E25D56;" d="M139.636,322.274c-20.532,0-37.236,16.7-37.236,37.236c0,20.536,16.704,37.236,37.236,37.236
		s37.236-16.7,37.236-37.236C176.873,338.974,160.168,322.274,139.636,322.274z M139.636,378.128
		c-10.268,0-18.618-8.354-18.618-18.618s8.35-18.618,18.618-18.618c10.268,0,18.618,8.354,18.618,18.618
		C158.255,369.774,149.905,378.128,139.636,378.128z"/>
	<path style="fill:#E25D56;" d="M409.6,340.892c-20.532,0-37.236,16.7-37.236,37.236s16.704,37.236,37.236,37.236
		s37.236-16.7,37.236-37.236S430.132,340.892,409.6,340.892z M409.6,396.747c-10.268,0-18.618-8.354-18.618-18.618
		s8.35-18.618,18.618-18.618s18.618,8.354,18.618,18.618S419.868,396.747,409.6,396.747z"/>
</g>
<path style="fill:#EAEAEA;" d="M474.75,136.092h-31.448l-86.89,124.129l-42.858,148.053l-17.886-5.173l27.692-95.663l-32.492,46.418
	l-15.25-10.673l63.764-91.092l33.579-115.999H37.25c-10.273,0-18.632,8.336-18.632,18.582v288.654
	c0,10.245,8.359,18.582,18.632,18.582h437.5c10.273,0,18.632-8.336,18.632-18.582V154.674
	C493.382,144.429,485.023,136.092,474.75,136.092z M46.545,229.183c0-30.8,25.054-55.855,55.855-55.855s55.855,25.054,55.855,55.855
	S133.2,285.037,102.4,285.037S46.545,259.983,46.545,229.183z M139.636,415.365c-30.8,0-55.855-25.054-55.855-55.855
	s25.054-55.855,55.855-55.855s55.855,25.054,55.855,55.855S170.436,415.365,139.636,415.365z M223.418,285.037
	c-30.8,0-55.855-25.055-55.855-55.855s25.054-55.855,55.855-55.855s55.855,25.054,55.855,55.855S254.218,285.037,223.418,285.037z
	 M409.6,433.983c-30.8,0-55.855-25.054-55.855-55.855s25.054-55.855,55.855-55.855s55.855,25.054,55.855,55.855
	S440.4,433.983,409.6,433.983z"/>
<path style="fill:#E25D56;" d="M139.636,229.183c0-20.536-16.704-37.236-37.236-37.236s-37.236,16.7-37.236,37.236
	s16.704,37.236,37.236,37.236S139.636,249.719,139.636,229.183z M83.782,229.183c0-10.264,8.35-18.618,18.618-18.618
	s18.618,8.354,18.618,18.618c0,10.264-8.35,18.618-18.618,18.618S83.782,239.447,83.782,229.183z"/>
<g>
	<path style="fill:#314E55;" d="M474.75,117.474h-18.415l40.702-58.146l-15.25-10.673l-48.173,68.818h-35.88l23.398-80.827
		l-17.886-5.173l-24.895,86H37.25c-20.541,0-37.25,16.691-37.25,37.2v288.654c0,20.509,16.709,37.2,37.25,37.2h437.5
		c20.541,0,37.25-16.691,37.25-37.2V154.674C512,134.165,495.291,117.474,474.75,117.474z M420.581,136.092l-48.147,68.782
		l19.911-68.782H420.581z M493.382,443.329c0,10.245-8.359,18.582-18.632,18.582H37.25c-10.273,0-18.632-8.336-18.632-18.582
		V154.674c0-10.245,8.359-18.582,18.632-18.582h335.711l-33.579,115.999l-63.764,91.092l15.25,10.673l32.492-46.418l-27.692,95.663
		l17.886,5.173l42.858-148.053l86.89-124.128h31.448c10.273,0,18.632,8.336,18.632,18.582V443.329L493.382,443.329z"/>
	<path style="fill:#314E55;" d="M158.255,229.183c0-30.8-25.055-55.855-55.855-55.855s-55.855,25.054-55.855,55.855
		S71.6,285.037,102.4,285.037S158.255,259.983,158.255,229.183z M65.164,229.183c0-20.536,16.704-37.236,37.236-37.236
		s37.236,16.7,37.236,37.236s-16.704,37.236-37.236,37.236S65.164,249.719,65.164,229.183z"/>
	<path style="fill:#314E55;" d="M121.018,229.183c0-10.264-8.35-18.618-18.618-18.618s-18.618,8.354-18.618,18.618
		c0,10.264,8.35,18.618,18.618,18.618S121.018,239.447,121.018,229.183z"/>
	<path style="fill:#314E55;" d="M223.418,173.328c-30.8,0-55.855,25.054-55.855,55.855s25.054,55.855,55.855,55.855
		s55.855-25.054,55.855-55.855S254.218,173.328,223.418,173.328z M223.418,266.419c-20.532,0-37.236-16.7-37.236-37.236
		s16.704-37.236,37.236-37.236s37.236,16.7,37.236,37.236S243.95,266.419,223.418,266.419z"/>
	<path style="fill:#314E55;" d="M223.418,210.565c-10.268,0-18.618,8.354-18.618,18.618s8.35,18.618,18.618,18.618
		c10.268,0,18.618-8.354,18.618-18.618S233.686,210.565,223.418,210.565z"/>
	<path style="fill:#314E55;" d="M139.636,340.892c-10.268,0-18.618,8.354-18.618,18.618s8.35,18.618,18.618,18.618
		c10.268,0,18.618-8.354,18.618-18.618C158.255,349.246,149.905,340.892,139.636,340.892z"/>
	<path style="fill:#314E55;" d="M139.636,303.656c-30.8,0-55.855,25.055-55.855,55.855s25.054,55.855,55.855,55.855
		s55.855-25.054,55.855-55.855S170.436,303.656,139.636,303.656z M139.636,396.747c-20.532,0-37.236-16.7-37.236-37.236
		c0-20.536,16.704-37.236,37.236-37.236s37.236,16.7,37.236,37.236C176.873,380.047,160.168,396.747,139.636,396.747z"/>
	<path style="fill:#314E55;" d="M409.6,359.51c-10.268,0-18.618,8.354-18.618,18.618s8.35,18.618,18.618,18.618
		s18.618-8.354,18.618-18.618S419.868,359.51,409.6,359.51z"/>
	<path style="fill:#314E55;" d="M409.6,322.274c-30.8,0-55.855,25.054-55.855,55.855s25.054,55.855,55.855,55.855
		s55.855-25.054,55.855-55.855S440.4,322.274,409.6,322.274z M409.6,415.365c-20.532,0-37.236-16.7-37.236-37.236
		s16.704-37.236,37.236-37.236s37.236,16.7,37.236,37.236S430.132,415.365,409.6,415.365z"/>
</g>
<g>
</g>
<g>
</g>
<g>
</g>
<g>
</g>
<g>
</g>
<g>
</g>
<g>
</g>
<g>
</g>
<g>
</g>
<g>
</g>
<g>
</g>
<g>
</g>
<g>
</g>
<g>
</g>
<g>
</g>
</svg>
