<?xml version="1.0" encoding="iso-8859-1"?>
<!-- Generator: Adobe Illustrator 19.0.0, SVG Export Plug-In . SVG Version: 6.00 Build 0)  -->
<svg version="1.1" id="Layer_1" xmlns="http://www.w3.org/2000/svg" xmlns:xlink="http://www.w3.org/1999/xlink" x="0px" y="0px"
	 viewBox="0 0 512 512" style="enable-background:new 0 0 512 512;" xml:space="preserve">
<path style="fill:#314E55;" d="M180.346,256.665c3.002,0,5.563-1.494,7.296-3.68c-1.39,1.515-3.176,2.69-5.366,3.038
	c-0.499,0.083-1.007,0.12-1.496,0.12c-4.572,0-8.589-3.311-9.328-7.965c-0.053-0.332-0.175-1.127-0.325-2.147
	c-0.052,0.404-0.238,0.759-0.238,1.177C170.889,252.421,175.128,256.665,180.346,256.665z"/>
<path style="fill:#73C9C9;" d="M208.717,247.208c0,15.644-12.726,28.371-28.371,28.371s-28.371-12.726-28.371-28.371
	c0-11.339,6.729-21.071,16.366-25.609c-0.563-6.407-1.075-13.71-1.432-21.675H74.012l-16.605,58.704v234.459h245.878V258.904
	l-16.614-58.981h-100.75c0.343,7.27,0.817,13.961,1.323,19.86C199.547,222.887,208.717,233.955,208.717,247.208z M256.001,379.604
	c0,41.715-33.939,75.655-75.655,75.655s-75.655-33.939-75.655-75.655s33.939-75.655,75.655-75.655S256.001,337.888,256.001,379.604z
	"/>
<path style="fill:#E4AD40;" d="M123.605,379.604c0,31.289,25.452,56.741,56.741,56.741s56.741-25.452,56.741-56.741
	s-25.452-56.741-56.741-56.741S123.605,348.315,123.605,379.604z"/>
<polygon style="fill:#5ECC66;" points="368.828,95.898 360.728,209.38 453.893,209.38 445.794,95.898 "/>
<g>
	<path style="fill:#314E55;" d="M464.024,85.767c-0.351-4.95-4.47-8.783-9.429-8.783h-41.686
		c-0.988-9.491-6.751-25.251-27.643-48.563c-35.463-39.587-97.893-37.717-166.973,4.964
		c-43.386,26.798-52.145,95.123-51.875,147.625H66.864c-4.23,0-7.952,2.812-9.097,6.88L38.853,254.74
		c-0.24,0.84-0.36,1.704-0.36,2.576v245.227c0,5.223,4.23,9.457,9.457,9.457h264.792c5.227,0,9.457-4.234,9.457-9.457V257.598
		c0-0.868-0.12-1.732-0.351-2.563l-18.914-67.131c-1.154-4.077-4.867-6.894-9.106-6.894H185.413
		c-0.37-48.116,6.841-109.31,42.817-131.533c60.685-37.486,114.101-40.626,142.942-8.436c17.144,19.131,21.534,30.792,22.707,35.943
		h-33.854c-4.959,0-9.078,3.833-9.429,8.783l-9.457,132.396c-0.194,2.618,0.72,5.199,2.512,7.12
		c1.782,1.921,4.294,3.011,6.917,3.011h113.482c2.623,0,5.135-1.09,6.917-3.011c1.792-1.921,2.706-4.502,2.512-7.12L464.024,85.767z
		 M286.671,199.924l16.614,58.981v234.182H57.407V258.627l16.605-58.704h92.898c0.357,7.965,0.869,15.268,1.432,21.675
		c-9.637,4.538-16.366,14.271-16.366,25.609c0,15.644,12.726,28.371,28.371,28.371s28.371-12.726,28.371-28.371
		c0-13.253-9.169-24.321-21.472-27.424c-0.506-5.899-0.981-12.59-1.323-19.86H286.671z M171.128,246.03
		c0.15,1.02,0.272,1.815,0.325,2.147c0.739,4.655,4.756,7.965,9.328,7.965c0.489,0,0.997-0.037,1.496-0.12
		c2.19-0.349,3.976-1.524,5.366-3.038c-1.733,2.186-4.294,3.68-7.296,3.68c-5.218,0-9.457-4.244-9.457-9.457
		C170.889,246.79,171.075,246.435,171.128,246.03z M360.728,209.38l8.099-113.482h76.966l8.099,113.482H360.728z"/>
	<path style="fill:#314E55;" d="M104.691,379.604c0,41.715,33.939,75.655,75.655,75.655s75.655-33.939,75.655-75.655
		s-33.939-75.655-75.655-75.655S104.691,337.888,104.691,379.604z M237.087,379.604c0,31.289-25.452,56.741-56.741,56.741
		s-56.741-25.452-56.741-56.741s25.452-56.741,56.741-56.741S237.087,348.315,237.087,379.604z"/>
</g>
<g>
</g>
<g>
</g>
<g>
</g>
<g>
</g>
<g>
</g>
<g>
</g>
<g>
</g>
<g>
</g>
<g>
</g>
<g>
</g>
<g>
</g>
<g>
</g>
<g>
</g>
<g>
</g>
<g>
</g>
</svg>
