<?xml version="1.0" encoding="iso-8859-1"?>
<!-- Generator: Adobe Illustrator 19.0.0, SVG Export Plug-In . SVG Version: 6.00 Build 0)  -->
<svg version="1.1" id="Layer_1" xmlns="http://www.w3.org/2000/svg" xmlns:xlink="http://www.w3.org/1999/xlink" x="0px" y="0px"
	 viewBox="0 0 512 512" style="enable-background:new 0 0 512 512;" xml:space="preserve">
<path style="fill:#DBCF56;" d="M29.601,277.268c5.125,108.841,95.283,195.806,205.367,195.806s200.242-86.965,205.367-195.806
	L29.601,277.268L29.601,277.268z"/>
<g>
	<path style="fill:#314E55;" d="M390.819,432.402c10.785,4.36,21.932,6.425,32.908,6.425c34.868,0,67.958-20.843,81.803-55.109
		c8.825-21.818,8.614-45.768-0.583-67.433c-8.732-20.568-24.628-36.653-44.879-45.781c0.014-1.012,0.076-2.012,0.076-3.027
		c0-5.411-4.379-9.79-9.79-9.79H19.581c-5.411,0-9.79,4.379-9.79,9.79c0,91.528,54.918,170.418,133.508,205.597H0v19.581h490.433
		v-19.581H326.637c23.053-10.32,44.059-24.389,62.247-41.453L390.819,432.402z M486.925,323.935
		c7.152,16.846,7.314,35.48,0.459,52.441c-13.411,33.158-49.996,50.107-83.561,39.839c29.952-33.963,49.856-76.969,54.981-124.367
		C471.306,299.243,481.138,310.313,486.925,323.935z M234.967,473.074c-110.084,0-200.242-86.965-205.367-195.806h410.734
		C435.21,386.109,345.051,473.074,234.967,473.074z"/>
	<path style="fill:#314E55;" d="M175.767,221.127l7.477,6.291l12.601-14.953l-7.467-6.32c-2.103-1.778-51.189-44.009-22.975-81.286
		c6.817-9.016,13.05-16.712,18.538-23.482c22.544-27.832,36.15-44.63,21.531-73.313l-4.446-8.719l-17.439,8.892l4.446,8.719
		c8.519,16.712,3.461,23.988-19.303,52.087c-5.612,6.922-11.98,14.791-18.95,23.998
		C118.239,154.727,152.983,201.967,175.767,221.127z"/>
	<path style="fill:#314E55;" d="M305.517,124.859c28.214,37.278-20.871,79.508-22.975,81.286l-7.467,6.32l12.601,14.953l7.477-6.291
		c22.784-19.16,57.528-66.4,25.986-108.086c-6.97-9.207-13.337-17.076-18.95-23.998c-22.764-28.099-27.822-35.375-19.303-52.087
		l4.446-8.719l-17.439-8.892l-4.446,8.719c-14.619,28.683-1.014,45.481,21.531,73.313
		C292.466,108.146,298.7,115.843,305.517,124.859z"/>
</g>
<g>
</g>
<g>
</g>
<g>
</g>
<g>
</g>
<g>
</g>
<g>
</g>
<g>
</g>
<g>
</g>
<g>
</g>
<g>
</g>
<g>
</g>
<g>
</g>
<g>
</g>
<g>
</g>
<g>
</g>
</svg>
