<?xml version="1.0" encoding="iso-8859-1"?>
<!-- Generator: Adobe Illustrator 19.0.0, SVG Export Plug-In . SVG Version: 6.00 Build 0)  -->
<svg version="1.1" id="Layer_1" xmlns="http://www.w3.org/2000/svg" xmlns:xlink="http://www.w3.org/1999/xlink" x="0px" y="0px"
	 viewBox="0 0 512.001 512.001" style="enable-background:new 0 0 512.001 512.001;" xml:space="preserve">
<path style="fill:#DBCF56;" d="M326.398,164.732c0-5.188-4.244-9.414-9.46-9.414h-215.74c-5.216,0-9.46,4.226-9.46,9.414v319.082
	c0,5.188,4.244,9.414,9.46,9.414h215.74c5.216,0,9.46-4.226,9.46-9.414V352.432V230.409L326.398,164.732L326.398,164.732z
	 M252.985,401.436c-26.94,14.749-65.494,17.434-89.996,17.434c-13.209,0-22.329-0.779-23.347-0.871
	c-3.877-0.348-7.141-3.052-8.195-6.792c-0.697-2.447-16.665-60.287,6.792-95.569c9.725-14.62,24.52-23.237,43.98-25.611
	c66.575-8.13,95.734-37.646,96.027-37.94c2.622-2.732,6.636-3.639,10.175-2.246c3.52,1.366,5.894,4.702,5.995,8.488
	C294.719,270.485,296.186,377.786,252.985,401.436z"/>
<path style="fill:#5ECC66;" d="M153.878,326.033c-13.658,20.542-9.826,55.713-5.94,73.679c17.673,0.825,66.447,1.448,96.027-14.739
	c21.504-11.779,30.212-65.787,31.578-107.091c-16.499,10.789-46.034,25.281-91.05,30.772
	C170.533,310.359,160.514,316.041,153.878,326.033z M237.943,311.706c2.081-4.748,7.581-6.911,12.365-4.849
	c4.748,2.081,6.921,7.608,4.849,12.365c-13.777,31.569-35.153,41.652-55.823,51.414c-6.233,2.942-12.686,5.986-19.094,9.661
	c-1.467,0.834-3.071,1.237-4.657,1.237c-3.254,0-6.417-1.696-8.158-4.721c-2.576-4.501-1.017-10.23,3.483-12.815
	c7.049-4.033,13.841-7.241,20.413-10.34C211.25,344.247,226.989,336.822,237.943,311.706z"/>
<g>
	<path style="fill:#314E55;" d="M410.876,202.25h-56.318c-3.307,0-6.436,0.678-9.386,1.73v-39.247
		c0-15.546-12.668-28.187-28.232-28.187h-215.74c-15.564,0-28.232,12.64-28.232,28.187v319.082
		c0,15.546,12.668,28.187,28.232,28.187h215.74c15.564,0,28.232-12.64,28.232-28.187V378.861c2.95,1.052,6.079,1.73,9.386,1.73
		h56.318c15.528,0,28.159-12.631,28.159-28.159V230.409C439.035,214.881,426.404,202.25,410.876,202.25z M326.398,483.814
		c0,5.188-4.244,9.414-9.46,9.414h-215.74c-5.216,0-9.46-4.226-9.46-9.414V164.732c0-5.188,4.244-9.414,9.46-9.414h215.74
		c5.216,0,9.46,4.226,9.46,9.414v65.677v122.023L326.398,483.814L326.398,483.814z M420.262,352.432
		c0,5.262-4.125,9.386-9.386,9.386h-56.318c-5.179,0-9.386-4.207-9.386-9.386V230.409c0-5.262,4.125-9.386,9.386-9.386h56.318
		c5.179,0,9.386,4.207,9.386,9.386V352.432z"/>
	<path style="fill:#314E55;" d="M288.422,249.842c-3.538-1.393-7.553-0.486-10.175,2.246c-0.293,0.293-29.452,29.809-96.027,37.94
		c-19.46,2.374-34.255,10.99-43.98,25.611c-23.457,35.282-7.489,93.121-6.792,95.569c1.054,3.74,4.317,6.444,8.195,6.792
		c1.017,0.092,10.138,0.871,23.347,0.871c24.502,0,63.056-2.686,89.996-17.434c43.201-23.649,41.734-130.951,41.432-143.106
		C294.316,254.544,291.942,251.208,288.422,249.842z M243.965,384.973c-29.58,16.188-78.354,15.564-96.027,14.739
		c-3.886-17.966-7.718-53.137,5.94-73.679c6.636-9.992,16.655-15.675,30.616-17.38c45.016-5.491,74.55-19.983,91.05-30.772
		C274.177,319.186,265.469,373.194,243.965,384.973z"/>
	<path style="fill:#314E55;" d="M167.426,376.815c1.742,3.025,4.904,4.721,8.158,4.721c1.586,0,3.19-0.403,4.657-1.237
		c6.407-3.676,12.861-6.719,19.094-9.661c20.67-9.762,42.046-19.845,55.823-51.414c2.072-4.757-0.101-10.285-4.849-12.365
		c-4.785-2.062-10.285,0.101-12.365,4.849c-10.954,25.116-26.693,32.541-46.62,41.955c-6.572,3.098-13.365,6.306-20.413,10.34
		C166.408,366.585,164.85,372.314,167.426,376.815z"/>
	<path style="fill:#314E55;" d="M205.164,94.178c-1.87,7.278-9.45,10.651-9.441,10.651c-4.803,1.962-7.104,7.443-5.142,12.237
		c1.485,3.639,4.995,5.839,8.69,5.839c1.182,0,2.392-0.22,3.547-0.697c1.641-0.669,16.142-7.012,20.441-23.017
		c3.474-12.934-0.99-27.527-13.245-43.375c-6.857-8.855-9.377-16.344-7.507-22.265c2.695-8.525,14.373-13.841,18.672-15.18
		c4.95-1.503,7.755-6.728,6.27-11.687c-1.503-4.959-6.737-7.773-11.696-6.288c-2.53,0.77-24.905,8.012-31.111,27.38
		c-3.896,12.164-0.357,25.464,10.523,39.535C203.468,78.036,206.924,87.331,205.164,94.178z"/>
</g>
<g>
</g>
<g>
</g>
<g>
</g>
<g>
</g>
<g>
</g>
<g>
</g>
<g>
</g>
<g>
</g>
<g>
</g>
<g>
</g>
<g>
</g>
<g>
</g>
<g>
</g>
<g>
</g>
<g>
</g>
</svg>
