<?xml version="1.0" encoding="iso-8859-1"?>
<!-- Generator: Adobe Illustrator 19.0.0, SVG Export Plug-In . SVG Version: 6.00 Build 0)  -->
<svg version="1.1" id="Layer_1" xmlns="http://www.w3.org/2000/svg" xmlns:xlink="http://www.w3.org/1999/xlink" x="0px" y="0px"
	 viewBox="0 0 512 512" style="enable-background:new 0 0 512 512;" xml:space="preserve">
<path style="fill:#D26CBA;" d="M218.978,264.899l0.026-0.026c-5.959-13.792-12.051-26.878-18.152-38.666l-0.06-8.007l34.044-68.092
	H104.473l31.836,63.668l-0.164,8.209c-49.168,89.27-92.085,238.094-82.712,254.771c5.389,8.3,55.368,19.341,131.604,17.535
	c66.647-1.582,93.861-11.762,96.595-16.44c5.683-14.711-25.81-127.736-62.589-212.888L218.978,264.899z"/>
<path style="fill:#D8D8D8;" d="M441.418,37.277c-4.519,0-9.028,1.716-12.46,5.148L291.55,179.833
	c-6.873,6.873-6.855,18.069,0.026,24.955c6.898,6.89,18.091,6.885,24.955,0.022L453.938,67.402
	c6.864-6.877,6.855-18.069-0.026-24.955C450.463,39.002,445.936,37.277,441.418,37.277z"/>
<g>
	<path style="fill:#314E55;" d="M466.399,29.961c-13.78-13.771-36.182-13.784-49.927-0.022L279.064,167.347
		c-11.589,11.596-13.283,29.271-5.33,42.8l-41.423,41.421c-4.714-10.77-9.337-20.73-13.729-29.456l38.441-76.883l-7.899-12.779
		H90.185l-7.899,12.779l36.165,72.33c-41.434,77.43-97.483,241.673-79.849,268.792C51.649,506.412,117.546,512,170.206,512
		c17.781,0,34.061-0.638,46.28-1.569c72.295-5.51,79.013-20.372,81.212-25.257c10.085-22.323-24.517-135.235-57.939-216.082
		l46.462-46.459c5.504,3.234,11.652,4.975,17.85,4.975c9.037,0,18.074-3.436,24.946-10.313L466.424,79.888
		C480.178,66.121,480.17,43.727,466.399,29.961z M281.633,477.853c-2.734,4.678-29.948,14.858-96.595,16.44
		c-76.236,1.807-126.215-9.235-131.604-17.535c-9.373-16.677,33.543-165.502,82.712-254.771l0.164-8.209l-31.836-63.668h130.363
		l-34.043,68.092l0.06,8.007c6.1,11.788,12.192,24.874,18.152,38.666l-0.026,0.026l0.066,0.066
		C255.823,350.117,287.316,463.142,281.633,477.853z M453.938,67.402L316.53,204.809c-6.864,6.864-18.057,6.868-24.955-0.022
		c-6.881-6.885-6.898-18.082-0.026-24.955L428.957,42.425c3.432-3.432,7.942-5.148,12.46-5.148s9.046,1.724,12.495,5.17
		C460.794,49.332,460.802,60.525,453.938,67.402z"/>
	<rect x="151.994" style="fill:#314E55;" width="17.66" height="54.066"/>
	<rect x="116.675" y="61.81" style="fill:#314E55;" width="17.66" height="54.066"/>
	<rect x="204.974" y="17.66" style="fill:#314E55;" width="17.66" height="54.066"/>
</g>
<g>
</g>
<g>
</g>
<g>
</g>
<g>
</g>
<g>
</g>
<g>
</g>
<g>
</g>
<g>
</g>
<g>
</g>
<g>
</g>
<g>
</g>
<g>
</g>
<g>
</g>
<g>
</g>
<g>
</g>
</svg>
