<?xml version="1.0" encoding="iso-8859-1"?>
<!-- Generator: Adobe Illustrator 19.0.0, SVG Export Plug-In . SVG Version: 6.00 Build 0)  -->
<svg version="1.1" id="Layer_1" xmlns="http://www.w3.org/2000/svg" xmlns:xlink="http://www.w3.org/1999/xlink" x="0px" y="0px"
	 viewBox="0 0 512 512" style="enable-background:new 0 0 512 512;" xml:space="preserve">
<g>
	<path style="fill:#E65F58;" d="M427.26,247.816l-40.051-69.374l-97.915,56.53l40.06,69.374
		c7.535,13.061,19.727,22.404,34.328,26.31c14.593,3.897,29.82,1.905,42.876-5.64C433.553,309.429,442.837,274.797,427.26,247.816z"
		/>
	<path style="fill:#E65F58;" d="M77.296,247.816c-15.577,26.982-6.293,61.614,20.702,77.2c13.056,7.545,28.274,9.537,42.876,5.64
		c14.602-3.906,26.793-13.249,34.328-26.31l40.06-69.374l-97.915-56.53L77.296,247.816z"/>
</g>
<g>
	<path style="fill:#314E55;" d="M232.846,223.36l-114.238-65.952c-2.171-1.247-4.757-1.592-7.149-0.938
		c-2.411,0.644-4.472,2.227-5.723,4.389l-44.762,77.536c-18.957,32.831-10.236,74.092,18.77,96.864l-38.022,65.864L9.422,382.475
		L0,398.797l81.602,47.108l9.422-16.322l-32.979-19.039l37.863-65.588c9.598,4.246,19.827,6.498,30.209,6.498
		c6.542,0,13.13-0.86,19.625-2.595c19.469-5.208,35.727-17.67,45.783-35.092l44.771-77.536c1.251-2.162,1.583-4.734,0.938-7.149
		C236.59,226.668,235.008,224.611,232.846,223.36z M175.203,304.346c-7.535,13.061-19.727,22.404-34.328,26.31
		c-14.602,3.897-29.82,1.905-42.876-5.64c-26.995-15.586-36.279-50.218-20.702-77.2l40.051-69.374l97.915,56.53L175.203,304.346z"/>
	<path style="fill:#314E55;" d="M477.943,413.5L512,391.791l-10.13-15.89l-33.358,21.263l-38.383-66.485
		c24.686-23.433,31.198-61.554,13.453-92.285l-44.762-77.536c-1.251-2.162-3.312-3.745-5.723-4.389
		c-2.411-0.653-4.987-0.308-7.149,0.938L271.71,223.36c-2.162,1.251-3.745,3.308-4.389,5.723c-0.644,2.415-0.313,4.987,0.938,7.149
		l44.771,77.536c10.056,17.422,26.315,29.884,45.783,35.092c6.496,1.734,13.084,2.595,19.625,2.595
		c12.65,0,25.102-3.278,36.404-9.555l37.76,65.406l-36.956,23.558l10.13,15.89l48.806-31.11l3.446-1.99L477.943,413.5z
		 M363.682,330.656c-14.602-3.906-26.793-13.249-34.328-26.31l-40.06-69.374l97.915-56.53l40.051,69.374
		c15.577,26.982,6.293,61.614-20.702,77.2C393.502,332.56,378.275,334.552,363.682,330.656z"/>
	
		<rect x="165.142" y="349.062" transform="matrix(-0.5998 0.8002 -0.8002 -0.5998 603.7936 414.9655)" style="fill:#314E55;" width="65.954" height="18.844"/>
	<rect x="240.512" y="349.052" style="fill:#314E55;" width="18.843" height="65.952"/>
	
		<rect x="292.317" y="325.503" transform="matrix(-0.8 0.6 -0.6 -0.8 758.2166 464.2183)" style="fill:#314E55;" width="18.843" height="65.952"/>
	
		<rect x="269.323" y="112.349" transform="matrix(-0.5998 0.8002 -0.8002 -0.5998 581.0492 -47.085)" style="fill:#314E55;" width="65.954" height="18.844"/>
	<rect x="241.054" y="65.248" style="fill:#314E55;" width="18.843" height="65.952"/>
	
		<rect x="189.237" y="88.816" transform="matrix(-0.8 0.6 -0.6 -0.8 430.6603 100.0306)" style="fill:#314E55;" width="18.843" height="65.952"/>
</g>
<g>
</g>
<g>
</g>
<g>
</g>
<g>
</g>
<g>
</g>
<g>
</g>
<g>
</g>
<g>
</g>
<g>
</g>
<g>
</g>
<g>
</g>
<g>
</g>
<g>
</g>
<g>
</g>
<g>
</g>
</svg>
