<?xml version="1.0" encoding="iso-8859-1"?>
<!-- Generator: Adobe Illustrator 19.0.0, SVG Export Plug-In . SVG Version: 6.00 Build 0)  -->
<svg version="1.1" id="Layer_1" xmlns="http://www.w3.org/2000/svg" xmlns:xlink="http://www.w3.org/1999/xlink" x="0px" y="0px"
	 viewBox="0 0 512 512" style="enable-background:new 0 0 512 512;" xml:space="preserve">
<g>
	<path style="fill:#56B463;" d="M365.907,133.03l-1.752,18.098c4.548-10.701,7.701-24.644,7.701-41.432
		c0-28.852-9.176-49.611-19.074-59.195c-9.898,9.583-19.074,30.343-19.074,59.195c0,20.366,4.608,36.591,10.779,47.808l2.545-26.299
		L365.907,133.03z"/>
	<path style="fill:#56B463;" d="M408.667,223.595l8.699-3.778l7.551,17.389l-8.695,3.778c-8.872,3.853-19.398,11.111-29.502,19.051
		c19.189-4.746,41.388-17.972,60.372-36.949c25.398-25.398,40.569-56.602,38.764-78.555c-21.893-1.62-53.157,13.361-78.555,38.759
		c-21.054,21.054-34.906,46.033-38.061,66.487C382.068,239.28,396.428,228.91,408.667,223.595z"/>
	<path style="fill:#56B463;" d="M309.78,231.337l-9.785-17.612l16.579-9.204l4.281,7.707c-3.001-10.802-8.745-23.065-18.24-35.66
		c-17.361-23.046-37.19-34.102-50.857-35.796c-2.139,13.602,3.028,35.713,20.393,58.759
		C284.494,215.905,298.045,226.128,309.78,231.337z"/>
</g>
<path style="fill:#E4AD40;" d="M256,463.928c125.005,0,227.722-54.472,236.44-123.259H19.56
	C28.278,409.456,130.995,463.928,256,463.928z"/>
<g>
	<path style="fill:#314E55;" d="M502.519,321.706H9.481c-5.236,0-9.481,4.241-9.481,9.481c0,83.648,114.843,151.704,256,151.704
		s256-68.055,256-151.704C512,325.947,507.755,321.706,502.519,321.706z M256,463.928c-125.005,0-227.722-54.472-236.44-123.259
		H492.44C483.722,409.456,381.005,463.928,256,463.928z"/>
	<path style="fill:#314E55;" d="M322.462,254.164l10.445,18.801l0.428-0.238l-1.458,15.057v0l0,0l-0.896,9.263l18.875,1.824
		l0.654-6.755c2.556-2.509,6.975-6.777,12.588-11.916c2.806,0.413,5.675,0.69,8.666,0.69c27.06,0,60.931-16.593,88.736-44.398
		c32.768-32.759,49.963-73.963,42.782-102.509c-0.852-3.38-3.495-6.028-6.88-6.88c-28.565-7.231-69.736,10-102.509,42.778
		c-16.697,16.697-29.321,35.579-36.766,53.863l3.589-37.079c18.346-13.221,30.103-42.71,30.103-76.969
		c0-36.204-13.032-67.315-33.204-79.269c-2.981-1.759-6.685-1.759-9.667,0c-20.171,11.954-33.204,43.065-33.204,79.269
		c0,32.397,10.483,60.604,27.132,74.766l-2.326,24.035c-3.776-14.204-11.145-29.217-21.788-43.338
		c-21.796-28.926-50.926-45.944-74.227-43.333c-3.444,0.389-6.398,2.62-7.718,5.815c-8.917,21.685-0.602,54.38,21.185,83.296
		C276.155,236.34,300.921,252.363,322.462,254.164z M407.301,183.289c25.398-25.398,56.662-40.38,78.555-38.759
		c1.806,21.954-13.366,53.157-38.764,78.555c-18.984,18.977-41.183,32.202-60.372,36.949c10.104-7.941,20.63-15.198,29.502-19.051
		l8.695-3.778l-7.551-17.389l-8.699,3.778c-12.238,5.315-26.599,15.685-39.427,26.181
		C372.395,229.322,386.247,204.344,407.301,183.289z M333.708,109.697c0-28.852,9.176-49.611,19.074-59.195
		c9.898,9.583,19.074,30.343,19.074,59.195c0,16.788-3.153,30.731-7.701,41.432l1.752-18.098l-18.875-1.824l-2.545,26.299
		C338.316,146.287,333.708,130.063,333.708,109.697z M251.759,140.771c13.667,1.694,33.495,12.75,50.857,35.796
		c9.495,12.595,15.238,24.858,18.24,35.66l-4.281-7.707l-16.579,9.204l9.785,17.612c-11.735-5.208-25.286-15.432-37.627-31.807
		C254.787,176.484,249.62,154.373,251.759,140.771z"/>
</g>
<g>
</g>
<g>
</g>
<g>
</g>
<g>
</g>
<g>
</g>
<g>
</g>
<g>
</g>
<g>
</g>
<g>
</g>
<g>
</g>
<g>
</g>
<g>
</g>
<g>
</g>
<g>
</g>
<g>
</g>
</svg>
