<?xml version="1.0" encoding="iso-8859-1"?>
<!-- Generator: Adobe Illustrator 19.0.0, SVG Export Plug-In . SVG Version: 6.00 Build 0)  -->
<svg version="1.1" id="Layer_1" xmlns="http://www.w3.org/2000/svg" xmlns:xlink="http://www.w3.org/1999/xlink" x="0px" y="0px"
	 viewBox="0 0 512 512" style="enable-background:new 0 0 512 512;" xml:space="preserve">
<rect x="219.429" y="301.714" style="fill:#73C9C9;" width="73.143" height="64"/>
<polygon style="fill:#D8D8D8;" points="292.571,91.429 265.143,91.429 246.857,91.429 219.429,91.429 219.429,109.714 
	292.571,109.714 "/>
<path style="fill:#F58CAC;" d="M320.045,128h-18.33h-91.429h-18.33c-5.018,0-9.098,4.089-9.098,9.12v347.473
	c0,5.031,4.08,9.121,9.098,9.121h128.089c5.018,0,9.098-4.089,9.098-9.12V137.12C329.143,132.089,325.062,128,320.045,128z
	 M310.857,374.857c0,5.049-4.094,9.143-9.143,9.143h-91.429c-5.049,0-9.143-4.094-9.143-9.143v-82.286
	c0-5.049,4.094-9.143,9.143-9.143h91.429c5.049,0,9.143,4.094,9.143,9.143V374.857z"/>
<g>
	<path style="fill:#314E55;" d="M320.045,109.714h-9.187V82.286c0-5.049-4.094-9.143-9.143-9.143h-36.571V0h-18.286v73.143h-36.571
		c-5.049,0-9.143,4.094-9.143,9.143v27.429h-9.187c-15.098,0-27.384,12.295-27.384,27.406v347.473
		c0,15.112,12.286,27.406,27.384,27.406h128.089c15.098,0,27.384-12.295,27.384-27.406V137.12
		C347.429,122.009,335.143,109.714,320.045,109.714z M219.429,91.429h27.429h18.286h27.429v18.286h-73.143V91.429z M329.143,484.594
		c0,5.031-4.08,9.12-9.098,9.12H191.955c-5.018,0-9.098-4.089-9.098-9.12V137.12c0-5.031,4.08-9.12,9.098-9.12h18.33h91.429h18.33
		c5.018,0,9.098,4.089,9.098,9.12V484.594z"/>
	<path style="fill:#314E55;" d="M301.714,283.429h-91.429c-5.049,0-9.143,4.094-9.143,9.143v82.286c0,5.049,4.094,9.143,9.143,9.143
		h91.429c5.049,0,9.143-4.094,9.143-9.143v-82.286C310.857,287.522,306.763,283.429,301.714,283.429z M292.571,365.714h-73.143v-64
		h73.143V365.714z"/>
</g>
<g>
</g>
<g>
</g>
<g>
</g>
<g>
</g>
<g>
</g>
<g>
</g>
<g>
</g>
<g>
</g>
<g>
</g>
<g>
</g>
<g>
</g>
<g>
</g>
<g>
</g>
<g>
</g>
<g>
</g>
</svg>
