<?xml version="1.0" encoding="iso-8859-1"?>
<!-- Generator: Adobe Illustrator 19.0.0, SVG Export Plug-In . SVG Version: 6.00 Build 0)  -->
<svg version="1.1" id="Layer_1" xmlns="http://www.w3.org/2000/svg" xmlns:xlink="http://www.w3.org/1999/xlink" x="0px" y="0px"
	 viewBox="0 0 512 512" style="enable-background:new 0 0 512 512;" xml:space="preserve">
<polygon style="fill:#DBCF56;" points="284.981,38.642 294.642,38.642 294.642,19.321 217.358,19.321 217.358,38.642 
	227.019,38.642 "/>
<g>
	<path style="fill:#EAEAEA;" d="M149.736,468.528v24.151h212.528v-24.151c0-13.321-10.844-24.151-24.175-24.151H173.91
		C160.58,444.377,149.736,455.208,149.736,468.528z"/>
	<path style="fill:#EAEAEA;" d="M149.736,333.283c0,13.321,10.844,24.151,24.175,24.151H338.09c13.33,0,24.174-10.83,24.174-24.151
		s-10.844-24.151-24.175-24.151H173.91C160.58,309.132,149.736,319.962,149.736,333.283z"/>
</g>
<path style="fill:#D8D8D8;" d="M149.736,400.906c0,13.321,10.844,24.151,24.175,24.151H338.09c13.33,0,24.174-10.83,24.174-24.151
	s-10.844-24.151-24.175-24.151H173.91C160.58,376.755,149.736,387.585,149.736,400.906z"/>
<path style="fill:#EAEAEA;" d="M362.264,198.057v-38.66c0-34.623-28.146-62.792-62.745-62.792h-14.538
	c-5.335,0-9.66-4.321-9.66-9.66V57.962h-38.642v28.981c0,5.34-4.325,9.66-9.66,9.66h-14.538c-34.599,0-62.745,28.17-62.745,62.792
	v38.66c0,13.302,10.788,24.132,24.052,24.132h0.123H338.09h0.123C351.476,222.189,362.264,211.358,362.264,198.057z"/>
<path style="fill:#D8D8D8;" d="M362.264,265.66c0-13.321-10.844-24.151-24.175-24.151H173.91c-13.33,0-24.175,10.83-24.175,24.151
	c0,13.321,10.844,24.151,24.175,24.151H338.09C351.42,289.811,362.264,278.981,362.264,265.66z"/>
<path style="fill:#314E55;" d="M381.585,198.057v-38.66c0-45.274-36.816-82.113-82.066-82.113h-4.877V57.962h9.66
	c5.335,0,9.66-4.321,9.66-9.66V9.66c0-5.34-4.325-9.66-9.66-9.66h-96.604c-5.335,0-9.66,4.321-9.66,9.66v38.642
	c0,5.34,4.325,9.66,9.66,9.66h9.66v19.321h-4.877c-45.25,0-82.066,36.84-82.066,82.113v38.66c0,13.731,6.514,25.846,16.469,33.814
	c-9.956,7.973-16.469,20.075-16.469,33.79c0,13.726,6.524,25.838,16.496,33.811c-9.972,7.973-16.496,20.085-16.496,33.811
	s6.524,25.838,16.496,33.811c-9.972,7.973-16.496,20.085-16.496,33.811s6.524,25.838,16.496,33.811
	c-9.972,7.973-16.496,20.085-16.496,33.811v33.811c0,5.34,4.325,9.66,9.66,9.66h231.849c5.335,0,9.66-4.321,9.66-9.66v-33.811
	c0-13.726-6.524-25.838-16.496-33.811c9.972-7.973,16.496-20.085,16.496-33.811s-6.524-25.838-16.496-33.811
	c9.972-7.973,16.496-20.085,16.496-33.811s-6.524-25.838-16.496-33.811c9.972-7.973,16.496-20.085,16.496-33.811
	c0-13.714-6.513-25.817-16.469-33.79C375.071,223.902,381.585,211.787,381.585,198.057z M217.358,19.321h77.283v19.321h-9.66
	h-57.962h-9.66V19.321z M362.264,468.528v24.151H149.736v-24.151c0-13.321,10.844-24.151,24.175-24.151H338.09
	C351.42,444.377,362.264,455.208,362.264,468.528z M362.264,400.906c0,13.321-10.844,24.151-24.175,24.151H173.91
	c-13.33,0-24.175-10.83-24.175-24.151s10.844-24.151,24.175-24.151H338.09C351.42,376.755,362.264,387.585,362.264,400.906z
	 M362.264,333.283c0,13.321-10.844,24.151-24.175,24.151H173.91c-13.33,0-24.175-10.83-24.175-24.151s10.844-24.151,24.175-24.151
	H338.09C351.42,309.132,362.264,319.962,362.264,333.283z M173.91,289.811c-13.33,0-24.175-10.83-24.175-24.151
	c0-13.321,10.844-24.151,24.175-24.151H338.09c13.33,0,24.174,10.83,24.174,24.151c0,13.321-10.844,24.151-24.175,24.151H173.91z
	 M173.91,222.189h-0.123c-13.264,0-24.052-10.83-24.052-24.132v-38.66c0-34.623,28.146-62.792,62.745-62.792h14.538
	c5.335,0,9.66-4.321,9.66-9.66V57.962h38.642v28.981c0,5.34,4.325,9.66,9.66,9.66h14.538c34.599,0,62.745,28.17,62.745,62.792v38.66
	c0,13.302-10.788,24.132-24.052,24.132h-0.123H173.91z"/>
<g>
</g>
<g>
</g>
<g>
</g>
<g>
</g>
<g>
</g>
<g>
</g>
<g>
</g>
<g>
</g>
<g>
</g>
<g>
</g>
<g>
</g>
<g>
</g>
<g>
</g>
<g>
</g>
<g>
</g>
</svg>
