<?xml version="1.0" encoding="iso-8859-1"?>
<!-- Generator: Adobe Illustrator 19.0.0, SVG Export Plug-In . SVG Version: 6.00 Build 0)  -->
<svg version="1.1" id="Layer_1" xmlns="http://www.w3.org/2000/svg" xmlns:xlink="http://www.w3.org/1999/xlink" x="0px" y="0px"
	 viewBox="0 0 512 512" style="enable-background:new 0 0 512 512;" xml:space="preserve">
<path style="fill:#5ECC66;" d="M456.063,27.226l-24.272,24.271c48.904,108.607,25.836,236.904-58.782,321.521
	c-55.177,55.182-128.959,84.271-203.729,84.271c-39.907,0-80.055-8.395-117.854-25.421l-24.204,24.203
	c122.199,63.28,273.007,40.409,371.128-57.717S519.337,149.431,456.063,27.226z"/>
<path style="fill:#E25D56;" d="M358.498,358.507c76.749-76.749,99.144-192.239,57.842-291.543L66.95,416.354
	C166.254,457.64,281.744,435.256,358.498,358.507z M347.829,308.887L318.8,323.404c-1.473,0.737-3.042,1.082-4.58,1.082
	c-3.768,0-7.391-2.075-9.19-5.672c-2.536-5.071-0.481-11.235,4.59-13.77l29.029-14.517c5.091-2.546,11.24-0.476,13.77,4.59
	C354.955,300.188,352.9,306.352,347.829,308.887z M369.261,147.311c0-5.668,4.595-10.263,10.263-10.263
	c5.668,0,10.263,4.595,10.263,10.263v14.512c0,5.668-4.595,10.263-10.263,10.263c-5.668,0-10.263-4.595-10.263-10.263V147.311z
	 M335.983,205.364c4.009-4.009,10.503-4.009,14.512,0l7.256,7.256c4.009,4.009,4.009,10.503,0,14.512
	c-2.004,2.004-4.63,3.007-7.256,3.007s-5.252-1.002-7.256-3.007l-7.256-7.256C331.974,215.867,331.974,209.373,335.983,205.364z
	 M289.435,241.654c0-5.668,4.595-10.263,10.263-10.263c5.668,0,10.263,4.595,10.263,10.263v14.512
	c0,5.668-4.595,10.263-10.263,10.263c-5.668,0-10.263-4.595-10.263-10.263V241.654z M227.133,328.731
	c4.009-4.009,10.503-4.009,14.512,0l14.512,14.517c4.009,4.009,4.009,10.508,0,14.512c-2.004,2.004-4.63,3.007-7.256,3.007
	s-5.252-1.002-7.256-3.007l-14.512-14.517C223.124,339.234,223.124,332.735,227.133,328.731z M173.329,343.243
	c0-5.668,4.595-10.263,10.263-10.263c5.668,0,10.263,4.595,10.263,10.263v14.517c0,5.668-4.595,10.263-10.263,10.263
	c-5.668,0-10.263-4.595-10.263-10.263V343.243z"/>
<g>
	<path style="fill:#314E55;" d="M467.413,5.168c-1.588-2.776-4.38-4.65-7.547-5.071c-3.202-0.441-6.359,0.651-8.614,2.916
		L3.009,451.261c-2.26,2.26-3.337,5.442-2.916,8.614c0.421,3.167,2.295,5.958,5.071,7.547C57.504,497.408,115.392,512,172.939,512
		c87.794,0,174.775-33.98,239.924-99.134C520.72,305.014,543.15,137.359,467.413,5.168z M416.34,66.964
		c41.301,99.304,18.907,214.794-57.842,291.543c-76.754,76.749-192.244,99.134-291.548,57.848L416.34,66.964z M398.351,398.354
		c-98.121,98.126-248.929,120.997-371.128,57.717l24.204-24.203c37.799,17.026,77.947,25.421,117.854,25.421
		c74.77,0,148.553-29.089,203.729-84.271c84.618-84.618,107.685-212.914,58.782-321.521l24.272-24.271
		C519.337,149.431,496.472,300.228,398.351,398.354z"/>
	<path style="fill:#314E55;" d="M183.592,368.023c5.668,0,10.263-4.595,10.263-10.263v-14.517c0-5.668-4.595-10.263-10.263-10.263
		c-5.668,0-10.263,4.595-10.263,10.263v14.517C173.329,363.427,177.924,368.023,183.592,368.023z"/>
	<path style="fill:#314E55;" d="M241.645,357.76c2.004,2.004,4.63,3.007,7.256,3.007c2.626,0,5.252-1.002,7.256-3.007
		c4.009-4.004,4.009-10.503,0-14.512l-14.512-14.517c-4.009-4.009-10.503-4.009-14.512,0c-4.009,4.004-4.009,10.503,0,14.512
		L241.645,357.76z"/>
	<path style="fill:#314E55;" d="M299.698,266.428c5.668,0,10.263-4.595,10.263-10.263v-14.512c0-5.668-4.595-10.263-10.263-10.263
		c-5.668,0-10.263,4.595-10.263,10.263v14.512C289.435,261.833,294.031,266.428,299.698,266.428z"/>
	<path style="fill:#314E55;" d="M343.239,227.132c2.004,2.004,4.63,3.007,7.256,3.007s5.252-1.002,7.256-3.007
		c4.009-4.009,4.009-10.503,0-14.512l-7.256-7.256c-4.009-4.009-10.503-4.009-14.512,0s-4.009,10.503,0,14.512L343.239,227.132z"/>
	<path style="fill:#314E55;" d="M338.649,290.527l-29.029,14.517c-5.071,2.536-7.126,8.699-4.59,13.77
		c1.799,3.598,5.422,5.672,9.19,5.672c1.538,0,3.107-0.346,4.58-1.082l29.029-14.517c5.071-2.536,7.126-8.699,4.59-13.77
		C349.889,290.051,343.74,287.981,338.649,290.527z"/>
	<path style="fill:#314E55;" d="M379.524,172.086c5.668,0,10.263-4.595,10.263-10.263v-14.512c0-5.668-4.595-10.263-10.263-10.263
		c-5.668,0-10.263,4.595-10.263,10.263v14.512C369.261,167.49,373.857,172.086,379.524,172.086z"/>
</g>
<g>
</g>
<g>
</g>
<g>
</g>
<g>
</g>
<g>
</g>
<g>
</g>
<g>
</g>
<g>
</g>
<g>
</g>
<g>
</g>
<g>
</g>
<g>
</g>
<g>
</g>
<g>
</g>
<g>
</g>
</svg>
