<?xml version="1.0" encoding="iso-8859-1"?>
<!-- Generator: Adobe Illustrator 19.0.0, SVG Export Plug-In . SVG Version: 6.00 Build 0)  -->
<svg version="1.1" id="Layer_1" xmlns="http://www.w3.org/2000/svg" xmlns:xlink="http://www.w3.org/1999/xlink" x="0px" y="0px"
	 viewBox="0 0 512 512" style="enable-background:new 0 0 512 512;" xml:space="preserve">
<g>
	<path style="fill:#E9E7D1;" d="M236.765,272.579c-21.745-17.361-61.04-28.21-104.108-28.21c-43.074,0-82.369,10.849-104.114,28.21
		c21.739,17.35,61.035,28.2,104.114,28.2C175.73,300.779,215.026,289.929,236.765,272.579z"/>
	<path style="fill:#E9E7D1;" d="M181.899,358.583c-37.301,18.202-68.377,43.941-81.754,66.941
		c26.39,3.62,65.787-5.015,103.078-23.206c37.295-18.191,68.377-43.93,81.759-66.941
		C258.586,331.747,219.194,340.391,181.899,358.583z"/>
</g>
<path style="fill:#DBCF56;" d="M189.384,194.142c2.974-32.568-14.551-72.591-46.145-104.185S71.617,40.9,39.054,43.802
	c-2.979,32.568,14.551,72.591,46.145,104.185S156.821,197.055,189.384,194.142z"/>
<g>
	<path style="fill:#E9E7D1;" d="M300.353,129.919c0-43.069-10.849-82.364-28.205-104.103
		c-17.356,21.739-28.205,61.034-28.205,104.103s10.849,82.364,28.205,104.103C289.504,212.282,300.353,172.987,300.353,129.919z"/>
	<path style="fill:#E9E7D1;" d="M400.867,204.674c18.191-37.295,26.836-76.714,23.211-103.088
		c-23.011,13.392-48.75,44.463-66.936,81.759c-18.191,37.295-26.836,76.714-23.216,103.088
		C356.937,273.04,382.676,241.969,400.867,204.674z"/>
	<path style="fill:#E9E7D1;" d="M236.217,489.337c16.684-4.215,39.705-16.633,62.675-38.823
		c22.97-22.18,36.183-44.751,40.982-61.281c-16.679,4.225-39.7,16.643-62.67,38.823
		C254.228,450.237,241.016,472.807,236.217,489.337z"/>
	<path style="fill:#E9E7D1;" d="M386.496,342.617c16.525-4.799,39.095-18.007,61.286-40.977
		c22.18-22.97,34.593-46.001,38.818-62.686c-16.53,4.799-39.1,18.017-61.286,40.987
		C403.133,302.911,390.715,325.933,386.496,342.617z"/>
</g>
<g>
	<path style="fill:#314E55;" d="M182.514,215.42c6.229,0,12.305-0.564,18.155-1.702c4.199-0.82,7.476-4.102,8.296-8.296
		c7.881-40.382-12.09-91.531-50.878-130.314C119.305,36.316,68.182,16.361,27.769,24.226c-4.194,0.82-7.476,4.102-8.296,8.296
		c-7.886,40.382,12.085,91.531,50.878,130.314C103.519,196.009,145.726,215.42,182.514,215.42z M39.054,43.802
		c32.563-2.902,72.591,14.561,104.185,46.155s49.119,71.617,46.145,104.185c-32.563,2.912-72.591-14.561-104.185-46.155
		S36.075,76.37,39.054,43.802z"/>
	<path style="fill:#314E55;" d="M272.148,259.832c2.507,0,5.015-0.892,7.009-2.687c26.031-23.329,42.197-72.089,42.197-127.227
		S305.188,26.021,279.157,2.692c-3.989-3.589-10.029-3.589-14.018,0c-26.031,23.329-42.197,72.089-42.197,127.227
		s16.166,103.898,42.197,127.227C267.134,258.94,269.641,259.832,272.148,259.832z M272.148,25.816
		c17.356,21.739,28.205,61.034,28.205,104.103s-10.849,82.364-28.205,104.103c-17.356-21.739-28.205-61.035-28.205-104.103
		S254.792,47.555,272.148,25.816z"/>
	<path style="fill:#314E55;" d="M316.734,304.778c1.502,4.337,5.568,7.065,9.921,7.065c1.128,0,2.277-0.185,3.405-0.564
		c31.23-10.706,65.593-48.022,89.686-97.397c24.078-49.385,32.332-99.437,21.529-130.642c-1.892-5.455-7.85-8.347-13.326-6.501
		c-31.235,10.706-65.598,48.022-89.686,97.397C314.181,223.521,305.931,273.584,316.734,304.778z M357.142,183.344
		c18.186-37.295,43.925-68.367,66.936-81.759c3.625,26.375-5.02,65.793-23.211,103.088c-18.191,37.295-43.93,68.367-66.941,81.759
		C330.306,260.058,338.951,220.64,357.142,183.344z"/>
	<path style="fill:#314E55;" d="M498.756,215.871c-0.056,0-0.113,0-0.169,0c-25.426,0.4-59.291,19.36-88.378,49.488
		c-29.092,30.117-46.858,64.613-46.366,90.044c0.113,5.722,4.789,10.296,10.495,10.296c0.056,0,0.113,0,0.169,0
		c25.416-0.4,59.281-19.35,88.378-49.478c29.087-30.117,46.847-64.624,46.365-90.055
		C509.139,220.445,504.463,215.871,498.756,215.871z M447.781,301.64c-22.191,22.97-44.761,36.178-61.286,40.977
		c4.22-16.684,16.638-39.705,38.818-62.675c22.186-22.97,44.756-36.188,61.286-40.987
		C482.375,255.638,469.962,278.67,447.781,301.64z"/>
	<path style="fill:#314E55;" d="M352.666,366.581c-25.652-0.02-59.922,17.279-90.055,46.361
		c-30.122,29.092-49.083,62.962-49.478,88.383c-0.087,5.783,4.517,10.552,10.296,10.665c0.349,0,0.687,0.01,1.036,0.01
		c25.318,0,59.301-17.679,89.019-46.371c30.117-29.092,49.073-62.962,49.478-88.383C363.054,371.463,358.45,366.694,352.666,366.581
		z M298.892,450.514c-22.97,22.191-45.991,34.609-62.675,38.823c4.799-16.53,18.012-39.1,40.987-61.281
		c22.97-22.18,45.991-34.599,62.67-38.823C335.075,405.764,321.862,428.334,298.892,450.514z"/>
	<path style="fill:#314E55;" d="M309.828,331.511c1.871-5.476-1.036-11.434-6.501-13.331
		c-31.184-10.788-81.251-2.553-130.637,21.534c-49.38,24.088-86.701,58.45-97.392,89.675c-1.871,5.476,1.036,11.434,6.501,13.331
		c9.07,3.138,19.73,4.666,31.512,4.666c28.733,0,64.101-9.116,99.12-26.2C261.812,397.109,299.128,362.736,309.828,331.511z
		 M203.223,402.318c-37.29,18.191-76.688,26.826-103.078,23.206c13.377-23,44.453-48.739,81.754-66.941
		c37.295-18.191,76.688-26.836,103.083-23.206C271.6,358.388,240.518,384.127,203.223,402.318z"/>
	<path style="fill:#314E55;" d="M259.889,279.593c3.574-3.989,3.574-10.039,0-14.028c-23.339-26.026-72.094-42.197-127.232-42.197
		c-55.143,0-103.898,16.171-127.237,42.197c-3.574,3.989-3.574,10.039,0,14.028c23.334,26.016,72.089,42.187,127.237,42.187
		C187.8,321.78,236.555,305.608,259.889,279.593z M132.657,244.369c43.069,0,82.364,10.849,104.108,28.21
		c-21.739,17.35-61.035,28.2-104.108,28.2c-43.079,0-82.374-10.849-104.114-28.2C50.288,255.218,89.583,244.369,132.657,244.369z"/>
</g>
<g>
</g>
<g>
</g>
<g>
</g>
<g>
</g>
<g>
</g>
<g>
</g>
<g>
</g>
<g>
</g>
<g>
</g>
<g>
</g>
<g>
</g>
<g>
</g>
<g>
</g>
<g>
</g>
<g>
</g>
</svg>
