<?xml version="1.0" encoding="iso-8859-1"?>
<!-- Generator: Adobe Illustrator 19.0.0, SVG Export Plug-In . SVG Version: 6.00 Build 0)  -->
<svg version="1.1" id="Layer_1" xmlns="http://www.w3.org/2000/svg" xmlns:xlink="http://www.w3.org/1999/xlink" x="0px" y="0px"
	 viewBox="0 0 512 512" style="enable-background:new 0 0 512 512;" xml:space="preserve">
<g>
	<path style="fill:#E65F58;" d="M216.949,433.898c9.568,0,17.356-7.788,17.356-17.356c0-9.568-7.788-17.356-17.356-17.356
		c-9.568,0-17.356,7.788-17.356,17.356C199.593,426.11,207.381,433.898,216.949,433.898z"/>
	<path style="fill:#E65F58;" d="M277.695,399.186c0,9.568,7.788,17.356,17.356,17.356s17.356-7.788,17.356-17.356
		s-7.788-17.356-17.356-17.356S277.695,389.619,277.695,399.186z"/>
	<path style="fill:#E65F58;" d="M312.407,203.865c0-22.229-15.093-41.305-36.703-46.39c-3.915-0.924-6.686-4.424-6.686-8.449V52.068
		h-26.034v96.958c0,4.025-2.771,7.526-6.695,8.449c-21.602,5.085-36.695,24.161-36.695,46.39v21.763h112.814V203.865z"/>
</g>
<polygon style="fill:#D8D8D8;" points="277.695,34.712 286.373,34.712 286.373,17.356 225.627,17.356 225.627,34.712 
	234.305,34.712 "/>
<path style="fill:#F28544;" d="M152.466,494.644h207.068l38-216.949H114.466L152.466,494.644z M214.701,382.058
	c8.379-15.552,18.076-40.951,12.79-53.058c-3.924-8.966-0.737-13.186,2.627-15.144c7.11-4.125,9.945-5.578,53.671,52.654
	c3.55-1.228,7.298-2.035,11.262-2.035c19.144,0,34.712,15.568,34.712,34.712c0,19.144-15.568,34.712-34.712,34.712
	s-34.712-15.568-34.712-34.712c0-8.882,3.449-16.908,8.953-23.052c-7.928-10.511-16.466-21.499-23.572-30.278
	c-1.984,15.036-8.629,30.369-13.312,39.77c11.364,5.708,19.253,17.353,19.253,30.916c0,19.144-15.568,34.712-34.712,34.712
	s-34.712-15.568-34.712-34.712C182.237,398.168,196.621,383.24,214.701,382.058z"/>
<polygon style="fill:#D8D8D8;" points="190.915,242.983 60.746,242.983 60.746,260.339 104.136,260.339 407.864,260.339 
	451.254,260.339 451.254,242.983 321.085,242.983 "/>
<g>
	<path style="fill:#314E55;" d="M459.932,225.627H329.763v-21.763c0-27.966-17.525-52.288-43.39-61.339V52.068h8.678
		c4.797,0,8.678-3.881,8.678-8.678V8.678c0-4.797-3.881-8.678-8.678-8.678h-78.102c-4.797,0-8.678,3.881-8.678,8.678V43.39
		c0,4.797,3.881,8.678,8.678,8.678h8.678v90.458c-25.864,9.051-43.39,33.364-43.39,61.339v21.763H52.068
		c-4.797,0-8.678,3.881-8.678,8.678v34.712c0,4.797,3.881,8.678,8.678,8.678h44.774l39.785,227.127
		c0.729,4.153,4.339,7.178,8.551,7.178h221.644c4.212,0,7.822-3.025,8.551-7.178l39.785-227.127h44.774
		c4.797,0,8.678-3.881,8.678-8.678v-34.712C468.61,229.509,464.729,225.627,459.932,225.627z M225.627,17.356h60.746v17.356h-8.678
		h-43.39h-8.678V17.356z M199.593,203.865c0-22.229,15.093-41.305,36.695-46.39c3.924-0.924,6.695-4.424,6.695-8.449V52.068h26.034
		v96.958c0,4.025,2.771,7.526,6.686,8.449c21.61,5.085,36.703,24.161,36.703,46.39v21.763H199.593V203.865z M359.534,494.644
		H152.466l-38-216.949h283.068L359.534,494.644z M451.254,260.339h-43.39H104.136h-43.39v-17.356h130.169h130.169h130.169V260.339z"
		/>
	<path style="fill:#314E55;" d="M216.949,451.254c19.144,0,34.712-15.568,34.712-34.712c0-13.563-7.889-25.208-19.253-30.916
		c4.684-9.401,11.328-24.734,13.312-39.77c7.106,8.779,15.645,19.767,23.572,30.278c-5.504,6.144-8.953,14.171-8.953,23.052
		c0,19.144,15.568,34.712,34.712,34.712s34.712-15.568,34.712-34.712c0-19.144-15.568-34.712-34.712-34.712
		c-3.963,0-7.711,0.807-11.262,2.035c-43.725-58.233-46.561-56.78-53.671-52.654c-3.364,1.958-6.551,6.178-2.627,15.144
		c5.286,12.106-4.411,37.505-12.79,53.058c-18.08,1.183-32.464,16.11-32.464,34.485
		C182.237,435.686,197.805,451.254,216.949,451.254z M312.407,399.186c0,9.568-7.788,17.356-17.356,17.356
		s-17.356-7.788-17.356-17.356s7.788-17.356,17.356-17.356S312.407,389.619,312.407,399.186z M216.949,399.186
		c9.568,0,17.356,7.788,17.356,17.356c0,9.568-7.788,17.356-17.356,17.356c-9.568,0-17.356-7.788-17.356-17.356
		C199.593,406.974,207.381,399.186,216.949,399.186z"/>
</g>
<g>
</g>
<g>
</g>
<g>
</g>
<g>
</g>
<g>
</g>
<g>
</g>
<g>
</g>
<g>
</g>
<g>
</g>
<g>
</g>
<g>
</g>
<g>
</g>
<g>
</g>
<g>
</g>
<g>
</g>
</svg>
